<?xml version="1.0" encoding="UTF-8" standalone="no"?><!DOCTYPE svg PUBLIC "-//W3C//DTD SVG 1.1//EN" "http://www.w3.org/Graphics/SVG/1.1/DTD/svg11.dtd"><svg width="100%" height="100%" viewBox="0 0 960 540" version="1.1" xmlns="http://www.w3.org/2000/svg" xmlns:xlink="http://www.w3.org/1999/xlink" xml:space="preserve" xmlns:serif="http://www.serif.com/" style="fill-rule:evenodd;clip-rule:evenodd;stroke-linejoin:round;stroke-miterlimit:1.41421;"><rect x="0" y="0" width="960" height="540" style="fill:#241e4e;"/><g><path d="M628.162,76.207c-0.967,-5.94 -2.384,-10.363 -4.459,-13.919c-0.026,-0.046 -0.053,-0.091 -0.081,-0.136c-2.679,-4.4 -6.377,-7.32 -10.996,-8.679c-3.282,-0.994 -7.134,-1.456 -12.112,-1.456l-247.845,0c-3.947,0 -7.676,1.293 -10.795,3.74c-3.663,2.761 -5.676,6.973 -6.878,9.92c-1.421,3.492 -2.498,7.889 -3.286,13.413c-0.717,4.891 -1.08,10.856 -1.08,17.728c0,14.292 1.262,24.208 3.974,31.201c4.701,12.406 13.334,14.26 18.065,14.26l161.973,0l-52.354,115.899c-1.936,4.285 -0.032,9.33 4.254,11.265c4.287,1.935 9.33,0.031 11.265,-4.254l57.785,-127.92c1.19,-2.635 0.962,-5.695 -0.606,-8.124c-1.569,-2.429 -4.263,-3.897 -7.154,-3.897l-175.163,0c-0.133,0 -0.188,-0.015 -0.189,-0.015c-0.184,-0.083 -1.056,-0.878 -1.961,-3.274c-0.01,-0.026 -0.019,-0.054 -0.03,-0.08c-1.291,-3.318 -2.829,-10.361 -2.829,-25.063c0,-5.964 0.311,-11.241 0.904,-15.29c0.586,-4.1 1.328,-7.273 2.205,-9.425c0.793,-1.947 1.322,-2.657 1.461,-2.824c0.05,-0.039 0.099,-0.077 0.149,-0.116c0.104,-0.083 0.155,-0.106 0.155,-0.106c0.002,0 0.042,-0.01 0.136,-0.01l247.844,0c3.183,0 5.603,0.246 7.196,0.731c0.032,0.01 0.065,0.019 0.098,0.029c0.268,0.078 0.634,0.184 1.224,1.131c0.659,1.158 1.583,3.477 2.321,8.004c0.665,4.091 0.989,9.722 0.989,17.216c0,5.93 -0.21,11.133 -0.622,15.468c-0.451,4.748 -0.988,8.688 -1.641,12.047c-0.726,3.729 -1.606,6.95 -2.693,9.848c-0.027,0.074 -0.054,0.149 -0.08,0.224c-1.067,3.105 -2.464,6.646 -4.275,10.834l-137.044,318.157c-1.021,2.084 -2.005,3.165 -2.688,3.736c-0.731,0.616 -2.249,1.526 -5.332,2.366c-2.983,0.814 -7.209,1.4 -12.214,1.693c-5.031,0.29 -11.584,0.426 -20.622,0.426c-11.424,0 -19.955,-0.342 -26.063,-1.042c-7.61,-0.888 -10.64,-2.168 -11.589,-2.677c-0.071,-0.039 -0.142,-0.075 -0.214,-0.111c-0.079,-0.04 -0.152,-0.078 -0.219,-0.114c0.12,-0.789 0.453,-2.042 1.325,-3.839c0.033,-0.069 0.066,-0.14 0.098,-0.209l57.783,-127.918c1.935,-4.285 0.031,-9.33 -4.254,-11.265c-4.289,-1.936 -9.33,-0.031 -11.266,4.254l-57.739,127.819c-2.302,4.783 -3.304,9.297 -2.98,13.422c0.196,3.258 1.731,9.084 9.531,13.029c4.04,2.137 9.783,3.617 17.567,4.525c6.777,0.777 15.942,1.154 28.02,1.154c9.502,0 16.164,-0.139 21.611,-0.455c6.261,-0.367 11.545,-1.129 15.705,-2.264c4.947,-1.348 8.813,-3.236 11.787,-5.741c2.856,-2.38 5.27,-5.598 7.174,-9.564c0.051,-0.104 0.099,-0.21 0.145,-0.316l137.112,-318.315c1.962,-4.537 3.502,-8.443 4.707,-11.94c1.403,-3.763 2.523,-7.843 3.422,-12.466c0.76,-3.904 1.374,-8.381 1.878,-13.683c0.47,-4.935 0.698,-10.522 0.698,-17.081c0.001,-8.537 -0.383,-14.876 -1.208,-19.951Z" style="fill:#ebebeb;fill-rule:nonzero;"/><path d="M454.271,305.126c4.702,0 8.515,-3.813 8.515,-8.515c0,-4.702 -3.813,-8.515 -8.515,-8.515l-0.007,0c-4.702,0 -8.511,3.813 -8.511,8.515c0,4.702 3.815,8.515 8.518,8.515Z" style="fill:#ebebeb;fill-rule:nonzero;"/></g></svg>