<svg id="Layer_1" data-name="Layer 1" xmlns="http://www.w3.org/2000/svg" viewBox="0 0 1600 2560"><title>100$_startup</title><rect width="1600" height="2560" fill="#80d261"/><path d="M1040.86,2075.22v19.34a130.15,130.15,0,0,1-24.5,76l-39.84,55.48v292.5a27.27,27.27,0,0,1-27.27,27.27H665.5a27.27,27.27,0,0,1-27.27-27.27V1872.93h402.63Z" transform="translate(-0.5 0.5)" fill="#fed2a4"/><path d="M1040.86,1891.32v-18.39H638.23v645.63a27.27,27.27,0,0,0,27.26,27.27H771.81a27.35,27.35,0,0,1-1.21-8V2352.61A114.14,114.14,0,0,0,825.76,2255v-54.9a171.38,171.38,0,0,0-50.51-122c-1.52-1.52-3.08-3-4.65-4.46V1891.32Z" transform="translate(-0.5 0.5)" fill="#ffbd86"/><path d="M1252.29,1681.7v371.44a20.19,20.19,0,0,1-20.19,20.19h-820a20.19,20.19,0,0,1-20.19-20.19V1681.7a20.19,20.19,0,0,1,20.2-20.19h820A20.19,20.19,0,0,1,1252.29,1681.7Z" transform="translate(-0.5 0.5)" fill="#97da7b"/><path d="M581.24,2053.11V1681.73a20.2,20.2,0,0,1,20.18-20.22H413.9a20.19,20.19,0,0,0-20.19,20.19v371.44a20.19,20.19,0,0,0,20.19,20.19H601.42A20.2,20.2,0,0,1,581.24,2053.11Z" transform="translate(-0.5 0.5)" fill="#80d261"/><path d="M1197.14,1757.12v220.6a40.45,40.45,0,0,0-40.46,40.46H489.32a40.45,40.45,0,0,0-40.46-40.46v-220.6a40.46,40.46,0,0,0,40.46-40.46h667.36A40.46,40.46,0,0,0,1197.14,1757.12Z" transform="translate(-0.5 0.5)" fill="#dbf1d0"/><path d="M669.59,1875.5a99.77,99.77,0,0,0-70.83-29.16l-2,0h-.18A16.52,16.52,0,0,1,579.4,1830V1716.66H489.32a40.46,40.46,0,0,1-40.46,40.46v220.6a40.45,40.45,0,0,1,40.46,40.46H698.9v-72.42a98.28,98.28,0,0,0-29.31-70.26Z" transform="translate(-0.5 0.5)" fill="#d5efc8"/><circle cx="822.4" cy="1859.04" r="107.69" fill="#97da7b"/><path d="M987.55,1663.48v53.08c0,27.19-22.27,49.13-49.38,47.12a46.15,46.15,0,0,1-42.55-46.16v-54.06A31.37,31.37,0,0,1,927,1632.09h29.17A31.39,31.39,0,0,1,987.55,1663.48Z" transform="translate(-0.5 0.5)" fill="#fed2a4"/><path d="M895.62,1717.52v18.21c0,27.19-22.27,49.12-49.38,47.11a46.16,46.16,0,0,1-42.54-46.16v-73.22a31.36,31.36,0,0,1,31.36-31.37h29.19a31.36,31.36,0,0,1,31.37,31.37Z" transform="translate(-0.5 0.5)" fill="#fed2a4"/><path d="M801.86,1736.68v14.64c0,27.19-22.27,49.12-49.38,47.12a46.16,46.16,0,0,1-42.55-46.16v-88.82a31.37,31.37,0,0,1,31.37-31.37h29.19a31.37,31.37,0,0,1,31.37,31.37Z" transform="translate(-0.5 0.5)" fill="#fed2a4"/><path d="M709.93,1663.46v72.27c0,27.19-22.27,49.12-49.38,47.11A46.16,46.16,0,0,1,618,1736.68v-73.22a31.36,31.36,0,0,1,31.36-31.37h29.41a31.25,31.25,0,0,1,31.15,31.37Z" transform="translate(-0.5 0.5)" fill="#fed2a4"/><path d="M939.75,1717.52v-54.06A31.39,31.39,0,0,1,963.61,1633a31.52,31.52,0,0,0-7.38-.88H927a31.39,31.39,0,0,0-31.39,31.39v53.32c0,24.46,18.68,45.49,43.09,46.93a45.38,45.38,0,0,0,24.81-5.63A46.33,46.33,0,0,1,939.75,1717.52Z" transform="translate(-0.5 0.5)" fill="#ffbd86"/><path d="M847.82,1736.68v-73.22A31.37,31.37,0,0,1,871.67,1633a31.35,31.35,0,0,0-7.36-.88H835.06a31.36,31.36,0,0,0-31.36,31.37V1736c0,24.46,18.68,45.49,43.1,46.92a45.35,45.35,0,0,0,24.8-5.63A46.34,46.34,0,0,1,847.82,1736.68Z" transform="translate(-0.5 0.5)" fill="#ffbd86"/><path d="M754.06,1752.28v-88.82A31.4,31.4,0,0,1,777.94,1633a31.61,31.61,0,0,0-7.39-.89H741.32a31.39,31.39,0,0,0-31.39,31.39v88.08c0,24.45,18.68,45.48,43.09,46.92a45.29,45.29,0,0,0,24.81-5.62A46.33,46.33,0,0,1,754.06,1752.28Z" transform="translate(-0.5 0.5)" fill="#ffbd86"/><path d="M662.13,1736.68v-73.22A31.38,31.38,0,0,1,686,1633a31.91,31.91,0,0,0-7.37-.88H649.37A31.36,31.36,0,0,0,618,1663.46V1736c0,24.45,18.67,45.48,43.08,46.92a45.22,45.22,0,0,0,24.82-5.63,46.34,46.34,0,0,1-23.78-40.57Z" transform="translate(-0.5 0.5)" fill="#ffbd86"/><path d="M779.8,2254.22a68.11,68.11,0,0,1-69.64,68.1l-72.25-1.6-63.29-63.29a96.67,96.67,0,0,1-28.32-68.34V1946.25c0-28.25,21.56-52.42,49.75-54.26a53.36,53.36,0,0,1,56.89,53.2v113.6a14.68,14.68,0,0,0,13.21,14.6A126.85,126.85,0,0,1,779.8,2199.57Z" transform="translate(-0.5 0.5)" fill="#fed2a4"/><path d="M702.07,2313.84v0l-55.66-55.67A96.94,96.94,0,0,1,618,2189.58V1945.51a55.24,55.24,0,0,1,18-40.76,53.51,53.51,0,0,0-43.49-13.43c-26.64,3.59-46.17,27-46.17,53.85v244.41a97,97,0,0,0,28.41,68.57l63.51,63.51,73.27,1.63v0Z" transform="translate(-0.5 0.5)" fill="#ffbd86"/><path d="M1232.84,1646.8h-60.37c-7.06,0-13.39,5.07-14.23,12.09a13.79,13.79,0,0,0,13.69,15.48H1233a6.39,6.39,0,0,1,6.38,6.39v371.48a6.37,6.37,0,0,1-6.38,6.38H667.65v-27.57h372.18c7.07,0,13.4-5.08,14.23-12.09a13.79,13.79,0,0,0-13.69-15.49H667.65v-57.11c0-36.68-28.88-67.58-65.55-68.41a67.16,67.16,0,0,0-68.67,67v58.49h-33.1a54.35,54.35,0,0,0-38.6-38.6v-97.43c0-7.07-5.07-13.4-12.09-14.23a13.79,13.79,0,0,0-15.48,13.68v110A13.85,13.85,0,0,0,448,1990.67a26.61,26.61,0,0,1,26.51,26.51,13.86,13.86,0,0,0,13.82,13.87H531.6v27.57H413a6.37,6.37,0,0,1-6.38-6.38V1682.59a6.38,6.38,0,0,1,6.38-6.38H603.3v27.58H488.75s-13.82,5.44-13.82,13.07a26.67,26.67,0,0,1-26.64,26.64,14.3,14.3,0,0,0-14.13,13.82v50.79a14.3,14.3,0,0,0,14.13,13.82,13.27,13.27,0,0,0,13.44-13.82v-38.76c19.22-5,39-39.82,39-39.82H603.3V1736c.79,33.15,27.75,60.11,60.89,60.11a59.86,59.86,0,0,0,40.06-15.34,60.06,60.06,0,0,0,105.07,0,60,60,0,0,0,93.87-18,60.18,60.18,0,0,0,97.25-31.36H1144.8c5,18.15,37.63,38,37.63,38v195.52a54.35,54.35,0,0,0-38.6,38.6h-45.12c-7.07,0-13.4,5.07-14.23,12.09a13.8,13.8,0,0,0,13.68,15.49h59.31a13.83,13.83,0,0,0,13.81-13.87,26.72,26.72,0,0,1,26.7-26.67,13.84,13.84,0,0,0,13.86-13.82V1756.31a13.84,13.84,0,0,0-13.86-13.82,26.73,26.73,0,0,1-26.7-26.67,13.83,13.83,0,0,0-13.81-13.87H1002.25v-25.74h110.41a14.21,14.21,0,0,0,13.71-9.93c3-10.15-4-19.48-13.11-19.48H999.5a45.22,45.22,0,0,0-42.63-29.42H927a45.67,45.67,0,0,0-31.38,12.39,45.63,45.63,0,0,0-31.37-12.39H834.45a45.63,45.63,0,0,0-31.37,12.39,45.67,45.67,0,0,0-31.38-12.39H741.87a45.65,45.65,0,0,0-31.38,12.39,45.67,45.67,0,0,0-31.38-12.39H649.28a45.19,45.19,0,0,0-42.62,29.42H413a34,34,0,0,0-34,34v371.38a34,34,0,0,0,34,34H531.6v102.47a109.31,109.31,0,0,0,32.47,78l59.45,59.16v219.09a14.18,14.18,0,0,0,8.65,13.22c10.64,4.29,20.77-3.42,20.77-13.5V2321a13.88,13.88,0,0,0-4.07-9.82l-63.51-63.51A82.57,82.57,0,0,1,561,2188.85V1946.14c0-20.58,15.36-38.43,35.85-40.29a39.58,39.58,0,0,1,43.21,39.36v127.52a13.89,13.89,0,0,0,14,13.82,113.12,113.12,0,0,1,112.9,113v8.39c0,6.18,4,11.88,10.07,13.24,8.33,1.88,15.66-4.88,15.66-13.5v-8.85c0-46.1-20.84-87-52.92-112.63h286.42v7.06a116.7,116.7,0,0,1-21.92,68.08l-39.84,55.45a13.74,13.74,0,0,0-2.59,8v319.74c0,7.06,5.07,13.39,12.09,14.23a13.8,13.8,0,0,0,15.49-13.69V2230l37.26-52a143.79,143.79,0,0,0,27.08-84.27v-7.48H1233a34,34,0,0,0,34-34V1680.84a34.14,34.14,0,0,0-34.16-34ZM927.73,1645H957.2a17.48,17.48,0,0,1,17.48,17.47v53.4c0,19.18-15.72,34.71-34.84,33.12a32.4,32.4,0,0,1-29.51-32.37v-54.06A17.5,17.5,0,0,1,927.73,1645ZM834,1645h29.4a17.47,17.47,0,0,1,17.47,17.47V1735c0,19.18-15.71,34.71-34.83,33.12a32.4,32.4,0,0,1-29.51-32.37v-73.3A17.47,17.47,0,0,1,834,1645Zm-92,0h29.55a17.4,17.4,0,0,1,17.4,17.4v90.15a32.18,32.18,0,0,1-32.18,32.18h0a32.17,32.17,0,0,1-32.17-32.18v-89.88A17.56,17.56,0,0,1,742,1645Zm-109.32,17.56A17.5,17.5,0,0,1,650.11,1645h29.48a17.47,17.47,0,0,1,17.47,17.47V1735c0,19.18-15.71,34.71-34.83,33.12a32.41,32.41,0,0,1-29.52-32.37v-73.21Z" transform="translate(-0.5 0.5)"/><path d="M718.57,1828.38a13.83,13.83,0,0,0-15.76,11.55,123.17,123.17,0,0,0-1.42,18.61,121.51,121.51,0,1,0,238.26-33.65,13.81,13.81,0,1,0-26.55,7.64,93.88,93.88,0,1,1-184.08,26,95,95,0,0,1,1.1-14.41A13.81,13.81,0,0,0,718.57,1828.38Z" transform="translate(-0.5 0.5)"/><text transform="translate(610.07 255.54)" font-size="200" fill="#468530" font-family="CopperplateGothic-Bold, Copperplate Gothic Bold" font-weight="700" letter-spacing="0.04em">The<tspan font-size="250"><tspan x="-149.29" y="300">$</tspan><tspan x="39.06" y="300" letter-spacing="-0.04em">1</tspan><tspan x="206.9" y="300">00</tspan></tspan><tspan font-size="250" letter-spacing="0.04em"><tspan x="-384.01" y="600">S</tspan><tspan x="-193.1" y="600" letter-spacing="-0.02em">t</tspan><tspan x="-55.91" y="600" letter-spacing="0.04em">a</tspan><tspan x="127.56" y="600" letter-spacing="0.05em">r</tspan><tspan x="310.53" y="600" letter-spacing="0.04em">tup</tspan></tspan></text><text transform="translate(251.61 1191.05)" font-size="85" font-family="BerlinSansFB-Reg, Berlin Sans FB" letter-spacing="0.04em">Reinvest the way you Make<tspan x="-10.58" y="102">a Living, Do what you Love,</tspan><tspan x="24.46" y="204">and Create a New Future!</tspan></text><rect x="64.5" y="0.5" width="37.5" height="2559" fill="#468530"/></svg>