<svg id="Layer_1" data-name="Layer 1" xmlns="http://www.w3.org/2000/svg" viewBox="0 0 1600 2560"><title>100$_startup</title><rect width="1600" height="2560" fill="#80d261"/><path d="M1040.86,2075.22v19.34a130.15,130.15,0,0,1-24.5,76l-39.84,55.48v292.5a27.27,27.27,0,0,1-27.27,27.27H665.5a27.27,27.27,0,0,1-27.27-27.27V1872.93h402.63Z" transform="translate(-0.5 0.5)" fill="#fed2a4"/><path d="M1040.86,1891.32v-18.39H638.23v645.63a27.27,27.27,0,0,0,27.26,27.27H771.81a27.35,27.35,0,0,1-1.21-8V2352.61A114.14,114.14,0,0,0,825.76,2255v-54.9a171.38,171.38,0,0,0-50.51-122c-1.52-1.52-3.08-3-4.65-4.46V1891.32Z" transform="translate(-0.5 0.5)" fill="#ffbd86"/><path d="M1252.29,1681.7v371.44a20.19,20.19,0,0,1-20.19,20.19h-820a20.19,20.19,0,0,1-20.19-20.19V1681.7a20.19,20.19,0,0,1,20.2-20.19h820A20.19,20.19,0,0,1,1252.29,1681.7Z" transform="translate(-0.5 0.5)" fill="#97da7b"/><path d="M581.24,2053.11V1681.73a20.2,20.2,0,0,1,20.18-20.22H413.9a20.19,20.19,0,0,0-20.19,20.19v371.44a20.19,20.19,0,0,0,20.19,20.19H601.42A20.2,20.2,0,0,1,581.24,2053.11Z" transform="translate(-0.5 0.5)" fill="#80d261"/><path d="M1197.14,1757.12v220.6a40.45,40.45,0,0,0-40.46,40.46H489.32a40.45,40.45,0,0,0-40.46-40.46v-220.6a40.46,40.46,0,0,0,40.46-40.46h667.36A40.46,40.46,0,0,0,1197.14,1757.12Z" transform="translate(-0.5 0.5)" fill="#dbf1d0"/><path d="M669.59,1875.5a99.77,99.77,0,0,0-70.83-29.16l-2,0h-.18A16.52,16.52,0,0,1,579.4,1830V1716.66H489.32a40.46,40.46,0,0,1-40.46,40.46v220.6a40.45,40.45,0,0,1,40.46,40.46H698.9v-72.42a98.28,98.28,0,0,0-29.31-70.26Z" transform="translate(-0.5 0.5)" fill="#d5efc8"/><circle cx="822.4" cy="1859.04" r="107.69" fill="#97da7b"/><path d="M987.55,1663.48v53.08c0,27.19-22.27,49.13-49.38,47.12a46.15,46.15,0,0,1-42.55-46.16v-54.06A31.37,31.37,0,0,1,927,1632.09h29.17A31.39,31.39,0,0,1,987.55,1663.48Z" transform="translate(-0.5 0.5)" fill="#fed2a4"/><path d="M895.62,1717.52v18.21c0,27.19-22.27,49.12-49.38,47.11a46.16,46.16,0,0,1-42.54-46.16v-73.22a31.36,31.36,0,0,1,31.36-31.37h29.19a31.36,31.36,0,0,1,31.37,31.37Z" transform="translate(-0.5 0.5)" fill="#fed2a4"/><path d="M801.86,1736.68v14.64c0,27.19-22.27,49.12-49.38,47.12a46.16,46.16,0,0,1-42.55-46.16v-88.82a31.37,31.37,0,0,1,31.37-31.37h29.19a31.37,31.37,0,0,1,31.37,31.37Z" transform="translate(-0.5 0.5)" fill="#fed2a4"/><path d="M709.93,1663.46v72.27c0,27.19-22.27,49.12-49.38,47.11A46.16,46.16,0,0,1,618,1736.68v-73.22a31.36,31.36,0,0,1,31.36-31.37h29.41a31.25,31.25,0,0,1,31.15,31.37Z" transform="translate(-0.5 0.5)" fill="#fed2a4"/><path d="M939.75,1717.52v-54.06A31.39,31.39,0,0,1,963.61,1633a31.52,31.52,0,0,0-7.38-.88H927a31.39,31.39,0,0,0-31.39,31.39v53.32c0,24.46,18.68,45.49,43.09,46.93a45.38,45.38,0,0,0,24.81-5.63A46.33,46.33,0,0,1,939.75,1717.52Z" transform="translate(-0.5 0.5)" fill="#ffbd86"/><path d="M847.82,1736.68v-73.22A31.37,31.37,0,0,1,871.67,1633a31.35,31.35,0,0,0-7.36-.88H835.06a31.36,31.36,0,0,0-31.36,31.37V1736c0,24.46,18.68,45.49,43.1,46.92a45.35,45.35,0,0,0,24.8-5.63A46.34,46.34,0,0,1,847.82,1736.68Z" transform="translate(-0.5 0.5)" fill="#ffbd86"/><path d="M754.06,1752.28v-88.82A31.4,31.4,0,0,1,777.94,1633a31.61,31.61,0,0,0-7.39-.89H741.32a31.39,31.39,0,0,0-31.39,31.39v88.08c0,24.45,18.68,45.48,43.09,46.92a45.29,45.29,0,0,0,24.81-5.62A46.33,46.33,0,0,1,754.06,1752.28Z" transform="translate(-0.5 0.5)" fill="#ffbd86"/><path d="M662.13,1736.68v-73.22A31.38,31.38,0,0,1,686,1633a31.91,31.91,0,0,0-7.37-.88H649.37A31.36,31.36,0,0,0,618,1663.46V1736c0,24.45,18.67,45.48,43.08,46.92a45.22,45.22,0,0,0,24.82-5.63,46.34,46.34,0,0,1-23.78-40.57Z" transform="translate(-0.5 0.5)" fill="#ffbd86"/><path d="M779.8,2254.22a68.11,68.11,0,0,1-69.64,68.1l-72.25-1.6-63.29-63.29a96.67,96.67,0,0,1-28.32-68.34V1946.25c0-28.25,21.56-52.42,49.75-54.26a53.36,53.36,0,0,1,56.89,53.2v113.6a14.68,14.68,0,0,0,13.21,14.6A126.85,126.85,0,0,1,779.8,2199.57Z" transform="translate(-0.5 0.5)" fill="#fed2a4"/><path d="M702.07,2313.84v0l-55.66-55.67A96.94,96.94,0,0,1,618,2189.58V1945.51a55.24,55.24,0,0,1,18-40.76,53.51,53.51,0,0,0-43.49-13.43c-26.64,3.59-46.17,27-46.17,53.85v244.41a97,97,0,0,0,28.41,68.57l63.51,63.51,73.27,1.63v0Z" transform="translate(-0.5 0.5)" fill="#ffbd86"/><path d="M1232.84,1646.8h-60.37c-7.06,0-13.39,5.07-14.23,12.09a13.79,13.79,0,0,0,13.69,15.48H1233a6.39,6.39,0,0,1,6.38,6.39v371.48a6.37,6.37,0,0,1-6.38,6.38H667.65v-27.57h372.18c7.07,0,13.4-5.08,14.23-12.09a13.79,13.79,0,0,0-13.69-15.49H667.65v-57.11c0-36.68-28.88-67.58-65.55-68.41a67.16,67.16,0,0,0-68.67,67v58.49h-33.1a54.35,54.35,0,0,0-38.6-38.6v-97.43c0-7.07-5.07-13.4-12.09-14.23a13.79,13.79,0,0,0-15.48,13.68v110A13.85,13.85,0,0,0,448,1990.67a26.61,26.61,0,0,1,26.51,26.51,13.86,13.86,0,0,0,13.82,13.87H531.6v27.57H413a6.37,6.37,0,0,1-6.38-6.38V1682.59a6.38,6.38,0,0,1,6.38-6.38H603.3v27.58H488.75s-13.82,5.44-13.82,13.07a26.67,26.67,0,0,1-26.64,26.64,14.3,14.3,0,0,0-14.13,13.82v50.79a14.3,14.3,0,0,0,14.13,13.82,13.27,13.27,0,0,0,13.44-13.82v-38.76c19.22-5,39-39.82,39-39.82H603.3V1736c.79,33.15,27.75,60.11,60.89,60.11a59.86,59.86,0,0,0,40.06-15.34,60.06,60.06,0,0,0,105.07,0,60,60,0,0,0,93.87-18,60.18,60.18,0,0,0,97.25-31.36H1144.8c5,18.15,37.63,38,37.63,38v195.52a54.35,54.35,0,0,0-38.6,38.6h-45.12c-7.07,0-13.4,5.07-14.23,12.09a13.8,13.8,0,0,0,13.68,15.49h59.31a13.83,13.83,0,0,0,13.81-13.87,26.72,26.72,0,0,1,26.7-26.67,13.84,13.84,0,0,0,13.86-13.82V1756.31a13.84,13.84,0,0,0-13.86-13.82,26.73,26.73,0,0,1-26.7-26.67,13.83,13.83,0,0,0-13.81-13.87H1002.25v-25.74h110.41a14.21,14.21,0,0,0,13.71-9.93c3-10.15-4-19.48-13.11-19.48H999.5a45.22,45.22,0,0,0-42.63-29.42H927a45.67,45.67,0,0,0-31.38,12.39,45.63,45.63,0,0,0-31.37-12.39H834.45a45.63,45.63,0,0,0-31.37,12.39,45.67,45.67,0,0,0-31.38-12.39H741.87a45.65,45.65,0,0,0-31.38,12.39,45.67,45.67,0,0,0-31.38-12.39H649.28a45.19,45.19,0,0,0-42.62,29.42H413a34,34,0,0,0-34,34v371.38a34,34,0,0,0,34,34H531.6v102.47a109.31,109.31,0,0,0,32.47,78l59.45,59.16v219.09a14.18,14.18,0,0,0,8.65,13.22c10.64,4.29,20.77-3.42,20.77-13.5V2321a13.88,13.88,0,0,0-4.07-9.82l-63.51-63.51A82.57,82.57,0,0,1,561,2188.85V1946.14c0-20.58,15.36-38.43,35.85-40.29a39.58,39.58,0,0,1,43.21,39.36v127.52a13.89,13.89,0,0,0,14,13.82,113.12,113.12,0,0,1,112.9,113v8.39c0,6.18,4,11.88,10.07,13.24,8.33,1.88,15.66-4.88,15.66-13.5v-8.85c0-46.1-20.84-87-52.92-112.63h286.42v7.06a116.7,116.7,0,0,1-21.92,68.08l-39.84,55.45a13.74,13.74,0,0,0-2.59,8v319.74c0,7.06,5.07,13.39,12.09,14.23a13.8,13.8,0,0,0,15.49-13.69V2230l37.26-52a143.79,143.79,0,0,0,27.08-84.27v-7.48H1233a34,34,0,0,0,34-34V1680.84a34.14,34.14,0,0,0-34.16-34ZM927.73,1645H957.2a17.48,17.48,0,0,1,17.48,17.47v53.4c0,19.18-15.72,34.71-34.84,33.12a32.4,32.4,0,0,1-29.51-32.37v-54.06A17.5,17.5,0,0,1,927.73,1645ZM834,1645h29.4a17.47,17.47,0,0,1,17.47,17.47V1735c0,19.18-15.71,34.71-34.83,33.12a32.4,32.4,0,0,1-29.51-32.37v-73.3A17.47,17.47,0,0,1,834,1645Zm-92,0h29.55a17.4,17.4,0,0,1,17.4,17.4v90.15a32.18,32.18,0,0,1-32.18,32.18h0a32.17,32.17,0,0,1-32.17-32.18v-89.88A17.56,17.56,0,0,1,742,1645Zm-109.32,17.56A17.5,17.5,0,0,1,650.11,1645h29.48a17.47,17.47,0,0,1,17.47,17.47V1735c0,19.18-15.71,34.71-34.83,33.12a32.41,32.41,0,0,1-29.52-32.37v-73.21Z" transform="translate(-0.5 0.5)"/><path d="M718.57,1828.38a13.83,13.83,0,0,0-15.76,11.55,123.17,123.17,0,0,0-1.42,18.61,121.51,121.51,0,1,0,238.26-33.65,13.81,13.81,0,1,0-26.55,7.64,93.88,93.88,0,1,1-184.08,26,95,95,0,0,1,1.1-14.41A13.81,13.81,0,0,0,718.57,1828.38Z" transform="translate(-0.5 0.5)"/><path d="M692.6,143.71V244.79a6.78,6.78,0,0,0,1.37,4.59,10,10,0,0,0,4.88,2.54V255h-41.6v-3.12a10,10,0,0,0,4.89-2.54,6.78,6.78,0,0,0,1.36-4.59V143.71H622.1a6.75,6.75,0,0,0-4.5,1.34,9.89,9.89,0,0,0-2.53,4.91h-3.13V115.49h3.13a10.72,10.72,0,0,0,2.58,4.91,6.54,6.54,0,0,0,4.45,1.34H733.91a6.89,6.89,0,0,0,4.59-1.34,9.94,9.94,0,0,0,2.54-4.91h3.13V150H741a9.89,9.89,0,0,0-2.54-4.91,6.89,6.89,0,0,0-4.59-1.34Z" transform="translate(-0.5 0.5)" fill="#468530"/><path d="M856.56,207.39H795.43V245a6.93,6.93,0,0,0,1.37,4.64,10.22,10.22,0,0,0,4.88,2.69V255H763v-2.73a9.21,9.21,0,0,0,4.83-2.54,7,7,0,0,0,1.42-4.69V155.63a6.78,6.78,0,0,0-1.37-4.59A10.62,10.62,0,0,0,763,148.4v-2.73h38.67v2.73A9.72,9.72,0,0,0,796.8,151a6.92,6.92,0,0,0-1.37,4.63v31.95h61.13V155.61a6.93,6.93,0,0,0-1.32-4.58c-.88-1-2.52-1.91-4.93-2.63v-2.73H889v2.73A9.69,9.69,0,0,0,884.1,151a7,7,0,0,0-1.37,4.63V245a7,7,0,0,0,1.37,4.64,10.36,10.36,0,0,0,4.88,2.68V255H850.31v-2.73a9.29,9.29,0,0,0,4.84-2.55,7,7,0,0,0,1.41-4.69Z" transform="translate(-0.5 0.5)" fill="#468530"/><path d="M948.55,208.56v26.66H1018a7.05,7.05,0,0,0,4.64-1.35c1.07-.89,1.93-2.53,2.59-4.9h2.73v32.32h-2.73a9.28,9.28,0,0,0-2.54-4.83A7,7,0,0,0,1018,255H916.12v-2.73a9.29,9.29,0,0,0,4.84-2.54,7,7,0,0,0,1.41-4.69V155.63A6.78,6.78,0,0,0,921,151a10.66,10.66,0,0,0-4.89-2.64v-2.73H1015a7.17,7.17,0,0,0,4.74-1.37,9.77,9.77,0,0,0,2.59-4.88h2.63v32.32h-2.63a9.62,9.62,0,0,0-2.59-4.9,7.22,7.22,0,0,0-4.74-1.35h-66.4v24h41.21a7,7,0,0,0,4.64-1.37,10.36,10.36,0,0,0,2.68-4.88h2.64v31.54h-2.64a9.84,9.84,0,0,0-2.59-4.86,7,7,0,0,0-4.73-1.39Z" transform="translate(-0.5 0.5)" fill="#468530"/><path d="M561.51,452.87l4.39.37q30.52,2.68,46.51,13.67a39.92,39.92,0,0,1,13.12,15.44A45.82,45.82,0,0,1,630.36,503q0,16.84-9.71,29.3t-28.14,19a104.6,104.6,0,0,1-31,6.23v7.93a8.48,8.48,0,0,0,1.71,5.74q1.71,2,6.1,3.17v3.91H535.38v-3.91q4.39-1.22,6.11-3.17a8.48,8.48,0,0,0,1.71-5.74v-7.93q-29.55-2.21-59.94-17.46a10.48,10.48,0,0,0-4.27-1.34q-1.59,0-5,2.68l-3.54-1.71,18.07-40.89,3.54,1.59v1.71q0,6.58,7.69,12a81.12,81.12,0,0,0,20.2,9.64,100.4,100.4,0,0,0,23.26,5.13V487.29a245,245,0,0,1-26.74-3.66,71.08,71.08,0,0,1-16.72-5.86,40.57,40.57,0,0,1-17.46-16.48,44.86,44.86,0,0,1-5.73-22.7q0-23.56,17.88-37.84t48.77-15.26v-6a8.26,8.26,0,0,0-1.71-5.62q-1.71-2-6.11-3.17v-3.91h33.94v3.91q-4.46,1.21-6.13,3.17a8.36,8.36,0,0,0-1.68,5.62v6.59a112.88,112.88,0,0,1,23.5,4.39,305.45,305.45,0,0,1,31.06,11.6,14.06,14.06,0,0,0,5,1.34c1.71,0,3.7-.93,6-2.81l3.54,1.83-20,39.19-3.42-1.95a16,16,0,0,0,.12-2q0-6.23-15.68-14.1t-30.09-9Zm-18.31-2.08V414.05A71.72,71.72,0,0,0,526.47,417a26.74,26.74,0,0,0-11.84,7.33,15.56,15.56,0,0,0-4.39,10.62,11.38,11.38,0,0,0,3,7.81,16.88,16.88,0,0,0,8.3,4.88Q528.91,449.71,543.2,450.79Zm18.31,38.58V529q12.07-1.34,19.65-5,13.92-6.84,13.92-18.56a11.91,11.91,0,0,0-2.51-7.26,13.15,13.15,0,0,0-6.4-4.7Q579.33,491.08,561.51,489.37Z" transform="translate(-0.5 0.5)" fill="#468530"/><path d="M703.47,448.6V404.29h3.9c.9,3,1.75,5,2.57,5.86a4.87,4.87,0,0,0,3.78,1.34,16.72,16.72,0,0,0,3.42-.49l10.5-2.69v-7.2a8.25,8.25,0,0,0-1.71-5.61q-1.71-2-6.11-3.18v-3.9h50.91v3.9c-2.93.82-5,1.85-6.11,3.12s-1.71,3.15-1.71,5.67V542.23a8.45,8.45,0,0,0,1.71,5.73c1.14,1.31,3.18,2.36,6.11,3.18V555H719.82v-3.9c2.93-.82,5-1.87,6.11-3.18a8.45,8.45,0,0,0,1.71-5.73V436.76l-11.48,2.8a12,12,0,0,0-5.8,2.81,14.71,14.71,0,0,0-3,6.23Z" transform="translate(-0.5 0.5)" fill="#468530"/><path d="M906.52,385.49q32.87,0,54.61,21.36,24.43,24,24.43,66a101.76,101.76,0,0,1-3.67,26.73,85.17,85.17,0,0,1-10,23.56,73.09,73.09,0,0,1-29.32,26.74A79.24,79.24,0,0,1,906.64,558q-32.86,0-54.48-21.48A76.29,76.29,0,0,1,836,513.05a103.45,103.45,0,0,1-8.31-41.38q0-29.79,13.69-51.52a72.43,72.43,0,0,1,29.31-26.61Q886.13,385.74,906.52,385.49Zm0,28.32q-19.44,0-30.93,17.21Q865,447,865,470.69t10.63,39.67q11.49,17.22,31,17.22t31.05-17.22q10.63-16,10.64-38.94,0-24.78-10.64-40.4Q926.32,414.05,906.52,413.81Z" transform="translate(-0.5 0.5)" fill="#468530"/><path d="M1094.87,385.49q32.85,0,54.6,21.36,24.43,24,24.44,66a102.18,102.18,0,0,1-3.67,26.73,84.88,84.88,0,0,1-10,23.56,73,73,0,0,1-29.32,26.74A79.23,79.23,0,0,1,1095,558q-32.87,0-54.49-21.48a76.26,76.26,0,0,1-16.12-23.44,103.45,103.45,0,0,1-8.31-41.38q0-29.79,13.68-51.52a72.46,72.46,0,0,1,29.32-26.61Q1074.46,385.74,1094.87,385.49Zm0,28.32q-19.44,0-30.93,17.21-10.65,16-10.64,39.67t10.64,39.67q11.49,17.22,31,17.22t31-17.22q10.64-16,10.63-38.94,0-24.78-10.63-40.4Q1114.67,414.05,1094.87,413.81Z" transform="translate(-0.5 0.5)" fill="#468530"/><path d="M396.61,702.53l-19.9,39.23-3.42-2c.08-.81.12-1.47.12-2q0-4.14-7.08-8.91-21.72-15.13-51-15.13A74.61,74.61,0,0,0,292.48,717a27.23,27.23,0,0,0-11.66,7.31,15.46,15.46,0,0,0-4.45,10.61q0,9.39,11.35,12.81,5.86,1.71,25.15,3.65l19.16,2q17.09,1.83,27.65,5a64.93,64.93,0,0,1,18.74,8.9A41.94,41.94,0,0,1,391.54,783a46.46,46.46,0,0,1,4.82,20.85A47.47,47.47,0,0,1,385,835q-10.26,12.44-31.86,18.42A127.57,127.57,0,0,1,318.6,858q-33.08,0-65.31-15.87c-4.55-2.11-7.28-3.17-8.17-3.17-1.06,0-2.73.9-5,2.68l-3.54-1.83,18.07-40.89,3.54,1.71v1.59q0,5.49,5.25,10.13,7.94,7.08,24.53,12.2a106.79,106.79,0,0,0,31.5,5.13q16.23,0,27.71-5.48a26.89,26.89,0,0,0,10.13-8.1,17.38,17.38,0,0,0,3.78-10.54q0-8.28-8.91-11.82-6.23-2.43-25.14-4.51l-18.8-2q-18.93-1.95-26.74-3.72a69.22,69.22,0,0,1-15.62-5.68,40.56,40.56,0,0,1-17.46-16.5,44.5,44.5,0,0,1-5.74-22.72q0-21.14,14.53-34.94,19.05-18.2,57.13-18.2a129.59,129.59,0,0,1,29.79,3.25q13.78,3.24,34.42,12,7.08,2.82,8.67,2.82,2.57,0,6-2.82Z" transform="translate(-0.5 0.5)" fill="#468530"/><path d="M504.87,743.1v99.38a8.7,8.7,0,0,0,1.71,5.79q1.71,2,6.1,3.35V855H464.34v-3.42c2.85-.73,4.87-1.78,6.05-3.17a8.77,8.77,0,0,0,1.77-5.86V743.1H431.87a8.84,8.84,0,0,0-5.92,1.75q-2,1.74-3.23,6.07h-3.3V710.51h3.3c.73,2.85,1.77,4.87,3.11,6a8.75,8.75,0,0,0,5.93,1.77H545.15c2.6,0,4.58-.56,5.92-1.71s2.42-3.17,3.24-6.1h3.3v40.41h-3.3q-1.21-4.33-3.23-6.07a8.84,8.84,0,0,0-5.92-1.75Z" transform="translate(-0.5 0.5)" fill="#468530"/><path d="M670.22,820.86H607.34l-7.08,14.9q-2.57,5.37-2.57,8.42c0,3.9,2.61,6.39,7.82,7.44V855H555.28v-3.42c3.09-.48,5.39-1.42,6.89-2.8s3.28-4.11,5.31-8.18l49.93-101.08a23.47,23.47,0,0,0,2.81-10q0-5-6.84-7.81v-3.42h53.1v3.42q-6.71,2.68-6.71,8.3,0,4,3.05,9.89l51.76,98q4.27,8,6.71,10.35t7.45,3.32V855H672.89v-3.42q7.93-1.33,7.93-7.41,0-3.78-3.05-9.36Zm-9.85-19.16-22.39-44-21.31,44Z" transform="translate(-0.5 0.5)" fill="#468530"/><path d="M790.62,798.89v43.6a8.7,8.7,0,0,0,1.71,5.79q1.71,2,6.1,3.34V855H750.09v-3.42c2.85-.73,4.86-1.78,6-3.17a8.77,8.77,0,0,0,1.77-5.86V730.77a8.5,8.5,0,0,0-1.7-5.73c-1.15-1.3-3.18-2.4-6.11-3.3v-3.42h89.6q17.46,0,26.61,1.77a46,46,0,0,1,16.36,6.41q14.77,9.64,14.77,31.5,0,16.59-9.09,25.94T859,797.43l25.88,36.05q7.08,10,11.29,13.58a20,20,0,0,0,9.58,4.56V855H848.24v-3.42q6.35-1.7,6.35-5.48,0-2.67-3.91-8.16l-27.31-39.09Zm0-24.78h49.32q11.22,0,16.6-2.44,7.56-3.3,7.57-13.06,0-8.67-5.32-12.09t-18.85-3.42H790.62Z" transform="translate(-0.5 0.5)" fill="#468530"/><path d="M1008.5,743.1v99.38a8.7,8.7,0,0,0,1.71,5.79q1.71,2,6.11,3.35V855H968v-3.42c2.85-.73,4.86-1.78,6-3.17a8.77,8.77,0,0,0,1.77-5.86V743.1H935.51a8.81,8.81,0,0,0-5.92,1.75q-2,1.74-3.24,6.07h-3.29V710.51h3.29c.73,2.85,1.77,4.87,3.12,6s3.32,1.77,5.92,1.77h113.39c2.61,0,4.58-.56,5.93-1.71s2.42-3.17,3.23-6.1h3.3v40.41h-3.3q-1.21-4.33-3.23-6.07a8.83,8.83,0,0,0-5.92-1.75Z" transform="translate(-0.5 0.5)" fill="#468530"/><path d="M1228.71,730.77v72.39q0,24.78-9.77,36.38Q1203.21,858,1159.62,858q-29.17,0-47.12-8.91-12.95-6.46-17.7-18.43-4.4-11-4.4-27.47V730.77a8.5,8.5,0,0,0-1.7-5.73c-1.15-1.3-3.18-2.4-6.11-3.3v-3.42h48.34v3.42c-3,.82-5,1.89-6.13,3.24a8.81,8.81,0,0,0-1.68,5.79v65.8q0,11.48,2,17.58a20.61,20.61,0,0,0,7,10q10,7.94,28.93,7.93t28.93-7.93a20.48,20.48,0,0,0,6.84-10q2-6.1,2-17.58v-65.8a8.66,8.66,0,0,0-1.65-5.73c-1.09-1.3-3.15-2.4-6.16-3.3v-3.42h45.53v3.42c-2.93.82-5,1.89-6.1,3.24A8.7,8.7,0,0,0,1228.71,730.77Z" transform="translate(-0.5 0.5)" fill="#468530"/><path d="M1308.41,798.89v43.6a8.7,8.7,0,0,0,1.71,5.79q1.71,2,6.1,3.34V855h-48.34v-3.42c2.85-.73,4.87-1.78,6-3.17a8.77,8.77,0,0,0,1.77-5.86V730.77A8.45,8.45,0,0,0,1274,725q-1.71-1.95-6.11-3.3v-3.42H1357q26.48,0,39.91,7.94a31.92,31.92,0,0,1,12.21,13.18,41.31,41.31,0,0,1,4.39,19.17q0,20.39-13.91,30.33t-42.6,9.95Zm0-24.78H1355q12.82,0,17.83-2.44,7.32-3.54,7.32-13.06t-7.32-13.06q-4.89-2.44-17.83-2.45h-46.63Z" transform="translate(-0.5 0.5)" fill="#468530"/><path d="M301.29,1190.22q0,.33-.66.33c-.53,0-1.33,0-2.41-.12s-1.88-.13-2.4-.13-1.45,0-2.6.13-2,.12-2.59.12a1.56,1.56,0,0,1-1.45-1q-1.33-2.83-7.56-17.48c-.41-1-1.42-1.6-3-1.82-.36,0-1.62,0-3.78,0q-5.71,0-6.8.17c-.58.08-.87.79-.87,2.12q0,2.89.27,8.69t.27,8.66c0,.58-.28.87-.83.87a23.83,23.83,0,0,1-2.52-.19c-1.12-.12-2-.19-2.55-.19s-1.19,0-2.16.13-1.68.12-2.15.12c-.7,0-1-.31-1-1q0-4.61.43-13.84t.44-13.84q0-13.12-.95-28l-.05-.66c0-.56.56-.83,1.75-.83q3.57,0,10.68-.19c4.75-.12,8.3-.19,10.65-.19q9.21,0,14.78,4.4,6.13,4.86,6.14,13.78a23.19,23.19,0,0,1-1.66,9.67,18.87,18.87,0,0,1-6.48,7.1c-.52.36-.78.71-.78,1s1.65,4.07,4.95,11S301.29,1189.78,301.29,1190.22Zm-11.37-37.64q0-7.51-4.31-10-3.19-1.86-11.5-1.86c-4.48,0-6.77.36-6.85,1.07q-.28,2.25-.29,12v7.93a1.75,1.75,0,0,0,.54.16c.5.06,1.31.13,2.45.21,2.63.14,5.46.21,8.51.21Q289.92,1162.25,289.92,1152.58Z" transform="translate(-0.5 0.5)"/><path d="M345.41,1168.27a4,4,0,0,1-2.66,4.1q-1.78.68-25.69,2.45a9.34,9.34,0,0,0,4,6.23,11.8,11.8,0,0,0,7.14,2.45,19.19,19.19,0,0,0,12-4.24l1.33-1.07a.75.75,0,0,1,.44.08c.07,0,.58,1,1.55,2.88a25.47,25.47,0,0,1,1.46,3c0,.17-.23.49-.67,1a20.56,20.56,0,0,1-15.64,6.47q-9.63,0-15.36-5.75t-5.73-15.33a22.1,22.1,0,0,1,5.48-14.9,18.09,18.09,0,0,1,14.15-6.6,16.91,16.91,0,0,1,13,5.73A19.23,19.23,0,0,1,345.41,1168.27Zm-9.88-2.54a8.28,8.28,0,0,0-2.72-6.1,8.54,8.54,0,0,0-6.12-2.65,9.17,9.17,0,0,0-6.78,3.07,9.68,9.68,0,0,0-3,6.89c0,.58.5.87,1.49.87a104.18,104.18,0,0,0,14.69-1.25C334.73,1166.34,335.53,1166.07,335.53,1165.73Z" transform="translate(-0.5 0.5)"/><path d="M365.41,1140.91q0,5.11-5.68,5.11t-5.77-5.11a4.69,4.69,0,0,1,1.78-3.77,6.3,6.3,0,0,1,8,0A4.71,4.71,0,0,1,365.41,1140.91Zm-.29,11.25q0,3.19-.39,9.65t-.4,9.69c0,2,0,5,.13,9.07s.12,7,.12,9q0,.87-.75.87h-8.09c-.58,0-.87-.57-.87-1.7q0-2.87.14-8.61c.1-3.84.15-6.72.15-8.66,0-2.16-.16-5.39-.48-9.71s-.47-7.55-.47-9.71c0-.47.29-.71.87-.71a19.25,19.25,0,0,1,2.3.21,13.2,13.2,0,0,0,4.69,0,19.21,19.21,0,0,1,2.35-.21C364.89,1151.37,365.12,1151.64,365.12,1152.16Z" transform="translate(-0.5 0.5)"/><path d="M413.3,1189.72c0,.61-.27.92-.83.92-.91,0-2.27,0-4.08-.05l-4.09,0q-.75,0-.75-1.2,0-2,.12-6.18t.13-6.23c0-1.11,0-2.76,0-5s0-3.85,0-5q0-4.73-1.37-6.68-1.67-2.33-6.15-2.33-2.07,0-5.76,2.33-3.92,2.45-3.91,4.36v24.9c0,.69-.26,1-.78,1-.89,0-2.22,0-4-.05l-4,0c-.58,0-.88-.31-.88-1q0-3.28.11-9.84t.1-9.88a66.94,66.94,0,0,0-1.87-16.31,2.05,2.05,0,0,1-.12-.54c0-.27.18-.47.54-.58.19,0,1.78-.28,4.75-.76s4.53-.73,4.67-.73.28.22.33.66a26.57,26.57,0,0,0,1,5.19q2.16-1.69,5.68-4.23a16.25,16.25,0,0,1,8.43-2.66q7.8,0,10.67,4.52,2.12,3.33,2.11,10.75c0,.86,0,2.18-.06,4s-.06,3.1-.06,4c0,1.86,0,4.62.08,8.3S413.3,1187.87,413.3,1189.72Z" transform="translate(-0.5 0.5)"/><path d="M460.41,1163.08q0,5.85-.38,6.8-.61,1.88-6.72,10.92-6.27,9.26-7.47,9.75a13,13,0,0,1-3.49.25,16.3,16.3,0,0,1-3.65-.25c-.77-.25-3.31-3.37-7.59-9.38q-6.27-8.75-7-10.66a24.51,24.51,0,0,1-1-8.1c0-1.13,0-2.83.08-5.1s.08-4,.08-5.11a.81.81,0,0,1,.91-.91c.92,0,2.28,0,4.09.13s3.18.12,4.09.12c.5,0,.75.28.75.83,0,.89-.06,2.19-.17,3.92s-.16,3-.16,3.92a53.32,53.32,0,0,0,.41,7q.21,1.57,4.21,7.72c2.67,4.09,4.33,6.14,5,6.14s2.12-2,4.53-6,3.65-6.4,3.82-7.43a52.25,52.25,0,0,0,.33-7.14q0-1.37-.27-4.11c-.18-1.82-.27-3.19-.27-4.1a.55.55,0,0,1,.62-.63c.91,0,2.26,0,4-.14s3.09-.15,4-.15S460.41,1155.25,460.41,1163.08Z" transform="translate(-0.5 0.5)"/><path d="M506.14,1168.27a4,4,0,0,1-2.66,4.1q-1.78.68-25.69,2.45a9.37,9.37,0,0,0,4,6.23,11.8,11.8,0,0,0,7.14,2.45,19.19,19.19,0,0,0,12-4.24l1.33-1.07a.75.75,0,0,1,.44.08c.07,0,.59,1,1.55,2.88a25.47,25.47,0,0,1,1.46,3c0,.17-.22.49-.67,1a20.54,20.54,0,0,1-15.64,6.47q-9.63,0-15.36-5.75t-5.73-15.33a22.1,22.1,0,0,1,5.48-14.9A18.09,18.09,0,0,1,488,1149a16.93,16.93,0,0,1,13,5.73A19.27,19.27,0,0,1,506.14,1168.27Zm-9.88-2.54a8.28,8.28,0,0,0-2.72-6.1,8.54,8.54,0,0,0-6.12-2.65,9.17,9.17,0,0,0-6.78,3.07,9.68,9.68,0,0,0-3,6.89c0,.58.5.87,1.49.87a104.31,104.31,0,0,0,14.7-1.25C495.46,1166.34,496.26,1166.07,496.26,1165.73Z" transform="translate(-0.5 0.5)"/><path d="M534.78,1177.77a11.84,11.84,0,0,1-4.94,9.92,17.53,17.53,0,0,1-10.92,3.4,16.11,16.11,0,0,1-2.82-.12c-.47-.22-.71-.9-.71-2a24.18,24.18,0,0,0-.22-2.73,22.55,22.55,0,0,1-.23-2.7c0-.36.25-.6.74-.71a4.87,4.87,0,0,1,1.54,0l1.24.13q7.85,0,7.85-4.82,0-2.28-3.45-4.19a65,65,0,0,1-6.43-3.78,9.64,9.64,0,0,1-3.44-7.72,11.41,11.41,0,0,1,4.69-9.71,17.62,17.62,0,0,1,10.7-3.11.89.89,0,0,1,.85.54,27.41,27.41,0,0,1,1,3.36,21.63,21.63,0,0,1,.77,3.4c0,.31-.26.5-.79.58q-2.65.38-5.35.71-3.2.87-3.2,3.49,0,1.86,3.36,3.77a39.19,39.19,0,0,1,6.31,4A11,11,0,0,1,534.78,1177.77Z" transform="translate(-0.5 0.5)"/><path d="M567.27,1182.92c0,.61-.06,1.44-.17,2.49-.14,1.3-.22,2.14-.25,2.53a2.82,2.82,0,0,1-.12.91,1.65,1.65,0,0,1-.79.58q-3.41,1.62-10.71,1.62-9.71,0-9.71-8.8,0-3.52.17-10.6c.11-4.72.16-8.25.16-10.61a1.62,1.62,0,0,0-1.7-1.82c-1,0-2,0-3,0-.58-.14-.87-1.28-.87-3.41a20.67,20.67,0,0,1,.17-2.53q.12-1,1.32-1.2c.7,0,1.37,0,2,0,1.27-.06,1.91-.63,1.91-1.71s0-2.79-.11-5.06-.1-4-.1-5.1c0-2,.39-3,1.16-3q.38,0,7.8,1.28c.64.09,1,.39,1,.92,0,1.21-.09,3-.27,5.47s-.27,4.27-.27,5.48c0,.81.37,1.21,1.12,1.21h10c.47,0,.71.16.71.49a13.17,13.17,0,0,1-.15,1.6,13,13,0,0,0-.14,1.64c0,.42,0,1,0,1.91s0,1.5,0,1.91-.39.79-1.16.79c-1.11,0-2.78-.08-5-.23s-3.92-.23-5-.23c-.22,0-.38.79-.49,2.37-.14,2-.21,4.72-.21,8.26v6.18a13,13,0,0,0,.66,5q1,2.16,4.11,2.16a19.08,19.08,0,0,0,3.78-.56,19,19,0,0,1,3.69-.56C567.1,1182.17,567.27,1182.42,567.27,1182.92Z" transform="translate(-0.5 0.5)"/><path d="M624.37,1182.92c0,.61,0,1.44-.16,2.49-.14,1.3-.23,2.14-.25,2.53a3,3,0,0,1-.13.91,1.65,1.65,0,0,1-.79.58q-3.39,1.62-10.7,1.62-9.72,0-9.72-8.8,0-3.52.17-10.6c.11-4.72.17-8.25.17-10.61a1.63,1.63,0,0,0-1.71-1.82c-1,0-2,0-3,0-.59-.14-.88-1.28-.88-3.41a20.67,20.67,0,0,1,.17-2.53c.08-.66.52-1.06,1.33-1.2s1.37,0,2,0c1.27-.06,1.91-.63,1.91-1.71s0-2.79-.1-5.06-.11-4-.11-5.1q0-3,1.17-3,.36,0,7.8,1.28c.63.09,1,.39,1,.92,0,1.21-.09,3-.27,5.47s-.27,4.27-.27,5.48c0,.81.38,1.21,1.12,1.21h10c.47,0,.71.16.71.49a13.17,13.17,0,0,1-.15,1.6,15.27,15.27,0,0,0-.14,1.64c0,.42,0,1,0,1.91s0,1.5,0,1.91-.39.79-1.16.79c-1.11,0-2.78-.08-5-.23s-3.92-.23-5-.23c-.23,0-.39.79-.5,2.37-.14,2-.21,4.72-.21,8.26v6.18a13,13,0,0,0,.66,5q1,2.16,4.11,2.16a19.08,19.08,0,0,0,3.78-.56,19,19,0,0,1,3.69-.56C624.21,1182.17,624.37,1182.42,624.37,1182.92Z" transform="translate(-0.5 0.5)"/><path d="M669.94,1189.1c0,1-.29,1.54-.87,1.54-.86,0-2.16,0-3.9-.05l-3.9,0c-.7,0-1-.45-1-1.37,0-1.32,0-3.33.14-6s.15-4.71.15-6.06,0-3.21-.15-5.79-.14-4.53-.14-5.84q0-7.47-7.06-7.47c-1.52,0-3.51.77-6,2.29q-3.94,2.45-4,4.48v24.65c0,.81-.29,1.21-.87,1.21-.86,0-2.14,0-3.86-.05l-3.86,0c-.63,0-.95-.37-.95-1.12v-20q0-4.91-.54-20.84-.09-4.93-.71-14.61a6,6,0,0,1-.08-.66c0-.47.17-.76.5-.87a22.64,22.64,0,0,1,4.69-.25,17.19,17.19,0,0,0,2.61-.31,16.32,16.32,0,0,1,2.53-.32c.36,0,.54.27.54.79q0,3.9-.31,11.73t-.31,11.72c0,.64.11,1,.33,1q2.12-1.79,5.48-4.32a16.07,16.07,0,0,1,8.59-2.53q7.8,0,10.75,4.65,2.12,3.4,2.12,10.79,0,1.29-.06,4c0,1.79-.07,3.11-.07,4q0,2.65.09,7.92T669.94,1189.1Z" transform="translate(-0.5 0.5)"/><path d="M716.46,1168.27a4,4,0,0,1-2.65,4.1q-1.78.68-25.69,2.45a9.36,9.36,0,0,0,4,6.23,11.8,11.8,0,0,0,7.14,2.45,19.24,19.24,0,0,0,12-4.24l1.32-1.07a.73.73,0,0,1,.44.08q.1.07,1.56,2.88a26.24,26.24,0,0,1,1.45,3q0,.25-.66,1a20.58,20.58,0,0,1-15.65,6.47q-9.63,0-15.36-5.75t-5.73-15.33a22.1,22.1,0,0,1,5.48-14.9,18.11,18.11,0,0,1,14.16-6.6,16.92,16.92,0,0,1,13,5.73A19.27,19.27,0,0,1,716.46,1168.27Zm-9.88-2.54a8.31,8.31,0,0,0-2.71-6.1,8.57,8.57,0,0,0-6.13-2.65,9.18,9.18,0,0,0-6.78,3.07,9.68,9.68,0,0,0-3,6.89q0,.87,1.5.87a104.3,104.3,0,0,0,14.69-1.25C705.78,1166.34,706.58,1166.07,706.58,1165.73Z" transform="translate(-0.5 0.5)"/><path d="M806,1160.79c0,5.21-.29,8.47-.87,9.8a109.79,109.79,0,0,1-6.14,10.92q-5.4,8.84-6.52,9.13c-.22,0-1.33.08-3.32.08a18.38,18.38,0,0,1-2.36-.08q-1.29-.33-9.88-14.28-2.37,3.9-4.78,7.84c-2.6,4.1-4.26,6.24-5,6.44a23.59,23.59,0,0,1-2.73.08,24.64,24.64,0,0,1-2.79-.08c-.85-.2-3-3.21-6.51-9.05a92.21,92.21,0,0,1-6-11c-.64-1.66-.95-4.92-.95-9.8a55.8,55.8,0,0,1,.41-8.34,1,1,0,0,1,1-.91c.83,0,2.07,0,3.74.08s2.9.09,3.73.09c.53,0,.79.42.79,1.28,0,.61,0,1.53-.08,2.76s-.09,2.15-.09,2.76a84.2,84.2,0,0,0,.42,10.21q.38,2.63,6.51,11c.5.66.79,1,.88,1s.33-.31.74-.92q5.4-7.85,6.15-10.71a48.28,48.28,0,0,0,.49-8.92c0-.94-.05-2.34-.16-4.19s-.17-3.24-.17-4.15c0-.61.25-.91.75-.91h7.93c.44,0,.66.36.66,1.07,0,.89,0,2.23-.12,4s-.13,3.12-.13,4a71.51,71.51,0,0,0,.25,8.49c.17.76,1.47,2.94,3.9,6.52s3.83,5.37,4.19,5.37q.13,0,.75-1,5.26-8,5.69-10.71a52.8,52.8,0,0,0,.37-7.6c0-1-.08-2.56-.25-4.54s-.25-3.4-.25-4.25c0-.42.28-.63.83-.63.83,0,2.06,0,3.7-.08s2.86-.08,3.69-.08a1,1,0,0,1,1.12.83A61.38,61.38,0,0,1,806,1160.79Z" transform="translate(-0.5 0.5)"/><path d="M856,1153a5.09,5.09,0,0,1-.12.75,99.64,99.64,0,0,0-1.62,16.39q0,.42,1,18.64l0,.58c0,.8-.34,1.2-1.1,1.2a32.69,32.69,0,0,0-3.45.27,32.45,32.45,0,0,1-3.42.27c-.53,0-.93-1-1.21-2.9s-.54-2.91-.78-2.91a10.62,10.62,0,0,0-2.25,1.62,24.24,24.24,0,0,1-4.56,3,14.37,14.37,0,0,1-6.56,1.66,17.2,17.2,0,0,1-13.57-6.43,21.41,21.41,0,0,1-5.23-14.32q0-9.21,5.27-15.23,5.52-6.27,14.53-6.27a15.78,15.78,0,0,1,11.08,4.4c.47.55,1.2,1.36,2.2,2.41a.35.35,0,0,0,.25.12c.16,0,.4-.87.7-2.61s.69-2.62,1.17-2.62a26.4,26.4,0,0,1,4.19.62C854.9,1152.16,856,1152.6,856,1153Zm-10.58,17.35a13.3,13.3,0,0,0-3-8.76,10.09,10.09,0,0,0-8.18-3.94,10.45,10.45,0,0,0-8.3,3.9,13.12,13.12,0,0,0-3.2,8.8,12.92,12.92,0,0,0,3.2,8.72,10.51,10.51,0,0,0,8.3,3.86,10.19,10.19,0,0,0,8.14-4A13.12,13.12,0,0,0,845.45,1170.34Z" transform="translate(-0.5 0.5)"/><path d="M901.14,1161.67c0,4.67-.14,7.5-.41,8.46q-.54,1.88-10.27,16.29t-11.56,16.13q-1.67,1.48-10.71,1.49a2.62,2.62,0,0,1-1.39-.23,12.23,12.23,0,0,1-1.41-3,15.32,15.32,0,0,1-1.1-3.32c0-.6.73-.91,2.2-.91,3.09,0,5.38-.44,6.84-1.33a10.14,10.14,0,0,0,2.27-2.86,8.38,8.38,0,0,0,1.51-3.24q0-1.11-6-8.76-6.35-8.09-7.09-10.25-.59-1.7-.58-8.13c0-1,0-2.64,0-4.75s0-3.72,0-4.8c0-.61.33-.91,1-.91.89,0,2.2.06,3.93.17s3,.16,3.92.16q.66,0,.66.87c0,.78,0,1.94-.12,3.49s-.13,2.71-.13,3.49a60.38,60.38,0,0,0,.34,7.55q.24,1.57,4.52,7.84t5.27,6.27q.71,0,4.48-6.16t4-7.62a56.76,56.76,0,0,0,.33-7.55,35.4,35.4,0,0,0-.25-3.55c-.16-1.56-.25-2.73-.25-3.51s.22-1,.67-1c.88,0,2.22-.06,4-.18s3.12-.19,4-.19S901.14,1154.94,901.14,1161.67Z" transform="translate(-0.5 0.5)"/><path d="M969.66,1161.67c0,4.67-.14,7.5-.42,8.46q-.54,1.88-10.27,16.29t-11.56,16.13c-1.11,1-4.67,1.49-10.71,1.49a2.62,2.62,0,0,1-1.39-.23,12.67,12.67,0,0,1-1.41-3,16,16,0,0,1-1.1-3.32c0-.6.74-.91,2.2-.91q4.65,0,6.85-1.33a10.18,10.18,0,0,0,2.26-2.86,8.46,8.46,0,0,0,1.52-3.24q0-1.11-6-8.76-6.35-8.09-7.1-10.25c-.38-1.13-.58-3.84-.58-8.13,0-1,0-2.64,0-4.75s0-3.72,0-4.8c0-.61.34-.91,1-.91.89,0,2.19.06,3.92.17s3,.16,3.92.16c.45,0,.67.29.67.87,0,.78,0,1.94-.13,3.49s-.12,2.71-.12,3.49a62.87,62.87,0,0,0,.33,7.55q.25,1.57,4.53,7.84t5.27,6.27q.71,0,4.48-6.16t4-7.62a54.56,54.56,0,0,0,.34-7.55c0-.8-.09-2-.25-3.55a35.15,35.15,0,0,1-.25-3.51c0-.69.22-1,.66-1,.89,0,2.22-.06,4-.18s3.12-.19,4-.19S969.66,1154.94,969.66,1161.67Z" transform="translate(-0.5 0.5)"/><path d="M1016.18,1170.34a21.05,21.05,0,0,1-5.68,14.82,19.6,19.6,0,0,1-28.85,0,22,22,0,0,1,0-29.55,19.76,19.76,0,0,1,28.8,0A20.61,20.61,0,0,1,1016.18,1170.34Zm-8.76.08a12.66,12.66,0,0,0-3.11-8.63,10.36,10.36,0,0,0-8.22-3.78,10.53,10.53,0,0,0-8.26,3.74,13.51,13.51,0,0,0,0,17.31,10.67,10.67,0,0,0,16.43,0A12.89,12.89,0,0,0,1007.42,1170.42Z" transform="translate(-0.5 0.5)"/><path d="M1063.87,1152.91c0,2-.09,5.07-.25,9.15s-.25,7.15-.25,9.19.06,5,.18,9.07.19,7,.19,9.07a1,1,0,0,1-.79,1.08c-.22.06-3,.08-8.42.08-.33,0-.54-1-.6-3.11s-.23-3.11-.48-3.11a1.13,1.13,0,0,0-.62.37q-6.93,6-13.7,6-9.18,0-12.12-6.64-1.83-4.11-1.83-14.78a74.26,74.26,0,0,1,1.54-16.31c.25-1.08.71-1.62,1.37-1.62s2,0,3.61.05l3.61,0c.55,0,.83.3.83.91a43.84,43.84,0,0,1-.54,5.4,55.51,55.51,0,0,0-.62,5.68c-.08,1.66-.13,3.49-.13,5.48q0,7.26,1,9.75,1.78,4.48,7.93,4.49,2.61,0,6.18-2.58,3.78-2.7,3.9-5.19.21-3.11.21-21.91c0-1.36.57-2,1.7-2h6.85C1063.46,1151.46,1063.87,1151.94,1063.87,1152.91Z" transform="translate(-0.5 0.5)"/><path d="M1158.82,1189.52a.91.91,0,0,1-1,1c-.5,0-1.25,0-2.26-.12s-1.76-.13-2.26-.13-1.26,0-2.28.13-1.79.12-2.29.12c-.69,0-1-.45-1-1.37q0-5.27.33-15.81t.33-15.81c0-.53-.11-.79-.33-.79a.63.63,0,0,0-.58.46q-2.12,4.51-10,24.15c-.85,2.52-2.09,5.66-3.69,9.42-.19.36-1.19.54-3,.54-2.6,0-4-.23-4.31-.7q-1.42-3.36-4-9.43-3.45-8.2-10.58-24.48a1.52,1.52,0,0,0-.54-.58,1.07,1.07,0,0,0-.34.91q0,5.36.19,16.06t.19,16.06c0,.92-.35,1.37-1,1.37q-.71,0-2.16-.12c-1-.08-1.69-.13-2.16-.13s-1.23,0-2.22.13-1.72.12-2.22.12c-.69,0-1-.26-1-.79q0-4.6.44-13.8t.44-13.8q0-4.77-.44-14.34t-.44-14.33c0-.53.32-.83,1-.92a70.08,70.08,0,0,1,8.51-.74c.28,0,.66.56,1.16,1.7q10,22.08,17.27,39.43,1.7,4.07,2,4.06c.28,0,.87-1.1,1.78-3.32q5.65-13.44,15.65-39.92c.42-1.08.87-1.62,1.37-1.62.94,0,2.36,0,4.26.16s3.31.17,4.25.17c.69,0,1,.33,1,1q0,4.77-.31,14.33t-.32,14.34q0,4.58.36,13.7T1158.82,1189.52Z" transform="translate(-0.5 0.5)"/><path d="M1211.28,1153a4.35,4.35,0,0,1-.13.75,99.64,99.64,0,0,0-1.62,16.39q0,.42,1,18.64l0,.58c0,.8-.34,1.2-1.1,1.2a32.36,32.36,0,0,0-3.44.27,32.59,32.59,0,0,1-3.43.27c-.52,0-.92-1-1.2-2.9s-.54-2.91-.79-2.91a11,11,0,0,0-2.24,1.62,24.24,24.24,0,0,1-4.56,3,14.4,14.4,0,0,1-6.56,1.66,17.2,17.2,0,0,1-13.57-6.43,21.41,21.41,0,0,1-5.23-14.32q0-9.21,5.27-15.23a18.41,18.41,0,0,1,14.52-6.27,15.78,15.78,0,0,1,11.09,4.4c.47.55,1.2,1.36,2.2,2.41a.35.35,0,0,0,.24.12c.17,0,.4-.87.71-2.61s.69-2.62,1.16-2.62a26.09,26.09,0,0,1,4.19.62C1210.14,1152.16,1211.28,1152.6,1211.28,1153Zm-10.59,17.35a13.3,13.3,0,0,0-3-8.76,10.07,10.07,0,0,0-8.17-3.94,10.45,10.45,0,0,0-8.3,3.9,13.12,13.12,0,0,0-3.2,8.8,12.92,12.92,0,0,0,3.2,8.72,10.51,10.51,0,0,0,8.3,3.86,10.17,10.17,0,0,0,8.13-4A13.07,13.07,0,0,0,1200.69,1170.34Z" transform="translate(-0.5 0.5)"/><path d="M1262.24,1162.08q0,10.8-10,14.44,0,2.13,8.3,13.2c0,.42-1.38.7-4.15.83-1.83.09-3.2.13-4.11.13-2,0-3.2-.42-3.69-1.25q-2-3.32-6.15-9.67c-.33-.5-3.33-.7-9-.62l-1.62,0v10.25c0,.86-.31,1.29-.91,1.29-.89,0-2.2,0-3.93,0s-3,0-3.92,0c-.61,0-.91-.54-.91-1.62V1163.2q0-5.06-.4-15.15t-.39-15.15a.77.77,0,0,1,.79-.83c.91,0,2.3-.08,4.15-.16.39,0,1.2-.13,2.45-.29a18.08,18.08,0,0,1,2.4-.21c.39,0,.59.33.59,1q0,2.23-.21,6.68t-.21,6.68v10.71c0,.58.13.87.37.87l3-2.45q7-5.4,13.28-5.39a15.49,15.49,0,0,1,10,3.15A11.5,11.5,0,0,1,1262.24,1162.08Zm-10,2q0-5.92-7.68-5.93-5.73,0-12.91,7.63v6.19a46,46,0,0,0,8.14.62,17.15,17.15,0,0,0,8.22-1.83A7.22,7.22,0,0,0,1252.24,1164Z" transform="translate(-0.5 0.5)"/><path d="M1306.48,1168.27a4,4,0,0,1-2.66,4.1q-1.78.68-25.69,2.45a9.37,9.37,0,0,0,4,6.23,11.8,11.8,0,0,0,7.14,2.45,19.19,19.19,0,0,0,12-4.24l1.33-1.07a.75.75,0,0,1,.44.08c.07,0,.59,1,1.55,2.88a25.47,25.47,0,0,1,1.46,3c0,.17-.22.49-.67,1a20.54,20.54,0,0,1-15.64,6.47q-9.63,0-15.36-5.75t-5.73-15.33a22.1,22.1,0,0,1,5.48-14.9,18.09,18.09,0,0,1,14.15-6.6,16.94,16.94,0,0,1,13,5.73A19.27,19.27,0,0,1,1306.48,1168.27Zm-9.88-2.54a8.28,8.28,0,0,0-2.72-6.1,8.54,8.54,0,0,0-6.12-2.65,9.18,9.18,0,0,0-6.78,3.07,9.68,9.68,0,0,0-3,6.89c0,.58.5.87,1.49.87a104.31,104.31,0,0,0,14.7-1.25C1295.8,1166.34,1296.6,1166.07,1296.6,1165.73Z" transform="translate(-0.5 0.5)"/><path d="M286.11,1255a4.35,4.35,0,0,1-.13.75,99.64,99.64,0,0,0-1.62,16.39q0,.42,1,18.64l0,.58c0,.8-.34,1.2-1.1,1.2a32.36,32.36,0,0,0-3.44.27,32.59,32.59,0,0,1-3.43.27c-.52,0-.92-1-1.2-2.9s-.54-2.91-.79-2.91a11,11,0,0,0-2.24,1.62,24.24,24.24,0,0,1-4.56,3,14.4,14.4,0,0,1-6.56,1.66,17.2,17.2,0,0,1-13.57-6.43,21.41,21.41,0,0,1-5.23-14.32q0-9.21,5.27-15.23a18.41,18.41,0,0,1,14.52-6.27,15.78,15.78,0,0,1,11.09,4.4c.47.55,1.2,1.36,2.2,2.41a.35.35,0,0,0,.24.12c.17,0,.4-.87.71-2.61s.69-2.62,1.16-2.62a26.09,26.09,0,0,1,4.19.62C285,1254.16,286.11,1254.6,286.11,1255Zm-10.59,17.35a13.3,13.3,0,0,0-3-8.76,10.07,10.07,0,0,0-8.17-3.94,10.45,10.45,0,0,0-8.3,3.9,13.12,13.12,0,0,0-3.2,8.8,12.92,12.92,0,0,0,3.2,8.72,10.51,10.51,0,0,0,8.3,3.86,10.17,10.17,0,0,0,8.13-4A13.07,13.07,0,0,0,275.52,1272.34Z" transform="translate(-0.5 0.5)"/><path d="M360.14,1283.55a37.63,37.63,0,0,1-.62,8.26,1.38,1.38,0,0,1-1.45,1.2q-3.07,0-9.22-.35t-9.21-.36c-1.94,0-4.83,0-8.67.13s-6.74.12-8.68.12a.91.91,0,0,1-1-1q0-4.53.32-13.66t.31-13.7q0-4.8-.44-14.42t-.44-14.42c0-.61.35-.91,1-.91.5,0,1.26,0,2.29.12s1.79.13,2.32.13,1.27-.05,2.32-.13,1.83-.12,2.33-.12q1,0,1,.78,0,4.41-.33,13.24t-.33,13.29v6.55c0,2.94,0,5.12,0,6.56q0,9.21.75,9.21,15.32,0,23.11-.74l1.91-.29a10.24,10.24,0,0,1,1.91-.25C359.85,1282.76,360.14,1283,360.14,1283.55Z" transform="translate(-0.5 0.5)"/><path d="M379.07,1242.91q0,5.11-5.69,5.11t-5.77-5.11a4.7,4.7,0,0,1,1.79-3.77,6.3,6.3,0,0,1,8,0A4.71,4.71,0,0,1,379.07,1242.91Zm-.29,11.25c0,2.13-.14,5.35-.4,9.65s-.39,7.53-.39,9.69,0,5,.12,9.07.13,7,.13,9q0,.87-.75.87H369.4c-.59,0-.88-.57-.88-1.7q0-2.87.15-8.61c.1-3.84.14-6.72.14-8.66,0-2.16-.16-5.39-.47-9.71s-.48-7.55-.48-9.71c0-.47.29-.71.87-.71a18.91,18.91,0,0,1,2.3.21,13.25,13.25,0,0,0,4.7,0,18.92,18.92,0,0,1,2.34-.21C378.54,1253.37,378.78,1253.64,378.78,1254.16Z" transform="translate(-0.5 0.5)"/><path d="M426.21,1265.08q0,5.85-.37,6.8-.63,1.88-6.73,10.92-6.25,9.26-7.47,9.75a13,13,0,0,1-3.48.25,16.41,16.41,0,0,1-3.66-.25q-1.15-.37-7.59-9.38-6.27-8.75-7-10.66a24.19,24.19,0,0,1-1-8.1c0-1.13,0-2.83.08-5.1s.08-4,.08-5.11a.81.81,0,0,1,.92-.91c.91,0,2.27,0,4.09.13s3.17.12,4.08.12c.5,0,.75.28.75.83,0,.89,0,2.19-.16,3.92s-.17,3-.17,3.92a55.12,55.12,0,0,0,.41,7q.21,1.57,4.22,7.72t5,6.14c.61,0,2.11-2,4.52-6s3.65-6.4,3.82-7.43a52.25,52.25,0,0,0,.33-7.14q0-1.37-.27-4.11c-.18-1.82-.27-3.19-.27-4.1a.55.55,0,0,1,.62-.63c.92,0,2.26,0,4-.14s3.1-.15,4-.15S426.21,1257.25,426.21,1265.08Z" transform="translate(-0.5 0.5)"/><path d="M447.58,1242.91q0,5.11-5.68,5.11t-5.77-5.11a4.69,4.69,0,0,1,1.78-3.77,6,6,0,0,1,4-1.41,5.9,5.9,0,0,1,4,1.45A4.71,4.71,0,0,1,447.58,1242.91Zm-.29,11.25q0,3.19-.39,9.65t-.4,9.69c0,2,0,5,.13,9.07s.12,7,.12,9q0,.87-.75.87h-8.09c-.58,0-.87-.57-.87-1.7q0-2.87.15-8.61c.09-3.84.14-6.72.14-8.66,0-2.16-.16-5.39-.48-9.71s-.47-7.55-.47-9.71c0-.47.29-.71.87-.71a19.07,19.07,0,0,1,2.3.21,13.2,13.2,0,0,0,4.69,0,19.21,19.21,0,0,1,2.35-.21C447.06,1253.37,447.29,1253.64,447.29,1254.16Z" transform="translate(-0.5 0.5)"/><path d="M495.47,1291.72c0,.61-.27.92-.83.92-.91,0-2.27,0-4.08-.05l-4.09,0q-.75,0-.75-1.2,0-2,.13-6.18t.12-6.23c0-1.11,0-2.76,0-5s0-3.85,0-5q0-4.73-1.37-6.68-1.66-2.33-6.15-2.33-2.07,0-5.76,2.33-3.92,2.45-3.91,4.36v24.9c0,.69-.26,1-.78,1-.89,0-2.22,0-4-.05l-4,0c-.58,0-.87-.31-.87-1q0-3.28.1-9.84t.1-9.88a67.45,67.45,0,0,0-1.86-16.31,1.81,1.81,0,0,1-.13-.54c0-.27.18-.47.54-.58.19,0,1.78-.28,4.75-.76s4.53-.73,4.67-.73.28.22.33.66a26.57,26.57,0,0,0,1,5.19q2.16-1.69,5.68-4.23a16.25,16.25,0,0,1,8.43-2.66q7.8,0,10.67,4.52,2.12,3.33,2.11,10.75c0,.86,0,2.18-.06,4s-.06,3.1-.06,4c0,1.86,0,4.62.08,8.3S495.47,1289.87,495.47,1291.72Z" transform="translate(-0.5 0.5)"/><path d="M543.32,1253.87q0,5-.08,15t-.08,15q0,9.87-4.23,14.56-4.45,5-14.2,5-9.42,0-15.23-3.56c-.61-.39-.91-.73-.91-1,0,.3.41-1.74,1.24-6.14.08-.47.28-.71.58-.71a1.09,1.09,0,0,1,.54.21,24.92,24.92,0,0,0,12.49,3.57,11.88,11.88,0,0,0,6.81-1.83,6.77,6.77,0,0,0,3.11-6c0-.58-.05-1.88-.16-3.9a14.48,14.48,0,0,1-11.71,5.6,16.15,16.15,0,0,1-12.61-5.52,18.9,18.9,0,0,1-4.73-13.07,20.34,20.34,0,0,1,4.56-13.4,15.59,15.59,0,0,1,12.62-5.9,13,13,0,0,1,10.87,5.27q.66.87,1,.87c.22,0,.33-.24.33-.74s0-.94-.08-1.72-.09-1.38-.09-1.77c0-1.66.17-2.49.5-2.49s1.77.26,4.48.77,4.19.82,4.44.93S543.32,1253.29,543.32,1253.87Zm-10,17.1a12.36,12.36,0,0,0-2.53-7.88,9.25,9.25,0,0,0-14.57,0,12.38,12.38,0,0,0-2.53,7.84,12.21,12.21,0,0,0,2.58,7.8,9.09,9.09,0,0,0,14.44,0A12.12,12.12,0,0,0,533.36,1271Z" transform="translate(-0.5 0.5)"/><path d="M565.86,1282.68a18.53,18.53,0,0,1-1.45,7.51q-.92,2.07-5,6.56-4.36,4.89-6,4.89c-.25,0-.91-.63-2-1.91s-1.62-2.07-1.62-2.4c0,.05.72-.91,2.18-2.89a10.64,10.64,0,0,0,2.34-5v-4.36c0-1.08,1.51-2,4.53-2.78a25.35,25.35,0,0,1,6.06-.91C565.55,1281.43,565.86,1281.85,565.86,1282.68Z" transform="translate(-0.5 0.5)"/><path d="M651.85,1263.13a31.86,31.86,0,0,1-6.64,20.17q-7.23,9.26-18.51,9.25-2.16,0-6.5-.16c-2.89-.11-5.06-.17-6.49-.17s-3.26.06-5.88.17-4.57.16-5.87.16a.91.91,0,0,1-1-1q0-4.53.35-13.66t.36-13.7q0-4.8-.33-14.48t-.34-14.49q0-.87,1.08-.87l4.59,0c2,0,3.56.05,4.59.05s2.37,0,4.31-.05l4.4,0q14.4,0,21.46,5.44a25.35,25.35,0,0,1,7.84,10.5A32.41,32.41,0,0,1,651.85,1263.13Zm-10.17,0q0-9-5.11-14.61-5.31-5.85-14.19-5.85-7.35,0-5.94-.09c-3.23.17-4.85.76-4.85,1.79q0,3.2-.15,9.56t-.14,9.57c0,2.1.05,5.26.14,9.46s.15,7.36.15,9.47q0,1.58,5,1.82-.66,0,6.06,0a23.26,23.26,0,0,0,7.59-1,14.43,14.43,0,0,0,6.27-4.6A23.58,23.58,0,0,0,641.68,1263.13Z" transform="translate(-0.5 0.5)"/><path d="M699.49,1272.34a21,21,0,0,1-5.69,14.82,19.59,19.59,0,0,1-28.84,0,22,22,0,0,1,0-29.55,19.76,19.76,0,0,1,28.8,0A20.61,20.61,0,0,1,699.49,1272.34Zm-8.76.08a12.66,12.66,0,0,0-3.11-8.63,10.36,10.36,0,0,0-8.22-3.78,10.53,10.53,0,0,0-8.26,3.74,13.51,13.51,0,0,0,.05,17.31,10.67,10.67,0,0,0,16.43,0A12.89,12.89,0,0,0,690.73,1272.42Z" transform="translate(-0.5 0.5)"/><path d="M789.09,1262.79c0,5.21-.29,8.47-.87,9.8a112,112,0,0,1-6.14,10.92q-5.4,8.84-6.52,9.13c-.22,0-1.33.08-3.32.08a18.26,18.26,0,0,1-2.36-.08q-1.29-.33-9.88-14.28-2.37,3.9-4.78,7.84c-2.6,4.1-4.26,6.24-5,6.44a23.7,23.7,0,0,1-2.74.08,24.39,24.39,0,0,1-2.78-.08c-.85-.2-3-3.21-6.51-9.05a90.68,90.68,0,0,1-6-11c-.64-1.66-1-4.92-1-9.8a54.43,54.43,0,0,1,.41-8.34,1,1,0,0,1,1-.91c.83,0,2.07,0,3.73.08s2.91.09,3.74.09c.53,0,.79.42.79,1.28,0,.61,0,1.53-.08,2.76s-.09,2.15-.09,2.76a84.2,84.2,0,0,0,.42,10.21q.38,2.63,6.51,11c.5.66.79,1,.88,1s.33-.31.74-.92q5.4-7.85,6.14-10.71a47,47,0,0,0,.5-8.92c0-.94,0-2.34-.16-4.19s-.17-3.24-.17-4.15c0-.61.25-.91.75-.91h7.92c.45,0,.67.36.67,1.07,0,.89,0,2.23-.13,4s-.12,3.12-.12,4a71.51,71.51,0,0,0,.25,8.49c.17.76,1.47,2.94,3.9,6.52s3.83,5.37,4.19,5.37c.09,0,.33-.33.75-1q5.26-8,5.69-10.71a54.34,54.34,0,0,0,.37-7.6c0-1-.08-2.56-.25-4.54s-.25-3.4-.25-4.25c0-.42.28-.63.83-.63.83,0,2.06,0,3.69-.08s2.87-.08,3.7-.08a1,1,0,0,1,1.12.83A61.38,61.38,0,0,1,789.09,1262.79Z" transform="translate(-0.5 0.5)"/><path d="M835,1291.1c0,1-.29,1.54-.87,1.54-.86,0-2.16,0-3.9-.05l-3.9,0c-.69,0-1-.45-1-1.37,0-1.32.05-3.33.14-6s.15-4.71.15-6.06-.05-3.21-.15-5.79-.14-4.53-.14-5.84q0-7.47-7.06-7.47c-1.52,0-3.51.77-6,2.29q-3.94,2.45-4,4.48v24.65c0,.81-.29,1.21-.87,1.21-.86,0-2.14,0-3.86-.05l-3.86,0c-.63,0-1-.37-1-1.12v-20q0-4.91-.54-20.84-.09-4.93-.71-14.61a6,6,0,0,1-.08-.66c0-.47.17-.76.5-.87a22.64,22.64,0,0,1,4.69-.25,17.19,17.19,0,0,0,2.61-.31,16.32,16.32,0,0,1,2.53-.32c.36,0,.54.27.54.79q0,3.9-.31,11.73t-.31,11.72c0,.64.11,1,.33,1q2.12-1.79,5.48-4.32a16.07,16.07,0,0,1,8.59-2.53q7.81,0,10.75,4.65,2.11,3.4,2.12,10.79,0,1.29-.06,4c0,1.79-.06,3.11-.06,4,0,1.77,0,4.41.08,7.92S835,1289.36,835,1291.1Z" transform="translate(-0.5 0.5)"/><path d="M886.7,1255a5.09,5.09,0,0,1-.12.75,99.64,99.64,0,0,0-1.62,16.39q0,.42,1,18.64l0,.58c0,.8-.34,1.2-1.1,1.2a32.69,32.69,0,0,0-3.45.27,32.26,32.26,0,0,1-3.42.27c-.53,0-.93-1-1.2-2.9s-.54-2.91-.79-2.91a10.43,10.43,0,0,0-2.24,1.62,24.61,24.61,0,0,1-4.57,3,14.37,14.37,0,0,1-6.56,1.66,17.2,17.2,0,0,1-13.57-6.43,21.41,21.41,0,0,1-5.23-14.32q0-9.21,5.27-15.23,5.52-6.27,14.53-6.27a15.76,15.76,0,0,1,11.08,4.4c.47.55,1.2,1.36,2.2,2.41a.37.37,0,0,0,.25.12c.16,0,.4-.87.7-2.61s.7-2.62,1.17-2.62a26.4,26.4,0,0,1,4.19.62C885.57,1254.16,886.7,1254.6,886.7,1255Zm-10.58,17.35a13.3,13.3,0,0,0-3-8.76,10.09,10.09,0,0,0-8.18-3.94,10.45,10.45,0,0,0-8.3,3.9,13.12,13.12,0,0,0-3.19,8.8,12.91,12.91,0,0,0,3.19,8.72,10.51,10.51,0,0,0,8.3,3.86,10.19,10.19,0,0,0,8.14-4A13.12,13.12,0,0,0,876.12,1272.34Z" transform="translate(-0.5 0.5)"/><path d="M920,1284.92c0,.61-.05,1.44-.16,2.49-.14,1.3-.22,2.14-.25,2.53a3.59,3.59,0,0,1-.12.91,1.84,1.84,0,0,1-.79.58q-3.4,1.62-10.71,1.62-9.72,0-9.71-8.8,0-3.52.16-10.6c.11-4.72.17-8.25.17-10.61a1.63,1.63,0,0,0-1.7-1.82c-1,0-2,0-3,0-.58-.14-.88-1.28-.88-3.41a20.67,20.67,0,0,1,.17-2.53c.08-.66.53-1.06,1.33-1.2s1.37,0,2,0c1.28-.06,1.91-.63,1.91-1.71s0-2.79-.1-5.06-.1-4-.1-5.1c0-2,.38-3,1.16-3q.38,0,7.8,1.28c.64.09,1,.39,1,.92,0,1.21-.09,3-.27,5.47s-.27,4.27-.27,5.48c0,.81.38,1.21,1.13,1.21h10c.47,0,.7.16.7.49a14.93,14.93,0,0,1-.14,1.6,13.49,13.49,0,0,0-.15,1.64c0,.42,0,1,0,1.91s0,1.5,0,1.91-.38.79-1.16.79c-1.11,0-2.78-.08-5-.23s-3.92-.23-5-.23c-.22,0-.39.79-.5,2.37-.14,2-.21,4.72-.21,8.26v6.18a12.77,12.77,0,0,0,.67,5q1,2.16,4.11,2.16a19.1,19.1,0,0,0,3.77-.56,19,19,0,0,1,3.7-.56C919.82,1284.17,920,1284.42,920,1284.92Z" transform="translate(-0.5 0.5)"/><path d="M988.92,1263.67c0,4.67-.14,7.5-.42,8.46q-.54,1.88-10.27,16.29t-11.56,16.13Q965,1306,956,1306a2.72,2.72,0,0,1-1.39-.23,12.23,12.23,0,0,1-1.41-3,16,16,0,0,1-1.1-3.32c0-.6.73-.91,2.2-.91q4.65,0,6.85-1.33a10.18,10.18,0,0,0,2.26-2.86,8.38,8.38,0,0,0,1.51-3.24c0-.75-2-3.66-6-8.76q-6.36-8.09-7.1-10.25-.59-1.7-.58-8.13c0-1,0-2.64,0-4.75s0-3.72,0-4.8c0-.61.33-.91,1-.91.88,0,2.19.06,3.92.17s3,.16,3.92.16c.44,0,.67.29.67.87,0,.78,0,1.94-.13,3.49s-.12,2.71-.12,3.49a62.87,62.87,0,0,0,.33,7.55q.25,1.57,4.52,7.84t5.27,6.27c.48,0,2-2.05,4.49-6.16s3.86-6.65,4-7.62a56.76,56.76,0,0,0,.33-7.55c0-.8-.08-2-.24-3.55A35.15,35.15,0,0,1,979,1255c0-.69.22-1,.66-1,.89,0,2.22-.06,4-.18s3.12-.19,4-.19S988.92,1256.94,988.92,1263.67Z" transform="translate(-0.5 0.5)"/><path d="M1035.44,1272.34a21.06,21.06,0,0,1-5.69,14.82,19.59,19.59,0,0,1-28.84,0,22,22,0,0,1,0-29.55,19.76,19.76,0,0,1,28.8,0A20.61,20.61,0,0,1,1035.44,1272.34Zm-8.76.08a12.71,12.71,0,0,0-3.11-8.63,10.36,10.36,0,0,0-8.22-3.78,10.53,10.53,0,0,0-8.26,3.74,13.53,13.53,0,0,0,0,17.31,10.68,10.68,0,0,0,16.44,0A12.94,12.94,0,0,0,1026.68,1272.42Z" transform="translate(-0.5 0.5)"/><path d="M1083.12,1254.91q0,3-.25,9.15c-.16,4.08-.24,7.15-.24,9.19s.06,5,.18,9.07.19,7,.19,9.07a1,1,0,0,1-.79,1.08c-.22.06-3,.08-8.42.08-.34,0-.54-1-.61-3.11s-.22-3.11-.47-3.11a1.18,1.18,0,0,0-.63.37q-6.93,6-13.69,6-9.18,0-12.12-6.64-1.83-4.11-1.83-14.78A73.65,73.65,0,0,1,1046,1255c.25-1.08.7-1.62,1.37-1.62s2,0,3.61.05l3.61,0c.55,0,.83.3.83.91a43.84,43.84,0,0,1-.54,5.4,52.72,52.72,0,0,0-.62,5.68c-.09,1.66-.13,3.49-.13,5.48q0,7.26,1,9.75,1.78,4.48,7.93,4.49,2.61,0,6.18-2.58,3.78-2.7,3.9-5.19.21-3.11.21-21.91c0-1.36.57-2,1.7-2h6.85C1082.72,1253.46,1083.12,1253.94,1083.12,1254.91Z" transform="translate(-0.5 0.5)"/><path d="M1158.86,1283.55a38.27,38.27,0,0,1-.62,8.26,1.39,1.39,0,0,1-1.45,1.2q-3.07,0-9.22-.35t-9.21-.36c-1.94,0-4.83,0-8.68.13s-6.73.12-8.67.12a.91.91,0,0,1-1-1q0-4.53.31-13.66t.31-13.7q0-4.8-.43-14.42t-.44-14.42c0-.61.35-.91,1-.91q.75,0,2.28.12c1,.08,1.8.13,2.33.13s1.27-.05,2.32-.13,1.83-.12,2.33-.12q1,0,1,.78,0,4.41-.33,13.24t-.33,13.29v6.55c0,2.94,0,5.12,0,6.56,0,6.14.24,9.21.74,9.21q15.32,0,23.12-.74l1.91-.29a10.24,10.24,0,0,1,1.91-.25C1158.57,1282.76,1158.86,1283,1158.86,1283.55Z" transform="translate(-0.5 0.5)"/><path d="M1204.6,1272.34a21.06,21.06,0,0,1-5.69,14.82,19.6,19.6,0,0,1-28.85,0,22.06,22.06,0,0,1,0-29.55,19.77,19.77,0,0,1,28.81,0A20.61,20.61,0,0,1,1204.6,1272.34Zm-8.76.08a12.67,12.67,0,0,0-3.12-8.63,10.32,10.32,0,0,0-8.21-3.78,10.52,10.52,0,0,0-8.26,3.74,13.5,13.5,0,0,0,0,17.31,10.67,10.67,0,0,0,16.43,0A12.89,12.89,0,0,0,1195.84,1272.42Z" transform="translate(-0.5 0.5)"/><path d="M1249.67,1265.08q0,5.85-.38,6.8c-.41,1.25-2.66,4.89-6.72,10.92s-6.67,9.42-7.47,9.75a13,13,0,0,1-3.49.25,16.3,16.3,0,0,1-3.65-.25q-1.17-.37-7.6-9.38-6.25-8.75-7-10.66a24.46,24.46,0,0,1-1-8.1q0-1.7.09-5.1c0-2.27.08-4,.08-5.11a.81.81,0,0,1,.91-.91c.92,0,2.28,0,4.09.13s3.18.12,4.09.12c.5,0,.75.28.75.83,0,.89-.06,2.19-.17,3.92s-.17,3-.17,3.92a53.23,53.23,0,0,0,.42,7q.21,1.57,4.21,7.72t5,6.14q.92,0,4.52-6c2.38-3.93,3.66-6.4,3.82-7.43a51.8,51.8,0,0,0,.34-7.14q0-1.37-.27-4.11c-.19-1.82-.27-3.19-.27-4.1a.55.55,0,0,1,.62-.63c.91,0,2.25,0,4-.14s3.1-.15,4-.15S1249.67,1257.25,1249.67,1265.08Z" transform="translate(-0.5 0.5)"/><path d="M1295.4,1270.27a4,4,0,0,1-2.66,4.1q-1.79.68-25.69,2.45a9.34,9.34,0,0,0,4,6.23,11.8,11.8,0,0,0,7.14,2.45,19.19,19.19,0,0,0,12-4.24l1.33-1.07a.75.75,0,0,1,.44.08c.06,0,.58,1,1.55,2.88a25.47,25.47,0,0,1,1.46,3c0,.17-.23.49-.67,1a20.57,20.57,0,0,1-15.65,6.47q-9.63,0-15.35-5.75t-5.73-15.33a22.1,22.1,0,0,1,5.48-14.9,18.09,18.09,0,0,1,14.15-6.6,16.91,16.91,0,0,1,13,5.73A19.23,19.23,0,0,1,1295.4,1270.27Zm-9.88-2.54a8.32,8.32,0,0,0-2.72-6.1,8.54,8.54,0,0,0-6.12-2.65,9.19,9.19,0,0,0-6.79,3.07,9.71,9.71,0,0,0-3,6.89c0,.58.5.87,1.49.87a104.18,104.18,0,0,0,14.69-1.25C1284.72,1268.34,1285.52,1268.07,1285.52,1267.73Z" transform="translate(-0.5 0.5)"/><path d="M1316.11,1282.68a18.36,18.36,0,0,1-1.46,7.51q-.92,2.07-5,6.56-4.35,4.89-6,4.89c-.25,0-.92-.63-2-1.91s-1.62-2.07-1.62-2.4c0,.05.73-.91,2.18-2.89a10.58,10.58,0,0,0,2.35-5v-4.36c0-1.08,1.51-2,4.52-2.78a25.49,25.49,0,0,1,6.06-.91C1315.8,1281.43,1316.11,1281.85,1316.11,1282.68Z" transform="translate(-0.5 0.5)"/><path d="M321.15,1357a5.09,5.09,0,0,1-.12.75,99.64,99.64,0,0,0-1.62,16.39q0,.42,1,18.64l0,.58c0,.8-.34,1.2-1.1,1.2a32.69,32.69,0,0,0-3.45.27,32.26,32.26,0,0,1-3.42.27c-.53,0-.93-1-1.2-2.9s-.54-2.91-.79-2.91a10.43,10.43,0,0,0-2.24,1.62,24.61,24.61,0,0,1-4.57,3,14.37,14.37,0,0,1-6.56,1.66,17.2,17.2,0,0,1-13.57-6.43,21.41,21.41,0,0,1-5.23-14.32q0-9.21,5.27-15.23,5.52-6.27,14.53-6.27a15.76,15.76,0,0,1,11.08,4.4c.47.55,1.2,1.36,2.2,2.41a.37.37,0,0,0,.25.12c.17,0,.4-.87.71-2.61s.69-2.62,1.16-2.62a26.4,26.4,0,0,1,4.19.62C320,1356.16,321.15,1356.61,321.15,1357Zm-10.58,17.35a13.3,13.3,0,0,0-3-8.76,10.09,10.09,0,0,0-8.18-3.94,10.47,10.47,0,0,0-8.3,3.9,13.12,13.12,0,0,0-3.19,8.8,12.91,12.91,0,0,0,3.19,8.72,10.52,10.52,0,0,0,8.3,3.86,10.19,10.19,0,0,0,8.14-4A13.12,13.12,0,0,0,310.57,1374.34Z" transform="translate(-0.5 0.5)"/><path d="M367.88,1393.72c0,.61-.27.92-.83.92-.91,0-2.27,0-4.09-.05l-4.08,0q-.75,0-.75-1.2c0-1.35,0-3.42.12-6.18s.13-4.85.13-6.23c0-1.11,0-2.76,0-5s0-3.85,0-5q0-4.73-1.36-6.68-1.67-2.33-6.15-2.33-2.07,0-5.77,2.33-3.9,2.45-3.9,4.36v24.9c0,.69-.26,1-.79,1-.88,0-2.21,0-4-.05l-4,0c-.58,0-.87-.31-.87-1q0-3.28.11-9.84t.1-9.88a66.94,66.94,0,0,0-1.87-16.31,2.05,2.05,0,0,1-.12-.54c0-.27.18-.47.54-.58.19,0,1.78-.28,4.75-.76s4.53-.73,4.67-.73.28.22.33.66a26.57,26.57,0,0,0,1,5.19c1.43-1.13,3.33-2.54,5.68-4.23a16.25,16.25,0,0,1,8.43-2.66q7.8,0,10.66,4.53,2.13,3.32,2.12,10.75c0,.85,0,2.17-.06,3.94s-.06,3.1-.06,4c0,1.86,0,4.62.08,8.3S367.88,1391.87,367.88,1393.72Z" transform="translate(-0.5 0.5)"/><path d="M419.05,1336.66q0,5.34-.47,16t-.48,16q0,16.4.7,24.82l.05.54c0,.27-.35.45-1.12.53a13.78,13.78,0,0,1-2.25,0l-1.61-.12q-.63,0-1.83.12a17.42,17.42,0,0,1-1.83.13c-.38,0-.61-1-.68-2.89s-.18-2.89-.31-2.92a2.25,2.25,0,0,0-.63.54q-5.68,6.13-13.07,6.14a17.24,17.24,0,0,1-13.78-6.39,21.71,21.71,0,0,1-5.1-14.53,22.09,22.09,0,0,1,5.14-14.86,17.65,17.65,0,0,1,14.07-6.3,14.3,14.3,0,0,1,9.13,3.07q1.78,1.53,3.53,3.11a.55.55,0,0,0,.33-.58v-13.45c0-.91,0-2.29-.12-4.15s-.13-3.25-.13-4.19c0-.66.23-1,.67-1q1.53,0,4.56-.27c2-.17,3.53-.27,4.53-.27C418.82,1335.78,419.05,1336.07,419.05,1336.66Zm-10.37,37.76a13.5,13.5,0,0,0-3.07-8.75,10.1,10.1,0,0,0-8.14-4,10.48,10.48,0,0,0-8.42,4,13.39,13.39,0,0,0-3.16,9,12.62,12.62,0,0,0,3.28,8.67,10.52,10.52,0,0,0,8.3,3.91,10.19,10.19,0,0,0,8.22-4A13.55,13.55,0,0,0,408.68,1374.42Z" transform="translate(-0.5 0.5)"/><path d="M500.35,1385a2.6,2.6,0,0,1-.79,1.41,25.43,25.43,0,0,1-20,9.38q-12.45,0-19.92-9.09-7-8.48-7-21.17t7.1-21.25q7.56-9.21,20-9.21,12.58,0,19.47,8.5a2.67,2.67,0,0,1,.66,1.46q0,.7-2.2,4.17c-1.46,2.31-2.35,3.46-2.65,3.46s-1.21-.67-2.53-2a22.5,22.5,0,0,0-4.61-3.73,15.62,15.62,0,0,0-7.89-2,14.89,14.89,0,0,0-12.78,6.27q-4.06,5.6-4.07,14.11t4,14.24a14.73,14.73,0,0,0,12.74,6.43,16.36,16.36,0,0,0,7.84-2,23.94,23.94,0,0,0,5.07-3.78,14.09,14.09,0,0,1,2.36-2c.17,0,1.08,1.09,2.74,3.29A20.86,20.86,0,0,1,500.35,1385Z" transform="translate(-0.5 0.5)"/><path d="M532,1355.58a50.05,50.05,0,0,1-.63,8.3c-.08.64-.36,1-.83,1s-1.46-.07-2.63-.19-2.07-.19-2.68-.19c-3.48,0-5.71,1-6.68,3q-.87,1.78-.87,7.43v4.56q0,2.34.19,7.06c.12,3.15.18,5.51.18,7.06,0,.74-.32,1.12-1,1.12-.86,0-2.16,0-3.9-.05l-3.91,0c-.63,0-.95-.34-.95-1,0-2.25,0-5.62.1-10.13s.11-7.9.11-10.17q0-10.24-1.91-16.48a1.93,1.93,0,0,1-.08-.49.72.72,0,0,1,.53-.71l4.32-.5c3-.55,4.37-.83,4.15-.83.44,0,.73.82.87,2.45s.39,2.45.75,2.45a.46.46,0,0,0,.21-.08l3.4-2.16a15.38,15.38,0,0,1,3.82-1.66,14.47,14.47,0,0,1,4.15-.5Q532,1354.71,532,1355.58Z" transform="translate(-0.5 0.5)"/><path d="M575.14,1372.27a4,4,0,0,1-2.66,4.11q-1.79.66-25.69,2.44a9.36,9.36,0,0,0,4,6.23,11.85,11.85,0,0,0,7.14,2.45,19.19,19.19,0,0,0,12-4.24l1.33-1.07a.72.72,0,0,1,.43.08c.07,0,.59,1,1.56,2.88a24.3,24.3,0,0,1,1.45,3q0,.25-.66,1a20.57,20.57,0,0,1-15.65,6.47q-9.63,0-15.35-5.75t-5.73-15.33a22,22,0,0,1,5.48-14.9A18.07,18.07,0,0,1,557,1353a16.92,16.92,0,0,1,13,5.73A19.28,19.28,0,0,1,575.14,1372.27Zm-9.88-2.54a8.32,8.32,0,0,0-2.72-6.1,8.54,8.54,0,0,0-6.12-2.65,9.19,9.19,0,0,0-6.79,3.07,9.68,9.68,0,0,0-3,6.89q0,.87,1.5.87a104.3,104.3,0,0,0,14.69-1.25C564.46,1370.34,565.26,1370.07,565.26,1369.73Z" transform="translate(-0.5 0.5)"/><path d="M624.69,1357a4.35,4.35,0,0,1-.13.75,99.5,99.5,0,0,0-1.61,16.39q0,.42,1,18.64l0,.58c0,.8-.33,1.2-1.1,1.2a32.55,32.55,0,0,0-3.44.27,32.64,32.64,0,0,1-3.42.27c-.53,0-.93-1-1.21-2.9s-.54-2.91-.79-2.91a11,11,0,0,0-2.24,1.62,24.24,24.24,0,0,1-4.56,3,14.4,14.4,0,0,1-6.56,1.66,17.2,17.2,0,0,1-13.57-6.43,21.41,21.41,0,0,1-5.23-14.32q0-9.21,5.27-15.23,5.52-6.27,14.53-6.27a15.78,15.78,0,0,1,11.08,4.4c.47.55,1.2,1.36,2.2,2.41a.35.35,0,0,0,.25.12c.16,0,.4-.87.7-2.61s.69-2.62,1.16-2.62a26.32,26.32,0,0,1,4.2.62C623.55,1356.16,624.69,1356.61,624.69,1357Zm-10.59,17.35a13.34,13.34,0,0,0-3-8.76,10.1,10.1,0,0,0-8.18-3.94,10.45,10.45,0,0,0-8.3,3.9,13.12,13.12,0,0,0-3.2,8.8,12.92,12.92,0,0,0,3.2,8.72,10.51,10.51,0,0,0,8.3,3.86,10.16,10.16,0,0,0,8.13-4A13.07,13.07,0,0,0,614.1,1374.34Z" transform="translate(-0.5 0.5)"/><path d="M658,1386.92c0,.61-.05,1.44-.16,2.49-.14,1.3-.23,2.14-.25,2.53a3,3,0,0,1-.13.91,1.65,1.65,0,0,1-.79.58q-3.4,1.62-10.7,1.62-9.72,0-9.72-8.8,0-3.52.17-10.6c.11-4.72.17-8.25.17-10.61a1.63,1.63,0,0,0-1.71-1.82c-1,0-2,0-3,0-.58-.14-.87-1.28-.87-3.41a20.67,20.67,0,0,1,.17-2.53c.08-.66.52-1.06,1.33-1.2s1.37,0,2,0c1.27-.06,1.91-.63,1.91-1.71s0-2.79-.1-5.06-.11-4-.11-5.1c0-2,.39-3,1.16-3q.38,0,7.81,1.28c.63.09,1,.39,1,.92,0,1.21-.09,3-.27,5.48s-.27,4.26-.27,5.47c0,.81.38,1.21,1.12,1.21h10c.47,0,.71.16.71.5a13.23,13.23,0,0,1-.15,1.59,15.27,15.27,0,0,0-.14,1.64c0,.42,0,1,0,1.91s0,1.5,0,1.91-.39.79-1.16.79c-1.11,0-2.78-.08-5-.23s-3.92-.23-5-.23c-.23,0-.39.79-.5,2.37-.14,2-.21,4.72-.21,8.26v6.18a13,13,0,0,0,.66,5q1,2.16,4.11,2.16a19.08,19.08,0,0,0,3.78-.56,19,19,0,0,1,3.69-.56C657.81,1386.17,658,1386.42,658,1386.92Z" transform="translate(-0.5 0.5)"/><path d="M702.46,1372.27a4,4,0,0,1-2.66,4.11q-1.78.66-25.69,2.44a9.34,9.34,0,0,0,4,6.23,11.8,11.8,0,0,0,7.14,2.45,19.19,19.19,0,0,0,12-4.24c.45-.35.89-.72,1.33-1.07a.75.75,0,0,1,.44.08c.07,0,.59,1,1.55,2.88a25.47,25.47,0,0,1,1.46,3c0,.17-.22.49-.67,1a20.54,20.54,0,0,1-15.64,6.47q-9.63,0-15.36-5.75t-5.73-15.33a22.1,22.1,0,0,1,5.48-14.9,18.09,18.09,0,0,1,14.15-6.6,16.94,16.94,0,0,1,13,5.73A19.27,19.27,0,0,1,702.46,1372.27Zm-9.88-2.54a8.28,8.28,0,0,0-2.72-6.1,8.54,8.54,0,0,0-6.12-2.65,9.17,9.17,0,0,0-6.78,3.07,9.68,9.68,0,0,0-3,6.89c0,.58.5.87,1.49.87a104.31,104.31,0,0,0,14.7-1.25C691.78,1370.34,692.58,1370.07,692.58,1369.73Z" transform="translate(-0.5 0.5)"/><path d="M776.66,1357a5.09,5.09,0,0,1-.12.75,99.64,99.64,0,0,0-1.62,16.39q0,.42,1,18.64l0,.58c0,.8-.34,1.2-1.1,1.2a32.69,32.69,0,0,0-3.45.27,32.26,32.26,0,0,1-3.42.27c-.53,0-.93-1-1.2-2.9s-.54-2.91-.79-2.91a10.43,10.43,0,0,0-2.24,1.62,24.61,24.61,0,0,1-4.57,3,14.37,14.37,0,0,1-6.56,1.66,17.21,17.21,0,0,1-13.57-6.43,21.46,21.46,0,0,1-5.23-14.32q0-9.21,5.27-15.23a18.43,18.43,0,0,1,14.53-6.27,15.76,15.76,0,0,1,11.08,4.4c.47.55,1.2,1.36,2.2,2.41a.37.37,0,0,0,.25.12c.17,0,.4-.87.71-2.61s.69-2.62,1.16-2.62a26.4,26.4,0,0,1,4.19.62C775.53,1356.16,776.66,1356.61,776.66,1357Zm-10.58,17.35a13.3,13.3,0,0,0-3-8.76,10.09,10.09,0,0,0-8.18-3.94,10.47,10.47,0,0,0-8.3,3.9,13.12,13.12,0,0,0-3.19,8.8,12.91,12.91,0,0,0,3.19,8.72,10.52,10.52,0,0,0,8.3,3.86,10.19,10.19,0,0,0,8.14-4A13.07,13.07,0,0,0,766.08,1374.34Z" transform="translate(-0.5 0.5)"/><path d="M863.77,1337.24q0,4.77-.33,14.4t-.33,14.44q0,4.53.08,13.55t.09,13.55c0,.92-.35,1.37-1,1.37-.42,0-1,0-1.87-.12s-1.45-.13-1.87-.13-1.12,0-2,.13-1.59.12-2,.12-1.09-.45-1.78-1.37q-9-12.08-27.19-36c-1.88-2.44-3-3.79-3.27-4.07-.28,0-.42.57-.42,1.7q0,6.39.21,19.2t.21,19.19c0,.92-.28,1.37-.83,1.37s-1.19,0-2.16-.12-1.69-.13-2.16-.13-1.24,0-2.22.13-1.72.12-2.22.12c-.69,0-1-.27-1-.83q0-4.56.44-13.76t.43-13.79q0-5-.37-18.1c-.06-2.27-.19-5.67-.42-10.21l0-.54c0-.42.31-.64,1-.66,1.8,0,3.21-.09,4.23-.17.39,0,1.12-.14,2.2-.33a12.48,12.48,0,0,1,2.16-.25q.38,0,1.29,1.2,9.54,13.13,29.22,39c.58.72,1.12,1.34,1.61,1.86a63.17,63.17,0,0,0,.29-8q0-5.4-.39-16.19t-.39-16.15c0-.91.27-1.37.83-1.37s1.25,0,2.26.13,1.76.12,2.26.12,1.31,0,2.37-.12,1.84-.13,2.36-.13S863.77,1336.63,863.77,1337.24Z" transform="translate(-0.5 0.5)"/><path d="M911,1372.27a4,4,0,0,1-2.65,4.11q-1.78.66-25.69,2.44a9.32,9.32,0,0,0,4,6.23,11.8,11.8,0,0,0,7.14,2.45,19.24,19.24,0,0,0,12-4.24l1.32-1.07a.73.73,0,0,1,.44.08c.07,0,.59,1,1.56,2.88a26.24,26.24,0,0,1,1.45,3c0,.17-.22.49-.67,1a20.54,20.54,0,0,1-15.64,6.47q-9.63,0-15.36-5.75t-5.73-15.33a22.1,22.1,0,0,1,5.48-14.9,18.11,18.11,0,0,1,14.16-6.6,16.92,16.92,0,0,1,13,5.73A19.27,19.27,0,0,1,911,1372.27Zm-9.88-2.54a8.31,8.31,0,0,0-2.71-6.1,8.57,8.57,0,0,0-6.13-2.65,9.18,9.18,0,0,0-6.78,3.07,9.68,9.68,0,0,0-3,6.89c0,.58.5.87,1.49.87a104.31,104.31,0,0,0,14.7-1.25C900.36,1370.34,901.16,1370.07,901.16,1369.73Z" transform="translate(-0.5 0.5)"/><path d="M976,1364.79c0,5.21-.29,8.47-.87,9.8a112,112,0,0,1-6.14,10.92q-5.4,8.84-6.52,9.13c-.22,0-1.33.08-3.32.08a18.59,18.59,0,0,1-2.37-.08q-1.28-.33-9.87-14.28-2.37,3.9-4.78,7.84c-2.6,4.1-4.26,6.24-5,6.44a23.7,23.7,0,0,1-2.74.08,24.39,24.39,0,0,1-2.78-.08c-.85-.2-3-3.21-6.51-9.05a90.68,90.68,0,0,1-6-11c-.64-1.66-1-4.92-1-9.8a54.43,54.43,0,0,1,.41-8.34,1,1,0,0,1,1-.91c.83,0,2.07,0,3.73.08s2.91.09,3.74.09c.52,0,.79.42.79,1.28,0,.61,0,1.53-.08,2.76s-.09,2.15-.09,2.76a84.2,84.2,0,0,0,.42,10.21q.38,2.63,6.51,11c.5.66.79,1,.87,1s.34-.31.75-.92q5.4-7.85,6.15-10.71a48.28,48.28,0,0,0,.49-8.92c0-.94,0-2.34-.16-4.19s-.17-3.24-.17-4.15c0-.61.25-.91.75-.91h7.92c.45,0,.67.36.67,1.08,0,.88,0,2.22-.13,4s-.12,3.12-.12,4a71.51,71.51,0,0,0,.25,8.49c.16.76,1.47,2.94,3.9,6.52s3.83,5.37,4.19,5.37q.12,0,.75-1,5.26-8,5.69-10.71a54.34,54.34,0,0,0,.37-7.6c0-1-.08-2.56-.25-4.54s-.25-3.4-.25-4.25c0-.42.28-.63.83-.63.83,0,2.06,0,3.69-.08s2.87-.08,3.7-.08a1,1,0,0,1,1.12.83A61.38,61.38,0,0,1,976,1364.79Z" transform="translate(-0.5 0.5)"/><path d="M1050.24,1344.83c0,.53-.29.79-.87.79-2.16,0-5.71-.12-10.63-.37-4.59-.22-8.13-.31-10.62-.25l-3,0a27.77,27.77,0,0,0-3.07.12c-.55.23-.83,1.1-.83,2.62v10c0,1.88.4,2.82,1.21,2.82q4,0,12.14-.37t12.14-.37q.87,0,.87.66c0,.47,0,1.17-.1,2.1s-.11,1.62-.11,2.09,0,1.25.08,2.26.09,1.77.09,2.27c0,.33-.29.49-.87.49q-2.87,0-8.7-.16t-8.74-.17c-3.56,0-5.59,0-6.06.09-1.24.13-1.86.65-1.86,1.53q0,3.74.2,11.21t.21,11.2c0,.83-.33,1.25-1,1.25a22.4,22.4,0,0,1-2.47-.19c-1.1-.12-1.93-.19-2.51-.19s-1.19,0-2.16.13-1.69.12-2.16.12c-.69,0-1-.3-1-.91q0-4.61.4-13.86t.39-13.86q0-4.28-.87-27.81v-.54c0-.58.32-.91,1-1l5.27.13q6.51.12,12.07,0,7.51-.09,19.14-.83a1.46,1.46,0,0,1,1.78,1.37,28.58,28.58,0,0,0,.17,3.4A36.37,36.37,0,0,1,1050.24,1344.83Z" transform="translate(-0.5 0.5)"/><path d="M1097.42,1356.91q0,3-.25,9.15c-.16,4.08-.24,7.15-.24,9.19s.06,5,.18,9.07.19,7,.19,9.07a1,1,0,0,1-.79,1.08c-.22.06-3,.08-8.43.08-.33,0-.53-1-.6-3.11s-.23-3.11-.47-3.11a1.18,1.18,0,0,0-.63.37q-6.93,6-13.69,6-9.18,0-12.12-6.64-1.83-4.11-1.83-14.78a73.65,73.65,0,0,1,1.54-16.31c.25-1.08.7-1.62,1.37-1.62s2,0,3.61.05l3.61,0c.55,0,.83.3.83.91a43.84,43.84,0,0,1-.54,5.4,53,53,0,0,0-.62,5.68c-.09,1.66-.13,3.49-.13,5.48q0,7.26,1,9.75,1.79,4.48,7.93,4.49,2.61,0,6.18-2.58,3.78-2.7,3.9-5.19.21-3.11.21-21.91c0-1.36.57-2,1.7-2h6.85C1097,1355.46,1097.42,1355.94,1097.42,1356.91Z" transform="translate(-0.5 0.5)"/><path d="M1132.41,1386.92c0,.61-.06,1.44-.17,2.49-.14,1.3-.22,2.14-.25,2.53a3.59,3.59,0,0,1-.12.91,1.71,1.71,0,0,1-.79.58q-3.4,1.62-10.71,1.62-9.7,0-9.71-8.8c0-2.35,0-5.88.17-10.6s.16-8.25.16-10.61a1.63,1.63,0,0,0-1.7-1.82c-1,0-2,0-3,0-.58-.14-.87-1.28-.87-3.41a20.58,20.58,0,0,1,.16-2.53,1.4,1.4,0,0,1,1.33-1.2c.69,0,1.37,0,2,0,1.27-.06,1.91-.63,1.91-1.71s0-2.79-.11-5.06-.1-4-.1-5.1c0-2,.39-3,1.16-3q.38,0,7.8,1.28c.64.09,1,.39,1,.92,0,1.21-.09,3-.27,5.48s-.27,4.26-.27,5.47c0,.81.37,1.21,1.12,1.21h10c.47,0,.71.16.71.5a13.23,13.23,0,0,1-.15,1.59,13.49,13.49,0,0,0-.15,1.64c0,.42,0,1,0,1.91s0,1.5,0,1.91-.39.79-1.16.79c-1.11,0-2.79-.08-5-.23s-3.91-.23-5-.23c-.22,0-.39.79-.5,2.37-.14,2-.2,4.72-.2,8.26v6.18a13,13,0,0,0,.66,5q1,2.16,4.11,2.16a19.08,19.08,0,0,0,3.78-.56,19,19,0,0,1,3.69-.56C1132.24,1386.17,1132.41,1386.42,1132.41,1386.92Z" transform="translate(-0.5 0.5)"/><path d="M1180.18,1356.91c0,2-.09,5.07-.25,9.15s-.25,7.15-.25,9.19.06,5,.18,9.07.19,7,.19,9.07a1,1,0,0,1-.79,1.08c-.22.06-3,.08-8.42.08-.34,0-.54-1-.61-3.11s-.22-3.11-.47-3.11a1.18,1.18,0,0,0-.63.37q-6.93,6-13.69,6-9.18,0-12.12-6.64-1.83-4.11-1.83-14.78A74.26,74.26,0,0,1,1143,1357c.25-1.08.7-1.62,1.37-1.62s2,0,3.61.05l3.61,0c.55,0,.83.3.83.91a43.84,43.84,0,0,1-.54,5.4,55.8,55.8,0,0,0-.62,5.68c-.08,1.66-.13,3.49-.13,5.48q0,7.26,1,9.75,1.79,4.48,7.93,4.49,2.61,0,6.18-2.58,3.78-2.7,3.9-5.19.21-3.11.21-21.91c0-1.36.57-2,1.7-2H1179C1179.77,1355.46,1180.18,1355.94,1180.18,1356.91Z" transform="translate(-0.5 0.5)"/><path d="M1215.78,1355.58a51.22,51.22,0,0,1-.62,8.3c-.08.64-.36,1-.83,1s-1.46-.07-2.64-.19-2.06-.19-2.67-.19c-3.49,0-5.72,1-6.69,3q-.87,1.78-.87,7.43v4.56c0,1.56.07,3.91.19,7.06s.19,5.51.19,7.06c0,.74-.32,1.12-1,1.12-.86,0-2.16,0-3.9-.05l-3.9,0c-.64,0-.95-.34-.95-1,0-2.25,0-5.62.1-10.13s.1-7.9.1-10.17q0-10.24-1.91-16.48a2.52,2.52,0,0,1-.08-.49.73.73,0,0,1,.54-.71l4.32-.5c3-.55,4.37-.83,4.15-.83.44,0,.73.82.87,2.45s.39,2.45.74,2.45a.43.43,0,0,0,.21-.08l3.41-2.16a15.16,15.16,0,0,1,3.81-1.66,14.51,14.51,0,0,1,4.15-.5Q1215.78,1354.71,1215.78,1355.58Z" transform="translate(-0.5 0.5)"/><path d="M1258.9,1372.27a4,4,0,0,1-2.65,4.11q-1.8.66-25.7,2.44a9.37,9.37,0,0,0,4,6.23,11.8,11.8,0,0,0,7.14,2.45,19.19,19.19,0,0,0,12-4.24c.45-.35.89-.72,1.33-1.07a.75.75,0,0,1,.44.08c.07,0,.59,1,1.56,2.88a26.24,26.24,0,0,1,1.45,3c0,.17-.22.49-.67,1a20.54,20.54,0,0,1-15.64,6.47q-9.63,0-15.36-5.75t-5.73-15.33a22.1,22.1,0,0,1,5.48-14.9,18.09,18.09,0,0,1,14.15-6.6,16.93,16.93,0,0,1,13,5.73A19.27,19.27,0,0,1,1258.9,1372.27Zm-9.88-2.54a8.28,8.28,0,0,0-2.72-6.1,8.54,8.54,0,0,0-6.12-2.65,9.18,9.18,0,0,0-6.78,3.07,9.68,9.68,0,0,0-3,6.89c0,.58.5.87,1.49.87a104.31,104.31,0,0,0,14.7-1.25C1248.22,1370.34,1249,1370.07,1249,1369.73Z" transform="translate(-0.5 0.5)"/><path d="M1279.53,1389.7a6.26,6.26,0,0,1-1.5,4.23,4.93,4.93,0,0,1-3.94,1.74,4.82,4.82,0,0,1-3.94-1.82,6.2,6.2,0,0,1-1.42-4.15,6,6,0,0,1,1.46-4.11,4.92,4.92,0,0,1,3.9-1.66,5.06,5.06,0,0,1,3.92,1.66A5.88,5.88,0,0,1,1279.53,1389.7Zm-.17-42.83a110.36,110.36,0,0,1-1.54,19.21q-.61,3.29-1.61,9.84c-.12,1.08-.85,1.62-2.2,1.62a5.32,5.32,0,0,1-1.62-.17c-.45-.14-.74-.55-.87-1.24q-2.54-12.45-2.54-15.9v-22.37c0-1.08.17-1.62.5-1.62a18.5,18.5,0,0,1,2.28.21,18.8,18.8,0,0,0,2.33.21,19.08,19.08,0,0,0,2.34-.21,19.2,19.2,0,0,1,2.31-.21q.54,0,.54,1.56c0,1,0,2.56,0,4.56S1279.36,1345.87,1279.36,1346.87Z" transform="translate(-0.5 0.5)"/><rect x="64.5" y="0.5" width="37.5" height="2559" fill="#468530"/></svg>