<svg id="Layer_1" data-name="Layer 1" xmlns="http://www.w3.org/2000/svg" xmlns:xlink="http://www.w3.org/1999/xlink" viewBox="0 0 1600 2561.77"><defs><clipPath id="clip-path"><rect x="1.5" y="963" width="1597" height="1597" fill="none"/></clipPath></defs><title>5_ways_to_make_eship_easier</title><rect width="1600" height="2560" fill="#e4f2eb"/><g clip-path="url(#clip-path)"><path d="M1566.56,2560H1278.5L1397,2385.57a43.59,43.59,0,0,1,74.21,3.3L1567.05,2560" fill="#70b24a"/><path d="M1566.56,2560v-1.77H1281.08l116.76-171.84A41.93,41.93,0,0,1,1432.7,2368c.56,0,1.11,0,1.66,0a42,42,0,0,1,34.74,21.51L1565,2560.87l1.55-.87v0l1.55-.87-95.91-171.31a45.53,45.53,0,0,0-37.68-23.32c-.62,0-1.23,0-1.82,0a45.5,45.5,0,0,0-37.8,19.93l-120.53,177.38h295.22l-1.48-2.64-1.55.87" fill="#50030a"/></g><path d="M1274.89,1933.82a56.75,56.75,0,0,0-56.63-22.22c0-1.48.1-3,.1-4.46a116.12,116.12,0,0,0-56.46-99.68h0a115.65,115.65,0,0,0-59.75-16.53c-55.17,0-101.32,38.45-114.06,90h0l.79.22a71.66,71.66,0,0,0-80.28,71.26,71.45,71.45,0,0,0,9.14,35h0A71.78,71.78,0,0,0,975.67,2024v.08H1229a56.76,56.76,0,0,0,45.85-90.3" fill="#fff"/><path d="M917.73,1987.37A71.77,71.77,0,0,0,975.67,2024v.17H1247.6a21.94,21.94,0,0,0,15.91-6.72c28.11-29.53,27.08-62.29,11.38-83.67a56.77,56.77,0,0,0-56.64-22.22c0-1.49.1-3,.1-4.46a116.14,116.14,0,0,0-56.46-99.69c19,30.54,39.87,79,18.73,123.41-18.31,38.46-91,72.21-123,13.25s-68.64-63.17-68.64-63.17c25.26,19.59,35.52,57.51,10.63,93.89a25.28,25.28,0,0,1-6.41,6.43c-27,18.82-54.77,18-75.42,6.2" fill="#e4f2eb"/><path d="M1274.25,1933.82l1.79-1.31a58.94,58.94,0,0,0-47.64-24.17,58.22,58.22,0,0,0-11.21,1.09l.43,2.17,2.21.08c.05-1.49.1-3,.1-4.54a118.32,118.32,0,0,0-57.53-101.58l-1.14,1.9,2-1h0l-.29-.58-.55-.33a118.42,118.42,0,0,0-176.26,74.88l2.16.5-2-1v1.39l-.11.21-.11.45,2.09.52.26-2.14a72,72,0,0,0-80.63,71.56,71.81,71.81,0,0,0,9.18,35.19l1.89-1.06v-1h-3.74l1.83,3.32a72.91,72.91,0,0,0,59,37.94l.15-2.22H973.9v1.77H1229c32.62.54,59-25.9,59-58.5a58.72,58.72,0,0,0-11.4-34.88l-1.79,1.31-1.78,1.31a54.62,54.62,0,0,1-5.45,70.87c-9.89,9.88-38.62,16.34-38.62,16.34H975.67v1.78h1.77v-2.25l-2.08-.14a69.77,69.77,0,0,1-56.31-35.44l-1.94,1.08v3h3.77l-1.84-3.3A69.84,69.84,0,0,1,930.49,1904a68.71,68.71,0,0,1,48.89-20.37,69.56,69.56,0,0,1,8.2.5l1.93.23.52-2.12-2.14-.53,2,1v-.72l.11-.24.06-.26a114,114,0,0,1,169.66-72.08l1.14-1.9-2,1h0l.28.58.56.33a113.91,113.91,0,0,1,55.38,97.78c0,1.44,0,2.9-.1,4.39l-.1,2.79,2.74-.54a53.53,53.53,0,0,1,10.36-1,54.52,54.52,0,0,1,44.06,22.35l1.79-1.31" fill="#6f8c82"/><path d="M623.41,2029a52,52,0,0,0-51.87-20.35c0-1.36.09-2.72.09-4.08a106.34,106.34,0,0,0-51.7-91.29h0a106.26,106.26,0,0,0-158.22,67.3h0l-.23.2a66.6,66.6,0,0,0-7.78-.47,65.72,65.72,0,0,0-57.37,97.82h0a65.69,65.69,0,0,0,53,33.49v-.54H581.41c28.75.7,52-22.61,52-51.34a51.74,51.74,0,0,0-10-30.74" fill="#fff"/><path d="M296.24,2077.42a65.69,65.69,0,0,0,53.05,33.49v.16h232a52,52,0,0,0,0-104.08,51.08,51.08,0,0,0-9.88,1c0-1.36.1-2.72.1-4.08a106.37,106.37,0,0,0-51.71-91.3c17.4,28,36.51,72.36,17.15,113-16.76,35.22-83.34,66.13-112.69,12.13s-62.85-57.85-62.85-57.85a58.81,58.81,0,0,1-65.2,97.56" fill="#e4f2eb"/><path d="M623.79,2029l1.79-1.31a54.23,54.23,0,0,0-54.08-21.22l.43,2.18,2.21.08c.05-1.36.1-2.75.1-4.16a108.57,108.57,0,0,0-52.78-93.19l-1.14,1.9,2-1h0a2.17,2.17,0,0,0-.84-.91,108.64,108.64,0,0,0-161.7,68.7l2.16.5-2-1v-.7l-.17.46-.06.21,2.19.55.26-2.24a70.66,70.66,0,0,0-8.16-.5,68.9,68.9,0,0,0-60.14,102.56,2.25,2.25,0,0,0,4-2.11v-1.22l-2,1-2,1.09a69.19,69.19,0,0,0,55.78,34.62l.14-2.21h-2.25v.7s.64,2.21,1.87,1.07h232c30,1.15,54.26-23.15,54.26-53.11a53.89,53.89,0,0,0-10.48-32l-1.78,1.31-1.79,1.31a49.83,49.83,0,0,1-5,64.66c-9,9-35.24,14.33-35.24,14.33H349.29v1.78h1.78v-.16a2.27,2.27,0,0,0-2.17-2.22,66.47,66.47,0,0,1-53.44-32.36,2.36,2.36,0,0,0-3.1-.87,2.17,2.17,0,0,0-1,2.95h0l2.07-1,2-1.09a61.17,61.17,0,0,1-8.43-31,62,62,0,0,1,19.4-44.91,67.41,67.41,0,0,1,46.82-18.61,70.22,70.22,0,0,1,7.84.46,2.31,2.31,0,0,0,2.52-1.66l.05-.21-2.24-.54,2.07,1v.68a2,2,0,0,0,.17-.49,104.17,104.17,0,0,1,155-65.87l1.15-1.9-2,1h0a2.23,2.23,0,0,0,.84.91,104.12,104.12,0,0,1,50.63,89.39c0,1.31,0,2.64-.09,4a2.25,2.25,0,0,0,.78,1.76,2.2,2.2,0,0,0,1.86.49,49.69,49.69,0,0,1,49.66,19.48l1.78-1.31" fill="#6f8c82"/><path d="M190.69,2014.74a50.87,50.87,0,0,0-47.48,32.7A35.56,35.56,0,0,0,100,2063.83a34.4,34.4,0,0,0-3.22,8.16,35.48,35.48,0,0,0,34.38,44.4h65.49V2116a51.11,51.11,0,0,0,44.46-44.41c.13-1.06.22-2,.26-2.9.08-1.14.12-2.16.12-3.14a50.89,50.89,0,0,0-50.84-50.83Zm.89,5.32a46.3,46.3,0,0,1,46.2,46.4c0,1,0,1.93-.11,2.91s-.13,1.74-.23,2.61a46.25,46.25,0,0,1-44.3,40.82v0H132.35A31,31,0,0,1,102.41,2074a29.64,29.64,0,0,1,2.79-7.11,30.94,30.94,0,0,1,27.15-16.17,30.57,30.57,0,0,1,14.65,3.7v-.07a46.59,46.59,0,0,1,20.22-27.25,45.91,45.91,0,0,1,24.36-7" fill="#6f8c82"/><path d="M238.23,2066.46c0,1,0,1.94-.11,2.91s-.13,1.74-.24,2.61a46.53,46.53,0,0,1-44.74,40.82v0h-62.2c-12,0-23.1-6.89-27.71-17.89a34.53,34.53,0,0,1-2.36-8.32v0A30.64,30.64,0,0,0,148,2049.86a40.51,40.51,0,0,1,2.43-5.26c0,.06,0,.12,0,.18a37.08,37.08,0,0,0,27.67,38.39c25.1,6.39,47.66-12.29,47.66-36.23a36.86,36.86,0,0,0-3.26-15.21,46.18,46.18,0,0,1,15.72,34.73Z" fill="#e4f2eb"/><g clip-path="url(#clip-path)"><path d="M1382,2560H235.9l.73-1.54.13-.29L489.67,2011.7a14.56,14.56,0,0,1,24.68-2.81l51,65.64,10.93,14L628,1981.15l149.6-311.33L832.73,1555a14.53,14.53,0,0,1,13.1-8.23h0a14.54,14.54,0,0,1,13.11,8.3l66.63,140.47,123.52,260.37,27-14.57a14.53,14.53,0,0,1,20.08,6.65l161.4,346,92.88,199.17,3.87,8.3,27.3,58.52" fill="#b1db59"/><path d="M1382,2560v-1.77H235.73v1.71l1.55.73.72-1.55,0,0,.13-.28-1.57-.69,1.55.72,253-546.41a12.77,12.77,0,0,1,10.19-7.33,11.88,11.88,0,0,1,1.45-.09,12.82,12.82,0,0,1,10.14,5h0L564,2075.58l12.63,16.23,52.84-109.91,149.66-311.29,55.2-114.78a12.79,12.79,0,0,1,11.57-7.26h0a12.84,12.84,0,0,1,11.57,7.32h0l66.66,140.45,124.35,262,28.63-15.42h0a12.84,12.84,0,0,1,10.13-.89h0a12.86,12.86,0,0,1,7.6,6.76l161.47,345.95,92.92,199.14,3.87,8.3,27.31,58.52,1.56-.72v.12l1.55-.72-27.31-58.53-3.86-8.31-92.9-199.18-161.42-346a16.3,16.3,0,0,0-9.61-8.57h0a16.29,16.29,0,0,0-12.83,1.13h0l-25.45,13.71L927.42,1694.78,860.78,1554.3l-.24-.47a16.27,16.27,0,0,0-14.45-8.81h0a16.23,16.23,0,0,0-14.66,9.2L776.25,1669,626.63,1980.4,576.2,2085.35,567,2073.48l-51.06-65.64h0a16.24,16.24,0,0,0-12.84-6.28,15.91,15.91,0,0,0-1.83.11,16.26,16.26,0,0,0-12.92,9.3L235.38,2557.52l0,0-.12.28,1.57.69-1.55-.73-.73,1.54-1.15,2.44H1384.54l-1.14-2.43-1.55.72" fill="#50030a"/></g><path d="M1378.47,2558.23h-69l-10.61-33.72H928.91a79.77,79.77,0,0,1-10-158.94c.16-.34.3-.71.48-1.05a113.12,113.12,0,0,1,102.94-66.18c1.59,0,3.19.07,4.79.12a139,139,0,0,1,206.93-10.93c2.11,2.11,4.14,4.3,6.11,6.53l4.38-25.07,11.63,24.94,92.91,199.22,3.87,8.3,26.17,56.11" fill="#97c459"/><polyline points="1382.02 2560 1381.85 2560 1309.99 2560 1309.43 2558.23 1379.16 2558.23 1352.99 2501.45 1349.12 2493.15 1256.21 2293.93 1244.58 2268.99 1244.97 2266.73 1338.31 2466.7 1350.67 2492.43 1382.62 2558.91 1382.02 2559.27 1382.02 2557.55 1382.02 2559.27 1382.62 2558.91 1382.79 2559.27" fill="#50030a"/><polyline points="630.52 2154.68 576.7 2090.8 629.45 1981.01 629.92 1980.02 642.3 1978.53 630.52 2154.68" fill="#97c459"/><polyline points="576.7 2090.8 575.24 2089.06 627.91 1980.27 629.92 1980.02 629.45 1981.01 576.7 2090.8" fill="#50030a"/><polyline points="1022.05 1972.76 999.09 1853.43 1048.42 1957.4 1049.89 1956.6 1049.91 1956.64 1022.05 1972.76" fill="#97c459"/><polyline points="1048.42 1957.4 999.09 1853.43 998.28 1849.18 1049.89 1956.6 1048.42 1957.4" fill="#50030a"/><polyline points="255.25 2558.23 238.44 2558.23 271.47 2486.86 255.98 2558.23" fill="#97c459"/><polyline points="255.25 2560 235.1 2560 235.26 2559.61 235.85 2558.4 235.98 2558.11 272.63 2481.87 272.11 2484.28 237.88 2558.23 256.06 2558.23 255.67 2560" fill="#50030a"/><line x1="840.46" y1="1546.66" x2="497.99" y2="1681.13" fill="#ea333a"/><line x1="840.46" y1="1546.66" x2="497.99" y2="1681.13" fill="none" stroke="#50030a" stroke-linecap="round" stroke-miterlimit="10" stroke-width="3.42"/><line x1="504.27" y1="1676.33" x2="374.77" y2="1709.22" fill="#ea333a"/><path d="M373.81,1724.86a15.27,15.27,0,0,0,4.82-.46l129.5-32.89a15.67,15.67,0,0,0-7.72-30.37L370.92,1694a15.67,15.67,0,0,0,2.89,30.83Z" fill="#f1e8db"/><path d="M373.81,1724.86a15.27,15.27,0,0,0,4.82-.46l129.5-32.89a15.67,15.67,0,0,0-7.72-30.37L370.92,1694a15.67,15.67,0,0,0,2.89,30.83ZM498,1681.13s-45.85,19.14-49.26,74.88,42.13,117.82-8.62,215.87-11.81,118.37-11.81,118.37" fill="none" stroke="#50030a" stroke-linecap="round" stroke-miterlimit="10" stroke-width="3.42"/><path d="M441.59,1843.18a21.58,21.58,0,0,0,4.28-.43l128-25.54a23.9,23.9,0,0,1,7-.36l106.78,11a21.76,21.76,0,1,0,4.45-43.29l-107-11a67.93,67.93,0,0,0-19.76,1l-128,25.54a21.77,21.77,0,0,0,4.23,43.11Z" fill="#50030a"/><path d="M578.92,2016.21a21.79,21.79,0,0,0,20.74-28.39l-35.37-110.75a43.42,43.42,0,0,0-33.92-29.64l-114.79-20.25a21.75,21.75,0,0,0-25.2,17.65c-2.09,11.84,11.49,24.33,23.33,26.41l109.11,19,35.38,110.77a21.78,21.78,0,0,0,20.72,15.15Z" fill="#50030a"/><path d="M439.8,1771.59l-53.9-67.65a23.29,23.29,0,0,0-32.72-3.7L320,1726.65a23.43,23.43,0,0,0-3.72,32.93l82.76,103.86,69.67-55.51-11.26-14.15" fill="none" stroke="#50030a" stroke-linecap="round" stroke-miterlimit="10" stroke-width="3.42"/><path d="M316.37,1759.71l82.68,103.76L468.72,1808l-82.85-104a23.28,23.28,0,0,0-32.72-3.7l-33,26.32a23.57,23.57,0,0,0-3.75,33.12Z" fill="#fff"/><path d="M316.37,1759.71l82.68,103.76L468.72,1808l-82.85-104a23.28,23.28,0,0,0-32.72-3.7l-33,26.32a23.57,23.57,0,0,0-3.75,33.12Z" fill="none" stroke="#50030a" stroke-linecap="round" stroke-linejoin="round" stroke-width="3.42"/><polygon points="368.81 1827.68 357.44 1838.86 347.39 1826.02 360.52 1724.05 368.81 1724.77 368.81 1827.68 368.81 1827.68" fill="#ea333a"/><polygon points="368.81 1827.68 357.44 1838.86 347.39 1826.02 360.52 1724.05 368.81 1724.77 368.81 1827.68 368.81 1827.68" fill="none" stroke="#50030a" stroke-linecap="round" stroke-miterlimit="10" stroke-width="3.42"/><path d="M314.15,1706.86l9.09,11.41c.28.35.57.68.87,1a16.25,16.25,0,0,0,22,1.59l9.26-7.39a7.38,7.38,0,0,0,1.18-10.36L345.25,1689l-31.1,17.9Z" fill="#feeed6"/><path d="M314.15,1706.86l9.09,11.41c.28.35.57.68.87,1a16.25,16.25,0,0,0,22,1.59l9.26-7.39a7.38,7.38,0,0,0,1.18-10.36L345.25,1689l-31.1,17.9Z" fill="none" stroke="#50030a" stroke-linecap="round" stroke-miterlimit="10" stroke-width="3.42"/><path d="M315,1707.93l8.24,10.34c.28.35.57.68.87,1a37.36,37.36,0,0,0,16.73-7.6l4.79-3.82a31.29,31.29,0,0,0,7.63-8.83l.07-.12-7.08-8.88-.11.06L315,1707.93Z" fill="#fccfa9"/><path d="M314.2,1706.82l9.1,11.41c.27.35.56.68.86,1a16.24,16.24,0,0,0,22,1.58l11.18-8.9a4.93,4.93,0,0,0,.78-6.93l-12.79-16.06-31.1,17.9Z" fill="none" stroke="#50030a" stroke-linecap="round" stroke-miterlimit="10" stroke-width="3.42"/><path d="M274.39,1671l16.3,20.58h0a37.67,37.67,0,0,0,52.92,6.14l4.81-3.8a31.53,31.53,0,0,0,5.14-44.29l-21-26.53-2.91-3.67a19.32,19.32,0,0,0-27.15-3.15L273.74,1639a19.32,19.32,0,0,0-3.15,27.15l5.77,7.29-2-2.49" fill="#feeed6"/><path d="M272.45,1672.79l16.89,20.57,1.39-1.06H289v.59l.38.47a41.83,41.83,0,0,0,57.34,6.42l5-3.8a32.74,32.74,0,0,0,13-26.08,32.32,32.32,0,0,0-7.44-20.62l-21.77-26.52-3-3.68a22.36,22.36,0,0,0-30.62-3.43l-29.79,22.77a20.76,20.76,0,0,0-8.27,16.51,20.52,20.52,0,0,0,4.71,13l6,7.29a1.81,1.81,0,0,0,2.49.28,1.66,1.66,0,0,0,.29-2.4l-6-7.3a17.12,17.12,0,0,1-3.94-10.92,17.36,17.36,0,0,1,6.92-13.82l29.8-22.77a18.69,18.69,0,0,1,25.63,2.87l3,3.67,21.77,26.53a29,29,0,0,1,6.68,18.49,29.43,29.43,0,0,1-11.72,23.4l-5,3.8a38.21,38.21,0,0,1-52.36-5.87l-1.39,1.07h1.78v-.6l-17.28-21a1.81,1.81,0,0,0-2.49-.28,1.67,1.67,0,0,0-.29,2.41h0" fill="#50030a"/><polygon points="330.84 1644.23 342 1635.39 335.03 1626.58 323.87 1635.43 330.84 1644.23 330.84 1644.23" fill="#fccfa9"/><path d="M310.27,1660.77l7.06-5.58a5.54,5.54,0,0,0,.9-7.78l-3.54-4.47-15.45,12.25,3.75,4.74a5.18,5.18,0,0,0,7.28.84Z" fill="#fccfa9"/><path d="M274.39,1671l16.31,20.57h0a37.66,37.66,0,0,0,52.9,6.14l4.8-3.81c.32-.24.63-.51.94-.76a37.66,37.66,0,0,1-51.85-6.95h0l-16.31-20.57,2,2.48-5.78-7.3a19.32,19.32,0,0,1,3.09-27.1l-6.73,5.33a19.32,19.32,0,0,0-3.15,27.15l5.77,7.3-2-2.48" fill="#fccfa9"/><path d="M272.91,1671.85l16.31,20.57a39.38,39.38,0,0,0,55.33,6.43l4.8-3.8a33.25,33.25,0,0,0,5.42-46.7l-21-26.52-2.91-3.68a21,21,0,0,0-29.55-3.43l-28.76,22.77a21,21,0,0,0-3.43,29.55l5.78,7.3a1.72,1.72,0,0,0,2.69-2.13l-5.78-7.29a17.61,17.61,0,0,1,2.87-24.75l28.75-22.77a17.62,17.62,0,0,1,24.74,2.88l2.91,3.67,21,26.52a29.81,29.81,0,0,1-4.86,41.89l-4.8,3.81a36,36,0,0,1-50.52-5.87l-16.3-20.58a1.72,1.72,0,0,0-2.69,2.13h0" fill="#50030a"/><path d="M338.14,1662.21a5.69,5.69,0,0,0,.92-8l-7.93-10" fill="none" stroke="#50030a" stroke-linecap="round" stroke-miterlimit="10" stroke-width="3.42"/><path d="M319.41,1656.85a5.63,5.63,0,0,1-.45.38,3.48,3.48,0,0,1-4.87-.74L313,1655a3.48,3.48,0,1,1,5.61-4.12l1.08,1.47a3.48,3.48,0,0,1-.3,4.48Z" fill="#50030a"/><path d="M340.75,1640.32a2.67,2.67,0,0,1-.44.38,3.47,3.47,0,0,1-4.86-.78l-1.07-1.48a3.48,3.48,0,0,1,5.65-4.07l1.06,1.47a3.48,3.48,0,0,1-.34,4.48Z" fill="#50030a"/><path d="M302.61,1655.18l11.48-9.1a2.44,2.44,0,1,0-3-3.82l-11.48,9.09a2.44,2.44,0,1,0,3,3.83Z" fill="#50030a"/><path d="M263.72,1664.87a33.07,33.07,0,0,1,5.39-46.45l.1-.07,46.41-36.77,11.9,15a19.17,19.17,0,0,1-3.12,26.92L292.19,1649a12.62,12.62,0,0,0-3.49,15.44l6,12.17a4.82,4.82,0,0,1-6.35,6.49l-10.38-.29L263.8,1665l-.08-.09" fill="#fdd850"/><path d="M263.72,1664.87l1.34-1.07a31.35,31.35,0,0,1,5.11-44l.1-.08,45.07-35.7,10.84,13.68a17.44,17.44,0,0,1-2.85,24.51l-32.2,25.51a14.31,14.31,0,0,0-4,17.54l6,12.16a3.15,3.15,0,0,1,.34,1.39,3.18,3.18,0,0,1-3.1,3.1,3.22,3.22,0,0,1-1.33-.3l-.32-.15-9.93-.28-13.66-17.25-.08-.1-1.34,1.07-1.34,1.06.07.09,14.65,18.5,11.19.32,0-1.71-.72,1.55a6.36,6.36,0,0,0,2.77.62,6.52,6.52,0,0,0,5.84-9.42l-6-12.16a10.92,10.92,0,0,1,3-13.34l32.21-25.51a20.89,20.89,0,0,0,3.4-29.33l-13-16.36L268.14,1617l-.1.08a34.77,34.77,0,0,0-5.66,48.85l1.34-1.06" fill="#50030a"/><path d="M263.6,1664.72l1.34-1.07a31.35,31.35,0,0,1,5.11-44h0l.09-.08h0l45.07-35.71,10.84,13.69a17.44,17.44,0,0,1-2.85,24.51L291,1647.54a14.31,14.31,0,0,0-4,17.54l6,12.16a3,3,0,0,1-.59,3.56,3.08,3.08,0,0,1-2.17.93,3.22,3.22,0,0,1-1.33-.3l-.32-.15-9.93-.28L265,1663.75l-.08-.1-1.34,1.07-1.34,1.06.07.09,14.66,18.5,11.18.32,0-1.71-.71,1.55a6.52,6.52,0,0,0,9.29-5.9,6.67,6.67,0,0,0-.69-2.9l-6-12.16a10.88,10.88,0,0,1,3-13.35l32.2-25.5a20.89,20.89,0,0,0,3.4-29.33l-13-16.36L268,1616.85h0l-.1.08h0a34.77,34.77,0,0,0-5.66,48.85l1.34-1.06" fill="#50030a"/><path d="M293.63,1684.42l.51-.33a1,1,0,0,1-.51.33" fill="#d3947a"/><path d="M290.73,1681.65h-.47a3.22,3.22,0,0,1-1.33-.3l-.32-.15-9.93-.28-6.57-8.3-7-8.8-.08-.09h0a31.36,31.36,0,0,1,4.92-43.89,33.08,33.08,0,0,0,2.12,38.06l14.24,18,1.94,2.2,4.22,2.58-.07.07a3.07,3.07,0,0,1-2.16.93" fill="#d49939"/><path d="M293.09,1684.49a6.36,6.36,0,0,0,1.21-.77,1,1,0,0,1-.16.37l-.51.33a2.21,2.21,0,0,1-.54.07m-21-11.79-7.05-8.9h0l.08.1,7,8.8m-8.51-8h0l1.34-1.07a31.35,31.35,0,0,1,5.11-44h0l.09-.08h0l.15-.13c-.11.17-.21.34-.32.5a31.36,31.36,0,0,0-4.92,43.89h0l0,0-.08-.1-1.34,1.07" fill="#4b040b"/><path d="M293,1684.49a13.73,13.73,0,0,1-4.82-1.52l-10.39-.29-14.23-18,1.34-1.07.08.1,0,0,7.05,8.9,6.57,8.3,9.93.28.32.15a2.23,2.23,0,0,0,1.33.22h0a2.7,2.7,0,0,0,2.16-.85l.07-.07,1.25.76a3.72,3.72,0,0,1,.55,2.23,3.45,3.45,0,0,0-1.21,1.48h-.58m-28.91-20.48h0a33.07,33.07,0,0,1,5.39-46.45l8.49-6.73a33.15,33.15,0,0,0-7.18,7.87l-.15.13h0l-.09.08h0a31.35,31.35,0,0,0-5.11,44l-1.34,1.07" fill="#4b040b"/><path d="M327.39,1635.55l7.34-5.81a2.44,2.44,0,0,0-3-3.83l-7.34,5.82a2.44,2.44,0,1,0,3,3.82Z" fill="#50030a"/><path d="M294.18,1682a9.43,9.43,0,1,0,1.35,9.36" fill="#fccfa9"/><path d="M294.18,1682a9.43,9.43,0,1,0,1.35,9.36" fill="none" stroke="#50030a" stroke-linecap="round" stroke-miterlimit="10" stroke-width="3.42"/><path d="M324.26,1723.29l-3.64-4.57a2.33,2.33,0,0,1,.37-3.28l30-4.46,12.57,15.78a.51.51,0,0,1-.46.83l-38.85-4.3Z" fill="#fff"/><path d="M324.26,1723.29l-3.64-4.57a2.33,2.33,0,0,1,.37-3.28l30-4.46,12.57,15.78a.51.51,0,0,1-.46.83l-38.85-4.3Z" fill="none" stroke="#50030a" stroke-linecap="round" stroke-miterlimit="10" stroke-width="3.42"/><path d="M364.05,1716.2l-2.94,2.35a3.2,3.2,0,0,1-4.49-.51l-3.63-4.56a3.2,3.2,0,0,1,.5-4.49l2.95-2.34a3.18,3.18,0,0,1,4.48.5l3.64,4.56a3.2,3.2,0,0,1-.51,4.49Z" fill="#ea333a"/><path d="M364.05,1716.2l-2.94,2.35a3.2,3.2,0,0,1-4.49-.51l-3.63-4.56a3.2,3.2,0,0,1,.5-4.49l2.95-2.34a3.18,3.18,0,0,1,4.48.5l3.64,4.56a3.2,3.2,0,0,1-.51,4.49Z" fill="none" stroke="#50030a" stroke-linecap="round" stroke-miterlimit="10" stroke-width="3.42"/><path d="M371.41,1718.42l-8.42-17-10-9.18a1.09,1.09,0,0,0-1.42,0l-2.3,1.83,3.86,4.74,18.27,19.65" fill="#fff"/><path d="M371.41,1718.42l-8.42-17-10-9.18a1.09,1.09,0,0,0-1.42,0l-2.3,1.83,3.86,4.74,18.27,19.65" fill="none" stroke="#50030a" stroke-linecap="round" stroke-miterlimit="10" stroke-width="3.42"/><path d="M312,1601.09l14.39-11.4,2.55,3.23a21.07,21.07,0,0,1-3.43,29.59" fill="#fdd850"/><path d="M312,1601.09l14.39-11.4,2.55,3.23a21.07,21.07,0,0,1-3.43,29.59" fill="none" stroke="#50030a" stroke-linecap="round" stroke-miterlimit="10" stroke-width="3.42"/><path d="M350.19,1677.38h0a9.11,9.11,0,0,1-12.8-1.49l14.28-11.31a9.11,9.11,0,0,1-1.48,12.8Z" fill="#fff"/><path d="M350.19,1677.38h0a9.11,9.11,0,0,1-12.8-1.49l14.28-11.31a9.11,9.11,0,0,1-1.48,12.8Z" fill="none" stroke="#50030a" stroke-linecap="round" stroke-miterlimit="10" stroke-width="3.42"/><path d="M351,1752.3l148.73-58.79a15.67,15.67,0,1,0-11.52-29.14L322.6,1729.84" fill="#fff"/><path d="M351,1752.3l148.73-58.79a15.67,15.67,0,1,0-11.52-29.14L322.6,1729.84" fill="none" stroke="#50030a" stroke-linecap="round" stroke-miterlimit="10" stroke-width="3.42"/><path d="M707,1830.94l27.68-64.83a7.95,7.95,0,0,0-13.53-8.06L698,1787.24l-16.41,38.44,18.68,8a5.16,5.16,0,0,0,6.77-2.72Z" fill="#fe8e1b"/><path d="M707,1830.94l27.68-64.83a7.95,7.95,0,0,0-13.53-8.06L698,1787.24l-16.41,38.44,18.68,8a5.16,5.16,0,0,0,6.77-2.72Z" fill="none" stroke="#50030a" stroke-linecap="round" stroke-miterlimit="10" stroke-width="3.42"/><path d="M576.21,2021.52l62.66-32.3a7.95,7.95,0,0,0-5.29-14.84l-36.47,7.71L560,2001.24l9.3,18.06a5.17,5.17,0,0,0,7,2.22Z" fill="#fe8e1b"/><path d="M576.21,2021.52l62.66-32.3a7.95,7.95,0,0,0-5.29-14.84l-36.47,7.71L560,2001.24l9.3,18.06a5.17,5.17,0,0,0,7,2.22Z" fill="none" stroke="#50030a" stroke-linecap="round" stroke-miterlimit="10" stroke-width="3.42"/><path d="M494.5,1662.26l19.24-7.23a14.85,14.85,0,0,1,17.75,5.92l.8.94C535.48,1673,526,1685,515,1688.64l-11.8,3.88-8.73-30.26Z" fill="#feeed6"/><path d="M494.5,1662.26l19.24-7.23a14.85,14.85,0,0,1,17.75,5.92l.8.94C535.48,1673,526,1685,515,1688.64l-11.8,3.88-8.73-30.26Z" fill="none" stroke="#50030a" stroke-linecap="round" stroke-miterlimit="10" stroke-width="3.42"/><path d="M521.2,1663.48l5.48,6.41a4.5,4.5,0,1,0,7.46-5l-6.07-7.67" fill="#feeed6"/><path d="M521.2,1663.48l5.48,6.41a4.5,4.5,0,1,0,7.46-5l-6.07-7.67" fill="none" stroke="#50030a" stroke-miterlimit="10" stroke-width="3.42"/><path d="M532.2,1679.59a4.47,4.47,0,0,0-.73-3.1l-7.25-10.79a4.5,4.5,0,0,0-7.46,5L524,1681.5a4.49,4.49,0,0,0,8.19-1.91Z" fill="#feeed6"/><path d="M532.2,1679.59a4.47,4.47,0,0,0-.73-3.1l-7.25-10.79a4.5,4.5,0,0,0-7.46,5L524,1681.5a4.49,4.49,0,0,0,8.19-1.91Z" fill="none" stroke="#50030a" stroke-linecap="round" stroke-miterlimit="10" stroke-width="3.42"/><path d="M524.61,1684.69a4.41,4.41,0,0,0-.72-3.1l-7.25-10.79a4.5,4.5,0,1,0-7.46,5l7.25,10.78a4.49,4.49,0,0,0,8.18-1.91Z" fill="#feeed6"/><path d="M524.61,1684.69a4.41,4.41,0,0,0-.72-3.1l-7.25-10.79a4.5,4.5,0,1,0-7.46,5l7.25,10.78a4.49,4.49,0,0,0,8.18-1.91Z" fill="none" stroke="#50030a" stroke-linecap="round" stroke-miterlimit="10" stroke-width="3.42"/><path d="M517.14,1689.84a4.47,4.47,0,0,0-.73-3.1L509.16,1676a4.5,4.5,0,0,0-7.46,5l7.25,10.79a4.5,4.5,0,0,0,8.19-1.92Z" fill="#feeed6"/><path d="M517.14,1689.84a4.47,4.47,0,0,0-.73-3.1L509.16,1676a4.5,4.5,0,0,0-7.46,5l7.25,10.79a4.5,4.5,0,0,0,8.19-1.92Z" fill="none" stroke="#50030a" stroke-linecap="round" stroke-miterlimit="10" stroke-width="3.42"/><path d="M809.49,1697.29l-54.75,24.42,79.59-166.92a12.79,12.79,0,0,1,23.06.07l75.32,157.75-29.58-14.4-15.74,21L864.1,1700.4l-26.05,47.46-28.56-50.57Z" fill="#fff"/><path d="M795.79,2338.07a90.58,90.58,0,0,0,90.61,90.62h520.95c52.83,0,97.68-40.42,101.25-93.13A100.1,100.1,0,0,0,1370.92,2236a118.35,118.35,0,0,0-112.65-42.53,157.79,157.79,0,0,0-260.41-21.41c-1.81-.07-3.62-.14-5.43-.14a128.32,128.32,0,0,0-117.3,76.25h0a90.6,90.6,0,0,0-79.32,89.88Z" fill="#e4f2eb"/><path d="M795.79,2338.37a90.08,90.08,0,0,0,8.74,38.86,75.45,75.45,0,0,0,71.13-129.93c-.19.39-.37.8-.55,1.19a90.6,90.6,0,0,0-79.32,89.88Z" fill="#fff"/><path d="M875.11,2248.49s56.42-.93,78.08,69c7.11,22.95,36.51,29.81,52.89,12.24,28.33-30.37,37.06-92.57-8.22-157.37-1.81-.07-3.62-.14-5.43-.14a128.32,128.32,0,0,0-116.77,75.07c-.19.39-.37.8-.55,1.19Z" fill="#fff"/><path d="M997.86,2172.37s90.15,26.06,118.57,136.48c9.43,36.65,52.17,53.62,83.34,32.14,36-24.87,69.2-90,33.27-180.28-.14-.25-.28-.5-.43-.75a157.73,157.73,0,0,0-234.75,12.41Z" fill="#fff"/><path d="M1291.33,2329.24c-6.76,40.88,55.82,49.76,76.68.94,20.07-47,2.91-93.87,2.91-93.87a118.35,118.35,0,0,0-112.65-42.53s44.4,66.82,33.06,135.46Z" fill="#fff"/><path d="M1370.92,2236.31s44.13,33.52,44.13,94.76,89,58.08,89-32.64a100.13,100.13,0,0,0-133.17-62.12Z" fill="#fff"/><path d="M875.11,2249.08c.18-.39.36-.8.55-1.19a128.32,128.32,0,0,1,116.77-75.07c1.81,0,3.62.07,5.43.14a157.89,157.89,0,0,1,260.41,21.41,118.35,118.35,0,0,1,112.65,42.53,100,100,0,0,1,137.68,99.55c-3.57,52.71-48.42,93.13-101.25,93.13H886.4a90.6,90.6,0,0,1-11.29-180.5Z" fill="none" stroke="#6f8c82" stroke-linecap="round" stroke-miterlimit="10" stroke-width="4.44"/><path d="M937.35,1282.9h0a117.72,117.72,0,1,0-183.76,0q2.91,3.63,6.09,7l5.14,5.91a134.41,134.41,0,0,1,30.36,62c1.68,8.53,99,8,100.74-.82a134.35,134.35,0,0,1,30.2-61.22l5.13-5.91q3.18-3.39,6.1-7Z" fill="#fedb68"/><path d="M924.42,1351.43l21.67,38.7m27.27-101.5,46.31,27.91m-25.76-101.69,52.7,1.18M977,1139l42.71-23.48m-96.73-34.67,23.15-38.91m-100.84,21.33v-47.91m-75.69,67.84-24.51-41.26m-27.27,99.14-46.31-25.56m24.92,99.34L644.53,1216m73.25,72.6-46.31,27.91M765.83,1353l-20.78,37.17" fill="none" stroke="#fdd850" stroke-linecap="round" stroke-miterlimit="10" stroke-width="8.87"/><path d="M846.14,1446h0a17.92,17.92,0,0,1-17.75-18.09v-14.17h35.49v14.17A17.92,17.92,0,0,1,846.14,1446Z" fill="#6e998c"/><path d="M846.14,1446h0a17.92,17.92,0,0,1-17.75-18.09v-14.17h35.49v14.17A17.92,17.92,0,0,1,846.14,1446Z" fill="none" stroke="#50030a" stroke-linecap="round" stroke-miterlimit="10" stroke-width="3.55"/><path d="M895.83,1358.86a4.92,4.92,0,0,1-4.78-3.77c-3-2.37-19-6.57-45.85-6.57s-42.84,4.2-45.85,6.57a4.91,4.91,0,0,1-9.68-1.13c0-7.35,10-10.34,18.75-12.12,9.87-2,22.94-3.13,36.78-3.13s26.91,1.11,36.78,3.13c8.73,1.78,18.75,4.77,18.75,12.12a4.9,4.9,0,0,1-4.9,4.9Z" fill="#4c7b71"/><path d="M895.83,1358.86a4.92,4.92,0,0,1-4.78-3.77c-3-2.37-19-6.57-45.85-6.57s-42.84,4.2-45.85,6.57a4.91,4.91,0,0,1-9.68-1.13c0-7.35,10-10.34,18.75-12.12,9.87-2,22.94-3.13,36.78-3.13s26.91,1.11,36.78,3.13c8.73,1.78,18.75,4.77,18.75,12.12a4.9,4.9,0,0,1-4.9,4.9Z" fill="none" stroke="#50030a" stroke-linecap="round" stroke-miterlimit="10" stroke-width="3.55"/><path d="M895.82,1355.15v40c0,1.07,0,2.13-.13,3.19a39.92,39.92,0,0,1-14.78,28,39,39,0,0,1-24.56,8.66H835.92A39.33,39.33,0,0,1,803,1417.2l-.25-.39a39.61,39.61,0,0,1-5-11.45c0-.18-.09-.35-.13-.53a38.46,38.46,0,0,1-1.08-6.9c-.07-.92-.1-1.85-.1-2.78v-40Z" fill="#c3e2d9"/><path d="M895.82,1355.15v40c0,1.07,0,2.13-.13,3.19a39.92,39.92,0,0,1-14.78,28,39,39,0,0,1-24.56,8.66H835.92A39.33,39.33,0,0,1,803,1417.2l-.25-.39a39.61,39.61,0,0,1-5-11.45c0-.18-.09-.35-.13-.53a38.46,38.46,0,0,1-1.08-6.9c-.07-.92-.1-1.85-.1-2.78v-40Z" fill="none" stroke="#50030a" stroke-linecap="round" stroke-miterlimit="10" stroke-width="3.55"/><path d="M894.05,1370.91v12.21c-7.49,4.36-22.88,6.49-46.65,6.49-27.13,0-44.83-2.78-52.72-8.26v-10.1c2.78,3.43,13.19,10.56,52.72,10.56,48.32,0,45.65-9.31,46.65-10.9Z" fill="#9dc2b2"/><path d="M894.05,1386.93v12.21c-7.49,4.36-22.88,6.49-46.65,6.49-27.13,0-44.83-2.77-52.72-8.26v-10.1c2.78,3.43,13.19,10.57,52.72,10.57,48.32,0,45.65-9.32,46.65-10.91Z" fill="#9dc2b2"/><path d="M847.91,1413.54v2.15a5.66,5.66,0,0,1-5.74,5.66c-18.39-.29-32-2-40.7-5a39.39,39.39,0,0,1-5.2-11.94h0c4.44,3.68,16.82,9.18,51.64,9.18Z" fill="#9dc2b2"/><path d="M895.82,1353.69V1366c-7.54,4.39-23,6.53-47,6.53-27.32,0-45.41-1.68-53.36-7.21l.27-11.28c2.8,3.46,13.28,10.64,53.09,10.64,48.66,0,46-9.38,47-11Z" fill="#9dc2b2"/><path d="M894.05,1385.9v10.64c0,1,0,2.06-.13,3.08a36.8,36.8,0,0,1-2.43,10.55,37.54,37.54,0,0,1-3.38,6.66,38.59,38.59,0,0,1-9,9.81,39.87,39.87,0,0,1-24.56,8.36H834.15a39.71,39.71,0,0,1-32.88-17.18,37.61,37.61,0,0,1-5.29-11.43,38.36,38.36,0,0,1-1.21-7.17c-.06-.88-.09-1.78-.09-2.68V1385.9c0,.89,0,1.79.09,2.68a38.64,38.64,0,0,0,1.21,7.17,37.72,37.72,0,0,0,5.29,11.43,39.73,39.73,0,0,0,32.88,17.18h20.43a39.93,39.93,0,0,0,24.56-8.36,38.64,38.64,0,0,0,9-9.82,37.79,37.79,0,0,0,3.38-6.65,36.87,36.87,0,0,0,2.43-10.56c.09-1,.13-2,.13-3.07Z" fill="#9dc2b2"/><path d="M895.82,1355.15v40c0,1.07,0,2.13-.13,3.19a39.92,39.92,0,0,1-14.78,28,39,39,0,0,1-24.56,8.66H835.92a39.71,39.71,0,0,1-39.37-37.07c-.07-.92-.1-1.85-.1-2.78v-40Z" fill="none" stroke="#50030a" stroke-linecap="round" stroke-miterlimit="10" stroke-width="3.55"/><path d="M816,1344.81v18.3c-12.63-2.07-20.82-5.4-20.82-9.15s8.19-7.08,20.82-9.15Z" fill="#a0bfb2"/><path d="M845.58,1342.61c8.11,0,18.4.75,25.21,1.5l-2.64,20a208.36,208.36,0,0,1-22.57,1.17c-7.5,0-14.62-.36-21-1l-4.39-20.13c6.41-.65,17.93-1.57,25.43-1.57Z" fill="#a0bfb2"/><path d="M897.37,1354c0,3.6-7.54,6.81-19.29,8.89v-17.78c11.75,2.07,19.29,5.28,19.29,8.89Z" fill="#a0bfb2"/><path d="M820.09,1344l4.45,20.29c-3.25-.33-6.31-.73-9.15-1.2l-4.13-17.55c2.56-.48,5.58-1.21,8.83-1.54Z" fill="#6e998c"/><path d="M879.86,1345.55l-2.56,17.3c-2.82.5-5.89.94-9.15,1.29l2.77-20.14c3.26.35,6.11,1,8.94,1.55Z" fill="#6e998c"/><path d="M821.93,1364.14l-19.58-98.45a14.63,14.63,0,0,1,8.51-16.43,14.79,14.79,0,0,1,20.24,16,4.37,4.37,0,0,1-7.6,2.21,14.79,14.79,0,0,1,13.13-24.26,14.36,14.36,0,0,1,11.71,20.07,4.37,4.37,0,0,1-8.11-.25,14.79,14.79,0,1,1,25.74,3.66,4.42,4.42,0,0,1-7.88-1.67A14.76,14.76,0,0,1,882,1250.49a14.55,14.55,0,0,1,4.88,13.56l-15.34,93.74" fill="none" stroke="#fff" stroke-linecap="round" stroke-miterlimit="10" stroke-width="5.32"/><path d="M848.43,1403.94c-30.2,0-48.8-3.42-55.28-10.17a7.32,7.32,0,0,1-2.39-5.25,3.92,3.92,0,0,1,4.08-3.76c1.94,3.07,10.92,11.33,53.59,11.33,51.41,0,45.5-10.48,47.18-11.18a3.87,3.87,0,0,1,4.57,1.94,6.79,6.79,0,0,1-.46,6.61c-4.27,7-21,10.48-51.29,10.48Z" fill="#e7f6f0"/><path d="M848.43,1403.94c-30.2,0-48.8-3.42-55.28-10.17a7.32,7.32,0,0,1-2.39-5.25,3.92,3.92,0,0,1,4.08-3.76c1.94,3.07,10.92,11.33,53.59,11.33,51.41,0,45.5-10.48,47.18-11.18a3.87,3.87,0,0,1,4.57,1.94,6.79,6.79,0,0,1-.46,6.61c-4.27,7-21,10.48-51.29,10.48Z" fill="none" stroke="#50030a" stroke-linecap="round" stroke-miterlimit="10" stroke-width="3.55"/><path d="M849,1415.48a3.92,3.92,0,0,1-4,3.92c-27.88-.29-45.13-3.7-51.32-10.14a7.35,7.35,0,0,1-2.39-5.26,3.93,3.93,0,0,1,4.08-3.76c1.88,3,10.36,10.83,49.7,11.31a3.93,3.93,0,0,1,3.89,3.93Z" fill="#e7f6f0"/><path d="M849,1415.48a3.92,3.92,0,0,1-4,3.92c-27.88-.29-45.13-3.7-51.32-10.14a7.35,7.35,0,0,1-2.39-5.26,3.93,3.93,0,0,1,4.08-3.76c1.88,3,10.36,10.83,49.7,11.31a3.93,3.93,0,0,1,3.89,3.93Z" fill="none" stroke="#50030a" stroke-linecap="round" stroke-miterlimit="10" stroke-width="3.55"/><path d="M848.53,1388.19c-30.21,0-48.81-3.41-55.28-10.16a7.34,7.34,0,0,1-2.39-5.26,3.93,3.93,0,0,1,4.08-3.76c1.94,3.08,10.92,11.34,53.59,11.34,51.41,0,45.5-10.48,47.18-11.18a3.87,3.87,0,0,1,4.57,1.94,6.79,6.79,0,0,1-.46,6.61c-4.27,7-21.05,10.47-51.29,10.47Z" fill="#e7f6f0"/><path d="M848.53,1388.19c-30.21,0-48.81-3.41-55.28-10.16a7.34,7.34,0,0,1-2.39-5.26,3.93,3.93,0,0,1,4.08-3.76c1.94,3.08,10.92,11.34,53.59,11.34,51.41,0,45.5-10.48,47.18-11.18a3.87,3.87,0,0,1,4.57,1.94,6.79,6.79,0,0,1-.46,6.61c-4.27,7-21.05,10.47-51.29,10.47Z" fill="none" stroke="#50030a" stroke-linecap="round" stroke-miterlimit="10" stroke-width="3.55"/><path d="M845.2,1369.21c-13.84,0-26.91-1.11-36.78-3.13-8.73-1.79-19.44-4.78-19.44-12.12,0-2.71,2.15-5.61,4.27-5.81a13.76,13.76,0,0,0,6.2,4.91c3.72,1.84,18.89,6.34,45.75,6.34s42.62-4.41,45.94-6.34a24.89,24.89,0,0,0,7.28-5.45c2.35,1.58,3.38,3,3.38,5.66,0,7.34-11.09,11-19.82,12.81-9.87,2-22.94,3.13-36.78,3.13Z" fill="#6e998c"/><path d="M845.2,1369.21c-13.84,0-26.91-1.11-36.78-3.13-8.73-1.79-19.44-4.78-19.44-12.12,0-2.71,2.15-5.61,4.27-5.81a13.76,13.76,0,0,0,6.2,4.91c3.72,1.84,18.89,6.34,45.75,6.34s42.62-4.41,45.94-6.34a24.89,24.89,0,0,0,7.28-5.45c2.35,1.58,3.38,3,3.38,5.66,0,7.34-11.09,11-19.82,12.81-9.87,2-22.94,3.13-36.78,3.13Z" fill="none" stroke="#50030a" stroke-linecap="round" stroke-miterlimit="10" stroke-width="3.55"/><path d="M824.54,1129.61a72.42,72.42,0,0,1,11.85-1m-71.88,71.88a71.84,71.84,0,0,1,34-61.09" fill="none" stroke="#fff" stroke-linecap="round" stroke-miterlimit="10" stroke-width="14.2"/><path d="M898.42,1347.61a134.38,134.38,0,0,1,28-52.06l5.14-5.91q3.18-3.39,6.09-7a117.72,117.72,0,1,0-183.76,0q2.91,3.63,6.1,7l5.13,5.91A134.42,134.42,0,0,1,793.2,1348" fill="none" stroke="#50030a" stroke-linecap="round" stroke-miterlimit="10" stroke-width="3.55"/><text transform="translate(183.08 245.87)" font-size="185" fill="#70b24a" font-family="CambriaMath, Cambria Math">5 <tspan x="143.18" y="0" letter-spacing="-0.04em">W</tspan><tspan x="305.5" y="0" letter-spacing="-0.02em">a</tspan><tspan x="392.22" y="0" letter-spacing="-0.01em">y</tspan><tspan x="483.46" y="0">s </tspan><tspan x="603.69" y="0" letter-spacing="-0.01em">t</tspan><tspan x="664.66" y="0">o Ma</tspan><tspan x="1044.78" y="0" letter-spacing="-0.02em">k</tspan><tspan x="1138.64" y="0">e </tspan><tspan x="-70.82" y="250">Ent</tspan><tspan x="201.44" y="250" letter-spacing="-0.01em">r</tspan><tspan x="275.24" y="250">ep</tspan><tspan x="468.37" y="250" letter-spacing="-0.01em">r</tspan><tspan x="542.17" y="250">enuership</tspan><tspan x="361.19" y="500">Easier!</tspan></text></svg>