<svg id="Layer_1" data-name="Layer 1" xmlns="http://www.w3.org/2000/svg" viewBox="0 0 1600 2560.5"><title>6_ways_to_keep_your_mind_healthy</title><rect width="1600" height="2560" fill="#ffb554"/><path d="M1240.21,2178.1c52,0,99-42.35,102.14-94.27A100.5,100.5,0,0,0,1242,1977.1c-.71,0-1.36.19-2.06.21a101.53,101.53,0,0,0,1.63-29.74c-4.29-46.61-41-84.42-87.47-90.27-27.68-3.49-53,4.73-73,19.8,0-.17,0-.33,0-.5A100.38,100.38,0,0,0,898.58,1819a100.22,100.22,0,0,0-197.48,0,100.38,100.38,0,0,0-182.66,57.62c0,.17,0,.33,0,.5-19.91-15.07-45.27-23.29-72.95-19.8-46.43,5.85-83.18,43.66-87.47,90.27a101.53,101.53,0,0,0,1.63,29.74c-.7,0-1.35-.21-2.06-.21a100.5,100.5,0,0,0-100.31,106.73c3.13,51.92,50.12,94.27,102.13,94.27Z" transform="translate(0 0.5)" fill="#ffb554"/><path d="M217.1,1414.3h80.4v201H217.1Z" transform="translate(0 0.5)" fill="#ea5b58"/><path d="M297.5,1374.1H398v281.4H297.5Z" transform="translate(0 0.5)" fill="#ea5b58"/><path d="M1382.9,1615.3h-80.4v-201h80.4Z" transform="translate(0 0.5)" fill="#ea5b58"/><path d="M1302.5,1655.5H1202V1374.1h100.5Z" transform="translate(0 0.5)" fill="#ea5b58"/><path d="M398,1474.6h804V1555H398Z" transform="translate(0 0.5)" fill="#5dc4dd"/><path d="M1081.4,2539.9H840.2V2419.3H960.8A120.7,120.7,0,0,1,1081.4,2539.9Z" transform="translate(0 0.5)" fill="#ea5b58"/><path d="M759.8,2419.3v120.6H518.6a120.7,120.7,0,0,1,120.6-120.6Z" transform="translate(0 0.5)" fill="#ea5b58"/><path d="M840.2,2178.1H940.7v241.2H840.2Z" transform="translate(0 0.5)" fill="#5dc4dd"/><path d="M659.3,2178.1H759.8v241.2H659.3Z" transform="translate(0 0.5)" fill="#5dc4dd"/><path d="M1382.9,1394.2h-60.3v-20.1a20.1,20.1,0,0,0-20.1-20.1H1202a20.1,20.1,0,0,0-20.1,20.1v80.4H418.1v-80.4A20.1,20.1,0,0,0,398,1354H297.5a20.1,20.1,0,0,0-20.1,20.1v20.1H217.1a20.1,20.1,0,0,0-20.1,20.1v201a20.1,20.1,0,0,0,20.1,20.1h60.3v20.1a20.1,20.1,0,0,0,20.1,20.1H398a20.1,20.1,0,0,0,20.1-20.1v-80.4h40.2v261.3A120.74,120.74,0,0,0,337.7,1957c0,.55,0,1.12,0,1.67a120.79,120.79,0,0,0-100.14,128.65c5,63,58.83,110.88,122,110.88H639.2v201c-77.56,0-140.67,63.1-140.7,140.65A20.12,20.12,0,0,0,518.6,2560H759.8a20.1,20.1,0,0,0,20.1-20.1V2198.2h40.2v341.7a20.1,20.1,0,0,0,20.1,20.1h241.2a20.12,20.12,0,0,0,20.1-20.15c0-77.55-63.14-140.65-140.7-140.65v-201h279.63c63.16,0,117-47.91,122-110.88a120.79,120.79,0,0,0-100.14-128.65c0-.55,0-1.12,0-1.67a120.74,120.74,0,0,0-120.6-120.6V1575.1h40.2v80.4a20.1,20.1,0,0,0,20.1,20.1h100.5a20.1,20.1,0,0,0,20.1-20.1v-20.1h60.3a20.1,20.1,0,0,0,20.1-20.1v-201A20.1,20.1,0,0,0,1382.9,1394.2Zm-1145.7,201V1434.4h40.2v160.8Zm140.7,40.2H317.6V1394.2h60.3v241.2Zm162.82,884.4a100.69,100.69,0,0,1,98.48-80.4H739.7v80.4Zm199-120.6H679.4v-201h60.3Zm319.58,120.6h-199v-80.4H960.8A100.69,100.69,0,0,1,1059.28,2519.8ZM920.6,2399.2H860.3v-201h60.3ZM1221.94,1957a80.14,80.14,0,0,1-1.65,16.25,20.09,20.09,0,0,0,4.28,17,20.81,20.81,0,0,0,16,7.19c.86,0,1.69-.1,2.53-.22,61,.79,105.85,69.81,61.5,134.08-11.69,16.93-31.25,26.72-51.83,26.72H347a62.84,62.84,0,0,1-51.79-26.68c-44.45-64.26.46-133.41,61.51-134.12.86.1,1.9.2,2.47.22a20.54,20.54,0,0,0,16-7.19,20.12,20.12,0,0,0,4.28-17,80,80,0,0,1,127-80.12,20.14,20.14,0,0,0,32.15-17.32,80.28,80.28,0,0,1,146.1-45.28,20.11,20.11,0,0,0,36.25-8.09,80.13,80.13,0,0,1,157.9,0,20.11,20.11,0,0,0,36.25,8.09,80.47,80.47,0,0,1,65.7-34.33c44.34,0,80.4,36.06,80.5,78.4a20.09,20.09,0,0,0,32,18.53,79.59,79.59,0,0,1,48.25-16.53,80.48,80.48,0,0,1,80.4,80.4ZM1101.5,1843.81c-1.37.5-2.83.7-4.18,1.25a120.4,120.4,0,0,0-190.17-63.7,120.34,120.34,0,0,0-214.3,0,120.4,120.4,0,0,0-190.17,63.7c-1.35-.55-2.81-.75-4.18-1.25V1575.1h603ZM418.1,1534.9v-40.2h763.8v40.2Zm864.3,100.5h-60.3V1394.2h60.3v241.2Zm80.4-40.2h-40.2V1434.4h40.2Z" transform="translate(0 0.5)" fill="#1e191a"/><circle cx="709.39" cy="1946.38" r="30.15" fill="#1e191a"/><circle cx="890.29" cy="1946.38" r="30.15" fill="#1e191a"/><path d="M713.3,2042l-27.92,28.94c31.57,30.44,73,45.67,114.46,45.67s82.89-15.23,114.46-45.67L886.38,2042C838.65,2088,761,2088,713.3,2042Z" transform="translate(0 0.5)" fill="#1e191a"/><path d="M405.73,399.19a57.23,57.23,0,0,1-3.22,19.5,43.11,43.11,0,0,1-9.46,15.47,43.68,43.68,0,0,1-15.36,10.2,55.62,55.62,0,0,1-21.05,3.71,57.8,57.8,0,0,1-16.87-2.21,37.83,37.83,0,0,1-12.46-6.33,33.67,33.67,0,0,1-8.59-10,57.44,57.44,0,0,1-5.32-13.32,93.52,93.52,0,0,1-2.74-16.11q-.75-8.7-.75-18.48,0-8.16.81-17.08A102.43,102.43,0,0,1,313.83,347a76.31,76.31,0,0,1,6.5-16.38,48.14,48.14,0,0,1,26.8-22.93q9.4-3.44,22.29-3.44a71.32,71.32,0,0,1,8.22.48c2.76.32,5.32.74,7.68,1.24a38.35,38.35,0,0,1,6,1.72,12.55,12.55,0,0,1,3.27,1.66,5.18,5.18,0,0,1,1.24,1.56,10.17,10.17,0,0,1,.7,1.88,14.78,14.78,0,0,1,.37,2.52c.07,1,.11,2.22.11,3.66,0,2.22,0,4.06-.16,5.53a14.53,14.53,0,0,1-.59,3.44,3.56,3.56,0,0,1-1.18,1.77,3.09,3.09,0,0,1-1.83.53,10.93,10.93,0,0,1-3.33-.69q-2-.7-4.94-1.56a54.58,54.58,0,0,0-15.9-2.15q-8.7,0-14.72,3.22a27,27,0,0,0-9.77,8.76,38,38,0,0,0-5.48,12.83,71.24,71.24,0,0,0-1.83,15.47,57.57,57.57,0,0,1,5.43-3,41.55,41.55,0,0,1,6.66-2.58,62.17,62.17,0,0,1,7.79-1.77,53.65,53.65,0,0,1,8.91-.7,50,50,0,0,1,18.05,2.9,31.13,31.13,0,0,1,12.3,8.27,33.54,33.54,0,0,1,7,13A59.47,59.47,0,0,1,405.73,399.19ZM378,401.88a42.82,42.82,0,0,0-1-9.62,18.34,18.34,0,0,0-3.12-7,13.26,13.26,0,0,0-5.69-4.3,22.63,22.63,0,0,0-8.59-1.45,32.16,32.16,0,0,0-5.91.54,40.18,40.18,0,0,0-5.7,1.5,41.35,41.35,0,0,0-5.37,2.31,54.38,54.38,0,0,0-4.83,2.85,118.71,118.71,0,0,0,1.29,19.17,38.43,38.43,0,0,0,3.81,12.2,15,15,0,0,0,6.34,6.39,19.85,19.85,0,0,0,8.86,1.88,19.3,19.3,0,0,0,8.65-1.83,16.85,16.85,0,0,0,6.18-5.16,24.27,24.27,0,0,0,3.76-7.78A34.89,34.89,0,0,0,378,401.88Z" transform="translate(0 0.5)"/><path d="M634.58,438.4a11.91,11.91,0,0,1-1.77,4.13,6.9,6.9,0,0,1-3.38,2.37,23.14,23.14,0,0,1-5.8,1.07q-3.55.27-9,.27-6.12,0-9.83-.27a22,22,0,0,1-5.85-1.07,6,6,0,0,1-3.12-2.37,12.88,12.88,0,0,1-1.5-4.13l-22.24-88.09h-.21L550.79,438.4a13,13,0,0,1-1.5,4,6.25,6.25,0,0,1-3.06,2.41,19,19,0,0,1-5.7,1.13q-3.6.27-9.5.27-6.24,0-9.94-.27a22,22,0,0,1-5.85-1.07,6,6,0,0,1-3.12-2.37,14.63,14.63,0,0,1-1.61-4.13L478.93,317.12a33,33,0,0,1-1.08-6.07,4,4,0,0,1,1.24-3.38,7.64,7.64,0,0,1,4.4-1.45q3.06-.27,8.54-.27,5.06,0,8,.16a15.32,15.32,0,0,1,4.45.75,3.55,3.55,0,0,1,2.05,1.72,12.11,12.11,0,0,1,.85,3.17L531.78,418.2h.11l25.35-105.7a12.07,12.07,0,0,1,1.13-3.33,4.55,4.55,0,0,1,2.36-2,16.19,16.19,0,0,1,4.56-1Q568.2,306,573,306q5.16,0,8.22.21a15.49,15.49,0,0,1,4.72.92,4.8,4.8,0,0,1,2.42,2,11.19,11.19,0,0,1,1.18,3.44l26.21,105.7H616l24.38-106.13a14,14,0,0,1,.86-2.95,3.88,3.88,0,0,1,2-1.94,14,14,0,0,1,4.3-1q2.79-.27,7.84-.27,4.73,0,7.36.27a6.16,6.16,0,0,1,3.81,1.45,4.27,4.27,0,0,1,1,3.49,39.56,39.56,0,0,1-1.12,6.28Z" transform="translate(0 0.5)"/><path d="M765.23,442.27a2.85,2.85,0,0,1-1.08,2.36,7.35,7.35,0,0,1-3.38,1.23,45.8,45.8,0,0,1-6.82.38,46.6,46.6,0,0,1-7-.38,6.05,6.05,0,0,1-3.11-1.23,3.08,3.08,0,0,1-.92-2.36v-7.63a43.3,43.3,0,0,1-13.48,9.88,39.21,39.21,0,0,1-16.81,3.55,47.22,47.22,0,0,1-14-2,31.5,31.5,0,0,1-11.06-5.91,26.48,26.48,0,0,1-7.25-9.72,33.07,33.07,0,0,1-2.58-13.54A30.57,30.57,0,0,1,681,402.36a26.65,26.65,0,0,1,9.77-10.21,48.77,48.77,0,0,1,16.17-6,115.43,115.43,0,0,1,22.45-1.93h9.35v-5.8a30.45,30.45,0,0,0-.92-7.9,13.21,13.21,0,0,0-3-5.64,12.47,12.47,0,0,0-5.58-3.33,30,30,0,0,0-8.65-1.07,44.51,44.51,0,0,0-12.08,1.5,69.66,69.66,0,0,0-9.4,3.33q-4.09,1.83-6.82,3.33a10,10,0,0,1-4.46,1.51,3.18,3.18,0,0,1-2.1-.76,5.39,5.39,0,0,1-1.5-2.14,14.34,14.34,0,0,1-.91-3.44,28.41,28.41,0,0,1-.33-4.51,20.42,20.42,0,0,1,.54-5.27,8.15,8.15,0,0,1,2-3.49,20.16,20.16,0,0,1,5.27-3.44,62.76,62.76,0,0,1,8.8-3.49,82.35,82.35,0,0,1,11-2.63,72.92,72.92,0,0,1,12.3-1,73.89,73.89,0,0,1,19.29,2.2A32.64,32.64,0,0,1,755.35,349a26.42,26.42,0,0,1,7.52,11.76,55.14,55.14,0,0,1,2.36,17.08Zm-26.53-41H728.38a55,55,0,0,0-11.17,1,21.36,21.36,0,0,0-7.52,2.9,11.9,11.9,0,0,0-4.24,4.67,14,14,0,0,0-1.34,6.28q0,6,3.81,9.46T718.5,429A19.75,19.75,0,0,0,729,426a43.49,43.49,0,0,0,9.73-8.48Z" transform="translate(0 0.5)"/><path d="M849.25,445.6l-11.6,33.94c-.64,1.79-2.4,3.08-5.26,3.87a50.44,50.44,0,0,1-12.57,1.18,49.69,49.69,0,0,1-6.87-.38,9.66,9.66,0,0,1-3.87-1.23,2.84,2.84,0,0,1-1.4-2.15,6.86,6.86,0,0,1,.65-3.12l12.78-32.11a7.48,7.48,0,0,1-2.53-2,9.31,9.31,0,0,1-1.66-2.85l-33-88.08a18.32,18.32,0,0,1-1.4-5.75,3.94,3.94,0,0,1,1.29-3.12,8.44,8.44,0,0,1,4.35-1.55,60.45,60.45,0,0,1,8.11-.43q4.62,0,7.31.16a12.73,12.73,0,0,1,4.19.8,4.58,4.58,0,0,1,2.25,2,20.26,20.26,0,0,1,1.51,3.81l22.56,64.13h.32l20.62-65.42a7.28,7.28,0,0,1,1.67-3.7,6.92,6.92,0,0,1,3.38-1.34,53.21,53.21,0,0,1,8.28-.43,56.43,56.43,0,0,1,7.68.43,9.11,9.11,0,0,1,4.51,1.61A3.89,3.89,0,0,1,882,347a15.77,15.77,0,0,1-.86,4.67Z" transform="translate(0 0.5)"/><path d="M969.48,414.87a32.25,32.25,0,0,1-3.06,14.4,28.77,28.77,0,0,1-8.65,10.42A38.89,38.89,0,0,1,944.56,446a65.88,65.88,0,0,1-26.8,1.29,63.09,63.09,0,0,1-8.76-2,46.43,46.43,0,0,1-6.44-2.52,15.77,15.77,0,0,1-3.76-2.42,7.49,7.49,0,0,1-1.83-3.55,29.65,29.65,0,0,1-.64-7.14,47.22,47.22,0,0,1,.21-5,12.33,12.33,0,0,1,.65-3,2.77,2.77,0,0,1,1.07-1.51,3.17,3.17,0,0,1,1.61-.37,8.06,8.06,0,0,1,3.49,1.34q2.31,1.35,5.75,2.95a60.09,60.09,0,0,0,8,3,35.5,35.5,0,0,0,10.37,1.4,25.63,25.63,0,0,0,6.5-.75,16.49,16.49,0,0,0,4.94-2.15,9.07,9.07,0,0,0,3.17-3.55,11,11,0,0,0,1.07-4.94,8.17,8.17,0,0,0-2-5.53,17.69,17.69,0,0,0-5.26-4,61.15,61.15,0,0,0-7.41-3.22q-4.14-1.5-8.49-3.33a78.5,78.5,0,0,1-8.48-4.19,32.65,32.65,0,0,1-7.42-5.8,26.36,26.36,0,0,1-5.26-8.27,30.41,30.41,0,0,1-2-11.61,29.45,29.45,0,0,1,2.69-12.62,27.59,27.59,0,0,1,7.73-9.83,36.66,36.66,0,0,1,12.3-6.33A54.52,54.52,0,0,1,935.86,340a58.12,58.12,0,0,1,8.75.64,62.78,62.78,0,0,1,7.68,1.62,36.3,36.3,0,0,1,5.8,2.09,19.43,19.43,0,0,1,3.39,1.93,5.43,5.43,0,0,1,1.45,1.62,6.83,6.83,0,0,1,.64,1.93c.14.75.27,1.68.38,2.79s.16,2.49.16,4.14c0,1.93-.05,3.51-.16,4.72a12.42,12.42,0,0,1-.54,2.9,2.55,2.55,0,0,1-1,1.45,2.84,2.84,0,0,1-1.5.38,7.35,7.35,0,0,1-3-1.13,55.11,55.11,0,0,0-5.1-2.41,60,60,0,0,0-7.09-2.42,34.25,34.25,0,0,0-9.19-1.13,23.76,23.76,0,0,0-6.34.75,12.14,12.14,0,0,0-4.4,2.15,9,9,0,0,0-2.58,3.28,9.59,9.59,0,0,0-.86,4,8,8,0,0,0,2,5.58,18.68,18.68,0,0,0,5.37,4,61.48,61.48,0,0,0,7.58,3.22q4.25,1.5,8.59,3.28a79.52,79.52,0,0,1,8.6,4.13,32.82,32.82,0,0,1,7.57,5.8,26.84,26.84,0,0,1,5.37,8.22A28.77,28.77,0,0,1,969.48,414.87Z" transform="translate(0 0.5)"/><path d="M1107.24,432.49a34.06,34.06,0,0,1-.59,7.25,8,8,0,0,1-1.56,3.55,8.29,8.29,0,0,1-2.85,1.82,26.89,26.89,0,0,1-4.4,1.4,45.69,45.69,0,0,1-5.48.91,53.7,53.7,0,0,1-6,.32,42.91,42.91,0,0,1-14-2,23.16,23.16,0,0,1-9.77-6.28,26.17,26.17,0,0,1-5.7-10.69,56.66,56.66,0,0,1-1.82-15.25v-49.1h-11.5c-1.36,0-2.4-.84-3.11-2.52s-1.07-4.49-1.07-8.43a43.6,43.6,0,0,1,.26-5.27,12.58,12.58,0,0,1,.81-3.38,4,4,0,0,1,1.34-1.77,3.32,3.32,0,0,1,1.88-.54h11.39V321.09a3.29,3.29,0,0,1,.59-1.93,4.4,4.4,0,0,1,2.15-1.45,17.23,17.23,0,0,1,4.19-.86q2.63-.27,6.5-.27c2.64,0,4.85.09,6.6.27a16.46,16.46,0,0,1,4.14.86,4.82,4.82,0,0,1,2.15,1.45,3.13,3.13,0,0,1,.64,1.93v21.38h20.84a3.29,3.29,0,0,1,1.88.54,4,4,0,0,1,1.34,1.77,12.58,12.58,0,0,1,.81,3.38,43.37,43.37,0,0,1,.27,5.27q0,5.91-1.08,8.43c-.71,1.68-1.75,2.52-3.11,2.52h-21v45q0,7.85,2.47,11.77t8.81,3.92a18.26,18.26,0,0,0,3.87-.38,23.69,23.69,0,0,0,3.06-.86c.89-.32,1.65-.6,2.26-.86a4.36,4.36,0,0,1,1.66-.37,2.29,2.29,0,0,1,1.24.37,2.63,2.63,0,0,1,.91,1.51,24.22,24.22,0,0,1,.59,3.06A37,37,0,0,1,1107.24,432.49Z" transform="translate(0 0.5)"/><path d="M1227,393.07a73.15,73.15,0,0,1-3.23,22.34,47.29,47.29,0,0,1-9.77,17.4,43.49,43.49,0,0,1-16.44,11.28,61.64,61.64,0,0,1-23.09,4,63.31,63.31,0,0,1-22.24-3.55,40,40,0,0,1-15.68-10.31,42.21,42.21,0,0,1-9.24-16.65,77.36,77.36,0,0,1-3-22.56,72.49,72.49,0,0,1,3.28-22.4,47,47,0,0,1,9.83-17.4A43.88,43.88,0,0,1,1153.83,344q9.83-4,23-4a64.66,64.66,0,0,1,22.34,3.49,39.14,39.14,0,0,1,15.63,10.26A42.76,42.76,0,0,1,1224,370.4,78.09,78.09,0,0,1,1227,393.07Zm-27.83,1.07a69.56,69.56,0,0,0-1.13-13.05,30.68,30.68,0,0,0-3.81-10.37,19.13,19.13,0,0,0-7.14-6.87,22.93,22.93,0,0,0-11.23-2.47,23.65,23.65,0,0,0-10.52,2.2A19,19,0,0,0,1158,370a31,31,0,0,0-4.35,10.21,58,58,0,0,0-1.45,13.59,67.05,67.05,0,0,0,1.18,13.05,32.33,32.33,0,0,0,3.82,10.37,18.15,18.15,0,0,0,7.14,6.82,23.45,23.45,0,0,0,11.17,2.41,24,24,0,0,0,10.64-2.2,19,19,0,0,0,7.41-6.39,29.72,29.72,0,0,0,4.3-10.15A59.93,59.93,0,0,0,1199.21,394.14Z" transform="translate(0 0.5)"/><path d="M401.54,705.41a3.78,3.78,0,0,1-.59,2.09,4.26,4.26,0,0,1-2.26,1.5,21,21,0,0,1-4.56.92,69.58,69.58,0,0,1-7.31.32,65,65,0,0,1-10-.54,9.77,9.77,0,0,1-4.4-1.61,7.48,7.48,0,0,1-2.1-2.58l-42-66v66a3.29,3.29,0,0,1-.65,2,4.69,4.69,0,0,1-2.25,1.45,19.67,19.67,0,0,1-4.3.92,73.37,73.37,0,0,1-13.69,0A19.55,19.55,0,0,1,303,709a5.08,5.08,0,0,1-2.31-1.45,3.1,3.1,0,0,1-.7-2V574.57a3.1,3.1,0,0,1,.7-2,4.81,4.81,0,0,1,2.31-1.4,22,22,0,0,1,4.35-.86,73.37,73.37,0,0,1,13.69,0,22.15,22.15,0,0,1,4.3.86,4.45,4.45,0,0,1,2.25,1.4,3.29,3.29,0,0,1,.65,2v59.19L369,574.67a7.86,7.86,0,0,1,1.83-2.31,8,8,0,0,1,2.79-1.45,21.62,21.62,0,0,1,4.41-.75c1.78-.14,4.08-.21,6.87-.21a62.75,62.75,0,0,1,7.09.32,21,21,0,0,1,4.46.91,4.92,4.92,0,0,1,2.31,1.45,3.16,3.16,0,0,1,.64,1.94,8.43,8.43,0,0,1-1,3.76q-1,1.93-3.66,6.12L356.64,634.4l41.57,62.84a48.47,48.47,0,0,1,2.85,5.86A7.76,7.76,0,0,1,401.54,705.41Z" transform="translate(0 0.5)"/><path d="M508.77,655.24c0,3.3-.74,5.73-2.2,7.3a7.88,7.88,0,0,1-6.07,2.37H442.17A39.72,39.72,0,0,0,443.62,676a21,21,0,0,0,4.62,8.48,20.1,20.1,0,0,0,8.16,5.32,34.89,34.89,0,0,0,12,1.83,67.38,67.38,0,0,0,12.46-1,83.05,83.05,0,0,0,9.29-2.26c2.62-.82,4.78-1.57,6.5-2.26a12.09,12.09,0,0,1,4.19-1,3.17,3.17,0,0,1,1.61.38,2.83,2.83,0,0,1,1.08,1.34,9.32,9.32,0,0,1,.59,2.74c.1,1.18.16,2.67.16,4.46,0,1.58,0,2.92-.11,4a25.4,25.4,0,0,1-.32,2.84,6.94,6.94,0,0,1-.65,2,7.28,7.28,0,0,1-1.12,1.56,13.2,13.2,0,0,1-3.82,2,59.62,59.62,0,0,1-7.95,2.52,107.27,107.27,0,0,1-11.06,2.15,91.87,91.87,0,0,1-13.32.92,70.45,70.45,0,0,1-22.4-3.23,39.78,39.78,0,0,1-16.06-9.77,40.59,40.59,0,0,1-9.61-16.54,77.47,77.47,0,0,1-3.17-23.42,74.43,74.43,0,0,1,3.33-23,48.33,48.33,0,0,1,9.67-17.41,41.58,41.58,0,0,1,15.41-10.9A53,53,0,0,1,463.54,604q12,0,20.58,3.54a37.16,37.16,0,0,1,14,9.83,39.58,39.58,0,0,1,8.06,14.88,64.75,64.75,0,0,1,2.58,18.69Zm-26.21-7.73q.31-11.38-4.57-17.89t-15.09-6.5a19.7,19.7,0,0,0-9,1.93,18.43,18.43,0,0,0-6.34,5.21,23.81,23.81,0,0,0-3.86,7.74,38.13,38.13,0,0,0-1.56,9.51Z" transform="translate(0 0.5)"/><path d="M625,655.24q0,4.95-2.2,7.3a7.88,7.88,0,0,1-6.07,2.37H558.42A39.72,39.72,0,0,0,559.87,676a21.21,21.21,0,0,0,4.62,8.48,20.1,20.1,0,0,0,8.16,5.32,34.89,34.89,0,0,0,12,1.83,67.38,67.38,0,0,0,12.46-1,83.05,83.05,0,0,0,9.29-2.26c2.62-.82,4.78-1.57,6.5-2.26a12.09,12.09,0,0,1,4.19-1,3.14,3.14,0,0,1,1.61.38,2.83,2.83,0,0,1,1.08,1.34,9.32,9.32,0,0,1,.59,2.74c.11,1.18.16,2.67.16,4.46,0,1.58,0,2.92-.11,4a25.4,25.4,0,0,1-.32,2.84,7,7,0,0,1-.64,2,7.7,7.7,0,0,1-1.13,1.56,13.2,13.2,0,0,1-3.82,2,59.15,59.15,0,0,1-8,2.52,107.27,107.27,0,0,1-11.06,2.15,91.67,91.67,0,0,1-13.32.92,70.5,70.5,0,0,1-22.4-3.23,39.78,39.78,0,0,1-16.06-9.77,40.71,40.71,0,0,1-9.61-16.54,77.78,77.78,0,0,1-3.17-23.42,74.43,74.43,0,0,1,3.33-23,48.33,48.33,0,0,1,9.67-17.41,41.58,41.58,0,0,1,15.41-10.9A53,53,0,0,1,579.8,604q12,0,20.57,3.54a37.27,37.27,0,0,1,14,9.83,39.7,39.7,0,0,1,8.05,14.88A64.75,64.75,0,0,1,625,650.94Zm-26.21-7.73q.33-11.38-4.56-17.89t-15.1-6.5a19.7,19.7,0,0,0-9,1.93,18.52,18.52,0,0,0-6.34,5.21A23.81,23.81,0,0,0,560,638a38.13,38.13,0,0,0-1.56,9.51Z" transform="translate(0 0.5)"/><path d="M749.22,656.64a89.21,89.21,0,0,1-2.74,23,51.73,51.73,0,0,1-8,17.45,35.55,35.55,0,0,1-13.1,11.07,40,40,0,0,1-17.94,3.87,34.05,34.05,0,0,1-7.69-.81,29.7,29.7,0,0,1-6.76-2.47,41.57,41.57,0,0,1-6.5-4.14,75.2,75.2,0,0,1-6.66-5.8V744a3.12,3.12,0,0,1-.65,1.93,4.71,4.71,0,0,1-2.2,1.45,18.41,18.41,0,0,1-4.13.92,67.3,67.3,0,0,1-13.11,0,18.38,18.38,0,0,1-4.14-.92,4.77,4.77,0,0,1-2.2-1.45,3.11,3.11,0,0,1-.64-1.93V610.12a3.39,3.39,0,0,1,.53-1.88,4,4,0,0,1,1.88-1.34,14.51,14.51,0,0,1,3.55-.81,49.36,49.36,0,0,1,5.53-.26,48.31,48.31,0,0,1,5.43.26,14.42,14.42,0,0,1,3.54.81,4,4,0,0,1,1.88,1.34,3.32,3.32,0,0,1,.54,1.88V621.4a96.21,96.21,0,0,1,8.22-7.57,49.94,49.94,0,0,1,8.21-5.48,37.6,37.6,0,0,1,8.65-3.28,40.81,40.81,0,0,1,9.51-1.07q10.53,0,17.94,4.14a33.8,33.8,0,0,1,12.08,11.33,50.85,50.85,0,0,1,6.82,16.76A92.39,92.39,0,0,1,749.22,656.64Zm-28.14,1.93a74.55,74.55,0,0,0-.91-11.76,34.83,34.83,0,0,0-3.12-10,19.12,19.12,0,0,0-5.8-7,14.76,14.76,0,0,0-9-2.63,18,18,0,0,0-5.32.8,21.1,21.1,0,0,0-5.37,2.63,37.63,37.63,0,0,0-5.64,4.73,67.24,67.24,0,0,0-6.12,7.2V674a63,63,0,0,0,10.85,11.12,17.55,17.55,0,0,0,10.74,3.92,14.88,14.88,0,0,0,9-2.69,20.81,20.81,0,0,0,6.07-7,35.59,35.59,0,0,0,3.49-9.83A54.38,54.38,0,0,0,721.08,658.57Z" transform="translate(0 0.5)"/><path d="M887.09,709.6l-11.6,33.94c-.65,1.79-2.4,3.08-5.27,3.87a50.33,50.33,0,0,1-12.57,1.18,49.79,49.79,0,0,1-6.87-.38,9.66,9.66,0,0,1-3.87-1.23,2.82,2.82,0,0,1-1.39-2.15,6.83,6.83,0,0,1,.64-3.12l12.78-32.11a7.35,7.35,0,0,1-2.52-2,9.34,9.34,0,0,1-1.67-2.85l-33-88.08a18,18,0,0,1-1.4-5.75,3.94,3.94,0,0,1,1.29-3.12,8.44,8.44,0,0,1,4.35-1.55,60.24,60.24,0,0,1,8.11-.43q4.62,0,7.3.16a12.73,12.73,0,0,1,4.19.8,4.56,4.56,0,0,1,2.26,2,20.34,20.34,0,0,1,1.5,3.81l22.56,64.13h.32l20.63-65.42a7.29,7.29,0,0,1,1.66-3.7,6.92,6.92,0,0,1,3.39-1.34,53,53,0,0,1,8.27-.43,56.23,56.23,0,0,1,7.68.43,9.11,9.11,0,0,1,4.51,1.61,3.87,3.87,0,0,1,1.45,3.17,15.77,15.77,0,0,1-.86,4.67Z" transform="translate(0 0.5)"/><path d="M1035.78,657.07a73.16,73.16,0,0,1-3.22,22.34,47.17,47.17,0,0,1-9.78,17.4,43.45,43.45,0,0,1-16.43,11.28q-9.89,4-23.1,4A63.29,63.29,0,0,1,961,708.52a39.92,39.92,0,0,1-15.69-10.31,42.46,42.46,0,0,1-9.24-16.65,77.71,77.71,0,0,1-3-22.56,72.8,72.8,0,0,1,3.27-22.4,47.19,47.19,0,0,1,9.83-17.4A44,44,0,0,1,962.57,608q9.84-4,23-4a64.66,64.66,0,0,1,22.34,3.49,39.14,39.14,0,0,1,15.63,10.26,42.62,42.62,0,0,1,9.18,16.65A77.75,77.75,0,0,1,1035.78,657.07ZM1008,658.14a70.41,70.41,0,0,0-1.13-13,30.68,30.68,0,0,0-3.81-10.37,19.16,19.16,0,0,0-7.15-6.87,22.89,22.89,0,0,0-11.22-2.47,23.73,23.73,0,0,0-10.53,2.2,18.92,18.92,0,0,0-7.41,6.44,31,31,0,0,0-4.35,10.21,57.5,57.5,0,0,0-1.45,13.59,67.05,67.05,0,0,0,1.18,13,32.56,32.56,0,0,0,3.81,10.37,18.24,18.24,0,0,0,7.15,6.82,23.42,23.42,0,0,0,11.17,2.41,23.93,23.93,0,0,0,10.63-2.2,19.05,19.05,0,0,0,7.42-6.39,29.51,29.51,0,0,0,4.29-10.15A59.9,59.9,0,0,0,1008,658.14Z" transform="translate(0 0.5)"/><path d="M1153.54,705.94a3.27,3.27,0,0,1-.54,1.88,4,4,0,0,1-1.88,1.35,14.58,14.58,0,0,1-3.54.8,47,47,0,0,1-5.54.27,48.93,48.93,0,0,1-5.74-.27,13.67,13.67,0,0,1-3.5-.8,4,4,0,0,1-1.82-1.35,3.27,3.27,0,0,1-.54-1.88V694.88a60.72,60.72,0,0,1-16.17,12.89,36.31,36.31,0,0,1-17,4.3q-9.88,0-16.6-3.23a28.58,28.58,0,0,1-10.85-8.8,35.55,35.55,0,0,1-5.91-12.95,79.83,79.83,0,0,1-1.77-18.31V610.12a3.14,3.14,0,0,1,.59-1.88,4.4,4.4,0,0,1,2.15-1.34,19.16,19.16,0,0,1,4.19-.81q2.63-.26,6.5-.26t6.55.26a19.12,19.12,0,0,1,4.14.81,4.85,4.85,0,0,1,2.2,1.34,2.93,2.93,0,0,1,.64,1.88v54.14a52,52,0,0,0,1,11.5,20.3,20.3,0,0,0,3,6.82,13.53,13.53,0,0,0,5,4.4,15.53,15.53,0,0,0,7.15,1.56,17.64,17.64,0,0,0,10.36-3.76,61.5,61.5,0,0,0,11.12-11v-63.7a3.14,3.14,0,0,1,.59-1.88,4.45,4.45,0,0,1,2.15-1.34,19.12,19.12,0,0,1,4.14-.81q2.58-.26,6.55-.26t6.55.26a18,18,0,0,1,4.08.81,4.76,4.76,0,0,1,2.15,1.34,2.94,2.94,0,0,1,.65,1.88Z" transform="translate(0 0.5)"/><path d="M1247.77,619q0,3.87-.22,6.34a19.65,19.65,0,0,1-.64,3.86,3.77,3.77,0,0,1-1.13,1.94,2.82,2.82,0,0,1-1.77.53,5.94,5.94,0,0,1-1.94-.37c-.71-.25-1.52-.52-2.41-.81s-1.88-.55-3-.8a15.56,15.56,0,0,0-3.54-.38,12.06,12.06,0,0,0-4.51.91,19,19,0,0,0-4.68,2.85,35,35,0,0,0-5,5.16,84.21,84.21,0,0,0-5.63,8v59.72a2.9,2.9,0,0,1-.65,1.88,4.72,4.72,0,0,1-2.2,1.35,19.2,19.2,0,0,1-4.14.8,79.58,79.58,0,0,1-13.1,0,19.2,19.2,0,0,1-4.14-.8,4.72,4.72,0,0,1-2.2-1.35,2.9,2.9,0,0,1-.65-1.88V610.12a3.32,3.32,0,0,1,.54-1.88,4,4,0,0,1,1.94-1.34,15.36,15.36,0,0,1,3.59-.81,49.56,49.56,0,0,1,5.54-.26,52,52,0,0,1,5.69.26,12.85,12.85,0,0,1,3.49.81,4,4,0,0,1,1.77,1.34,3.32,3.32,0,0,1,.54,1.88v11.93a77.24,77.24,0,0,1,7.09-8.87,40.21,40.21,0,0,1,6.34-5.53,19.74,19.74,0,0,1,6-2.84,23.08,23.08,0,0,1,6-.81,29.7,29.7,0,0,1,3,.16,30.26,30.26,0,0,1,3.33.54,22.59,22.59,0,0,1,3,.86,6,6,0,0,1,1.88,1,3.37,3.37,0,0,1,.85,1.18,9.71,9.71,0,0,1,.49,1.77,26.67,26.67,0,0,1,.32,3.39Q1247.76,615.17,1247.77,619Z" transform="translate(0 0.5)"/><path d="M322.94,969.73a3.34,3.34,0,0,1-.59,1.93,4.11,4.11,0,0,1-2.15,1.4,21.46,21.46,0,0,1-4.13.86,55.8,55.8,0,0,1-6.56.32,54.42,54.42,0,0,1-6.44-.32,20.05,20.05,0,0,1-4.08-.86,4.43,4.43,0,0,1-2.15-1.4,3.12,3.12,0,0,1-.65-1.93V856.61H296l-40.29,113a5.2,5.2,0,0,1-1.39,2.31,6.87,6.87,0,0,1-2.63,1.45,17.87,17.87,0,0,1-4.25.7c-1.72.11-3.79.16-6.23.16A61.16,61.16,0,0,1,235,974a18.41,18.41,0,0,1-4.24-.86,7.67,7.67,0,0,1-2.63-1.45,4.06,4.06,0,0,1-1.29-2l-38.89-113h-.21V969.73a3.34,3.34,0,0,1-.59,1.93,4.19,4.19,0,0,1-2.21,1.4,22.51,22.51,0,0,1-4.13.86,65.67,65.67,0,0,1-13,0,21.13,21.13,0,0,1-4.13-.86,4.11,4.11,0,0,1-2.15-1.4,3.26,3.26,0,0,1-.59-1.93V845.87q0-5.48,2.9-8.38a10.46,10.46,0,0,1,7.73-2.9h18.48a38.69,38.69,0,0,1,8.49.81,16.39,16.39,0,0,1,6.12,2.68A15.35,15.35,0,0,1,209,843a36,36,0,0,1,3,7.58l30.08,82.82h.43l31.15-82.61a42.52,42.52,0,0,1,3.07-7.62,17.51,17.51,0,0,1,3.86-5.05,12.73,12.73,0,0,1,5.21-2.74,27,27,0,0,1,7-.81h19a14.81,14.81,0,0,1,5,.75,8.59,8.59,0,0,1,3.44,2.21,9.36,9.36,0,0,1,2,3.54,15,15,0,0,1,.7,4.78Z" transform="translate(0 0.5)"/><path d="M386.23,841.68c0,5.45-1.11,9.2-3.33,11.28s-6.33,3.12-12.35,3.12-10.19-1-12.3-3-3.17-5.62-3.17-10.85q0-8.16,3.28-11.33t12.4-3.17q9,0,12.25,3.06T386.23,841.68Zm-2,128.26a2.89,2.89,0,0,1-.64,1.88,4.77,4.77,0,0,1-2.2,1.35,19.2,19.2,0,0,1-4.14.8,79.71,79.71,0,0,1-13.11,0,19.22,19.22,0,0,1-4.13-.8,4.72,4.72,0,0,1-2.2-1.35,2.9,2.9,0,0,1-.65-1.88v-95.6a2.92,2.92,0,0,1,.65-1.88,5.09,5.09,0,0,1,2.2-1.4,18.47,18.47,0,0,1,4.13-.91,67.3,67.3,0,0,1,13.11,0,18.45,18.45,0,0,1,4.14.91,5.15,5.15,0,0,1,2.2,1.4,2.91,2.91,0,0,1,.64,1.88Z" transform="translate(0 0.5)"/><path d="M508.18,969.94a2.9,2.9,0,0,1-.65,1.88,4.7,4.7,0,0,1-2.14,1.35,18.47,18.47,0,0,1-4.14.8c-1.76.18-3.92.27-6.5.27s-4.85-.09-6.61-.27a18.24,18.24,0,0,1-4.13-.8,4.69,4.69,0,0,1-2.15-1.35,2.89,2.89,0,0,1-.64-1.88V915.27a46.13,46.13,0,0,0-1-11,21.82,21.82,0,0,0-3-6.82,13.17,13.17,0,0,0-5-4.41,15.69,15.69,0,0,0-7.15-1.55,17.9,17.9,0,0,0-10.42,3.76,56.08,56.08,0,0,0-10.95,11v63.7a2.9,2.9,0,0,1-.65,1.88,4.72,4.72,0,0,1-2.2,1.35,19.2,19.2,0,0,1-4.14.8,79.58,79.58,0,0,1-13.1,0,19.2,19.2,0,0,1-4.14-.8,4.72,4.72,0,0,1-2.2-1.35,2.89,2.89,0,0,1-.64-1.88V874.12a3.31,3.31,0,0,1,.53-1.88,4,4,0,0,1,1.94-1.34,15.36,15.36,0,0,1,3.59-.81,49.56,49.56,0,0,1,5.54-.26,52,52,0,0,1,5.69.26,12.85,12.85,0,0,1,3.49.81,4,4,0,0,1,1.77,1.34,3.32,3.32,0,0,1,.54,1.88v11.07a60.72,60.72,0,0,1,16.17-12.89,36.45,36.45,0,0,1,17.13-4.3q9.78,0,16.49,3.22A28.86,28.86,0,0,1,500.39,880a35.54,35.54,0,0,1,6,12.94,75.34,75.34,0,0,1,1.83,17.83Z" transform="translate(0 0.5)"/><path d="M631.09,969.94a3.5,3.5,0,0,1-.54,2,3.84,3.84,0,0,1-1.82,1.34,12.67,12.67,0,0,1-3.49.76q-2.21.21-5.43.21-3.43,0-5.58-.21a13.29,13.29,0,0,1-3.5-.76,4.22,4.22,0,0,1-1.93-1.34,3.3,3.3,0,0,1-.59-2V959.31a61.54,61.54,0,0,1-15.52,12.35,37.08,37.08,0,0,1-18,4.41q-11,0-18.53-4.25a35.37,35.37,0,0,1-12.35-11.44,49.46,49.46,0,0,1-6.93-16.81,92.78,92.78,0,0,1-2.15-20.25,89.09,89.09,0,0,1,2.74-23,52.12,52.12,0,0,1,8-17.4,35.37,35.37,0,0,1,13.1-11.06,40.27,40.27,0,0,1,18-3.87,32.15,32.15,0,0,1,14.61,3.28,52.14,52.14,0,0,1,13,9.61V829a3.32,3.32,0,0,1,.59-1.94,4.48,4.48,0,0,1,2.14-1.45,18.45,18.45,0,0,1,4.14-.91,67.3,67.3,0,0,1,13.11,0,17.58,17.58,0,0,1,4.08.91,4.91,4.91,0,0,1,2.15,1.45,3.16,3.16,0,0,1,.64,1.94Zm-26.85-64a59.72,59.72,0,0,0-11.12-11.17A18.64,18.64,0,0,0,582,890.88a15.62,15.62,0,0,0-9.08,2.63,19.25,19.25,0,0,0-6.12,7,37.42,37.42,0,0,0-3.44,9.83,54.62,54.62,0,0,0-1.13,11.12,70.36,70.36,0,0,0,1,11.71,36.5,36.5,0,0,0,3.17,10.15,19.32,19.32,0,0,0,5.85,7.14,15.21,15.21,0,0,0,9.24,2.69,18.41,18.41,0,0,0,5.43-.81,20.77,20.77,0,0,0,5.37-2.63A36.81,36.81,0,0,0,597.9,945q2.9-3,6.34-7.25Z" transform="translate(0 0.5)"/><path d="M829.11,969.73a2.94,2.94,0,0,1-.7,1.93,4.81,4.81,0,0,1-2.31,1.4,22.63,22.63,0,0,1-4.29.86,59.78,59.78,0,0,1-6.77.32,62.53,62.53,0,0,1-6.93-.32,21.79,21.79,0,0,1-4.3-.86,4.84,4.84,0,0,1-2.25-1.4,2.94,2.94,0,0,1-.7-1.93V913.55h-52v56.18a3.12,3.12,0,0,1-.65,1.93,4.5,4.5,0,0,1-2.25,1.4,22.93,22.93,0,0,1-4.3.86,73.48,73.48,0,0,1-13.7,0,23.06,23.06,0,0,1-4.35-.86,4.91,4.91,0,0,1-2.31-1.4,3,3,0,0,1-.69-1.93V838.46a3,3,0,0,1,.69-1.93,4.91,4.91,0,0,1,2.31-1.4,22.29,22.29,0,0,1,4.35-.86,73.48,73.48,0,0,1,13.7,0,22.15,22.15,0,0,1,4.3.86,4.5,4.5,0,0,1,2.25,1.4,3.12,3.12,0,0,1,.65,1.93v51h52v-51a2.94,2.94,0,0,1,.7-1.93,4.84,4.84,0,0,1,2.25-1.4,21.08,21.08,0,0,1,4.3-.86A60.17,60.17,0,0,1,815,834a57.52,57.52,0,0,1,6.77.32,21.87,21.87,0,0,1,4.29.86,4.81,4.81,0,0,1,2.31,1.4,2.94,2.94,0,0,1,.7,1.93Z" transform="translate(0 0.5)"/><path d="M951.81,919.24c0,3.3-.74,5.73-2.2,7.3a7.88,7.88,0,0,1-6.07,2.37H885.21A39.72,39.72,0,0,0,886.66,940a21.09,21.09,0,0,0,4.62,8.48,20.1,20.1,0,0,0,8.16,5.32,34.89,34.89,0,0,0,12,1.83,67.38,67.38,0,0,0,12.46-1,83.05,83.05,0,0,0,9.29-2.26c2.62-.82,4.78-1.57,6.5-2.26a12.09,12.09,0,0,1,4.19-1,3.17,3.17,0,0,1,1.61.38,2.83,2.83,0,0,1,1.08,1.34,9.32,9.32,0,0,1,.59,2.74c.1,1.18.16,2.67.16,4.46,0,1.58,0,2.92-.11,4a25.4,25.4,0,0,1-.32,2.84,6.94,6.94,0,0,1-.65,2,7.28,7.28,0,0,1-1.12,1.56,13.2,13.2,0,0,1-3.82,2,59.62,59.62,0,0,1-7.95,2.52,107.27,107.27,0,0,1-11.06,2.15,91.87,91.87,0,0,1-13.32.92,70.45,70.45,0,0,1-22.4-3.23,39.78,39.78,0,0,1-16.06-9.77,40.59,40.59,0,0,1-9.61-16.54,77.47,77.47,0,0,1-3.17-23.42,74.43,74.43,0,0,1,3.33-23,48.33,48.33,0,0,1,9.67-17.41,41.58,41.58,0,0,1,15.41-10.9A53,53,0,0,1,906.58,868q12,0,20.58,3.54a37.16,37.16,0,0,1,14,9.83,39.58,39.58,0,0,1,8.06,14.88,64.75,64.75,0,0,1,2.58,18.69Zm-26.21-7.73q.31-11.38-4.57-17.89t-15.09-6.5a19.7,19.7,0,0,0-9,1.93,18.43,18.43,0,0,0-6.34,5.21,23.81,23.81,0,0,0-3.86,7.74,38.13,38.13,0,0,0-1.56,9.51Z" transform="translate(0 0.5)"/><path d="M1061.19,970.27a2.85,2.85,0,0,1-1.08,2.36,7.35,7.35,0,0,1-3.38,1.23,45.8,45.8,0,0,1-6.82.38,46.51,46.51,0,0,1-7-.38,6,6,0,0,1-3.11-1.23,3.08,3.08,0,0,1-.92-2.36v-7.63a43.42,43.42,0,0,1-13.48,9.88,39.21,39.21,0,0,1-16.81,3.55,47.17,47.17,0,0,1-14-2,31.5,31.5,0,0,1-11.06-5.91,26.37,26.37,0,0,1-7.25-9.72,33.07,33.07,0,0,1-2.58-13.54,30.69,30.69,0,0,1,3.27-14.55,26.75,26.75,0,0,1,9.78-10.21,48.77,48.77,0,0,1,16.17-6,115.36,115.36,0,0,1,22.45-1.93h9.34v-5.8a30.48,30.48,0,0,0-.91-7.9,13.21,13.21,0,0,0-3-5.64,12.47,12.47,0,0,0-5.58-3.33,30,30,0,0,0-8.65-1.07,44.64,44.64,0,0,0-12.09,1.5,70.66,70.66,0,0,0-9.4,3.33q-4.08,1.83-6.82,3.33a9.88,9.88,0,0,1-4.45,1.51,3.18,3.18,0,0,1-2.1-.76,5.39,5.39,0,0,1-1.5-2.14,14.8,14.8,0,0,1-.92-3.44,29.7,29.7,0,0,1-.32-4.51,20.42,20.42,0,0,1,.54-5.27,8.15,8.15,0,0,1,2-3.49,20.24,20.24,0,0,1,5.26-3.44,62.92,62.92,0,0,1,8.81-3.49,82.35,82.35,0,0,1,11-2.63,72.92,72.92,0,0,1,12.3-1,73.76,73.76,0,0,1,19.28,2.2A32.51,32.51,0,0,1,1051.3,877a26.25,26.25,0,0,1,7.52,11.76,54.82,54.82,0,0,1,2.37,17.08Zm-26.54-41h-10.31a55,55,0,0,0-11.17,1,21.29,21.29,0,0,0-7.52,2.9,11.9,11.9,0,0,0-4.24,4.67,14,14,0,0,0-1.35,6.28q0,6,3.82,9.46t10.58,3.44a19.77,19.77,0,0,0,10.47-2.91,43.24,43.24,0,0,0,9.72-8.48Z" transform="translate(0 0.5)"/><path d="M1120.72,969.94a3,3,0,0,1-.64,1.88,4.76,4.76,0,0,1-2.21,1.35,19.09,19.09,0,0,1-4.13.8,79.71,79.71,0,0,1-13.11,0,19,19,0,0,1-4.13-.8,4.76,4.76,0,0,1-2.21-1.35,2.89,2.89,0,0,1-.64-1.88V828.68a3.13,3.13,0,0,1,.64-1.93,4.83,4.83,0,0,1,2.21-1.45,18.21,18.21,0,0,1,4.13-.91,65.27,65.27,0,0,1,13.11,0,18.34,18.34,0,0,1,4.13.91,4.83,4.83,0,0,1,2.21,1.45,3.2,3.2,0,0,1,.64,1.93Z" transform="translate(0 0.5)"/><path d="M1209.9,960.49a34.06,34.06,0,0,1-.59,7.25,7.76,7.76,0,0,1-1.56,3.55,8.34,8.34,0,0,1-2.84,1.82,27.35,27.35,0,0,1-4.41,1.4,45.69,45.69,0,0,1-5.48.91,53.57,53.57,0,0,1-6,.32,42.81,42.81,0,0,1-14-2,23.2,23.2,0,0,1-9.78-6.28,26,26,0,0,1-5.69-10.69,56.23,56.23,0,0,1-1.83-15.25v-49.1h-11.49q-2,0-3.12-2.52t-1.07-8.43a43.37,43.37,0,0,1,.27-5.27,12.25,12.25,0,0,1,.8-3.38,4,4,0,0,1,1.35-1.77,3.27,3.27,0,0,1,1.88-.54h11.38V849.09a3.36,3.36,0,0,1,.59-1.93,4.45,4.45,0,0,1,2.15-1.45,17.23,17.23,0,0,1,4.19-.86q2.63-.27,6.5-.27t6.61.27a16.37,16.37,0,0,1,4.13.86,4.82,4.82,0,0,1,2.15,1.45,3.13,3.13,0,0,1,.64,1.93v21.38h20.84a3.27,3.27,0,0,1,1.88.54,4,4,0,0,1,1.35,1.77,13,13,0,0,1,.8,3.38,43.37,43.37,0,0,1,.27,5.27q0,5.91-1.07,8.43t-3.12,2.52h-21v45q0,7.85,2.48,11.77t8.8,3.92a18.19,18.19,0,0,0,3.87-.38,22.81,22.81,0,0,0,3.06-.86c.9-.32,1.65-.6,2.26-.86a4.4,4.4,0,0,1,1.66-.37,2.29,2.29,0,0,1,1.24.37,2.58,2.58,0,0,1,.91,1.51,22.54,22.54,0,0,1,.59,3.06A37,37,0,0,1,1209.9,960.49Z" transform="translate(0 0.5)"/><path d="M1326.48,969.94a2.9,2.9,0,0,1-.65,1.88,4.74,4.74,0,0,1-2.15,1.35,18.24,18.24,0,0,1-4.13.8c-1.76.18-3.92.27-6.5.27s-4.85-.09-6.61-.27a18.24,18.24,0,0,1-4.13-.8,4.69,4.69,0,0,1-2.15-1.35,2.9,2.9,0,0,1-.65-1.88V915.27a46.13,46.13,0,0,0-1-11,21.58,21.58,0,0,0-3-6.82,13.2,13.2,0,0,0-5-4.41,15.65,15.65,0,0,0-7.14-1.55,17.88,17.88,0,0,0-10.42,3.76,56.37,56.37,0,0,0-11,11v63.7a2.89,2.89,0,0,1-.64,1.88,4.77,4.77,0,0,1-2.2,1.35,19.2,19.2,0,0,1-4.14.8,79.71,79.71,0,0,1-13.11,0,19.22,19.22,0,0,1-4.13-.8,4.72,4.72,0,0,1-2.2-1.35,2.9,2.9,0,0,1-.65-1.88V828.68a3.14,3.14,0,0,1,.65-1.93,4.79,4.79,0,0,1,2.2-1.45,18.47,18.47,0,0,1,4.13-.91,65.27,65.27,0,0,1,13.11,0,18.45,18.45,0,0,1,4.14.91,4.85,4.85,0,0,1,2.2,1.45,3.13,3.13,0,0,1,.64,1.93v53a51.9,51.9,0,0,1,14.24-10.26,35.34,35.34,0,0,1,15.09-3.38q9.76,0,16.49,3.22a28.77,28.77,0,0,1,10.85,8.81,36.31,36.31,0,0,1,6,13.05,77.12,77.12,0,0,1,1.83,18.1Z" transform="translate(0 0.5)"/><path d="M1410.07,973.6l-11.6,33.94q-1,2.69-5.26,3.87a50.44,50.44,0,0,1-12.57,1.18,49.85,49.85,0,0,1-6.88-.38,9.55,9.55,0,0,1-3.86-1.23,2.84,2.84,0,0,1-1.4-2.15,7,7,0,0,1,.64-3.12l12.79-32.11a7.38,7.38,0,0,1-2.53-2,9.11,9.11,0,0,1-1.66-2.85l-33-88.08a18.32,18.32,0,0,1-1.4-5.75,3.94,3.94,0,0,1,1.29-3.12,8.44,8.44,0,0,1,4.35-1.55,60.34,60.34,0,0,1,8.11-.43q4.62,0,7.31.16a12.79,12.79,0,0,1,4.19.8,4.58,4.58,0,0,1,2.25,2,21,21,0,0,1,1.51,3.81l22.55,64.13h.33l20.62-65.42a7.28,7.28,0,0,1,1.67-3.7,6.88,6.88,0,0,1,3.38-1.34,53,53,0,0,1,8.27-.43,56.23,56.23,0,0,1,7.68.43,9.07,9.07,0,0,1,4.51,1.61,3.87,3.87,0,0,1,1.45,3.17,15.46,15.46,0,0,1-.86,4.67Z" transform="translate(0 0.5)"/></svg>