<svg id="Layer_1" data-name="Layer 1" xmlns="http://www.w3.org/2000/svg" viewBox="0 0 1600 2560"><title>7_ways_to_boost_immune</title><rect x="0.5" y="0.5" width="1599" height="2559" fill="#2a48b0"/><path d="M1599,1V2559H1V1H1599m1-1H0V2560H1600V0Z"/><path d="M1281.16,1537.53h-126.1A120.33,120.33,0,0,1,1047.4,1471l-33.68-67.36a120.33,120.33,0,0,0-107.66-66.56H633.8a120.33,120.33,0,0,0-107.66,66.56L492.46,1471a120.33,120.33,0,0,1-107.66,66.56h-66a120.29,120.29,0,0,0-120.29,120.29v461.92a120.47,120.47,0,0,0,73,110.66l134.73,57.74a120.48,120.48,0,0,1,73,110.67v20.85A120.28,120.28,0,0,0,599.52,2540h401a120.28,120.28,0,0,0,120.29-120.29v-20.85a120.48,120.48,0,0,1,73-110.67l134.73-57.74a120.47,120.47,0,0,0,73-110.66V1657.82A120.29,120.29,0,0,0,1281.16,1537.53Z" fill="#e6e9ed"/><path d="M800,1637.77l-47.72,5-52.52-5h-10a90.33,90.33,0,0,1-90.17-92.91c1.4-48.18,43.83-87.52,92-87.52H800a160.18,160.18,0,0,1,160.39,160.39l9.22,13.83a184.2,184.2,0,0,1-33.28,241.78l-76.18,65.16V1838.26L888.41,1810a40.21,40.21,0,0,0,11.83-28.47v-3.41A40.38,40.38,0,0,0,860.15,1738v-40.1A60.07,60.07,0,0,0,800,1637.77Z" fill="#b27946"/><path d="M1000.48,2219.18V2540h-401V2219.18A277.78,277.78,0,0,1,466.8,2185.3l55.93-190.06a160.24,160.24,0,0,0,83.4,23.45,169.36,169.36,0,0,0,26.67-2.2l69.56-11.63,17.45,174.22L800,2098.89l80.19,80.19,17.45-174.22,69.56,11.63a169.36,169.36,0,0,0,26.67,2.2,160.24,160.24,0,0,0,83.4-23.45l55.93,190.26a279.92,279.92,0,0,1-132.72,33.68Z" fill="#fcd770"/><path d="M897.64,2004.91l-17.45,174.22L800,2098.94l60.15-100.24Z" fill="#ffc729"/><path d="M739.85,1998.7,800,2098.94l-80.19,80.19-17.45-174.22Z" fill="#ffc729"/><path d="M1281.16,1758.12v175.42a280,280,0,0,1-14.23,88l-2.61,7.42a278,278,0,0,1-131.12,156.58l-55.93-190.26a159.69,159.69,0,0,0,30.67-23.86l5.62-5.61a161.49,161.49,0,0,0,47.31-114.08v-33.48l-22.45-22.45a60.45,60.45,0,0,1-17.65-42.5V1718a60.06,60.06,0,0,1,60.15-60.14,99.94,99.94,0,0,1,100.24,100.24Z" fill="#f0d0b4"/><path d="M522.73,1995.29,466.8,2185.35a285.46,285.46,0,0,1-29.88-18.65A277.06,277.06,0,0,1,335.68,2029l-2.61-7.42a280,280,0,0,1-14.23-88V1758.12a100.27,100.27,0,0,1,100.24-100.24A60.24,60.24,0,0,1,479.23,1718v35.29a60.45,60.45,0,0,1-17.65,42.5l-22.45,22.45v33.48a161.49,161.49,0,0,0,47.31,114.08l5.62,5.61a159.69,159.69,0,0,0,30.67,23.86Z" fill="#f0d0b4"/><path d="M860.15,1938.5v60.2L800,2098.94,739.85,1998.7v-60.2H728a68.46,68.46,0,0,1-68.37-68.36v-51.93l-60.14-20c0-38.29,24.46-93,42.1-127.51a60.34,60.34,0,0,1,53.73-32.88h4.41l52.52,5,47.72-5a60.07,60.07,0,0,1,60.15,60.15V1738a40.38,40.38,0,0,1,40.09,40.09v3.41A40.21,40.21,0,0,1,888.41,1810l-28.26,28.27Z" fill="#f0d0b4"/><path d="M1281.16,1517.48H1155a99.72,99.72,0,0,1-89.66-55.41l-33.76-67.5A139.54,139.54,0,0,0,906.1,1317H633.76a139.58,139.58,0,0,0-125.52,77.57l-33.77,67.5a99.66,99.66,0,0,1-89.63,55.41H288.91A110.41,110.41,0,0,0,178.5,1627.89v491.93a140.17,140.17,0,0,0,85.07,129l147.8,63.34a78.89,78.89,0,0,1,47.81,72.5v64.94A110.41,110.41,0,0,0,569.59,2560h430.89a140.34,140.34,0,0,0,140.34-140.34v-20.93a100.26,100.26,0,0,1,60.77-92.15l134.84-57.79a140.12,140.12,0,0,0,85.07-129v-462c0-77.36-63-140.34-140.34-140.34ZM472.21,1979.93l5.71,5.72a183.16,183.16,0,0,0,21.39,18l-44.42,151.06a257.61,257.61,0,0,1-100.26-132l-2.51-7.54a258.19,258.19,0,0,1-13.23-81.62V1758.12a80.27,80.27,0,0,1,80.19-80.2,40.15,40.15,0,0,1,40.1,40.1v35.25a40.37,40.37,0,0,1-11.75,28.34L419.08,1810v41.7A180.21,180.21,0,0,0,472.21,1979.93Zm62.89,44.12A181,181,0,0,0,636,2036.28l48.54-8.1,19.51,195L800,2127.24l95.93,95.93,19.51-195,48.56,8.1a181,181,0,0,0,100.9-12.23l44.39,150.9a257.8,257.8,0,0,1-108.81,24.18h-20V2519.9H619.56V2199.13h-20A257.8,257.8,0,0,1,490.71,2175Zm85.61-239.94c3.81-26,17.28-62.29,38.83-104.35a40,40,0,0,1,35.73-21.94h4.49v-40.09h-8.61c-36.91,0-68.61-28-71.38-64.77a70.24,70.24,0,0,1,70-75.57H800a140.36,140.36,0,0,1,140.36,140.36v6.07l12.57,18.83a164,164,0,0,1-29.71,215.44l-43,36.86v-48.32l22.48-22.47a60.2,60.2,0,0,0,17.62-42.55v-3.44a60.26,60.26,0,0,0-40.1-56.72V1698A80.27,80.27,0,0,0,800,1617.78v40.1A40.14,40.14,0,0,1,840.1,1698v60.09h20a20,20,0,0,1,20,20v3.45a20.13,20.13,0,0,1-5.87,14.18L840.1,1830v163.11L800,2059.91l-40.1-66.84v-34.52l40.1,0v-40.08l-71.89,0a48.22,48.22,0,0,1-38-18.4,49.55,49.55,0,0,1-10.39-31v-65.33Zm249.6,236.6,5.47.92-11.34,113.42-39.22-39.22Zm-140.62,0,45.07,75.12-39.22,39.22L724.2,2021.63Zm422.89-239.1a40.43,40.43,0,0,1-11.76-28.36V1718a40,40,0,0,1,39.5-40.09,80.27,80.27,0,0,1,80.79,80.19v175.4a257.85,257.85,0,0,1-13.23,81.58l-2.52,7.57a257.57,257.57,0,0,1-100.24,132l-44.41-151a181.27,181.27,0,0,0,21.38-18l5.7-5.69a181.42,181.42,0,0,0,53.13-128.28V1810Zm228.82,338.21a100.26,100.26,0,0,1-60.76,92.15l-134.85,57.79a140.13,140.13,0,0,0-85.06,129v21a100.43,100.43,0,0,1-80.2,98.22V2238.62a297.73,297.73,0,0,0,262.84-203.23l2.52-7.58a297,297,0,0,0,15.32-94.31V1758.12a120.41,120.41,0,0,0-124.06-120.23c-42.82,1.31-76.42,37.34-76.42,80.18v35.2a80.67,80.67,0,0,0,23.49,56.69l16.6,16.6v25.07a141.25,141.25,0,0,1-41.38,99.9l-5.71,5.72a141.07,141.07,0,0,1-123.18,39.47l-90.36-15.06v-33.94l69.09-59.2a204.1,204.1,0,0,0,37-268.13l-5.93-8.9c-3.31-96.61-82.94-174.2-180.34-174.2H691.52c-58.27,0-107.88,44.53-111.8,102.68a110.29,110.29,0,0,0,56.4,103.86,81.5,81.5,0,0,0-12.27,17.64c-20.24,39.5-44.38,95.29-44.38,136.71v14.46l60.14,20v35.92a90.9,90.9,0,0,0,13.3,48.17c15.33,24.58,39.91,38.51,66.9,41v23.92l-90.34,15a141,141,0,0,1-123.2-39.47l-5.71-5.72a140.43,140.43,0,0,1-41.38-99.94v-25.1l16.6-16.6a80.67,80.67,0,0,0,23.49-56.69v-35.2c0-42.84-33.6-78.87-76.42-80.18a120.41,120.41,0,0,0-124.06,120.23V1933.5a297.23,297.23,0,0,0,15.32,94.33l2.52,7.54a297.75,297.75,0,0,0,262.84,203.25v279.31a100.42,100.42,0,0,1-80.2-98.22v-21a140.18,140.18,0,0,0-85.06-129L279.34,2212a100.12,100.12,0,0,1-60.74-92.14v-462a100.24,100.24,0,0,1,100.24-100.24h66A139.6,139.6,0,0,0,510.36,1480l33.76-67.5a99.68,99.68,0,0,1,89.64-55.41H906.1a99.72,99.72,0,0,1,89.65,55.41l33.76,67.5A139.56,139.56,0,0,0,1155,1557.58h126.14a100.24,100.24,0,0,1,100.24,100.24Z"/><path d="M794.13,1663.7c-19.13-19.13-34.23-34.23-34.23-86.07H719.81c0,68.44,24.42,92.88,46,114.42Z"/><path d="M1281.16,2359.52h40.1v40.09h-40.1Z"/><path d="M1281.16,2439.71h40.1v40.1h-40.1Z"/><path d="M1321.26,2399.61h40.09v40.1h-40.09Z"/><path d="M1241.06,2399.61h40.1v40.1h-40.1Z"/><path d="M1140.82,1357.1h40.1v40.09h-40.1Z"/><path d="M1140.82,1437.29h40.1v40.1h-40.1Z"/><path d="M1180.92,1397.19H1221v40.1h-40.1Z"/><path d="M1100.73,1397.19h40.09v40.1h-40.09Z"/><path d="M278.74,2359.52h40.1v40.09h-40.1Z"/><path d="M278.74,2439.71h40.1v40.1h-40.1Z"/><path d="M238.65,2399.61h40.09v40.1H238.65Z"/><path d="M318.84,2399.61h40.1v40.1h-40.1Z"/><path d="M338.89,1357.1H379v40.09H338.89Z"/><path d="M338.89,1437.29H379v40.1H338.89Z"/><path d="M298.79,1397.19h40.1v40.1h-40.1Z"/><path d="M379,1397.19h40.1v40.1H379Z"/><path d="M860.15,2259.27h80.19v40.1H860.15Z"/><path d="M164.57,301.48v-92.1H135.92V192h76.2v17.4H183.47v92.1Z" fill="#fff"/><path d="M264,302.83a39.36,39.36,0,0,1-18.23-4,29,29,0,0,1-12-11.25,33.27,33.27,0,0,1-4.27-17.17V250a33.31,33.31,0,0,1,4.27-17.18,29,29,0,0,1,12-11.25,39.36,39.36,0,0,1,18.23-4q10.65,0,18.3,4a29.09,29.09,0,0,1,11.93,11.25,33,33,0,0,1,4.27,17v20.55a33.27,33.27,0,0,1-4.27,17.17,29.09,29.09,0,0,1-11.93,11.25Q274.67,302.83,264,302.83Zm0-16.35q7.5,0,11.63-4.13t4.12-11.92V250q0-8-4.12-12T264,234q-7.35,0-11.55,4.05t-4.2,12v20.4q0,7.8,4.2,11.92T264,286.48Z" fill="#fff"/><path d="M320.57,328.48V219h18.3v15.75h4.2l-4.2,4.35q0-10.05,6-15.83t16.2-5.77q12.45,0,19.95,8.55t7.5,22.95v22.35a38.68,38.68,0,0,1-3.38,16.72,25.74,25.74,0,0,1-9.52,11,26.59,26.59,0,0,1-14.55,3.9q-10.2,0-16.2-5.78t-6-15.82l4.2,4.35h-4.35l.6,19.65v23.1Zm33.9-41.7q7.2,0,11.25-4.2t4-12v-20.7q0-7.8-4-12t-11.25-4.2q-7.05,0-11.1,4.27t-4.05,11.93v20.7q0,7.65,4.05,11.92T354.47,286.78Z" fill="#fff"/><path d="M512.27,301.48l39.6-92.1h-35.1v15.9H498V192h72.6v17.7l-38.25,91.8Z" fill="#fff"/><path d="M682.66,301.48,671.41,192h16.2l6.6,76.5q.3,2.55.53,6.22t.45,7.43q.22,3.75.22,6.6.3-2.85.6-6.6t.68-7.43q.38-3.68.67-6.22l9-76.5h15.75l8.4,76.5q.45,2.55.83,6.22t.82,7.43q.45,3.75.75,6.6.15-2.85.3-6.6t.38-7.43q.23-3.68.52-6.22l6.45-76.5h16.05l-11.85,109.5h-20.7l-8.1-76.8q-.3-2.85-.67-6.68t-.68-7.65q-.3-3.82-.45-6.52-.15,2.7-.52,6.52T713,218q-.3,3.83-.6,6.68l-8.85,76.8Z" fill="#fff"/><path d="M794.86,303q-12.75,0-20.1-6.75t-7.35-18.15q0-12.15,8.1-18.75t23-6.6H819v-7q0-6-3.9-9.38t-10.65-3.37a18.08,18.08,0,0,0-10.12,2.7,10.46,10.46,0,0,0-4.88,7.35h-18.3a26.07,26.07,0,0,1,10.5-18.6q9.15-6.9,23.4-6.9,15.15,0,23.93,7.57t8.77,20.48v56H819.61v-14.4h-3l3-4.05a17.66,17.66,0,0,1-6.75,14.55Q806.11,303,794.86,303Zm6.15-14.1q7.95,0,13-4.05a12.89,12.89,0,0,0,5-10.5V264.28H798.76a12.69,12.69,0,0,0-9.15,3.3,12.77,12.77,0,0,0,.45,17.92Q794,288.88,801,288.88Z" fill="#fff"/><path d="M873.91,328.48,885.46,297l-30.75-78h20.55l15.3,42.15q1.2,3.45,2.4,8.32t1.8,8q.75-3.15,2-8t2.4-8.32L913.51,219h19.8l-39.75,109.5Z" fill="#fff"/><path d="M980.86,302.83a41.9,41.9,0,0,1-16.5-3,26.19,26.19,0,0,1-11-8.33A21.93,21.93,0,0,1,949.06,279h18.75a8.11,8.11,0,0,0,3.82,6.3,16.11,16.11,0,0,0,9.23,2.4h6.6q6.9,0,10.35-2.7a8.83,8.83,0,0,0,3.45-7.35,8.29,8.29,0,0,0-3.08-6.83q-3.07-2.48-9.52-3.22l-10.2-1.5q-14.1-1.95-20.7-7.5t-6.6-16.65q0-11.55,7.8-17.93t22.95-6.37h5.7q13.8,0,22,6.15a21.18,21.18,0,0,1,8.85,16.5H999.76a7.55,7.55,0,0,0-3.68-5.4,15.29,15.29,0,0,0-8.47-2.1h-5.7q-6.45,0-9.38,2.32a8.2,8.2,0,0,0-2.92,6.83q0,4.2,2.55,6.22t8.25,2.93l10.65,1.5q14.7,2.1,21.67,7.87t7,17q0,12-8.18,18.67t-24.07,6.68Z" fill="#fff"/><path d="M1154.56,301.48v-92.1h-28.65V192h76.2v17.4h-28.65v92.1Z" fill="#fff"/><path d="M1254,302.83a39.33,39.33,0,0,1-18.23-4,29,29,0,0,1-12-11.25,33.27,33.27,0,0,1-4.27-17.17V250a33.31,33.31,0,0,1,4.27-17.18,29,29,0,0,1,12-11.25,39.33,39.33,0,0,1,18.23-4q10.65,0,18.3,4a29.07,29.07,0,0,1,11.92,11.25,33,33,0,0,1,4.28,17v20.55a33.27,33.27,0,0,1-4.28,17.17,29.07,29.07,0,0,1-11.92,11.25Q1264.66,302.83,1254,302.83Zm0-16.35q7.48,0,11.62-4.13t4.13-11.92V250q0-8-4.13-12T1254,234c-4.9,0-8.76,1.35-11.55,4.05s-4.2,6.7-4.2,12v20.4q0,7.8,4.2,11.92C1245.25,285.1,1249.11,286.48,1254,286.48Z" fill="#fff"/><path d="M140.57,521.48V412h33.6q15.9,0,25.2,7.57t9.3,20.63a24,24,0,0,1-3.3,12.75,22.88,22.88,0,0,1-8.92,8.4,27.18,27.18,0,0,1-13,3v-.6a30.29,30.29,0,0,1,14.18,2.92,23.86,23.86,0,0,1,9.9,9.08,27.34,27.34,0,0,1,3.67,14.55,30.78,30.78,0,0,1-4.35,16.5,28.73,28.73,0,0,1-12.22,10.87q-7.87,3.83-18.83,3.83Zm18.3-64.35H174q7.35,0,11.63-4t4.27-10.87q0-6.9-4.27-10.8t-11.78-3.9h-15Zm0,48.75h15.75q8.25,0,13-4.43t4.72-12.07q0-7.65-4.72-12.38t-13-4.72H158.87Z" fill="#fff"/><path d="M264,522.83a39.36,39.36,0,0,1-18.23-4,29,29,0,0,1-12-11.25,33.27,33.27,0,0,1-4.27-17.17V470a33.31,33.31,0,0,1,4.27-17.18,29,29,0,0,1,12-11.25,39.36,39.36,0,0,1,18.23-4q10.65,0,18.3,4a29.09,29.09,0,0,1,11.93,11.25,33,33,0,0,1,4.27,17v20.55a33.27,33.27,0,0,1-4.27,17.17,29.09,29.09,0,0,1-11.93,11.25Q274.67,522.83,264,522.83Zm0-16.35q7.5,0,11.63-4.13t4.12-11.92V470q0-7.95-4.12-12T264,454q-7.35,0-11.55,4t-4.2,12v20.4q0,7.8,4.2,11.92T264,506.48Z" fill="#fff"/><path d="M354,522.83a39.36,39.36,0,0,1-18.23-4,29,29,0,0,1-12-11.25,33.27,33.27,0,0,1-4.27-17.17V470a33.31,33.31,0,0,1,4.27-17.18,29,29,0,0,1,12-11.25,39.36,39.36,0,0,1,18.23-4q10.65,0,18.3,4a29.07,29.07,0,0,1,11.92,11.25,33,33,0,0,1,4.28,17v20.55a33.27,33.27,0,0,1-4.28,17.17,29.07,29.07,0,0,1-11.92,11.25Q364.67,522.83,354,522.83Zm0-16.35q7.5,0,11.62-4.13t4.13-11.92V470q0-7.95-4.13-12T354,454q-7.35,0-11.55,4t-4.2,12v20.4q0,7.8,4.2,11.92T354,506.48Z" fill="#fff"/><path d="M440.87,522.83a41.9,41.9,0,0,1-16.5-3,26.19,26.19,0,0,1-11-8.33A21.93,21.93,0,0,1,409.07,499h18.75a8.11,8.11,0,0,0,3.82,6.3,16.11,16.11,0,0,0,9.23,2.4h6.6q6.9,0,10.35-2.7a8.83,8.83,0,0,0,3.45-7.35,8.29,8.29,0,0,0-3.08-6.83q-3.07-2.48-9.52-3.22l-10.2-1.5q-14.1-1.95-20.7-7.5t-6.6-16.65q0-11.55,7.8-17.93t22.95-6.37h5.7q13.8,0,22.05,6.15a21.18,21.18,0,0,1,8.85,16.5H459.77a7.55,7.55,0,0,0-3.68-5.4,15.29,15.29,0,0,0-8.47-2.1h-5.7q-6.45,0-9.38,2.32a8.2,8.2,0,0,0-2.92,6.83q0,4.2,2.55,6.22t8.25,2.93l10.65,1.5q14.7,2.1,21.67,7.87t7,17q0,12-8.18,18.67t-24.07,6.68Z" fill="#fff"/><path d="M543,521.48q-11.87,0-18.53-6.6t-6.67-18.15v-40.8H495.47V439h22.35V415.73h18.9V439h31.65v16.95H536.72v40.8q0,7.8,7.65,7.8h22.5v17Z" fill="#fff"/><path d="M693.91,548.48,705.46,517l-30.75-78h20.55l15.3,42.15q1.2,3.45,2.4,8.32t1.8,8q.75-3.15,2-8t2.4-8.32L733.51,439h19.8l-39.75,109.5Z" fill="#fff"/><path d="M804,522.83a39.32,39.32,0,0,1-18.22-4,28.91,28.91,0,0,1-12-11.25,33.27,33.27,0,0,1-4.28-17.17V470a33.31,33.31,0,0,1,4.28-17.18,28.91,28.91,0,0,1,12-11.25,39.32,39.32,0,0,1,18.22-4q10.65,0,18.3,4a29.09,29.09,0,0,1,11.93,11.25,33,33,0,0,1,4.27,17v20.55a33.27,33.27,0,0,1-4.27,17.17,29.09,29.09,0,0,1-11.93,11.25Q814.66,522.83,804,522.83Zm0-16.35q7.5,0,11.63-4.13t4.12-11.92V470q0-7.95-4.12-12T804,454q-7.35,0-11.55,4t-4.2,12v20.4q0,7.8,4.2,11.92T804,506.48Z" fill="#fff"/><path d="M894,523q-15.75,0-24.75-8.78t-9-23.92V439H879v51.15q0,8,3.9,12.22t11.1,4.28q7.05,0,11-4.28t4-12.22V439h18.75v51.3q0,15.15-9.15,23.92T894,523Z" fill="#fff"/><path d="M953.11,521.48V439h17.7v15.75h4.65l-5.55,9.6q0-13.35,6-20.1t17.7-6.75q13.35,0,21,8.25t7.65,22.8v6h-19.65v-4.65q0-8-4.13-12.3t-11.32-4.35q-7.35,0-11.33,4.35t-4,12.3v51.6Z" fill="#fff"/><path d="M142.52,741.48V725h22v-76.5h-22V632h63v16.5H183.47V725h22.05v16.5Z" fill="#fff"/><path d="M226.82,741.48V659h15.3v11.1h3.15l-2.55,2.7q0-6.9,3.9-11.1a13.1,13.1,0,0,1,10.05-4.2,11.73,11.73,0,0,1,10.27,5.4q3.68,5.4,3.68,14.55l-3.3-7.35h5.1l-1.95,2.7q0-6.9,3.9-11.1a13.45,13.45,0,0,1,10.35-4.2,14.67,14.67,0,0,1,12.15,5.7q4.5,5.7,4.5,15.45v62.85h-16.5v-62.1a10.19,10.19,0,0,0-1.8-6.38,6.23,6.23,0,0,0-5.25-2.32,6.35,6.35,0,0,0-5.17,2.25c-1.26,1.5-1.88,3.65-1.88,6.45v62.1h-13.5v-62.1a10.11,10.11,0,0,0-1.8-6.45,6.33,6.33,0,0,0-5.25-2.25,6.12,6.12,0,0,0-5.18,2.25,10.43,10.43,0,0,0-1.72,6.45v62.1Z" fill="#fff"/><path d="M316.82,741.48V659h15.3v11.1h3.15l-2.55,2.7q0-6.9,3.9-11.1a13.1,13.1,0,0,1,10.05-4.2,11.73,11.73,0,0,1,10.27,5.4q3.68,5.4,3.68,14.55l-3.3-7.35h5.1l-1.95,2.7q0-6.9,3.9-11.1a13.45,13.45,0,0,1,10.35-4.2,14.67,14.67,0,0,1,12.15,5.7q4.5,5.7,4.5,15.45v62.85h-16.5v-62.1a10.19,10.19,0,0,0-1.8-6.38,6.23,6.23,0,0,0-5.25-2.32,6.38,6.38,0,0,0-5.18,2.25q-1.87,2.25-1.87,6.45v62.1h-13.5v-62.1a10.11,10.11,0,0,0-1.8-6.45,6.33,6.33,0,0,0-5.25-2.25,6.12,6.12,0,0,0-5.18,2.25,10.43,10.43,0,0,0-1.72,6.45v62.1Z" fill="#fff"/><path d="M444,743q-15.75,0-24.75-8.78t-9-23.92V659H429v51.15q0,7.95,3.9,12.22t11.1,4.28q7.05,0,11-4.28t4-12.22V659h18.75v51.3q0,15.15-9.15,23.92T444,743Z" fill="#fff"/><path d="M500.57,741.48V659h18.3v15.75H524l-5.1,4.35q0-10.2,5.92-15.9t16.28-5.7q12.15,0,19.42,8.1t7.28,21.75v54.15H549v-52.2c0-5-1.31-8.85-3.9-11.55s-6.26-4.05-11-4.05-8.23,1.4-10.88,4.2-4,6.8-4,12v51.6Z" fill="#fff"/><path d="M624.16,743a39.19,39.19,0,0,1-18.3-4.05,29.36,29.36,0,0,1-12.07-11.33,33,33,0,0,1-4.28-17v-20.7a33,33,0,0,1,4.28-17,29.33,29.33,0,0,1,12.07-11.32,39.19,39.19,0,0,1,18.3-4,38.42,38.42,0,0,1,18.08,4,29.46,29.46,0,0,1,12,11.32,33,33,0,0,1,4.27,17v14.85H607.66v5.85q0,8.7,4.2,13.12t12.45,4.43a20.86,20.86,0,0,0,10.2-2.18,9.75,9.75,0,0,0,5-6.37h18.45a26.21,26.21,0,0,1-11.32,17Q637.37,743,624.16,743Zm16.2-48.75v-4.5q0-8.55-4.05-13.13T624.16,672q-8.1,0-12.3,4.65t-4.2,13.2V693l34.05-.3Z" fill="#fff"/><path d="M804.31,743a46.79,46.79,0,0,1-19.5-3.75,28.49,28.49,0,0,1-12.67-10.73,30.94,30.94,0,0,1-4.58-16.42h18.75a12.69,12.69,0,0,0,4.88,10.57q4.86,3.83,13.27,3.83,8.1,0,12.68-3.75a12.68,12.68,0,0,0,4.57-10.35,15.26,15.26,0,0,0-3.22-9.68,16.31,16.31,0,0,0-9.23-5.62l-12.6-3.45q-12.9-3.3-19.87-11.85t-7-20.7a30.54,30.54,0,0,1,4.2-16.2,27.75,27.75,0,0,1,11.93-10.65,41.3,41.3,0,0,1,18.22-3.75q15.9,0,25.2,8.17t9.45,22H820.06q0-6.45-4.2-10.13T804,646.83q-7.35,0-11.4,3.45T788.56,660a15.33,15.33,0,0,0,3.08,9.67,16.49,16.49,0,0,0,8.92,5.63l13.05,3.6q13,3.3,19.95,11.77t6.9,20.93a29.32,29.32,0,0,1-17.1,27.45A43.48,43.48,0,0,1,804.31,743Z" fill="#fff"/><path d="M873.91,768.48,885.46,737l-30.75-78h20.55l15.3,42.15q1.2,3.45,2.4,8.32t1.8,8q.75-3.15,2-8t2.4-8.32L913.51,659h19.8l-39.75,109.5Z" fill="#fff"/><path d="M980.86,742.83a41.9,41.9,0,0,1-16.5-3,26.19,26.19,0,0,1-11-8.33A21.93,21.93,0,0,1,949.06,719h18.75a8.11,8.11,0,0,0,3.82,6.3,16.11,16.11,0,0,0,9.23,2.4h6.6q6.9,0,10.35-2.7a8.83,8.83,0,0,0,3.45-7.35,8.29,8.29,0,0,0-3.08-6.83q-3.07-2.47-9.52-3.22l-10.2-1.5q-14.1-2-20.7-7.5t-6.6-16.65q0-11.55,7.8-17.93t22.95-6.37h5.7q13.8,0,22,6.15a21.18,21.18,0,0,1,8.85,16.5H999.76a7.55,7.55,0,0,0-3.68-5.4,15.29,15.29,0,0,0-8.47-2.1h-5.7q-6.45,0-9.38,2.32a8.2,8.2,0,0,0-2.92,6.83q0,4.2,2.55,6.22t8.25,2.93l10.65,1.5q14.7,2.1,21.67,7.87t7,17q0,12-8.18,18.67t-24.07,6.68Z" fill="#fff"/><path d="M1083,741.48q-11.85,0-18.53-6.6t-6.67-18.15v-40.8h-22.35V659h22.35V635.73h18.9V659h31.65v16.95h-31.65v40.8q0,7.8,7.65,7.8h22.5v17Z" fill="#fff"/><path d="M1164.16,743a39.19,39.19,0,0,1-18.3-4.05,29.38,29.38,0,0,1-12.08-11.33,33,33,0,0,1-4.27-17v-20.7a33,33,0,0,1,4.27-17,29.36,29.36,0,0,1,12.08-11.32,39.19,39.19,0,0,1,18.3-4,38.37,38.37,0,0,1,18.07,4,29.46,29.46,0,0,1,12,11.32,33,33,0,0,1,4.28,17v14.85h-50.85v5.85q0,8.7,4.2,13.12t12.45,4.43a20.86,20.86,0,0,0,10.2-2.18,9.75,9.75,0,0,0,5-6.37h18.45a26.26,26.26,0,0,1-11.33,17Q1177.36,743,1164.16,743Zm16.2-48.75v-4.5q0-8.55-4-13.13T1164.16,672q-8.1,0-12.3,4.65t-4.2,13.2V693l34-.3Z" fill="#fff"/><path d="M1216.81,741.48V659h15.3v11.1h3.15l-2.55,2.7c0-4.6,1.29-8.3,3.9-11.1a13.08,13.08,0,0,1,10.05-4.2,11.74,11.74,0,0,1,10.27,5.4q3.67,5.4,3.68,14.55l-3.3-7.35h5.1l-2,2.7c0-4.6,1.29-8.3,3.9-11.1a13.45,13.45,0,0,1,10.35-4.2,14.67,14.67,0,0,1,12.15,5.7q4.5,5.7,4.5,15.45v62.85h-16.5v-62.1a10.19,10.19,0,0,0-1.8-6.38,6.23,6.23,0,0,0-5.25-2.32,6.38,6.38,0,0,0-5.18,2.25q-1.87,2.25-1.87,6.45v62.1h-13.5v-62.1a10.11,10.11,0,0,0-1.8-6.45,6.34,6.34,0,0,0-5.25-2.25,6.11,6.11,0,0,0-5.18,2.25,10.43,10.43,0,0,0-1.72,6.45v62.1Z" fill="#fff"/><path d="M159.77,961.48v-56.4H137.12v-17h22.65V875.68q0-10.8,7.2-17.25T186,852h24.15v16.5h-23.7a8.12,8.12,0,0,0-5.77,2,7.13,7.13,0,0,0-2.18,5.48v12.15h31.65v17H178.52v56.4Z" fill="#fff"/><path d="M273,961.48q-11.85,0-18.52-6.6t-6.68-18.15v-40.8H225.47V879h22.35V855.73h18.9V879h31.65v16.95H266.72v40.8q0,7.8,7.65,7.8h22.5v17Z" fill="#fff"/><path d="M354,963q-6.45,0-10.28-3.75T339.92,949q0-6.45,3.82-10.28T354,934.93q6.45,0,10.27,3.82T368.12,949q0,6.45-3.83,10.2T354,963Z" fill="#fff"/><path d="M444.62,963a40.3,40.3,0,0,1-18.38-4,28.77,28.77,0,0,1-12.15-11.25,33.27,33.27,0,0,1-4.27-17.17v-47.7q0-10.05,4.27-17.25a28.93,28.93,0,0,1,12.15-11.18,40.3,40.3,0,0,1,18.38-4q10.65,0,18.37,4a29.65,29.65,0,0,1,12.08,11.18q4.35,7.2,4.35,17.25h-18.9q0-7.8-4.2-11.85t-11.7-4q-7.65,0-11.85,4t-4.2,11.7v47.85q0,7.65,4.2,11.77t11.85,4.13q7.5,0,11.7-4.13t4.2-11.77h18.9a32.94,32.94,0,0,1-4.35,17.1A29.32,29.32,0,0,1,463,959,39.67,39.67,0,0,1,444.62,963Z" fill="#fff"/><path d="M534,962.83a39.33,39.33,0,0,1-18.23-4,29,29,0,0,1-12-11.25,33.27,33.27,0,0,1-4.27-17.17V910a33.31,33.31,0,0,1,4.27-17.18,29,29,0,0,1,12-11.25,39.33,39.33,0,0,1,18.23-4q10.63,0,18.3,4a29.07,29.07,0,0,1,11.92,11.25,33,33,0,0,1,4.28,17v20.55a33.27,33.27,0,0,1-4.28,17.17,29.07,29.07,0,0,1-11.92,11.25Q544.67,962.83,534,962.83Zm0-16.35q7.49,0,11.62-4.13t4.13-11.92V910q0-7.95-4.13-12T534,894q-7.37,0-11.55,4t-4.2,12v20.4q0,7.8,4.2,11.92T534,946.48Z" fill="#fff"/><path d="M593.11,961.48V879h17.7v15.75h4.65l-5.55,9.6q0-13.35,6-20.1t17.7-6.75q13.35,0,21,8.25t7.65,22.8v6H642.61v-4.65q0-7.95-4.12-12.3t-11.33-4.35q-7.35,0-11.32,4.35t-4,12.3v51.6Z" fill="#fff"/><path d="M714,962.83a39.32,39.32,0,0,1-18.22-4,29,29,0,0,1-12-11.25,33.27,33.27,0,0,1-4.28-17.17V910a33.31,33.31,0,0,1,4.28-17.18,29,29,0,0,1,12-11.25,39.32,39.32,0,0,1,18.22-4q10.65,0,18.3,4a29.09,29.09,0,0,1,11.93,11.25,33,33,0,0,1,4.27,17v20.55a33.27,33.27,0,0,1-4.27,17.17,29.09,29.09,0,0,1-11.93,11.25Q724.66,962.83,714,962.83Zm0-16.35q7.5,0,11.63-4.13t4.12-11.92V910q0-7.95-4.12-12T714,894q-7.35,0-11.55,4t-4.2,12v20.4q0,7.8,4.2,11.92T714,946.48Z" fill="#fff"/><path d="M770.56,961.48V879h18.3v15.75H794l-5.1,4.35q0-10.2,5.93-15.9t16.27-5.7q12.15,0,19.43,8.1t7.27,21.75v54.15H819v-52.2q0-7.5-3.9-11.55t-11-4.05q-6.9,0-10.87,4.2t-4,12v51.6Z" fill="#fff"/><path d="M884.86,963q-12.75,0-20.1-6.75t-7.35-18.15q0-12.15,8.1-18.75t23-6.6H909v-7.05q0-6-3.9-9.38t-10.65-3.37a18.11,18.11,0,0,0-10.13,2.7,10.48,10.48,0,0,0-4.87,7.35h-18.3a26.07,26.07,0,0,1,10.5-18.6q9.15-6.9,23.4-6.9,15.15,0,23.92,7.57t8.78,20.48v56H909.61v-14.4h-3l3-4.05a17.66,17.66,0,0,1-6.75,14.55Q896.11,963,884.86,963Zm6.15-14.1q7.95,0,13-4a12.87,12.87,0,0,0,5-10.5V924.28H888.76a12.69,12.69,0,0,0-9.15,3.3,12.77,12.77,0,0,0,.45,17.92Q884,948.88,891,948.88Z" fill="#fff"/><path d="M972,961.48,944.86,879h19.2l15.75,50.1q1.35,4.5,2.62,9.3t1.88,7.65q.75-2.85,2-7.65t2.4-9.15L1004.11,879h19l-27,82.5Z" fill="#fff"/><path d="M1040.41,961.48v-17.1h28.8V895.93h-25V879h43v65.4h25.5v17.1Zm36.3-96.3q-5.7,0-9-2.93a11,11,0,0,1,0-15.75q3.3-2.93,9-2.92t9,2.92a11,11,0,0,1,0,15.75Q1082.41,865.18,1076.71,865.18Z" fill="#fff"/><path d="M1133.11,961.48V879h17.7v15.75h4.65l-5.55,9.6q0-13.35,6-20.1t17.7-6.75q13.35,0,21,8.25t7.65,22.8v6h-19.65v-4.65q0-7.95-4.13-12.3t-11.32-4.35q-7.35,0-11.33,4.35t-4,12.3v51.6Z" fill="#fff"/><path d="M1254,963q-15.75,0-24.75-8.78t-9-23.92V879H1239v51.15c0,5.3,1.29,9.37,3.9,12.22s6.3,4.28,11.1,4.28,8.37-1.43,11-4.28,4-6.92,4-12.22V879h18.75v51.3q0,15.15-9.15,23.92T1254,963Z" fill="#fff"/><path d="M1340.85,962.83a41.9,41.9,0,0,1-16.5-3,26.15,26.15,0,0,1-11-8.33,21.93,21.93,0,0,1-4.28-12.52h18.75a8.13,8.13,0,0,0,3.83,6.3,16.08,16.08,0,0,0,9.22,2.4h6.61q6.88,0,10.34-2.7a8.83,8.83,0,0,0,3.45-7.35,8.29,8.29,0,0,0-3.07-6.83q-3.08-2.47-9.52-3.22l-10.2-1.5q-14.12-2-20.71-7.5t-6.59-16.65q0-11.55,7.8-17.93t23-6.37h5.69q13.8,0,22.06,6.15a21.2,21.2,0,0,1,8.84,16.5h-18.75a7.51,7.51,0,0,0-3.67-5.4,15.33,15.33,0,0,0-8.48-2.1h-5.69c-4.31,0-7.43.77-9.38,2.32a8.21,8.21,0,0,0-2.93,6.83q0,4.2,2.56,6.22t8.25,2.93l10.64,1.5q14.7,2.1,21.68,7.87t7,17q0,12-8.18,18.67t-24.07,6.68Z" fill="#fff"/></svg>