<svg id="Layer_1" data-name="Layer 1" xmlns="http://www.w3.org/2000/svg" xmlns:xlink="http://www.w3.org/1999/xlink" viewBox="0 0 2650.19 2560"><defs><radialGradient id="radial-gradient" cx="800" cy="1244.81" r="374.7" gradientUnits="userSpaceOnUse"><stop offset="0"/><stop offset="1"/></radialGradient><radialGradient id="radial-gradient-2" cx="800" cy="1244.81" r="396.17" xlink:href="#radial-gradient"/><radialGradient id="radial-gradient-3" cx="800" cy="1244.81" r="396.17" xlink:href="#radial-gradient"/></defs><title>atomic_habits</title><rect width="1600" height="2560" fill="#fbdb14"/><path d="M800,1725c-62.26,0-119.71-51.65-161.74-145.42-40.21-89.68-62.35-208.58-62.35-334.77S598.05,999.72,638.26,910c42-93.77,99.48-145.41,161.74-145.41S919.71,816.26,961.74,910c40.21,89.69,62.35,208.58,62.35,334.78S1002,1489.9,961.74,1579.58C919.71,1673.35,862.26,1725,800,1725Zm0-928.37c-48.19,0-96.49,46.11-132.53,126.5-38.4,85.66-59.55,199.9-59.55,321.68s21.15,236,59.55,321.68C703.51,1646.88,751.81,1693,800,1693s96.49-46.1,132.53-126.49c38.4-85.66,59.55-199.9,59.55-321.68s-21.15-236-59.55-321.68C896.49,842.74,848.19,796.63,800,796.63Z" transform="translate(0 0.5)" fill="url(#radial-gradient)"/><path d="M1077.75,1581a459.65,459.65,0,0,1-80.58-7.73c-104.37-18.69-223.45-69.28-335.33-142.43-83-54.26-155.64-116.94-210.15-181.26-54.05-63.77-87.62-126-97.1-179.84-7.27-41.32-.42-76.33,20.37-104.06C413.35,914.44,494.28,897,602.83,916.4c104.37,18.69,223.45,69.27,335.33,142.43,83,54.26,155.64,116.93,210.15,181.25,54,63.77,87.62,126,97.1,179.84,7.27,41.32.42,76.33-20.37,104.06-28.16,37.55-79.22,57-147.29,57Zm-555-640.2c-57.45,0-100.41,15.11-122.13,44.08-15.27,20.37-20.13,47.06-14.46,79.32,17.89,101.64,133,235,293.25,339.84,108.35,70.86,223.22,119.77,323.44,137.71,94.64,17,166.31,3.5,196.61-36.92,15.27-20.37,20.13-47,14.46-79.31-17.89-101.64-133-235-293.25-339.85-108.35-70.86-223.22-119.76-323.44-137.71a425,425,0,0,0-74.48-7.16Z" transform="translate(0 0.5)" fill="url(#radial-gradient-2)"/><path d="M522.25,1581c-68.08,0-119.12-19.41-147.28-57-20.79-27.73-27.64-62.74-20.38-104.06,9.48-53.88,43.06-116.07,97.1-179.83,54.52-64.33,127.19-127,210.16-181.26C773.72,985.67,892.8,935.09,997.18,916.4c108.56-19.44,189.47-2,227.86,49.23,20.79,27.73,27.64,62.74,20.37,104.06-9.48,53.89-43.05,116.07-97.1,179.84-54.51,64.32-127.18,127-210.15,181.26-111.87,73.15-231,123.74-335.33,142.43a459.65,459.65,0,0,1-80.58,7.73Zm148.36-508.73,8.76,13.4c-160.26,104.8-275.36,238.2-293.25,339.85-5.67,32.26-.81,58.94,14.46,79.31,30.3,40.42,102,53.87,196.61,36.92,100.22-17.94,215.08-66.85,323.44-137.71,160.26-104.8,275.36-238.19,293.25-339.84,5.67-32.26.81-59-14.46-79.32-30.3-40.41-102-53.87-196.61-36.92-100.22,18-215.09,66.85-323.44,137.71Z" transform="translate(0 0.5)" fill="url(#radial-gradient-3)"/><circle cx="800" cy="1245.31" r="112.04" fill="#fa2407"/><circle cx="415.85" cy="1325.34" r="48.02" fill="#fa2407"/><circle cx="1056.1" cy="1565.43" r="48.02" fill="#fa2407"/><circle cx="912.04" cy="861.16" r="48.02" fill="#fa2407"/><rect x="84.5" width="37.5" height="2559" fill="#fdab08"/><path d="M303.2,458.55H277a11.42,11.42,0,0,1-7.1-2.05,13,13,0,0,1-4.1-5.25l-8.6-25.4H201.8l-8.6,25.4a12.11,12.11,0,0,1-3.95,5.05,11,11,0,0,1-7.05,2.25H155.8l56.4-145.7h34.6Zm-53.7-55.7L236,363q-1.5-3.79-3.2-8.95t-3.4-11.15q-1.5,6.11-3.2,11.3t-3.2,9l-13.4,39.7Z" transform="translate(0 0.5)" fill="#fa2407"/><path d="M341.8,460.15A36.44,36.44,0,0,1,328.75,458a25.13,25.13,0,0,1-15.34-15.65,36.79,36.79,0,0,1-2-12.5v-53.6H302.6a5.59,5.59,0,0,1-5.8-6.1v-12.1l16.5-3.2,6.11-25.3c.8-3.2,3.06-4.8,6.8-4.8h16.2v30.3H368.1v21.2H342.41v51.5a9.66,9.66,0,0,0,1.75,5.95,5.88,5.88,0,0,0,5,2.35,9.61,9.61,0,0,0,2.84-.35,10.81,10.81,0,0,0,2-.8c.57-.3,1.11-.56,1.61-.8a4.14,4.14,0,0,1,1.75-.35,3.64,3.64,0,0,1,2.25.65,8.59,8.59,0,0,1,1.75,2.05l9.39,14.7a42.78,42.78,0,0,1-13.5,6.75A53.62,53.62,0,0,1,341.8,460.15Z" transform="translate(0 0.5)" fill="#fa2407"/><path d="M428.3,353.25a60,60,0,0,1,21.5,3.7,47.14,47.14,0,0,1,16.65,10.6,47.62,47.62,0,0,1,10.8,16.75,60.37,60.37,0,0,1,3.85,22.15,61.43,61.43,0,0,1-3.85,22.35,47.81,47.81,0,0,1-10.8,16.9,47.23,47.23,0,0,1-16.65,10.7,59.14,59.14,0,0,1-21.5,3.75,59.88,59.88,0,0,1-21.65-3.75,48.22,48.22,0,0,1-16.8-10.7A47.34,47.34,0,0,1,379,428.8a61.64,61.64,0,0,1-3.85-22.35A60.58,60.58,0,0,1,379,384.3a47.16,47.16,0,0,1,10.9-16.75,48.13,48.13,0,0,1,16.8-10.6A60.75,60.75,0,0,1,428.3,353.25Zm0,83.9q10.71,0,15.75-7.55t5.05-23q0-15.39-5.05-22.9t-15.75-7.5q-11,0-16.1,7.5t-5.1,22.9q0,15.41,5.1,23T428.3,437.15Z" transform="translate(0 0.5)" fill="#fa2407"/><path d="M496.7,458.55V354.85h19.2q5.8,0,7.6,5.2l1.7,5.6a59.23,59.23,0,0,1,5.4-4.95,35.1,35.1,0,0,1,6-3.9,34.13,34.13,0,0,1,7-2.6,33.73,33.73,0,0,1,8.25-.95q9.4,0,15.55,4.85a30.23,30.23,0,0,1,9.35,12.95,30.84,30.84,0,0,1,6.35-8.2,34.3,34.3,0,0,1,8.1-5.5,39.56,39.56,0,0,1,9.2-3.1,48.21,48.21,0,0,1,9.65-1,44,44,0,0,1,15.8,2.65,30.2,30.2,0,0,1,11.55,7.7,33.28,33.28,0,0,1,7,12.4,53.53,53.53,0,0,1,2.4,16.65v65.9h-31v-65.9q0-16.09-13.8-16.1a14.2,14.2,0,0,0-10.45,4.15q-4.15,4.16-4.15,11.95v65.9h-31v-65.9q0-8.89-3.5-12.5t-10.3-3.6a17.44,17.44,0,0,0-8,1.9,29.07,29.07,0,0,0-7,5.1v75Z" transform="translate(0 0.5)" fill="#fa2407"/><path d="M701.8,326.45a16.35,16.35,0,0,1-1.5,6.95,18.11,18.11,0,0,1-4.1,5.7,19.78,19.78,0,0,1-6.05,3.9,18.72,18.72,0,0,1-7.35,1.45,17.41,17.41,0,0,1-7.1-1.45,19.7,19.7,0,0,1-5.85-3.9,18,18,0,0,1-4-5.7,16.78,16.78,0,0,1-1.45-6.95,17.41,17.41,0,0,1,1.45-7.1,18.52,18.52,0,0,1,4-5.8,19,19,0,0,1,5.85-3.9,18.06,18.06,0,0,1,7.1-1.4,19.42,19.42,0,0,1,7.35,1.4,19.07,19.07,0,0,1,6.05,3.9,18.65,18.65,0,0,1,4.1,5.8A17,17,0,0,1,701.8,326.45Zm-3.2,28.4v103.7h-31V354.85Z" transform="translate(0 0.5)" fill="#fa2407"/><path d="M796.5,379.45a16.33,16.33,0,0,1-2.7,2.7,6,6,0,0,1-3.7,1,7.9,7.9,0,0,1-4.15-1.1l-4.15-2.45a31.76,31.76,0,0,0-5.4-2.45,23.33,23.33,0,0,0-7.7-1.1,21.58,21.58,0,0,0-9.85,2.1,18.22,18.22,0,0,0-6.85,6,27.54,27.54,0,0,0-4,9.55,56.9,56.9,0,0,0-1.3,12.75q0,14.91,5.75,22.9a18.44,18.44,0,0,0,15.85,8,22.16,22.16,0,0,0,8.55-1.35,26,26,0,0,0,5.35-3c1.47-1.1,2.82-2.11,4-3.05a7.49,7.49,0,0,1,4.65-1.4,6.41,6.41,0,0,1,5.6,2.7l9,11.1a49,49,0,0,1-10.1,8.95,50.59,50.59,0,0,1-10.85,5.4,56.06,56.06,0,0,1-11.15,2.7,82.1,82.1,0,0,1-10.9.75,46.8,46.8,0,0,1-18.15-3.6,44.42,44.42,0,0,1-15.2-10.45,50,50,0,0,1-10.4-16.85,63,63,0,0,1-3.85-22.8,64.16,64.16,0,0,1,3.35-20.95,47.49,47.49,0,0,1,9.9-16.9,46.26,46.26,0,0,1,16.2-11.25,56.8,56.8,0,0,1,22.35-4.1,54.49,54.49,0,0,1,21.4,3.9,51.35,51.35,0,0,1,16.6,11.4Z" transform="translate(0 0.5)" fill="#fa2407"/><path d="M994.6,312.85v145.7h-34V397H901.4v61.6h-34V312.85h34v60.9h59.2v-60.9Z" transform="translate(0 0.5)" fill="#fa2407"/><path d="M1014.7,369.25a63.06,63.06,0,0,1,20.85-12.35,73.05,73.05,0,0,1,24.55-4,45,45,0,0,1,17,3,36.64,36.64,0,0,1,12.8,8.5,37.25,37.25,0,0,1,8.05,13,46.7,46.7,0,0,1,2.8,16.4v64.8h-14.2a14.5,14.5,0,0,1-6.65-1.2c-1.5-.8-2.75-2.46-3.75-5l-2.2-5.7q-3.9,3.3-7.5,5.8a47,47,0,0,1-7.45,4.25,36.33,36.33,0,0,1-8.2,2.6,50.22,50.22,0,0,1-9.65.85,42,42,0,0,1-12.9-1.85,26.84,26.84,0,0,1-9.85-5.45,23.86,23.86,0,0,1-6.25-9,32.18,32.18,0,0,1-2.2-12.35,25.76,25.76,0,0,1,2.8-11.35q2.79-5.74,9.7-10.5t18.6-7.95q11.7-3.19,29.5-3.6v-4.4q0-9.09-3.75-13.15t-10.65-4.05a28.22,28.22,0,0,0-9,1.2,40,40,0,0,0-6.25,2.7q-2.76,1.5-5.35,2.7a14.72,14.72,0,0,1-6.2,1.2,8.9,8.9,0,0,1-5.4-1.6,13.68,13.68,0,0,1-3.6-3.8Zm55.8,47.1a103.37,103.37,0,0,0-15.3,1.6,37.12,37.12,0,0,0-9.5,3,11.48,11.48,0,0,0-4.85,4.1,9.72,9.72,0,0,0-1.35,5c0,3.54,1,6,2.9,7.45s4.77,2.15,8.5,2.15a24.6,24.6,0,0,0,10.5-2.1,31.91,31.91,0,0,0,9.1-6.8Z" transform="translate(0 0.5)" fill="#fa2407"/><path d="M1151.5,365.85a51.5,51.5,0,0,1,13.15-9.15,36.19,36.19,0,0,1,15.95-3.45,34.55,34.55,0,0,1,28.3,13.85,48.68,48.68,0,0,1,7.85,16,74.85,74.85,0,0,1,2.75,21,77,77,0,0,1-3.2,22.9,53.6,53.6,0,0,1-9,17.65,41.28,41.28,0,0,1-14,11.4,39.47,39.47,0,0,1-17.9,4,35.58,35.58,0,0,1-8.4-.9,28.82,28.82,0,0,1-6.8-2.55,27.77,27.77,0,0,1-5.65-3.95,63.25,63.25,0,0,1-5-5l-1.1,5.2a7.11,7.11,0,0,1-2.6,4.4,8.53,8.53,0,0,1-4.8,1.2h-20.6V308.85h31Zm0,64.5a20.3,20.3,0,0,0,7.6,5.4,22.58,22.58,0,0,0,8.3,1.6,19.68,19.68,0,0,0,8.1-1.65,15.57,15.57,0,0,0,6.35-5.4,29.16,29.16,0,0,0,4.15-9.9,65.06,65.06,0,0,0,1.5-15.15,65.8,65.8,0,0,0-1.15-13.25,26.22,26.22,0,0,0-3.4-8.9,13.43,13.43,0,0,0-5.6-5,18.12,18.12,0,0,0-7.65-1.55,19.06,19.06,0,0,0-9.9,2.5,34.16,34.16,0,0,0-8.3,7.3Z" transform="translate(0 0.5)" fill="#fa2407"/><path d="M1270.29,326.45a16.35,16.35,0,0,1-1.5,6.95,18.11,18.11,0,0,1-4.1,5.7,19.78,19.78,0,0,1-6,3.9,18.72,18.72,0,0,1-7.35,1.45,17.41,17.41,0,0,1-7.1-1.45,19.7,19.7,0,0,1-5.85-3.9,18,18,0,0,1-4-5.7,16.94,16.94,0,0,1-1.45-6.95,17.57,17.57,0,0,1,1.45-7.1,18.52,18.52,0,0,1,4-5.8,19,19,0,0,1,5.85-3.9,18.06,18.06,0,0,1,7.1-1.4,19.42,19.42,0,0,1,7.35,1.4,19.07,19.07,0,0,1,6,3.9,18.65,18.65,0,0,1,4.1,5.8A17,17,0,0,1,1270.29,326.45Zm-3.2,28.4v103.7h-31V354.85Z" transform="translate(0 0.5)" fill="#fa2407"/><path d="M1325.89,460.15a36.44,36.44,0,0,1-13.05-2.15,25.18,25.18,0,0,1-15.35-15.65,37,37,0,0,1-2-12.5v-53.6h-8.8a5.59,5.59,0,0,1-5.8-6.1v-12.1l16.5-3.2,6.1-25.3q1.2-4.8,6.8-4.8h16.2v30.3h25.7v21.2h-25.7v51.5a9.72,9.72,0,0,0,1.75,5.95,5.91,5.91,0,0,0,5,2.35,9.63,9.63,0,0,0,2.85-.35,10.81,10.81,0,0,0,2-.8c.57-.3,1.1-.56,1.6-.8a4.17,4.17,0,0,1,1.75-.35,3.6,3.6,0,0,1,2.25.65,8.16,8.16,0,0,1,1.75,2.05l9.4,14.7a42.78,42.78,0,0,1-13.5,6.75A53.62,53.62,0,0,1,1325.89,460.15Z" transform="translate(0 0.5)" fill="#fa2407"/><path d="M1431.49,377.55a8,8,0,0,1-2.55,2.7,6.63,6.63,0,0,1-3.45.8,10.91,10.91,0,0,1-4.4-.95l-4.75-2.05a54.13,54.13,0,0,0-5.75-2.05,25.79,25.79,0,0,0-7.3-.95q-5.89,0-9,2.25a7.26,7.26,0,0,0-3.15,6.25,6.23,6.23,0,0,0,2.05,4.8,18.6,18.6,0,0,0,5.45,3.35,72.86,72.86,0,0,0,7.7,2.75q4.31,1.31,8.8,2.9a79.89,79.89,0,0,1,8.8,3.75,33.12,33.12,0,0,1,7.7,5.3,23.66,23.66,0,0,1,5.45,7.65,25.86,25.86,0,0,1,2,10.8,35.42,35.42,0,0,1-2.8,14.2,30.11,30.11,0,0,1-8.35,11.2,39.35,39.35,0,0,1-13.7,7.3,61.47,61.47,0,0,1-18.75,2.6,56.77,56.77,0,0,1-10.6-1,71.74,71.74,0,0,1-10.25-2.7,55.28,55.28,0,0,1-9.15-4.05,39.35,39.35,0,0,1-7.2-5l7.2-11.4a9.3,9.3,0,0,1,3-3.15,8.93,8.93,0,0,1,4.75-1.15,9.77,9.77,0,0,1,4.85,1.2l4.65,2.6a38.4,38.4,0,0,0,5.85,2.6,25.39,25.39,0,0,0,8.45,1.2,21.48,21.48,0,0,0,6.1-.75,10.67,10.67,0,0,0,4-2.05,8.14,8.14,0,0,0,2.2-2.9,8.05,8.05,0,0,0,.7-3.3,6.76,6.76,0,0,0-2.1-5.1,18.38,18.38,0,0,0-5.5-3.45,69.91,69.91,0,0,0-7.75-2.7q-4.35-1.25-8.85-2.85a70.11,70.11,0,0,1-8.85-3.85,30.5,30.5,0,0,1-7.75-5.7,26.36,26.36,0,0,1-5.5-8.45,31.18,31.18,0,0,1-2.1-12.1,31.54,31.54,0,0,1,2.55-12.55,29.2,29.2,0,0,1,7.65-10.45,37.65,37.65,0,0,1,12.8-7.15,55.49,55.49,0,0,1,18-2.65,58.46,58.46,0,0,1,10.85,1,55.81,55.81,0,0,1,9.85,2.8,47.17,47.17,0,0,1,8.4,4.25,40.86,40.86,0,0,1,6.7,5.35Z" transform="translate(0 0.5)" fill="#fa2407"/><path d="M277.35,1977.16,269,2002.58H258.17l27.5-80.87h12.56l27.63,80.87H314.69L306,1977.16Zm26.56-8.16-8-23.28c-1.76-5.29-3-10.11-4.17-14.75h-.28c-1.16,4.73-2.42,9.66-4,14.61l-8,23.42Z" transform="translate(0 0.5)"/><path d="M337,1960.22c0-6-.2-10.86-.48-15.67h9.33l.58,9.54h.29c2.86-5.45,9.61-10.86,19.19-10.86,8,0,20.45,4.8,20.45,24.73v34.62h-10.5v-33.46c0-9.38-3.53-17.24-13.41-17.24-6.93,0-12.33,4.93-14.22,10.84a16.34,16.34,0,0,0-.73,4.89v35H337Z" transform="translate(0 0.5)"/><path d="M471.2,1964.67H439.85v29.21h35.07v8.7H429.35v-80.87h43.72v8.7H439.85V1956H471.2Z" transform="translate(0 0.5)"/><path d="M520.14,2002.58l-.93-7.33h-.32a21.58,21.58,0,0,1-17.75,8.65c-11.73,0-17.73-8.32-17.73-16.65,0-14.06,12.46-21.78,34.88-21.62v-1.23c0-4.72-1.33-13.45-13.22-13.39a28.17,28.17,0,0,0-15.11,4.33l-2.4-7c4.81-3.1,11.83-5.09,19.15-5.09,17.74,0,22.07,12.13,22.07,23.75v21.72a90.79,90.79,0,0,0,.87,13.88ZM518.49,1973c-11.42-.24-24.49,1.81-24.49,13,0,6.93,4.56,10.1,9.85,10.1a14.53,14.53,0,0,0,14.14-9.71,10.86,10.86,0,0,0,.5-3.33Z" transform="translate(0 0.5)"/><path d="M544.31,1991.84a28.82,28.82,0,0,0,14,4.13c7.71,0,11.28-3.79,11.28-8.64,0-5.08-3.07-7.74-10.78-10.63-10.49-3.79-15.45-9.5-15.43-16.45,0-9.35,7.6-17,20.08-17a28,28,0,0,1,14.21,3.57l-2.62,7.67a22.79,22.79,0,0,0-11.9-3.41c-6.23,0-9.62,3.59-9.62,8,0,4.81,3.42,7,11,9.9,10,3.73,15.2,8.77,15.23,17.44,0,10.28-8,17.48-21.71,17.48a33.06,33.06,0,0,1-16.3-4Z" transform="translate(0 0.5)"/><path d="M597.13,1944.55l12.68,34.3c1.37,3.84,2.79,8.39,3.74,11.84h.29c1-3.41,2.32-7.86,3.7-12.07L629,1944.55h11.19l-15.88,41.34c-7.52,19.95-12.69,30.11-19.87,36.4a29.3,29.3,0,0,1-12.94,6.77l-2.63-8.82a27.72,27.72,0,0,0,9.25-5.16,33.48,33.48,0,0,0,8.83-11.75,6.38,6.38,0,0,0,.81-2.54,6.92,6.92,0,0,0-.73-2.71l-21.4-53.53Z" transform="translate(0 0.5)"/><path d="M726.27,2002.58c-2.33-2.33-4.42-4.61-7.55-7.88a33.43,33.43,0,0,1-23.62,9.2c-15.7,0-24.87-10.58-24.87-22.68,0-11,6.63-18.54,15.77-23.62l0-.38c-4.15-5.24-6.73-11.14-6.73-16.87,0-9.89,7.15-20,20.57-20,10.07,0,17.89,6.66,17.89,17.17,0,8.49-5,15.19-17.75,21.57l0,.4c6.86,8,14.51,16.72,19.71,22.5,3.73-5.64,6.2-13.45,7.79-23.6H737c-2.16,12.7-5.61,22.76-11.65,29.84,4.34,4.63,8.52,9.13,13.4,14.31Zm-12.78-13.91c-4.79-5.25-13.8-15.15-22.71-25.46-4.42,2.79-10.45,7.9-10.45,16.4,0,9.31,6.79,16.35,16.5,16.35A22.38,22.38,0,0,0,713.49,1988.67Zm-24.58-49.34c0,5.8,2.73,10.25,6.15,14.55,8.21-4.67,13.43-9,13.43-15.82,0-5-2.8-10.48-9.41-10.48S688.91,1933.16,688.91,1939.33Z" transform="translate(0 0.5)"/><path d="M773.62,1922.69a114.3,114.3,0,0,1,20.11-1.61c10.25,0,17.84,2.37,22.67,6.72,4.38,3.87,7.11,9.73,7.11,16.93s-2.19,13.11-6.29,17.31c-5.57,5.91-14.51,8.85-24.71,8.85a34,34,0,0,1-8.45-.75v32.44H773.62Zm10.44,39a32.2,32.2,0,0,0,8.66.91c12.67,0,20.32-6.22,20.32-17.27,0-10.71-7.64-15.94-19.1-15.94a49.89,49.89,0,0,0-9.88.83Z" transform="translate(0 0.5)"/><path d="M835.22,1962.63c0-6.86-.18-12.7-.48-18.08H844l.4,11.38h.37c2.71-7.78,9.11-12.7,16.16-12.7a11.76,11.76,0,0,1,2.94.3v9.93a16.55,16.55,0,0,0-3.59-.31c-7.44,0-12.69,5.6-14.13,13.5a28.22,28.22,0,0,0-.42,4.93v31h-10.5Z" transform="translate(0 0.5)"/><path d="M925.8,1973c0,21.49-14.91,30.89-28.86,30.89-15.73,0-27.89-11.47-27.89-29.89,0-19.42,12.76-30.78,28.82-30.78C914.55,1943.23,925.8,1955.33,925.8,1973Zm-46,.67c0,12.73,7.29,22.32,17.59,22.32,10.12,0,17.68-9.46,17.68-22.63,0-9.82-4.94-22.23-17.49-22.23C885.18,1951.14,879.79,1962.68,879.79,1973.68Z" transform="translate(0 0.5)"/><path d="M942.38,1944.55l11.38,32.54c2,5.38,3.46,10.17,4.76,15h.31c1.33-4.81,3-9.64,4.86-15L975,1944.55h11l-22.84,58H953.18l-22.1-58Z" transform="translate(0 0.5)"/><path d="M1000.74,1975.47c.21,14.27,9.26,20.15,19.86,20.15a39.25,39.25,0,0,0,16.08-3l1.85,7.49c-3.7,1.69-10.15,3.7-19.37,3.7-17.83,0-28.55-11.88-28.55-29.29,0-17.58,10.36-31.32,27.31-31.32,18.93,0,23.88,16.61,23.88,27.29a26.06,26.06,0,0,1-.36,5Zm30.89-7.59c.11-6.65-2.72-17.08-14.55-17.08-10.78,0-15.37,9.74-16.21,17.08Z" transform="translate(0 0.5)"/><path d="M1055,1960.22c0-6-.2-10.86-.48-15.67h9.32l.58,9.54h.3c2.85-5.45,9.6-10.86,19.19-10.86,8,0,20.45,4.8,20.45,24.73v34.62h-10.5v-33.46c0-9.38-3.54-17.24-13.42-17.24-6.92,0-12.32,4.93-14.22,10.84a16.68,16.68,0,0,0-.72,4.89v35H1055Z" transform="translate(0 0.5)"/><path d="M1156.16,2002.58l-20.5-80.87h11.08l9.63,40.92c2.33,10.11,4.49,20.13,5.93,28h.28c1.31-8,3.85-17.68,6.58-28.08l10.86-40.8h10.83l9.88,41c2.26,9.69,4.43,19.22,5.68,27.74h.26c1.61-8.86,3.86-17.88,6.38-27.94l10.69-40.78h10.73l-23,80.87h-10.91l-10.18-42.08a245.45,245.45,0,0,1-5.35-26.45h-.24a225,225,0,0,1-6.22,26.43l-11.45,42.1Z" transform="translate(0 0.5)"/><path d="M1272.41,2002.58l-.93-7.33h-.31a21.6,21.6,0,0,1-17.76,8.65c-11.72,0-17.72-8.32-17.72-16.65,0-14.06,12.45-21.78,34.87-21.62v-1.23c0-4.72-1.32-13.45-13.21-13.39a28.2,28.2,0,0,0-15.12,4.33l-2.39-7c4.8-3.1,11.83-5.09,19.15-5.09,17.74,0,22.06,12.13,22.06,23.75v21.72a90.71,90.71,0,0,0,.88,13.88Zm-1.64-29.63c-11.42-.24-24.5,1.81-24.5,13,0,6.93,4.56,10.1,9.86,10.1a14.53,14.53,0,0,0,14.14-9.71,11.18,11.18,0,0,0,.5-3.33Z" transform="translate(0 0.5)"/><path d="M1300.93,1944.55l12.68,34.3c1.36,3.84,2.78,8.39,3.73,11.84h.3c1-3.41,2.32-7.86,3.7-12.07l11.48-34.07H1344l-15.88,41.34c-7.52,19.95-12.69,30.11-19.88,36.4a29.25,29.25,0,0,1-12.94,6.77l-2.62-8.82a27.81,27.81,0,0,0,9.25-5.16,33.47,33.47,0,0,0,8.82-11.75,6.26,6.26,0,0,0,.82-2.54,6.8,6.8,0,0,0-.74-2.71l-21.4-53.53Z" transform="translate(0 0.5)"/><path d="M304.43,2071.84v16.71H319.6v8H304.43v31.27c0,7.23,2.09,11.31,8,11.31a20.94,20.94,0,0,0,6.11-.76l.48,8a26.85,26.85,0,0,1-9.43,1.45c-4.85,0-8.88-1.6-11.39-4.47-2.91-3.2-4.09-8.32-4.09-15.13v-31.69h-9v-8h9v-14Z" transform="translate(0 0.5)"/><path d="M383.3,2117c0,21.49-14.91,30.89-28.86,30.89-15.74,0-27.9-11.47-27.9-29.89,0-19.42,12.77-30.78,28.82-30.78C372,2087.23,383.3,2099.33,383.3,2117Zm-46,.67c0,12.73,7.29,22.32,17.59,22.32,10.12,0,17.68-9.46,17.68-22.63,0-9.82-4.94-22.23-17.49-22.23C342.67,2095.14,337.28,2106.68,337.28,2117.68Z" transform="translate(0 0.5)"/><path d="M422.39,2066.82a97.66,97.66,0,0,1,19.08-1.74c10.49,0,17.18,1.77,22.2,5.86,4.19,3.17,6.76,8,6.76,14.32,0,7.82-5.21,14.7-13.67,17.72v.32c7.69,1.85,16.7,8.19,16.7,20.29a21.25,21.25,0,0,1-6.92,16.11c-5.57,5.23-14.68,7.59-27.92,7.59a141.09,141.09,0,0,1-16.23-.9ZM432.83,2100h9.57c10.93,0,17.41-5.82,17.41-13.66,0-9.38-7.1-13.17-17.68-13.17a41.94,41.94,0,0,0-9.3.75Zm0,38.68a48.2,48.2,0,0,0,8.8.53c10.85,0,20.81-4,20.81-15.73,0-11-9.52-15.61-20.92-15.63h-8.69Z" transform="translate(0 0.5)"/><path d="M535.77,2130.7c0,6.09.2,11.29.48,15.88h-9.33l-.56-9.49h-.29a21.68,21.68,0,0,1-19.21,10.81c-9.08,0-20-5.09-20-25.43v-33.92h10.5v32.06c0,11.06,3.45,18.59,13,18.59,7.07,0,12-4.95,14-9.69a16.42,16.42,0,0,0,1-5.41v-35.55h10.5Z" transform="translate(0 0.5)"/><path d="M565.16,2072.15a6.36,6.36,0,0,1-6.72,6.55,6.29,6.29,0,0,1-6.37-6.55,6.41,6.41,0,0,1,6.56-6.57A6.33,6.33,0,0,1,565.16,2072.15Zm-11.8,74.43v-58h10.5v58Z" transform="translate(0 0.5)"/><path d="M581.44,2061.39h10.5v85.19h-10.5Z" transform="translate(0 0.5)"/><path d="M659.85,2061.39v70.22c0,5.16.19,11,.48,15h-9.39l-.53-10h-.28c-3.23,6.48-10.21,11.35-19.69,11.35-14.06,0-24.91-11.89-24.91-29.48-.09-19.4,12-31.19,26.08-31.19,8.91,0,14.91,4.18,17.51,8.81h.24v-34.65Zm-10.49,50.77a21.7,21.7,0,0,0-.45-4.51,15.6,15.6,0,0,0-15.28-12.14c-10.93,0-17.46,9.58-17.46,22.33,0,11.79,5.86,21.58,17.24,21.58,7.07,0,13.48-4.77,15.43-12.67a17.5,17.5,0,0,0,.52-4.53Z" transform="translate(0 0.5)"/><path d="M764.83,2143a73.34,73.34,0,0,1-24.86,4.44c-12.27,0-22.38-3.1-30.25-10.69-7-6.7-11.26-17.44-11.24-30,0-24.13,16.62-41.78,43.72-41.78,9.35,0,16.75,2,20.23,3.7l-2.61,8.52c-4.31-2-9.71-3.46-17.87-3.46-19.62,0-32.48,12.22-32.48,32.47,0,20.49,12.3,32.63,31.22,32.63,6.83,0,11.46-1,13.88-2.18v-24.09H738.2v-8.36h26.63Z" transform="translate(0 0.5)"/><path d="M833.53,2117c0,21.49-14.91,30.89-28.86,30.89-15.74,0-27.9-11.47-27.9-29.89,0-19.42,12.77-30.78,28.82-30.78C822.27,2087.23,833.53,2099.33,833.53,2117Zm-46,.67c0,12.73,7.29,22.32,17.59,22.32,10.12,0,17.69-9.46,17.69-22.63,0-9.82-4.95-22.23-17.5-22.23C792.9,2095.14,787.51,2106.68,787.51,2117.68Z" transform="translate(0 0.5)"/><path d="M899.52,2117c0,21.49-14.9,30.89-28.85,30.89-15.74,0-27.9-11.47-27.9-29.89,0-19.42,12.77-30.78,28.82-30.78C888.27,2087.23,899.52,2099.33,899.52,2117Zm-46,.67c0,12.73,7.29,22.32,17.59,22.32,10.12,0,17.68-9.46,17.68-22.63,0-9.82-4.94-22.23-17.49-22.23C858.9,2095.14,853.51,2106.68,853.51,2117.68Z" transform="translate(0 0.5)"/><path d="M963.08,2061.39v70.22c0,5.16.2,11,.48,15h-9.38l-.54-10h-.28c-3.23,6.48-10.21,11.35-19.68,11.35-14.07,0-24.91-11.89-24.91-29.48-.09-19.4,11.94-31.19,26.07-31.19,8.91,0,14.91,4.18,17.51,8.81h.24v-34.65Zm-10.49,50.77a22.38,22.38,0,0,0-.44-4.51,15.62,15.62,0,0,0-15.29-12.14c-10.93,0-17.46,9.58-17.46,22.33,0,11.79,5.87,21.58,17.25,21.58,7.06,0,13.48-4.77,15.42-12.67a17.08,17.08,0,0,0,.52-4.53Z" transform="translate(0 0.5)"/><path d="M1016.92,2065.71v33.87H1056v-33.87h10.5v80.87H1056v-37.94h-39.1v37.94h-10.5v-80.87Z" transform="translate(0 0.5)"/><path d="M1116.53,2146.58l-.93-7.33h-.32a21.57,21.57,0,0,1-17.75,8.65c-11.72,0-17.73-8.32-17.73-16.65,0-14.06,12.46-21.78,34.88-21.62v-1.23c0-4.72-1.33-13.45-13.21-13.39a28.2,28.2,0,0,0-15.12,4.33l-2.4-7c4.81-3.1,11.83-5.09,19.16-5.09,17.73,0,22.06,12.13,22.06,23.75v21.72a90.71,90.71,0,0,0,.88,13.88Zm-1.64-29.63c-11.42-.24-24.5,1.81-24.5,13,0,6.93,4.56,10.1,9.85,10.1a14.54,14.54,0,0,0,14.15-9.71,11.18,11.18,0,0,0,.5-3.33Z" transform="translate(0 0.5)"/><path d="M1141.69,2146.58c.28-4,.48-9.81.48-15v-70.22h10.49v36.48h.24c3.71-6.53,10.43-10.64,19.79-10.64,14.42,0,24.55,12,24.5,29.55,0,20.82-13.19,31.12-26.13,31.12-8.37,0-15.07-3.29-19.45-10.86h-.28l-.54,9.54Zm11-23.26a17,17,0,0,0,.44,3.82,16.26,16.26,0,0,0,15.83,12.36c11.1,0,17.62-9,17.62-22.31,0-11.67-6-21.65-17.31-21.65-7.15,0-13.86,5-16,13a17.22,17.22,0,0,0-.61,4.39Z" transform="translate(0 0.5)"/><path d="M1222.26,2072.15a6.35,6.35,0,0,1-6.71,6.55,6.29,6.29,0,0,1-6.37-6.55,6.41,6.41,0,0,1,6.56-6.57A6.32,6.32,0,0,1,1222.26,2072.15Zm-11.79,74.43v-58H1221v58Z" transform="translate(0 0.5)"/><path d="M1251.22,2071.84v16.71h15.16v8h-15.16v31.27c0,7.23,2.08,11.31,8,11.31a20.94,20.94,0,0,0,6.11-.76l.48,8a26.78,26.78,0,0,1-9.42,1.45c-4.85,0-8.88-1.6-11.4-4.47-2.9-3.2-4.09-8.32-4.09-15.13v-31.69h-9v-8h9v-14Z" transform="translate(0 0.5)"/><path d="M1276.77,2135.84a28.86,28.86,0,0,0,14,4.13c7.71,0,11.28-3.79,11.28-8.64,0-5.08-3.07-7.74-10.79-10.63-10.48-3.79-15.44-9.5-15.42-16.45,0-9.35,7.6-17,20.08-17a28.08,28.08,0,0,1,14.21,3.57l-2.62,7.67a22.79,22.79,0,0,0-11.9-3.41c-6.23,0-9.62,3.59-9.62,8,0,4.81,3.41,6.95,11,9.9,10,3.73,15.2,8.77,15.23,17.44,0,10.28-8,17.48-21.71,17.48a33.13,33.13,0,0,1-16.31-4Z" transform="translate(0 0.5)"/><path d="M422.62,2290.58c-2.33-2.33-4.42-4.61-7.55-7.88a33.43,33.43,0,0,1-23.63,9.2c-15.69,0-24.86-10.58-24.86-22.68,0-11,6.62-18.54,15.77-23.62l0-.38c-4.15-5.24-6.73-11.14-6.73-16.87,0-9.89,7.15-20,20.57-20,10.06,0,17.89,6.66,17.89,17.17,0,8.49-5,15.19-17.75,21.57l0,.4c6.86,7.95,14.52,16.72,19.72,22.5,3.73-5.64,6.2-13.45,7.79-23.6h9.56c-2.16,12.7-5.61,22.76-11.65,29.84,4.34,4.63,8.52,9.13,13.4,14.31Zm-12.78-13.91c-4.8-5.25-13.8-15.15-22.71-25.46-4.42,2.79-10.45,7.9-10.45,16.4,0,9.31,6.79,16.35,16.5,16.35A22.39,22.39,0,0,0,409.84,2276.67Zm-24.58-49.34c0,5.8,2.72,10.25,6.15,14.55,8.2-4.67,13.43-9,13.43-15.82,0-5-2.8-10.48-9.41-10.48S385.26,2221.16,385.26,2227.33Z" transform="translate(0 0.5)"/><path d="M470,2210.82a97.66,97.66,0,0,1,19.08-1.74c10.48,0,17.18,1.77,22.2,5.86,4.18,3.17,6.76,8,6.76,14.32,0,7.82-5.21,14.7-13.68,17.72v.32c7.7,1.85,16.7,8.19,16.7,20.29a21.21,21.21,0,0,1-6.92,16.11c-5.56,5.23-14.67,7.59-27.92,7.59a141,141,0,0,1-16.22-.9ZM480.41,2244H490c10.93,0,17.41-5.82,17.41-13.66,0-9.38-7.11-13.17-17.68-13.17a41.87,41.87,0,0,0-9.3.75Zm0,38.68a48.2,48.2,0,0,0,8.8.53c10.85,0,20.81-4,20.81-15.73,0-11-9.52-15.61-20.92-15.63h-8.69Z" transform="translate(0 0.5)"/><path d="M534.8,2250.63c0-6.86-.17-12.7-.48-18.08h9.25l.4,11.38h.38c2.71-7.78,9.11-12.7,16.16-12.7a11.73,11.73,0,0,1,2.93.3v9.93a16.49,16.49,0,0,0-3.59-.31c-7.43,0-12.69,5.6-14.12,13.5a27.26,27.26,0,0,0-.43,4.93v31H534.8Z" transform="translate(0 0.5)"/><path d="M578.77,2263.47c.21,14.27,9.26,20.15,19.86,20.15a39.16,39.16,0,0,0,16.07-3l1.85,7.49c-3.69,1.69-10.14,3.7-19.36,3.7-17.83,0-28.56-11.88-28.56-29.29,0-17.58,10.36-31.32,27.31-31.32,18.93,0,23.88,16.61,23.88,27.29a25.24,25.24,0,0,1-.36,4.95Zm30.89-7.59c.1-6.65-2.73-17.08-14.56-17.08-10.77,0-15.36,9.74-16.2,17.08Z" transform="translate(0 0.5)"/><path d="M665.16,2290.58l-.93-7.33h-.32a21.58,21.58,0,0,1-17.75,8.65c-11.73,0-17.73-8.32-17.73-16.65,0-14.06,12.46-21.78,34.88-21.62v-1.23c0-4.72-1.33-13.45-13.22-13.39a28.17,28.17,0,0,0-15.11,4.33l-2.4-7c4.81-3.1,11.83-5.09,19.15-5.09,17.74,0,22.07,12.13,22.07,23.75v21.72a89.46,89.46,0,0,0,.88,13.88ZM663.52,2261c-11.43-.24-24.5,1.81-24.5,13,0,6.93,4.56,10.1,9.85,10.1a14.53,14.53,0,0,0,14.14-9.71,10.89,10.89,0,0,0,.51-3.33Z" transform="translate(0 0.5)"/><path d="M701.29,2259.16h.24c1.41-2,3.41-4.61,5.07-6.61l17.1-20h12.68L714,2256.41l25.55,34.17H726.66l-20-27.89-5.4,6v21.84H690.8v-85.19h10.49Z" transform="translate(0 0.5)"/><path d="M772.85,2210.82a97.47,97.47,0,0,1,19.07-1.74c10.49,0,17.19,1.77,22.21,5.86,4.18,3.17,6.76,8,6.76,14.32,0,7.82-5.21,14.7-13.68,17.72v.32c7.7,1.85,16.7,8.19,16.7,20.29A21.25,21.25,0,0,1,817,2283.7c-5.57,5.23-14.67,7.59-27.92,7.59a141,141,0,0,1-16.22-.9ZM783.28,2244h9.58c10.93,0,17.4-5.82,17.4-13.66,0-9.38-7.1-13.17-17.67-13.17a42.05,42.05,0,0,0-9.31.75Zm0,38.68a48.33,48.33,0,0,0,8.8.53c10.85,0,20.82-4,20.82-15.73,0-11-9.52-15.61-20.92-15.63h-8.7Z" transform="translate(0 0.5)"/><path d="M870,2290.58l-.93-7.33h-.31A21.6,21.6,0,0,1,851,2291.9c-11.72,0-17.72-8.32-17.72-16.65,0-14.06,12.46-21.78,34.87-21.62v-1.23c0-4.72-1.32-13.45-13.21-13.39a28.2,28.2,0,0,0-15.12,4.33l-2.39-7c4.8-3.1,11.83-5.09,19.15-5.09,17.74,0,22.06,12.13,22.06,23.75v21.72a90.71,90.71,0,0,0,.88,13.88ZM868.35,2261c-11.42-.24-24.5,1.81-24.5,13,0,6.93,4.56,10.1,9.86,10.1a14.53,14.53,0,0,0,14.14-9.71,10.86,10.86,0,0,0,.5-3.33Z" transform="translate(0 0.5)"/><path d="M945.74,2205.39v70.22c0,5.16.2,11,.48,15h-9.38l-.54-10H936c-3.23,6.48-10.21,11.35-19.68,11.35-14.07,0-24.91-11.89-24.91-29.48-.09-19.4,11.94-31.19,26.07-31.19,8.91,0,14.91,4.18,17.51,8.81h.24v-34.65Zm-10.49,50.77a22.38,22.38,0,0,0-.44-4.51,15.62,15.62,0,0,0-15.29-12.14c-10.93,0-17.46,9.58-17.46,22.33,0,11.79,5.87,21.58,17.25,21.58,7.06,0,13.48-4.77,15.42-12.67a17.08,17.08,0,0,0,.52-4.53Z" transform="translate(0 0.5)"/><path d="M1058.25,2249.33c0,27.75-16.91,42.57-37.53,42.57-21.45,0-36.35-16.61-36.35-41.05,0-25.62,15.86-42.46,37.45-42.46C1043.91,2208.39,1058.25,2225.3,1058.25,2249.33Zm-62.83,1.28c0,17.31,9.4,32.8,25.87,32.8s25.91-15.24,25.91-33.62c0-16.1-8.4-32.91-25.78-32.91S995.42,2232.92,995.42,2250.61Z" transform="translate(0 0.5)"/><path d="M1071.69,2248.22c0-6-.19-10.86-.48-15.67h9.33l.58,9.54h.3c2.85-5.45,9.6-10.86,19.18-10.86,8,0,20.46,4.8,20.46,24.73v34.62h-10.5v-33.46c0-9.38-3.54-17.24-13.42-17.24-6.93,0-12.33,4.93-14.22,10.84a16.34,16.34,0,0,0-.73,4.89v35h-10.5Z" transform="translate(0 0.5)"/><path d="M1144.2,2263.47c.21,14.27,9.26,20.15,19.86,20.15a39.16,39.16,0,0,0,16.07-3l1.85,7.49c-3.69,1.69-10.14,3.7-19.36,3.7-17.83,0-28.56-11.88-28.56-29.29,0-17.58,10.36-31.32,27.31-31.32,18.93,0,23.88,16.61,23.88,27.29a25.24,25.24,0,0,1-.36,4.95Zm30.89-7.59c.1-6.65-2.73-17.08-14.56-17.08-10.77,0-15.36,9.74-16.2,17.08Z" transform="translate(0 0.5)"/><path d="M1196.92,2279.84a28.82,28.82,0,0,0,14,4.13c7.7,0,11.27-3.79,11.27-8.64,0-5.08-3.07-7.74-10.78-10.63-10.49-3.79-15.45-9.5-15.42-16.45,0-9.35,7.59-17,20.07-17a28.12,28.12,0,0,1,14.22,3.57l-2.63,7.67a22.79,22.79,0,0,0-11.9-3.41c-6.23,0-9.61,3.59-9.61,8,0,4.81,3.41,6.95,11,9.9,10,3.73,15.2,8.77,15.23,17.44,0,10.28-8,17.48-21.7,17.48a33.07,33.07,0,0,1-16.31-4Z" transform="translate(0 0.5)"/><text y="0.5"/></svg>