<svg id="Layer_1" data-name="Layer 1" xmlns="http://www.w3.org/2000/svg" viewBox="0 0 1600 2560"><title>fear_of_failure</title><rect width="1600" height="2560" fill="#f7af4d"/><polygon points="511.85 2386.96 507.03 2417.31 452.86 2475.13 368.3 2475.33 346.18 2409.81 393.42 2334.7 342.98 2327.69 314.25 2275.5 401.44 2253.9 435.6 2290.65 406.83 2328.7 463.8 2359.86 502.86 2339.19 511.85 2386.96 511.85 2386.96" fill="#9fc1e6"/><path d="M296.18,1757.68H279.32c-6.6-8.79-13.08-22-19-40.84-13.65-43.55-4.54-102.63-4.54-102.63s31.69,37.32,49.6,75.24c-5,12.56-9.65,27.27-10.62,40.64-.89,12-.28,21,1.42,27.59Z" fill="#70c2b9"/><path d="M401.61,1638.32S392.29,1693,367,1730.5a194.76,194.76,0,0,1-21.51,27.18H328.88c2.43-6.36,4.21-15,5.06-26.29a119.45,119.45,0,0,0-2-28.73l11.66-13.09c26.3-27.75,58-51.25,58-51.25Z" fill="#219280"/><path d="M333.94,1731.39c-.85,11.3-2.63,19.93-5.06,26.29h-32.7c-1.7-6.6-2.31-15.64-1.42-27.59,1-13.37,5.59-28.08,10.62-40.64a261.69,261.69,0,0,1,14.18-29.86,238.51,238.51,0,0,1,12.4,43.07,119.45,119.45,0,0,1,2,28.73Z" fill="#2bb19e"/><polygon points="1149.52 2372.64 1134.63 2372.64 1134.63 2169.4 1149.52 2169.4 1149.52 2372.64 1149.52 2372.64" fill="#4b3584"/><path d="M1366,1582.14,1276.23,2161a23.48,23.48,0,0,1-22.92,19.8H1006.1a21.4,21.4,0,0,1-21.26-21.6v-.44a20.38,20.38,0,0,1,21.26-20.88h218.12a17.39,17.39,0,0,0,16.28-15L1307.14,1574a29.39,29.39,0,0,1,32.13-25.72l.59,0a29.43,29.43,0,0,1,26.09,33.85Z" fill="#5a8dbf"/><path d="M491.64,1845.28l-99.68,0a14.48,14.48,0,0,1,6.89-11c16-9.52,34.68-14.34,53.52-18.55,11.55-2.56,23.83-4,35.29-1.34l4,30.87Z" fill="#f5ae9e"/><path d="M972.45,2475.13s-14.21.16-27.85,0h-153c-20.79-.28-34.68,0-34.68,0a82.54,82.54,0,0,1-.4-9.85l-143.8-38.87c-20-5.66-33.47-9.06-33.47-9.06s8.6-57.4,45.9-41c24.43,10.74,84.34-1.86,84.34-1.86l1.21.45c3.79,1.77,16.55,9,33.43,32.58,6.78,9.48,39.76,10.37,48.93-6.9l.32-1.78c2.14,1.81,3.84,4.68,4.93,9.21a64.43,64.43,0,0,1,1.65,15.74c28.06-1.9,71.54-24,71.54-24h0a4,4,0,0,1,.85.09c.16,0,.36,0,.6.08,4.08.72,16.52,4.12,36,19,1.5,1.17,3,2.37,4.6,3.66,9,7.35,41.06-.35,45.43-19.45l-.17-1.82c2.55,1.22,5,3.55,7.19,7.63,14.62,26.68,6.42,66.13,6.42,66.13Z" fill="#219280"/><path d="M796.73,2380.42l-3.61,20.21c-9.19,17.34-42.3,16.45-49.1,6.93-20.3-28.33-34.6-33.14-34.77-33.14l7.34-11.67,80.14,17.67Z" fill="#f5ae9e"/><path d="M1160.25,2138.74l-202.42-2.68,7.46,120.51,10.89,116.24-117.34,16.13-5.71-160-50.28,152.59-108.79-23.94,121.39-318c4.17-12.12,23.67-24.56,36.34-26.34l152-24.19a131.44,131.44,0,0,1-3.29,16.73c-.37,1.38,7.78-.48,21.64-3.16l-4.5,88.62,5.27.36,16.81,1.21,6.08.45,16.82,1.17,6.07.45,16.57,1.17s.08-.6.25-1.7c.77-5.79,3.36-25.52,6.08-50.88,1.58-15.08,3.24-32.18,4.49-49.43a307.17,307.17,0,0,1,40.76,1.54c47.57,5.1,71.92,6.56,84.32,6.68,17.14,56.72-13.74,139.26-60.9,136.46Z" fill="#e53334"/><path d="M1234,2001.7s-4.66,4.09-97.12-5.87a308.91,308.91,0,0,0-40.76-1.55c-1.25,17.26-2.91,34.36-4.49,49.44-2.72,25.36-5.31,45.09-6.08,50.88-.17,1.1-.25,1.7-.25,1.7l-16.57-1.17-6.07-.45-16.82-1.17-6.08-.45-16.81-1.22-5.27-.35,4.5-88.62c-13.86,2.68-22,4.54-21.64,3.16,16.13-60.93-15.07-120.5-23.21-134.56.16-.6-.16-24-.16-24,.32.59-93.88-3.72-93.88-3.72-.12-11.64,2.3-22-3.78-26.15-1.9-1.34-4.37-1.38-6.68-1.42q-32-.3-64.1-.65c.9-.45,1.75-.85,2.6-1.3A108.54,108.54,0,0,0,828.9,1803q3.81-3,7.33-6.36a70,70,0,0,0,5.6-6,71.61,71.61,0,0,0,11.35-17.26c1-2.18,3.92-2.75,3.92-2.75,25.77,7.86,52.75-31.48,42.38-63-4.49-13.65-11.62-16-11.62-16s-1.67,0-4.42-.16c7.53-4.91,12.64-8.15,12.64-8.15,98.3-41.73,248.73,1.46,337.87,318.31Z" fill="#f7af4d"/><path d="M1078.62,2092.77c7.94,14.56.6,93.37.6,93.37-.53,21.23-26.57,27.78-44.34,18.71-12-6.73-13.32-62.65-11.71-73.45,0,0-8.5,3.89-12.5,4.52-2.88.44-12.26-3.13-13.7-5.43-4.38-7-3.85-9.12.49-10.07,7.95-1.73,16.41-15.93,18.06-19,2.35-4.43,12.43-10.74,17.56-11.86l45.54,3.25Z" fill="#f5ae9e"/><path d="M1055.2,2456.87a15.16,15.16,0,1,1-12.58-12.58,15.16,15.16,0,0,1,12.58,12.58Z" fill="#4b3584"/><path d="M906,1474.74H696.63v-98.12H906v98.12Zm-240-19.28v-58.69H690.5v58.69Zm243.11-84.09H693.54a3.05,3.05,0,0,0-3,3v16.23H662.88a3.05,3.05,0,0,0-3,3v64.88a3.05,3.05,0,0,0,3,3H690.5v16.23a3.05,3.05,0,0,0,3,3H909.09a3.05,3.05,0,0,0,3-3V1374.4a3.06,3.06,0,0,0-3-3Z" fill="#2b2150"/><polygon points="888.48 1461.6 851.68 1461.6 851.68 1390.64 888.48 1390.64 888.48 1461.6 888.48 1461.6" fill="#e53334"/><path d="M855.19,1458.09h30.66v-64.82H855.19v64.82Zm33.74,6.13H852.1a3,3,0,0,1-3-3v-71a3,3,0,0,1,3-3h36.85a3,3,0,0,1,3,3v71a3,3,0,0,1-3.05,3Z" fill="#2b2150"/><path d="M367.26,1757.68v48.73c0,21.47-25.24,38.87-56.38,38.87h-1.13c-31.13,0-56.37-17.4-56.37-38.87v-48.73Z" fill="#e53334"/><path d="M1314.69,2156.89c-30.14,46.23-19.27,113.16-5.23,140.16l28.41,4.27c13.05-14.26,39.87-53.63,54.26-94.47,5.49-15.55-13.6-12.25-8.92-30.06,4-15.15,23.08-28.23,27.43-51.32,2.39-12.71-13.7-4.44-12.94-9.93s11.24-18.73,12.6-23.31c9.18-30.7,5.63-47.22,5.63-47.22s-26.19,15.47-39.42,47.76c-16,39-12.19,1.8-26.93,15.24-10.79,9.82-6.69,35-10.7,42.23-8.2,14.93-12.31-11.6-24.19,6.65Z" fill="#108875"/><path d="M1202,2219.63c45,23.26,70.52,76.52,65.32,83.8h-35s-11.45-5-25.69-19.73c-8.5-8.79-9.79-16-17.36-22.19-8.18-6.63-14.66-.14-24.49-2.9-4.81-1.36-8.77-12-17.59-13.85-10.57-2.25-16.72,7.95-26.29,8.69-20.62,1.57-40.84-3-40.84-3s73.42-55.88,121.91-30.8Z" fill="#2bb19e"/><path d="M1238.89,2205c23.08,39.89,39.87,77.69,42.92,95.85h-17.34c-11.85-12.89-28.4-35.74-45.08-64.57-28.87-49.86-75.41-120-75.41-120s66,38.87,94.91,88.73Z" fill="#108875"/><path d="M1447.66,2145c9.83-8.27,11.33-23.36,19.71-33.09s19.88-29.64,32.42-26.85c-10.13,8.81-9.18,31.73-14.85,43.9a199.72,199.72,0,0,1-24.4,38.85c-10,12.64-7.79,30.86-13.55,45.87-6.5,16.95-22.28,28.14-36,40s-26.9,27.25-25.06,45.3h-71.44c-4.9-14.49,2-27.54,14.22-36.68,9.55-7.13,22.12-9.29,31.54-16.57,21.2-16.39,18.23-50.83,36.52-70.42,13.55-14.52,35.67-17.58,50.87-30.35Z" fill="#1d9a85"/><path d="M1417.5,2202.63a2.06,2.06,0,0,1-.68-.11,2,2,0,0,1-1.23-2.59c2.79-7.8,14.5-32.07,31.24-41a2,2,0,0,1,1.92,3.58c-14.45,7.73-26,29.49-29.35,38.82a2,2,0,0,1-1.9,1.34Z" fill="#2b2150"/><path d="M1333.85,2203.46a2.05,2.05,0,0,1-1.06-.3,2,2,0,0,1-.68-2.79c4.64-7.61,9.9-15.06,15-22.27,9.73-13.8,19.79-28.07,25.85-43.93a2,2,0,0,1,3.79,1.45c-6.25,16.33-16.45,30.81-26.33,44.82-5,7.15-10.24,14.55-14.82,22a2,2,0,0,1-1.72,1Z" fill="#2b2150"/><path d="M1310.79,2256.77a2,2,0,0,1-.9-.21,2,2,0,0,1-.91-2.72,239,239,0,0,0,9.33-22.61c1-2.77,2.06-5.55,3.13-8.3a2,2,0,0,1,3.78,1.46c-1.06,2.74-2.09,5.5-3.11,8.25a237.6,237.6,0,0,1-9.52,23,2,2,0,0,1-1.8,1.12Z" fill="#2b2150"/><path d="M1229.24,1984.6v18c-1.56.08-3.56.12-6.13.12v-38.13c2.08,6.54,4.12,13.2,6.13,20Z" fill="#7085b1"/><path d="M1206.46,1916v86.48c-1.92-.08-4-.21-6.13-.37v-102q3.12,7.74,6.13,15.84Z" fill="#7085b1"/><path d="M1182.81,1861.19V2001c-2-.16-4-.37-6.13-.53v-152q3.08,6.25,6.13,12.75Z" fill="#7085b1"/><path d="M1160,1816.76v182.31c-2-.17-4-.37-6.14-.57V1806.3c2,3.39,4.09,6.9,6.14,10.46Z" fill="#7085b1"/><path d="M1137.26,1780.34v216.51a2.69,2.69,0,0,1-.57,0c-1.89-.2-3.72-.37-5.56-.53V1771.8c2,2.78,4.08,5.64,6.13,8.54Z" fill="#7085b1"/><path d="M1114.48,1750.59v244.84c-2-.09-4.08-.12-6.13-.12V1743.65c2.09,2.24,4.14,4.57,6.13,6.94Z" fill="#7085b1"/><path d="M1091.71,1727.46V2043.7c-2.75,25.37-5.36,45.1-6.13,50.89V1722c2,1.79,4.08,3.61,6.13,5.51Z" fill="#7085b1"/><path d="M1068.93,1708.3v386.82l-6.13-.45V1703.92c2,1.42,4.09,2.88,6.13,4.38Z" fill="#7085b1"/><path d="M1046.16,1693.39V2093.5l-6.14-.45v-403c2,1,4.09,2.14,6.14,3.32Z" fill="#7085b1"/><path d="M1022.5,1683.41V2012.3c-1.6-3.57-3.68-8.2-6.13-13.76V1680c2,1,4.08,2.16,6.13,3.39Z" fill="#7085b1"/><polygon points="1017.23 2091.47 1022.5 1988.03 1022.5 2091.84 1017.23 2091.47 1017.23 2091.47" fill="#7085b1"/><path d="M999.73,1673.82v256.41a209.5,209.5,0,0,0-6.13-21V1672.47q3.07.62,6.13,1.35Z" fill="#7085b1"/><path d="M977,1670.12v178.07c-1.06-1.66-1.71-2.52-1.71-2.52l-4.42.21V1669.69c2,.07,4.09.25,6.13.43Z" fill="#7085b1"/><path d="M954.18,1669.5v176.3l-6.14.29V1669.82c2.05-.18,4.09-.29,6.14-.32Z" fill="#7085b1"/><path d="M931.4,1671.93v174l-6.13.28V1673c2-.39,4.09-.75,6.13-1.07Z" fill="#7085b1"/><path d="M908.62,1678v167.76l-6.13.28V1679.87c2-.64,4-1.27,6.13-1.87Z" fill="#7085b1"/><path d="M885.85,1764.63v83.09l-6.13.25V1767.9a41,41,0,0,0,6.13-3.27Z" fill="#7085b1"/><path d="M863.07,1771.41v43.81c-2.53.43-4.62.76-6.13,1v-44.8a33.73,33.73,0,0,0,6.13,0Z" fill="#7085b1"/><path d="M839.42,1797.1v16.65h-6.13v-11.56c2.16-1.8,4.25-3.55,5.93-5.09Z" fill="#7085b1"/><path d="M1275.27,2157.83c16.63,50.41,29.58,107,37.1,143h-30.78c-14.53-25.58-31.42-56.07-47.71-105.3-31.72-95.82-89.61-245.83-89.9-246.66,0,0,98,108.18,131.29,209Z" fill="#54b9a9"/><path d="M1361.4,2475.13H1241.62c-14.1,0-25.52-15.38-25.52-34.36v-146.1h170.82v146.1c0,19-11.42,34.36-25.52,34.36Z" fill="#313b84"/><polygon points="1363.35 2295.55 1216.1 2345.49 1216.1 2333.07 1326.57 2295.55 1363.35 2295.55 1363.35 2295.55" fill="#6fc2b9"/><polygon points="1386.92 2312.17 1386.92 2324.67 1216.1 2382.71 1216.1 2370.21 1386.92 2312.17 1386.92 2312.17" fill="#6fc2b9"/><polygon points="1386.92 2349.79 1386.92 2362.27 1216.1 2420.32 1216.1 2407.83 1386.92 2349.79 1386.92 2349.79" fill="#6fc2b9"/><path d="M1386.92,2387.35v12.51L1218.82,2457a45.8,45.8,0,0,1-2.7-11.54l170.8-58.11Z" fill="#6fc2b9"/><path d="M1386.92,2424.57v12.5l-112,38.06H1241.5a25.62,25.62,0,0,1-2.63-.18l148.05-50.38Z" fill="#6fc2b9"/><path d="M857.1,1770.43,856,1766.5c.41,1.44-2.2,5.43-2.79,6.68q-1.42,3-3.09,5.8c-1.17,2-2.47,4-3.84,5.87a62.82,62.82,0,0,1-4.43,5.59,94.32,94.32,0,0,1-10.08,10,111.78,111.78,0,0,1-23.91,15.16,1.13,1.13,0,0,0,.48-.35c-2.41-.44-71.59-.5-73,1.12h-1.22l-13.49-116.29a22.65,22.65,0,0,0,12.19,5.11c12,1.21,20.18-11.19,13.09-15.81-7.86-5.14-12.48-11.18-12-18.88,2.63-18.55,23.86-9.52,35.49-2.55,0,0,18,3,23.1-7.82a122.88,122.88,0,0,1,43.92,30.43c8.39-.41,36.17.36,47.08.69,2.75.12,4.42.16,4.42.16s7.13,2.35,11.62,16c10.37,31.52-16.61,70.86-42.38,63Z" fill="#f5ae9e"/><path d="M795.47,1792.76a18.73,18.73,0,0,1,21.73,15.11,12.8,12.8,0,0,1,.25,2.94,114.82,114.82,0,0,1-32.56,12.87,18.12,18.12,0,0,1-4.53-9.19,18.7,18.7,0,0,1,15.11-21.73Z" fill="#ee7e94"/><path d="M790.67,1787.61h-.43l-39.77-2.2a3,3,0,1,1,.34-6.07l39.76,2.2a1.52,1.52,0,0,0,1.6-1.16c1.54-6.46,1.2-12-.83-13.8a3,3,0,0,1,4-4.56c5.54,4.89,3.75,15.46,2.72,19.77a7.6,7.6,0,0,1-7.41,5.83Z" fill="#2b2150"/><path d="M815.68,1779.49a3,3,0,0,1-3-2.64c-.11-.88-2.8-21.63-2.27-35.75a3,3,0,1,1,6.07.22c-.51,13.61,2.2,34.53,2.23,34.74a3.05,3.05,0,0,1-2.62,3.41l-.4,0Z" fill="#2b2150"/><path d="M765.77,1812.35a3,3,0,0,1-2.78-1.81l-4.48-10.09a3,3,0,1,1,5.55-2.47l4.48,10.1a3,3,0,0,1-1.54,4,3,3,0,0,1-1.23.26Z" fill="#2b2150"/><path d="M751.38,1748.6a3.07,3.07,0,0,1-3.06-3.07v-9.77a3.07,3.07,0,1,1,6.13,0v9.82a3.08,3.08,0,0,1-3.07,3.07Z" fill="#2b2150"/><path d="M785.27,1708.76a18.72,18.72,0,1,1-15.11,21.73,18.71,18.71,0,0,1,15.11-21.73Z" fill="#ee7e94"/><path d="M792.44,1660.42c-5.07,10.78-23.1,7.82-23.1,7.82-11.63-7-32.86-16-35.49,2.55-.49,7.7,4.13,13.74,12,18.88,7.09,4.62-1.05,17-13.09,15.81a22.72,22.72,0,0,1-12.19-5.11l-9-78c.12,0,.25,0,.37,0,24.51-2.18,39.42-4,59.72,10.54,18.72,13.37,20.83,27.59,20.83,27.59Z" fill="#313b84"/><path d="M959.65,2403.2c-4.38,19.17-36.54,26.9-45.58,19.53-1.58-1.3-3.12-2.51-4.62-3.68-19.53-15-32-18.36-36.1-19.09-.25-.05-.45-.05-.6-.08a4.14,4.14,0,0,0-.86-.09h0l4-13,81.36-11.18,2.27,25.73.16,1.82Z" fill="#f5ae9e"/><path d="M761.59,1684.66h-.22c-6.11-.66-11.67-7.79-12.29-8.6a2,2,0,0,1,.39-2.83,2,2,0,0,1,2.84.38c1.38,1.82,5.78,6.62,9.5,7a2,2,0,0,1-.22,4Z" fill="#2b2150"/><path d="M739.82,1758.28a3,3,0,0,1-2.86-2c-2.11-6-2.28-19.7-2.08-20.7a3,3,0,0,1,6,.83c-.06,2.11.21,13.36,1.79,17.83a3,3,0,0,1-2.86,4.06Z" fill="#2b2150"/><path d="M883.22,1820.71v24.57H490.91l-27.44-236.52H710.33l24.07,207.62H878.72a4.42,4.42,0,0,1,4.5,4.33Z" fill="#5a8dbf"/><path d="M571.81,1732.78c2,13.69,10,23.28,17.82,21.43s12.54-14.46,10.53-28.15-10-23.29-17.83-21.43-12.54,14.46-10.52,28.15Z" fill="#f7af4d"/><path d="M584.29,1707.44a6,6,0,0,0-1.26.14c-5.42,1.29-10.13,11.77-8.21,24.75,1.75,11.94,7.91,19.07,12.86,19.07h0a5.28,5.28,0,0,0,1.25-.15c5.42-1.28,10.13-11.77,8.22-24.75-1.76-11.93-7.92-19.06-12.86-19.06Zm3.39,50h0c-8.87,0-16.81-10.2-18.88-24.25-2.27-15.45,3.37-29.31,12.83-31.55a11.44,11.44,0,0,1,2.66-.31c8.86,0,16.8,10.2,18.87,24.25,2.28,15.45-3.36,29.31-12.83,31.55a11.29,11.29,0,0,1-2.65.31Z" fill="#2b2150"/><polygon points="325.42 1875.07 211.33 1875.07 211.33 1845.28 976.95 1845.28 976.95 1875.07 343.66 1875.07 325.42 1875.07 325.42 1875.07" fill="#4b3584"/><path d="M1486.58,2110.81c-1.21,6.36-2.35,12.4-4.42,16.77a193,193,0,0,1-24,38.25c-6.52,8.27-8.18,18.6-9.8,28.61-1,6.11-2,12.44-4.17,18.07-5.23,13.62-17.14,23.66-28.69,33.34-2.19,1.82-4.34,3.66-6.44,5.48-10.78,9.35-24.52,23.33-26.14,40.71h-41.36a51.36,51.36,0,0,1,17.42-21.23c3.52-2.51,7.29-4.86,10.94-7.13,6.28-3.93,12.8-8,18.43-13.09,8.63-7.78,15.61-18.23,21.92-32.86a2,2,0,0,0-1-2.67,2,2,0,0,0-2.63,1.05c-6.12,14.11-12.77,24.11-21,31.49-5.39,4.86-11.71,8.83-17.87,12.64-3.68,2.31-7.49,4.66-11.15,7.25-7.33,5.23-15.63,14.06-19.44,24.55h-21.07c-1.42-13.21,8.1-22.61,14.46-27.34,4.43-3.29,9.52-5.47,14.92-7.74,5.67-2.44,11.58-4.95,16.69-8.87,12.08-9.37,16.73-24.08,21.27-38.26,1.38-4.37,2.8-8.83,4.42-13.12.76-2.07,1.62-4.09,2.55-6a49.35,49.35,0,0,1,8.63-13.33c6.93-7.45,16.33-11.75,26.25-16.25,8.4-3.8,17.1-7.78,24.36-13.86,5.95-5,9-12.11,12-18.95,2.35-5.39,4.54-10.46,8-14.47,1.73-2,3.6-4.46,5.54-7,5.28-6.85,11.51-15.07,17.75-18-3.36,6.16-4.9,14.18-6.4,22Zm-103.16,330.38c0,17.28-10.08,31.31-22.47,31.31H1241.19c-12.38,0-22.46-14-22.46-31.31v-143h164.69v143Zm-331.15,31.31a12.16,12.16,0,0,0,1.46-1.5,18,18,0,0,0,4.13-14.66,18.26,18.26,0,0,0-5.06-10c9.56-40.4,45.74-70.54,88.85-70.54a90.9,90.9,0,0,1,70.95,34.07V2441c0,13.21,5.27,24.88,13.25,31.48Zm-2.84-5.34a12,12,0,0,1-11.14,4.05,12.07,12.07,0,0,1-7.24-19.85,12.05,12.05,0,0,1,9.19-4.22,18.13,18.13,0,0,1,1.91.12,12.33,12.33,0,0,1,10,10,12.13,12.13,0,0,1-2.76,9.85ZM1022,2462a17.93,17.93,0,0,0,5.64,10.5H976.4c1.7-10.38,5.31-41.91-7.34-65.06a21.62,21.62,0,0,0-7-8.07l-1.87-21.25,16.06-2.18a3,3,0,0,0,2.59-3.33S968,2256.52,968,2256.31c-.37-3.85-6.4-3.36-6,.57l8.6,91.94c-.44,0-30.4,4.13-30.4,4.13V2078l75.44-6.28-1,19.57a3,3,0,0,0,2.71,3.16,27,27,0,0,0-4.5,5.47c-2.72,5.18-10.21,16.25-16,17.51-8.42,1.82-5.75,9.28-2.42,14.62.36.57.88,1.14,1.62,2.28H960.3c-.37-8.56-1-20.59-4.74-31.82-1.22-3.68-7-1.82-5.75,1.91,3.56,10.78,4.69,35.41,5.22,36.55,0,0,3.93,94.68,3.93,94.85.17,3.89,6.28,3.69,6.08-.24l-4-96,29.62.4c-2.61,1-5.81,6.73-6.61,8.41-7.57,15.88,4.25,35,21.88,35h16.61c2.11,11.47,5.47,21,10.66,23.92a40.69,40.69,0,0,0,18.33,4.29,35.51,35.51,0,0,0,18.19-4.69,24.21,24.21,0,0,0,12.24-20.68c.08-.61.17-1.58.33-2.84h48.85v35c-28.75,10.86-51.77,28.17-53.15,29.22a3,3,0,0,0-1.14,3.09,3.1,3.1,0,0,0,2.27,2.31,165.94,165.94,0,0,0,32.56,3.4c3.2,0,6.28-.12,9.24-.32,3.89-.28,7.13-1.83,10.22-3.57v117.65c-40.42,4.41-73.45,33.76-83.63,72.36a16.22,16.22,0,0,0-4.7-1.42A18.24,18.24,0,0,0,1022,2462Zm-50.12-4.39H944.62a33.77,33.77,0,0,1,3.32-11.47,2,2,0,1,0-3.61-1.78,37.9,37.9,0,0,0-3.85,13.25h-.32V2425.8c9.08-3.32,17.75-9.4,21.19-18.47a19.11,19.11,0,0,1,2.35,3.53,57,57,0,0,1,4.41,10.53,53.32,53.32,0,0,0-18.18,14.26,2.09,2.09,0,0,0,.28,2.88,2.22,2.22,0,0,0,1.29.45,2.06,2.06,0,0,0,1.58-.74,49.15,49.15,0,0,1,16.17-12.89c2.8,11.19,3.08,23,2.59,32.26Zm-.67,14.89c-4.84.05-15.57.13-26.16,0h-4.85v-11.39h32.35c-.38,5-1,9-1.34,11.39Zm-14.93-69.56a16.81,16.81,0,0,1-1.57,3.93,16.27,16.27,0,0,1-2,3c-3.08,3.85-7.66,6.85-12.52,9V2381l14-1.9,1.86,21.3.2,2.52Zm-16.08-28v-17.72l30.47-4.24a.59.59,0,0,0,.24-.09l1.67,17.59-32.38,4.46ZM934.9,1997.6l-83,13.2c-13.81,1.9-34.24,15-38.77,28.22L691.68,2356.76a3,3,0,0,0,2.19,4l18.28,4-4.3,6.88c-5.79,1.14-31.24,5.91-53.77,5.91-12.24,0-21.6-1.38-27.76-4.13a35.3,35.3,0,0,0-14-3.2c-29,0-36.07,44.73-36.35,46.64a3,3,0,0,0,2.27,3.4l175.67,47.45c0,1.86.08,3.48.16,4.73H498.39a17.87,17.87,0,0,0,5-9.84l16.21-101.81c0-.08,0-.21,0-.28s21.76-136.55,21.8-136.83a3.06,3.06,0,0,0-3-3.53H294.76a3.07,3.07,0,0,0-3,3.53l38,238.92a17.88,17.88,0,0,0,5,9.84H255.13V1877.7H327c4,0,4-6.14,0-6.14H214.83v-23.65H974.32v23.65H344.19c-3.93.12-3.93,6.19,0,6.14H934.9v119.9Zm-.87,24.48-48.54,11.1c-21.59,4.29-42.22,30.63-40.88,52.1l5.1,143.48-49.26,149.47-102.68-22.61,8.15-21.32s88.93,21.48,89.09,21.48a2,2,0,0,0,.49-4l-88.12-21.27L818,2040.8c3.72-10.86,22.08-22.65,33.95-24.32l82.13-13v18.64Zm0,52.39-35.61,3c-4.66.44-9.24,4.09-8.72,9.15L918,2356.19l-57.38,8.06-4.78-134.68-.61-17.47L850.69,2085c-1.18-18.55,17.34-42.09,36.06-45.82L934,2028.32v46.15ZM934,2354l-12,1.71-28.33-269.48c-.28-2.76,2.72-4.51,5.07-4.71l35.25-2.95V2354Zm0,21.76-9.76,1.34-1.83-17.39L934,2358v17.67Zm0,45.26a37.64,37.64,0,0,1-9.93,1.46c-3.76,0-6.88-.77-8.47-2.11l-2.5-2c-11-8.68-20-13.9-26.79-17a61.69,61.69,0,0,0-10.94-3.93l2.39-7.82,56.24-7.7V2421Zm0,35.76H769.28a2,2,0,0,0-2,1.37,2.18,2.18,0,0,0,1.9,3H934v11.39H791.33c-15.32-.21-26.91-.13-32,0-.49-7.78-.77-29.55,9-41,5.11-6,12.2-8.16,21.52-6.68a40.08,40.08,0,0,0,6.16.47,75.66,75.66,0,0,0,15-1.78,19.72,19.72,0,0,0,7.94,7.95A33.72,33.72,0,0,0,835.9,2436a32.3,32.3,0,0,0,7.53-.89c4.71-1.1,21-8.92,34.53-16,6.72-3.51,12.79-6.8,16.48-9,3.16,2,6.61,4.44,10.37,7.36,2.19,1.69,4.54,3.59,7,5.67,2.75,2.32,7,3.59,12.31,3.59a40.68,40.68,0,0,0,9.93-1.32v31.29Zm-61.61-53.83a72.17,72.17,0,0,1,18.35,7.29c-4.58,2.52-11.54,6.08-18.8,9.65-12.15,5.95-25.08,11.87-29.05,12.76a31,31,0,0,1-21.6-3.12,17.26,17.26,0,0,1-5.75-5c22.28-5.23,47.12-16.86,55.06-20.75l1.79-.85Zm-11.26-34.56,57.65-8.11,1.94,17.35-59,8.1-.6-17.34Zm10.4,22.12-2.18,7.17c-6.52,3.24-41.57,20.1-66.33,22.93a63.11,63.11,0,0,0-1.7-13.16,21.8,21.8,0,0,0-4.62-9.57s2.43-13.57,2.47-13.73c3.89,1.91,6,.24,6.52-1.38l45-136.5,5.1,143a3.1,3.1,0,0,0,3,3c.13,0,12.72-1.75,12.72-1.75Zm-157.89-17.34,4.34-6.89,75.24,16.53-3,16.82c-4.91,8.59-16.61,11.66-26.1,11.66-8.1,0-15.35-2.22-17.66-5.42-14.59-20.38-26.58-29.34-32.82-32.7Zm11.1,16.64c-13.53,3.32-45.46,9.52-52,9.12a30.69,30.69,0,0,1-20-8.67,17.79,17.79,0,0,1-4.29-6.28c1.66,0,3.4.08,5.18.08,23.87,0,50-5,55.35-6.12h0a75.77,75.77,0,0,1,15.76,11.87Zm-130.3,17.36,160.33,43.31a81.22,81.22,0,0,0-1.26,11.14S587,2416.44,582,2415.18c1.94-9.2,9.64-38.82,29.86-38.82a28.28,28.28,0,0,1,11.51,2.72c5.18,2.27,12.15,3.72,20.78,4.33a19.54,19.54,0,0,0,5.72,9.4c10.85,10.58,23.78,10.3,37.56,8.11,12.6-2,25.2-4.38,37.6-7.38a16.5,16.5,0,0,1,3-.77,158.94,158.94,0,0,1,13.5,16.57c4.25,5.88,14.46,8,22.6,8,10.42,0,23.26-3.36,29.91-12.56a18.53,18.53,0,0,1,1.37,4.06,57.75,57.75,0,0,1,1.5,12.19s-4.25-.12-5.83-.37c-11.35-1.73-20.46,1.1-27,8.35-4.29,4.86-6.92,11.11-8.5,17.5,0,0-159.24-43-160.13-43.26-2.51-.69-3.6,3.24-1,3.89ZM492,2469.67l-39.67-36,59.24-64.05-14.67,92.17a12.06,12.06,0,0,1-4.9,7.9Zm-8.71,2.83h-67L448.24,2438,486,2472.25a13.48,13.48,0,0,1-2.63.25Zm-159-95.65,25.28-28.21,40.72,37-56.56,65.88L322,2377.86a3.17,3.17,0,0,0,2.27-1Zm20.78-32.25L321,2371.42l-9-56.89,33.1,30.07Zm189.18-117.47-21,131.65-65.43,70.78L398.77,2385l135.49-157.9Zm-140,154-40.6-36.83,105.88-118h67.58L394.27,2381.16ZM309.63,2300l-11.71-73.67h79.9L309.63,2300Zm76.5-73.67H451.4l-102.22,113.9-37.24-33.79,74.19-80.11ZM349,2472.5c-6.76,0-12.64-4.66-13.61-10.82l-.49-3,59.93-69.13,48.94,44.4-35.25,38.54Zm-80.5-643.59c-7-5.63-12.47-13.7-12.47-23v-45.62H363.75v45.62c0,18.76-19.69,30-35.63,33.76a82.29,82.29,0,0,1-18.81,2.18c-14.65,0-29.62-4-40.84-13Zm-5.23-113.46c-10.58-33.67-7.21-77.52-5.35-94.29,9.16,11.51,30.51,39.55,44.16,67.91-4.9,12.48-9.36,27-10.33,40.31q-1,14.71.77,24.8H280.94c-6.48-9-12.43-22-17.7-38.73ZM305.62,1697c1-2.8,2-5.47,3.08-8.06a247.18,247.18,0,0,1,10.37-22.53,226.53,226.53,0,0,1,9.6,34.92c.53,2.64.94,5.31,1.3,8a103.41,103.41,0,0,1,.93,21.39c-.69,9.48-2.1,17.38-4.17,23.46H298.61c-1.17-5.63-1.66-13.49-.85-24.35.77-10.58,4-22.16,7.86-32.82Zm94.81,139.62c16-9.48,34.72-14.18,52.59-18.15,12.85-2.87,23.14-3.44,31.93-1.78l2.92,25.08H395.93a11.07,11.07,0,0,1,4.5-5.15Zm66.64-224.36H707.44l26.66,230.14,0,.25H493.81l0-.25-26.7-230.14Zm302.76,23c10.33,7.37,15.31,15,17.66,20,1.18,2.56,2.39,4.62,0,6.69-5,4.5-14.79,3.65-17.18,3.36-2.55-.28-6.76-3.81-9.44-5-4.25-1.86-8.83-3.53-13.53-3.69-9.16-.28-15.27,4.9-16.57,13.94-.53,8.35,3.85,15.4,13.37,21.6.44.32,1.86,1.25,1,3.72-1.09,3.08-5.59,7.18-12.11,6.53a18.74,18.74,0,0,1-9.61-3.73l-8.54-73.62c22.56-2.07,36.34-3.12,54.94,10.21Zm23.94,29.1c16.21,8,31.64,18.15,43.44,31.85a84.5,84.5,0,0,1,13.81,22,66.91,66.91,0,0,1,5.63,27.35c-.4,26.66-19,50.44-42.21,63.61-5.71,3.24-9.73,4.29-9.73,4.54-2.91,0-37.84,0-52.14,0a3.09,3.09,0,0,0-.08-3c-1.79-2.88-4.42-8.67-4.1-11.83a3.05,3.05,0,1,0-6.07-.65c-.57,6,4,14.06,4.9,15.48H736.77q-6.27-53.73-12.48-107.37a20.9,20.9,0,0,0,20.29-.73c4.38-2.68,7.82-7.78,6.57-12.77-1.91-7.57-13-10-14.63-17.66-1.5-6.73,6-12.68,12.93-12.36,8.59.45,13.77,7.9,21.88,8.75a30.75,30.75,0,0,0,12.43-1.17,96.75,96.75,0,0,0,9.89-5.92q.12-.06.12-.12Zm93.39,30.3c1.3.69,6.13,3.81,9.45,14,6.31,19.16-2.15,39.5-12.72,50.28-7.82,8-16.94,11.26-25.2,9a69.11,69.11,0,0,0,4.17-23.94,75.12,75.12,0,0,0-9.68-35.41,100.53,100.53,0,0,0-9.82-14.83c7.75,0,43.8.93,43.8.93Zm-8.93,125.18a1.43,1.43,0,0,1,1.49,1.32v21.46H737.66l0-.25L735,1819.88ZM894.48,1688a57.86,57.86,0,0,1,9.52-4.62c9.64,13,12.19,31.56,7,50.89-5.51,20.54-18.8,37.48-34.68,44.2-1.57.69-1.42,2.88.05,3.81s5.58-2,6.84-2.71A58.85,58.85,0,0,0,897,1768.44a78.73,78.73,0,0,0,17.95-33.1c5.38-20.06,2.83-39.38-6.93-53.36,4.29-1.5,8.67-2.84,13.08-3.93a162.29,162.29,0,0,1,97.37,5.71,182.44,182.44,0,0,1,20.13,9c52.68,27.55,122.49,95.42,177.31,260.08,0,.2,11.35,36.22,14.22,46.35-2.84.24-8.59.37-20-.16-.73,0-19.65-1.3-22.41-1.5-23.09-30.51-41.08-50.48-41.53-51-2-2.18-6.28-.32-5.11,3,0,.05,10.79,28.12,17.27,45.35-1.82-.21-3.73-.37-5.63-.57-10.62-1.13-21.24-2.31-31.89-2.88-7.13-.37-14.31-.52-21.48-.37,2.76-38.2,3.77-75.88-.56-96.38-.57-2.48-8.1-22.9-10.5-28.73-4.5-10.94-20.86-47.73-23-52.31-6.08-13.17-43.93-87.6-45.91-91.12a306.61,306.61,0,0,0-17-27c-2.27-3.12-7.34.41-4.91,3.61a295.74,295.74,0,0,1,16.61,26.42c2,3.44,39.63,77.51,45.67,90.63,2.11,4.54,18.39,41.21,22.85,52.07,2.39,5.79,9.68,25.53,10.17,27.67,3.93,18.72,3.32,52.6.93,87.88-.2,3.24-1.37,16.65-2.35,26.47-2.23,22.48-6,60.36-6.8,66.89l-63-5.19,2.92-57.25,1.17-23.1,3.57-70.46a20.49,20.49,0,0,0-3.17-12s-4.89-7.53-6.76-10.53c-4.54-7.17-20.82-33.47-22.89-36.87-5.51-9.08-35.05-61.14-39.59-70.18-2-4.17-4.17-8.63-6-12.8-4-9-6.39-16-7.16-20.59-.65-3.76-6.69-3.08-6,1,.85,5.22,3.32,12.44,7.62,22.08,1.86,4.25,4,8.75,6.11,13,4.58,9.16,25,45.75,26.06,47.49a1,1,0,0,0-.33,0H885.85v-20.87a7.49,7.49,0,0,0-7.54-7.37s-59.52.08-59.4,0c17.3-10.13,30.19-24.31,37.36-40a26.7,26.7,0,0,0,7.54,1.13c8.43,0,17-4,24.39-11.54,11.79-12.08,21.23-34.85,14.1-56.44-3.36-10.22-8.15-14.75-11.06-16.7,1.09-.69,2.19-1.38,3.24-2Zm327.85,358.9c-10.13-15.48-20.34-30-29.86-42.83,3.68.28,12.76.85,13.78.93,3.4.16,12,.49,12.48.49v0c3.52,12.68,4.61,27,3.6,41.37Zm2,191.48c-.77-1.3-1.54-2.6-2.31-3.93-1.9-3.28-3.85-6.65-5.87-10-21-35.46-48.51-77.85-61.75-98.18,19,12.8,56.12,40.39,77.75,73.33,13.49,40.11,27.23,67.38,41.17,92.46h-12.16c-11.26-13.44-24.47-32.73-36.83-53.64Zm-87-55H1146v30.14c-3,.77-5.86,1.71-8.76,2.72v-32.86Zm47.13,0c7,11.19,14.18,22.78,20.94,34-.52-.33-10.57-4.82-15.55-6a71.75,71.75,0,0,0-15.92-1.7,98.25,98.25,0,0,0-20.83,2.35v-28.69Zm-99.06-42.92h71.2c6.76,10.41,15.2,23.52,24.14,37.66h-98c.86-8.94,2.7-37.46,2.7-37.66Zm126.5,0c4.59,12.94,9,25.57,13.08,37.66h-1.6a295.69,295.69,0,0,0-39.67-37.66Zm-24.43-6.14a68.8,68.8,0,0,0,16.25-15.55c.07-.13.2-.25.28-.37q2.86,8,5.67,15.92Zm-26-103.19a2,2,0,0,0-2.8.45l-10,14.35a29,29,0,0,1-21.44,12.35l-34.57,2.88c.66-5.35,5-47.86,6.29-63.94,0,0,12.93-.08,15.27.08,15.53,1.17,31.12,2.19,46.56,4,12,31.89,26.66,71.19,40.68,110.05-.81,1.21-1.7,2.43-2.6,3.6-5.42,7-13.32,14.84-23.58,18.65a336.22,336.22,0,0,0-29.73-20.22,3,3,0,0,0-3.78.52,3.06,3.06,0,0,0-.32,3.77c.17.2,4.74,7.13,11.88,18.11,0,0-67.15,0-67.15-.28.33-14.39-.36-29.3-3-36.35l1.82.12h.2a3,3,0,0,0,3-2.67s2.4-18.39,3.94-31.36l35.33-3a33,33,0,0,0,24.43-14.06l10-14.34a2,2,0,0,0-.53-2.76Zm-140.6,57.48.61-12.2s62.39,5.64,62.68,5.39c-.61,4.82-1.06,8.1-1.46,11.22l-61.83-4.41Zm-2.39-79.66-3,58.67-75.32,6.28v-47l78.28-17.91Zm-17.39-16.54h.05c-.13.7-.29,1.61-.46,2.6-.08.38-.12.75-.21,1.17a5.69,5.69,0,0,1-.16.78c-.83,4.51-1.82,9.81-1.57,10.34h-.05l-58.49,13.4v-18.61l60.89-9.68Zm-.44-6.13h-.12l-60.33,9.62V1877.7h36.77c3.19,5.25,30.88,52.29,23.68,108.62Zm-18.19-111.66c-.12-.16-.16-.28-.24-.4l0,0c-.6-.76-1.68-1.92-1.68-1.92v-25c3.69,6.26,7.33,12.39,10.95,18.33,2,3.37,18.21,29.48,22.7,36.58,1.88,3,6.69,10.46,6.69,10.46a14.26,14.26,0,0,1,2.21,8.35l-4,78.53v0c-.2,0-.52.08-1,.17-1.76.36-5.29,1-8.37,1.6-.77.16-1.49.28-2.14.4-1.39.25-2.56.44-3.2.57,12.92-55-11.68-108.66-21.86-127.71Zm39.66,303.5h-16c-15.82,0-24.3-19.51-14-31.28a18.82,18.82,0,0,1,14-6.38h13.73a256.58,256.58,0,0,0,2.22,37.66ZM1025,2129a2.85,2.85,0,0,0-3-.36c-2.27,1-8.8,3.81-11.71,4.25-3.08.33-6.73-1.21-9.25-2.91-.6-.41-4.85-5.71-4-6.24a2.71,2.71,0,0,1,1.09-.32c10.29-2.27,19.69-19.86,20.1-20.63,1-1.83,4-4.9,7.33-7.74l51.14,3.69a3.56,3.56,0,0,0,.36,1.3c6.12,11.26,1.46,65.71-.85,86a18.35,18.35,0,0,1-9.32,15.93c-8.43,5-21,5.06-30.51.24-9.6-5.4-12.12-57.41-10.17-70.38A3,3,0,0,0,1025,2129Zm121,118.81V2370h-8.76v-120.5c2.81-1.46,5.67-2.4,8.76-1.7Zm66.87,46a2.52,2.52,0,0,0-.29,1.26v105.75a97.24,97.24,0,0,0-60.45-30.41V2250.94a43.13,43.13,0,0,1,3.94,4.18c2.35,2.77,4.59,5.36,7.47,6.17,4,1.14,8.49.82,12.26.33a29.29,29.29,0,0,1,4.47-.45,9.9,9.9,0,0,1,6.7,2.44c3.6,3,5.67,6.21,8.07,10a70.51,70.51,0,0,0,9.06,12c3.08,3.16,6,5.88,8.77,8.24Zm-4.06-12.46a62.27,62.27,0,0,1-8.26-11c-2.56-4.09-5-7.9-9.36-11.47a15.93,15.93,0,0,0-10.53-3.8c-5.11,0-10,1.65-15.08.32-1.09-.29-2.87-2.39-4.46-4.26-3.2-3.68-7.16-8.3-13.32-9.64-6.41-1.3-12,1.38-17.3,4.58-3.29,2-6.41,3.81-9.85,4.05-2.76.24-5.72.32-8.75.32a158,158,0,0,1-24.2-2c14.14-9.56,51.63-32.53,85.7-32.53a58.69,58.69,0,0,1,27.15,6.11,116.48,116.48,0,0,1,10.9,6.44c1.82,3,3.56,6,5.26,9,12,20.75,25.08,40.19,36.51,54.53h-32.66a123.28,123.28,0,0,1-11.75-10.65Zm28.73-198.33-5.19,35.82c-23.9-53.33-49.75-106.69-50.16-107.54a2,2,0,1,0-3.64,1.79c.69,1.37,69,142.37,86.1,194.88,2.59,7.94,5.22,16,7.9,23.95,6.52,19.65,13.24,39.87,19.08,60.08h-11.38c-3.41-6-7.1-12.72-10.94-20.14-5.51-10.6-11.39-22.76-17.35-36.94-4.78-11.31-9.6-23.95-14.38-38.13-.28-.85-.57-1.7-.85-2.56-19.29-58.29-48.06-136.21-69.25-192.37-.8-2.15-11-29-14.51-38.21,6.78,8,16,19.41,26.63,33.23,1.62,2.1,3.28,4.29,5,6.52a791.35,791.35,0,0,1,53,79.62Zm22.2,43.35s-5.11,25.24-8,37c-5.27-12.61-16.13-37.85-16.41-37.85l5.48-36.63c6.88,12.28,13.28,24.84,19,37.48Zm50.41-552.09a26.34,26.34,0,0,1,26.13-23.18c16.09,0,29.21,14.39,26.66,30.51l-87.84,566.4c-7.21-19.86-16.78-39.88-27.43-59.2l62.48-514.53ZM1307.45,2292h-11.59c-5.91-20.66-12.76-41.33-19.45-61.34q-4-12-7.9-23.9c-3.27-10-8.13-22.61-14.29-37.48,0,0,6.11-25,8.26-36.83,3.73,8.71,7.08,17.42,9.92,26.05,15,45.3,27,96.06,35,133.5Zm-5.39-96.47a131.23,131.23,0,0,1,7.46-22.93c1.34-3,3.93-9.76,7.21-14.46,1.79-2.55,3.81-4.5,5.92-4.82,2.63-.37,4.49,2.47,6.81,3.76,3.4,1.91,7.9.33,10.4-2.68s3.37-7,3.81-10.85c1.38-11.67.21-24.92,8.15-33.59,2.92-3.16,4.9-2,6.89,1,2.34,3.73,8.27,3.29,11.54.4s4.74-7.28,6.28-11.37a112.12,112.12,0,0,1,36.79-49.64,93.24,93.24,0,0,1-15.27,57.34c-2.47,3.67-5,9.11-1.5,11.87,4.54,3.6,9.57-1.67,11.19,5,1.13,4.54-2.48,11.22-4.51,15-5.22,9.72-13.21,17.62-18.75,27.1-4.66,7.87-7.54,18.77-1.3,25.41-3.89,9-6.08,18.64-9.49,27.84s-8.26,18.27-16.11,24.1c-7.67,5.68-17.39,7.78-25.7,12.44a47,47,0,0,0-20.78,24.23c-2.6-20.22-11.83-39.43-12.24-59.8a101.55,101.55,0,0,1,3.2-25.33Zm200.11-111.5c-.81-1.5-3.45-2.6-5.3-2.6-10.57,0-19.64,11.86-26.92,21.38-5.71,7.4-10.57,14.12-14.33,22.74-2.84,6.48-5.51,12.63-10.37,16.72-6.59,5.55-14.9,9.31-22.91,13-10,4.57-20.41,9.31-28.18,17.61a52.22,52.22,0,0,0-8.38,12.27c-.81-2-1-4.37,0-8,1.58-5.91,5.79-11.66,10.65-18.26,6.64-9.06,14.21-19.39,16.8-33.23.61-3.2.37-6.89-2.27-9.11-2.42-2.06-5.78-2.14-8.78-2.19,0,0,2.67-7.81,5.06-11.53,2.63-4.13,4.89-7.7,5.59-10,4-13.52,7-27.85,6.39-42a33.29,33.29,0,0,0-.69-6.68,3.09,3.09,0,0,0-4.53-2c-1.1.65-27.2,16.36-40.65,49.19a96.21,96.21,0,0,1-6,12.83,11.37,11.37,0,0,1-1.7,2.59c-1,1.13-1.37.69-2.46-.57-1.7-1.94-4.06-4.57-7.86-4.57-2.59,0-5.22,1.26-8.1,3.85-7.68,7-8.62,20-9.39,30.52-.36,5.1-.73,10.36-1.9,12.47-.48.93-1.17,2.59-2.22,3-1.22.45-2.44-.77-3.41-1.45-1.94-1.42-4.41-3.16-7.52-3.16-3.86,0-7.33,2.55-10.89,8.05-10.61,16.32-16.24,35-18.47,53.57-4.41-16.2-9.18-32.55-14.28-48.34l89.5-577.31a32.22,32.22,0,0,0-6.36-24.86c-17.44-22.59-55-12.55-58.41,15.83l-61.41,505.86c-4.82-8.38-9.8-16.59-14.86-24.58,2.1-17,1.33-34.24-2.67-49.74,5.54-.08,9.39-.49,10.69-1.38a1,1,0,0,1,.16-.12,3,3,0,0,0,.93-3.12c-.93-3.28-1.86-6.52-2.8-9.76-.68-2.31-6.95-23.07-8.54-28.05-.16-.49-13.72-40-13.84-40.44-4.54-12.31-9.31-24.49-14.45-36.56-4.66-11.09-9.64-22.06-14.86-32.91-4.82-9.91-9.88-19.75-15.22-29.39-4.9-8.86-10-17.61-15.46-26.15q-7.41-11.72-15.55-23-7.4-10.32-15.54-20.12c-5-6-10.08-11.82-15.47-17.45a264.32,264.32,0,0,0-44.53-38,207.77,207.77,0,0,0-34.94-18.66,183.82,183.82,0,0,0-30.24-9.4,158.27,158.27,0,0,0-34.32-3.68,170.71,170.71,0,0,0-29.43,2.59c-4.65.89-9.28,1.91-13.84,3.12-3.86,1-7.65,2.27-11.43,3.6a125.32,125.32,0,0,0-13.47,5.59.12.12,0,0,1-.13.08c-3.36,1.7-7,3.6-9.51,6.48,0,0-35.5-1-44.89-.77a125.68,125.68,0,0,0-43-29.55c-1.26-4.5-5.83-16.44-21.66-27.77-20.48-14.66-35.91-13.4-59.19-11.34l-1.17-10.28a3,3,0,0,0-3-2.71H464.3a3,3,0,0,0-3,3.4l23.32,200.91c-9.19-1.42-19.71-.77-32.5,2.1-18.3,4.09-37.57,8.91-54.33,18.87a17.06,17.06,0,0,0-7.86,10.36h-48.7c17.18-7.34,28.65-20.69,28.65-35.83v-48.73a3,3,0,0,0-3-3H352.27a216.92,216.92,0,0,0,17.09-22.48c25.25-37.69,34.55-91.25,34.95-93.48a3.06,3.06,0,0,0-4.81-3c-.32.24-32.08,24-58.23,51.65-2.7,2.84,1.66,7,4.41,4.18,18.75-19.84,40.53-37.7,51-46-3.56,16.4-13.46,55-32.41,83.22a196.89,196.89,0,0,1-20.21,25.89H333a108.59,108.59,0,0,0,3.84-23c2.34-31.73-13.82-71.61-14.51-73.31a3.07,3.07,0,0,0-5.45-.37,255.08,255.08,0,0,0-11.76,24c-17.9-35.42-45.5-68.21-46.91-69.91a3.06,3.06,0,0,0-5.3,1.5c-.4,2.48-9.05,60.42,4.65,104.16,5.13,16.43,10.63,28.4,16.12,37H252.91a3.05,3.05,0,0,0-3,3V1806c0,15.14,11.48,28.49,28.65,35.83H211.74a3.05,3.05,0,0,0-3,3v29.84a3.05,3.05,0,0,0,3,3h36.38v594.8H99.51a3.14,3.14,0,0,0-3.14,2.53,3.06,3.06,0,0,0,3,3.6H1466.07a3.07,3.07,0,1,0,.07-6.13H1376.3c8-6.66,13.25-18.43,13.25-31.76v-146a3,3,0,0,0-1-2.22c1-11.75,8.74-23.61,24-36.89,2.1-1.82,4.21-3.64,6.36-5.42,12.15-10.2,24.65-20.73,30.44-35.78,2.39-6.2,3.44-12.88,4.5-19.27,1.57-9.64,3-18.75,8.57-25.79a201.74,201.74,0,0,0,24.74-39.43c2.35-5,3.6-11.42,4.86-18.18,1.9-9.8,3.8-19.95,9.23-24.65,1.22-1,1.37-2.11.89-3Z" fill="#2b2150"/><path d="M350.55,180.27q-8.76-.09-32.58-.71-5.94,0-17.74-.54-10.38-.87-10.39-10.08a9.37,9.37,0,0,1,3.13-7.19,10.83,10.83,0,0,1,7.66-2.89q9.84,0,29.57.58t29.57.59h14.29a16.06,16.06,0,0,1,7.42,1.64c2.66,1.36,4,3.36,4,6q0,4.29-4.69,10.23-3.9,4.38-7.89,8.75a133.16,133.16,0,0,0-18.36,27q-2.65,5-14,29.3-1.49,3.21-6.64,17.5a80.55,80.55,0,0,1-8,16.87,10,10,0,0,1-8.67,4.46,11.45,11.45,0,0,1-7.66-2.89,9.12,9.12,0,0,1-3.36-7.19q0-3.36,5.23-15.63,8.44-19.68,16.8-39.37Q339.07,193.79,350.55,180.27Z"/><path d="M523.59,273.62q-18.2,6.81-46,6.8a11.32,11.32,0,0,1-8.4-3.9,12,12,0,0,1-3.71-8.36V185.34q-.24-5.31-.39-10.62a54.58,54.58,0,0,1,.39-10.16q1.09-7.34,13.67-8.9,5.94-1.72,19.69-1.72,14.76,0,28.28,9.53Q543,174.56,543,191.2q0,9-3.28,15.16-2.58,5-9,10.7a38.63,38.63,0,0,1,13.44,11.1q6.65,8.28,6.64,16.48,0,10.4-11.33,19.69A57,57,0,0,1,523.59,273.62Zm-24.76-98.51q-10.08,0-12.11.16l.08,16.56-.08,16.4a55.79,55.79,0,0,0,10.7.55q23.91-1.87,23.91-17.58,0-5.53-7-10.7A25.55,25.55,0,0,0,498.83,175.11ZM508,230.34q-7.11,0-21.25-.54V259a132.89,132.89,0,0,0,29.14-5.16q13.75-3.9,13.59-8.44-.23-6-8.82-10.7A33.51,33.51,0,0,0,508,230.34Z"/><path d="M630.78,281q-3.6,0-11.4-7a104.06,104.06,0,0,1-12.66,5.19,31.45,31.45,0,0,1-9.3,1.76q-18.82,0-28.24-10.08t-9.41-30.16q0-18.82,13.9-32.22A46.3,46.3,0,0,1,607,195.11q7.42,0,17.19,4.18,11.79,5,11.8,11.68a7.23,7.23,0,0,1-1.8,4.87,52.39,52.39,0,0,0-1.21,7.77q-.43,4.68-.43,10.95,0,14.77,2.11,21.27c.16.46,1.35,3.15,3.59,8q3,6.66,3,7.58a8.57,8.57,0,0,1-3.16,6.81A11,11,0,0,1,630.78,281Zm-19.37-52.74a52.52,52.52,0,0,1,.35-5.74q.35-3.24,1-7.22a17.37,17.37,0,0,0-2.77-1.14,7.83,7.83,0,0,0-2.07-.35q-10.63,0-18.59,8.32a27,27,0,0,0-8,19.26q0,10.47,3.75,15.74t11.25,5.27a26.26,26.26,0,0,0,9.18-1.6,28.32,28.32,0,0,0,8.16-4.72Q611.41,237.45,611.41,228.23Z"/><path d="M709.45,198.16q1-26.64,2.43-36.8,1.32-9.23,10.15-9.22a9.69,9.69,0,0,1,7.42,3,10.31,10.31,0,0,1,2.82,7.34q0,11.43-1.76,34.08t-1.76,34.08q0,27.93,1.8,37.4a13.13,13.13,0,0,1,.23,2.28,9.15,9.15,0,0,1-3.12,7.14,10.57,10.57,0,0,1-7.27,2.81,9.18,9.18,0,0,1-8.59-5.16,31.71,31.71,0,0,1-11,4.18,69.85,69.85,0,0,1-11.8,1q-17.49,0-29.06-11.18-11.79-11.4-11.79-29.06,0-21,11.87-33.94t31-12.93a39.74,39.74,0,0,1,10.46,1.25A23.32,23.32,0,0,1,709.45,198.16Zm-1.56,24.61a17.78,17.78,0,0,0-6.72-7.35,19.19,19.19,0,0,0-9.84-2.42q-11.57,0-17.35,6.68t-5.78,20a19.37,19.37,0,0,0,6.25,14.45,20.32,20.32,0,0,0,14.53,6q6,0,9.15-1.41a41.29,41.29,0,0,0,7.18-5,26.47,26.47,0,0,0,2.58-2.42Q707.74,247.61,707.89,222.77Z"/><path d="M924.92,167.82a38.71,38.71,0,0,0-1.56,10c0,1.46-.15,3.72-.43,6.78s-.43,5.33-.43,6.79q0,7.45-.78,22.13t-.78,22.13q0,5.73.86,17.1t.86,17.11a9.83,9.83,0,0,1-3,7.3,10.44,10.44,0,0,1-7.58,3,11.75,11.75,0,0,1-8-2.93A9.14,9.14,0,0,1,900.7,270q0-5.7-.5-17.11t-.51-17.11q0-4.45.15-7.89a233.31,233.31,0,0,0-30.31,3.83q-15,2.73-30,5.55-.15,4.95-1.09,16.55-.78,10.22-.78,16.7a8.84,8.84,0,0,1-3,6.79,10.83,10.83,0,0,1-7.58,2.77,10.58,10.58,0,0,1-7.58-2.9,9.4,9.4,0,0,1-3-7.09q0-7.71,1.36-23t1.37-23q0-9.76.47-29.4t.47-29.4a9.41,9.41,0,0,1,3-7.1,11.27,11.27,0,0,1,15.15.07,9.78,9.78,0,0,1,3.05,7.27q0,5.94-.43,17.85t-.43,17.85q0,2-.55,7.5a72.66,72.66,0,0,0-.39,7.89l30-5.62a225.88,225.88,0,0,1,30.31-3.6q.31-5.28,1-28.42.15-6.07,3.67-14,4.38-9.72,9.92-9.71A11,11,0,0,1,921.8,158a9.48,9.48,0,0,1,3.43,7.46A9,9,0,0,1,924.92,167.82Z"/><path d="M1005.94,281q-3.6,0-11.41-7a103.34,103.34,0,0,1-12.65,5.19,31.45,31.45,0,0,1-9.3,1.76q-18.83,0-28.24-10.08t-9.42-30.16q0-18.82,13.91-32.22a46.28,46.28,0,0,1,33.28-13.4q7.42,0,17.19,4.18,11.79,5,11.79,11.68a7.27,7.27,0,0,1-1.79,4.87,51.1,51.1,0,0,0-1.21,7.77q-.44,4.68-.43,10.95,0,14.77,2.11,21.27c.15.46,1.35,3.15,3.59,8q3,6.66,3,7.58a8.58,8.58,0,0,1-3.17,6.81A10.92,10.92,0,0,1,1005.94,281Zm-19.38-52.74a55.14,55.14,0,0,1,.35-5.74q.36-3.24,1.06-7.22a17.76,17.76,0,0,0-2.77-1.14,7.83,7.83,0,0,0-2.07-.35q-10.64,0-18.6,8.32a27,27,0,0,0-8,19.26q0,10.47,3.75,15.74t11.25,5.27a26.22,26.22,0,0,0,9.18-1.6,28.5,28.5,0,0,0,8.17-4.72Q986.56,237.45,986.56,228.23Z"/><path d="M1064.53,280a56.65,56.65,0,0,1-20.78-3.83,9.57,9.57,0,0,1-7,2.9,10.21,10.21,0,0,1-7.23-2.82,9.24,9.24,0,0,1-3-7c0-1.25.08-3.16.24-5.74s.23-4.49.23-5.74V169.17a19.87,19.87,0,0,1,2.5-10c2.09-3.7,5-5.55,8.91-5.55q8.36,0,8.36,9.07a30.52,30.52,0,0,1-.27,3.24,28.45,28.45,0,0,0-.28,3.24v29.92a57.41,57.41,0,0,1,11.1-4.8,35.3,35.3,0,0,1,10.23-1.6q18.36,0,29.69,13.36,10.55,12.49,10.54,30.31,0,18.12-12.26,30.7Q1083,280,1064.53,280Zm3-67.26a23.74,23.74,0,0,0-9.37,2.34,71,71,0,0,0-12,7q-.08,7.42,0,33.21,10.71,4.6,18.36,4.6a21.63,21.63,0,0,0,16.33-6.68q6.41-6.67,6.41-16.83t-5.24-16.8A17.65,17.65,0,0,0,1067.5,212.69Z"/><path d="M1146.8,240q0,4.46.27,14.3t.27,14.29a9.92,9.92,0,0,1-3,7.47,11.67,11.67,0,0,1-15.47,0,9.93,9.93,0,0,1-3-7.47q0-4.44-.27-14.29t-.28-14.3q0-6.94.79-17.42t.78-17.42a9.9,9.9,0,0,1,3-7.46,11.67,11.67,0,0,1,15.47,0,9.9,9.9,0,0,1,3,7.46q0,6.94-.78,17.42T1146.8,240Zm-6.64-57.26a12.43,12.43,0,0,1-8.68-3.36,11,11,0,0,1,0-16.41,12.43,12.43,0,0,1,8.68-3.36,12.28,12.28,0,0,1,8.63,3.36,11.09,11.09,0,0,1,0,16.41A12.28,12.28,0,0,1,1140.16,182.77Z"/><path d="M1222.34,213.78c-1.09,0-2.38,0-3.86-.12s-2.78-.11-3.87-.11a52.19,52.19,0,0,0-7.42.62q1.41,31.56,1.4,41.25c0,.68,0,1.94.08,3.79s.08,3.35.08,4.49q0,18-11.33,18A11.09,11.09,0,0,1,1190,279a8.75,8.75,0,0,1-3.44-7q0-2.81.24-8.43c.15-3.75.23-6.57.23-8.44q0-9.45-1.4-40.47-4.86-.24-14.65-1.29t-9.81-10.12a10.27,10.27,0,0,1,10.63-10.46q2.88,0,13.28.93c0-1.66-.19-4.42-.39-8.28q-.32-5-.31-7.73a9.36,9.36,0,0,1,3.2-7.27,11.15,11.15,0,0,1,7.73-2.89q11.57,0,11.57,19.45l-.16,6.41a57,57,0,0,1,7.89-.7q9,0,12.27,1.17,6.24,2.19,6.25,9.53a9.94,9.94,0,0,1-3.05,7.42A10.63,10.63,0,0,1,1222.34,213.78Z"/><path d="M1297.58,219.48q-7.74,0-9.3-6.48a37.52,37.52,0,0,0-6.4-.55q-18.84,0-18.83,5.16,0,3,11.33,8.2,15.46,7.11,20.93,11.1,11.32,8.19,11.33,18.51,0,13.44-12.5,20.39-10.08,5.55-24.76,5.55a54.13,54.13,0,0,1-19-3.2q-11.72-4.38-11.72-12.89,0-7.81,9.3-7.82,3.58,0,10.39,2.27t10.47,2.26q15.86,0,15.94-6.4,0-4-11-8.83-16.1-7.11-20.62-10.23-11-7.74-11-18.83,0-15.7,16.64-21.17,9.76-3.21,29.69-3.21,7.8,0,11.56,2,5.16,2.74,5.16,10.08Q1305.16,219.49,1297.58,219.48Z"/><path d="M534.77,405.78q-1.65,0-3.87-.12c-1.49-.07-2.77-.11-3.87-.11a52.3,52.3,0,0,0-7.42.62Q521,437.73,521,447.42c0,.68,0,1.94.07,3.79s.08,3.35.08,4.49q0,18-11.33,18a11.09,11.09,0,0,1-7.42-2.65,8.75,8.75,0,0,1-3.44-7q0-2.81.24-8.43c.16-3.75.23-6.57.23-8.44q0-9.45-1.4-40.47-4.85-.24-14.65-1.29t-9.81-10.12a10.27,10.27,0,0,1,10.63-10.46q2.89,0,13.28.93-.08-2.49-.39-8.28-.32-5-.31-7.73a9.36,9.36,0,0,1,3.2-7.27,11.15,11.15,0,0,1,7.73-2.89q11.57,0,11.57,19.45l-.16,6.41a57,57,0,0,1,7.89-.7q9,0,12.27,1.17,6.24,2.19,6.25,9.53a9.94,9.94,0,0,1-3,7.42A10.62,10.62,0,0,1,534.77,405.78Z"/><path d="M578.2,397.19a39.4,39.4,0,0,1,12.23-8.4,35.27,35.27,0,0,1,14-2.77q13.35,0,19.21,7.5,4.38,5.63,5.32,17.26.39,9.62.86,19.3,1.25,12.57,1.56,15.31A141.71,141.71,0,0,0,634,460.55a12.68,12.68,0,0,1,.4,2.89,9.1,9.1,0,0,1-3.33,7.22,11.55,11.55,0,0,1-7.77,2.86q-7.89,0-10.23-7.82a125.48,125.48,0,0,1-3.44-17.81,148,148,0,0,1-1.41-18.12c0-1.31.07-3.27.2-5.9s.19-4.6.19-5.9q0-5.79-.15-6.72c-.47-2.86-1.83-4.3-4.06-4.3q-8.68,0-15.71,8-3.58,4-9.84,15.16,0,28.28-2.74,34.06-3,6.41-9.68,6.41a11.6,11.6,0,0,1-7.78-2.93,9.2,9.2,0,0,1-3.4-7.23,14.64,14.64,0,0,1,.86-4.14q.55-1.72.94-21.09-.39-15.71.16-52.27l.15-2.58q.48-9.21.47-12.34a50.87,50.87,0,0,0-.74-7.15,49.38,49.38,0,0,1-.74-7.15,9.34,9.34,0,0,1,3.2-7.3,11.24,11.24,0,0,1,7.74-2.85q7.72,0,10.39,8.28,1.49,4.68,1.48,14.37,0,7.81-.47,15.86Q578.21,389.7,578.2,397.19Z"/><path d="M714.84,473q-3.58,0-11.4-7a102.77,102.77,0,0,1-12.66,5.19,31.39,31.39,0,0,1-9.3,1.76q-18.83,0-28.24-10.08t-9.41-30.16q0-18.83,13.9-32.22A46.31,46.31,0,0,1,691,387.11q7.41,0,17.18,4.18Q720,396.31,720,403a7.23,7.23,0,0,1-1.8,4.87,52.39,52.39,0,0,0-1.21,7.77c-.28,3.12-.43,6.77-.43,10.95q0,14.78,2.11,21.27c.16.46,1.36,3.15,3.6,8q3,6.66,3,7.58a8.57,8.57,0,0,1-3.16,6.81A11,11,0,0,1,714.84,473Zm-19.37-52.74a55.14,55.14,0,0,1,.35-5.74c.23-2.16.59-4.57,1.06-7.22a17.82,17.82,0,0,0-2.78-1.14,7.83,7.83,0,0,0-2.07-.35q-10.62,0-18.59,8.32a27,27,0,0,0-8,19.26q0,10.47,3.75,15.74t11.25,5.27a26.22,26.22,0,0,0,9.18-1.6,28.32,28.32,0,0,0,8.16-4.72Q695.47,429.45,695.47,420.23Z"/><path d="M791.48,405.78c-1.09,0-2.38,0-3.86-.12s-2.78-.11-3.87-.11a52.19,52.19,0,0,0-7.42.62q1.41,31.56,1.4,41.25c0,.68,0,1.94.08,3.79s.08,3.35.08,4.49q0,18-11.33,18a11.09,11.09,0,0,1-7.42-2.65,8.75,8.75,0,0,1-3.44-7q0-2.81.24-8.43c.15-3.75.23-6.57.23-8.44q0-9.45-1.4-40.47-4.85-.24-14.65-1.29t-9.81-10.12a10.27,10.27,0,0,1,10.63-10.46q2.88,0,13.28.93-.08-2.49-.39-8.28-.32-5-.31-7.73a9.36,9.36,0,0,1,3.2-7.27,11.15,11.15,0,0,1,7.73-2.89Q776,359.53,776,379l-.16,6.41a57,57,0,0,1,7.89-.7q9,0,12.27,1.17,6.24,2.19,6.25,9.53a9.94,9.94,0,0,1-3,7.42A10.63,10.63,0,0,1,791.48,405.78Z"/><path d="M948.52,473q-3.6,0-11.41-7a102.77,102.77,0,0,1-12.66,5.19,31.33,31.33,0,0,1-9.29,1.76q-18.84,0-28.25-10.08t-9.41-30.16q0-18.83,13.91-32.22a46.28,46.28,0,0,1,33.28-13.4q7.41,0,17.19,4.18,11.79,5,11.79,11.68a7.27,7.27,0,0,1-1.79,4.87,51,51,0,0,0-1.22,7.77c-.28,3.12-.43,6.77-.43,10.95q0,14.78,2.11,21.27c.16.46,1.36,3.15,3.6,8q3,6.66,3,7.58a8.57,8.57,0,0,1-3.16,6.81A10.92,10.92,0,0,1,948.52,473Zm-19.38-52.74a55.14,55.14,0,0,1,.35-5.74q.36-3.24,1.06-7.22a17.82,17.82,0,0,0-2.78-1.14,7.76,7.76,0,0,0-2.07-.35q-10.62,0-18.59,8.32a27,27,0,0,0-8,19.26q0,10.47,3.75,15.74t11.25,5.27a26.22,26.22,0,0,0,9.18-1.6,28.32,28.32,0,0,0,8.16-4.72Q929.14,429.45,929.14,420.23Z"/><path d="M1035.47,412.34q-.71,12-10.86,12-9.84,0-9.84-10.16l-.39-7.89q-17.58,2.81-25.16,18.05l.08,39.29a9.84,9.84,0,0,1-3,7.39,10.71,10.71,0,0,1-7.73,2.93,9.32,9.32,0,0,1-7.5-3.13,10.39,10.39,0,0,1-2.5-7.19V412.42q0-2.42.15-7.23t.16-7.22a10.56,10.56,0,0,1,2.62-7.31q2.61-2.93,7.46-2.93,8.67,0,10.31,8.91a50.17,50.17,0,0,1,30.7-10.31q15.63,0,15.63,20.78C1035.55,409.77,1035.52,411.51,1035.47,412.34Z"/><path d="M1086.25,472.27q-18.68,0-30.55-8.91-13.12-9.84-13.12-27.74,0-19.75,10.39-33.43Q1064.54,387,1084.14,387q13.59,0,22.58,4.38,11.79,5.77,11.8,18,0,8.6-9.61,15.24-4.38,3-17.58,8.91L1065,445.16a23.68,23.68,0,0,0,9.06,6.09,34.08,34.08,0,0,0,12.19,2q10.47,0,17.73-4.3,6.49-3.83,10.4-3.82,8.11,0,8.12,7.89,0,8.9-13,14.53A58.34,58.34,0,0,1,1086.25,472.27Zm-2.11-66.33a17.49,17.49,0,0,0-12.42,4.84q-5.16,4.85-8.28,14.53,8.82-3.82,17.58-7.58a129.81,129.81,0,0,0,16.79-8.82Q1092.57,405.94,1084.14,405.94Z"/><path d="M264.3,582.16q1-26.64,2.42-36.8,1.32-9.23,10.16-9.22a9.7,9.7,0,0,1,7.42,3,10.34,10.34,0,0,1,2.81,7.34q0,11.43-1.76,34.08t-1.76,34.08q0,27.93,1.8,37.4a12.29,12.29,0,0,1,.24,2.28,9.16,9.16,0,0,1-3.13,7.14,10.55,10.55,0,0,1-7.27,2.81,9.19,9.19,0,0,1-8.59-5.16,31.59,31.59,0,0,1-11,4.18,70,70,0,0,1-11.8,1q-17.51,0-29.06-11.18Q203,641.69,203,624q0-21,11.87-33.94t31-12.93a39.82,39.82,0,0,1,10.47,1.25A23.41,23.41,0,0,1,264.3,582.16Zm-1.57,24.61a17.69,17.69,0,0,0-6.71-7.35,19.26,19.26,0,0,0-9.85-2.42q-11.56,0-17.34,6.68t-5.78,20a19.33,19.33,0,0,0,6.25,14.45,20.3,20.3,0,0,0,14.53,6c4,0,7-.47,9.14-1.41a41.25,41.25,0,0,0,7.19-5,27.57,27.57,0,0,0,2.57-2.42Q262.58,631.61,262.73,606.77Z"/><path d="M340.47,664.27q-18.68,0-30.55-8.91-13.12-9.84-13.12-27.74,0-19.75,10.39-33.43Q318.76,579,338.36,579q13.59,0,22.58,4.38,11.79,5.77,11.79,18,0,8.6-9.6,15.24-4.38,3-17.58,8.91l-26.33,11.64a23.68,23.68,0,0,0,9.06,6.09,34,34,0,0,0,12.19,2q10.47,0,17.73-4.3,6.49-3.83,10.39-3.82,8.13,0,8.13,7.89,0,8.9-13.05,14.53A58.34,58.34,0,0,1,340.47,664.27Zm-2.11-66.33a17.49,17.49,0,0,0-12.42,4.84q-5.16,4.85-8.28,14.53,8.82-3.82,17.57-7.58a129.36,129.36,0,0,0,16.8-8.82Q346.8,597.94,338.36,597.94Z"/><path d="M445.55,603.48q-7.74,0-9.3-6.48a37.55,37.55,0,0,0-6.41-.55q-18.82,0-18.82,5.16,0,3,11.32,8.2,15.48,7.11,20.94,11.1,11.33,8.19,11.33,18.51,0,13.44-12.5,20.39-10.08,5.55-24.77,5.55a54.11,54.11,0,0,1-19-3.2q-11.72-4.38-11.72-12.89,0-7.82,9.3-7.82,3.58,0,10.39,2.27T416.8,646q15.85,0,15.93-6.4,0-4-11-8.83-16.1-7.11-20.63-10.23-11-7.74-11-18.83,0-15.71,16.64-21.17,9.76-3.21,29.69-3.21,7.8,0,11.56,2,5.16,2.74,5.16,10.08Q453.13,603.49,445.55,603.48Z"/><path d="M523.59,597.78c-1.09,0-2.38,0-3.86-.12s-2.78-.11-3.87-.11a52.19,52.19,0,0,0-7.42.62q1.41,31.56,1.4,41.25c0,.68,0,1.94.08,3.79s.08,3.35.08,4.49q0,18-11.33,18a11.09,11.09,0,0,1-7.42-2.65,8.75,8.75,0,0,1-3.44-7q0-2.81.24-8.43c.15-3.75.23-6.57.23-8.44q0-9.45-1.4-40.47-4.85-.24-14.65-1.29t-9.81-10.12a10.27,10.27,0,0,1,10.63-10.46q2.88,0,13.28.93-.07-2.49-.39-8.28-.31-5-.31-7.73a9.36,9.36,0,0,1,3.2-7.27,11.15,11.15,0,0,1,7.73-2.89q11.56,0,11.57,19.45l-.16,6.41a57,57,0,0,1,7.89-.7q9,0,12.27,1.17,6.24,2.19,6.25,9.53a9.94,9.94,0,0,1-3,7.42A10.63,10.63,0,0,1,523.59,597.78Z"/><path d="M609.3,604.34q-.7,12-10.86,12-9.84,0-9.85-10.16l-.39-7.89q-17.58,2.81-25.15,18l.08,39.29a9.84,9.84,0,0,1-3,7.39,10.72,10.72,0,0,1-7.74,2.93,9.32,9.32,0,0,1-7.5-3.13,10.44,10.44,0,0,1-2.5-7.19V604.42c0-1.61.06-4,.16-7.23s.16-5.61.16-7.22a10.6,10.6,0,0,1,2.61-7.31c1.75-1.95,4.23-2.93,7.46-2.93q8.68,0,10.32,8.91a50.17,50.17,0,0,1,30.7-10.31q15.63,0,15.63,20.78C609.38,601.77,609.35,603.51,609.3,604.34Z"/><path d="M652.89,665.28a34.71,34.71,0,0,1-24.84-9.92q-11.41-10.86-12-29a47.76,47.76,0,0,1,9.46-30.78q11.87-15.93,33-15.93,15.63,0,24.85,12.5,8.28,11.25,8.28,27.89,0,18.12-9.69,30.93Q671.17,665.29,652.89,665.28Zm4.69-65q-9.62-.07-15.16,8.75a31.83,31.83,0,0,0-4.69,17.34q0,9.38,5.32,14.38a13.85,13.85,0,0,0,9.84,4,16.82,16.82,0,0,0,11.8-4.61q5.7-5.39,6.09-14.6Q671.8,600.37,657.58,600.28Z"/><path d="M782.5,594.66q-8.52,17.73-27,55.7-10,20.39-15.24,33.83-1.63,4.84-5.15,14.37-2.82,7.35-10,7.35a11.66,11.66,0,0,1-7.82-2.89,9.19,9.19,0,0,1-3.36-7.27q0-7.26,16.57-43-8.59-17-27.27-49.92-1.87-3-3.83-6a13.3,13.3,0,0,1-2.11-6.57,10,10,0,0,1,3.36-7.42,10.91,10.91,0,0,1,7.74-3.2,9.47,9.47,0,0,1,8,3.83q11.1,14.76,25.86,44.45,8.37-18.51,10.16-22.34,5.55-11.64,10.86-20.47,3.36-5.62,9.22-5.63a11.62,11.62,0,0,1,7.81,3,9.26,9.26,0,0,1,3.44,7.27A11.69,11.69,0,0,1,782.5,594.66Z"/><path d="M817.73,624q0,4.46.28,14.3t.27,14.29a9.89,9.89,0,0,1-3,7.47,11.66,11.66,0,0,1-15.46,0,9.89,9.89,0,0,1-3-7.47q0-4.44-.28-14.29t-.27-14.3q0-6.94.78-17.42t.78-17.42a9.9,9.9,0,0,1,3-7.46,11.67,11.67,0,0,1,15.47,0,9.9,9.9,0,0,1,3,7.46q0,6.94-.78,17.42T817.73,624Zm-6.64-57.26a12.43,12.43,0,0,1-8.67-3.36,11,11,0,0,1,0-16.41,12.83,12.83,0,0,1,17.31,0,11.09,11.09,0,0,1,0,16.41A12.3,12.3,0,0,1,811.09,566.77Z"/><path d="M899.69,666.22q-9.62,0-10.71-9.45-1.1-8.06-2.18-16.18a120.2,120.2,0,0,1-1.17-16.17c0-1.35.08-3.67.27-6.95s.27-5.6.27-7c0-.37.05-1.29.16-2.78s.15-2.69.15-3.63c0-4.32-1-6.49-3.12-6.49q-6.69,0-13.13,8.61T860.15,628q-.14,2.64-.65,7a58.9,58.9,0,0,0-.44,7,66.24,66.24,0,0,1-.51,6.76,65.76,65.76,0,0,0-.5,6.76,10.13,10.13,0,0,1-3.09,7.57,11.54,11.54,0,0,1-15.51,0,10.05,10.05,0,0,1-3-7.51q0-2.24-.47-6.73t-.47-6.72q0-7.63,1.09-21.24t1.1-21.25c0-1.59-.1-4-.28-7.12s-.27-5.5-.27-7a9.56,9.56,0,0,1,3.16-7.36,11.1,11.1,0,0,1,7.78-2.9q10.23,0,10.93,12.26l.08.86Q870.47,577,883.13,577q14.76,0,20.39,12.34,3.75,8.28,3.75,24.77v5.55c-.06,2.39-.08,4.09-.08,5.07a95.08,95.08,0,0,0,1.68,15.71,94.69,94.69,0,0,1,1.68,15.62,9.5,9.5,0,0,1-3.13,7.27A11,11,0,0,1,899.69,666.22Z"/><path d="M994.3,614.11a266.81,266.81,0,0,0-3.91,38.75q-.78,25.23-8.44,36.64-10.23,15.24-36.25,15.23-30.39,0-30.39-12a9.23,9.23,0,0,1,2.74-7,9.87,9.87,0,0,1,7.18-2.66,55.39,55.39,0,0,1,10.08,1.33A59.22,59.22,0,0,0,947,685.75q11.64,0,17.19-7.11,5.31-7,6.25-22.11a26.41,26.41,0,0,1-9,6.09,28.71,28.71,0,0,1-10.94,2q-15.56,0-25.27-10.12t-9.73-25.9q0-21.25,13-34.37,13.42-13.6,36.33-13.6a39.56,39.56,0,0,1,12.65,1.8,19.77,19.77,0,0,1,8.6,5.47q9.91,1.17,9.92,11.72A88.35,88.35,0,0,1,994.3,614.11ZM964,598.48q-13.2,0-20.54,8.68-6.57,7.89-6.56,20.46,0,9.3,3.51,14t10.55,4.69q6.4,0,12.89-7.43,6.09-7,6.95-13.9,1.49-7.5,3.44-23.36a24.22,24.22,0,0,0-5.24-2.34A17.18,17.18,0,0,0,964,598.48Z"/><path d="M1153.83,594.66q-8.52,17.73-26.95,55.7-10,20.39-15.24,33.83-1.64,4.84-5.16,14.37-2.81,7.35-10,7.35a11.66,11.66,0,0,1-7.81-2.89,9.19,9.19,0,0,1-3.36-7.27q0-7.26,16.57-43-8.61-17-27.27-49.92-1.87-3-3.83-6a13.3,13.3,0,0,1-2.11-6.57,10,10,0,0,1,3.36-7.42,10.91,10.91,0,0,1,7.74-3.2,9.49,9.49,0,0,1,8,3.83q11.1,14.76,25.86,44.45,8.36-18.51,10.16-22.34,5.55-11.64,10.86-20.47,3.36-5.62,9.22-5.63a11.62,11.62,0,0,1,7.81,3,9.26,9.26,0,0,1,3.44,7.27A11.69,11.69,0,0,1,1153.83,594.66Z"/><path d="M1196.8,665.28a34.75,34.75,0,0,1-24.85-9.92q-11.4-10.86-12-29a47.75,47.75,0,0,1,9.45-30.78q11.88-15.93,33-15.93,15.63,0,24.84,12.5,8.28,11.25,8.29,27.89,0,18.12-9.69,30.93Q1215.08,665.29,1196.8,665.28Zm4.68-65q-9.6-.07-15.15,8.75a31.75,31.75,0,0,0-4.69,17.34q0,9.38,5.31,14.38a13.89,13.89,0,0,0,9.85,4,16.78,16.78,0,0,0,11.79-4.61q5.7-5.39,6.1-14.6Q1215.69,600.37,1201.48,600.28Z"/><path d="M1317.19,615.52q0,5.24.08,15.78t.07,15.78c0,1.09.09,2.72.28,4.88s.27,3.79.27,4.88a9.3,9.3,0,0,1-3.16,7.23,11.2,11.2,0,0,1-7.78,2.85,9.9,9.9,0,0,1-9.45-5.86,59.57,59.57,0,0,1-20.7,3.67q-11.1,0-18.67-4.66A21.61,21.61,0,0,1,1248,644.45a226.85,226.85,0,0,1-3-34.73,130.78,130.78,0,0,1,2.35-23.08q1.56-8.77,10.54-8.78a11.29,11.29,0,0,1,7.74,2.83,9.18,9.18,0,0,1,3.2,7.18,78.75,78.75,0,0,1-1.13,10.7,78,78,0,0,0-1.14,11.1q0,10.94.75,19.12a77.79,77.79,0,0,0,2.22,13.53,24.51,24.51,0,0,0,3.79,1.32,14.46,14.46,0,0,0,3.56.47,81.83,81.83,0,0,0,19.06-2.5q0-6-.08-13.67-.15-9.15-.15-13.13a222.26,222.26,0,0,1,1.48-27.65q1.17-9.3,10.62-9.3a11.53,11.53,0,0,1,7.9,2.89,8.62,8.62,0,0,1,3,7.27Q1317.19,617.78,1317.19,615.52Z"/><path d="M1397.42,604.34q-.7,12-10.86,12-9.84,0-9.84-10.16l-.39-7.89q-17.58,2.81-25.16,18l.08,39.29a9.84,9.84,0,0,1-3,7.39,10.71,10.71,0,0,1-7.73,2.93,9.32,9.32,0,0,1-7.5-3.13,10.39,10.39,0,0,1-2.5-7.19V604.42q0-2.42.16-7.23t.15-7.22a10.56,10.56,0,0,1,2.62-7.31q2.61-2.92,7.46-2.93,8.67,0,10.31,8.91a50.2,50.2,0,0,1,30.71-10.31q15.61,0,15.62,20.78C1397.5,601.77,1397.47,603.51,1397.42,604.34Z"/><path d="M376.09,809.08q-1.32,0-6.56-.55-.46,10.94-.47,35.94a10,10,0,0,1-10.23,10.08,9.92,9.92,0,0,1-7.38-3,9.74,9.74,0,0,1-2.93-7.11v-21.8q0-12.1,1.56-35.86,1.49-24.13,1.56-36,.08-20.31,11.41-19.46a42.08,42.08,0,0,1,7.34-1.05c3.13-.24,6.93-.35,11.41-.35q15.3,0,28.75,9.92,14.91,11.1,14.92,27,0,20-15.86,31.8Q395.54,809.07,376.09,809.08Zm3.91-59c-1.67,0-3.14,0-4.41,0s-2.36.09-3.25.2q0,3.67-.07,11-.16,8.67-1.49,27a43,43,0,0,0,5.31.63q12.2,0,20.24-5.78,8.6-6.18,8.59-16.33,0-6.64-8-11.8A30.53,30.53,0,0,0,380,750.09Z"/><path d="M502.5,796.34q-.71,12-10.86,12-9.84,0-9.84-10.16l-.39-7.89q-17.58,2.81-25.16,18l.08,39.29a9.84,9.84,0,0,1-3.05,7.39,10.71,10.71,0,0,1-7.73,2.93,9.32,9.32,0,0,1-7.5-3.13,10.39,10.39,0,0,1-2.5-7.19V796.42q0-2.42.15-7.23t.16-7.22a10.56,10.56,0,0,1,2.62-7.31q2.61-2.92,7.46-2.93,8.67,0,10.31,8.91A50.17,50.17,0,0,1,487,770.33q15.63,0,15.63,20.78C502.58,793.77,502.55,795.51,502.5,796.34Z"/><path d="M546.09,857.28a34.74,34.74,0,0,1-24.84-9.92q-11.4-10.86-11.95-29a47.7,47.7,0,0,1,9.45-30.78q11.88-15.93,33-15.93,15.62,0,24.84,12.5,8.28,11.25,8.28,27.89,0,18.12-9.69,30.93Q564.37,857.29,546.09,857.28Zm4.69-65q-9.6-.07-15.15,8.75a31.75,31.75,0,0,0-4.69,17.34q0,9.38,5.31,14.38a13.85,13.85,0,0,0,9.84,4,16.79,16.79,0,0,0,11.8-4.61q5.7-5.39,6.09-14.6Q565,792.37,550.78,792.28Z"/><path d="M655.23,774.16q1-26.64,2.43-36.8,1.32-9.23,10.15-9.22a9.69,9.69,0,0,1,7.42,3,10.31,10.31,0,0,1,2.82,7.34q0,11.43-1.76,34.08t-1.76,34.08q0,27.93,1.8,37.4a13.13,13.13,0,0,1,.23,2.28,9.15,9.15,0,0,1-3.12,7.14,10.57,10.57,0,0,1-7.27,2.81,9.18,9.18,0,0,1-8.59-5.16,31.64,31.64,0,0,1-11,4.18,69.82,69.82,0,0,1-11.79,1q-17.5,0-29.07-11.18-11.79-11.4-11.79-29.06,0-21,11.87-33.94t31-12.93a39.87,39.87,0,0,1,10.47,1.25A23.36,23.36,0,0,1,655.23,774.16Zm-1.56,24.61a17.78,17.78,0,0,0-6.72-7.35,19.19,19.19,0,0,0-9.84-2.42q-11.57,0-17.34,6.68t-5.79,20a19.37,19.37,0,0,0,6.25,14.45,20.33,20.33,0,0,0,14.54,6c4,0,7.05-.47,9.14-1.41a41.29,41.29,0,0,0,7.18-5,26.47,26.47,0,0,0,2.58-2.42Q653.52,823.61,653.67,798.77Z"/><path d="M760.47,807.52q0,5.24.08,15.78t.08,15.78c0,1.09.09,2.72.27,4.88s.27,3.79.27,4.88a9.3,9.3,0,0,1-3.16,7.23,11.2,11.2,0,0,1-7.78,2.85,9.9,9.9,0,0,1-9.45-5.86,59.57,59.57,0,0,1-20.7,3.67q-11.1,0-18.67-4.66a21.61,21.61,0,0,1-10.16-15.62,226.85,226.85,0,0,1-3-34.73,130.78,130.78,0,0,1,2.35-23.08q1.56-8.77,10.54-8.78a11.29,11.29,0,0,1,7.74,2.83,9.18,9.18,0,0,1,3.2,7.18,78.75,78.75,0,0,1-1.13,10.7,77.68,77.68,0,0,0-1.13,11.1q0,10.94.74,19.12a77.79,77.79,0,0,0,2.22,13.53,24.88,24.88,0,0,0,3.79,1.32,14.53,14.53,0,0,0,3.56.47,81.83,81.83,0,0,0,19.06-2.5q0-6-.08-13.67-.15-9.15-.15-13.13a222.26,222.26,0,0,1,1.48-27.65q1.17-9.3,10.63-9.3a11.52,11.52,0,0,1,7.89,2.89,8.62,8.62,0,0,1,3,7.27Q760.47,809.78,760.47,807.52Z"/><path d="M811.17,857.59q-17.19,0-28.83-9.76-12.26-10.32-12.26-27.19,0-15.54,11-32.11,12.51-18.9,29.07-18.91,8.12,0,19,4.38,13.2,5.38,13.2,12.42a9.91,9.91,0,0,1-2.65,6.8,9.25,9.25,0,0,1-7.27,3.2q-3.36,0-8.08-3.63t-14.18-3.63q-6,0-13,11.79-6.72,11.41-6.72,19.69t5.94,12.89Q802,838,811.17,838q5.24,0,12.81-4t9.61-4a9.79,9.79,0,0,1,7.23,3,9.66,9.66,0,0,1,3,7q0,6.09-13.28,12.18Q818.67,857.6,811.17,857.59Z"/><path d="M912.58,789.78c-1.1,0-2.38,0-3.87-.12s-2.77-.11-3.87-.11a52.3,52.3,0,0,0-7.42.62q1.41,31.56,1.41,41.25c0,.68,0,1.94.08,3.79s.07,3.35.07,4.49q0,18-11.32,18a11.11,11.11,0,0,1-7.43-2.65,8.74,8.74,0,0,1-3.43-7q0-2.81.23-8.43c.16-3.75.24-6.57.24-8.44q0-9.45-1.41-40.47-4.85-.24-14.65-1.29t-9.8-10.12A10.27,10.27,0,0,1,862,768.77q2.9,0,13.28.93-.07-2.49-.39-8.28-.31-5-.31-7.73a9.4,9.4,0,0,1,3.2-7.27,11.19,11.19,0,0,1,7.74-2.89q11.55,0,11.56,19.45l-.16,6.41a57,57,0,0,1,7.89-.7q9,0,12.27,1.17,6.25,2.19,6.25,9.53a9.94,9.94,0,0,1-3.05,7.42A10.62,10.62,0,0,1,912.58,789.78Z"/><path d="M957.27,816q0,4.46.27,14.3t.27,14.29a9.92,9.92,0,0,1-3,7.47,11.67,11.67,0,0,1-15.47,0,9.93,9.93,0,0,1-3-7.47q0-4.44-.27-14.29T935.7,816q0-6.94.78-17.42t.79-17.42a9.9,9.9,0,0,1,3-7.46,11.67,11.67,0,0,1,15.47,0,9.9,9.9,0,0,1,3.05,7.46q0,6.94-.78,17.42T957.27,816Zm-6.64-57.26a12.43,12.43,0,0,1-8.68-3.36A11,11,0,0,1,942,739a12.43,12.43,0,0,1,8.68-3.36,12.28,12.28,0,0,1,8.63,3.36,11.09,11.09,0,0,1,0,16.41A12.28,12.28,0,0,1,950.63,758.77Z"/><path d="M1019.61,846.89a9.54,9.54,0,0,1-3.2,6.41,10.14,10.14,0,0,1-7,2.5q-7.89,0-11.17-8.13-8.43-21.09-25.86-63a11.11,11.11,0,0,1-1-4.45,9.11,9.11,0,0,1,3.39-7.15,11.6,11.6,0,0,1,7.78-2.93,9.9,9.9,0,0,1,9.61,6.17q4.45,9.46,17.34,44.22,4.14-8.82,11.41-26.87,2.17-6,6.79-16.8,3.21-6.25,9.69-6.25a11.66,11.66,0,0,1,7.78,2.89,9.07,9.07,0,0,1,3.39,7.19q0,2.81-12.65,30.94Q1025.62,834.63,1019.61,846.89Z"/><path d="M1079.92,816q0,4.46.28,14.3t.27,14.29a9.93,9.93,0,0,1-3,7.47,11.67,11.67,0,0,1-15.47,0,9.92,9.92,0,0,1-3-7.47q0-4.44-.28-14.29t-.27-14.3q0-6.94.78-17.42t.78-17.42a9.9,9.9,0,0,1,3-7.46,11.67,11.67,0,0,1,15.47,0,9.9,9.9,0,0,1,3,7.46q0,6.94-.78,17.42T1079.92,816Zm-6.64-57.26a12.43,12.43,0,0,1-8.67-3.36,11,11,0,0,1,0-16.41,12.43,12.43,0,0,1,8.67-3.36,12.28,12.28,0,0,1,8.63,3.36,11.07,11.07,0,0,1,0,16.41A12.28,12.28,0,0,1,1073.28,758.77Z"/><path d="M1155.47,789.78q-1.63,0-3.87-.12c-1.48-.07-2.77-.11-3.87-.11a52.42,52.42,0,0,0-7.42.62q1.41,31.56,1.41,41.25c0,.68,0,1.94.08,3.79s.08,3.35.08,4.49q0,18-11.33,18a11.07,11.07,0,0,1-7.42-2.65,8.72,8.72,0,0,1-3.44-7q0-2.81.23-8.43c.16-3.75.24-6.57.24-8.44q0-9.45-1.41-40.47-4.85-.24-14.65-1.29t-9.8-10.12a10.27,10.27,0,0,1,10.62-10.46q2.89,0,13.28.93-.08-2.49-.39-8.28-.32-5-.31-7.73a9.4,9.4,0,0,1,3.2-7.27,11.19,11.19,0,0,1,7.74-2.89q11.55,0,11.56,19.45l-.16,6.41a57,57,0,0,1,7.89-.7q9,0,12.27,1.17,6.26,2.19,6.25,9.53a9.94,9.94,0,0,1-3,7.42A10.62,10.62,0,0,1,1155.47,789.78Z"/><path d="M1253.36,786.66q-8.52,17.73-26.95,55.7-10,20.39-15.24,33.83-1.64,4.84-5.15,14.37-2.82,7.35-10,7.35a11.66,11.66,0,0,1-7.82-2.89,9.19,9.19,0,0,1-3.36-7.27q0-7.26,16.57-43-8.6-17-27.27-49.92-1.87-3-3.83-6a13.3,13.3,0,0,1-2.11-6.57,10,10,0,0,1,3.36-7.42,10.91,10.91,0,0,1,7.74-3.2,9.48,9.48,0,0,1,8,3.83q11.1,14.76,25.86,44.45,8.37-18.51,10.16-22.34,5.55-11.64,10.86-20.47,3.36-5.62,9.22-5.63a11.62,11.62,0,0,1,7.81,3,9.26,9.26,0,0,1,3.44,7.27A11.69,11.69,0,0,1,1253.36,786.66Z"/></svg>