<?xml version="1.0" encoding="UTF-8" standalone="no"?><!DOCTYPE svg PUBLIC "-//W3C//DTD SVG 1.1//EN" "http://www.w3.org/Graphics/SVG/1.1/DTD/svg11.dtd"><svg width="100%" height="100%" viewBox="0 0 800 1280" version="1.1" xmlns="http://www.w3.org/2000/svg" xmlns:xlink="http://www.w3.org/1999/xlink" xml:space="preserve" xmlns:serif="http://www.serif.com/" style="fill-rule:evenodd;clip-rule:evenodd;stroke-linejoin:round;stroke-miterlimit:1.41421;"><rect x="0" y="0" width="800" height="1280" style="fill:#1adba5;"/><g><path d="M121.857,217.334l73.965,0l0,23.789l-6.7,0c-1.002,-3.919 -1.993,-7.018 -2.973,-9.297c-0.98,-2.278 -2.017,-4.01 -3.111,-5.195c-1.093,-1.185 -2.267,-2.028 -3.52,-2.529c-1.253,-0.502 -3.133,-0.752 -5.64,-0.752l-8.681,0l0,70c0,2.688 0.148,4.83 0.444,6.425c0.296,1.595 0.752,2.86 1.367,3.794c0.615,0.935 1.447,1.664 2.495,2.188c1.048,0.524 2.689,1.037 4.922,1.538l0,3.35l-31.24,0l0,-3.35c1.367,-0.319 2.575,-0.661 3.623,-1.025c1.048,-0.365 1.903,-0.809 2.563,-1.333c0.661,-0.525 1.208,-1.197 1.641,-2.017c0.433,-0.82 0.775,-1.937 1.025,-3.35c0.251,-1.412 0.376,-3.486 0.376,-6.22l0,-70l-8.613,0c-2.142,0 -3.908,0.205 -5.298,0.615c-1.39,0.41 -2.677,1.264 -3.862,2.563c-1.185,1.299 -2.267,3.145 -3.247,5.537c-0.98,2.393 -1.903,5.412 -2.769,9.058l-6.767,0l0,-23.789Z" style="fill-rule:nonzero;"/><path d="M225.285,256.025l0.273,0.069c3.555,-3.601 6.369,-6.118 8.442,-7.554c2.074,-1.436 4.125,-2.518 6.153,-3.247c2.028,-0.729 4.204,-1.094 6.528,-1.094c2.507,0 4.74,0.296 6.699,0.889c1.96,0.592 3.68,1.492 5.161,2.7c1.481,1.208 2.689,2.689 3.623,4.443c0.935,1.755 1.63,3.851 2.085,6.29c0.456,2.438 0.684,5.525 0.684,9.262l0,25.772c0,3.965 0.171,6.665 0.513,8.1c0.341,1.436 0.957,2.552 1.845,3.35c0.889,0.797 2.678,1.561 5.367,2.29l0,3.35l-26.934,0l0,-3.35c1.777,-0.547 3.053,-1.025 3.828,-1.436c0.775,-0.41 1.424,-0.979 1.948,-1.709c0.524,-0.729 0.935,-1.857 1.231,-3.383c0.296,-1.527 0.444,-3.84 0.444,-6.939l0,-17.91c0,-6.061 -0.307,-10.698 -0.923,-13.911c-0.615,-3.213 -1.823,-5.617 -3.623,-7.212c-1.8,-1.595 -4.318,-2.393 -7.553,-2.393c-1.823,0 -3.464,0.319 -4.922,0.957c-1.459,0.638 -3.145,1.778 -5.059,3.418c-1.914,1.641 -3.361,3.327 -4.341,5.059c-0.98,1.732 -1.469,3.577 -1.469,5.537l0,26.182c0,3.099 0.079,5.309 0.239,6.631c0.159,1.321 0.467,2.426 0.923,3.315c0.455,0.889 1.15,1.618 2.085,2.187c0.934,0.57 2.381,1.106 4.34,1.607l0,3.35l-27.07,0l0,-3.35c2.005,-0.547 3.441,-1.071 4.307,-1.572c0.866,-0.502 1.538,-1.14 2.016,-1.914c0.479,-0.775 0.832,-1.892 1.06,-3.35c0.228,-1.458 0.342,-3.76 0.342,-6.904l0,-57.217c0,-4.375 -0.034,-7.428 -0.103,-9.16c-0.068,-1.732 -0.25,-3.202 -0.547,-4.409c-0.296,-1.208 -0.706,-2.154 -1.23,-2.837c-0.524,-0.684 -1.231,-1.231 -2.119,-1.641c-0.889,-0.41 -2.495,-0.82 -4.82,-1.23l0,-3.555l16.475,-0.684l4.102,0l0,43.203Z" style="fill-rule:nonzero;"/><path d="M338.829,299.023c-2.916,3.054 -5.594,5.446 -8.032,7.178c-2.438,1.732 -5.115,3.088 -8.032,4.068c-2.917,0.979 -6.13,1.469 -9.639,1.469c-9.388,0 -16.474,-2.814 -21.259,-8.442c-4.786,-5.628 -7.178,-13.934 -7.178,-24.917c0,-6.79 1.219,-12.783 3.657,-17.979c2.438,-5.195 5.913,-9.205 10.425,-12.031c4.512,-2.825 9.707,-4.238 15.586,-4.238c4.603,0 8.522,0.729 11.758,2.187c3.235,1.459 5.822,3.453 7.758,5.982c1.937,2.529 3.441,5.719 4.512,9.57c1.071,3.851 1.675,8.875 1.812,15.073l-43.067,0l0,1.231c0,5.377 0.604,9.901 1.812,13.569c1.207,3.669 3.19,6.54 5.947,8.613c2.757,2.074 6.346,3.111 10.767,3.111c3.737,0 7.098,-0.695 10.083,-2.085c2.985,-1.39 5.958,-3.657 8.921,-6.802l4.169,4.443Zm-11.484,-27.753c-0.273,-4.922 -0.889,-8.944 -1.846,-12.066c-0.957,-3.122 -2.392,-5.514 -4.306,-7.178c-1.914,-1.663 -4.421,-2.495 -7.52,-2.495c-4.694,0 -8.442,1.88 -11.245,5.64c-2.803,3.76 -4.455,9.126 -4.956,16.099l29.873,0Z" style="fill-rule:nonzero;"/><path d="M482.589,220.684c-2.005,0.501 -3.452,1.002 -4.341,1.504c-0.888,0.501 -1.595,1.127 -2.119,1.879c-0.524,0.752 -0.911,1.88 -1.162,3.384c-0.25,1.504 -0.376,3.828 -0.376,6.973l0,59.131c0,3.053 0.103,5.286 0.308,6.699c0.205,1.413 0.547,2.529 1.025,3.35c0.479,0.82 1.185,1.503 2.119,2.05c0.935,0.547 2.45,1.094 4.546,1.641l0,3.35l-28.506,0l0,-3.35c2.598,-0.638 4.398,-1.367 5.401,-2.188c1.002,-0.82 1.686,-2.028 2.051,-3.623c0.364,-1.595 0.546,-4.238 0.546,-7.929l0,-26.182c0,-6.881 0.103,-13.843 0.308,-20.884c0.205,-7.041 0.444,-11.86 0.718,-14.458l-1.162,0l-27.071,67.744l-7.861,0l-25.156,-68.838l-1.162,0c0.228,2.78 0.444,7.816 0.649,15.108c0.205,7.292 0.308,14.788 0.308,22.49l0,25.02c0,3.053 0.102,5.286 0.307,6.699c0.205,1.413 0.547,2.529 1.026,3.35c0.478,0.82 1.185,1.503 2.119,2.05c0.934,0.547 2.449,1.094 4.546,1.641l0,3.35l-24.951,0l0,-3.35c2.825,-0.729 4.716,-1.538 5.673,-2.427c0.957,-0.889 1.584,-2.153 1.88,-3.794c0.297,-1.64 0.445,-4.147 0.445,-7.519l0,-59.131c0,-3.145 -0.114,-5.435 -0.342,-6.87c-0.228,-1.436 -0.604,-2.552 -1.128,-3.35c-0.524,-0.797 -1.219,-1.435 -2.085,-1.914c-0.866,-0.478 -2.347,-1.014 -4.443,-1.606l0,-3.35l24.404,0l23.994,66.514l26.387,-66.514l23.105,0l0,3.35Z" style="fill-rule:nonzero;"/><path d="M527.228,311.738c-9.479,0 -16.714,-2.791 -21.704,-8.374c-4.99,-5.582 -7.486,-13.843 -7.486,-24.78c0,-7.52 1.311,-13.877 3.931,-19.072c2.621,-5.196 6.209,-9.058 10.767,-11.587c4.557,-2.529 9.752,-3.794 15.586,-3.794c9.752,0 17.135,2.837 22.148,8.511c5.013,5.673 7.52,13.82 7.52,24.438c0,7.565 -1.254,13.945 -3.76,19.141c-2.507,5.195 -6.061,9.08 -10.664,11.655c-4.603,2.575 -10.049,3.862 -16.338,3.862Zm-16.27,-34.59c0,9.388 1.493,16.6 4.478,21.636c2.985,5.036 7.257,7.554 12.817,7.554c3.054,0 5.651,-0.741 7.793,-2.222c2.142,-1.481 3.885,-3.475 5.23,-5.981c1.344,-2.507 2.313,-5.412 2.905,-8.716c0.592,-3.304 0.889,-6.756 0.889,-10.356c0,-6.7 -0.741,-12.26 -2.222,-16.68c-1.481,-4.421 -3.498,-7.668 -6.05,-9.741c-2.552,-2.074 -5.469,-3.111 -8.75,-3.111c-5.514,0 -9.741,2.393 -12.68,7.178c-2.94,4.785 -4.41,11.598 -4.41,20.439Z" style="fill-rule:nonzero;"/><path d="M638.38,310.645l-26.933,0l0,-3.35c1.777,-0.547 3.053,-1.025 3.828,-1.436c0.775,-0.41 1.424,-0.979 1.948,-1.709c0.524,-0.729 0.934,-1.857 1.23,-3.383c0.297,-1.527 0.445,-3.84 0.445,-6.939l0,-17.91c0,-3.19 -0.091,-6.084 -0.274,-8.682c-0.182,-2.597 -0.49,-4.728 -0.922,-6.391c-0.433,-1.664 -0.958,-2.963 -1.573,-3.897c-0.615,-0.934 -1.344,-1.732 -2.187,-2.392c-0.843,-0.661 -1.812,-1.185 -2.906,-1.573c-1.093,-0.387 -2.529,-0.581 -4.306,-0.581c-1.777,0 -3.464,0.354 -5.059,1.06c-1.595,0.706 -3.349,1.925 -5.263,3.657c-1.914,1.732 -3.304,3.441 -4.17,5.127c-0.866,1.686 -1.299,3.623 -1.299,5.811l0,25.498c0,3.919 0.182,6.642 0.547,8.169c0.364,1.526 1.059,2.688 2.085,3.486c1.025,0.797 2.7,1.492 5.024,2.085l0,3.35l-26.797,0l0,-3.35c1.778,-0.547 3.042,-1.025 3.794,-1.436c0.752,-0.41 1.39,-0.979 1.914,-1.709c0.524,-0.729 0.934,-1.845 1.231,-3.349c0.296,-1.504 0.444,-3.851 0.444,-7.041l0,-29.805c0,-2.917 -0.046,-5.264 -0.137,-7.041c-0.091,-1.777 -0.41,-3.201 -0.957,-4.272c-0.547,-1.071 -1.378,-1.869 -2.495,-2.393c-1.116,-0.524 -2.7,-0.968 -4.751,-1.333l0,-3.623l15.996,-0.615l4.17,0l-0.752,11.142l0.957,0.274c3.373,-3.418 6.096,-5.856 8.169,-7.315c2.074,-1.458 4.17,-2.586 6.289,-3.383c2.119,-0.798 4.364,-1.197 6.734,-1.197c2.461,0 4.66,0.285 6.596,0.855c1.937,0.569 3.646,1.447 5.127,2.632c1.481,1.184 2.701,2.654 3.658,4.409c0.957,1.754 1.674,3.862 2.153,6.323c0.478,2.461 0.718,5.583 0.718,9.365l0,25.772c0,3.144 0.091,5.423 0.273,6.836c0.182,1.412 0.501,2.506 0.957,3.281c0.456,0.775 1.117,1.424 1.983,1.948c0.865,0.524 2.369,1.082 4.511,1.675l0,3.35Z" style="fill-rule:nonzero;"/><path d="M668.185,272.568l2.187,0c1.504,0 2.735,-0.159 3.692,-0.478c1.139,-0.41 2.392,-1.105 3.76,-2.085c1.367,-0.98 3.304,-2.632 5.81,-4.956c2.097,-1.96 3.68,-3.623 4.751,-4.99c1.071,-1.368 1.812,-2.621 2.222,-3.76c0.364,-0.957 0.547,-1.914 0.547,-2.871c0,-1.367 -0.422,-2.438 -1.265,-3.213c-0.843,-0.775 -2.222,-1.299 -4.136,-1.572l0,-3.35l29.463,0l0,3.35c-2.096,0.41 -4.329,1.344 -6.699,2.802c-2.37,1.459 -4.808,3.373 -7.314,5.743l-15.723,14.902l19.687,25.703c2.279,3.008 4.341,5.229 6.187,6.665c1.846,1.436 3.862,2.381 6.05,2.837l0,3.35l-26.25,0l0,-3.35c1.185,-0.137 2.062,-0.399 2.632,-0.786c0.569,-0.388 0.854,-1.037 0.854,-1.948c0,-0.684 -0.125,-1.356 -0.376,-2.017c-0.251,-0.661 -0.763,-1.561 -1.538,-2.7c-0.775,-1.14 -2.188,-3.122 -4.238,-5.948l-8.135,-10.937c-1.55,-2.051 -2.655,-3.395 -3.316,-4.033c-0.66,-0.638 -1.355,-1.094 -2.084,-1.367c-0.73,-0.274 -1.709,-0.411 -2.94,-0.411l-3.828,0l0,16.407c0,3.919 0.182,6.642 0.547,8.169c0.364,1.526 1.059,2.688 2.085,3.486c1.025,0.797 2.7,1.492 5.024,2.085l0,3.35l-27.138,0l0,-3.35c2.278,-0.593 3.862,-1.208 4.75,-1.846c0.889,-0.638 1.527,-1.401 1.915,-2.29c0.387,-0.888 0.66,-2.096 0.82,-3.623c0.159,-1.527 0.239,-3.52 0.239,-5.981l0,-57.217c0,-4.375 -0.034,-7.428 -0.102,-9.16c-0.069,-1.732 -0.251,-3.202 -0.547,-4.409c-0.297,-1.208 -0.707,-2.154 -1.231,-2.837c-0.524,-0.684 -1.23,-1.231 -2.119,-1.641c-0.889,-0.41 -2.495,-0.82 -4.819,-1.23l0,-3.555l16.474,-0.684l4.102,0l0,59.746Z" style="fill-rule:nonzero;"/><path d="M195.958,398.896l-21.875,76.358l-11.074,0l-19.892,-74.238c-0.821,-3.099 -1.573,-5.629 -2.256,-7.588c-0.684,-1.96 -1.367,-3.498 -2.051,-4.615c-0.684,-1.116 -1.424,-1.959 -2.222,-2.529c-0.797,-0.569 -1.948,-1.059 -3.452,-1.47l0,-3.349l29.258,0l0,3.349c-2.826,0.547 -4.797,1.368 -5.913,2.461c-1.117,1.094 -1.675,2.621 -1.675,4.58c0,1.596 0.205,3.487 0.615,5.674c0.41,2.188 0.98,4.672 1.709,7.451l13.74,54.004l22.012,-77.519l11.485,0l17.841,77.588l16.133,-52.158c1.96,-6.335 2.94,-10.847 2.94,-13.536c0,-2.78 -0.581,-4.785 -1.744,-6.015c-1.162,-1.231 -3.087,-2.074 -5.776,-2.53l0,-3.349l26.934,0l0,3.349c-1.367,0.456 -2.461,0.969 -3.282,1.539c-0.82,0.569 -1.606,1.344 -2.358,2.324c-0.752,0.98 -1.572,2.495 -2.461,4.546c-0.889,2.05 -1.925,4.808 -3.11,8.271l-24.883,73.76l-9.775,0l-18.868,-76.358Z" style="fill-rule:nonzero;"/><path d="M285.578,420.156l0.273,0.069c3.555,-3.601 6.369,-6.119 8.442,-7.554c2.074,-1.436 4.125,-2.518 6.153,-3.247c2.028,-0.729 4.204,-1.094 6.528,-1.094c2.507,0 4.74,0.296 6.699,0.889c1.96,0.592 3.68,1.492 5.161,2.7c1.481,1.208 2.689,2.689 3.623,4.443c0.935,1.755 1.63,3.851 2.085,6.289c0.456,2.439 0.684,5.526 0.684,9.263l0,25.772c0,3.964 0.171,6.665 0.513,8.1c0.341,1.436 0.957,2.552 1.845,3.35c0.889,0.797 2.678,1.561 5.367,2.29l0,3.349l-26.934,0l0,-3.349c1.777,-0.547 3.053,-1.026 3.828,-1.436c0.775,-0.41 1.424,-0.98 1.948,-1.709c0.524,-0.729 0.935,-1.857 1.231,-3.384c0.296,-1.526 0.444,-3.839 0.444,-6.938l0,-17.91c0,-6.061 -0.307,-10.698 -0.923,-13.911c-0.615,-3.213 -1.823,-5.617 -3.623,-7.212c-1.8,-1.595 -4.318,-2.393 -7.553,-2.393c-1.823,0 -3.464,0.319 -4.922,0.957c-1.459,0.638 -3.145,1.778 -5.059,3.418c-1.914,1.641 -3.361,3.327 -4.341,5.059c-0.98,1.732 -1.469,3.577 -1.469,5.537l0,26.182c0,3.099 0.079,5.309 0.239,6.63c0.159,1.322 0.467,2.427 0.923,3.316c0.455,0.889 1.15,1.618 2.085,2.187c0.934,0.57 2.381,1.105 4.34,1.607l0,3.349l-27.07,0l0,-3.349c2.005,-0.547 3.441,-1.071 4.307,-1.572c0.866,-0.502 1.538,-1.14 2.016,-1.915c0.479,-0.774 0.832,-1.891 1.06,-3.349c0.228,-1.458 0.342,-3.76 0.342,-6.904l0,-57.217c0,-4.375 -0.034,-7.429 -0.103,-9.16c-0.068,-1.732 -0.25,-3.202 -0.547,-4.41c-0.296,-1.207 -0.706,-2.153 -1.23,-2.837c-0.524,-0.683 -1.231,-1.23 -2.119,-1.64c-0.889,-0.41 -2.495,-0.82 -4.82,-1.231l0,-3.554l16.475,-0.684l4.102,0l0,43.203Z" style="fill-rule:nonzero;"/><path d="M374.24,475.869c-9.48,0 -16.714,-2.791 -21.704,-8.374c-4.991,-5.583 -7.486,-13.843 -7.486,-24.78c0,-7.52 1.31,-13.877 3.931,-19.072c2.62,-5.196 6.209,-9.058 10.766,-11.587c4.558,-2.53 9.753,-3.794 15.586,-3.794c9.753,0 17.136,2.837 22.149,8.51c5.013,5.674 7.519,13.82 7.519,24.439c0,7.565 -1.253,13.945 -3.759,19.141c-2.507,5.195 -6.062,9.08 -10.664,11.655c-4.603,2.575 -10.049,3.862 -16.338,3.862Zm-16.27,-34.59c0,9.388 1.493,16.6 4.478,21.636c2.985,5.036 7.257,7.554 12.817,7.554c3.053,0 5.651,-0.741 7.793,-2.222c2.142,-1.481 3.885,-3.475 5.229,-5.981c1.345,-2.507 2.313,-5.412 2.906,-8.716c0.592,-3.304 0.888,-6.756 0.888,-10.357c0,-6.699 -0.74,-12.259 -2.221,-16.679c-1.481,-4.421 -3.498,-7.668 -6.05,-9.742c-2.552,-2.073 -5.469,-3.11 -8.75,-3.11c-5.514,0 -9.741,2.393 -12.681,7.178c-2.939,4.785 -4.409,11.598 -4.409,20.439Z" style="fill-rule:nonzero;"/><path d="M457.501,453.516c0.912,4.01 2.142,7.177 3.692,9.502c1.549,2.324 3.554,4.044 6.015,5.161c2.461,1.116 5.629,1.675 9.502,1.675c5.332,0 9.423,-1.39 12.271,-4.17c2.848,-2.78 4.272,-6.836 4.272,-12.168c0,-3.418 -0.592,-6.289 -1.777,-8.614c-1.185,-2.324 -3.122,-4.511 -5.811,-6.562c-2.688,-2.051 -6.79,-4.444 -12.304,-7.178c-5.332,-2.643 -9.548,-5.229 -12.647,-7.759c-3.099,-2.529 -5.412,-5.275 -6.938,-8.237c-1.527,-2.962 -2.29,-6.198 -2.29,-9.707c0,-5.104 1.196,-9.536 3.589,-13.296c2.392,-3.76 5.901,-6.665 10.527,-8.716c4.626,-2.051 9.923,-3.076 15.893,-3.076c3.464,0 6.848,0.182 10.152,0.547c3.304,0.365 7.44,1.185 12.407,2.461l0,18.457l-6.768,0c-1.048,-4.01 -2.369,-7.132 -3.964,-9.365c-1.595,-2.233 -3.464,-3.794 -5.606,-4.683c-2.142,-0.889 -4.922,-1.333 -8.34,-1.333c-2.962,0 -5.617,0.547 -7.964,1.641c-2.347,1.093 -4.204,2.745 -5.571,4.956c-1.367,2.21 -2.051,4.842 -2.051,7.895c0,3.236 0.581,5.97 1.744,8.203c1.162,2.233 2.973,4.307 5.434,6.221c2.461,1.914 6.107,4.056 10.938,6.426c5.833,2.917 10.356,5.628 13.569,8.135c3.213,2.506 5.719,5.366 7.519,8.579c1.801,3.213 2.701,6.961 2.701,11.245c0,4.785 -0.752,8.83 -2.256,12.134c-1.504,3.304 -3.589,5.992 -6.255,8.066c-2.666,2.074 -5.856,3.578 -9.57,4.512c-3.715,0.934 -7.782,1.401 -12.203,1.401c-7.154,0 -15.403,-1.208 -24.746,-3.623l0,-18.73l6.836,0Z" style="fill-rule:nonzero;"/><path d="M548.829,475.869c-9.479,0 -16.713,-2.791 -21.704,-8.374c-4.99,-5.583 -7.485,-13.843 -7.485,-24.78c0,-7.52 1.31,-13.877 3.931,-19.072c2.62,-5.196 6.209,-9.058 10.766,-11.587c4.558,-2.53 9.753,-3.794 15.586,-3.794c9.753,0 17.136,2.837 22.149,8.51c5.013,5.674 7.519,13.82 7.519,24.439c0,7.565 -1.253,13.945 -3.76,19.141c-2.506,5.195 -6.061,9.08 -10.664,11.655c-4.603,2.575 -10.048,3.862 -16.338,3.862Zm-16.269,-34.59c0,9.388 1.492,16.6 4.477,21.636c2.985,5.036 7.258,7.554 12.818,7.554c3.053,0 5.651,-0.741 7.793,-2.222c2.142,-1.481 3.885,-3.475 5.229,-5.981c1.345,-2.507 2.313,-5.412 2.906,-8.716c0.592,-3.304 0.888,-6.756 0.888,-10.357c0,-6.699 -0.74,-12.259 -2.221,-16.679c-1.482,-4.421 -3.498,-7.668 -6.05,-9.742c-2.552,-2.073 -5.469,-3.11 -8.75,-3.11c-5.515,0 -9.741,2.393 -12.681,7.178c-2.939,4.785 -4.409,11.598 -4.409,20.439Z" style="fill-rule:nonzero;"/><path d="M611.652,457.686c0,3.919 0.182,6.642 0.547,8.168c0.364,1.527 1.059,2.689 2.085,3.487c1.025,0.797 2.7,1.492 5.024,2.085l0,3.349l-27.139,0l0,-3.349c2.279,-0.593 3.863,-1.208 4.751,-1.846c0.889,-0.638 1.527,-1.401 1.914,-2.29c0.388,-0.889 0.661,-2.096 0.821,-3.623c0.159,-1.527 0.239,-3.521 0.239,-5.981l0,-57.217c0,-4.375 -0.034,-7.429 -0.103,-9.16c-0.068,-1.732 -0.25,-3.202 -0.547,-4.41c-0.296,-1.207 -0.706,-2.153 -1.23,-2.837c-0.524,-0.683 -1.23,-1.23 -2.119,-1.64c-0.889,-0.41 -2.495,-0.82 -4.819,-1.231l0,-3.554l16.474,-0.684l4.102,0l0,80.733Z" style="fill-rule:nonzero;"/><path d="M677.55,400.469c0,-4.375 -0.034,-7.429 -0.102,-9.16c-0.069,-1.732 -0.251,-3.202 -0.547,-4.41c-0.296,-1.207 -0.707,-2.153 -1.231,-2.836c-0.524,-0.684 -1.23,-1.231 -2.119,-1.641c-0.889,-0.41 -2.495,-0.82 -4.819,-1.231l0,-3.554l16.543,-0.684l4.033,0l0,79.16c0,3.555 0.068,6.096 0.205,7.622c0.137,1.527 0.433,2.746 0.889,3.658c0.455,0.911 1.173,1.652 2.153,2.221c0.98,0.57 2.7,1.105 5.161,1.607l0,3.554l-16.133,0.684l-4.101,0l0.82,-11.211l-1.025,-0.273c-2.871,3.053 -5.366,5.343 -7.486,6.87c-2.119,1.526 -4.375,2.745 -6.767,3.657c-2.393,0.911 -4.956,1.367 -7.691,1.367c-7.474,0 -13.239,-2.837 -17.295,-8.511c-4.056,-5.673 -6.084,-13.865 -6.084,-24.575c0,-7.474 1.322,-13.82 3.965,-19.038c2.644,-5.218 6.21,-9.103 10.699,-11.655c4.488,-2.552 9.536,-3.828 15.141,-3.828c3.008,0 5.742,0.239 8.203,0.717c2.461,0.479 4.991,1.265 7.588,2.359l0,-10.869Zm0,33.769c0,-3.554 -0.159,-6.403 -0.478,-8.545c-0.319,-2.142 -0.855,-3.942 -1.607,-5.4c-0.752,-1.458 -1.766,-2.689 -3.042,-3.691c-1.276,-1.003 -2.677,-1.732 -4.204,-2.188c-1.527,-0.456 -3.361,-0.684 -5.503,-0.684c-5.833,0 -10.277,2.336 -13.33,7.007c-3.053,4.672 -4.58,11.382 -4.58,20.132c0,8.75 1.253,15.404 3.76,19.961c2.506,4.557 6.312,6.836 11.416,6.836c2.005,0 3.668,-0.171 4.99,-0.513c1.322,-0.341 2.62,-0.888 3.897,-1.64c1.276,-0.752 2.574,-1.789 3.896,-3.111c1.322,-1.321 2.29,-2.529 2.905,-3.623c0.616,-1.093 1.083,-2.347 1.402,-3.759c0.319,-1.413 0.478,-3.236 0.478,-5.469l0,-15.313Z" style="fill-rule:nonzero;"/><path d="M130.162,584.287l0.274,0.068c3.555,-3.6 6.369,-6.118 8.442,-7.553c2.074,-1.436 4.125,-2.518 6.153,-3.247c2.028,-0.729 4.204,-1.094 6.528,-1.094c2.506,0 4.74,0.296 6.699,0.889c1.96,0.592 3.68,1.492 5.161,2.7c1.481,1.207 2.689,2.689 3.623,4.443c0.935,1.755 1.63,3.851 2.085,6.289c0.456,2.438 0.684,5.526 0.684,9.263l0,25.771c0,3.965 0.171,6.665 0.513,8.101c0.341,1.436 0.957,2.552 1.845,3.35c0.889,0.797 2.678,1.56 5.367,2.29l0,3.349l-26.934,0l0,-3.349c1.777,-0.547 3.053,-1.026 3.828,-1.436c0.775,-0.41 1.424,-0.98 1.948,-1.709c0.524,-0.729 0.935,-1.857 1.231,-3.384c0.296,-1.526 0.444,-3.839 0.444,-6.938l0,-17.91c0,-6.062 -0.308,-10.699 -0.923,-13.911c-0.615,-3.213 -1.823,-5.617 -3.623,-7.212c-1.8,-1.595 -4.318,-2.393 -7.554,-2.393c-1.822,0 -3.463,0.319 -4.921,0.957c-1.459,0.638 -3.145,1.777 -5.059,3.418c-1.914,1.641 -3.361,3.327 -4.341,5.059c-0.98,1.731 -1.47,3.577 -1.47,5.537l0,26.181c0,3.099 0.08,5.31 0.24,6.631c0.159,1.322 0.467,2.427 0.923,3.316c0.455,0.888 1.15,1.618 2.085,2.187c0.934,0.57 2.381,1.105 4.34,1.607l0,3.349l-27.07,0l0,-3.349c2.005,-0.547 3.441,-1.071 4.307,-1.573c0.866,-0.501 1.538,-1.139 2.016,-1.914c0.479,-0.774 0.832,-1.891 1.06,-3.349c0.228,-1.459 0.342,-3.76 0.342,-6.905l0,-57.216c0,-4.375 -0.035,-7.429 -0.103,-9.161c-0.068,-1.731 -0.251,-3.201 -0.547,-4.409c-0.296,-1.207 -0.706,-2.153 -1.23,-2.837c-0.524,-0.683 -1.231,-1.23 -2.119,-1.64c-0.889,-0.41 -2.495,-0.821 -4.82,-1.231l0,-3.554l16.475,-0.684l4.101,0l0,43.203Z" style="fill-rule:nonzero;"/><path d="M208.639,546.758l0,13.262l-12.578,0l0,-13.262l12.578,0Zm-19.551,88.799c1.778,-0.547 3.042,-1.026 3.794,-1.436c0.752,-0.41 1.39,-0.98 1.914,-1.709c0.524,-0.729 0.935,-1.846 1.231,-3.35c0.296,-1.503 0.444,-3.85 0.444,-7.041l0,-29.804c0,-2.917 -0.046,-5.264 -0.137,-7.041c-0.091,-1.778 -0.41,-3.202 -0.957,-4.273c-0.547,-1.071 -1.378,-1.868 -2.495,-2.392c-1.116,-0.524 -2.7,-0.969 -4.751,-1.333l0,-3.623l15.928,-0.616l4.17,0l0,48.877c0,3.92 0.182,6.643 0.547,8.169c0.364,1.527 1.059,2.689 2.085,3.487c1.025,0.797 2.7,1.492 5.024,2.085l0,3.349l-26.797,0l0,-3.349Z" style="fill-rule:nonzero;"/><path d="M273.786,588.525l-6.563,0c-1.003,-2.734 -2.187,-4.887 -3.555,-6.46c-1.367,-1.572 -2.916,-2.677 -4.648,-3.315c-1.732,-0.638 -3.851,-0.957 -6.358,-0.957c-3.645,0 -6.551,0.854 -8.715,2.563c-2.165,1.709 -3.247,4.045 -3.247,7.007c0,2.097 0.433,3.828 1.298,5.196c0.866,1.367 2.211,2.643 4.034,3.828c1.823,1.185 5.035,2.757 9.638,4.717c4.649,2.005 8.238,3.85 10.767,5.537c2.529,1.686 4.512,3.645 5.947,5.879c1.436,2.233 2.153,4.899 2.153,7.998c0,3.6 -0.615,6.63 -1.845,9.091c-1.231,2.461 -2.962,4.467 -5.196,6.016c-2.233,1.549 -4.887,2.666 -7.963,3.35c-3.077,0.683 -6.438,1.025 -10.083,1.025c-3.829,0 -7.543,-0.285 -11.143,-0.854c-3.6,-0.57 -7.109,-1.311 -10.527,-2.222l0,-14.287l6.699,0c1.23,4.192 3.053,7.234 5.469,9.126c2.415,1.891 5.742,2.837 9.98,2.837c1.641,0 3.247,-0.171 4.819,-0.513c1.573,-0.342 2.974,-0.912 4.205,-1.709c1.23,-0.798 2.21,-1.88 2.939,-3.247c0.729,-1.367 1.094,-3.076 1.094,-5.127c0,-2.324 -0.456,-4.216 -1.367,-5.674c-0.912,-1.458 -2.325,-2.791 -4.239,-3.999c-1.914,-1.208 -5.286,-2.837 -10.117,-4.888c-4.147,-1.731 -7.474,-3.418 -9.98,-5.058c-2.507,-1.641 -4.478,-3.578 -5.913,-5.811c-1.436,-2.233 -2.154,-4.876 -2.154,-7.929c0,-3.737 1.014,-6.985 3.042,-9.742c2.028,-2.757 4.956,-4.865 8.784,-6.323c3.828,-1.458 8.317,-2.187 13.467,-2.187c3.008,0 5.913,0.148 8.716,0.444c2.803,0.296 6.323,0.877 10.562,1.743l0,13.945Z" style="fill-rule:nonzero;"/><path d="M382.955,545.596l0,20.644l-6.699,0c-1.002,-3.099 -1.971,-5.605 -2.905,-7.519c-0.934,-1.914 -1.914,-3.373 -2.94,-4.375c-1.025,-1.003 -2.221,-1.709 -3.588,-2.119c-1.368,-0.411 -3.168,-0.616 -5.401,-0.616l-20.029,0l0,37.188l14.082,0c2.005,0 3.577,-0.331 4.717,-0.991c1.139,-0.661 2.085,-1.766 2.837,-3.316c0.752,-1.549 1.469,-3.942 2.153,-7.178l6.426,0l0,28.848l-6.426,0c-0.684,-3.099 -1.413,-5.434 -2.188,-7.007c-0.774,-1.572 -1.697,-2.689 -2.768,-3.349c-1.071,-0.661 -2.655,-0.992 -4.751,-0.992l-14.082,0l0,26.797c0,2.735 0.159,4.922 0.478,6.563c0.319,1.64 0.844,2.939 1.573,3.896c0.729,0.957 1.709,1.675 2.939,2.154c1.231,0.478 2.757,0.922 4.58,1.333l0,3.349l-30.351,0l0,-3.349c2.825,-0.73 4.716,-1.538 5.674,-2.427c0.957,-0.889 1.583,-2.153 1.879,-3.794c0.297,-1.641 0.445,-4.147 0.445,-7.52l0,-59.13c0,-3.145 -0.114,-5.435 -0.342,-6.871c-0.228,-1.435 -0.604,-2.552 -1.128,-3.349c-0.524,-0.798 -1.219,-1.436 -2.085,-1.914c-0.866,-0.479 -2.347,-1.014 -4.443,-1.607l0,-3.349l62.343,0Z" style="fill-rule:nonzero;"/><path d="M443.248,627.285c-2.916,3.054 -5.594,5.446 -8.032,7.178c-2.438,1.732 -5.115,3.087 -8.032,4.067c-2.917,0.98 -6.13,1.47 -9.639,1.47c-9.388,0 -16.474,-2.814 -21.259,-8.442c-4.786,-5.629 -7.178,-13.934 -7.178,-24.917c0,-6.791 1.219,-12.784 3.657,-17.979c2.438,-5.195 5.913,-9.206 10.425,-12.031c4.512,-2.826 9.707,-4.238 15.586,-4.238c4.603,0 8.522,0.729 11.758,2.187c3.235,1.458 5.822,3.452 7.758,5.982c1.937,2.529 3.441,5.719 4.512,9.57c1.071,3.851 1.675,8.875 1.812,15.073l-43.067,0l0,1.231c0,5.377 0.604,9.9 1.812,13.569c1.207,3.669 3.19,6.54 5.947,8.613c2.757,2.074 6.346,3.111 10.767,3.111c3.737,0 7.098,-0.695 10.083,-2.085c2.985,-1.39 5.958,-3.658 8.92,-6.802l4.17,4.443Zm-11.484,-27.754c-0.273,-4.922 -0.889,-8.943 -1.846,-12.065c-0.957,-3.122 -2.392,-5.515 -4.306,-7.178c-1.914,-1.663 -4.421,-2.495 -7.52,-2.495c-4.694,0 -8.442,1.88 -11.245,5.64c-2.803,3.759 -4.455,9.126 -4.956,16.098l29.873,0Z" style="fill-rule:nonzero;"/><path d="M475.377,584.902l0.957,0.205c2.507,-3.053 4.831,-5.457 6.973,-7.211c2.142,-1.755 4.455,-3.111 6.938,-4.068c2.484,-0.957 5.298,-1.435 8.443,-1.435c2.643,0 5.036,0.136 7.178,0.41l0,15.722l-7.725,0c-1.094,-2.461 -2.256,-4.249 -3.486,-5.366c-1.231,-1.116 -2.917,-1.675 -5.059,-1.675c-1.641,0 -3.27,0.479 -4.888,1.436c-1.617,0.957 -3.178,2.347 -4.682,4.17c-1.504,1.823 -2.541,3.532 -3.111,5.127c-0.569,1.595 -0.854,3.486 -0.854,5.674l0,23.925c0,4.148 0.251,7.007 0.752,8.58c0.501,1.572 1.333,2.722 2.495,3.452c1.162,0.729 2.905,1.298 5.229,1.709l0,3.349l-27.548,0l0,-3.349c1.731,-0.547 2.973,-1.026 3.725,-1.436c0.752,-0.41 1.402,-0.98 1.948,-1.709c0.547,-0.729 0.957,-1.846 1.231,-3.35c0.273,-1.503 0.41,-3.85 0.41,-7.041l0,-29.804c0,-2.917 -0.045,-5.264 -0.137,-7.041c-0.091,-1.778 -0.41,-3.202 -0.957,-4.273c-0.547,-1.071 -1.378,-1.868 -2.495,-2.392c-1.116,-0.524 -2.7,-0.969 -4.751,-1.333l0,-3.555l15.996,-0.684l4.17,0l-0.752,11.963Z" style="fill-rule:nonzero;"/><path d="M533.278,584.902l0.957,0.205c2.506,-3.053 4.83,-5.457 6.972,-7.211c2.142,-1.755 4.455,-3.111 6.939,-4.068c2.484,-0.957 5.298,-1.435 8.442,-1.435c2.643,0 5.036,0.136 7.178,0.41l0,15.722l-7.725,0c-1.093,-2.461 -2.255,-4.249 -3.486,-5.366c-1.23,-1.116 -2.917,-1.675 -5.059,-1.675c-1.64,0 -3.269,0.479 -4.887,1.436c-1.618,0.957 -3.179,2.347 -4.683,4.17c-1.504,1.823 -2.541,3.532 -3.11,5.127c-0.57,1.595 -0.855,3.486 -0.855,5.674l0,23.925c0,4.148 0.251,7.007 0.752,8.58c0.502,1.572 1.333,2.722 2.495,3.452c1.162,0.729 2.906,1.298 5.23,1.709l0,3.349l-27.549,0l0,-3.349c1.732,-0.547 2.974,-1.026 3.726,-1.436c0.752,-0.41 1.401,-0.98 1.948,-1.709c0.547,-0.729 0.957,-1.846 1.23,-3.35c0.274,-1.503 0.41,-3.85 0.41,-7.041l0,-29.804c0,-2.917 -0.045,-5.264 -0.136,-7.041c-0.091,-1.778 -0.41,-3.202 -0.957,-4.273c-0.547,-1.071 -1.379,-1.868 -2.495,-2.392c-1.117,-0.524 -2.701,-0.969 -4.751,-1.333l0,-3.555l15.996,-0.684l4.17,0l-0.752,11.963Z" style="fill-rule:nonzero;"/><path d="M609.84,629.131l-1.025,-0.274c-3.965,4.056 -7.691,6.928 -11.177,8.614c-3.486,1.686 -7.189,2.529 -11.108,2.529c-3.464,0 -6.517,-0.672 -9.161,-2.017c-2.643,-1.344 -4.671,-3.235 -6.083,-5.673c-1.413,-2.439 -2.12,-5.253 -2.12,-8.443c0,-6.653 3.293,-11.792 9.878,-15.415c6.586,-3.623 16.464,-5.731 29.634,-6.323l0,-4.443c0,-4.74 -0.456,-8.477 -1.367,-11.211c-0.912,-2.735 -2.347,-4.74 -4.307,-6.016c-1.959,-1.276 -4.58,-1.914 -7.861,-1.914c-3.555,0 -6.414,0.934 -8.579,2.803c-2.165,1.868 -3.794,4.671 -4.888,8.408l-8.955,0l0,-8.887c4.375,-2.279 8.021,-3.953 10.938,-5.024c2.916,-1.071 5.833,-1.914 8.75,-2.53c2.916,-0.615 5.878,-0.922 8.886,-0.922c4.512,0 8.135,0.717 10.869,2.153c2.735,1.435 4.786,3.634 6.153,6.597c1.367,2.962 2.051,7.428 2.051,13.398l0,23.789c0,3.372 0.022,5.754 0.068,7.144c0.045,1.39 0.182,2.677 0.41,3.862c0.228,1.185 0.57,2.13 1.025,2.837c0.456,0.706 1.128,1.31 2.017,1.811c0.889,0.502 2.336,1.026 4.341,1.573l0,3.349l-18.731,0l0.342,-9.775Zm-1.162,-21.397c-9.251,0.092 -16.178,1.322 -20.781,3.692c-4.603,2.37 -6.904,5.947 -6.904,10.732c0,2.598 0.524,4.649 1.572,6.153c1.048,1.503 2.37,2.54 3.965,3.11c1.595,0.57 3.486,0.854 5.673,0.854c3.099,0 5.914,-0.752 8.443,-2.255c2.529,-1.504 4.5,-3.418 5.913,-5.743c1.413,-2.324 2.119,-4.625 2.119,-6.904l0,-9.639Z" style="fill-rule:nonzero;"/><path d="M657.145,584.902l0.957,0.205c2.506,-3.053 4.831,-5.457 6.973,-7.211c2.142,-1.755 4.454,-3.111 6.938,-4.068c2.484,-0.957 5.298,-1.435 8.442,-1.435c2.644,0 5.036,0.136 7.178,0.41l0,15.722l-7.724,0c-1.094,-2.461 -2.256,-4.249 -3.487,-5.366c-1.23,-1.116 -2.916,-1.675 -5.058,-1.675c-1.641,0 -3.27,0.479 -4.888,1.436c-1.618,0.957 -3.179,2.347 -4.683,4.17c-1.504,1.823 -2.54,3.532 -3.11,5.127c-0.57,1.595 -0.855,3.486 -0.855,5.674l0,23.925c0,4.148 0.251,7.007 0.752,8.58c0.502,1.572 1.333,2.722 2.496,3.452c1.162,0.729 2.905,1.298 5.229,1.709l0,3.349l-27.549,0l0,-3.349c1.732,-0.547 2.974,-1.026 3.726,-1.436c0.752,-0.41 1.401,-0.98 1.948,-1.709c0.547,-0.729 0.957,-1.846 1.231,-3.35c0.273,-1.503 0.41,-3.85 0.41,-7.041l0,-29.804c0,-2.917 -0.046,-5.264 -0.137,-7.041c-0.091,-1.778 -0.41,-3.202 -0.957,-4.273c-0.547,-1.071 -1.379,-1.868 -2.495,-2.392c-1.117,-0.524 -2.7,-0.969 -4.751,-1.333l0,-3.555l15.996,-0.684l4.17,0l-0.752,11.963Z" style="fill-rule:nonzero;"/><path d="M716.139,546.758l0,13.262l-12.578,0l0,-13.262l12.578,0Zm-19.551,88.799c1.778,-0.547 3.042,-1.026 3.794,-1.436c0.752,-0.41 1.39,-0.98 1.914,-1.709c0.524,-0.729 0.935,-1.846 1.231,-3.35c0.296,-1.503 0.444,-3.85 0.444,-7.041l0,-29.804c0,-2.917 -0.046,-5.264 -0.137,-7.041c-0.091,-1.778 -0.41,-3.202 -0.957,-4.273c-0.547,-1.071 -1.378,-1.868 -2.495,-2.392c-1.116,-0.524 -2.7,-0.969 -4.751,-1.333l0,-3.623l15.928,-0.616l4.17,0l0,48.877c0,3.92 0.182,6.643 0.547,8.169c0.364,1.527 1.059,2.689 2.085,3.487c1.025,0.797 2.7,1.492 5.024,2.085l0,3.349l-26.797,0l0,-3.349Z" style="fill-rule:nonzero;"/></g><rect x="32.5" y="0" width="18.75" height="1280" style="fill:#118f6b;"/><g><path d="M700.597,1145.84c-17.321,-12.139 -53.674,-29.41 -120.252,-29.41l-10.264,0l-131.261,-61.257c-14.95,-6.977 -31.25,-10.593 -47.746,-10.593l-114.17,0c-9.729,0 -19.357,1.975 -28.305,5.807l-118.527,50.797c-7.662,3.287 -15.915,4.977 -24.258,4.977l-7.888,0c-11.334,0 -20.527,9.193 -20.527,20.532l0,64.978c0,9.924 7.097,18.427 16.856,20.202l96.053,17.461l0,10.264l502.947,0c11.334,0 20.527,-9.188 20.527,-20.527l0,-47.942c0,-10.094 -4.917,-19.497 -13.185,-25.289Z" style="fill:#ed4c67;fill-rule:nonzero;"/><path d="M263.779,1073.46l-30.11,13.694c-6.858,3.117 -8.123,9.584 -7.128,14.185c0.99,4.597 4.832,9.959 12.349,9.959l118.107,0l0,-41.054l-78.353,0c-5.161,0 -10.163,1.08 -14.865,3.216Z" style="fill:#ea2027;fill-rule:nonzero;"/><path d="M704.108,1198.55c-8.042,0 -15.025,-4.851 -18.676,-12.024c-11.864,-23.318 -36.068,-39.299 -64.028,-39.299c-27.959,0 -52.168,15.981 -64.032,39.299c-3.651,7.173 -10.629,12.024 -18.677,12.024l-204.691,0l0,-41.059l-98.21,0c-4.931,0 -9.903,-0.825 -14.335,-2.991c-9.423,-4.607 -19.957,-7.273 -31.156,-7.273c-11.214,0 -21.767,2.651 -31.195,7.268c-4.437,2.171 -9.419,2.996 -14.366,2.996l-67.343,0l0,34.187c0,1.205 0.11,2.386 0.315,3.531c0.195,1.141 0.5,2.246 0.88,3.316c0,0.005 0,0.015 0.005,0.025c2.406,6.763 8.258,11.98 15.656,13.33l96.048,17.461l20.533,10.264l482.419,0c11.334,0 20.527,-9.188 20.527,-20.527l0,-20.528l-9.674,0Z" style="fill:#ea2027;fill-rule:nonzero;"/><path d="M334.004,1157.49l-41.055,0l24.634,32.847c3.876,5.171 9.963,8.212 16.421,8.212l41.059,0l-24.633,-32.846c-3.882,-5.172 -9.964,-8.213 -16.426,-8.213Z" style="fill:#6f6571;fill-rule:nonzero;"/><path d="M672.727,1219.07c0,28.345 -22.978,51.323 -51.323,51.323c-28.345,0 -51.323,-22.978 -51.323,-51.323c0,-28.345 22.978,-51.323 51.323,-51.323c28.345,0 51.323,22.978 51.323,51.323Z" style="fill:#5d5360;fill-rule:nonzero;"/><path d="M241.626,1219.07c0,28.345 -22.978,51.323 -51.323,51.323c-28.345,0 -51.318,-22.978 -51.318,-51.323c0,-28.345 22.973,-51.323 51.318,-51.323c28.345,0 51.323,22.978 51.323,51.323Z" style="fill:#5d5360;fill-rule:nonzero;"/><path d="M324.786,1105.68c5.852,6.822 14.39,10.754 23.383,10.754l221.912,0l-131.266,-61.257c-11.028,-5.152 -22.798,-8.438 -34.832,-9.823l-130.901,0l51.704,60.326Z" style="fill:#a4ccff;fill-rule:nonzero;"/><path d="M438.815,1055.18c-11.028,-5.152 -22.798,-8.438 -34.832,-9.823l-130.901,0l25.729,30.02l183.29,0l-43.286,-20.197Z" style="fill:#c3ddff;fill-rule:nonzero;"/><path d="M706.154,1138.01c-36.743,-25.774 -88.696,-31.181 -125.809,-31.181l-8.133,0l-129.335,-60.356c-16.111,-7.522 -34.027,-11.494 -51.803,-11.494l-114.17,0c-11.094,0 -21.888,2.216 -32.086,6.582l-118.527,50.798c-6.507,2.791 -13.395,4.207 -20.477,4.207l-7.888,0c-16.611,-0.005 -30.13,13.514 -30.13,30.13l0,65.193c0,14.39 10.253,26.83 24.378,29.575l38.003,7.393c4.697,28.96 29.866,51.143 60.126,51.143c22.638,0 42.415,-12.419 52.919,-30.796l325.264,0c10.504,18.377 30.28,30.796 52.918,30.796c22.633,0 42.415,-12.419 52.919,-30.796l18.932,0c16.61,0 30.13,-13.515 30.13,-30.13l0,-47.942c0,-13.17 -6.442,-25.554 -17.231,-33.122Zm-271.4,-74.131l92.042,42.95l-137.053,0l-45.126,-52.643l46.452,0c14.995,0 30.1,3.351 43.685,9.693Zm-115.43,-9.693l45.125,52.643l-16.28,0c-6.192,0 -12.06,-2.696 -16.091,-7.402l-38.779,-45.241l26.025,0Zm-69.095,175.811c0.646,-3.546 1.001,-7.192 1.001,-10.923c0,-4.092 -0.41,-8.188 -1.221,-12.175c-1.055,-5.196 -6.122,-8.553 -11.319,-7.502c-5.201,1.055 -8.558,6.127 -7.502,11.324c0.555,2.726 0.835,5.537 0.835,8.353c0,23.003 -18.717,41.714 -41.72,41.714c-23.003,0 -41.714,-18.711 -41.714,-41.714c0,-23.003 18.711,-41.72 41.714,-41.72c5.827,0 11.454,1.175 16.736,3.491c4.852,2.126 10.519,-0.085 12.65,-4.941c2.13,-4.857 -0.08,-10.519 -4.937,-12.65c-7.728,-3.386 -15.956,-5.107 -24.449,-5.107c-30.26,0 -55.429,22.183 -60.126,51.143l-34.337,-6.677c-5.121,-0.995 -8.843,-5.507 -8.843,-10.724l0,-35.062l10.929,0c5.302,0 9.603,-4.302 9.603,-9.604c0,-5.301 -4.301,-9.603 -9.603,-9.603l-10.924,0l0,-10.924c0,-6.027 4.902,-10.924 10.924,-10.924l7.888,0c9.698,0 19.132,-1.94 28.045,-5.757l118.521,-50.797c5.197,-2.226 10.594,-3.702 16.121,-4.452l48.997,57.16c7.683,8.968 18.862,14.11 30.671,14.11l232.176,0c25.664,0 71.455,3.006 105.382,21.848l-2.736,0c-5.307,0 -9.603,4.301 -9.603,9.603c0,5.307 4.296,9.603 9.603,9.603l20.792,0c0.255,1.321 0.395,2.671 0.395,4.042l0,17.811l-29.855,0c-10.504,-18.376 -30.281,-30.791 -52.919,-30.791c-22.638,0 -42.414,12.415 -52.918,30.791l-18.927,0c-5.307,0 -9.603,4.297 -9.603,9.603c0,5.302 4.296,9.604 9.603,9.604l11.919,0c-0.645,3.546 -1,7.192 -1,10.924c0,3.731 0.355,7.377 1,10.923l-311.249,0Zm371.175,30.791c-23.003,0 -41.719,-18.711 -41.719,-41.714c0,-23.003 18.716,-41.72 41.719,-41.72c23.003,0 41.72,18.717 41.72,41.72c0,23.003 -18.717,41.714 -41.72,41.714Zm71.851,-30.791l-11.925,0c0.646,-3.546 1.001,-7.192 1.001,-10.923c0,-3.732 -0.355,-7.378 -1.001,-10.924l22.848,0l0,10.924c0,6.022 -4.901,10.923 -10.923,10.923Z" style="fill-rule:nonzero;"/><path d="M508.5,1188.94l-128.635,0l-21.753,-29.005c-5.662,-7.548 -14.675,-12.054 -24.108,-12.054l-41.055,0c-3.641,0 -6.962,2.055 -8.588,5.312c-1.63,3.251 -1.28,7.147 0.906,10.053l24.633,32.847c5.657,7.547 14.67,12.054 24.104,12.054l174.496,0c5.302,0 9.603,-4.302 9.603,-9.604c0,-5.306 -4.301,-9.603 -9.603,-9.603Zm-174.496,0c-3.421,0 -6.688,-1.635 -8.738,-4.371l-13.11,-17.482l21.848,0c3.421,0 6.687,1.636 8.743,4.372l13.109,17.481l-21.852,0Z" style="fill-rule:nonzero;"/><path d="M190.303,1199.21c-10.953,0 -19.867,8.913 -19.867,19.867c0,10.953 8.914,19.867 19.867,19.867c10.959,0 19.867,-8.914 19.867,-19.867c0,-10.954 -8.908,-19.867 -19.867,-19.867Z" style="fill-rule:nonzero;"/><path d="M621.404,1199.21c-10.953,0 -19.867,8.913 -19.867,19.867c0,10.953 8.914,19.867 19.867,19.867c10.954,0 19.867,-8.914 19.867,-19.867c0,-10.954 -8.913,-19.867 -19.867,-19.867Z" style="fill-rule:nonzero;"/></g><g><rect x="572.013" y="963.495" width="41.283" height="41.283" style="fill:#d6a15b;fill-rule:nonzero;"/><path d="M647.699,870.526c0,-13.246 -10.754,-24 -24,-24l-62.088,0c-13.246,0 -24,10.754 -24,24l0,68.969c0,13.246 10.754,24 24,24l62.088,0c13.246,0 24,-10.754 24,-24l0,-68.969Z" style="fill:#edba70;"/><path d="M716.505,1048.81l0,231.186l-247.7,0l0,-231.186c0,-0.016 0,-0.032 0,-0.048c0,-24.131 19.857,-43.987 43.988,-43.987c0.016,0 0.032,0 0.048,0l158.94,0c24.296,-0.055 44.402,19.741 44.724,44.035Z" style="fill:#f7941e;fill-rule:nonzero;"/><path d="M606.416,1128.63l0,54.976c0,0.007 0,0.013 0,0.02c0,52.87 -43.505,96.376 -96.376,96.376c-0.006,0 -0.013,0 -0.02,0l-41.215,0l0,-151.372l137.611,0Z" style="fill:#dd7e17;fill-rule:nonzero;"/><path d="M441.283,1149.27l-34.402,0l0,34.403c0,11.323 9.317,20.641 20.641,20.641l27.522,0" style="fill:#edba70;fill-rule:nonzero;"/><rect x="461.925" y="1094.23" width="110.089" height="34.403" style="fill:#fdca2f;fill-rule:nonzero;"/><path d="M592.655,1128.63l0,34.403c0,0.014 0,0.027 0,0.041c0,41.498 -34.147,75.645 -75.645,75.645c-0.013,0 -0.027,0 -0.041,0c-2.737,0.013 -5.471,-0.148 -8.188,-0.482c-38.233,-4.088 -67.551,-36.753 -67.498,-75.204l0,-34.403l151.372,0Z" style="fill:#5e3011;fill-rule:nonzero;"/><path d="M633.938,1004.78l0,137.61l41.283,-13.761l0,-123.849l-41.283,0Z" style="fill:#ce730f;fill-rule:nonzero;"/><path d="M647.699,887.81l0,34.402c0,22.647 -18.636,41.283 -41.283,41.283l-8.945,0l0,-116.969l8.945,0c22.647,0 41.283,18.636 41.283,41.284Z" style="fill:#c9934c;fill-rule:nonzero;"/><path d="M508.781,1238.24c-38.233,-4.088 -67.551,-36.753 -67.498,-75.204l0,-34.403l48.164,0l0,63.095c-0.03,10.329 2.399,20.519 7.087,29.724c3.144,6.223 7.281,11.894 12.247,16.788Z" style="fill:#844215;fill-rule:nonzero;"/><path d="M512.841,997.898c-27.932,0 -50.916,22.984 -50.916,50.916l0,38.531c-3.775,0 -6.881,3.106 -6.881,6.881l0,27.522l-13.761,0c-3.774,0 -6.88,3.106 -6.88,6.88l0,13.761l-27.522,0c-3.775,0 -6.881,3.106 -6.881,6.881l0,34.403c0,15.098 12.424,27.522 27.522,27.522l22.52,0c3.503,4.849 7.519,9.306 11.979,13.293c0,0.165 -0.096,0.303 -0.096,0.468l0,48.163c0,3.775 3.106,6.881 6.88,6.881c3.775,0 6.881,-3.106 6.881,-6.881l0,-38.696c33.886,19.755 77.43,12.596 103.208,-16.967c6.007,-0.654 15.791,-1.92 27.749,-4.218c6.843,5.033 14.045,9.556 21.55,13.534c-10.041,7.355 -20.655,13.894 -31.74,19.555c-2.327,1.164 -3.803,3.552 -3.803,6.154c0,3.776 3.107,6.882 6.882,6.882c1.069,0 2.123,-0.249 3.079,-0.727c13.944,-7.026 27.106,-15.507 39.267,-25.3c19.052,8.415 39.619,12.863 60.446,13.073c2.403,0 4.837,-0.066 7.3,-0.199l0,26.909c0,3.775 3.106,6.881 6.881,6.881c3.774,0 6.88,-3.106 6.88,-6.881l0,-178.893c0,-3.775 -3.106,-6.881 -6.88,-6.881c-3.775,0 -6.881,3.106 -6.881,6.881l0,58.966c-33.715,32.008 -90.878,44.476 -119.948,48.913c6.483,-12.001 9.873,-25.433 9.86,-39.074l0,-34.403c0,-3.774 -3.106,-6.88 -6.881,-6.88l-13.761,0l0,-27.522c0,-3.775 -3.106,-6.881 -6.881,-6.881l-48.163,0l0,-19.954c19.609,1.26 70.697,0.248 103.208,-39.391l0,42.591c-8.813,7.407 -18.87,13.192 -29.704,17.084c-2.838,0.912 -4.775,3.57 -4.775,6.551c0,3.775 3.106,6.881 6.88,6.881c0.026,0 0.051,-0.001 0.077,-0.001c0.739,-0.003 1.473,-0.124 2.174,-0.358c8.939,-3.18 17.453,-7.451 25.348,-12.715l0,54.356c0,0.001 0,0.001 0,0.002c0,3.775 3.106,6.88 6.88,6.88c0.739,0 1.473,-0.119 2.174,-0.352l41.284,-13.761c2.803,-0.934 4.707,-3.575 4.706,-6.53l0,-115.531c16.1,4.368 27.402,19.035 27.522,35.717l0,17.889c0,3.775 3.106,6.881 6.881,6.881c3.774,0 6.88,-3.106 6.88,-6.881l0,-17.889c-0.202,-26.377 -20.746,-48.504 -47.035,-50.661c-0.368,-0.119 -0.746,-0.204 -1.129,-0.255l-55.044,0l0,-29.552c20.333,-6.085 34.371,-24.91 34.403,-46.134l0,-34.402c-0.03,-26.411 -21.754,-48.134 -48.164,-48.164l-27.522,0c-26.411,0.03 -48.134,21.753 -48.164,48.164l0,34.402c0.032,21.224 14.07,40.049 34.403,46.134l0,29.552l-52.292,0Zm196.783,234.379c-22.456,0.98 -44.82,-3.485 -65.179,-13.011c-0.598,-0.392 -1.256,-0.685 -1.947,-0.867c-5.906,-2.76 -11.649,-5.855 -17.202,-9.269c30.385,-6.76 59.079,-19.637 84.328,-37.842l0,60.989Zm-282.102,-34.843c-7.549,0 -13.761,-6.212 -13.761,-13.761l0,-27.523l20.642,0l0,6.881c0.01,11.883 2.604,23.622 7.603,34.403l-14.484,0Zm137.611,-75.686l-55.044,0c-3.775,0 -6.881,3.106 -6.881,6.88c0,3.775 3.106,6.881 6.881,6.881l75.685,0l0,27.522c-0.003,14.904 -4.88,29.406 -13.884,41.283l-0.372,0l0,0.42c-12.991,17.022 -33.218,27.031 -54.631,27.031c-37.701,0 -68.723,-31.023 -68.723,-68.723c0,-0.004 0,-0.007 0,-0.011l0,-27.522l34.402,0c3.775,0 6.881,-3.106 6.881,-6.881c0,-3.774 -3.106,-6.88 -6.881,-6.88l-13.761,0l0,-20.642l96.328,0l0,20.642Zm-47.042,-68.716c-0.371,-0.061 -0.746,-0.092 -1.122,-0.092c-3.774,0 -6.88,3.106 -6.88,6.88c0,0.001 0,0.002 0,0.003l0,27.522l-34.403,0l0,-38.531c0,-20.383 16.772,-37.155 37.155,-37.155l109.194,0c-34.128,52.086 -100.938,41.861 -103.944,41.373Zm150.25,-41.373l0,112.008l-27.522,9.172l0,-121.18l27.522,0Zm-123.85,-89.447l0,-34.402c0.023,-18.865 15.539,-34.381 34.403,-34.403l27.522,0c18.864,0.022 34.38,15.538 34.403,34.403l0,34.402c-0.023,18.864 -15.539,34.38 -34.403,34.403l-27.522,0c-18.864,-0.023 -34.38,-15.539 -34.403,-34.403Zm34.403,48.164l27.522,0l0,27.522l-27.522,0l0,-27.522Z" style="fill-rule:nonzero;"/><path d="M516.969,1176.79l6.881,0c3.774,0 6.88,-3.106 6.88,-6.881c0,-3.774 -3.106,-6.88 -6.88,-6.88l-6.881,0c-3.774,0 -6.88,3.106 -6.88,6.88c0,3.775 3.106,6.881 6.88,6.881Z" style="fill-rule:nonzero;"/><path d="M544.491,1176.79l6.881,0c3.774,0 6.88,-3.106 6.88,-6.881c0,-3.774 -3.106,-6.88 -6.88,-6.88l-6.881,0c-3.774,0 -6.88,3.106 -6.88,6.88c0,3.775 3.106,6.881 6.88,6.881Z" style="fill-rule:nonzero;"/></g></svg>