<?xml version="1.0" encoding="UTF-8" standalone="no"?><!DOCTYPE svg PUBLIC "-//W3C//DTD SVG 1.1//EN" "http://www.w3.org/Graphics/SVG/1.1/DTD/svg11.dtd"><svg width="100%" height="100%" viewBox="0 0 800 1280" version="1.1" xmlns="http://www.w3.org/2000/svg" xmlns:xlink="http://www.w3.org/1999/xlink" xml:space="preserve" xmlns:serif="http://www.serif.com/" style="fill-rule:evenodd;clip-rule:evenodd;stroke-linejoin:round;stroke-miterlimit:1.41421;"><rect x="0" y="0" width="800" height="1280" style="fill:#ebebeb;"/><rect x="0" y="0" width="800" height="640" style="fill:#241e4e;"/><g><path d="M135.7,731.355l-1.4,43.5l1.2,26l-14,0l1.2,-24.3l-0.2,-5.3l-26.9,0l-0.1,3.6l1.2,26l-14,0l1.2,-24.3l-1.2,-42.7l14.2,-2.5l-1,29.3l26.3,0l-0.7,-26.8l14.2,-2.5Z" style="fill:#191436;fill-rule:nonzero;"/><path d="M159.5,800.855c-3.933,0 -7.15,-1.25 -9.65,-3.75c-2.5,-2.5 -3.75,-5.867 -3.75,-10.1c0,-4.233 1.933,-7.9 5.8,-11c3.867,-3.1 8.567,-4.65 14.1,-4.65l6.8,0l0,-1.7c0,-3.267 -0.667,-5.5 -2,-6.7c-1.333,-1.2 -3.833,-1.8 -7.5,-1.8c-1.533,0 -3.35,0.317 -5.45,0.95c-2.1,0.633 -4.45,1.617 -7.05,2.95l-2.9,-7.9c2.867,-2 6.35,-3.8 10.45,-5.4c4.1,-1.6 7.483,-2.4 10.15,-2.4c10.467,0 15.7,5.067 15.7,15.2l0,19.6c0,3.733 1.167,7.9 3.5,12.5l-10.6,4.5c-1.667,-3.2 -2.9,-6.067 -3.7,-8.6c-3.667,5.533 -8.3,8.3 -13.9,8.3Zm4.2,-10.2c2.667,0 5.7,-1.367 9.1,-4.1l0,-6.7c-3.533,-0.8 -6.4,-1.2 -8.6,-1.2c-4.2,0 -6.3,1.867 -6.3,5.6c0,1.933 0.533,3.483 1.6,4.65c1.067,1.167 2.467,1.75 4.2,1.75Z" style="fill:#191436;fill-rule:nonzero;"/><path d="M222.9,750.355c4.467,0 8.1,1.933 10.9,5.8c2.8,3.867 4.2,8.833 4.2,14.9c0,8.733 -2.283,15.883 -6.85,21.45c-4.567,5.567 -10.483,8.35 -17.75,8.35c-3.333,0 -8.933,-0.533 -16.8,-1.6l1,-22.7l-1.2,-50.6l13.7,-2.5l-1.3,25.8l0,10.8c0.733,-1.067 1.633,-2.2 2.7,-3.4c1.067,-1.2 2.733,-2.55 5,-4.05c2.267,-1.5 4.4,-2.25 6.4,-2.25Zm-3.9,13c-3.067,0 -6.467,0.933 -10.2,2.8l0,8.7l0.6,14.7c2.8,0.333 5.433,0.5 7.9,0.5c6.4,0 9.6,-4.45 9.6,-13.35c0,-8.9 -2.633,-13.35 -7.9,-13.35Z" style="fill:#191436;fill-rule:nonzero;"/><path d="M259.7,749.955l-1.2,24.9l1.1,23.5l-13.4,2.5l1.2,-24.3l-1.1,-24.1l13.4,-2.5Zm-14.1,-14.65c0,-2.233 0.867,-4.233 2.6,-6c1.733,-1.767 3.733,-2.65 6,-2.65c2.267,0 4,0.617 5.2,1.85c1.2,1.233 1.8,3.083 1.8,5.55c0,2.467 -0.85,4.583 -2.55,6.35c-1.7,1.767 -3.667,2.65 -5.9,2.65c-2.233,0 -3.983,-0.733 -5.25,-2.2c-1.267,-1.467 -1.9,-3.317 -1.9,-5.55Z" style="fill:#191436;fill-rule:nonzero;"/><path d="M274.6,752.455l0,-10.9l13.5,-2.6l-1.3,13.5l12.1,0l-1.1,8.2l-11.4,0l-0.5,20.9c0,3.133 0.3,5.217 0.9,6.25c0.6,1.033 1.7,1.55 3.3,1.55c1.6,0 3.733,-0.367 6.4,-1.1l0.6,7.1c-4.4,3.667 -8.267,5.5 -11.6,5.5c-3.333,0 -6.067,-1.217 -8.2,-3.65c-2.133,-2.433 -3.2,-5.617 -3.2,-9.55l0.6,-11.2l-0.1,-15.8l-6.9,0l1.1,-8.2l5.8,0Z" style="fill:#191436;fill-rule:nonzero;"/><path d="M321.3,791.555c3.467,0 5.2,-1.533 5.2,-4.6c0,-1.067 -0.75,-2.067 -2.25,-3c-1.5,-0.933 -3.333,-1.867 -5.5,-2.8c-2.167,-0.933 -4.333,-1.983 -6.5,-3.15c-2.167,-1.167 -4,-2.783 -5.5,-4.85c-1.5,-2.067 -2.25,-4.433 -2.25,-7.1c0,-4.467 1.967,-8.367 5.9,-11.7c3.933,-3.333 8.467,-5 13.6,-5c2.4,0 4.75,0.283 7.05,0.85c2.3,0.567 4.517,1.45 6.65,2.65l-6.7,12.2c-0.467,-0.4 -1.067,-0.9 -1.8,-1.5c-0.733,-0.6 -2.117,-1.383 -4.15,-2.35c-2.033,-0.967 -3.833,-1.45 -5.4,-1.45c-1.567,0 -2.767,0.35 -3.6,1.05c-0.833,0.7 -1.25,1.667 -1.25,2.9c0,1.233 1.15,2.467 3.45,3.7c2.3,1.233 4.817,2.367 7.55,3.4c2.733,1.033 5.25,2.733 7.55,5.1c2.3,2.367 3.45,5.183 3.45,8.45c0,4.667 -1.917,8.767 -5.75,12.3c-3.833,3.533 -8.25,5.3 -13.25,5.3c-3.2,0 -6.183,-0.7 -8.95,-2.1c-2.767,-1.4 -4.75,-2.8 -5.95,-4.2l-1.8,-2.1l7.9,-9.2c0.4,0.533 0.967,1.2 1.7,2c0.733,0.8 2.183,1.867 4.35,3.2c2.167,1.333 4.25,2 6.25,2Z" style="fill:#191436;fill-rule:nonzero;"/><path d="M358,779.955c0,-8.533 2.3,-15.767 6.9,-21.7c4.6,-5.933 9.983,-8.9 16.15,-8.9c6.167,0 10.967,2 14.4,6c3.433,4 5.15,9.3 5.15,15.9c0,8.8 -2.217,16.117 -6.65,21.95c-4.433,5.833 -10.017,8.75 -16.75,8.75c-5.533,0 -10.117,-2.083 -13.75,-6.25c-3.633,-4.167 -5.45,-9.417 -5.45,-15.75Zm31.4,-3.5c0,-9.667 -3.3,-14.5 -9.9,-14.5c-6.867,0 -10.3,4.533 -10.3,13.6c0,4.733 0.967,8.433 2.9,11.1c1.933,2.667 4.483,4 7.65,4c3.167,0 5.567,-1.217 7.2,-3.65c1.633,-2.433 2.45,-5.95 2.45,-10.55Z" style="fill:#191436;fill-rule:nonzero;"/><path d="M435.9,735.755c-2.467,-0.6 -4.7,-0.9 -6.7,-0.9c-2,0 -3.45,0.6 -4.35,1.8c-0.9,1.2 -1.35,3.3 -1.35,6.3l-0.1,9.5l10.8,0l-1.1,8.2l-9.7,0l-0.1,14.2l1.1,23.5l-13.5,2.5l1.2,-24.3l-0.4,-15.9l-6.6,0l1.1,-8.2l5.3,0l-0.1,-7.6c0,-5.933 1.833,-10.983 5.5,-15.15c3.667,-4.167 8.133,-6.25 13.4,-6.25c2.8,0 5.7,0.3 8.7,0.9l-3.1,11.4Z" style="fill:#191436;fill-rule:nonzero;"/><path d="M510.1,731.355l-1.4,43.5l1.2,26l-14,0l1.2,-24.3l-0.2,-5.3l-26.9,0l-0.1,3.6l1.2,26l-14,0l1.2,-24.3l-1.2,-42.7l14.2,-2.5l-1,29.3l26.3,0l-0.7,-26.8l14.2,-2.5Z" style="fill:#191436;fill-rule:nonzero;"/><path d="M537.3,749.955l-1.2,24.9l1.1,23.5l-13.4,2.5l1.2,-24.3l-1.1,-24.1l13.4,-2.5Zm-14.1,-14.65c0,-2.233 0.867,-4.233 2.6,-6c1.733,-1.767 3.733,-2.65 6,-2.65c2.267,0 4,0.617 5.2,1.85c1.2,1.233 1.8,3.083 1.8,5.55c0,2.467 -0.85,4.583 -2.55,6.35c-1.7,1.767 -3.667,2.65 -5.9,2.65c-2.233,0 -3.983,-0.733 -5.25,-2.2c-1.267,-1.467 -1.9,-3.317 -1.9,-5.55Z" style="fill:#191436;fill-rule:nonzero;"/><path d="M544.8,810.755c0,-5.867 5.467,-10.467 16.4,-13.8c-2.6,-1.333 -3.9,-3.067 -3.9,-5.2c0,-0.867 0.333,-1.733 1,-2.6c0.667,-0.867 1.633,-1.767 2.9,-2.7l0,-0.8c-4.8,0 -8.617,-1.333 -11.45,-4c-2.833,-2.667 -4.25,-6.233 -4.25,-10.7c0,-5.8 2.367,-10.85 7.1,-15.15c4.733,-4.3 10.333,-6.45 16.8,-6.45c1.667,0 4.1,0.333 7.3,1c3.2,0.667 6.333,1 9.4,1l7.7,0l-1,8.7l-7.5,-0.9c0.667,1.933 1,4.133 1,6.6c0,2.467 -0.583,4.917 -1.75,7.35c-1.167,2.433 -2.567,4.383 -4.2,5.85c-1.633,1.467 -3.267,2.75 -4.9,3.85c-1.633,1.1 -3.033,2.067 -4.2,2.9c-1.167,0.833 -1.75,1.583 -1.75,2.25c0,1.267 1.333,2.367 4,3.3c7.067,2.867 11.85,5.3 14.35,7.3c2.5,2 3.75,4.467 3.75,7.4c0,4.933 -2.483,8.983 -7.45,12.15c-4.967,3.167 -10.883,4.75 -17.75,4.75c-6.867,0 -12.183,-1.1 -15.95,-3.3c-3.767,-2.2 -5.65,-5.133 -5.65,-8.8Zm30.2,-42c0,-3.267 -0.733,-5.667 -2.2,-7.2c-1.467,-1.533 -3.767,-2.3 -6.9,-2.3c-6.067,0 -9.1,2.983 -9.1,8.95c0,5.967 3.233,8.95 9.7,8.95c5.667,0 8.5,-2.8 8.5,-8.4Zm3.6,38.7c0,-1.2 -0.633,-2.317 -1.9,-3.35c-1.267,-1.033 -3.533,-2.25 -6.8,-3.65c-4.867,1.333 -8.217,2.567 -10.05,3.7c-1.833,1.133 -2.75,2.533 -2.75,4.2c0,1.667 0.917,3.017 2.75,4.05c1.833,1.033 4.383,1.55 7.65,1.55c3.267,0 5.933,-0.6 8,-1.8c2.067,-1.2 3.1,-2.767 3.1,-4.7Z" style="fill:#191436;fill-rule:nonzero;"/><path d="M628.3,775.555c0,-4.6 -0.4,-7.667 -1.2,-9.2c-0.8,-1.533 -2.667,-2.3 -5.6,-2.3c-2.933,0 -6.267,1.167 -10,3.5l0,7.3l1.1,23.5l-13.5,2.5l1.2,-24.3l-1.2,-50.6l13.7,-2.5l-1.3,25.9l0,11.7c1,-1.333 2.133,-2.633 3.4,-3.9c1.267,-1.267 3.233,-2.7 5.9,-4.3c2.667,-1.6 5.517,-2.4 8.55,-2.4c3.033,0 5.583,1.183 7.65,3.55c2.067,2.367 3.1,5.583 3.1,9.65l-0.6,11.2l1.1,24l-13.5,2.5l1.2,-25.8Z" style="fill:#191436;fill-rule:nonzero;"/><path d="M665.3,723.455l-1.3,51.4l1.1,23.5l-13.5,2.5l1.2,-24.3l-1.2,-50.6l13.7,-2.5Z" style="fill:#191436;fill-rule:nonzero;"/><path d="M678.3,820.155l10.3,-23.1l-7.4,-20.2l-10.1,-24.3l13.3,-2.5l6.4,21.3l3.3,10.1l1.3,0l2.4,-7.3l7.2,-24.2l12.3,1.5l-17.7,46.5l-8.4,24.9l-12.9,-2.7Z" style="fill:#191436;fill-rule:nonzero;"/><path d="M92.9,900.855l1.2,-24.3l-1.2,-44.7l37.5,0l-1.1,10.7l-22.5,0l-0.6,17.7l20,0l-1.1,10.6l-19.3,0l-0.1,4l0.7,15.4l24.2,0l-1.1,10.6l-36.6,0Z" style="fill:#191436;fill-rule:nonzero;"/><path d="M166.6,835.755c-2.467,-0.6 -4.7,-0.9 -6.7,-0.9c-2,0 -3.45,0.6 -4.35,1.8c-0.9,1.2 -1.35,3.3 -1.35,6.3l-0.1,9.5l10.8,0l-1.1,8.2l-9.7,0l-0.1,14.2l1.1,23.5l-13.5,2.5l1.2,-24.3l-0.4,-15.9l-6.6,0l1.1,-8.2l5.3,0l-0.1,-7.6c0,-5.933 1.833,-10.983 5.5,-15.15c3.667,-4.167 8.133,-6.25 13.4,-6.25c2.8,0 5.7,0.3 8.7,0.9l-3.1,11.4Z" style="fill:#191436;fill-rule:nonzero;"/><path d="M196.9,835.755c-2.467,-0.6 -4.7,-0.9 -6.7,-0.9c-2,0 -3.45,0.6 -4.35,1.8c-0.9,1.2 -1.35,3.3 -1.35,6.3l-0.1,9.5l10.8,0l-1.1,8.2l-9.7,0l-0.1,14.2l1.1,23.5l-13.5,2.5l1.2,-24.3l-0.4,-15.9l-6.6,0l1.1,-8.2l5.3,0l-0.1,-7.6c0,-5.933 1.833,-10.983 5.5,-15.15c3.667,-4.167 8.133,-6.25 13.4,-6.25c2.8,0 5.7,0.3 8.7,0.9l-3.1,11.4Z" style="fill:#191436;fill-rule:nonzero;"/><path d="M218.5,890.655c1.933,0 3.967,-0.5 6.1,-1.5c2.133,-1 3.8,-2 5,-3l1.8,-1.5l4.6,5.6c-0.667,1.133 -1.7,2.433 -3.1,3.9c-1.4,1.467 -2.817,2.717 -4.25,3.75c-1.433,1.033 -3.333,1.967 -5.7,2.8c-2.367,0.833 -4.817,1.25 -7.35,1.25c-5.4,0 -9.8,-2.05 -13.2,-6.15c-3.4,-4.1 -5.1,-9.383 -5.1,-15.85c0,-8.133 2.367,-15.267 7.1,-21.4c4.733,-6.133 10.267,-9.2 16.6,-9.2c4.867,0 8.65,1.367 11.35,4.1c2.7,2.733 4.05,6.567 4.05,11.5c0,2.933 -0.5,6.267 -1.5,10l-2,2.1l-25,2.3c1.133,7.533 4.667,11.3 10.6,11.3Zm0,-31c-2.933,0 -5.4,1.183 -7.4,3.55c-2,2.367 -3.167,5.383 -3.5,9.05l17,-2.1c0.2,-1.533 0.3,-2.8 0.3,-3.8c0,-4.467 -2.133,-6.7 -6.4,-6.7Z" style="fill:#191436;fill-rule:nonzero;"/><path d="M262.3,862.355c-2.933,0 -5.2,1.05 -6.8,3.15c-1.6,2.1 -2.4,5.317 -2.4,9.65c0,4.333 0.817,7.817 2.45,10.45c1.633,2.633 4.017,3.95 7.15,3.95c1.6,0 3.167,-0.5 4.7,-1.5c1.533,-1 2.7,-2 3.5,-3l1.1,-1.6l5,5.2c-0.2,0.333 -0.45,0.8 -0.75,1.4c-0.3,0.6 -1.033,1.667 -2.2,3.2c-1.167,1.533 -2.4,2.883 -3.7,4.05c-1.3,1.167 -2.983,2.233 -5.05,3.2c-2.067,0.967 -4.233,1.45 -6.5,1.45c-5,0 -9.067,-2.033 -12.2,-6.1c-3.133,-4.067 -4.7,-9.367 -4.7,-15.9c0,-8.133 2.367,-15.267 7.1,-21.4c4.733,-6.133 10.267,-9.2 16.6,-9.2c1.933,0 3.867,0.283 5.8,0.85c1.933,0.567 3.9,1.45 5.9,2.65l-7,12.3c-2.4,-1.867 -5.067,-2.8 -8,-2.8Z" style="fill:#191436;fill-rule:nonzero;"/><path d="M287.5,852.455l0,-10.9l13.5,-2.6l-1.3,13.5l12.1,0l-1.1,8.2l-11.4,0l-0.5,20.9c0,3.133 0.3,5.217 0.9,6.25c0.6,1.033 1.7,1.55 3.3,1.55c1.6,0 3.733,-0.367 6.4,-1.1l0.6,7.1c-4.4,3.667 -8.267,5.5 -11.6,5.5c-3.333,0 -6.067,-1.217 -8.2,-3.65c-2.133,-2.433 -3.2,-5.617 -3.2,-9.55l0.6,-11.2l-0.1,-15.8l-6.9,0l1.1,-8.2l5.8,0Z" style="fill:#191436;fill-rule:nonzero;"/><path d="M332.5,849.955l-1.2,24.9l1.1,23.5l-13.4,2.5l1.2,-24.3l-1.1,-24.1l13.4,-2.5Zm-14.1,-14.65c0,-2.233 0.867,-4.233 2.6,-6c1.733,-1.767 3.733,-2.65 6,-2.65c2.267,0 4,0.617 5.2,1.85c1.2,1.233 1.8,3.083 1.8,5.55c0,2.467 -0.85,4.583 -2.55,6.35c-1.7,1.767 -3.667,2.65 -5.9,2.65c-2.233,0 -3.983,-0.733 -5.25,-2.2c-1.267,-1.467 -1.9,-3.317 -1.9,-5.55Z" style="fill:#191436;fill-rule:nonzero;"/><path d="M360.5,888.355l1.3,0l3.3,-13.7l5.4,-24.7l12.4,1.5l-7.5,24.8l-6.3,23.4l-17.1,1.5l-5.9,-24.3l-7.2,-24.3l13.6,-2.5l4.3,22l3.7,16.3Z" style="fill:#191436;fill-rule:nonzero;"/><path d="M407.5,890.655c1.933,0 3.967,-0.5 6.1,-1.5c2.133,-1 3.8,-2 5,-3l1.8,-1.5l4.6,5.6c-0.667,1.133 -1.7,2.433 -3.1,3.9c-1.4,1.467 -2.817,2.717 -4.25,3.75c-1.433,1.033 -3.333,1.967 -5.7,2.8c-2.367,0.833 -4.817,1.25 -7.35,1.25c-5.4,0 -9.8,-2.05 -13.2,-6.15c-3.4,-4.1 -5.1,-9.383 -5.1,-15.85c0,-8.133 2.367,-15.267 7.1,-21.4c4.733,-6.133 10.267,-9.2 16.6,-9.2c4.867,0 8.65,1.367 11.35,4.1c2.7,2.733 4.05,6.567 4.05,11.5c0,2.933 -0.5,6.267 -1.5,10l-2,2.1l-25,2.3c1.133,7.533 4.667,11.3 10.6,11.3Zm0,-31c-2.933,0 -5.4,1.183 -7.4,3.55c-2,2.367 -3.167,5.383 -3.5,9.05l17,-2.1c0.2,-1.533 0.3,-2.8 0.3,-3.8c0,-4.467 -2.133,-6.7 -6.4,-6.7Z" style="fill:#191436;fill-rule:nonzero;"/><path d="M473.4,831.855c6.4,0 11.5,1.817 15.3,5.45c3.8,3.633 5.7,8.617 5.7,14.95c0,6.333 -2.4,11.75 -7.2,16.25c-4.8,4.5 -10.667,6.75 -17.6,6.75l-5.7,0l1.2,25.6l-13.4,0l1.2,-24.3l-1.2,-44.7l21.7,0Zm-3.6,10.1l-4.9,0l-0.7,23.6l6.8,0c3.333,0 5.917,-1.1 7.75,-3.3c1.833,-2.2 2.75,-5.333 2.75,-9.4c0,-7.267 -3.9,-10.9 -11.7,-10.9Z" style="fill:#191436;fill-rule:nonzero;"/><path d="M518.4,890.655c1.933,0 3.967,-0.5 6.1,-1.5c2.133,-1 3.8,-2 5,-3l1.8,-1.5l4.6,5.6c-0.667,1.133 -1.7,2.433 -3.1,3.9c-1.4,1.467 -2.817,2.717 -4.25,3.75c-1.433,1.033 -3.333,1.967 -5.7,2.8c-2.367,0.833 -4.817,1.25 -7.35,1.25c-5.4,0 -9.8,-2.05 -13.2,-6.15c-3.4,-4.1 -5.1,-9.383 -5.1,-15.85c0,-8.133 2.367,-15.267 7.1,-21.4c4.733,-6.133 10.267,-9.2 16.6,-9.2c4.867,0 8.65,1.367 11.35,4.1c2.7,2.733 4.05,6.567 4.05,11.5c0,2.933 -0.5,6.267 -1.5,10l-2,2.1l-25,2.3c1.133,7.533 4.667,11.3 10.6,11.3Zm0,-31c-2.933,0 -5.4,1.183 -7.4,3.55c-2,2.367 -3.167,5.383 -3.5,9.05l17,-2.1c0.2,-1.533 0.3,-2.8 0.3,-3.8c0,-4.467 -2.133,-6.7 -6.4,-6.7Z" style="fill:#191436;fill-rule:nonzero;"/><path d="M542,879.955c0,-8.533 2.3,-15.767 6.9,-21.7c4.6,-5.933 9.983,-8.9 16.15,-8.9c6.167,0 10.967,2 14.4,6c3.433,4 5.15,9.3 5.15,15.9c0,8.8 -2.217,16.117 -6.65,21.95c-4.433,5.833 -10.017,8.75 -16.75,8.75c-5.533,0 -10.117,-2.083 -13.75,-6.25c-3.633,-4.167 -5.45,-9.417 -5.45,-15.75Zm31.4,-3.5c0,-9.667 -3.3,-14.5 -9.9,-14.5c-6.867,0 -10.3,4.533 -10.3,13.6c0,4.733 0.967,8.433 2.9,11.1c1.933,2.667 4.483,4 7.65,4c3.167,0 5.567,-1.217 7.2,-3.65c1.633,-2.433 2.45,-5.95 2.45,-10.55Z" style="fill:#191436;fill-rule:nonzero;"/><path d="M619.9,850.355c4.267,0 7.85,1.867 10.75,5.6c2.9,3.733 4.35,8.767 4.35,15.1c0,8.867 -2.283,16.05 -6.85,21.55c-4.567,5.5 -10.25,8.25 -17.05,8.25c-1.4,0 -2.967,-0.1 -4.7,-0.3l0.5,19.1l-13.7,2.5l1.3,-45.6l0.1,0c-0.267,-8.933 -1,-16.933 -2.2,-24l12.1,-2.6c0.4,3.533 0.733,7.033 1,10.5c0.133,-0.333 0.817,-1.25 2.05,-2.75c1.233,-1.5 3.05,-3.1 5.45,-4.8c2.4,-1.7 4.7,-2.55 6.9,-2.55Zm-3.9,13c-3.533,0 -6.967,0.967 -10.3,2.9l0,8.6l0.4,14.3c3.6,0.6 6.333,0.9 8.2,0.9c6.4,0 9.6,-4.45 9.6,-13.35c0,-8.9 -2.633,-13.35 -7.9,-13.35Z" style="fill:#191436;fill-rule:nonzero;"/><path d="M657,823.455l-1.3,51.4l1.1,23.5l-13.5,2.5l1.2,-24.3l-1.2,-50.6l13.7,-2.5Z" style="fill:#191436;fill-rule:nonzero;"/><path d="M686.6,890.655c1.933,0 3.967,-0.5 6.1,-1.5c2.133,-1 3.8,-2 5,-3l1.8,-1.5l4.6,5.6c-0.667,1.133 -1.7,2.433 -3.1,3.9c-1.4,1.467 -2.817,2.717 -4.25,3.75c-1.433,1.033 -3.333,1.967 -5.7,2.8c-2.367,0.833 -4.817,1.25 -7.35,1.25c-5.4,0 -9.8,-2.05 -13.2,-6.15c-3.4,-4.1 -5.1,-9.383 -5.1,-15.85c0,-8.133 2.367,-15.267 7.1,-21.4c4.733,-6.133 10.267,-9.2 16.6,-9.2c4.867,0 8.65,1.367 11.35,4.1c2.7,2.733 4.05,6.567 4.05,11.5c0,2.933 -0.5,6.267 -1.5,10l-2,2.1l-25,2.3c1.133,7.533 4.667,11.3 10.6,11.3Zm0,-31c-2.933,0 -5.4,1.183 -7.4,3.55c-2,2.367 -3.167,5.383 -3.5,9.05l17,-2.1c0.2,-1.533 0.3,-2.8 0.3,-3.8c0,-4.467 -2.133,-6.7 -6.4,-6.7Z" style="fill:#191436;fill-rule:nonzero;"/></g><g><path d="M566.849,101.64c-1.089,-6.69 -2.685,-11.67 -5.021,-15.675c-0.029,-0.052 -0.06,-0.102 -0.092,-0.153c-3.017,-4.955 -7.181,-8.244 -12.382,-9.774c-3.697,-1.119 -8.034,-1.64 -13.639,-1.64l-279.106,0c-4.445,0 -8.644,1.457 -12.156,4.213c-4.126,3.109 -6.392,7.852 -7.745,11.17c-1.601,3.932 -2.814,8.884 -3.702,15.105c-0.806,5.508 -1.216,12.225 -1.216,19.964c0,16.095 1.421,27.261 4.475,35.137c5.295,13.97 15.017,16.058 20.344,16.058l182.403,0l-58.958,130.517c-2.18,4.826 -0.035,10.506 4.791,12.686c4.828,2.178 10.506,0.034 12.686,-4.791l65.073,-144.054c1.34,-2.968 1.083,-6.413 -0.683,-9.149c-1.767,-2.735 -4.8,-4.388 -8.056,-4.388l-197.256,0c-0.149,0 -0.211,-0.017 -0.212,-0.017c-0.208,-0.093 -1.189,-0.989 -2.209,-3.687c-0.011,-0.03 -0.022,-0.06 -0.033,-0.09c-1.455,-3.737 -3.187,-11.668 -3.187,-28.224c0,-6.716 0.35,-12.659 1.019,-17.219c0.659,-4.617 1.495,-8.19 2.482,-10.613c0.894,-2.193 1.489,-2.992 1.646,-3.181c0.056,-0.043 0.112,-0.086 0.167,-0.13c0.117,-0.094 0.175,-0.119 0.175,-0.119c0.002,0 0.047,-0.012 0.153,-0.012l279.105,0c3.583,0 6.309,0.277 8.102,0.823c0.037,0.012 0.074,0.022 0.111,0.033c0.302,0.088 0.714,0.208 1.378,1.274c0.743,1.303 1.783,3.915 2.614,9.014c0.749,4.606 1.114,10.947 1.114,19.387c0,6.677 -0.236,12.537 -0.7,17.418c-0.509,5.348 -1.114,9.785 -1.849,13.567c-0.817,4.199 -1.809,7.827 -3.032,11.09c-0.031,0.084 -0.061,0.168 -0.09,0.252c-1.202,3.496 -2.775,7.485 -4.815,12.201l-154.329,358.284c-1.149,2.348 -2.257,3.566 -3.027,4.208c-0.823,0.693 -2.532,1.718 -6.004,2.665c-3.359,0.916 -8.118,1.576 -13.755,1.906c-5.665,0.327 -13.045,0.48 -23.222,0.48c-12.865,0 -22.472,-0.385 -29.35,-1.174c-8.57,-1 -11.983,-2.441 -13.052,-3.015c-0.079,-0.043 -0.159,-0.084 -0.241,-0.124c-0.089,-0.046 -0.17,-0.088 -0.246,-0.129c0.135,-0.888 0.51,-2.299 1.492,-4.323c0.037,-0.077 0.075,-0.157 0.11,-0.236l65.071,-144.051c2.18,-4.826 0.036,-10.506 -4.791,-12.686c-4.829,-2.18 -10.506,-0.035 -12.686,4.791l-65.022,143.94c-2.592,5.387 -3.72,10.47 -3.355,15.115c0.221,3.668 1.949,10.23 10.733,14.673c4.549,2.406 11.017,4.072 19.782,5.094c7.632,0.876 17.954,1.301 31.555,1.301c10.7,0 18.202,-0.158 24.336,-0.512c7.051,-0.415 13.001,-1.272 17.686,-2.55c5.571,-1.519 9.925,-3.645 13.274,-6.466c3.216,-2.68 5.935,-6.304 8.079,-10.77c0.058,-0.117 0.111,-0.236 0.163,-0.356l154.405,-358.463c2.21,-5.109 3.944,-9.508 5.301,-13.445c1.58,-4.239 2.841,-8.833 3.854,-14.038c0.855,-4.397 1.547,-9.439 2.114,-15.41c0.53,-5.558 0.787,-11.849 0.787,-19.235c0.001,-9.613 -0.432,-16.752 -1.361,-22.467Z" style="fill:#ebebeb;fill-rule:nonzero;"/><path d="M371.026,359.431c5.295,0 9.589,-4.294 9.589,-9.589c0,-5.295 -4.294,-9.589 -9.589,-9.589l-0.008,0c-5.295,0 -9.585,4.294 -9.585,9.589c0,5.295 4.297,9.589 9.593,9.589Z" style="fill:#ebebeb;fill-rule:nonzero;"/></g><g><path d="M140.961,1073.82l0,-51.233l16.223,0c4.883,0 8.777,1.319 11.682,3.955c2.905,2.637 4.358,6.177 4.358,10.621c0,2.978 -0.745,5.615 -2.234,7.91c-1.489,2.295 -3.528,3.961 -6.116,4.999c-2.588,1.037 -6.299,1.556 -11.133,1.556l-5.419,0l0,22.192l-7.361,0Zm14.941,-44.714l-7.58,0l0,16.003l8.02,0c2.978,0 5.273,-0.702 6.884,-2.105c1.612,-1.404 2.417,-3.412 2.417,-6.025c0,-5.249 -3.247,-7.873 -9.741,-7.873Z" style="fill:#191436;fill-rule:nonzero;"/><path d="M192.926,1040.06c5.127,0 9.387,1.654 12.781,4.962c3.393,3.308 5.09,7.464 5.09,12.469c0,4.859 -1.721,8.893 -5.163,12.104c-3.443,3.21 -7.776,4.815 -13.001,4.815c-5.054,0 -9.277,-1.629 -12.671,-4.889c-3.393,-3.259 -5.09,-7.33 -5.09,-12.213c0,-4.931 1.715,-9.039 5.145,-12.323c3.43,-3.284 7.733,-4.925 12.909,-4.925Zm-0.366,6.006c-3.198,0 -5.823,1.049 -7.874,3.149c-2.051,2.1 -3.076,4.773 -3.076,8.02c0,3.223 1.05,5.853 3.15,7.892c2.099,2.038 4.797,3.058 8.093,3.058c3.271,0 5.951,-1.032 8.038,-3.095c2.088,-2.063 3.131,-4.706 3.131,-7.928c0,-3.199 -1.086,-5.847 -3.259,-7.947c-2.173,-2.1 -4.907,-3.149 -8.203,-3.149Z" style="fill:#191436;fill-rule:nonzero;"/><path d="M259.571,1040.13l7.147,0l-14.883,34.277l-2.127,0l-9.962,-23.474l-9.839,23.474l-2.163,0l-15.006,-34.277l7.158,0l8.827,20.434l8.605,-20.434l4.942,0l8.499,20.434l8.802,-20.434Z" style="fill:#191436;fill-rule:nonzero;"/><path d="M298.615,1057.56l-23.694,0c0.171,3.222 1.251,5.786 3.241,7.69c1.989,1.904 4.559,2.856 7.708,2.856c4.395,0 8.448,-1.367 12.159,-4.101l0,6.518c-2.051,1.368 -4.084,2.344 -6.098,2.93c-2.014,0.586 -4.376,0.879 -7.086,0.879c-3.711,0 -6.714,-0.769 -9.009,-2.307c-2.295,-1.538 -4.132,-3.607 -5.511,-6.207c-1.38,-2.601 -2.069,-5.61 -2.069,-9.028c0,-5.126 1.452,-9.295 4.358,-12.506c2.905,-3.21 6.677,-4.815 11.315,-4.815c4.468,0 8.033,1.562 10.694,4.687c2.661,3.125 3.992,7.312 3.992,12.561l0,0.843Zm-23.548,-3.992l16.956,0c-0.171,-2.661 -0.965,-4.712 -2.381,-6.153c-1.416,-1.44 -3.32,-2.16 -5.713,-2.16c-2.392,0 -4.351,0.72 -5.877,2.16c-1.526,1.441 -2.521,3.492 -2.985,6.153Z" style="fill:#191436;fill-rule:nonzero;"/><path d="M312.97,1040.13l0,7.727l0.366,-0.586c3.223,-5.2 6.445,-7.8 9.668,-7.8c2.515,0 5.139,1.269 7.874,3.808l-3.516,5.86c-2.319,-2.198 -4.468,-3.296 -6.445,-3.296c-2.149,0 -4.01,1.025 -5.585,3.076c-1.575,2.051 -2.362,4.48 -2.362,7.288l0,17.614l-6.702,0l0,-33.691l6.702,0Z" style="fill:#191436;fill-rule:nonzero;"/><path d="M336.298,1040.13l0,-2.014c0,-5.42 1.153,-9.461 3.46,-12.122c2.307,-2.661 5.072,-3.992 8.295,-3.992c1.392,0 3.04,0.22 4.944,0.66l0,6.518c-1.074,-0.39 -2.1,-0.586 -3.076,-0.586c-2.613,0 -4.425,0.696 -5.439,2.088c-1.013,1.391 -1.519,3.869 -1.519,7.434l0,2.014l6.006,0l0,6.006l-6.006,0l0,27.685l-6.665,0l0,-27.685l-4.834,0l0,-6.006l4.834,0Z" style="fill:#191436;fill-rule:nonzero;"/><path d="M375.739,1073.82l0,-4.321c-1.416,1.55 -3.034,2.755 -4.853,3.616c-1.819,0.861 -3.631,1.291 -5.438,1.291c-2.124,0 -4.083,-0.531 -5.878,-1.593c-1.794,-1.062 -3.149,-2.502 -4.065,-4.321c-0.915,-1.819 -1.373,-4.84 -1.373,-9.064l0,-19.299l6.665,0l0,19.201c0,3.536 0.507,6.005 1.52,7.407c1.013,1.402 2.789,2.103 5.328,2.103c3.174,0 5.872,-1.55 8.094,-4.651l0,-24.06l6.665,0l0,33.691l-6.665,0Z" style="fill:#191436;fill-rule:nonzero;"/><rect x="391.925" y="1022.66" width="6.665" height="51.16" style="fill:#191436;fill-rule:nonzero;"/><path d="M429.974,1022.66l7.325,0l0,44.494l23.034,0l0,6.665l-30.359,0l0,-51.159Z" style="fill:#191436;fill-rule:nonzero;"/><path d="M494.537,1057.56l-23.693,0c0.17,3.222 1.251,5.786 3.24,7.69c1.99,1.904 4.56,2.856 7.709,2.856c4.395,0 8.447,-1.367 12.158,-4.101l0,6.518c-2.05,1.368 -4.083,2.344 -6.097,2.93c-2.014,0.586 -4.376,0.879 -7.086,0.879c-3.711,0 -6.714,-0.769 -9.009,-2.307c-2.295,-1.538 -4.132,-3.607 -5.511,-6.207c-1.38,-2.601 -2.07,-5.61 -2.07,-9.028c0,-5.126 1.453,-9.295 4.358,-12.506c2.906,-3.21 6.678,-4.815 11.316,-4.815c4.468,0 8.033,1.562 10.694,4.687c2.661,3.125 3.991,7.312 3.991,12.561l0,0.843Zm-23.547,-3.992l16.956,0c-0.171,-2.661 -0.965,-4.712 -2.381,-6.153c-1.416,-1.44 -3.32,-2.16 -5.713,-2.16c-2.392,0 -4.352,0.72 -5.877,2.16c-1.526,1.441 -2.521,3.492 -2.985,6.153Z" style="fill:#191436;fill-rule:nonzero;"/><path d="M500.104,1071.41l0,-7.177c1.88,1.318 3.802,2.386 5.768,3.204c1.965,0.818 3.619,1.227 4.962,1.227c1.391,0 2.588,-0.342 3.589,-1.026c1.001,-0.683 1.501,-1.501 1.501,-2.453c0,-0.977 -0.323,-1.789 -0.97,-2.436c-0.647,-0.647 -2.045,-1.58 -4.194,-2.801c-4.296,-2.393 -7.11,-4.437 -8.441,-6.134c-1.33,-1.697 -1.996,-3.546 -1.996,-5.548c0,-2.588 1.008,-4.7 3.022,-6.336c2.014,-1.635 4.608,-2.453 7.782,-2.453c3.296,0 6.677,0.927 10.144,2.783l0,6.592c-3.955,-2.393 -7.19,-3.589 -9.705,-3.589c-1.294,0 -2.337,0.275 -3.131,0.825c-0.793,0.55 -1.19,1.277 -1.19,2.181c0,0.783 0.359,1.528 1.078,2.237c0.719,0.709 1.982,1.563 3.789,2.563l2.381,1.355c5.617,3.173 8.426,6.688 8.426,10.544c0,2.758 -1.081,5.022 -3.241,6.791c-2.161,1.77 -4.938,2.654 -8.332,2.654c-2.002,0 -3.784,-0.213 -5.346,-0.641c-1.563,-0.427 -3.528,-1.214 -5.896,-2.362Z" style="fill:#191436;fill-rule:nonzero;"/><path d="M528.961,1071.41l0,-7.177c1.88,1.318 3.803,2.386 5.768,3.204c1.965,0.818 3.619,1.227 4.962,1.227c1.392,0 2.588,-0.342 3.589,-1.026c1.001,-0.683 1.501,-1.501 1.501,-2.453c0,-0.977 -0.323,-1.789 -0.97,-2.436c-0.647,-0.647 -2.045,-1.58 -4.193,-2.801c-4.297,-2.393 -7.111,-4.437 -8.441,-6.134c-1.331,-1.697 -1.996,-3.546 -1.996,-5.548c0,-2.588 1.007,-4.7 3.021,-6.336c2.014,-1.635 4.608,-2.453 7.782,-2.453c3.296,0 6.677,0.927 10.144,2.783l0,6.592c-3.955,-2.393 -7.19,-3.589 -9.704,-3.589c-1.294,0 -2.338,0.275 -3.132,0.825c-0.793,0.55 -1.19,1.277 -1.19,2.181c0,0.783 0.36,1.528 1.079,2.237c0.718,0.709 1.981,1.563 3.788,2.563l2.381,1.355c5.618,3.173 8.426,6.688 8.426,10.544c0,2.758 -1.08,5.022 -3.241,6.791c-2.16,1.77 -4.938,2.654 -8.331,2.654c-2.002,0 -3.784,-0.213 -5.347,-0.641c-1.562,-0.427 -3.528,-1.214 -5.896,-2.362Z" style="fill:#191436;fill-rule:nonzero;"/><path d="M575.58,1040.06c5.127,0 9.387,1.654 12.781,4.962c3.393,3.308 5.09,7.464 5.09,12.469c0,4.859 -1.721,8.893 -5.164,12.104c-3.442,3.21 -7.776,4.815 -13,4.815c-5.054,0 -9.277,-1.629 -12.671,-4.889c-3.394,-3.259 -5.09,-7.33 -5.09,-12.213c0,-4.931 1.715,-9.039 5.145,-12.323c3.43,-3.284 7.733,-4.925 12.909,-4.925Zm-0.366,6.006c-3.199,0 -5.823,1.049 -7.874,3.149c-2.051,2.1 -3.076,4.773 -3.076,8.02c0,3.223 1.05,5.853 3.149,7.892c2.1,2.038 4.798,3.058 8.094,3.058c3.271,0 5.951,-1.032 8.038,-3.095c2.087,-2.063 3.131,-4.706 3.131,-7.928c0,-3.199 -1.086,-5.847 -3.259,-7.947c-2.173,-2.1 -4.907,-3.149 -8.203,-3.149Z" style="fill:#191436;fill-rule:nonzero;"/><path d="M607.513,1040.13l0,4.285c2.979,-3.296 6.36,-4.944 10.144,-4.944c2.1,0 4.053,0.543 5.86,1.629c1.806,1.087 3.18,2.576 4.12,4.468c0.94,1.892 1.41,4.889 1.41,8.991l0,19.262l-6.665,0l0,-19.189c0,-3.443 -0.525,-5.902 -1.575,-7.379c-1.05,-1.477 -2.808,-2.216 -5.274,-2.216c-3.149,0 -5.822,1.575 -8.02,4.724l0,24.06l-6.811,0l0,-33.691l6.811,0Z" style="fill:#191436;fill-rule:nonzero;"/><path d="M636.7,1071.41l0,-7.177c1.88,1.318 3.803,2.386 5.768,3.204c1.966,0.818 3.62,1.227 4.962,1.227c1.392,0 2.588,-0.342 3.589,-1.026c1.001,-0.683 1.502,-1.501 1.502,-2.453c0,-0.977 -0.324,-1.789 -0.971,-2.436c-0.647,-0.647 -2.044,-1.58 -4.193,-2.801c-4.297,-2.393 -7.11,-4.437 -8.441,-6.134c-1.331,-1.697 -1.996,-3.546 -1.996,-5.548c0,-2.588 1.007,-4.7 3.021,-6.336c2.015,-1.635 4.609,-2.453 7.782,-2.453c3.296,0 6.678,0.927 10.144,2.783l0,6.592c-3.955,-2.393 -7.19,-3.589 -9.704,-3.589c-1.294,0 -2.338,0.275 -3.131,0.825c-0.794,0.55 -1.19,1.277 -1.19,2.181c0,0.783 0.359,1.528 1.078,2.237c0.719,0.709 1.982,1.563 3.789,2.563l2.381,1.355c5.617,3.173 8.425,6.688 8.425,10.544c0,2.758 -1.08,5.022 -3.241,6.791c-2.16,1.77 -4.937,2.654 -8.331,2.654c-2.002,0 -3.784,-0.213 -5.347,-0.641c-1.562,-0.427 -3.527,-1.214 -5.896,-2.362Z" style="fill:#191436;fill-rule:nonzero;"/><path d="M116.351,1100.96c1.099,0 2.039,0.378 2.82,1.135c0.781,0.757 1.172,1.684 1.172,2.783c0,1.074 -0.391,2.002 -1.172,2.783c-0.781,0.781 -1.721,1.172 -2.82,1.172c-1.025,0 -1.928,-0.397 -2.71,-1.19c-0.781,-0.794 -1.172,-1.715 -1.172,-2.765c0,-1.025 0.391,-1.935 1.172,-2.728c0.782,-0.794 1.685,-1.19 2.71,-1.19Zm-3.296,14.172l6.665,0l0,33.691l-6.665,0l0,-33.691Z" style="fill:#191436;fill-rule:nonzero;"/><path d="M136.017,1115.13l0,4.285c2.978,-3.296 6.36,-4.944 10.144,-4.944c2.099,0 4.053,0.543 5.859,1.629c1.807,1.087 3.18,2.576 4.12,4.468c0.94,1.892 1.41,4.889 1.41,8.991l0,19.262l-6.665,0l0,-19.189c0,-3.443 -0.525,-5.902 -1.575,-7.379c-1.05,-1.477 -2.807,-2.216 -5.273,-2.216c-3.15,0 -5.823,1.575 -8.02,4.724l0,24.06l-6.812,0l0,-33.691l6.812,0Z" style="fill:#191436;fill-rule:nonzero;"/><path d="M188.202,1148.82l0,-51.233l16.223,0c4.883,0 8.777,1.319 11.682,3.955c2.905,2.637 4.358,6.177 4.358,10.621c0,2.978 -0.745,5.615 -2.234,7.91c-1.489,2.295 -3.528,3.961 -6.116,4.999c-2.587,1.037 -6.298,1.556 -11.132,1.556l-5.42,0l0,22.192l-7.361,0Zm14.941,-44.714l-7.58,0l0,16.003l8.02,0c2.978,0 5.273,-0.702 6.885,-2.105c1.611,-1.404 2.417,-3.412 2.417,-6.025c0,-5.249 -3.248,-7.873 -9.742,-7.873Z" style="fill:#191436;fill-rule:nonzero;"/><path d="M252.765,1132.56l-23.694,0c0.171,3.222 1.251,5.786 3.241,7.69c1.99,1.904 4.559,2.856 7.709,2.856c4.394,0 8.447,-1.367 12.158,-4.101l0,6.518c-2.051,1.368 -4.083,2.344 -6.097,2.93c-2.015,0.586 -4.377,0.879 -7.087,0.879c-3.711,0 -6.714,-0.769 -9.008,-2.307c-2.295,-1.538 -4.133,-3.607 -5.512,-6.207c-1.379,-2.601 -2.069,-5.61 -2.069,-9.028c0,-5.126 1.453,-9.295 4.358,-12.506c2.905,-3.21 6.677,-4.815 11.316,-4.815c4.468,0 8.032,1.562 10.693,4.687c2.661,3.125 3.992,7.312 3.992,12.561l0,0.843Zm-23.547,-3.992l16.955,0c-0.171,-2.661 -0.964,-4.712 -2.38,-6.153c-1.416,-1.44 -3.321,-2.16 -5.713,-2.16c-2.393,0 -4.352,0.72 -5.878,2.16c-1.526,1.441 -2.521,3.492 -2.984,6.153Z" style="fill:#191436;fill-rule:nonzero;"/><path d="M267.12,1115.13l0,7.727l0.367,-0.586c3.222,-5.2 6.445,-7.8 9.668,-7.8c2.514,0 5.139,1.269 7.873,3.808l-3.516,5.86c-2.319,-2.198 -4.467,-3.296 -6.445,-3.296c-2.148,0 -4.01,1.025 -5.585,3.076c-1.574,2.051 -2.362,4.48 -2.362,7.288l0,17.614l-6.701,0l0,-33.691l6.701,0Z" style="fill:#191436;fill-rule:nonzero;"/><path d="M288.031,1146.41l0,-7.177c1.88,1.318 3.802,2.386 5.768,3.204c1.965,0.818 3.619,1.227 4.962,1.227c1.392,0 2.588,-0.342 3.589,-1.026c1.001,-0.683 1.501,-1.501 1.501,-2.453c0,-0.977 -0.323,-1.789 -0.97,-2.436c-0.647,-0.647 -2.045,-1.58 -4.193,-2.801c-4.297,-2.393 -7.111,-4.437 -8.441,-6.134c-1.331,-1.697 -1.996,-3.546 -1.996,-5.548c0,-2.588 1.007,-4.7 3.021,-6.336c2.014,-1.635 4.608,-2.453 7.782,-2.453c3.296,0 6.677,0.927 10.144,2.783l0,6.592c-3.955,-2.393 -7.19,-3.589 -9.705,-3.589c-1.294,0 -2.337,0.275 -3.131,0.825c-0.793,0.55 -1.19,1.277 -1.19,2.181c0,0.783 0.36,1.528 1.078,2.237c0.719,0.709 1.982,1.563 3.789,2.563l2.381,1.355c5.617,3.173 8.426,6.688 8.426,10.544c0,2.758 -1.08,5.022 -3.241,6.791c-2.161,1.77 -4.938,2.654 -8.331,2.654c-2.002,0 -3.784,-0.213 -5.347,-0.641c-1.562,-0.427 -3.528,-1.214 -5.896,-2.362Z" style="fill:#191436;fill-rule:nonzero;"/><path d="M334.65,1115.06c5.127,0 9.387,1.654 12.78,4.962c3.394,3.308 5.091,7.464 5.091,12.469c0,4.859 -1.721,8.893 -5.164,12.104c-3.442,3.21 -7.776,4.815 -13,4.815c-5.054,0 -9.278,-1.629 -12.671,-4.889c-3.394,-3.259 -5.091,-7.33 -5.091,-12.213c0,-4.931 1.716,-9.039 5.146,-12.323c3.43,-3.284 7.733,-4.925 12.909,-4.925Zm-0.367,6.006c-3.198,0 -5.822,1.049 -7.873,3.149c-2.051,2.1 -3.076,4.773 -3.076,8.02c0,3.223 1.05,5.853 3.149,7.892c2.1,2.038 4.798,3.058 8.093,3.058c3.272,0 5.951,-1.032 8.039,-3.095c2.087,-2.063 3.131,-4.706 3.131,-7.928c0,-3.199 -1.087,-5.847 -3.259,-7.947c-2.173,-2.1 -4.908,-3.149 -8.204,-3.149Z" style="fill:#191436;fill-rule:nonzero;"/><path d="M366.583,1115.13l0,4.285c2.979,-3.296 6.36,-4.944 10.144,-4.944c2.1,0 4.053,0.543 5.86,1.629c1.806,1.087 3.18,2.576 4.12,4.468c0.939,1.892 1.409,4.889 1.409,8.991l0,19.262l-6.665,0l0,-19.189c0,-3.443 -0.524,-5.902 -1.574,-7.379c-1.05,-1.477 -2.808,-2.216 -5.274,-2.216c-3.149,0 -5.822,1.575 -8.02,4.724l0,24.06l-6.811,0l0,-33.691l6.811,0Z" style="fill:#191436;fill-rule:nonzero;"/><path d="M418.585,1128.57l0,14.319c0,1.147 0.391,1.721 1.172,1.721c0.806,0 2.063,-0.598 3.772,-1.795l0,4.065c-1.514,0.977 -2.728,1.642 -3.644,1.996c-0.915,0.354 -1.874,0.531 -2.875,0.531c-2.856,0 -4.541,-1.123 -5.053,-3.369c-2.832,2.197 -5.847,3.296 -9.046,3.296c-2.343,0 -4.296,-0.775 -5.859,-2.325c-1.562,-1.551 -2.344,-3.498 -2.344,-5.842c0,-2.124 0.763,-4.022 2.289,-5.694c1.526,-1.672 3.693,-2.997 6.5,-3.973l8.533,-2.93l0,-1.795c0,-4.052 -2.026,-6.079 -6.079,-6.079c-3.638,0 -7.178,1.88 -10.62,5.64l0,-7.288c2.588,-3.051 6.311,-4.577 11.169,-4.577c3.638,0 6.555,0.952 8.753,2.856c0.732,0.611 1.391,1.422 1.977,2.435c0.586,1.014 0.958,2.027 1.117,3.04c0.159,1.013 0.238,2.936 0.238,5.768Zm-6.555,13.586l0,-9.997l-4.468,1.721c-2.27,0.903 -3.875,1.813 -4.815,2.728c-0.94,0.916 -1.41,2.057 -1.41,3.424c0,1.392 0.445,2.527 1.336,3.406c0.891,0.879 2.045,1.318 3.461,1.318c2.124,0 4.089,-0.866 5.896,-2.6Z" style="fill:#191436;fill-rule:nonzero;"/><rect x="429.572" y="1097.66" width="6.665" height="51.16" style="fill:#191436;fill-rule:nonzero;"/><path d="M511.713,1136.96l0,8.057c-5.371,2.929 -11.573,4.394 -18.604,4.394c-5.713,0 -10.559,-1.147 -14.538,-3.442c-3.98,-2.295 -7.129,-5.457 -9.449,-9.485c-2.319,-4.028 -3.479,-8.386 -3.479,-13.074c0,-7.446 2.655,-13.708 7.965,-18.786c5.31,-5.078 11.86,-7.618 19.648,-7.618c5.371,0 11.34,1.404 17.907,4.212l0,7.873c-5.981,-3.418 -11.828,-5.127 -17.541,-5.127c-5.86,0 -10.724,1.85 -14.594,5.549c-3.869,3.698 -5.804,8.331 -5.804,13.897c0,5.615 1.904,10.23 5.713,13.843c3.808,3.613 8.679,5.42 14.612,5.42c6.201,0 12.255,-1.904 18.164,-5.713Z" style="fill:#191436;fill-rule:nonzero;"/><path d="M519.659,1097.66l6.665,0l0,21.899c2.784,-3.394 6.238,-5.09 10.364,-5.09c2.246,0 4.26,0.561 6.043,1.684c1.782,1.123 3.106,2.674 3.973,4.651c0.867,1.978 1.3,4.92 1.3,8.826l0,19.189l-6.665,0l0,-20.837c0,-2.466 -0.604,-4.45 -1.813,-5.951c-1.208,-1.502 -2.801,-2.252 -4.779,-2.252c-1.465,0 -2.844,0.378 -4.138,1.135c-1.294,0.757 -2.722,2.014 -4.285,3.772l0,24.133l-6.665,0l0,-51.159Z" style="fill:#191436;fill-rule:nonzero;"/><path d="M578.473,1128.57l0,14.319c0,1.147 0.391,1.721 1.172,1.721c0.805,0 2.063,-0.598 3.772,-1.795l0,4.065c-1.514,0.977 -2.729,1.642 -3.644,1.996c-0.916,0.354 -1.874,0.531 -2.875,0.531c-2.856,0 -4.541,-1.123 -5.054,-3.369c-2.832,2.197 -5.847,3.296 -9.045,3.296c-2.344,0 -4.297,-0.775 -5.859,-2.325c-1.563,-1.551 -2.344,-3.498 -2.344,-5.842c0,-2.124 0.763,-4.022 2.289,-5.694c1.526,-1.672 3.692,-2.997 6.5,-3.973l8.533,-2.93l0,-1.795c0,-4.052 -2.027,-6.079 -6.079,-6.079c-3.638,0 -7.178,1.88 -10.62,5.64l0,-7.288c2.587,-3.051 6.311,-4.577 11.169,-4.577c3.638,0 6.555,0.952 8.752,2.856c0.733,0.611 1.392,1.422 1.978,2.435c0.586,1.014 0.958,2.027 1.117,3.04c0.159,1.013 0.238,2.936 0.238,5.768Zm-6.555,13.586l0,-9.997l-4.468,1.721c-2.271,0.903 -3.876,1.813 -4.816,2.728c-0.94,0.916 -1.41,2.057 -1.41,3.424c0,1.392 0.446,2.527 1.337,3.406c0.891,0.879 2.045,1.318 3.461,1.318c2.124,0 4.089,-0.866 5.896,-2.6Z" style="fill:#191436;fill-rule:nonzero;"/><path d="M595.978,1115.13l0,4.285c2.978,-3.296 6.36,-4.944 10.144,-4.944c2.099,0 4.053,0.543 5.859,1.629c1.807,1.087 3.18,2.576 4.12,4.468c0.94,1.892 1.41,4.889 1.41,8.991l0,19.262l-6.665,0l0,-19.189c0,-3.443 -0.525,-5.902 -1.575,-7.379c-1.05,-1.477 -2.807,-2.216 -5.273,-2.216c-3.15,0 -5.823,1.575 -8.02,4.724l0,24.06l-6.812,0l0,-33.691l6.812,0Z" style="fill:#191436;fill-rule:nonzero;"/><path d="M625.092,1126.78c0,-3.588 1.312,-6.427 3.936,-8.514c2.625,-2.087 6.208,-3.131 10.749,-3.131l13.879,0l0,5.2l-6.812,0c1.319,1.343 2.234,2.564 2.747,3.662c0.513,1.099 0.769,2.356 0.769,3.772c0,1.758 -0.5,3.485 -1.501,5.182c-1.001,1.697 -2.289,2.997 -3.864,3.9c-1.575,0.904 -4.156,1.624 -7.745,2.161c-2.515,0.366 -3.772,1.233 -3.772,2.6c0,0.781 0.47,1.422 1.41,1.923c0.94,0.5 2.643,1.019 5.108,1.556c4.126,0.903 6.781,1.611 7.965,2.124c1.185,0.513 2.253,1.245 3.205,2.197c1.611,1.612 2.417,3.638 2.417,6.079c0,3.199 -1.422,5.75 -4.267,7.654c-2.844,1.904 -6.646,2.857 -11.407,2.857c-4.81,0 -8.649,-0.959 -11.517,-2.875c-2.869,-1.917 -4.303,-4.486 -4.303,-7.709c0,-4.565 2.819,-7.507 8.459,-8.826c-2.246,-1.44 -3.369,-2.868 -3.369,-4.284c0,-1.074 0.482,-2.051 1.446,-2.93c0.965,-0.879 2.265,-1.526 3.901,-1.941c-4.956,-2.197 -7.434,-5.749 -7.434,-10.657Zm12.524,-5.859c-1.807,0 -3.345,0.61 -4.614,1.831c-1.27,1.221 -1.905,2.686 -1.905,4.395c0,1.733 0.623,3.167 1.868,4.303c1.245,1.135 2.82,1.702 4.724,1.702c1.88,0 3.449,-0.579 4.706,-1.739c1.257,-1.16 1.886,-2.606 1.886,-4.34c0,-1.757 -0.635,-3.222 -1.904,-4.394c-1.27,-1.172 -2.857,-1.758 -4.761,-1.758Zm-1.575,29.48c-2.246,0 -4.083,0.476 -5.511,1.428c-1.428,0.952 -2.143,2.173 -2.143,3.662c0,3.467 3.125,5.201 9.375,5.201c2.955,0 5.243,-0.434 6.867,-1.301c1.623,-0.866 2.435,-2.093 2.435,-3.68c0,-1.562 -1.025,-2.838 -3.076,-3.827c-2.051,-0.989 -4.7,-1.483 -7.947,-1.483Z" style="fill:#191436;fill-rule:nonzero;"/><path d="M687.531,1132.56l-23.694,0c0.171,3.222 1.251,5.786 3.241,7.69c1.989,1.904 4.559,2.856 7.708,2.856c4.395,0 8.448,-1.367 12.159,-4.101l0,6.518c-2.051,1.368 -4.084,2.344 -6.098,2.93c-2.014,0.586 -4.376,0.879 -7.086,0.879c-3.711,0 -6.714,-0.769 -9.009,-2.307c-2.295,-1.538 -4.132,-3.607 -5.511,-6.207c-1.38,-2.601 -2.069,-5.61 -2.069,-9.028c0,-5.126 1.452,-9.295 4.358,-12.506c2.905,-3.21 6.677,-4.815 11.315,-4.815c4.468,0 8.033,1.562 10.694,4.687c2.661,3.125 3.992,7.312 3.992,12.561l0,0.843Zm-23.548,-3.992l16.956,0c-0.171,-2.661 -0.965,-4.712 -2.381,-6.153c-1.416,-1.44 -3.32,-2.16 -5.713,-2.16c-2.392,0 -4.351,0.72 -5.877,2.16c-1.526,1.441 -2.521,3.492 -2.985,6.153Z" style="fill:#191436;fill-rule:nonzero;"/></g><rect x="32.5" y="0" width="18.75" height="639.75" style="fill:#191436;"/><rect x="32.5" y="639.75" width="18.75" height="640.25" style="fill:#bfbfbf;"/></svg>