<?xml version="1.0" encoding="UTF-8" standalone="no"?><!DOCTYPE svg PUBLIC "-//W3C//DTD SVG 1.1//EN" "http://www.w3.org/Graphics/SVG/1.1/DTD/svg11.dtd"><svg width="100%" height="100%" viewBox="0 0 800 1280" version="1.1" xmlns="http://www.w3.org/2000/svg" xmlns:xlink="http://www.w3.org/1999/xlink" xml:space="preserve" xmlns:serif="http://www.serif.com/" style="fill-rule:evenodd;clip-rule:evenodd;stroke-linejoin:round;stroke-miterlimit:1.41421;"><rect x="0" y="0" width="800" height="1280" style="fill:#15ebc6;"/><rect x="32.5" y="0" width="18.75" height="1280" style="fill:#0a6b5b;"/><g><path d="M700.597,1145.84c-17.321,-12.139 -53.674,-29.41 -120.252,-29.41l-10.264,0l-131.261,-61.257c-14.95,-6.977 -31.25,-10.593 -47.746,-10.593l-114.17,0c-9.729,0 -19.357,1.975 -28.305,5.807l-118.527,50.797c-7.662,3.287 -15.915,4.977 -24.258,4.977l-7.888,0c-11.334,0 -20.527,9.193 -20.527,20.532l0,64.978c0,9.924 7.097,18.427 16.856,20.202l96.053,17.461l0,10.264l502.947,0c11.334,0 20.527,-9.188 20.527,-20.527l0,-47.942c0,-10.094 -4.917,-19.497 -13.185,-25.289Z" style="fill:#ed4c67;fill-rule:nonzero;"/><path d="M263.779,1073.46l-30.11,13.694c-6.858,3.117 -8.123,9.584 -7.128,14.185c0.99,4.597 4.832,9.959 12.349,9.959l118.107,0l0,-41.054l-78.353,0c-5.161,0 -10.163,1.08 -14.865,3.216Z" style="fill:#ea2027;fill-rule:nonzero;"/><path d="M704.108,1198.55c-8.042,0 -15.025,-4.851 -18.676,-12.024c-11.864,-23.318 -36.068,-39.299 -64.028,-39.299c-27.959,0 -52.168,15.981 -64.032,39.299c-3.651,7.173 -10.629,12.024 -18.677,12.024l-204.691,0l0,-41.059l-98.21,0c-4.931,0 -9.903,-0.825 -14.335,-2.991c-9.423,-4.607 -19.957,-7.273 -31.156,-7.273c-11.214,0 -21.767,2.651 -31.195,7.268c-4.437,2.171 -9.419,2.996 -14.366,2.996l-67.343,0l0,34.187c0,1.205 0.11,2.386 0.315,3.531c0.195,1.141 0.5,2.246 0.88,3.316c0,0.005 0,0.015 0.005,0.025c2.406,6.763 8.258,11.98 15.656,13.33l96.048,17.461l20.533,10.264l482.419,0c11.334,0 20.527,-9.188 20.527,-20.527l0,-20.528l-9.674,0Z" style="fill:#ea2027;fill-rule:nonzero;"/><path d="M334.004,1157.49l-41.055,0l24.634,32.847c3.876,5.171 9.963,8.212 16.421,8.212l41.059,0l-24.633,-32.846c-3.882,-5.172 -9.964,-8.213 -16.426,-8.213Z" style="fill:#6f6571;fill-rule:nonzero;"/><path d="M672.727,1219.07c0,28.345 -22.978,51.323 -51.323,51.323c-28.345,0 -51.323,-22.978 -51.323,-51.323c0,-28.345 22.978,-51.323 51.323,-51.323c28.345,0 51.323,22.978 51.323,51.323Z" style="fill:#5d5360;fill-rule:nonzero;"/><path d="M241.626,1219.07c0,28.345 -22.978,51.323 -51.323,51.323c-28.345,0 -51.318,-22.978 -51.318,-51.323c0,-28.345 22.973,-51.323 51.318,-51.323c28.345,0 51.323,22.978 51.323,51.323Z" style="fill:#5d5360;fill-rule:nonzero;"/><path d="M706.154,1138.01c-36.743,-25.774 -88.696,-31.181 -125.809,-31.181l-8.133,0l-129.335,-60.356c-16.111,-7.522 -34.027,-11.494 -51.803,-11.494l-114.17,0c-11.094,0 -21.888,2.216 -32.086,6.582l-118.527,50.798c-6.507,2.791 -13.395,4.207 -20.477,4.207l-7.888,0c-16.611,-0.005 -30.13,13.514 -30.13,30.13l0,65.193c0,14.39 10.253,26.83 24.378,29.575l38.003,7.393c4.697,28.96 29.866,51.143 60.126,51.143c22.638,0 42.415,-12.419 52.919,-30.796l325.264,0c10.504,18.377 30.28,30.796 52.918,30.796c22.633,0 42.415,-12.419 52.919,-30.796l18.932,0c16.61,0 30.13,-13.515 30.13,-30.13l0,-47.942c0,-13.17 -6.442,-25.554 -17.231,-33.122Zm-271.4,-74.131l92.042,42.95l-137.053,0l-45.126,-52.643l46.452,0c14.995,0 30.1,3.351 43.685,9.693Zm-115.43,-9.693l45.125,52.643l-16.28,0c-6.192,0 -12.06,-2.696 -16.091,-7.402l-38.779,-45.241l26.025,0Zm-69.095,175.811c0.646,-3.546 1.001,-7.192 1.001,-10.923c0,-4.092 -0.41,-8.188 -1.221,-12.175c-1.055,-5.196 -6.122,-8.553 -11.319,-7.502c-5.201,1.055 -8.558,6.127 -7.502,11.324c0.555,2.726 0.835,5.537 0.835,8.353c0,23.003 -18.717,41.714 -41.72,41.714c-23.003,0 -41.714,-18.711 -41.714,-41.714c0,-23.003 18.711,-41.72 41.714,-41.72c5.827,0 11.454,1.175 16.736,3.491c4.852,2.126 10.519,-0.085 12.65,-4.941c2.13,-4.857 -0.08,-10.519 -4.937,-12.65c-7.728,-3.386 -15.956,-5.107 -24.449,-5.107c-30.26,0 -55.429,22.183 -60.126,51.143l-34.337,-6.677c-5.121,-0.995 -8.843,-5.507 -8.843,-10.724l0,-35.062l10.929,0c5.302,0 9.603,-4.302 9.603,-9.604c0,-5.301 -4.301,-9.603 -9.603,-9.603l-10.924,0l0,-10.924c0,-6.027 4.902,-10.924 10.924,-10.924l7.888,0c9.698,0 19.132,-1.94 28.045,-5.757l118.521,-50.797c5.197,-2.226 10.594,-3.702 16.121,-4.452l48.997,57.16c7.683,8.968 18.862,14.11 30.671,14.11l232.176,0c25.664,0 71.455,3.006 105.382,21.848l-2.736,0c-5.307,0 -9.603,4.301 -9.603,9.603c0,5.307 4.296,9.603 9.603,9.603l20.792,0c0.255,1.321 0.395,2.671 0.395,4.042l0,17.811l-29.855,0c-10.504,-18.376 -30.281,-30.791 -52.919,-30.791c-22.638,0 -42.414,12.415 -52.918,30.791l-18.927,0c-5.307,0 -9.603,4.297 -9.603,9.603c0,5.302 4.296,9.604 9.603,9.604l11.919,0c-0.645,3.546 -1,7.192 -1,10.924c0,3.731 0.355,7.377 1,10.923l-311.249,0Zm371.175,30.791c-23.003,0 -41.719,-18.711 -41.719,-41.714c0,-23.003 18.716,-41.72 41.719,-41.72c23.003,0 41.72,18.717 41.72,41.72c0,23.003 -18.717,41.714 -41.72,41.714Zm71.851,-30.791l-11.925,0c0.646,-3.546 1.001,-7.192 1.001,-10.923c0,-3.732 -0.355,-7.378 -1.001,-10.924l22.848,0l0,10.924c0,6.022 -4.901,10.923 -10.923,10.923Z" style="fill-rule:nonzero;"/><path d="M508.5,1188.94l-128.635,0l-21.753,-29.005c-5.662,-7.548 -14.675,-12.054 -24.108,-12.054l-41.055,0c-3.641,0 -6.962,2.055 -8.588,5.312c-1.63,3.251 -1.28,7.147 0.906,10.053l24.633,32.847c5.657,7.547 14.67,12.054 24.104,12.054l174.496,0c5.302,0 9.603,-4.302 9.603,-9.604c0,-5.306 -4.301,-9.603 -9.603,-9.603Zm-174.496,0c-3.421,0 -6.688,-1.635 -8.738,-4.371l-13.11,-17.482l21.848,0c3.421,0 6.687,1.636 8.743,4.372l13.109,17.481l-21.852,0Z" style="fill-rule:nonzero;"/></g><g><rect x="548.373" y="963.495" width="35.609" height="41.283" style="fill:#d6a15b;fill-rule:nonzero;"/><path d="M613.657,870.526c0,-13.246 -10.754,-24 -24,-24l-46.959,0c-13.246,0 -24,10.754 -24,24l0,68.969c0,13.246 10.754,24 24,24l46.959,0c13.246,0 24,-10.754 24,-24l0,-68.969Z" style="fill:#edba70;"/><path d="M673.006,1048.81l0,231.186l-213.657,0l0,-231.186c0,-0.016 0,-0.032 0,-0.048c0,-24.131 17.128,-43.987 37.942,-43.987c0.014,0 0.028,0 0.041,0l137.097,0c20.957,-0.055 38.299,19.741 38.577,44.035Z" style="fill:#f7941e;fill-rule:nonzero;"/><path d="M578.047,1128.63l0,54.976c0,0.007 0,0.013 0,0.02c0,52.87 -37.526,96.376 -83.13,96.376c-0.006,0 -0.012,0 -0.018,0l-35.55,0l0,-151.372l118.698,0Z" style="fill:#dd7e17;fill-rule:nonzero;"/><path d="M435.609,1149.27l-29.674,0l0,34.403c0,11.323 8.037,20.641 17.805,20.641l23.739,0" style="fill:#edba70;fill-rule:nonzero;"/><rect x="453.414" y="1094.23" width="94.959" height="34.403" style="fill:#fdca2f;fill-rule:nonzero;"/><path d="M566.177,1128.63l0,34.403c0,0.014 0,0.027 0,0.041c0,41.498 -29.454,75.645 -65.248,75.645c-0.012,0 -0.024,0 -0.036,0c-2.36,0.013 -4.719,-0.148 -7.062,-0.482c-32.979,-4.088 -58.268,-36.753 -58.222,-75.204l0,-34.403l130.568,0Z" style="fill:#5e3011;fill-rule:nonzero;"/><path d="M601.787,1004.78l0,137.61l35.609,-13.761l0,-123.849l-35.609,0Z" style="fill:#ce730f;fill-rule:nonzero;"/><path d="M613.657,887.81l0,34.402c0,22.647 -16.075,41.283 -35.61,41.283l-7.715,0l0,-116.969l7.715,0c19.535,0 35.61,18.636 35.61,41.284Z" style="fill:#c9934c;fill-rule:nonzero;"/><path d="M493.831,1238.24c-32.979,-4.088 -58.268,-36.753 -58.222,-75.204l0,-34.403l41.545,0l0,63.095c-0.026,10.329 2.069,20.519 6.113,29.724c2.712,6.223 6.28,11.894 10.564,16.788Z" style="fill:#844215;fill-rule:nonzero;"/><path d="M497.332,997.898c-24.092,0 -43.918,22.984 -43.918,50.916l0,38.531c-3.256,0 -5.935,3.106 -5.935,6.881l0,27.522l-11.87,0c-3.255,0 -5.934,3.106 -5.934,6.88l0,13.761l-23.74,0c-3.256,0 -5.935,3.106 -5.935,6.881l0,34.403c0,15.098 10.716,27.522 23.74,27.522l19.425,0c3.021,4.849 6.485,9.306 10.332,13.293c0,0.165 -0.083,0.303 -0.083,0.468l0,48.163c0,3.775 2.679,6.881 5.935,6.881c3.256,0 5.935,-3.106 5.935,-6.881l0,-38.696c29.229,19.755 66.788,12.596 89.024,-16.967c5.181,-0.654 13.62,-1.92 23.935,-4.218c5.902,5.033 12.115,9.556 18.588,13.534c-8.661,7.355 -17.816,13.894 -27.378,19.555c-2.007,1.164 -3.28,3.552 -3.28,6.154c0,3.776 2.68,6.882 5.936,6.882c0.922,0 1.832,-0.249 2.656,-0.727c12.028,-7.026 23.381,-15.507 33.871,-25.3c16.433,8.415 34.174,12.863 52.138,13.073c2.073,0 4.172,-0.066 6.297,-0.199l0,26.909c0,3.775 2.679,6.881 5.935,6.881c3.256,0 5.935,-3.106 5.935,-6.881l0,-178.893c0,-3.775 -2.679,-6.881 -5.935,-6.881c-3.256,0 -5.935,3.106 -5.935,6.881l0,58.966c-29.081,32.008 -78.388,44.476 -103.463,48.913c5.592,-12.001 8.516,-25.433 8.504,-39.074l0,-34.403c0,-3.774 -2.679,-6.88 -5.935,-6.88l-11.869,0l0,-27.522c0,-3.775 -2.68,-6.881 -5.935,-6.881l-41.545,0l0,-19.954c16.915,1.26 60.982,0.248 89.024,-39.391l0,42.591c-7.601,7.407 -16.276,13.192 -25.621,17.084c-2.448,0.912 -4.119,3.57 -4.119,6.551c0,3.775 2.679,6.881 5.934,6.881c0.022,0 0.044,-0.001 0.066,-0.001c0.638,-0.003 1.271,-0.124 1.876,-0.358c7.711,-3.18 15.054,-7.451 21.864,-12.715l0,54.356c0,0.001 0,0.001 0,0.002c0,3.775 2.679,6.88 5.935,6.88c0.637,0 1.271,-0.119 1.875,-0.352l35.61,-13.761c2.418,-0.934 4.06,-3.575 4.059,-6.53l0,-115.531c13.888,4.368 23.636,19.035 23.74,35.717l0,17.889c0,3.775 2.679,6.881 5.935,6.881c3.256,0 5.935,-3.106 5.935,-6.881l0,-17.889c-0.175,-26.377 -17.895,-48.504 -40.571,-50.661c-0.318,-0.119 -0.643,-0.204 -0.974,-0.255l-47.479,0l0,-29.552c17.538,-6.085 29.647,-24.91 29.675,-46.134l0,-34.402c-0.026,-26.411 -18.764,-48.134 -41.545,-48.164l-23.739,0c-22.781,0.03 -41.519,21.753 -41.545,48.164l0,34.402c0.028,21.224 12.136,40.049 29.675,46.134l0,29.552l-45.106,0Zm169.739,234.379c-19.37,0.98 -38.661,-3.485 -56.222,-13.011c-0.516,-0.392 -1.083,-0.685 -1.679,-0.867c-5.094,-2.76 -10.048,-5.855 -14.837,-9.269c26.209,-6.76 50.959,-19.637 72.738,-37.842l0,60.989Zm-243.331,-34.843c-6.512,0 -11.87,-6.212 -11.87,-13.761l0,-27.523l17.805,0l0,6.881c0.008,11.883 2.246,23.622 6.558,34.403l-12.493,0Zm118.698,-75.686l-47.479,0c-3.256,0 -5.935,3.106 -5.935,6.88c0,3.775 2.679,6.881 5.935,6.881l65.284,0l0,27.522c-0.003,14.904 -4.21,29.406 -11.977,41.283l-0.321,0l0,0.42c-11.205,17.022 -28.652,27.031 -47.123,27.031c-32.519,0 -59.278,-31.023 -59.278,-68.723c0,-0.004 0,-0.007 0,-0.011l0,-27.522l29.675,0c3.256,0 5.935,-3.106 5.935,-6.881c0,-3.774 -2.679,-6.88 -5.935,-6.88l-11.87,0l0,-20.642l83.089,0l0,20.642Zm-40.577,-68.716c-0.32,-0.061 -0.643,-0.092 -0.968,-0.092c-3.255,0 -5.934,3.106 -5.934,6.88c0,0.001 0,0.002 0,0.003l0,27.522l-29.675,0l0,-38.531c0,-20.383 14.467,-37.155 32.048,-37.155l94.187,0c-29.437,52.086 -87.065,41.861 -89.658,41.373Zm129.6,-41.373l0,112.008l-23.739,9.172l0,-121.18l23.739,0Zm-106.828,-89.447l0,-34.402c0.02,-18.865 13.403,-34.381 29.675,-34.403l23.739,0c16.272,0.022 29.655,15.538 29.675,34.403l0,34.402c-0.02,18.864 -13.403,34.38 -29.675,34.403l-23.739,0c-16.272,-0.023 -29.655,-15.539 -29.675,-34.403Zm29.675,48.164l23.739,0l0,27.522l-23.739,0l0,-27.522Z" style="fill-rule:nonzero;"/><path d="M500.893,1176.79l5.935,0c3.256,0 5.935,-3.106 5.935,-6.881c0,-3.774 -2.679,-6.88 -5.935,-6.88l-5.935,0c-3.255,0 -5.934,3.106 -5.934,6.88c0,3.775 2.679,6.881 5.934,6.881Z" style="fill-rule:nonzero;"/><path d="M524.633,1176.79l5.935,0c3.256,0 5.935,-3.106 5.935,-6.881c0,-3.774 -2.679,-6.88 -5.935,-6.88l-5.935,0c-3.256,0 -5.935,3.106 -5.935,6.88c0,3.775 2.679,6.881 5.935,6.881Z" style="fill-rule:nonzero;"/></g><g transform="matrix(0.5,0,0,0.5,230.762,79.537)"><text x="-278.881px" y="317.293px" style="font-family:'Verdana-Bold', 'Verdana', sans-serif;font-weight:700;font-size:240px;">The M</text><text x="524.557px" y="317.293px" style="font-family:'Hansief';font-size:240px;">o</text><text x="657.447px" y="317.293px" style="font-family:'Verdana-Bold', 'Verdana', sans-serif;font-weight:700;font-size:240px;">nk</text><text x="-263.705px" y="717.293px" style="font-family:'Verdana-Bold', 'Verdana', sans-serif;font-weight:700;font-size:240px;">who Sold</text><text x="-341.283px" y="1117.29px" style="font-family:'Verdana-Bold', 'Verdana', sans-serif;font-weight:700;font-size:240px;">his Ferrari</text></g></svg>