<svg id="Layer_1" data-name="Layer 1" xmlns="http://www.w3.org/2000/svg" viewBox="0 0 1920 1080"><title>boost_immune_bigcover</title><rect x="0.5" y="0.5" width="1919" height="1079" fill="#2a48b0" stroke="#000" stroke-miterlimit="10" stroke-width="1"/><path d="M1320,240h-94.35a90,90,0,0,1-80.54-49.8l-25.2-50.39A90,90,0,0,0,1039.34,90H835.66a90,90,0,0,0-80.55,49.8l-25.19,50.39A90,90,0,0,1,649.37,240H600a90,90,0,0,0-90,90V675.59a90.11,90.11,0,0,0,54.6,82.79l100.79,43.2a90.14,90.14,0,0,1,54.6,82.8V900a90,90,0,0,0,90,90h300a90,90,0,0,0,90-90v-15.6a90.14,90.14,0,0,1,54.6-82.8l100.79-43.2a90.11,90.11,0,0,0,54.6-82.79V330A90,90,0,0,0,1320,240Z" transform="translate(0 0)" fill="#e6e9ed"/><path d="M960,315l-35.7,3.75L885,315h-7.5A67.6,67.6,0,0,1,810,245.5c1.05-36,32.79-65.48,68.85-65.48H960a119.84,119.84,0,0,1,120,120l6.9,10.35A137.78,137.78,0,0,1,1062,491.25L1005,540V465l21.15-21.15a30.08,30.08,0,0,0,8.84-21.3V420a30.2,30.2,0,0,0-30-30V360A44.93,44.93,0,0,0,960,315Z" transform="translate(0 0)" fill="#b27946"/><path d="M1110,750V990H810V750a207.81,207.81,0,0,1-99.29-25.35l41.84-142.19A119.85,119.85,0,0,0,815,600a126.36,126.36,0,0,0,19.95-1.65l52.05-8.7L900,720l60-60,60,60,13-130.34,52,8.7a126.36,126.36,0,0,0,20,1.65,119.85,119.85,0,0,0,62.4-17.55l41.84,142.34A209.41,209.41,0,0,1,1110,750Z" transform="translate(0 0)" fill="#fcd770"/><path d="M1033,589.69,1020,720l-60-60,45-75Z" transform="translate(0 0)" fill="#ffc729"/><path d="M915,585l45,75-60,60L887,589.69Z" transform="translate(0 0)" fill="#ffc729"/><path d="M1320,405.05V536.29a209.44,209.44,0,0,1-10.65,65.85l-1.95,5.55a208,208,0,0,1-98.1,117.14l-41.84-142.34a119.37,119.37,0,0,0,22.94-17.85l4.2-4.2a120.82,120.82,0,0,0,35.4-85.35v-25l-16.8-16.8a45.22,45.22,0,0,1-13.2-31.8v-26.4a44.94,44.94,0,0,1,45-45,74.77,74.77,0,0,1,75,75Z" transform="translate(0 0)" fill="#f0d0b4"/><path d="M752.56,582.49,710.72,724.68a214.21,214.21,0,0,1-22.35-13.95,207.35,207.35,0,0,1-75.75-103l-2-5.55A209.44,209.44,0,0,1,600,536.29V405.05a75,75,0,0,1,75-75,45.07,45.07,0,0,1,45,45v26.4a45.22,45.22,0,0,1-13.2,31.8L690,450.05v25a120.82,120.82,0,0,0,35.4,85.35l4.2,4.2a119.37,119.37,0,0,0,22.94,17.85Z" transform="translate(0 0)" fill="#f0d0b4"/><path d="M1005,540v45l-45,75-45-75V540h-8.85A51.21,51.21,0,0,1,855,488.85V450l-45-15c0-28.65,18.3-69.6,31.5-95.4A45.14,45.14,0,0,1,881.71,315H885l39.29,3.75L960,315a44.93,44.93,0,0,1,45,45v30a30.2,30.2,0,0,1,30,30v2.55a30.08,30.08,0,0,1-8.84,21.3L1005,465Z" transform="translate(0 0)" fill="#f0d0b4"/><path d="M1320,225H1225.6a74.59,74.59,0,0,1-67.07-41.46l-25.26-50.5a104.42,104.42,0,0,0-93.9-58H835.63a104.44,104.44,0,0,0-93.91,58l-25.26,50.5A74.56,74.56,0,0,1,649.4,225H577.63a82.6,82.6,0,0,0-82.6,82.6v368a104.87,104.87,0,0,0,63.64,96.5l110.58,47.4A59,59,0,0,1,705,873.78v48.59a82.6,82.6,0,0,0,82.6,82.6H1110a105,105,0,0,0,105-105V884.32a75,75,0,0,1,45.46-68.94l100.89-43.24A104.84,104.84,0,0,0,1425,675.65V330a105.12,105.12,0,0,0-105-105ZM714.77,571l4.27,4.27a135.29,135.29,0,0,0,16,13.47l-33.24,113a192.78,192.78,0,0,1-75-98.8l-1.88-5.64a193.24,193.24,0,0,1-9.9-61.06V405.05a60.06,60.06,0,0,1,60-60,30,30,0,0,1,30,30v26.37a30.23,30.23,0,0,1-8.79,21.21L675,443.84V475A134.81,134.81,0,0,0,714.77,571Zm47.05,33a135.42,135.42,0,0,0,75.5,9.15l36.32-6.06L888.23,753,960,681.2,1031.77,753l14.59-145.88,36.33,6.06a135.46,135.46,0,0,0,75.49-9.15l33.21,112.9A193,193,0,0,1,1110,735h-15V975H825V735H810a193,193,0,0,1-81.4-18.09Zm64-179.51c2.85-19.45,12.93-46.6,29.06-78.07A29.92,29.92,0,0,1,881.65,330H885V300h-6.44c-27.62,0-51.33-20.92-53.41-48.46A52.56,52.56,0,0,1,877.51,195H960a105,105,0,0,1,105,105v4.55l9.41,14.08a122.71,122.71,0,0,1-22.23,161.18L1020,507.42V471.27l16.81-16.82A45,45,0,0,0,1050,422.63v-2.58a45.08,45.08,0,0,0-30-42.43V360.05a60.05,60.05,0,0,0-60-60v30a30,30,0,0,1,30,30v45h15a15,15,0,0,1,15,15v2.58a15,15,0,0,1-4.4,10.6L990,458.8v122l-30,50-30-50V555l30,0V525l-53.79,0a36.08,36.08,0,0,1-28.43-13.77A37.11,37.11,0,0,1,870,488.08V439.21Zm186.74,177,4.1.69L1008.21,687l-29.34-29.33Zm-105.2,0,33.72,56.2L911.78,687l-8.49-84.84Zm316.38-178.88a30.22,30.22,0,0,1-8.8-21.22V375.05a29.93,29.93,0,0,1,29.55-30,60.07,60.07,0,0,1,60.45,60V536.27a192.92,192.92,0,0,1-9.9,61l-1.89,5.67a192.7,192.7,0,0,1-75,98.76l-33.23-113a136.89,136.89,0,0,0,16-13.46l4.26-4.26a135.75,135.75,0,0,0,39.75-96v-31.2Zm171.19,253a75,75,0,0,1-45.46,68.94l-100.88,43.24A104.84,104.84,0,0,0,1185,884.32V900a75.14,75.14,0,0,1-60,73.48v-209a222.76,222.76,0,0,0,196.64-152l1.89-5.66A222.5,222.5,0,0,0,1335,536.26V405.05a90.08,90.08,0,0,0-92.81-89.95c-32,1-57.18,27.94-57.18,60v26.33a60.39,60.39,0,0,0,17.58,42.42L1215,456.26V475a105.67,105.67,0,0,1-31,74.74l-4.27,4.27a105.52,105.52,0,0,1-92.15,29.54L1020,572.29V546.9l51.68-44.29A152.69,152.69,0,0,0,1099.36,302l-4.44-6.66C1092.44,223.07,1032.86,165,960,165H878.84c-43.59,0-80.71,33.31-83.64,76.81a82.52,82.52,0,0,0,42.2,77.71,60.6,60.6,0,0,0-9.18,13.19C813.07,362.29,795,404,795,435v10.82l45,15V487.7a68,68,0,0,0,10,36,65.19,65.19,0,0,0,50,30.71v17.9l-67.58,11.26a105.49,105.49,0,0,1-92.17-29.53L736,549.8A105,105,0,0,1,705,475V456.26l12.42-12.42A60.39,60.39,0,0,0,735,401.42V375.09c0-32-25.15-59-57.18-60A90.08,90.08,0,0,0,585,405.05V536.26a222.6,222.6,0,0,0,11.45,70.57l1.89,5.64A222.77,222.77,0,0,0,795,764.53v209A75.13,75.13,0,0,1,735,900v-15.7a104.89,104.89,0,0,0-63.65-96.51L570.48,744.59A74.91,74.91,0,0,1,525,675.65V330a75,75,0,0,1,75-75H649.4a104.44,104.44,0,0,0,93.91-58l25.26-50.5A74.56,74.56,0,0,1,835.63,105h203.74a74.59,74.59,0,0,1,67.08,41.46l25.26,50.5a104.4,104.4,0,0,0,93.89,58H1320a75,75,0,0,1,75,75Z" transform="translate(0 0)"/><path d="M955.61,334.41C941.3,320.1,930,308.81,930,270H900c0,51.21,18.27,69.49,34.4,85.6Z" transform="translate(0 0)"/><path d="M1320,855h30v30h-30Z" transform="translate(0 0)"/><path d="M1320,915h30v30h-30Z" transform="translate(0 0)"/><path d="M1350,885h30v30h-30Z" transform="translate(0 0)"/><path d="M1290,885h30v30h-30Z" transform="translate(0 0)"/><path d="M1215,105h30v30h-30Z" transform="translate(0 0)"/><path d="M1215,165h30v30h-30Z" transform="translate(0 0)"/><path d="M1245,135h30v30h-30Z" transform="translate(0 0)"/><path d="M1185,135h30v30h-30Z" transform="translate(0 0)"/><path d="M570,855h30v30H570Z" transform="translate(0 0)"/><path d="M570,915h30v30H570Z" transform="translate(0 0)"/><path d="M540,885h30v30H540Z" transform="translate(0 0)"/><path d="M600,885h30v30H600Z" transform="translate(0 0)"/><path d="M615,105h30v30H615Z" transform="translate(0 0)"/><path d="M615,165h30v30H615Z" transform="translate(0 0)"/><path d="M585,135h30v30H585Z" transform="translate(0 0)"/><path d="M645,135h30v30H645Z" transform="translate(0 0)"/><path d="M1005,780h60v30h-60Z" transform="translate(0 0)"/></svg>