<?xml version="1.0" encoding="UTF-8" standalone="no"?><!DOCTYPE svg PUBLIC "-//W3C//DTD SVG 1.1//EN" "http://www.w3.org/Graphics/SVG/1.1/DTD/svg11.dtd"><svg width="100%" height="100%" viewBox="0 0 800 1280" version="1.1" xmlns="http://www.w3.org/2000/svg" xmlns:xlink="http://www.w3.org/1999/xlink" xml:space="preserve" xmlns:serif="http://www.serif.com/" style="fill-rule:evenodd;clip-rule:evenodd;stroke-linejoin:round;stroke-miterlimit:1.41421;"><rect x="0" y="0" width="800" height="1280" style="fill:#ebebeb;"/><rect x="0" y="0" width="800" height="640" style="fill:#241e4e;"/><g transform="matrix(0.5,0,0,0.5,-175.223,-82.7007)"><text x="499.846px" y="1767.11px" style="font-family:'Acme-Regular', 'Acme';font-size:200px;fill:#191436;">Habits of Highly</text><text x="520.246px" y="1967.11px" style="font-family:'Acme-Regular', 'Acme';font-size:200px;fill:#191436;">Effective People</text></g><g><path d="M566.849,101.64c-1.089,-6.69 -2.685,-11.67 -5.021,-15.675c-0.029,-0.052 -0.06,-0.102 -0.092,-0.153c-3.017,-4.955 -7.181,-8.244 -12.382,-9.774c-3.697,-1.119 -8.034,-1.64 -13.639,-1.64l-279.106,0c-4.445,0 -8.644,1.457 -12.156,4.213c-4.126,3.109 -6.392,7.852 -7.745,11.17c-1.601,3.932 -2.814,8.884 -3.702,15.105c-0.806,5.508 -1.216,12.225 -1.216,19.964c0,16.095 1.421,27.261 4.475,35.137c5.295,13.97 15.017,16.058 20.344,16.058l182.403,0l-58.958,130.517c-2.18,4.826 -0.035,10.506 4.791,12.686c4.828,2.178 10.506,0.034 12.686,-4.791l65.073,-144.054c1.34,-2.968 1.083,-6.413 -0.683,-9.149c-1.767,-2.735 -4.8,-4.388 -8.056,-4.388l-197.256,0c-0.149,0 -0.211,-0.017 -0.212,-0.017c-0.208,-0.093 -1.189,-0.989 -2.209,-3.687c-0.011,-0.03 -0.022,-0.06 -0.033,-0.09c-1.455,-3.737 -3.187,-11.668 -3.187,-28.224c0,-6.716 0.35,-12.659 1.019,-17.219c0.659,-4.617 1.495,-8.19 2.482,-10.613c0.894,-2.193 1.489,-2.992 1.646,-3.181c0.056,-0.043 0.112,-0.086 0.167,-0.13c0.117,-0.094 0.175,-0.119 0.175,-0.119c0.002,0 0.047,-0.012 0.153,-0.012l279.105,0c3.583,0 6.309,0.277 8.102,0.823c0.037,0.012 0.074,0.022 0.111,0.033c0.302,0.088 0.714,0.208 1.378,1.274c0.743,1.303 1.783,3.915 2.614,9.014c0.749,4.606 1.114,10.947 1.114,19.387c0,6.677 -0.236,12.537 -0.7,17.418c-0.509,5.348 -1.114,9.785 -1.849,13.567c-0.817,4.199 -1.809,7.827 -3.032,11.09c-0.031,0.084 -0.061,0.168 -0.09,0.252c-1.202,3.496 -2.775,7.485 -4.815,12.201l-154.329,358.284c-1.149,2.348 -2.257,3.566 -3.027,4.208c-0.823,0.693 -2.532,1.718 -6.004,2.665c-3.359,0.916 -8.118,1.576 -13.755,1.906c-5.665,0.327 -13.045,0.48 -23.222,0.48c-12.865,0 -22.472,-0.385 -29.35,-1.174c-8.57,-1 -11.983,-2.441 -13.052,-3.015c-0.079,-0.043 -0.159,-0.084 -0.241,-0.124c-0.089,-0.046 -0.17,-0.088 -0.246,-0.129c0.135,-0.888 0.51,-2.299 1.492,-4.323c0.037,-0.077 0.075,-0.157 0.11,-0.236l65.071,-144.051c2.18,-4.826 0.036,-10.506 -4.791,-12.686c-4.829,-2.18 -10.506,-0.035 -12.686,4.791l-65.022,143.94c-2.592,5.387 -3.72,10.47 -3.355,15.115c0.221,3.668 1.949,10.23 10.733,14.673c4.549,2.406 11.017,4.072 19.782,5.094c7.632,0.876 17.954,1.301 31.555,1.301c10.7,0 18.202,-0.158 24.336,-0.512c7.051,-0.415 13.001,-1.272 17.686,-2.55c5.571,-1.519 9.925,-3.645 13.274,-6.466c3.216,-2.68 5.935,-6.304 8.079,-10.77c0.058,-0.117 0.111,-0.236 0.163,-0.356l154.405,-358.463c2.21,-5.109 3.944,-9.508 5.301,-13.445c1.58,-4.239 2.841,-8.833 3.854,-14.038c0.855,-4.397 1.547,-9.439 2.114,-15.41c0.53,-5.558 0.787,-11.849 0.787,-19.235c0.001,-9.613 -0.432,-16.752 -1.361,-22.467Z" style="fill:#ebebeb;fill-rule:nonzero;"/><path d="M371.026,359.431c5.295,0 9.589,-4.294 9.589,-9.589c0,-5.295 -4.294,-9.589 -9.589,-9.589l-0.008,0c-5.295,0 -9.585,4.294 -9.585,9.589c0,5.295 4.297,9.589 9.593,9.589Z" style="fill:#ebebeb;fill-rule:nonzero;"/></g><g transform="matrix(0.5,0,0,0.5,110.165,-61.8716)"><text x="51.118px" y="2271.39px" style="font-family:'GillSansMT', 'Gill Sans MT', sans-serif;font-size:150px;fill:#191436;">P<tspan x="123.848px 205.146px 310.029px 381.88px " y="2271.39px 2271.39px 2271.39px 2271.39px ">ower</tspan>ful Lessons</text><text x="-3.96px" y="2421.39px" style="font-family:'GillSansMT', 'Gill Sans MT', sans-serif;font-size:150px;fill:#191436;">in P<tspan x="218.33px 290.181px " y="2421.39px 2421.39px ">er</tspan>sonal Change</text></g><rect x="32.5" y="0" width="18.75" height="639.75" style="fill:#191436;"/><rect x="32.5" y="639.75" width="18.75" height="640.25" style="fill:#bfbfbf;"/></svg>