<svg id="Layer_1" data-name="Layer 1" xmlns="http://www.w3.org/2000/svg" viewBox="0 0 1600 2560"><title>can_online_food</title><rect width="1600" height="2560" fill="#ffe07d"/><path d="M511.39,2075.65,431,2108.25l-64-32.6H259.8a46.69,46.69,0,0,1-46.55-46.55V1924.21H511.39Z" fill="#ffe07d" fill-rule="evenodd"/><path d="M690.06,2075.65c14.69,22.5,41,33,81.09,33.06l63.72.07c32,0,32,20.74,32,61.52H396c-15.89,0-29-12.7-29-28.28v-66.37h323Z" fill="#6f6571" fill-rule="evenodd"/><path d="M809.07,2170.3c40.48,125.45-17.65,95,163.14,163.26h88.56c-9.82,26.89-21,53.5-32.94,80.46H712.33c-29.42-110.81-316-149.13-344.22-53.12-16.86-97.35,2.69-148.25,27-190.6Z" fill="#ffe07d" fill-rule="evenodd"/><path d="M845.53,1813.64c.73-38.2-3.56-73.57-15-100.69-1.54,0-31.19-47.43-31.19-47.43a148.19,148.19,0,0,0-44.54,23.06c-61,29.8-132.8,121.9-136.36,314L720,2038.19l91-35.66a674,674,0,0,0,23.95-91.76Z" fill="#eceaec" fill-rule="evenodd"/><path d="M634.2,2074.26c14.57,21.83,40.64,32,80.42,32.08l63.19.07c31.73,0,31.73,21.1,31.73,62.57v86.5h99.38V2145.7c0-104.75-53.94-138.56-97.79-143.4H620.23C618.64,2033.65,623,2057.42,634.2,2074.26Z" fill="#ff8086" fill-rule="evenodd"/><path d="M673.69,2002.3C676.77,1836.09,731,1744.73,785,1703.85a123.44,123.44,0,0,1-30.19-15.5c-61,29.8-132.8,121.9-136.36,314Z" fill="#dad8db" fill-rule="evenodd"/><path d="M632.88,2074.3c14.58,21.85,40.67,32,80.47,32.11h16.31c-19-6.66-32.81-18.32-42-32.11-11.25-16.85-15.57-40.63-14-72H618.91C617.31,2033.67,621.64,2057.45,632.88,2074.3Z" fill="#f76672" fill-rule="evenodd"/><path d="M464.91,1775.14a46.53,46.53,0,0,1,46.48,46.36v76.68H213.25v-76.49a46.69,46.69,0,0,1,46.55-46.55Z" fill="#ffe07d" fill-rule="evenodd"/><path d="M511.39,1947.87H213.25v-73.35H511.39Z" fill="#ff8086" fill-rule="evenodd"/><path d="M274.78,1821.24a46.14,46.14,0,0,1,46-46.1H259.21a46.14,46.14,0,0,0-46,46.1v53.28h61.53Z" fill="#ffc269" fill-rule="evenodd"/><path d="M274.78,1924.68v-50.16H213.25v73.35h61.53Z" fill="#f76672" fill-rule="evenodd"/><path d="M237,1947.87H213.25v81a47.23,47.23,0,0,0,23.78,41,45.19,45.19,0,0,0,22.18,5.8h61.52c-25.29,0-46-21.05-46-46.82v-81Z" fill="#ffc269" fill-rule="evenodd"/><path d="M370.92,2414c-6,0-10.47.81-10.27-5.63a180.14,180.14,0,0,1,7.72-47.4c22.2-73,89-125.32,168-125.32,97.06,0,175.73,79.07,175.73,178.35Q541.52,2413.86,370.92,2414Z" fill="#ff8086" fill-rule="evenodd"/><path d="M667.85,2414c-3.82,72.09-62.24,129.41-133.74,129.42S404.18,2486.11,400.36,2414Z" fill="#6f6571" fill-rule="evenodd"/><path d="M1258.5,2527.06A118.1,118.1,0,0,1,1117,2438.39l230.13-53A118.15,118.15,0,0,1,1258.5,2527.06Z" fill="#6f6571" fill-rule="evenodd"/><path d="M1388.42,2375.89l-24.08,5.58-17.24,4-230.13,53-36,8.26c-3.22.73-5.16,1.94-5.83-1a161.05,161.05,0,0,1-3.56-31.75c6.78-77.6,40.65-139.83,144.75-161.85a160.35,160.35,0,0,1,172.11,123.85Z" fill="#eceaec" fill-rule="evenodd"/><path d="M1071.5,2414h-66.87c11.87-27.06,23.14-53.77,33.06-80.76,41.52-113.58,58.69-232.59-2.81-403.1l46.81-18.72,41.86,18.72,93,321.68Z" fill="#ff8086" fill-rule="evenodd"/><path d="M928.63,1569.43A105.45,105.45,0,0,1,830.57,1713a106.43,106.43,0,0,1-30.52-4.5l-23.21-118c0-16.65,31.66-43.23,42.73-44.24l109.06,23.23Z" fill="#ffece4" fill-rule="evenodd"/><path d="M963.87,1569.28H819.59c-11.07,1-19.52,4.37-19.52,21v118a126.86,126.86,0,0,1-45.21-19.86c-36.48-25.58-56.6-69.62-56.6-119.15,0-75,59.42-135.8,132.8-135.8s132.81,60.75,132.81,135.8Z" fill="#ff8086" fill-rule="evenodd"/><path d="M900.53,1453.7a128.54,128.54,0,0,0-17.64-1.14c-76.67,0-138.85,63.57-138.85,142,0,43.23,14.63,82.44,41.59,109.76a123.57,123.57,0,0,1-30.79-15.71c-36.48-25.57-56.61-69.61-56.61-119.15,0-75,59.43-135.8,132.81-135.8a129.65,129.65,0,0,1,69.49,20.07Z" fill="#f76672" fill-rule="evenodd"/><path d="M910.29,2255.48c26.5,0,65,14.41,62.15,78.08H827.83c-10.9,0-18.29-1-18.29-14.6v-63.48Z" fill="#6f6571" fill-rule="evenodd"/><path d="M1037.78,2333.45c-9.9,26.92-21.15,53.58-33,80.57H1052c11.92-27,23.16-53.65,33-80.57,41.49-113.31,58.55-232-2.81-402.14H1035c61.36,170.1,44.23,288.83,2.81,402.14Z" fill="#f76672" fill-rule="evenodd"/><path d="M1071.57,2413.89a160.28,160.28,0,0,0,3.55,31.75c.67,3,2.62,1.74,5.84,1l36-8.25,7-1.61a159.16,159.16,0,0,1-2.75-27.46l139.11-155.53a158.39,158.39,0,0,0-44.07-1.75l-144.74,161.85Z" fill="#dad8db" fill-rule="evenodd"/><path d="M368.53,2355.61a172,172,0,0,1,35.41-62.75c4.23-24.71,4.43-31.38,13.75-51.84,10.8-23.59,23.95-35.23,51.65-35.23h340.2V2170.3h-414C371.21,2211.48,351.7,2261,368.53,2355.61Z" fill="#ffc269" fill-rule="evenodd"/><path d="M404.44,2296.54a178.11,178.11,0,0,0-35,63.1v.07c-.13.4-.26.8-.4,1.27a180.21,180.21,0,0,0-7.71,47.4c-.2,6.44,4.22,5.64,10.26,5.64h72c-3.22-.21-5.24-1.21-5.1-5.64,2.41-80.62,57.82-150.57,137-168.49a177.94,177.94,0,0,0-38.57-4.23,174.27,174.27,0,0,0-132.53,60.88Z" fill="#f76672" fill-rule="evenodd"/><path d="M1117,2438.39a118,118,0,0,0,94.51,89.88,117.42,117.42,0,0,1-45.48-69l7-1.61,177.07-40.74a117.05,117.05,0,0,0-3-31.48L1124,2436.78Z" fill="#5d5360" fill-rule="evenodd"/><path d="M400.76,2414c3,57.49,40.92,105.61,92.49,122.54a137.84,137.84,0,0,1-32.71-82.32H659.23a138.38,138.38,0,0,0,8.23-40.22H400.76Z" fill="#5d5360" fill-rule="evenodd"/><path d="M395.72,2170.3h89.92A28.79,28.79,0,0,1,457,2141.56v-65.91H367.06v65.91A28.79,28.79,0,0,0,395.72,2170.3Z" fill="#5d5360" fill-rule="evenodd"/><path d="M935.25,1595.31a99.19,99.19,0,0,0-6.58-26H819.59c-11.07,1-19.52,4.22-19.52,20.32v114.1a111.22,111.22,0,0,0,26,4.22v-92.23c0-16.1,8.45-19.4,19.52-20.38Z" fill="#ffddce" fill-rule="evenodd"/><path d="M1143.84,1827.65c15.9-5.24,25.36-9.26,25.36,8.93V1929H1023.31c-4.16,1.81-11.13-54.31-5-59.82l125.49-41.48Z" fill="#ffe07d" fill-rule="evenodd"/><path d="M943.25,1897.66l15.7-33.22,58.48,4.69c40.05,3.29,39,59.82,5,59.82H959Z" fill="#ffece4" fill-rule="evenodd"/><path d="M900.05,1859.67l58.56,4.77V1929H864.37l-29.78-19.34-59.16-38.39c-70.3-45.65-3.83-122.11,48.76-76.8l21,18.06Z" fill="#ff8086" fill-rule="evenodd"/><path d="M969,1929h52c17.94,0,26.58-16,24.67-31.29a26.07,26.07,0,0,1-5.61.52H958.61V1929Z" fill="#ffddce" fill-rule="evenodd"/><path d="M836.65,1909.93l29.29,19h92.67v-30.77H884.93l-29.28-18.94-12.8-8.38-45.31-29.38c-23.75-15.38-31.59-34.32-29.68-50.82-23.81,16.1-31.2,54.32,10.62,81.52Z" fill="#f76672" fill-rule="evenodd"/><path d="M1017.44,1869.14c18.58,1.54,28.3,14.5,30,28,1.94,15.57-6.85,31.82-25.09,31.82h59.76c10.87-23,2.68-58.34-14.22-76.46l-50.5,16.65Z" fill="#ffc269" fill-rule="evenodd"/><path d="M258.56,1756.21a64.33,64.33,0,0,0-64.24,64.28v207.43a64.29,64.29,0,0,0,64.3,64.29h89.51v48.29a46.72,46.72,0,0,0,21.2,39.11c-20.17,40.9-33.77,93.17-19.63,179a201.21,201.21,0,0,0-7.27,48.08c-.27,8.71,3.26,14.19,6.27,17.25,6,6.13,13.35,6.69,18.43,6.69h1.73l1.57,0H384C395.84,2504.37,458.63,2560,533.62,2560s137.77-55.63,149.64-129.42h371.16a176.24,176.24,0,0,0,2.86,17.67,20.35,20.35,0,0,0,10,13.61c5.61,3,11.23,2.33,17.15,1l19.88-4.57a136,136,0,0,0,127,88.5,136.6,136.6,0,0,0,30.69-3.51c67.14-15.46,111.16-78.53,104.72-145.38l25.2-5.79a17.76,17.76,0,0,0,13.31-21.27c-18.94-82.45-93.29-139.75-176.41-138.36l-26.87-92.85a17.76,17.76,0,0,0-24.08-11.36c-8.34,3.55-12.35,13.16-9.83,21.88l27.91,96.41-132.87,148.57h-31.28c54.89-128.94,90.61-256.35,28-447.22h50.33l35.17,121.54a17.7,17.7,0,0,0,34-9.84L1147,1947.87h21a17.74,17.74,0,0,0,17.75-17.74v-93.35c0-4.59,0-18.55-11-26.52-11.18-8.09-24.06-3.8-35.43,0l-124.06,41.13-107.54-8.73-44.2-38.12c0-29.43-2.92-55.34-8.82-77.31a123.32,123.32,0,0,0,98.86-120.89,125.22,125.22,0,0,0-1.7-20.48h12a17.73,17.73,0,0,0,17.74-17.67c.06-84.84-67.41-153.88-150.33-153.88s-150.34,69-150.34,153.77c0,47.13,16.11,88,44,116.71-23.73,16.62-51.39,44.42-75.09,90.79-30.52,59.72-46.83,135.73-48.5,225.92h0c-1,21.34.54,39.68,4.81,55.23H528V1820.51a64.3,64.3,0,0,0-64.3-64.3ZM1178.82,2497a99.72,99.72,0,0,1-39.06-45.65l192.49-44.31a100.54,100.54,0,0,1-77.73,102.72h0a99.57,99.57,0,0,1-75.7-12.75Zm-89.27-76.61,135.23-151.21c62.67-3.32,120,35.3,141.3,93.63L1090,2426.35Q1089.73,2423.38,1089.55,2420.4ZM823.4,2116.92c-6.76-17.92-21.51-27-43.84-27l-62.62-.06c-29.17,0-49-6-60.54-18.25-9.93-10.51-15.16-27.07-15.84-50.37H811.61c25,3,80.74,21.31,80.74,124v91.35H828.47v-66.73c0-22.92,0-39.47-5.07-52.9ZM909.25,2272c7.55,0,21.7,1.57,31.75,12.09,6.76,7.07,10.88,17.3,12.3,30.51H826.1V2272ZM636.77,1985.73c8-188.94,83.13-255.18,117.31-275.6a147.19,147.19,0,0,0,41.42,16.42A125,125,0,0,0,818,1731c4.15,12.86,7,28,8.57,45-18.71-12-39.89-14.44-59.56-6.56-21.54,8.63-36.89,28.79-39.09,51.36-2.49,25.46,11.44,50,38.23,67.44l49.06,31.85a662.25,662.25,0,0,1-17,65.67Zm181.64-433-1.5.06c-29.57,2.65-35.77,22.51-35.77,38.7v93.38c-40.93-18.78-66.32-61.45-66.32-114.39,0-65.1,51.62-118,115.06-118,57.56,0,105.39,43.6,113.76,100.3Zm99.18,53.73a88.26,88.26,0,0,1-88,88.24h-.12a89.15,89.15,0,0,1-12.84-.94V1589.14a21.58,21.58,0,0,1,.18-2.93c.58-.12,1.38-.24,2.49-.36h95.91a89,89,0,0,1,2.38,20.6ZM942,1881.62v30.76H870.25l-85.43-55.45c-15.67-10.18-23.66-22.46-22.47-34.58.94-9.63,7.67-18.3,17.15-22.1a27.09,27.09,0,0,1,10.1-2c7.7,0,15.62,3.27,23,9.66h0l76.67,66a17.94,17.94,0,0,0,10.26,4.27l42.48,3.44Zm89,21.67c-.17,4.15-1.62,9.09-7.57,9.09h-45.9v-27.57l39.5,3.2C1030.89,1889.14,1031.11,1900.94,1031,1903.29Zm26.72-27.53-.07-.14,92.61-30.61v67.37h-86l0,0a51.14,51.14,0,0,0-6.52-36.58Zm-35.4,72.11c52.46,152.66,38.77,263,2.78,366.77H989.39c-1.77-22.81-9.18-41.19-22.13-54.75-12.3-12.86-27-18.66-39.41-21.16v-93.45c0-111.07-57.32-145.52-93.43-156.18,4.78-15.66,9.17-32.24,13-49.28l8,5.19a17.72,17.72,0,0,0,9.66,2.86Zm-293,449.58a195.86,195.86,0,0,0-55.9-121.35,192.94,192.94,0,0,0-293.88,23c-.75-51.28,11.89-83.74,25.94-109.82h166a17.75,17.75,0,0,0,17.61-20c-1.09-9-9.21-15.53-18.28-15.53h-176a11.28,11.28,0,0,1-11.25-11.25v-50.27H623.37c.82,1,1.64,2,2.52,2.9,18.82,20.26,47.37,30.12,87.27,30.16l64,.07c10,0,10.82,2.1,11.75,4.54,1.9,5,2.56,13.49,2.79,23.85H650.53a17.75,17.75,0,0,0-17.61,20c1.09,9,9.21,15.53,18.28,15.53H790.61v127.11c0,22.42,12.1,33.79,36,33.79h184.26c-6,15.77-12.27,31.49-18.83,47.26ZM534.11,2524.51c-55.48,0-102.27-40-113.59-93.93H647.69c-11.32,54-58.1,93.93-113.58,93.93ZM379.25,2395.09a164.17,164.17,0,0,1,5.85-29.41c.07-.2.14-.41.2-.62,19.83-65.82,79.71-112.84,151-112.84,81.22,0,148.31,62.62,157,142.87H379.25ZM229.82,2027.88v-63.44H492.47v92.28H258.66A28.93,28.93,0,0,1,229.82,2027.88Zm0-134.43H492.47v37.86H229.82Zm0-72.91a28.92,28.92,0,0,1,28.84-28.83h205a28.8,28.8,0,0,1,28.81,28.8v35.08H229.82Z"/><path d="M305.61,309.45v31.6h-26v-20.6l-4.8-4.2h-23.4l-4.8,4.2v108.2l4.8,4.2h23.4l4.8-4.2v-22h26v33.4L288,454.85h-49.8l-17.6-14.8V309.45l17.6-14.6H288Z"/><path d="M394.4,348.85v106h-18l-4.4-6.4-7.8,6.4H339.8l-16-13.6v-45.4l16-13.6h23.4l7.6,6v-31l-4-3.4H351.4l-4,3.4v16.2H323.8v-24.6l16.8-14h37Zm-27.2,86.6,3.6-3v-29l-3.6-3.2H351l-3.6,3.2v29l3.8,3Z"/><path d="M484.2,347.85v107H460.4v-98l-3.6-3h-16l-3.6,3v98H413.4V334.65h18.2l4.2,6.4,8-6.6h24.4Z"/><path d="M608.8,348.85v92.4l-16.2,13.6H554.4l-16.2-13.6v-92.4l16.8-14h37Zm-27.6,5H565.8l-4,3.4v75l3.6,3h16.2l3.6-3v-75Z"/><path d="M698,347.85v107H674.2v-98l-3.6-3h-16l-3.6,3v98H627.2V334.65h18.2l4.2,6.4,8-6.6H682Z"/><path d="M754.4,454.85H732l-16.4-13.6V294.85h23.8v137.4l3.6,3h11.4Z"/><path d="M766.4,318.85l-.2-11.8,7-6.4h11.6l7,6.4-.2,11.8-7,6.2H773.2Zm.6,16h23.8v120H767Z"/><path d="M881.6,347.85v107H857.8v-98l-3.6-3h-16l-3.6,3v98H810.8V334.65H829l4.2,6.4,8-6.6h24.4Z"/><path d="M967.6,348.85v51.8h-47v31.6l3.6,3h16.2l3.6-3v-17.8h23.6v26.8l-16.2,13.6H913.2L897,441.25v-92.4l16.8-14h37Zm-27.6,5H924.6l-4,3.4v25.6H944v-25.6Z"/><path d="M1049.39,317.25v47.2h37v22h-37v68.4h-26v-160h74.39v22.4Z"/><path d="M1172.79,348.85v92.4l-16.2,13.6H1118.4l-16.2-13.6v-92.4l16.8-14h37Zm-27.6,5h-15.4l-4,3.4v75l3.6,3h16.2l3.6-3v-75Z"/><path d="M1258.39,348.85v92.4l-16.2,13.6H1204l-16.2-13.6v-92.4l16.8-14h37Zm-27.6,5h-15.4l-4,3.4v75l3.6,3h16.2l3.6-3v-75Z"/><path d="M1344,294.85v160h-18l-4.4-6.4-7.8,6.4h-24.4l-16-13.6v-93.4l16-13.4h24.4l6.6,5.4v-45Zm-27.2,140.6,3.6-3v-75.6l-3.6-3h-16l-3.8,3v75.6l3.8,3Z"/><path d="M389.1,549.45v130.6l-17.8,14.8H304.11v-160H371.3Zm-30.8,6.8H330.11v116.6H358.3l4.8-4.2V560.45Z"/><path d="M478.5,588.85v51.8h-47v31.6l3.6,3h16.2l3.6-3v-17.8h23.6v26.8l-16.2,13.6H424.11l-16.2-13.6v-92.4l16.8-14h37Zm-27.6,5H435.5l-4,3.4v25.6h23.4v-25.6Z"/><path d="M534.5,694.85H512.1l-16.39-13.6V534.85H519.5v137.4l3.6,3h11.4Z"/><path d="M546.5,558.85l-.2-11.8,7-6.4h11.6l7,6.4-.2,11.8-7,6.2H553.3Zm.6,16h23.8v120H547.1Z"/><path d="M667.9,574.85l-24.6,120H608.9l-24.6-120h24.2l16.8,99.2h1.8l16.6-99.2Z"/><path d="M748.3,588.85v51.8h-47v31.6l3.6,3h16.2l3.6-3v-17.8h23.6v26.8l-16.2,13.6H693.9l-16.2-13.6v-92.4l16.8-14h37Zm-27.6,5H705.3l-4,3.4v25.6h23.4v-25.6Z"/><path d="M815.7,574.45v20h-21l-4.2,3.2v97.2H766.7v-120h18l3.8,5.6,8-6Z"/><path d="M903.7,574.85l-40.4,164h-23l12.6-43.2-30.6-120.8h24.2l16.6,81.6,16.4-81.6Z"/><path d="M979.3,557.25v44.6h37v22h-37v48.2h48.4v22.8H953.3v-160h74.4v22.4Z"/><path d="M1120.7,574.85l-24.6,120h-34.4l-24.6-120h24.2l16.8,99.2h1.8l16.6-99.2Z"/><path d="M1201.1,588.85v51.8h-47v31.6l3.6,3h16.2l3.6-3v-17.8h23.6v26.8l-16.2,13.6h-38.2l-16.2-13.6v-92.4l16.8-14h37Zm-27.6,5h-15.4l-4,3.4v25.6h23.4v-25.6Z"/><path d="M1268.5,574.45v20h-21l-4.2,3.2v97.2h-23.8v-120h18l3.8,5.6,8-6Z"/><path d="M164,827.85v93.4l-16,13.6h-24.4l-7.8-6.6-4.4,6.6H93.21v-160H117v45l6.6-5.4H148Zm-27.4,6h-16l-3.6,3v75.6l3.6,3h16l3.6-3v-75.6Z"/><path d="M249.61,828.85v51.8h-47v31.6l3.6,3h16.2l3.6-3v-17.8h23.6v26.8l-16.2,13.6h-38.2L179,921.25v-92.4l16.8-14h37Zm-27.6,5h-15.4l-4,3.4v25.6H226v-25.6Z"/><path d="M335.21,828.85v27.4h-23.6v-19l-4-3.4h-15.4l-4,3.4v75l3.6,3H308l3.6-3v-20.8h23.6v29.8L319,934.85h-38.2l-16.2-13.6v-92.4l16.8-14h37Z"/><path d="M420,828.85v92.4l-16.2,13.6h-38.2l-16.2-13.6v-92.4l16.8-14h37Zm-27.6,5H377l-4,3.4v75l3.6,3h16.2l3.6-3v-75Z"/><path d="M556.4,827.45v107.4H532.6v-98l-3.6-3H513l-3.6,3v98H485.6v-98l-3.8-3h-16l-3.59,3v98h-23.8V814.65h18.2l4.39,6.6,8.8-6.8h23l12.2,9.4,11.8-9.4H540Z"/><path d="M642.4,828.85v51.8h-47v31.6l3.6,3h16.2l3.6-3v-17.8h23.6v26.8l-16.2,13.6H588l-16.2-13.6v-92.4l16.8-14h37Zm-27.6,5H599.4l-4,3.4v25.6h23.4v-25.6Z"/><path d="M778.4,789.45v72.8l-17.6,14.8H724.2v57.8h-26v-160h62.6Zm-30.8,6.8H724.2v59.2h23.4l4.8-4v-51Z"/><path d="M844.6,814.45v20h-21l-4.2,3.2v97.2H795.6v-120h18l3.8,5.6,8-6Z"/><path d="M925,828.85v92.4l-16.2,13.6H870.6l-16.2-13.6v-92.4l16.8-14h37Zm-27.6,5H882l-4,3.4v75l3.6,3h16.2l3.6-3v-75Z"/><path d="M994.8,814.85v19.6H978.6v100.4H954.8V834.45H940.4v-19.6h14.4v-26l17-14h23v19H982.6l-4,3.4v17.6Z"/><path d="M1011.4,798.85l-.2-11.8,7-6.4h11.59l7,6.4-.2,11.8-7,6.2h-11.4Zm.6,16h23.79v120H1012Z"/><path d="M1094,915.25h12v19.6h-23l-16.2-13.6v-86.8h-14v-19.6h14v-24.2h23.6v24.2H1106v19.6h-15.6v77.8Z"/><path d="M1190.19,828.85v106h-18l-4.4-6.4-7.8,6.4h-24.4l-16-13.6v-45.4l16-13.6H1159l7.6,6v-31l-4-3.4h-15.4l-4,3.4v16.2h-23.6v-24.6l16.8-14h37Zm-27.2,86.6,3.6-3v-29l-3.6-3.2h-16.2l-3.6,3.2v29l3.8,3Z"/><path d="M1278.79,827.85v93.4l-16,13.6h-24.4l-7.8-6.6-4.4,6.6H1208v-160h23.8v45l6.6-5.4h24.4Zm-27.4,6h-16l-3.6,3v75.6l3.6,3h16l3.6-3v-75.6Z"/><path d="M1334.79,934.85h-22.4l-16.4-13.6V774.85h23.8v137.4l3.6,3h11.4Z"/><path d="M1411.79,828.85v51.8h-47v31.6l3.6,3h16.2l3.6-3v-17.8h23.6v26.8l-16.2,13.6h-38.2l-16.2-13.6v-92.4l16.8-14h37Zm-27.6,5h-15.4l-4,3.4v25.6h23.4v-25.6Z"/><path d="M1510.59,789.45v20.4l-.2,21.2-30.4,49.6v16.4h-22v-26.2l26.4-43.4.2-20.4v-6.8l-4.8-4h-22.4l-4.8,4v20.6h-26v-31.4l17.6-14.8h48.6Zm-35.8,119.6,7.2,6.6-.2,12.6-7,6.6h-11.6l-7-6.6v-12.6l7-6.6Z"/></svg>