<svg id="Layer_1" data-name="Layer 1" xmlns="http://www.w3.org/2000/svg" xmlns:xlink="http://www.w3.org/1999/xlink" viewBox="0 0 1600 2560"><defs><clipPath id="clip-path" transform="translate(0 0)"><rect width="1600" height="2560" fill="#407bff"/></clipPath><clipPath id="clip-path-2" transform="translate(0 0)"><rect y="960" width="1600" height="1600" fill="none"/></clipPath><clipPath id="clip-path-7" transform="translate(0 0)"><rect x="672" y="1324.8" width="643.2" height="505.6" fill="none"/></clipPath><clipPath id="clip-path-9" transform="translate(0 0)"><rect x="387.2" y="1430.4" width="32" height="57.6" fill="none"/></clipPath><clipPath id="clip-path-10" transform="translate(0 0)"><rect x="518.4" y="1456" width="28.8" height="48" fill="none"/></clipPath><clipPath id="clip-path-11" transform="translate(0 0)"><rect x="486.4" y="2208" width="28.8" height="32" fill="none"/></clipPath><clipPath id="clip-path-12" transform="translate(0 0)"><rect x="320" y="2201.6" width="32" height="35.2" fill="none"/></clipPath><clipPath id="clip-path-13" transform="translate(0 0)"><rect x="377.6" y="1612.8" width="28.8" height="48" fill="none"/></clipPath><clipPath id="clip-path-14" transform="translate(0 0)"><rect x="438.4" y="1702.4" width="35.2" height="195.2" fill="none"/></clipPath><clipPath id="clip-path-15" transform="translate(0 0)"><rect x="528" y="1612.8" width="35.2" height="48" fill="none"/></clipPath></defs><title>corona_visual_guide</title><rect width="1600" height="2560" fill="#407bff"/><g clip-path="url(#clip-path)"><g clip-path="url(#clip-path-2)"><rect y="2182.4" width="1600" height="3.2" fill="#ebebeb"/><rect x="1270.4" y="2236.8" width="169.6" height="3.2" fill="#ebebeb"/><rect x="873.6" y="2224" width="188.8" height="3.2" fill="#ebebeb"/><polygon points="1216 2220.8 1276.8 2220.8 1276.8 2220.8 1216 2220.8 1216 2220.8" fill="#ebebeb"/><polygon points="323.2 2211.2 460.8 2211.2 460.8 2211.2 323.2 2211.2 323.2 2211.2" fill="#ebebeb"/><polygon points="256 2211.2 304 2211.2 304 2211.2 256 2211.2 256 2211.2" fill="#ebebeb"/><rect x="422.4" y="2224" width="172.8" height="3.2" fill="#ebebeb"/><g clip-path="url(#clip-path-2)"><path d="M758.4,2041.6H139.87a18.27,18.27,0,0,1-18.27-18.27V1154.27A18.27,18.27,0,0,1,139.87,1136H759.34a18.27,18.27,0,0,1,18.26,18.26v869.06a18.31,18.31,0,0,1-18.31,18.28M124.8,1156.67v867.46a17.47,17.47,0,0,0,17.47,17.47H760.14a17.46,17.46,0,0,0,17.46-17.46V1156.67a17.47,17.47,0,0,0-17.47-17.47H142.27A17.47,17.47,0,0,0,124.8,1156.67Z" transform="translate(0 0)" fill="#ebebeb"/><path d="M1449.6,2041.6H831.06a18.27,18.27,0,0,1-18.26-18.26V1154.27A18.27,18.27,0,0,1,831.07,1136h619.46a18.27,18.27,0,0,1,18.27,18.27v869.05a18.31,18.31,0,0,1-18.31,18.28M816,1156.66v867.48a17.46,17.46,0,0,0,17.46,17.46h617.87a17.47,17.47,0,0,0,17.47-17.47V1156.67a17.47,17.47,0,0,0-17.47-17.47H833.46A17.46,17.46,0,0,0,816,1156.66Z" transform="translate(0 0)" fill="#ebebeb"/><rect x="688" y="1702.4" width="48" height="467.2" fill="#f0f0f0"/><rect x="176" y="2169.6" width="550.4" height="16" fill="#f0f0f0"/><rect x="169.6" y="1702.4" width="518.4" height="467.2" fill="#f5f5f5"/><rect x="185.6" y="1945.6" width="486.4" height="83.2" fill="#f0f0f0"/><rect x="185.6" y="2054.4" width="486.4" height="83.2" fill="#f0f0f0"/><path d="M227.2,1952H628.93c2.19,0,4-1.82,4.67-4v-3.41a10.38,10.38,0,0,0-4.67-5.38H226.12c-2.2,1.38-4,3.18-2.12,5.38V1948c-1.88,2.19-.08,4,2.12,4" transform="translate(0 0)" fill="#f5f5f5"/><path d="M227.2,2060.8H628.93c2.19,0,4-1.78,4.67-4v-3.41a10.59,10.59,0,0,0-4.67-5.41H226.12c-2.2,1.42-4,3.21-2.12,5.41v3.41c-1.88,2.2-.08,4,2.12,4" transform="translate(0 0)" fill="#f5f5f5"/><rect x="185.6" y="1728" width="486.4" height="83.2" fill="#f0f0f0"/><rect x="185.6" y="1836.8" width="486.4" height="83.2" fill="#f0f0f0"/><path d="M227.2,1734.4H628.93c2.19.77,4-1,4.67-3.23v-3.41c-.68-2.2-2.48-4-4.67-6.16H226.12c-2.2,2.17-4,4-2.12,6.16v3.41c-1.88,2.2-.08,4,2.12,4" transform="translate(0 0)" fill="#f5f5f5"/><path d="M227.2,1843.2H628.93c2.19,0,4-1.85,4.67-4v-3.41a10.16,10.16,0,0,0-4.67-5.34H226.12c-2.2,1.34-4,3.14-2.12,5.34v3.41c-1.88,2.2-.08,4,2.12,4" transform="translate(0 0)" fill="#f5f5f5"/><rect x="950.4" y="1904" width="32" height="281.6" fill="#e6e6e6"/><rect x="944" y="1904" width="19.2" height="281.6" fill="#f0f0f0"/><rect x="1081.6" y="1904" width="32" height="281.6" fill="#e6e6e6"/><rect x="1075.2" y="1904" width="19.2" height="281.6" fill="#f0f0f0"/><rect x="937.6" y="1904" width="304" height="32" fill="#f0f0f0"/><path d="M1344.31,1855.56c-14.79,5.6-39,41.19-58.78,48.44h-65.39c-19.84-7.25-44-42.84-58.79-48.44,44.24-4.09,91.48-.92,91.48-.92s47.25-3.17,91.48.92" transform="translate(0 0)" fill="#f0f0f0"/><rect x="1372.8" y="1904" width="32" height="281.6" fill="#e6e6e6"/><rect x="1366.4" y="1904" width="19.2" height="281.6" fill="#f0f0f0"/><rect x="1254.4" y="1904" width="153.6" height="32" fill="#e6e6e6"/><rect x="1241.6" y="1904" width="32" height="281.6" fill="#e6e6e6"/><rect x="1235.2" y="1904" width="19.2" height="281.6" fill="#f0f0f0"/><path d="M349,1625.83c0,35.55-34.56,64.35-77.16,64.35s-77.15-28.8-77.15-64.35c0-33.25,30.21-60.61,69-64l12.45,39.81-12.7,24.41,6.91,22.6-4.51,12.51,9.37-12.48-5.5-19.59,17-27.42-2.94-39.42c37,4.76,65.25,31.42,65.25,63.58" transform="translate(0 0)" fill="#e6e6e6"/><polygon points="263.01 1654.4 224.29 1654.4 209.06 1702.4 229.49 1702.4 263.01 1654.4" fill="#e6e6e6"/><polygon points="276.55 1654.4 315.26 1654.4 330.5 1702.4 310.07 1702.4 276.55 1654.4" fill="#e6e6e6"/><polygon points="213.23 1592.78 220.78 1553.05 243.72 1576.52 213.23 1592.78" fill="#e6e6e6"/><path d="M214.4,1648.56l-25.76-3.6a7.24,7.24,0,0,1-6.24-7.17v-23.92a7.24,7.24,0,0,1,6.24-7.17l25.76-3.6Z" transform="translate(0 0)" fill="#e6e6e6"/><path d="M369,1633.85a1.67,1.67,0,0,1-.62-.12,1.61,1.61,0,0,1-.86-2.1c.54-1.28,1.66-5.07.42-7.13a3.73,3.73,0,0,0-3.09-1.59c-2.88-.31-3.81,1.18-5.09,3.2-2.43,3.82-5.16,6.57-14,1.39a1.6,1.6,0,1,1,1.62-2.76c6.87,4,7.91,2.39,9.65-.35,1.38-2.16,3.26-5.11,8.09-4.67a6.79,6.79,0,0,1,5.54,3.14c2.28,3.82,0,9.39-.22,10a1.59,1.59,0,0,1-1.47,1" transform="translate(0 0)" fill="#e6e6e6"/><rect x="294.4" y="1171.2" width="1075.2" height="323.2" fill="#e6e6e6"/><rect x="262.4" y="1171.2" width="1097.6" height="323.2" fill="#f0f0f0"/><polygon points="291.79 1494.4 1366.4 1494.4 1366.4 1516.8 278.09 1516.8 291.79 1494.4" fill="#e6e6e6"/><polygon points="239.65 1494.4 1336.78 1494.4 1330.47 1516.8 233.34 1516.8 239.65 1494.4" fill="#f0f0f0"/><rect x="304" y="1212.8" width="1014.4" height="243.2" fill="#fafafa"/><polygon points="1173.56 1456 1035.93 1212.8 904.49 1212.8 1042.13 1456 1173.56 1456" fill="#fff"/><polygon points="1014.14 1456 876.5 1212.8 825.26 1212.8 962.9 1456 1014.14 1456" fill="#fff"/><rect x="304" y="1212.8" width="6.4" height="243.2" fill="#e6e6e6"/></g><g clip-path="url(#clip-path-2)"><path d="M1421,2293.28c0,20-277.78,36.23-620.44,36.23s-620.45-16.22-620.45-36.23,277.78-36.23,620.45-36.23S1421,2273.27,1421,2293.28" transform="translate(0 0)" fill="#f5f5f5"/></g><g clip-path="url(#clip-path-2)"><path d="M1296,1830.4H658.11c-15.19,0-26.57-15.12-25.29-33.59l30.4-438.42c1.28-18.48,14.75-33.59,29.94-33.59H1330.3c15.19,0,26.57,15.11,25.29,33.59l-30.4,438.42c-1.28,18.47-14.75,33.59-29.94,33.59" transform="translate(0 0)" fill="#fff"/><g opacity="0.2"><g clip-path="url(#clip-path-7)"><path d="M672.82,1831.42h-.05a.76.76,0,0,1-.71-.81l37-505.48a.77.77,0,0,1,.81-.7.75.75,0,0,1,.71.81l-37,505.48a.76.76,0,0,1-.76.71" transform="translate(0 0)" fill="#407bff"/><path d="M713.2,1831.42h-.05a.76.76,0,0,1-.71-.81l37-505.48a.77.77,0,0,1,.82-.7.74.74,0,0,1,.7.81l-37,505.48a.77.77,0,0,1-.77.71" transform="translate(0 0)" fill="#407bff"/><path d="M753.59,1831.42h-.06a.76.76,0,0,1-.71-.81l37-505.48a.77.77,0,0,1,.82-.7.74.74,0,0,1,.7.81l-37,505.48a.77.77,0,0,1-.76.71" transform="translate(0 0)" fill="#407bff"/><path d="M794,1831.42h-.06a.75.75,0,0,1-.7-.81l37-505.48a.78.78,0,0,1,.82-.7.76.76,0,0,1,.71.81l-37,505.48a.77.77,0,0,1-.76.71" transform="translate(0 0)" fill="#407bff"/><path d="M834.35,1831.42h-.06a.75.75,0,0,1-.7-.81l37-505.48a.78.78,0,0,1,.82-.7.76.76,0,0,1,.71.81l-37,505.48a.76.76,0,0,1-.76.71" transform="translate(0 0)" fill="#407bff"/><path d="M874.73,1831.42h-.06a.75.75,0,0,1-.7-.81l37-505.48a.76.76,0,0,1,1.52.11l-37,505.48a.76.76,0,0,1-.76.71" transform="translate(0 0)" fill="#407bff"/><path d="M915.11,1831.42h-.06a.76.76,0,0,1-.7-.81l37-505.48a.77.77,0,0,1,.81-.7.75.75,0,0,1,.71.81l-37,505.48a.76.76,0,0,1-.76.71" transform="translate(0 0)" fill="#407bff"/><path d="M955.49,1831.42h0a.76.76,0,0,1-.71-.81l37-505.48a.77.77,0,0,1,.82-.7.75.75,0,0,1,.7.81l-37,505.48a.77.77,0,0,1-.77.71" transform="translate(0 0)" fill="#407bff"/><path d="M995.88,1831.42h-.06a.76.76,0,0,1-.71-.81l37-505.48a.77.77,0,0,1,.82-.7.74.74,0,0,1,.7.81l-37,505.48a.77.77,0,0,1-.76.71" transform="translate(0 0)" fill="#407bff"/><path d="M1036.26,1831.42h-.06a.75.75,0,0,1-.7-.81l37-505.48a.78.78,0,0,1,.82-.7.76.76,0,0,1,.71.81l-37,505.48a.77.77,0,0,1-.76.71" transform="translate(0 0)" fill="#407bff"/><path d="M1076.64,1831.42h-.06a.75.75,0,0,1-.7-.81l37-505.48a.78.78,0,0,1,.82-.7.76.76,0,0,1,.71.81l-37,505.48a.76.76,0,0,1-.76.71" transform="translate(0 0)" fill="#407bff"/><path d="M1117,1831.42H1117a.75.75,0,0,1-.7-.81l37-505.48a.78.78,0,0,1,.82-.7.76.76,0,0,1,.71.81l-37,505.48a.76.76,0,0,1-.76.71" transform="translate(0 0)" fill="#407bff"/><path d="M1157.4,1831.42h-.06a.75.75,0,0,1-.7-.81l37-505.48a.77.77,0,0,1,.81-.7.75.75,0,0,1,.71.81l-37,505.48a.76.76,0,0,1-.76.71" transform="translate(0 0)" fill="#407bff"/><path d="M1197.78,1831.42h0a.76.76,0,0,1-.71-.81l37-505.48a.77.77,0,0,1,.81-.7.75.75,0,0,1,.71.81l-37,505.48a.76.76,0,0,1-.76.71" transform="translate(0 0)" fill="#407bff"/><path d="M1238.16,1831.42h-.05a.76.76,0,0,1-.71-.81l37-505.48a.77.77,0,0,1,.82-.7.75.75,0,0,1,.7.81l-37,505.48a.77.77,0,0,1-.77.71" transform="translate(0 0)" fill="#407bff"/><path d="M1278.55,1831.42h-.06a.76.76,0,0,1-.71-.81l37-505.48a.78.78,0,0,1,.82-.7.74.74,0,0,1,.7.81l-37,505.48a.77.77,0,0,1-.76.71" transform="translate(0 0)" fill="#407bff"/></g></g><path d="M1241.6,1315.2h-19.2V1312h19.2Zm-35.2,0h-64V1312h64Z" transform="translate(0 0)" fill="#407bff"/><path d="M1299.2,1833.6H656.86c-15.87,0-27.7-15.71-26.36-35l30.42-438.76c1.34-19.31,15.34-35,31.21-35h643.43c15.87,0,27.69,15.71,26.35,35l-30.42,438.76c-1.33,19.31-15.33,35-31.21,35M693.3,1328c-14.58,0-27.44,14.43-28.67,32.17l-30.37,438.06c-1.23,17.74,9.63,32.17,24.21,32.17h636.64c14.57,0,27.44-14.43,28.67-32.17l30.37-438.06c1.23-17.74-9.63-32.17-24.21-32.17Z" transform="translate(0 0)" fill="#407bff"/><path d="M875.44,1696.93a20,20,0,0,1-16-8.36L659.06,1422.4l4.62-66.53,3.42-11.06,213.13,283.13L1023,1467.81c4.77-5.36,11-8.37,17.19-8.37a20,20,0,0,1,16,8.37l135.74,180.34-36,40.42-120.54-160.14L892.63,1688.57c-4.77,5.36-11,8.36-17.19,8.36" transform="translate(0 0)" fill="#407bff"/><polygon points="1214.49 1590.22 1239.4 1755.35 1106.73 1711.11 1214.49 1590.22" fill="#407bff"/></g><g clip-path="url(#clip-path-2)"><path d="M409.24,1423l-21.56,42.79c-3.64,7.09-7.13,14.22-10.59,21.28s-6.77,14.19-9.54,20.82c-.69,1.63-1.34,3.28-1.83,4.65s-.86,2.92-.86,2.23c-.05-1.3-.07.14-.06.76l0,2.23.28,5a220.89,220.89,0,0,0,3.36,22.06c2.94,15.16,6.85,30.79,10.36,46.28l-17.91,7.49A286,286,0,0,1,339,1553.3a179.58,179.58,0,0,1-7.67-25.19c-.45-2.35-.91-4.63-1.26-7.06l-.41-3.82a25.42,25.42,0,0,1-.15-5.31,51.84,51.84,0,0,1,1.75-9.6c.65-2.51,1.34-4.69,2-6.85,2.8-8.57,6-16.25,9.15-24s6.62-15.2,10-22.68c7-14.92,14.21-29.46,22-44Z" transform="translate(0 0)" fill="#b65b52"/><path d="M377,1587.68l8.47,20.15-29.56,2.74s-5.6-16.26,2.66-25.65Z" transform="translate(0 0)" fill="#b55b52"/><path d="M381.93,1627l-9.66,2.5a8.15,8.15,0,0,1-9.41-4.38l-6.94-14.51,29.56-2.74,2.32,9.24a8.17,8.17,0,0,1-5.87,9.89" transform="translate(0 0)" fill="#b55b52"/><path d="M512.7,1307.86c-.58,2,0,4,1.31,4.34s2.83-.9,3.41-2.91,0-4-1.31-4.34-2.83.91-3.41,2.91" transform="translate(0 0)" fill="#263238"/><path d="M512.52,1311.76s1.18,12.94,4.56,20c-4.49,2.24-10.05-1.1-10.05-1.1Z" transform="translate(0 0)" fill="#a02724"/><path d="M522.38,1296.27a1.28,1.28,0,0,1,.27.86,1.21,1.21,0,0,1-1.28,1.16,12.07,12.07,0,0,1-9.7-5.49,1.25,1.25,0,0,1,.44-1.69,1.22,1.22,0,0,1,1.66.45,9.7,9.7,0,0,0,7.74,4.27,1.23,1.23,0,0,1,.87.44" transform="translate(0 0)" fill="#263238"/><path d="M443.44,1330.76c2.57,17.29,2.53,37.21-8.35,47.71,0,0,5.42,19.19,40.57,19.19,38.65,0,18.37-16.83,18.37-16.83-16.12-5-16.22-23.29-12.74-38l-30.63-17.08a4.89,4.89,0,0,0-7.22,5" transform="translate(0 0)" fill="#b55b52"/><path d="M424.76,1391.81c-3.42-8.16-6.59-18.23.19-20.34s22.71,4.54,39.52,1.1,32.92-3.1,38.25,5.11,4,14.32,4,14.32Z" transform="translate(0 0)" fill="#407bff"/><path d="M522.39,2268.19c3.32,0,6.52-.46,7.57-2a2.32,2.32,0,0,0-.08-2.68,3.13,3.13,0,0,0-2-1.43c-4.32-1.17-13.29,4-13.67,4.2a.6.6,0,0,0-.29.63.62.62,0,0,0,.49.5,45.31,45.31,0,0,0,7.94.73m4-5a4.77,4.77,0,0,1,1.18.14,1.89,1.89,0,0,1,1.21.86c.45.76.29,1.14.14,1.35-1.18,1.67-7.72,1.71-12.53,1,2.38-1.23,7-3.38,10-3.38" transform="translate(0 0)" fill="#407bff"/><path d="M514.57,2267.47a.53.53,0,0,0,.25,0c3.1-1.4,9.21-7,8.7-9.92-.12-.69-.61-1.54-2.3-1.71a4.41,4.41,0,0,0-3.38,1.05c-3.25,2.7-3.86,9.67-3.89,10a.62.62,0,0,0,.26.55.6.6,0,0,0,.36.12m6.18-10.48.36,0c1.11.11,1.18.55,1.21.69.3,1.75-3.84,6.15-7,8.06.31-2,1.17-6.2,3.31-8a3.19,3.19,0,0,1,2.12-.8" transform="translate(0 0)" fill="#407bff"/><polygon points="485.43 2268.8 511.69 2268.8 514.5 2208 488.24 2208 485.43 2268.8" fill="#b55b52"/><path d="M512,2262.4H483.54a2.24,2.24,0,0,0-2.18,1.77l-4.81,23a3.82,3.82,0,0,0,3.81,4.6c10.18-.18,24.87-.77,37.66-.77,15,0,17.91.82,35.47.82,10.61,0,13.42-10.74,9-11.71-20.29-4.42-26.81-4.9-44.43-15.67a12,12,0,0,0-6.25-2" transform="translate(0 0)" fill="#263238"/><path d="M399.54,1382.52c-38.74,8.29-53.28,69.9-53.28,69.9l43.95,36.42s22.09-16.84,29.65-47.79c7.91-32.43,4.47-63.82-20.32-58.53" transform="translate(0 0)" fill="#263238"/><g opacity="0.2"><g clip-path="url(#clip-path-9)"><path d="M410.22,1429.82c-13,13-21.44,36.74-22.19,57.37l2.17,1.65s22.11-16.86,29.67-47.79c.47-1.94.86-3.88,1.19-5.78Z" transform="translate(0 0)"/></g></g><path d="M542.34,1410.69c5.64,27.93,9.69,85.3-4.2,198.91H399.84c-1.18-20.4,9.87-116.84-8.58-213.11a11.78,11.78,0,0,1,9.72-13.84,330.61,330.61,0,0,1,34.11-3.72c17.66-.85,43.24-1.42,58.79,0,6.49.6,12.87,1.53,18.56,2.53a37.15,37.15,0,0,1,29.9,29.23" transform="translate(0 0)" fill="#263238"/><g opacity="0.2"><g clip-path="url(#clip-path-10)"><path d="M520,1466.81l9.16-11.68c18,5.82,18.93,23.29,17.93,48.52-15.39-3.88-23.62-19.48-27.09-36.84" transform="translate(0 0)"/></g></g><g opacity="0.2"><g clip-path="url(#clip-path-11)"><polygon points="514.77 2208 513.3 2240 486.48 2240 487.95 2208 514.77 2208"/></g></g><path d="M447.41,1283.41c-5.64,25.07-10.2,39.44-1.49,55.83,13.1,24.66,46.61,22.57,59.57-.23,11.68-20.51,18.92-58.07-2.22-75.15-20.82-16.82-50.23-5.53-55.86,19.55" transform="translate(0 0)" fill="#b55b52"/><path d="M463.45,1348.49c-27.83.41-35.51-20.19-33.11-39.91s-16.32-30.23-7.53-48.09c6.15-12.51,15.62-13,23.1-10.41,3.44-14.73,27-27.4,43.16-15s36.56,23.31,41.75,16.41,14.39,27.44-22,40.79c2.72,4,3.58,10.57.59,17.35-.79,1.8-8.83,3.5-9.74,5.35-7.89,16.15-20,33.28-36.18,33.52" transform="translate(0 0)" fill="#263238"/><path d="M445.07,1227.42c-8.05,23.88,4.19,31.32,4.19,31.32Z" transform="translate(0 0)" fill="#263238"/><path d="M485.47,1306.59a29.27,29.27,0,0,0,3.87,18.27c4.35,7.23,10.86,4.64,13.28-2.57,2.18-6.49,2.53-18.07-3.58-22.83s-12.56-.49-13.57,7.13" transform="translate(0 0)" fill="#b55b52"/><polygon points="310.05 2257.87 334.83 2264.05 351.16 2205.63 326.38 2199.46 310.05 2257.87" fill="#b55b52"/><path d="M346.77,2265.29c3.26.58,6.43.67,7.52-.65.39-.46.7-1.31,0-2.71a3.73,3.73,0,0,0-1.88-1.79c-4.21-1.93-13.22,1.71-13.61,1.87a.54.54,0,0,0-.31.59.79.79,0,0,0,.47.59,47.75,47.75,0,0,0,7.8,2.1m4.15-4.36a5.62,5.62,0,0,1,1.16.35,2.3,2.3,0,0,1,1.16,1.07c.41.85.25,1.2.09,1.4-1.22,1.48-7.66.38-12.38-1.14,2.39-.82,7-2.2,10-1.68" transform="translate(0 0)" fill="#407bff"/><path d="M339.09,2263.22a.53.53,0,0,0,.25,0c3.1-.88,9.32-5.46,8.92-8.5-.1-.71-.56-1.66-2.21-2.13a4,4,0,0,0-3.37.48c-3.3,2.16-4.14,9.08-4.18,9.38a.75.75,0,0,0,.24.6.66.66,0,0,0,.35.18m6.45-9.51.36.08c1.08.31,1.14.76,1.16.91.24,1.82-4,5.54-7.18,6.92.38-2,1.38-6,3.54-7.47a2.85,2.85,0,0,1,2.12-.44" transform="translate(0 0)" fill="#407bff"/><path d="M336.29,2259.06l-27.81-4.89a2,2,0,0,0-2.31,1.39l-6.9,22.12a4.19,4.19,0,0,0,3.3,5.25c10,1.59,24.58,3.55,37.19,5.77,14.75,2.59,3.95,1.52,21.24,4.56,10.46,1.84,14.23-8.39,9.93-10.13-19.56-7.94-21.28-12.18-28.67-21a9.93,9.93,0,0,0-6-3.1" transform="translate(0 0)" fill="#263238"/><g opacity="0.2"><g clip-path="url(#clip-path-12)"><polygon points="351.15 2205.65 342.74 2235.76 317.95 2229.58 326.36 2199.47 351.15 2205.65"/></g></g><path d="M405.61,1612.86c-5.18,2.3-22.64,2.11-27.82,6.9s15.16,25.53,19.76,41.46c4.42-24.57,8.06-48.36,8.06-48.36" transform="translate(0 0)" fill="#407bff"/><g opacity="0.6"><g clip-path="url(#clip-path-13)"><path d="M405.61,1612.86c-5.18,2.3-22.64,2.11-27.82,6.9s15.16,25.53,19.76,41.46c4.42-24.57,8.06-48.36,8.06-48.36" transform="translate(0 0)" fill="#fff"/></g></g><path d="M489.08,1609.6s-32.5,207.71-49,281.43c-18.08,80.74-84.55,333.27-84.55,333.27l-44.9-11.37S347.05,2010,362.46,1897c11.84-86.84,37.38-287.38,37.38-287.38Z" transform="translate(0 0)" fill="#407bff"/><path d="M365.37,2214.59c.2,0-6.74,17-6.74,17L305.13,2218l2.36-16.13Z" transform="translate(0 0)" fill="#263238"/><g opacity="0.3"><g clip-path="url(#clip-path-14)"><path d="M463.71,1701.2c-32.55,4.32-25.57,128.12-25,195.42.14-.72.31-1.45.48-2.14.28-1.35.59-2.66.87-3.91,9.15-40.87,23.21-122.88,33.92-187.89a87.28,87.28,0,0,0-10.29-1.48" transform="translate(0 0)"/></g></g><path d="M538.23,1609.6s-.85,193.72-2.66,272.73c-1.88,82.18-13.09,351.27-13.09,351.27H478.59s-14.38-264.29-17.37-345c-3.25-88-14.08-279-14.08-279Z" transform="translate(0 0)" fill="#407bff"/><path d="M528.75,1612.4c5,2.62,30.32,1.27,35.2,6.38s-24.57,26.77-30.16,42.39c-2.88-24.79-5-48.77-5-48.77" transform="translate(0 0)" fill="#407bff"/><g opacity="0.6"><g clip-path="url(#clip-path-15)"><path d="M528.75,1612.4c5,2.62,30.32,1.27,35.2,6.38s-24.57,26.77-30.16,42.39c-2.88-24.79-5-48.77-5-48.77" transform="translate(0 0)" fill="#fff"/></g></g><path d="M530.63,2215.41c.2,0-2.24,18.19-2.24,18.19H475.11l-1.66-16.23Z" transform="translate(0 0)" fill="#263238"/><path d="M538.56,1403.52c6.63,8.2,13,16.62,19.17,25.24s12.13,17.47,17.73,26.66A321.75,321.75,0,0,1,591.19,1484a190.47,190.47,0,0,1,12.27,31.79l1,3.68-.27,2.59a145.45,145.45,0,0,1-4.6,22.71c-1.93,7.16-4.37,14-6.86,20.69s-5.34,13.25-8.33,19.7-6.12,12.71-9.77,19l-18.09-7,4.05-19.91c1.35-6.62,2.7-13.22,3.86-19.78s2.3-13,3.11-19.39a151.34,151.34,0,0,0,1.42-18.14l.75,6.27A181.54,181.54,0,0,0,558,1501.11c-4.64-8.35-9.85-16.63-15.26-24.86s-11.2-16.33-17.07-24.41-12-16.06-18-24.17Z" transform="translate(0 0)" fill="#b65b52"/><path d="M484.34,1412.62c-.25,37.27,39.69,74.61,39.69,74.61l50.9-42.86s-7.68-28.14-34.49-49.67c-34.9-28-55.91-9.23-56.1,17.92" transform="translate(0 0)" fill="#263238"/><path d="M562.35,1436.64c.17,2.34-1.36,4.24-3.41,4.24a4.35,4.35,0,0,1-4-4.24c-.17-2.35,1.36-4.25,3.41-4.25a4.35,4.35,0,0,1,4,4.25" transform="translate(0 0)" fill="#fff"/><path d="M526.42,1420.12c.16,2.34-1.37,4.24-3.42,4.24a4.36,4.36,0,0,1-4-4.24c-.16-2.35,1.37-4.25,3.42-4.25a4.37,4.37,0,0,1,4,4.25" transform="translate(0 0)" fill="#fff"/><path d="M529.36,1462.4c.17,2.34-1.36,4.25-3.41,4.25a4.37,4.37,0,0,1-4-4.25c-.17-2.34,1.36-4.24,3.41-4.24a4.35,4.35,0,0,1,4,4.24" transform="translate(0 0)" fill="#fff"/><path d="M532.31,1504.68c.16,2.35-1.37,4.25-3.42,4.25a4.37,4.37,0,0,1-4-4.25c-.16-2.34,1.37-4.24,3.42-4.24a4.36,4.36,0,0,1,4,4.24" transform="translate(0 0)" fill="#fff"/><path d="M535.26,1547c.16,2.34-1.37,4.24-3.42,4.24a4.36,4.36,0,0,1-4-4.24c-.16-2.34,1.36-4.25,3.42-4.25a4.38,4.38,0,0,1,4,4.25" transform="translate(0 0)" fill="#fff"/><path d="M528.75,1589.12c.16,2.34-1.37,4.24-3.42,4.24a4.36,4.36,0,0,1-4-4.24c-.16-2.34,1.37-4.25,3.42-4.25a4.38,4.38,0,0,1,4,4.25" transform="translate(0 0)" fill="#fff"/><path d="M487.48,1391.93c.16,2.34-1.37,4.24-3.42,4.24a4.36,4.36,0,0,1-4-4.24c-.16-2.35,1.37-4.25,3.42-4.25a4.37,4.37,0,0,1,4,4.25" transform="translate(0 0)" fill="#fff"/><path d="M490.42,1434.21c.17,2.34-1.36,4.25-3.41,4.25a4.36,4.36,0,0,1-4-4.25c-.17-2.34,1.36-4.24,3.41-4.24a4.36,4.36,0,0,1,4,4.24" transform="translate(0 0)" fill="#fff"/><path d="M493.37,1476.5c.16,2.34-1.37,4.24-3.42,4.24a4.36,4.36,0,0,1-4-4.24c-.16-2.35,1.37-4.25,3.42-4.25a4.36,4.36,0,0,1,4,4.25" transform="translate(0 0)" fill="#fff"/><path d="M496.31,1518.78c.17,2.34-1.36,4.24-3.41,4.24a4.36,4.36,0,0,1-4-4.24c-.17-2.35,1.36-4.25,3.42-4.25a4.35,4.35,0,0,1,4,4.25" transform="translate(0 0)" fill="#fff"/><path d="M499.26,1561.06c.16,2.35-1.37,4.25-3.42,4.25a4.37,4.37,0,0,1-4-4.25c-.16-2.34,1.37-4.24,3.42-4.24a4.36,4.36,0,0,1,4,4.24" transform="translate(0 0)" fill="#fff"/><path d="M464.25,1589.25a4.37,4.37,0,0,0-4-4.24c-2.05,0-3.58,1.9-3.42,4.24a4.37,4.37,0,0,0,4,4.25c2.05,0,3.58-1.91,3.42-4.25" transform="translate(0 0)" fill="#fff"/><path d="M461.3,1547a4.37,4.37,0,0,0-4-4.25c-2.05,0-3.58,1.91-3.42,4.25a4.37,4.37,0,0,0,4,4.24c2.06,0,3.58-1.9,3.42-4.24" transform="translate(0 0)" fill="#fff"/><path d="M458.36,1504.68a4.37,4.37,0,0,0-4-4.24c-2.05,0-3.58,1.9-3.42,4.24a4.36,4.36,0,0,0,4,4.25c2.05,0,3.58-1.9,3.42-4.25" transform="translate(0 0)" fill="#fff"/><path d="M455.41,1462.4a4.36,4.36,0,0,0-4-4.24c-2,0-3.58,1.9-3.42,4.24a4.38,4.38,0,0,0,4,4.25c2.05,0,3.58-1.91,3.42-4.25" transform="translate(0 0)" fill="#fff"/><path d="M452.46,1420.12a4.35,4.35,0,0,0-4-4.25c-2.05,0-3.58,1.9-3.41,4.25a4.36,4.36,0,0,0,4,4.24c2.05,0,3.58-1.9,3.41-4.24" transform="translate(0 0)" fill="#fff"/><path d="M425.31,1561.06a4.37,4.37,0,0,0-4-4.24c-2.05,0-3.58,1.9-3.42,4.24a4.36,4.36,0,0,0,4,4.25c2.05,0,3.58-1.9,3.42-4.25" transform="translate(0 0)" fill="#fff"/><path d="M422.36,1518.78a4.36,4.36,0,0,0-4-4.25c-2.05,0-3.58,1.9-3.42,4.25a4.37,4.37,0,0,0,4,4.24c2.05,0,3.58-1.9,3.42-4.24" transform="translate(0 0)" fill="#fff"/><path d="M419.41,1476.5a4.35,4.35,0,0,0-4-4.25c-2.05,0-3.59,1.9-3.42,4.25a4.36,4.36,0,0,0,4,4.24c2.05,0,3.58-1.9,3.41-4.24" transform="translate(0 0)" fill="#fff"/><path d="M416.47,1434.21a4.36,4.36,0,0,0-4-4.24c-2,0-3.58,1.9-3.42,4.24a4.38,4.38,0,0,0,4,4.25c2.05,0,3.58-1.91,3.42-4.25" transform="translate(0 0)" fill="#fff"/><path d="M413.52,1391.93a4.35,4.35,0,0,0-4-4.25c-2,0-3.58,1.9-3.41,4.25a4.35,4.35,0,0,0,4,4.24c2.05,0,3.58-1.9,3.41-4.24" transform="translate(0 0)" fill="#fff"/><path d="M381.46,1462.4a4.37,4.37,0,0,0-4-4.24c-2.05,0-3.58,1.9-3.42,4.24a4.37,4.37,0,0,0,4,4.25c2,0,3.58-1.91,3.42-4.25" transform="translate(0 0)" fill="#fff"/><path d="M378.51,1420.12a4.36,4.36,0,0,0-4-4.25c-2.05,0-3.58,1.9-3.42,4.25a4.37,4.37,0,0,0,4,4.24c2.05,0,3.58-1.9,3.42-4.24" transform="translate(0 0)" fill="#fff"/><path d="M576.31,1589.12l-15.27.66c-13,13.69-6.11,32.11-6.11,32.11l2.07,8.39a8,8,0,0,0,9.81,5.77l13.61-3.69a8,8,0,0,0,5.85-7l.19-2.38a43.68,43.68,0,0,0-4.89-23.84Z" transform="translate(0 0)" fill="#b55b52"/></g></g></g><text transform="translate(174.98 326.93)" font-size="170" fill="#fff" font-family="Redwing-Medium, Redwing" font-weight="500">Co<tspan x="163.71" y="0" letter-spacing="-0.01em">r</tspan><tspan x="214.03" y="0">o</tspan><tspan x="289.34" y="0" letter-spacing="-0.01em">n</tspan><tspan x="362.95" y="0" letter-spacing="-0.01em">a</tspan><tspan x="437.07" y="0">virus: A </tspan><tspan x="0" y="204">Visu</tspan><tspan x="283.73" y="204" letter-spacing="-0.01em">a</tspan><tspan x="358.53" y="204">l Gui</tspan><tspan x="634.6" y="204" letter-spacing="-0.01em">d</tspan><tspan x="708.72" y="204">e </tspan><tspan x="814.29" y="204" letter-spacing="-0.01em">t</tspan><tspan x="868.86" y="204">o t</tspan><tspan x="1031.03" y="204" letter-spacing="-0.01em">h</tspan><tspan x="1104.64" y="204">e </tspan><tspan x="0" y="408">E</tspan><tspan x="78.37" y="408" letter-spacing="-0.01em">c</tspan><tspan x="150.45" y="408">o</tspan><tspan x="225.76" y="408" letter-spacing="-0.01em">n</tspan><tspan x="299.37" y="408">omic Im</tspan><tspan x="791" y="408" letter-spacing="-0.01em">pa</tspan><tspan x="937.54" y="408">ct</tspan></text></svg>