<svg id="Layer_1" data-name="Layer 1" xmlns="http://www.w3.org/2000/svg" xmlns:xlink="http://www.w3.org/1999/xlink" viewBox="0 0 1600 2557"><defs><clipPath id="clip-path"><rect x="3" y="957" width="1600" height="1600" fill="none"/></clipPath></defs><title>different_types_of_intelligence</title><g clip-path="url(#clip-path)"><rect y="957" width="1600" height="1600" fill="#fcc60f"/><g clip-path="url(#clip-path)"><path d="M1175.79,1674a194.4,194.4,0,0,0,3.79-25.58c3.66-44.75-8.07-83.34-31.86-107.37a135.39,135.39,0,0,0-.81-13.93c-3.53-31.41-17.46-60.67-38.28-81.53a128.7,128.7,0,0,0-4-33.92c-8-30.89-28-58.69-58-80.4-15.54-11.24-56.37-37.81-99.85-41.72-2.46-.22-5-.33-7.48-.33a87.42,87.42,0,0,0-32.47,6.22c-11.77-6.8-26-10.45-41.77-10.45-37.86,0-81,22.73-86.37,64.88a61.09,61.09,0,0,0,3.77,29.44c-1.69,2-3.27,4.21-4.78,6.45-1.52-2.24-3.1-4.41-4.79-6.45a61,61,0,0,0,3.77-29.45c-5.37-42.14-48.5-64.87-86.36-64.87-15.76,0-30,3.65-41.78,10.45A87.42,87.42,0,0,0,616,1289.2c-2.5,0-5,.11-7.47.33-43.48,3.91-84.32,30.48-99.85,41.72-30,21.71-50.09,49.51-58,80.39a128.83,128.83,0,0,0-4,33.93c-20.81,20.86-34.75,50.13-38.27,81.52a132.83,132.83,0,0,0-.82,14c-23.78,24-35.52,62.61-31.86,107.36A196.09,196.09,0,0,0,379.5,1674c-22.51,48.22-26.18,98.5-9.88,139.45A142.06,142.06,0,0,0,395,1854.6c-4.38,37.91,5,70.49,26.68,92.13-3,29.49,9.41,59,12.7,66.13,8,17.39,23.5,37.07,44.92,47.29a74.67,74.67,0,0,0,4.91,13c9.08,18.51,24.25,31.35,43.18,37.11,6.69,23.38,24.84,43.64,43,56.57a147.72,147.72,0,0,0,64.42,25.41c-5.05,21.78,0,46.3,7.08,63.1a68.15,68.15,0,0,0,11.65,18.83c.73,23.95,9.66,43.38,25.18,55.36a70,70,0,0,0,39.84,46.38,88.21,88.21,0,0,0,10.53,3.84,61.79,61.79,0,0,0,19.6,22.21c12.33,8.38,28.19,13,44.65,13,2.89,0,5.79-.14,8.63-.42A76.44,76.44,0,0,0,862,2375a83.52,83.52,0,0,0,23.32-12.33c21-15.91,32.28-40.44,30.87-65.38A67.63,67.63,0,0,0,926,2265a64.89,64.89,0,0,0-2.46-20.73c9.24-16.5,11.25-36.06,5.14-53.43a146.92,146.92,0,0,0,56.21-24c18.19-12.93,36.34-33.19,43-56.57,18.93-5.76,34.1-18.6,43.18-37.11a73.58,73.58,0,0,0,4.91-13c21.42-10.22,36.94-29.9,44.93-47.29,3.28-7.15,15.74-36.64,12.69-66.13,21.69-21.64,31.06-54.22,26.68-92.12a142.25,142.25,0,0,0,25.39-41.18c16.3-40.93,12.63-91.19-9.88-139.45" fill="#fff"/><path d="M730.55,2072.35a51.24,51.24,0,0,1-38.25,4.45c-27.31-7.5-50-40.53-36.16-68.28,5.46-11,18.58-20,31-14.68,9.52,4.08,13.5,13.9,9.49,23.16-1.48,3.42-7.43,1.73-7.08-1.92q2.38-11.49-13.26-12.15a14.7,14.7,0,0,0-9.9,9.24c-4,6.79-4.36,14.38-2.53,22a44.6,44.6,0,0,0,17,25c17.41,12.7,41.43,9.91,56.43-5.24,16.94-17.11,14.13-44.95,10.77-66.65-3.06-19.7-9.24-37.61-21.21-53.7,0-.06,0-.12-.08-.18-17.64,7-38.57,7.15-54.22-3.23a45.3,45.3,0,0,1-25.87,15.83c-19.6,4-50.92-15.05-37.14-37.58,1.4-2.29,5.66-2.2,6.17.8,1.92,11.26,4.74,22.86,17.71,26,12.55,3,25.51-4.32,32.63-14.25,12.27-17.08,8.36-39.07-6.52-53.08-15.88-15-38.81-17-59-10.81-16.52,5-28.88,14.91-41.19,26,2.33,20.48-11.44,42.34-29.19,52.24-17.35,9.67-41.75,10.34-61.86,3.34-10.61,14-.21,46.56,6.71,59.77,8.12,15.52,20.1,22.55,35,28.7,2.55-10,8.34-19,17.47-24.23,15.27-8.7,38.25,1.4,33,20.83-1.16,4.31-7.29,3.16-7.51-1-1.18-22.51-23.49-11-29.27-1.26a35.37,35.37,0,0,0-3.73,25.32c3.64,16.31,17.23,23.51,33.14,23.55,25.63.07,43.72-15.32,57.16-35.53,2.13-3.22,7.48-1.24,6.37,2.69-5.69,20-27.28,36.74-49.83,42.31a4.23,4.23,0,0,1,.18.7c1.27,14.45,2.79,25.36,12.39,36.92a85.9,85.9,0,0,0,22.17,18.49,107.8,107.8,0,0,0,57.51,14.79c37.22-.83,100.2-33.33,71.45-78.21" fill="#fcc60f"/><path d="M543.56,1906.14a42.58,42.58,0,0,0,4.62-17.12,3.19,3.19,0,0,1-.79-4.27c.2-.35.44-.68.66-1-.64-6.1-3-11.87-7.67-16.16-11.14-10.21-22.46-3.85-30.15,5.9-1.82,2.32-6.1.39-5.87-2.44,2.13-26.12,36.91-22.15,48.51-5.39a38.13,38.13,0,0,1,3.77,6.85c34.21-36.34,109.42-43.94,125.74,12.93,3.8,13.25,1.3,27.4-5.61,38.79,32.79,8.31,69.77-1,78.29-38.71,4-17.68-.13-38.5-13.42-51.46-7.63-7.45-20.26-10.7-30.71-9.17a15.94,15.94,0,0,0-13.79,16.37c.12,9.9,13.48,11,20,11.09,3.86.07,4.4,5.37.89,6.54-21.68,7.21-41.15-20.24-24.32-36.5-15.65-2.77-29.4-13.18-33-30.34-4.48-21.29,13.86-41.94,35.42-37.6,4.48.9,3.16,7.49-1,7.64-30,1-30.48,39.08-4.86,48.26,20.75,7.43,41.67-7.32,51.62-24.65,20.95-36.47,6.67-73-8.11-108.14-26.67,23.87-67,33.42-90.42,5.69-8.09,10.35-20.39,16.87-34.09,19.57-11.73,2.3-23.84,2.07-35.72,1.62-11.26-.43-23.36-.17-34.43-2.74-.38,1.49-.8,3-1.31,4.39-5.19,14.52-16.28,25.07-29.56,30.91-3.68,34.9,8,72.74,46.7,81.79,18,4.2,40.39.3,51.23-16.19,6.35-9.64,7.5-23.28-1.14-31.79-9-8.88-18.46-4.86-28.06.36-2.18,1.18-5.6-.84-4.56-3.51,8.35-21.55,38.79-11.33,46.45,5.36,11.07,24.11-7.72,47.52-30.23,55-53.49,17.76-98.24-38.45-88.41-88.1a59.67,59.67,0,0,1-39.27-2.25c-22.57-9.59-36.78-29.58-44.9-52.07-11.71,33.92-21.26,70.42-9.88,105.82,10.45,32.48,34.1,51.8,66.18,60.51,4.89,1.33,3.88,8.91-1.19,8.82-13-.21-25-5-35.62-12.39-1.43,19.1-2.89,38.51,6.61,56.07,10.7,19.8,31.72,26.89,53.08,27.27,19.94.36,38.78-7,48.36-25.52" fill="#fcc60f"/><path d="M500.21,1728.32c13.06-4.92,24.69-15.82,28-29.68,4.47-18.51-8.49-30.24-26.15-25.86-4.2,1-7.41-4.18-4.26-7.33,8.41-8.39,21.72-6.35,30.73.35,9.58,7.12,12.78,18.72,11.55,30,26.47-4.74,56.79,4,81.43-8.84,15.63-8.16,22-24.19,20.36-41.27-1.74-17.66-15.82-27.24-30.61-16.13-2.57,1.93-5.27-1.27-4.86-3.73,2.53-14.95,22.43-15.8,32.89-8.68,15,10.25,16.32,32.44,12.42,48.56a45.82,45.82,0,0,1-5,12.35c32.68,22.76,75.43,6.26,95-26.91,9.17-15.53,11.48-38-2.3-51.86-5.95-6-14.14-8.89-22.42-9.17a46,46,0,0,1-13,1.66c-3.93,1.15-7.25,3.09-9.12,7.4-2.47,5.65-.19,17.08,8.23,14.64,3.69-1.07,5.69,4.12,2.55,6-18.17,11.19-25.92-16.36-15.63-30a90.92,90.92,0,0,1-15.59-5.65c-18.09-8.33-21.27-21.51-18.44-40.24.47-3.17,5.7-2.37,5.52.75-.47,8.46-1.38,17.69,5.3,24.39,4.92,4.93,12.75,7.12,19.24,9.12a59.16,59.16,0,0,0,18.76,3.08,41.72,41.72,0,0,1,9.28-1.37,36.41,36.41,0,0,0,9.81-4.49,46.71,46.71,0,0,0,20.45-31.86c1.45-8.59.83-40.28-10.34-46.07-15.5,5.35-33.7,0-48.79-6.92-33.2-15.23-65.71-25.67-95.12,2.44a95.47,95.47,0,0,1,4.23,11.73,93.7,93.7,0,0,1-15.19,81.92c-16.38,21.42-45.82,36.82-72.24,24.23-20.5-9.77-34.15-44.49-10.25-58.66,3-1.77,6.33,1.73,4.68,4.68-6.69,11.87-10.45,24.71-.17,36.35,6.71,7.61,17.62,11.16,27.57,10.85,20.62-.64,38.18-16.75,47.7-33.91a84.26,84.26,0,0,0,8.61-56.6c-1.78-8.88-4.89-18.61-10.52-25.82-10.42-13.34-25.62-7.25-39-2.74-2.61.88-3.67-2.74-1.74-4.12,11.13-8,25.17-15.16,38.82-8.41,6,3,10.58,8.06,14.07,13.92,19.46-38.26,72.12-20.37,102-6.7,12,5.48,25.67,11.41,39.13,7.86,15.32-4,21.33-19.39,22.74-33.7,2.42-24.44-4.93-52.61-30.13-61.12a37.82,37.82,0,0,1-6.45,2.78c-25,7.88-50.51,3.09-73.21,18.62-3.16,2.16-5.82-1.89-4.65-4.65,12.37-29.29,59-14,81-27.67,10.35-6.48,20-20.61,14.1-32.49-4.57-9.15-15.88-15.66-25.33-18.76-19.66-6.45-33.64.33-49.83,10.24a29.28,29.28,0,0,1,3.83,17.42c-.33,4.09-6.71,5.55-7.59,1-11.32-57.89-99.59-9.54-125.6,11.51-17.12,13.86-30.64,31.87-35.7,53.58-5.31,22.79.42,41.77,11.76,61.51,2.24,3.91-2.8,7.35-6,4.61-7.19-6.23-11.95-14.35-14.81-23.29-17.56,18.38-30.77,39.19-32.93,65.64a98.45,98.45,0,0,0,5.66,41.66c5,13.72,13.69,24.1,21.17,36.33,2,3.21-2.19,8-5.48,5.47-15.62-11.84-25-31.79-28.85-52.25-34.05,33.51-31.71,95.91-8.19,134.92,13.63,22.58,40.06,39.41,66.76,29.36" fill="#fcc60f"/><path d="M740,2250.21c39-4.05,78.64-9.65,117.94-11.42a4,4,0,0,1,3.81-1.07c26.25,5.74,43.36-38.25,15-45.15-9.84-2.4-21.18-1.28-31.18-1.48l-30.84-.59q-32-.64-64-1.37c-19.78-.43-41.1-3.19-60.74-.75-23.31,2.89-17.05,37.66-9.57,53.09,10.14,20.92,41.24,10.65,59.63,8.74" fill="#a3a8af"/><path d="M859.59,2245.59a4,4,0,0,1-1.85-1.09c-23.37,3.84-47.24,5.82-70.69,8.6-27.23,3.21-54.49,6.77-81.8,9.23a40.63,40.63,0,0,1-13.65-.84c.56,8.26,1,16.74,4,24.53,5,12.86,15.48,15.63,28.14,15.31,19.86-.51,39.83-2.63,59.59-4.64q32-3.27,63.83-8.25c9.84-1.55,24-1.73,31.32-9.57,9.89-10.55,6.08-23.64-.72-34.29a27.73,27.73,0,0,1-18.21,1" fill="#a3a8af"/><path d="M838.11,2299.32q-21.5,3.15-43.09,5.54-24.43,2.7-49,4.33c-10,.66-21.31,2.43-31.64,1.06,3.05,40.69,58.25,31.49,86.94,30.53,9.86-.33,20.25-.11,30.32-1.27a4.2,4.2,0,0,1,2.72-.35,67.34,67.34,0,0,0,17.31-4.64c16.08-6.95,26.86-24,22.46-41.59-11,4.47-24.86,4.75-36,6.39" fill="#a3a8af"/><path d="M758.8,2352.05a59.5,59.5,0,0,1,4.51,6.58c6.13,9.41,15.27,13.74,26.29,14.68,18.07,1.54,32.52-8.2,38.24-24.11-8.14.6-16.35.61-24.13.86-13.85.43-29.75,2.56-44.91,2" fill="#fcc60f"/><path d="M734.2,2129.77c14.68-17.07,19.27-44.24,2.61-61.34a58.93,58.93,0,0,0,23.36-37.57c5.55-32.48-3.61-76.34-27.67-100.09a64.07,64.07,0,0,0,13.46-9c21.58-19,27.26-52,15.29-77.83-5.72-12.35-18.66-23.79-32.86-28.31,19.65-11.74,31.18-34.71,34.64-57,4.62-29.71-6.32-62.17-23.7-86.62,15.75-16.59,24.94-38.35,19.4-59.18A44.77,44.77,0,0,0,731.82,1583a57.89,57.89,0,0,0,23.89-42.52c1.08-13.24-1.65-36.64-12.27-47.94a37.51,37.51,0,0,0,5.23-4.5c25-26.22,17-88.91-19-101.66,9.6-8.43,16.74-20.78,15.25-32.49-4.77-37.49-73.81-51.2-92.82-18.5-9.65-10.45-26.37-15.28-40.65-14-28.73,2.59-60.86,19.06-84,35.77-21.43,15.5-39.1,36.44-45.79,62.45a92.73,92.73,0,0,0-1.62,39.44c-22.72,16.13-36.8,44.41-39.85,71.6a111.07,111.07,0,0,0,.16,24.83c-29.1,18.19-35.33,58.75-32.75,90.31a160,160,0,0,0,5.92,32.11,2.46,2.46,0,0,0-.65.79c-19.26,36.66-29.34,83.17-13.52,122.89a109.06,109.06,0,0,0,29.95,41.93c-6.38,28.93-5.5,64,18.84,84a59.74,59.74,0,0,0,10.29,6.71c-10.78,17.71-2.7,48.39,5,65.23,7.86,17.11,25.25,35,45.19,35.63a46.46,46.46,0,0,0,4.28,23.88c9.07,18.47,27,24.4,45.51,22.19-7.79,22.71,13.29,47.26,30.53,59.51,21.91,15.58,49.68,22.78,76.42,20.69,25.23-2,52-12,68.8-31.63M441.64,1564c3.86,20.46,13.23,40.41,28.85,52.25,3.29,2.49,7.44-2.26,5.47-5.47-7.47-12.23-16.13-22.61-21.16-36.33a98.61,98.61,0,0,1-5.66-41.66c2.16-26.45,15.37-47.26,32.93-65.64,2.86,8.94,7.62,17.06,14.8,23.29,3.17,2.74,8.21-.7,6-4.6-11.34-19.75-17.07-38.72-11.76-61.52,5.05-21.71,18.57-39.72,35.7-53.58,26-21,114.28-69.4,125.59-11.51.89,4.53,7.27,3.07,7.6-1a29.28,29.28,0,0,0-3.83-17.42c16.19-9.91,30.17-16.69,49.83-10.24,9.45,3.1,20.76,9.61,25.33,18.76,5.92,11.88-3.74,26-14.1,32.48-21.92,13.7-68.58-1.61-81,27.68-1.17,2.76,1.49,6.81,4.65,4.65,22.7-15.53,48.21-10.74,73.22-18.62a38.07,38.07,0,0,0,6.44-2.78c25.19,8.51,32.55,36.68,30.13,61.12-1.42,14.31-7.42,29.65-22.74,33.7-13.46,3.55-27.16-2.38-39.13-7.86-29.9-13.67-82.56-31.56-102,6.7-3.49-5.86-8-11-14.07-13.92-13.65-6.75-27.69.4-38.82,8.4-1.93,1.39-.87,5,1.74,4.13,13.34-4.51,28.54-10.6,39,2.74,5.63,7.21,8.75,16.94,10.53,25.82a84.26,84.26,0,0,1-8.61,56.6c-9.52,17.16-27.08,33.27-47.7,33.91-10,.31-20.86-3.24-27.57-10.85-10.28-11.64-6.52-24.49.16-36.35,1.66-2.94-1.69-6.45-4.67-4.68-23.9,14.16-10.25,48.89,10.25,58.66,26.42,12.59,55.85-2.81,72.24-24.23a93.71,93.71,0,0,0,15.19-81.92,95.47,95.47,0,0,0-4.23-11.73c29.41-28.11,61.93-17.67,95.12-2.44,15.08,6.92,33.29,12.27,48.79,6.92,11.17,5.79,11.78,37.48,10.34,46.07A46.71,46.71,0,0,1,724,1575.41a36.41,36.41,0,0,1-9.81,4.49,41.72,41.72,0,0,0-9.28,1.37,59.42,59.42,0,0,1-18.76-3.07c-6.5-2-14.32-4.2-19.24-9.13-6.68-6.7-5.77-15.93-5.3-24.39.18-3.12-5.05-3.92-5.53-.75-2.83,18.73.37,31.91,18.45,40.24a91.23,91.23,0,0,0,15.59,5.65c-10.29,13.68-2.54,41.23,15.63,30,3.13-1.92,1.14-7.11-2.55-6-8.43,2.44-10.7-9-8.23-14.65,1.87-4.3,5.19-6.24,9.12-7.39a46,46,0,0,0,13-1.66c8.28.28,16.46,3.18,22.42,9.17,13.78,13.85,11.47,36.33,2.3,51.86-19.61,33.17-62.36,49.67-95,26.91a46,46,0,0,0,5-12.35c3.9-16.12,2.63-38.31-12.42-48.56-10.46-7.12-30.36-6.27-32.89,8.68-.41,2.46,2.29,5.66,4.86,3.73,14.8-11.11,28.87-1.53,30.61,16.13,1.67,17.08-4.73,33.11-20.36,41.27-24.64,12.86-55,4.1-81.43,8.84,1.23-11.28-2-22.88-11.54-30-9-6.7-22.33-8.74-30.74-.35-3.15,3.15.06,8.36,4.26,7.32,17.66-4.37,30.62,7.36,26.15,25.86-3.35,13.87-15,24.77-28,29.69-26.7,10-53.13-6.78-66.76-29.36-23.52-39-25.87-101.41,8.19-134.92m.48,340.35c-9.5-17.56-8-37-6.61-56.07,10.59,7.4,22.65,12.18,35.62,12.39,5.07.09,6.08-7.49,1.19-8.82-32.08-8.72-55.73-28-66.18-60.51-11.38-35.4-1.82-71.9,9.88-105.82,8.12,22.49,22.33,42.48,44.9,52.07a59.67,59.67,0,0,0,39.27,2.25c-9.83,49.65,34.93,105.86,88.41,88.1,22.51-7.47,41.3-30.88,30.23-55-7.66-16.69-38.1-26.91-46.45-5.36-1,2.67,2.38,4.69,4.56,3.51,9.6-5.22,19-9.24,28.06-.36,8.64,8.52,7.49,22.14,1.14,31.79-10.84,16.49-33.28,20.39-51.23,16.19-38.69-9-50.38-46.89-46.7-81.79,13.28-5.84,24.37-16.39,29.56-30.91.51-1.43.94-2.9,1.31-4.39,11.07,2.57,23.17,2.31,34.43,2.74,11.88.45,24,.68,35.72-1.62,13.69-2.69,26-9.22,34.09-19.57,23.42,27.73,63.75,18.18,90.42-5.69,14.78,35.15,29.06,71.67,8.11,108.14-10,17.33-30.87,32.08-51.62,24.65-25.62-9.18-25.11-47.21,4.86-48.27,4.19-.14,5.51-6.73,1-7.63-21.56-4.34-39.9,16.31-35.42,37.6,3.62,17.16,17.36,27.57,33,30.34-16.83,16.26,2.64,43.71,24.32,36.5,3.51-1.17,3-6.47-.89-6.54-6.51-.12-19.88-1.19-20-11.09a15.94,15.94,0,0,1,13.79-16.37c10.45-1.53,23.08,1.72,30.71,9.17,13.29,13,17.42,33.78,13.42,51.46-8.52,37.7-45.5,47-78.29,38.71,6.91-11.39,9.41-25.54,5.61-38.79-16.33-56.87-91.53-49.27-125.74-12.93a37.79,37.79,0,0,0-3.77-6.85c-11.6-16.76-46.38-20.73-48.51,5.4-.23,2.82,4.05,4.75,5.88,2.43,7.68-9.75,19-16.11,30.14-5.9a24.82,24.82,0,0,1,7.66,16.16c-.21.35-.45.68-.65,1a3.19,3.19,0,0,0,.79,4.27,42.58,42.58,0,0,1-4.62,17.12c-9.58,18.55-28.42,25.88-48.36,25.52-21.36-.37-42.38-7.47-53.08-27.27m159.46,231.38a86,86,0,0,1-22.16-18.49c-9.6-11.56-11.12-22.47-12.39-36.92a3.46,3.46,0,0,0-.19-.7c22.56-5.57,44.15-22.27,49.84-42.32,1.11-3.92-4.24-5.9-6.38-2.68-13.44,20.21-31.52,35.6-57.15,35.53-15.91,0-29.5-7.24-33.14-23.55a35.42,35.42,0,0,1,3.72-25.32c5.79-9.77,28.1-21.25,29.28,1.27.22,4.18,6.35,5.33,7.51,1,5.2-19.42-17.78-29.52-33-20.83C518.34,2008,512.55,2017,510,2027c-14.88-6.15-26.86-13.18-35-28.7-6.92-13.21-17.32-45.82-6.71-59.77,20.11,7,44.51,6.33,61.86-3.34,17.75-9.9,31.52-31.77,29.19-52.24,12.31-11.06,24.67-21,41.19-26,20.2-6.14,43.11-4.15,59,10.81,14.88,14,18.79,36,6.52,53.08-7.13,9.93-20.08,17.27-32.63,14.25-13-3.13-15.8-14.73-17.71-26-.51-3-4.77-3.1-6.17-.81-13.78,22.53,17.54,41.55,37.14,37.58a45.25,45.25,0,0,0,25.87-15.83c15.65,10.38,36.58,10.24,54.22,3.23,0,.06,0,.12.08.18,12,16.09,18.15,34,21.21,53.7,3.36,21.7,6.17,49.54-10.77,66.65-15,15.15-39,17.94-56.42,5.23a44.56,44.56,0,0,1-17-24.94c-1.83-7.6-1.51-15.18,2.52-22a14.76,14.76,0,0,1,9.91-9.24q15.65.66,13.26,12.15c-.35,3.65,5.6,5.34,7.08,1.92,4-9.26,0-19.08-9.49-23.16-12.42-5.33-25.54,3.72-31,14.68-13.81,27.75,8.85,60.78,36.16,68.27a51.21,51.21,0,0,0,38.24-4.43c28.76,44.88-34.22,77.36-71.44,78.2a107.86,107.86,0,0,1-57.52-14.79" fill="#231f20"/><path d="M885.14,2240.46c13.77-10.27,20.58-31.16,9.53-46.32-10.75-14.77-33.26-11.52-49.1-11.85q-36.77-.75-73.53-1.41c-24.51-.46-49-1.29-73.54-1.39-13-.06-26.44,2.24-31.37,16s-1.24,34.18,4.31,47.38c3.47,8.25,8.52,13.72,15,16.75a2.62,2.62,0,0,0-.23.75c-2.36,18.9.82,42.57,22.08,48.65.26.08.54.11.8.18-2.29,15.93,7.69,30.87,22.42,37.36a65.79,65.79,0,0,0,19,4.84c5.2,8.64,7.39,18,16.2,24,9.14,6.21,21.35,8.26,32.17,7.2A44.22,44.22,0,0,0,838.17,2348c10-1.58,19.62-4.64,27.83-10.85,14.39-10.89,21.54-29.39,16.77-46.87a4.62,4.62,0,0,0-.87-1.73c14.18-11.12,16.78-35.58,3.24-48.11m-204.76,1c-7.48-15.43-13.74-50.2,9.57-53.09,19.64-2.44,41,.32,60.74.75q32,.69,64,1.37l30.84.59c10,.2,21.34-.92,31.18,1.48,28.37,6.9,11.26,50.89-15,45.15a4,4,0,0,0-3.81,1.07c-39.3,1.77-78.89,7.37-117.94,11.42-18.39,1.91-49.49,12.18-59.63-8.74M789.6,2373.31c-11-.94-20.16-5.27-26.29-14.68a59.5,59.5,0,0,0-4.51-6.58c15.17.57,31.05-1.56,44.91-2,7.79-.25,16-.26,24.13-.86-5.72,15.91-20.17,25.65-38.24,24.11m62.1-38.79a67.74,67.74,0,0,1-17.31,4.64,4.14,4.14,0,0,0-2.72.35c-10.07,1.16-20.46.94-30.32,1.27-28.69,1-83.89,10.16-87-30.53,10.34,1.37,21.63-.39,31.65-1.06q24.53-1.64,49-4.33,21.59-2.39,43.09-5.54c11.19-1.64,25-1.92,36-6.39,4.4,17.57-6.38,34.64-22.46,41.59m26.82-55.65c-7.35,7.83-21.48,8-31.32,9.57q-31.8,5-63.83,8.25c-19.76,2-39.73,4.13-59.59,4.64-12.66.32-23.15-2.45-28.14-15.31-3-7.79-3.48-16.27-4-24.53a40.88,40.88,0,0,0,13.65.85c27.31-2.47,54.57-6,81.8-9.25,23.45-2.77,47.32-4.75,70.69-8.59a4,4,0,0,0,1.85,1.09,27.73,27.73,0,0,0,18.21-1c6.8,10.65,10.61,23.75.72,34.29" fill="#231f20"/><path d="M885.14,2240.46c13.77-10.27,20.58-31.16,9.53-46.32-10.75-14.77-33.26-11.52-49.1-11.85q-36.77-.75-73.53-1.41c-24.51-.46-49-1.29-73.54-1.39-13-.06-26.44,2.24-31.37,16s-1.24,34.18,4.31,47.38c3.47,8.25,8.52,13.72,15,16.75a2.62,2.62,0,0,0-.23.75c-2.36,18.9.82,42.57,22.08,48.65.26.08.54.11.8.18-2.29,15.93,7.69,30.87,22.42,37.36a65.79,65.79,0,0,0,19,4.84c5.2,8.64,7.39,18,16.2,24,9.14,6.21,21.35,8.26,32.17,7.2A44.22,44.22,0,0,0,838.17,2348c10-1.58,19.62-4.64,27.83-10.85,14.39-10.89,21.54-29.39,16.77-46.87a4.62,4.62,0,0,0-.87-1.73c14.18-11.12,16.78-35.58,3.24-48.11m-204.76,1c-7.48-15.43-13.74-50.2,9.57-53.09,19.64-2.44,41,.32,60.74.75q32,.69,64,1.37l30.84.59c10,.2,21.34-.92,31.18,1.48,28.37,6.9,11.26,50.89-15,45.15a4,4,0,0,0-3.81,1.07c-39.3,1.77-78.89,7.37-117.94,11.42-18.39,1.91-49.49,12.18-59.63-8.74M789.6,2373.31c-11-.94-20.16-5.27-26.29-14.68a59.5,59.5,0,0,0-4.51-6.58c15.17.57,31.05-1.56,44.91-2,7.79-.25,16-.26,24.13-.86-5.72,15.91-20.17,25.65-38.24,24.11m62.1-38.79a67.74,67.74,0,0,1-17.31,4.64,4.14,4.14,0,0,0-2.72.35c-10.07,1.16-20.46.94-30.32,1.27-28.69,1-83.89,10.16-87-30.53,10.34,1.37,21.63-.39,31.65-1.06q24.53-1.64,49-4.33,21.59-2.39,43.09-5.54c11.19-1.64,25-1.92,36-6.39,4.4,17.57-6.38,34.64-22.46,41.59m26.82-55.65c-7.35,7.83-21.48,8-31.32,9.57q-31.8,5-63.83,8.25c-19.76,2-39.73,4.13-59.59,4.64-12.66.32-23.15-2.45-28.14-15.31-3-7.79-3.48-16.27-4-24.53a40.88,40.88,0,0,0,13.65.85c27.31-2.47,54.57-6,81.8-9.25,23.45-2.77,47.32-4.75,70.69-8.59a4,4,0,0,0,1.85,1.09,27.73,27.73,0,0,0,18.21-1c6.8,10.65,10.61,23.75.72,34.29" fill="#231f20"/><path d="M572.63,1427.65c-.93,3.42-1.53,7.28.25,10.34,2.22,3.82,7.27,4.9,11.68,4.74,20.3-.73,35.21-18,52.14-29.44a4.16,4.16,0,0,1-.45-3.78c12.37-29.29,59-14,81-27.67,10.36-6.48,20-20.61,14.1-32.49-2.34-4.68-6.44-8.65-11.16-11.85a35.21,35.21,0,0,1-10.71,23.89c-11.77,11-28.81,14.27-44.93,15.22s-32.64.17-48,5.12a67.9,67.9,0,0,0-43.87,45.92" fill="#f4961f"/><path d="M534.08,1485a2.46,2.46,0,0,1-.17-4.06c11.13-8,25.17-15.16,38.82-8.41,5.61,2.77,9.93,7.37,13.32,12.73a11.51,11.51,0,0,1,.88,1c19.56-37.94,72.05-20.11,101.89-6.47,12,5.48,25.67,11.41,39.13,7.86,15.32-4,21.32-19.39,22.74-33.7a83.5,83.5,0,0,0-1.21-25c-4.35,15.51-12,29.25-26.27,35.54-34.26,15.07-72.55-27-108.26-15.82-11.4,3.57-20.92,12.34-32.7,14.35-12.58,2.16-25.12-3.8-37.88-4.14s-28,10.39-23.41,22.32a22.37,22.37,0,0,0,13.12,3.81" fill="#f4961f"/><path d="M535.87,1485c6.81-.28,14-2.38,20.68-4.06,1.6-.4,3.27-.73,5-1-8.18-1.2-17.27,2.2-25.65,5" fill="#f4961f"/><path d="M513.79,1544.32c-6.78-4.5-16.59-1.56-21.77,4.71-3.53,4.29-5.28,9.66-6,15.23a25,25,0,0,1,10.72-12c3-1.77,6.33,1.73,4.68,4.68-6.69,11.87-10.45,24.71-.17,36.35,6.71,7.61,17.62,11.16,27.57,10.85,20.62-.64,38.18-16.75,47.7-33.91a83.42,83.42,0,0,0,10.16-40.61c-6.84-.07-5.49,15.74-7.79,21.38-6.16,15.09-22.58,22.82-37.59,29.18-4.35,1.85-9.7,3.59-13.49.78-2-1.46-3-3.84-3.66-6.18-3-10.62-1.16-24.32-10.36-30.42" fill="#f4961f"/><path d="M641.91,1645.69c-1.74-17.67-15.82-27.24-30.61-16.13-2.57,1.93-5.27-1.27-4.86-3.73a14.59,14.59,0,0,1,3.2-7.09,24.44,24.44,0,0,0-7.7,1.7c-4.87,2-9,6.91-8.39,12.15,1.3,11.51,20.26,11.58,25.18,22.07,4.28,9.14-4.73,18.73-13,24.56-5,3.51-10.21,7-16.19,8.18-19.34,3.86-34-16.26-51-26.16-8.47-4.92-18.11-7.4-27.71-9.35-8.22-1.68-16.85-3-24.9-.65s-15.36,9.31-15.44,17.7c-.06,6.77,4.42,13.17,3.49,19.88-1.07,7.7-9.31,12.83-17.08,12.85s-15-3.88-21.46-8.21c-2.71-1.83-5.33-3.78-7.89-5.8a109.71,109.71,0,0,0,5.92,11.3c13.63,22.58,40.06,39.41,66.76,29.36,13.06-4.92,24.69-15.82,28-29.68,4.47-18.51-8.49-30.23-26.15-25.86-4.2,1-7.41-4.18-4.26-7.33,8.41-8.39,21.72-6.35,30.73.35,9.59,7.13,12.78,18.73,11.55,30,26.47-4.74,56.79,4,81.43-8.84,15.63-8.15,22-24.19,20.36-41.27" fill="#f4961f"/><path d="M741.83,1651.14c9.17-15.52,11.48-38-2.29-51.85-6-6-14.15-8.89-22.43-9.17a46,46,0,0,1-13,1.66c-3.93,1.16-7.25,3.09-9.12,7.4-2.47,5.65-.2,17.08,8.23,14.64,3.69-1.07,5.68,4.12,2.55,6-18.17,11.19-25.92-16.36-15.64-30-.79-.2-1.58-.44-2.37-.67-12.2,6.73-17.49,24-10.75,36.27,4.42,8,12.93,13.75,15.55,22.56,3.62,12.16-7.34,25.64-20,26.41-7.85.47-15.35-3.25-20.7-9.05,0,.12-.05.25-.08.37a45.82,45.82,0,0,1-5,12.35c32.68,22.76,75.43,6.26,95-26.92" fill="#f4961f"/><path d="M707.63,1559.33c-9-.86-17-5.91-24.44-11-5.22-3.6-11.38-7.51-17.45-5.68a10.6,10.6,0,0,0-4.16,2.47c-.47,8.35-1.26,17.4,5.32,24,4.92,4.93,12.74,7.13,19.24,9.13a59.42,59.42,0,0,0,18.76,3.07,41.72,41.72,0,0,1,9.28-1.37,36.41,36.41,0,0,0,9.81-4.49,46.71,46.71,0,0,0,20.45-31.86,58,58,0,0,0,.55-8.17,62.58,62.58,0,0,1-4.46,7c-7.7,10.35-20.06,18.18-32.9,17" fill="#f4961f"/><path d="M674.52,1584.17a44.72,44.72,0,0,1-6.76-3.82,32.57,32.57,0,0,0,16.59,7.74,98.6,98.6,0,0,1-9.83-3.92" fill="#f4961f"/><path d="M693.71,1822.36c-15.65-2.77-29.39-13.18-33-30.34-4.48-21.29,13.86-41.94,35.42-37.6,4.48.9,3.17,7.49-1,7.63-30,1.06-30.48,39.09-4.86,48.27,20.75,7.43,41.67-7.32,51.62-24.65,10.56-18.38,12.16-36.78,9.27-55A94.92,94.92,0,0,1,741,1755.59c-2.29,3.84-5,7.63-9,9.68s-9.42,1.82-12.32-1.58c-1.39-1.63-2-3.75-2.88-5.71-7.44-17.12-32-21.38-48-11.92s-24.48,28.25-27.56,46.65c-1.34,8-1.83,16.39.93,24,6.55,18.06,27.59,24.73,46.93,28.33-3-7.32-2.32-16,4.65-22.69" fill="#f4961f"/><path d="M742.69,1867.52c-7,14.26-22.8,25.46-38.3,22-9.61-2.16-17.42-9.35-25.91-14.34a64.91,64.91,0,0,1,3.9,10.25c3.8,13.25,1.3,27.4-5.61,38.78,32.79,8.32,69.77-1,78.29-38.7,3.13-13.85,1.25-29.6-6.08-42-.83,8.36-2.6,16.52-6.29,24" fill="#f4961f"/><path d="M537.77,1706.06c-5.19,14.52-16.28,25.07-29.56,30.91-3.68,34.9,8,72.74,46.7,81.79,18,4.2,40.39.3,51.23-16.19,6.35-9.64,7.5-23.27-1.14-31.78-9-8.89-18.46-4.87-28.06.35a3.49,3.49,0,0,1-4.17-1,31.88,31.88,0,0,1-2.93,2.64c-11.46,8.81-31.22.79-33.3-13.5-1.62-11.12,5.67-21.29,9.75-31.75,3.16-8.11,3-19.1-2.27-25-1.67-.26-3.32-.57-4.94-.94-.38,1.49-.8,3-1.31,4.39" fill="#f4961f"/><path d="M571.06,1837.31c15.28-2,30.59-8.16,40.6-19.88a42.12,42.12,0,0,0,9.89-24.34c-2.75,16.06-16.87,29.56-32.95,34.9-53.48,17.75-98.24-38.46-88.41-88.11a60,60,0,0,1-36.56-1.24,93.54,93.54,0,0,0,8.09,43.8c16.91,36.8,59.19,60.15,99.34,54.87" fill="#f4961f"/><path d="M543.56,1906.14a42.58,42.58,0,0,0,4.62-17.12,3.19,3.19,0,0,1-.79-4.27c.2-.35.44-.68.66-1-.64-6.1-3-11.87-7.67-16.16a18.36,18.36,0,0,0-9.78-5l-.08.09c-4.88,6.1-5.63,14.39-8,21.82-7.14,22-31.8,36.8-54.58,32.71-10.71-1.92-20.33-7.93-27.45-16.13.51,1.13,1.07,2.24,1.67,3.35,10.7,19.8,31.72,26.89,53.08,27.27,19.94.36,38.78-7,48.36-25.52" fill="#f4961f"/><path d="M646.23,1847.34a43.84,43.84,0,0,0-9.88-4.75c-11.21-3.67-23.32-3.31-35.05-2a244.43,244.43,0,0,0-53.49,11.89,74.17,74.17,0,0,0-7.67,3,30.86,30.86,0,0,1,12.73,10.15,38.13,38.13,0,0,1,3.77,6.85c21.83-23.19,60.33-34.64,89.59-25.14" fill="#f4961f"/><path d="M592.17,1907.92c-6.38,9-6.76,21.24-2.95,31.55s11.3,18.88,19.64,26c13.17,11.3,29.78,19.89,47.11,19,21.15-1.13,39-16,52.92-32a117.68,117.68,0,0,0,12.88-17.44c-16.49,5.17-35,4.42-49.2-5a45.25,45.25,0,0,1-25.87,15.83c-19.6,4-50.92-15.05-37.13-37.58,1.39-2.29,5.65-2.2,6.16.81,1.92,11.25,4.74,22.85,17.71,26,12.55,3,25.5-4.32,32.63-14.25,12.08-16.8,8.45-38.35-5.84-52.38a27.79,27.79,0,0,1,3.59,14.37c0,7.62-2.19,15.5-7.37,21.09s-13.7,8.38-20.78,5.56c-5.42-2.15-9.26-7.07-14.42-9.78-9.73-5.11-22.71-.78-29.08,8.18" fill="#f4961f"/><path d="M730.55,2072.35a51.24,51.24,0,0,1-38.25,4.45c-18.77-5.15-35.34-22.37-39.39-41.63-2.11,17.73,3.83,36.18,19.2,44.55,9.63,5.24,22.24,6.48,28.45,15.52,6.48,9.43,2,23.26-7,30.37s-20.94,9-32.36,9.74c-27.73,1.8-57.38-2.67-80.66-16.87a86.79,86.79,0,0,0,21.06,17.29,107.8,107.8,0,0,0,57.51,14.79c37.22-.83,100.2-33.33,71.45-78.21" fill="#f4961f"/><path d="M743,2028.24c-5,11.59-15,21.84-27.47,23.64s-26.51-7.56-26.69-20.18c-.06-4.45,1.42-9,2.42-13.51a3.26,3.26,0,0,1-1.7-3.11q2.38-11.49-13.26-12.15a14.73,14.73,0,0,0-9.9,9.24c-4,6.79-4.36,14.38-2.53,22a44.58,44.58,0,0,0,17,25c17.4,12.7,41.43,9.91,56.42-5.24,14.59-14.73,14.52-37.4,12.08-57.27-.82,10.84-2.11,21.73-6.4,31.66" fill="#f4961f"/><path d="M606.41,2040.16c-7.75,4.38-15.67,8.61-24.3,10.74-9.51,2.35-20.18,1.86-28.36-3.55a9.72,9.72,0,0,1-3.8-4c-1.9-4.58,2.68-9.43,7.4-10.94s10-1.32,14.35-3.69c5.33-2.92,8.09-9.25,8.35-15.32.6-14-10.87-26.84-24.51-30.07s-28.39,2-38.84,11.35c-8.16,7.31-13.94,16.85-18.06,27A118.07,118.07,0,0,0,510,2027c2.55-10,8.34-19,17.48-24.24,15.26-8.69,38.24,1.41,33,20.83-1.16,4.32-7.29,3.17-7.51-1-1.18-22.52-23.49-11-29.28-1.27a35.42,35.42,0,0,0-3.72,25.32c3.64,16.31,17.23,23.51,33.14,23.55,23.24.06,40.26-12.61,53.26-30" fill="#f4961f"/><path d="M574.61,1351.69c-13.77,5.77-25.65,15.69-36.18,26.18-8,8-22.09,19.83-19.46,32.26.52,2.49,3.08,4.09,5.48,4.18,11,.38,20.44-12.93,28.29-19.5,10.48-8.75,22.38-15.73,32.51-24.83,7.73-6.94-.42-22.56-10.64-18.29" fill="#fff257"/><path d="M618,1337.68c-4.92,1.35-9.46,4.58-13.87,7.07-6.33,3.57-2.1,13.82,5,11.77,4.87-1.42,10.35-2.41,14.75-5,7.4-4.33,2.51-16.16-5.84-13.86" fill="#fff257"/><path d="M731.27,1421.59a8.75,8.75,0,0,0-10.36-5.09c-4.23,1.25-8.14,4.38-11.86,6.71a8,8,0,0,0-3.25,9.91c1.41,3.33,5.66,6,9.37,4.59l5.63-2.18c2.27-.87,5-1.54,6.88-3,3.55-2.63,5.42-6.63,3.59-11" fill="#fff257"/><path d="M483.52,1494c-2.88-3.83-8-4.15-10.79,0-2.15,3.16-3.41,6.86-5.57,10.07-2.43,3.63-4.79,7.08-6.05,11.33-2.23,7.54-1.4,17.2,6.43,21.09,6.18,3.08,14.25-2,12.12-9.31-1.73-5.9.2-8.81,2.68-14.23,2.67-5.84,5.5-13.21,1.18-19" fill="#fff257"/><path d="M471.25,1554.06l-1.11-5.8c-.81-4.27-7.89-3.33-7.61,1,.24,3.72-.3,8.89,1.74,12.12a4,4,0,0,0,7.23-1c.7-2.17.15-4.23-.25-6.4" fill="#fff257"/><path d="M442.1,1615.87c-2-8-12.07-6.4-14.7,0-3.08,7.46-4.89,18-2.49,25.79,2,6.49,12.24,9,15.57,2,3.95-8.22,3.79-19.06,1.62-27.82" fill="#fff257"/><path d="M702,1514c-5.48.46-11,.83-16.46,1.19-6,.41-8,9.63-1.49,11,5.28,1.15,10.56,2.3,15.82,3.54a8,8,0,0,0,10-6.68c.6-4.42-3-9.5-7.89-9.1" fill="#fff257"/><path d="M731.79,1515.13a9.23,9.23,0,0,0-3.87-3.08c-2.45-1.14-5.71-.77-7.1,1.86a5.28,5.28,0,0,0,1.86,7.1,9.63,9.63,0,0,0,4.81,1.59c3.44,0,6.64-4.36,4.3-7.47" fill="#fff257"/><path d="M588.17,1653.5c-3.89-7-13.27-4.59-19.06-1.67a5.39,5.39,0,0,0-2.44,6,5.54,5.54,0,0,0,5.13,3.9,11.41,11.41,0,0,1,2.28.47c.46.13.91.29,1.36.45l.2.1c3.57,1.47,6.31,2.13,10,.33,3.47-1.67,4.24-6.48,2.52-9.58" fill="#fff257"/><path d="M619.85,1539.55c-7-4.48-11.52,4.44-13.65,9.75-3.37,8.4-6.09,16.61-10.6,24.53-3.15,5.52,4.39,11.66,8.93,6.89a89.47,89.47,0,0,0,14.61-19.81c2.93-5.6,7.8-16.83.71-21.36" fill="#fff257"/><path d="M631.5,1508.62a12.11,12.11,0,0,0-5,1.47c-2.68,1.17-3.49,5.3-2,7.62a5.66,5.66,0,0,0,7.61,2,11.2,11.2,0,0,0,3.86-3.29c2.4-3.3-.87-7.75-4.47-7.79" fill="#fff257"/><path d="M712.62,1700.25a31.92,31.92,0,0,0-28.8,9.13c-4.47,4.61,0,12.43,6.26,10.76,6.87-1.83,13.13-2,20.17-2.34,9.55-.47,12.74-15.48,2.37-17.55" fill="#fff257"/><path d="M735.74,1714.37c-2-.57-4.17-.25-6.26-.12-2.67.16-5.25,2.24-5.12,5.12a5.25,5.25,0,0,0,5.12,5.13c2.09.12,4.21.44,6.26-.13,4.93-1.37,4.94-8.62,0-10" fill="#fff257"/><path d="M445.86,1784.43c-1.28-7.37-5-14.14-7.6-21.09-2.55-6.71-3.93-14.43-7.89-20.45-3.8-5.77-11.91-4.5-14.17,1.85-5.63,15.83,4.18,39.75,16.91,49.49,6.71,5.13,13.88-3.32,12.75-9.8" fill="#fff257"/><path d="M460.7,1808.77c-1.35-1.35-3.49-2-5.22-2.69-2.87-1.25-6.57-.95-8.21,2.15a6.11,6.11,0,0,0,2.16,8.21c1.63.93,3.39,2.25,5.21,2.75a6.68,6.68,0,0,0,7.39-2.75,6.5,6.5,0,0,0-1.33-7.67" fill="#fff257"/><path d="M490.45,1890.77c-5.41,1.81-10.35,5.19-15.29,8-6.33,3.61-2.09,14.82,5.1,12.11,5.25-2,11.18-3.53,15.94-6.48,6.93-4.3,2.55-16.41-5.75-13.64" fill="#fff257"/><path d="M637,2093.54c-10.86-2.47-25.5-3.21-36.12.61-5.34,1.92-9.14,9.82-3.74,14.15,9.51,7.62,24.3,11.53,36.41,10.72,13.86-.93,18.51-22.07,3.45-25.48" fill="#fff257"/><path d="M670.15,2105.08a9.78,9.78,0,0,0-5.5-.94l-3.74.34c-3,.27-5.9,2.45-5.75,5.75a5.9,5.9,0,0,0,5.75,5.75l3.74.34a9.48,9.48,0,0,0,5.5-.94c3.9-1.89,3.9-8.41,0-10.3" fill="#fff257"/><path d="M740.27,1988.37c-1.81-4.86-3.4-8.73-8.48-10.84a6.37,6.37,0,0,0-6.45,1.71c-3.15,3.81-2.9,7.52-2.75,12.22a53.87,53.87,0,0,0,1.62,12.92c3,10.42,17.89,8,18.48-2.5a35,35,0,0,0-2.42-13.51" fill="#fff257"/><path d="M506.35,1974.16a22.47,22.47,0,0,0-2.2-4.68,15.72,15.72,0,0,0-4.54-4.65c-1.85-1.25-3.61-1.43-5.78-1.67-4.37-.48-7.91,4.79-6.63,8.71,0-.35-.07-.7-.11-1l.27,2a8.92,8.92,0,0,0,1.23,2.58c.43.77.82,1.54,1.27,2.29,0-.12-.07-.23,0-.26a1.32,1.32,0,0,0,.11.38c.39.64.2.41,0,.1l.24.66a24.38,24.38,0,0,0,1.54,4.26c1.44,2.9,5.14,4.31,8.15,3.9s6.32-2.71,6.8-5.85a12.83,12.83,0,0,0-.35-6.76" fill="#fff257"/><path d="M489.9,1977.8a.25.25,0,0,0,0-.07l.11.22,0-.09,0-.06" fill="#fff257"/><path d="M630.75,1877.81c-5.17-9.53-22.88-6.38-29.33.23-3.29,3.37-2.1,10,2.93,11.08,4,.81,8,.59,12,.82,1.84.09,3.72.29,5.56.33,3.12.09,5.22-1.06,7.58-3,2.68-2.24,2.76-6.61,1.21-9.45" fill="#fff257"/><path d="M606.94,1985.36c-4.45-3.63-8.2-6.66-14.09-7.21-3.65-.34-6.84,3.4-6.82,6.81.05,5.35,2.8,9.55,5.8,13.75,3.76,5.26,8,10.34,14.92,10.56,5.16.16,9-4.36,9.21-9.22.31-6.2-4.54-11-9-14.69" fill="#fff257"/><path d="M640.28,2008.34a7,7,0,0,0-8.28-4.06,11.65,11.65,0,0,0-1.69.67,6.48,6.48,0,0,0-4.16,12c3.19,1.77,8.13,2.53,11.26.16,2.82-2.13,4.34-5.28,2.87-8.77" fill="#fff257"/><path d="M594.25,1723.74c-3.52-5.45-9.74-6.8-15.42-4-6.23,3-12.58,8.49-15.07,15-1.44,3.79,1.63,9.36,5.68,10,7,1.11,14.93-1.61,20.76-5.58,4.87-3.31,7.5-10.06,4-15.42" fill="#fff257"/><path d="M615.78,1720.3a8.78,8.78,0,0,0-4.77-1.16,30.71,30.71,0,0,0-3.55.53l-4.74.79c-3.82.64-6.29,5.56-5.15,9.08,1.33,4.12,5,5.83,9.07,5.15,3.62-.61,7.87-.68,10.55-3.47,2.95-3.06,2.68-8.84-1.41-10.92" fill="#fff257"/><path d="M824.75,2072.35A51.22,51.22,0,0,0,863,2076.8c27.32-7.5,50-40.53,36.16-68.28-5.45-11-18.58-20-31-14.68-9.53,4.08-13.51,13.9-9.5,23.16,1.48,3.42,7.43,1.73,7.08-1.92q-2.38-11.49,13.26-12.15a14.74,14.74,0,0,1,9.91,9.24c4,6.79,4.35,14.38,2.53,22a44.66,44.66,0,0,1-17,25C857,2071.79,833,2069,818,2053.85c-16.94-17.11-14.13-44.95-10.76-66.65,3-19.7,9.23-37.61,21.2-53.7,0-.06,0-.12.09-.18,17.64,7,38.57,7.15,54.21-3.23a45.3,45.3,0,0,0,25.87,15.83c19.6,4,50.92-15.05,37.14-37.58-1.4-2.29-5.66-2.2-6.17.8-1.91,11.26-4.73,22.86-17.7,26-12.56,3-25.51-4.32-32.64-14.25-12.27-17.08-8.35-39.07,6.53-53.08,15.88-15,38.8-17,59-10.81,16.51,5,28.88,14.91,41.18,26-2.33,20.48,11.44,42.34,29.19,52.24,17.35,9.67,41.75,10.34,61.86,3.34,10.61,14,.21,46.56-6.71,59.77-8.12,15.52-20.1,22.55-35,28.7-2.55-10-8.35-19-17.48-24.23-15.26-8.7-38.24,1.4-33,20.83,1.15,4.31,7.28,3.16,7.5-1,1.19-22.51,23.5-11,29.28-1.26a35.37,35.37,0,0,1,3.72,25.32c-3.64,16.31-17.23,23.51-33.14,23.55-25.62.07-43.71-15.32-57.15-35.53-2.14-3.22-7.49-1.24-6.37,2.69,5.68,20,27.27,36.74,49.83,42.31a3.46,3.46,0,0,0-.19.7c-1.27,14.45-2.79,25.36-12.39,36.92a85.68,85.68,0,0,1-22.16,18.49,107.84,107.84,0,0,1-57.52,14.79c-37.22-.83-100.2-33.33-71.44-78.21" fill="#fcc60f"/><path d="M1011.74,1906.14a42.26,42.26,0,0,1-4.62-17.12,3.2,3.2,0,0,0,.79-4.27c-.21-.35-.45-.68-.66-1a24.82,24.82,0,0,1,7.66-16.16c11.14-10.21,22.47-3.85,30.15,5.9,1.82,2.32,6.1.39,5.87-2.44-2.13-26.12-36.91-22.15-48.51-5.39a38.13,38.13,0,0,0-3.77,6.85c-34.21-36.34-109.41-43.94-125.74,12.93-3.8,13.25-1.3,27.4,5.62,38.79-32.8,8.31-69.78-1-78.3-38.71-4-17.68.13-38.5,13.42-51.46,7.63-7.45,20.27-10.7,30.71-9.17a15.94,15.94,0,0,1,13.79,16.37c-.12,9.9-13.48,11-20,11.09-3.86.07-4.4,5.37-.88,6.54,21.68,7.21,41.14-20.24,24.31-36.5,15.65-2.77,29.4-13.18,33-30.34,4.48-21.29-13.86-41.94-35.42-37.6-4.48.9-3.16,7.49,1,7.64,30,1,30.48,39.08,4.86,48.26-20.74,7.43-41.66-7.32-51.62-24.65-21-36.47-6.66-73,8.11-108.14,26.68,23.87,67,33.42,90.42,5.69,8.1,10.35,20.4,16.87,34.1,19.57,11.72,2.3,23.84,2.07,35.71,1.62,11.27-.43,23.36-.17,34.44-2.74.37,1.49.79,3,1.3,4.39,5.19,14.52,16.28,25.07,29.56,30.91,3.68,34.9-8,72.74-46.69,81.79-18,4.2-40.4.3-51.24-16.19-6.34-9.64-7.5-23.28,1.15-31.79,9-8.88,18.45-4.86,28.05.36,2.18,1.18,5.6-.84,4.56-3.51-8.35-21.55-38.79-11.33-46.45,5.36-11.07,24.11,7.73,47.52,30.23,55,53.49,17.76,98.25-38.45,88.41-88.1a59.67,59.67,0,0,0,39.27-2.25c22.58-9.59,36.78-29.58,44.91-52.07,11.7,33.92,21.25,70.42,9.87,105.82-10.44,32.48-34.1,51.8-66.18,60.51-4.89,1.33-3.88,8.91,1.19,8.82,13-.21,25-5,35.62-12.39,1.43,19.1,2.89,38.51-6.6,56.07-10.71,19.8-31.73,26.89-53.09,27.27-19.94.36-38.78-7-48.35-25.52" fill="#fcc60f"/><path d="M1055.08,1728.32c-13-4.92-24.69-15.82-28-29.68-4.47-18.51,8.49-30.24,26.15-25.86,4.2,1,7.42-4.18,4.26-7.33-8.41-8.39-21.72-6.35-30.73.35-9.58,7.12-12.77,18.72-11.55,30-26.46-4.74-56.78,4-81.42-8.84-15.64-8.16-22-24.19-20.36-41.27,1.73-17.66,15.81-27.24,30.6-16.13,2.57,1.93,5.28-1.27,4.86-3.73-2.52-14.95-22.43-15.8-32.89-8.68-15.05,10.25-16.31,32.44-12.42,48.56a45.82,45.82,0,0,0,5,12.35c-32.67,22.76-75.43,6.26-95-26.91-9.18-15.53-11.49-38,2.29-51.86,6-6,14.15-8.89,22.42-9.17a46,46,0,0,0,13,1.66c3.93,1.15,7.25,3.09,9.12,7.4,2.46,5.65.19,17.08-8.24,14.64-3.68-1.07-5.68,4.12-2.55,6,18.17,11.19,25.92-16.36,15.64-30a91.13,91.13,0,0,0,15.58-5.65c18.09-8.33,21.28-21.51,18.45-40.24-.48-3.17-5.71-2.37-5.53.75.47,8.46,1.39,17.69-5.3,24.39-4.91,4.93-12.74,7.12-19.24,9.12a59.16,59.16,0,0,1-18.76,3.08,41.72,41.72,0,0,0-9.27-1.37,36.6,36.6,0,0,1-9.82-4.49,46.71,46.71,0,0,1-20.45-31.86c-1.44-8.59-.83-40.28,10.34-46.07,15.51,5.35,33.71,0,48.8-6.92,33.19-15.23,65.7-25.67,95.12,2.44a92.28,92.28,0,0,0-4.23,11.73,93.64,93.64,0,0,0,15.19,81.92c16.38,21.42,45.82,36.82,72.24,24.23,20.49-9.77,34.14-44.49,10.25-58.66-3-1.77-6.34,1.73-4.68,4.68,6.68,11.87,10.44,24.71.17,36.35-6.72,7.61-17.63,11.16-27.58,10.85-20.62-.64-38.18-16.75-47.7-33.91a84.2,84.2,0,0,1-8.6-56.6c1.78-8.88,4.89-18.61,10.52-25.82,10.42-13.34,25.62-7.25,39-2.74,2.6.88,3.66-2.74,1.74-4.12-11.14-8-25.18-15.16-38.83-8.41-6,3-10.57,8.06-14.07,13.92-19.46-38.26-72.11-20.37-102-6.7-12,5.48-25.68,11.41-39.14,7.86-15.32-4-21.32-19.39-22.74-33.7-2.41-24.44,4.94-52.61,30.14-61.12a37.39,37.39,0,0,0,6.44,2.78c25,7.88,50.51,3.09,73.21,18.62,3.16,2.16,5.82-1.89,4.65-4.65-12.36-29.29-59-14-80.95-27.67-10.35-6.48-20-20.61-14.09-32.49,4.56-9.15,15.88-15.66,25.32-18.76,19.67-6.45,33.64.33,49.83,10.24a29.28,29.28,0,0,0-3.82,17.42c.32,4.09,6.7,5.55,7.59,1,11.31-57.89,99.58-9.54,125.59,11.51,17.13,13.86,30.65,31.87,35.71,53.58,5.3,22.79-.43,41.77-11.77,61.51-2.24,3.91,2.81,7.35,6,4.61,7.18-6.23,11.94-14.35,14.8-23.29,17.57,18.38,30.77,39.19,32.93,65.64a98.45,98.45,0,0,1-5.66,41.66c-5,13.72-13.69,24.1-21.16,36.33-2,3.21,2.18,8,5.47,5.47,15.63-11.84,25-31.79,28.85-52.25,34.06,33.51,31.72,95.91,8.19,134.92-13.62,22.58-40,39.41-66.76,29.36" fill="#fcc60f"/><path d="M889.89,2161.41c26.74,2.08,54.51-5.12,76.43-20.7,17.23-12.25,38.31-36.8,30.52-59.51,18.52,2.21,36.44-3.71,45.51-22.19a46.46,46.46,0,0,0,4.29-23.88c19.94-.62,37.32-18.52,45.19-35.63,7.73-16.84,15.81-47.52,5-65.23a60.52,60.52,0,0,0,10.29-6.71c24.32-20,25.21-55.11,18.83-84a109,109,0,0,0,30-41.93c15.82-39.72,5.75-86.23-13.52-122.89a2.44,2.44,0,0,0-.65-.79,160,160,0,0,0,5.92-32.11c2.58-31.56-3.65-72.12-32.75-90.31a111.07,111.07,0,0,0,.16-24.83c-3-27.19-17.13-55.47-39.85-71.6a92.89,92.89,0,0,0-1.61-39.44c-6.7-26-24.37-46.95-45.8-62.45-23.11-16.71-55.23-33.18-84-35.77-14.27-1.29-31,3.54-40.65,14-19-32.7-88-19-92.82,18.5-1.48,11.71,5.65,24.06,15.26,32.49-36,12.75-44,75.44-19,101.66a37.51,37.51,0,0,0,5.23,4.5c-10.62,11.3-13.34,34.7-12.26,47.94A57.89,57.89,0,0,0,823.48,1583a44.75,44.75,0,0,0-26.91,29.88c-5.55,20.83,3.65,42.59,19.39,59.18-17.37,24.45-28.32,56.91-23.7,86.62,3.46,22.26,15,45.23,34.64,57-14.2,4.52-27.14,16-32.86,28.31-12,25.84-6.28,58.81,15.3,77.83a64.26,64.26,0,0,0,13.45,9c-24.06,23.75-33.21,67.61-27.66,100.09a58.88,58.88,0,0,0,23.35,37.57c-16.66,17.1-12.06,44.27,2.61,61.34,16.85,19.59,43.57,29.66,68.8,31.64M1121.84,1699c-13.63,22.58-40,39.41-66.76,29.36-13-4.91-24.69-15.82-28-29.69-4.47-18.5,8.49-30.23,26.15-25.86,4.2,1,7.41-4.17,4.27-7.32-8.42-8.39-21.73-6.35-30.74.36-9.58,7.12-12.77,18.72-11.55,30-26.46-4.75-56.78,4-81.43-8.85-15.63-8.16-22-24.19-20.35-41.27,1.73-17.66,15.81-27.24,30.6-16.13,2.57,1.93,5.28-1.27,4.86-3.73-2.52-14.95-22.43-15.8-32.89-8.68-15,10.25-16.32,32.44-12.42,48.56a46,46,0,0,0,5,12.35c-32.68,22.76-75.44,6.26-95-26.91-9.18-15.53-11.49-38,2.29-51.86,6-6,14.14-8.89,22.42-9.17a46.08,46.08,0,0,0,13,1.66c3.93,1.15,7.24,3.09,9.12,7.39,2.46,5.67.18,17.09-8.24,14.65-3.68-1.07-5.68,4.12-2.54,6,18.16,11.19,25.91-16.36,15.63-30a91.13,91.13,0,0,0,15.58-5.65c18.09-8.33,21.28-21.51,18.45-40.24-.48-3.17-5.71-2.37-5.53.75.47,8.46,1.39,17.69-5.3,24.39-4.91,4.93-12.74,7.13-19.24,9.13a59.42,59.42,0,0,1-18.76,3.07,41.63,41.63,0,0,0-9.27-1.37,36.33,36.33,0,0,1-9.82-4.49,46.73,46.73,0,0,1-20.45-31.86c-1.44-8.59-.83-40.28,10.34-46.07,15.5,5.35,33.71,0,48.8-6.92,33.19-15.23,65.7-25.67,95.12,2.44a92.28,92.28,0,0,0-4.23,11.73,93.67,93.67,0,0,0,15.18,81.92c16.39,21.42,45.82,36.82,72.24,24.23,20.5-9.77,34.15-44.5,10.26-58.66-3-1.77-6.34,1.74-4.68,4.68,6.68,11.87,10.44,24.71.16,36.35-6.71,7.61-17.62,11.16-27.57,10.85-20.62-.64-38.18-16.75-47.7-33.91a84.2,84.2,0,0,1-8.6-56.6c1.78-8.88,4.89-18.61,10.51-25.82,10.43-13.34,25.62-7.25,39-2.74,2.61.88,3.67-2.74,1.75-4.13-11.13-8-25.18-15.15-38.83-8.41-6,3-10.57,8.07-14.07,13.93-19.46-38.26-72.11-20.37-102-6.69-12,5.47-25.68,11.4-39.14,7.85-15.32-4-21.32-19.39-22.74-33.7-2.41-24.44,4.94-52.61,30.14-61.12a37.73,37.73,0,0,0,6.44,2.78c25,7.88,50.51,3.08,73.21,18.62,3.16,2.16,5.82-1.89,4.66-4.65-12.37-29.29-59-14-80.95-27.68-10.36-6.47-20-20.6-14.1-32.48,4.56-9.14,15.88-15.66,25.32-18.76,19.67-6.45,33.64.33,49.84,10.24a29.29,29.29,0,0,0-3.84,17.42c.33,4.09,6.71,5.56,7.6,1,11.32-57.89,99.58-9.54,125.59,11.51,17.13,13.86,30.65,31.87,35.7,53.58,5.31,22.8-.42,41.77-11.76,61.52-2.24,3.9,2.81,7.34,6,4.6,7.18-6.23,11.94-14.35,14.8-23.29,17.57,18.38,30.77,39.19,32.93,65.64a98.29,98.29,0,0,1-5.66,41.66c-5,13.72-13.69,24.1-21.16,36.33-2,3.21,2.18,8,5.47,5.47,15.63-11.84,25-31.79,28.85-52.25,34.06,33.51,31.72,95.92,8.19,134.92m-61.75,232.7c-19.94.36-38.78-7-48.36-25.52a42.58,42.58,0,0,1-4.62-17.12,3.19,3.19,0,0,0,.8-4.27c-.21-.35-.45-.68-.66-1a24.79,24.79,0,0,1,7.67-16.16c11.13-10.21,22.46-3.85,30.14,5.9,1.83,2.32,6.1.39,5.87-2.43-2.13-26.13-36.91-22.16-48.51-5.4a37.79,37.79,0,0,0-3.77,6.85c-34.21-36.34-109.41-43.94-125.73,12.93-3.81,13.25-1.31,27.4,5.6,38.79-32.79,8.31-69.76-1-78.29-38.71-4-17.68.13-38.5,13.42-51.46,7.63-7.45,20.27-10.7,30.71-9.17a15.93,15.93,0,0,1,13.79,16.37c-.12,9.9-13.48,11-20,11.09-3.86.07-4.4,5.37-.89,6.54,21.68,7.21,41.15-20.24,24.32-36.5,15.65-2.77,29.4-13.18,33-30.34,4.48-21.29-13.85-41.94-35.42-37.6-4.48.9-3.16,7.49,1,7.63,30,1.06,30.48,39.09,4.86,48.27-20.74,7.43-41.66-7.32-51.62-24.65-20.94-36.47-6.66-73,8.12-108.14,26.67,23.87,67,33.42,90.41,5.69,8.09,10.35,20.4,16.87,34.1,19.57,11.72,2.3,23.83,2.07,35.71,1.62,11.27-.43,23.36-.17,34.44-2.74.37,1.49.79,3,1.3,4.39,5.19,14.52,16.28,25.07,29.56,30.91,3.68,34.9-8,72.74-46.69,81.79-18,4.2-40.4.3-51.24-16.19-6.34-9.64-7.5-23.28,1.14-31.79,9-8.88,18.46-4.86,28.06.36,2.18,1.18,5.6-.84,4.57-3.51-8.36-21.55-38.8-11.33-46.46,5.36-11.07,24.11,7.73,47.52,30.23,55,53.49,17.76,98.24-38.45,88.41-88.1a59.67,59.67,0,0,0,39.27-2.25c22.58-9.59,36.78-29.58,44.91-52.07,11.7,33.92,21.25,70.42,9.87,105.82-10.44,32.48-34.1,51.79-66.18,60.51-4.89,1.33-3.88,8.91,1.19,8.82,13-.21,25-5,35.62-12.39,1.43,19.1,2.89,38.51-6.6,56.07-10.71,19.8-31.72,26.9-53.09,27.27m-163.9,218.9c-37.22-.83-100.2-33.32-71.44-78.2a51.22,51.22,0,0,0,38.24,4.43c27.32-7.49,50-40.52,36.16-68.27-5.45-11-18.58-20-31-14.68-9.53,4.08-13.51,13.9-9.5,23.16,1.48,3.42,7.43,1.73,7.08-1.92q-2.38-11.49,13.26-12.15a14.74,14.74,0,0,1,9.91,9.24c4,6.79,4.35,14.37,2.53,22a44.66,44.66,0,0,1-17,25C857,2071.79,833,2069,818,2053.85c-16.94-17.11-14.13-44.95-10.76-66.65,3-19.7,9.23-37.61,21.2-53.7,0-.06,0-.12.09-.18,17.64,7,38.57,7.15,54.21-3.23a45.24,45.24,0,0,0,25.88,15.83c19.6,4,50.91-15.05,37.13-37.58-1.4-2.29-5.66-2.2-6.17.81-1.91,11.25-4.73,22.85-17.7,26-12.56,3-25.51-4.32-32.64-14.25-12.27-17.07-8.35-39.07,6.53-53.08,15.88-15,38.8-17,59-10.81,16.51,5,28.88,14.91,41.18,26-2.33,20.47,11.44,42.34,29.19,52.24,17.35,9.67,41.75,10.34,61.86,3.34,10.61,14,.21,46.56-6.71,59.77-8.12,15.52-20.1,22.55-35,28.7-2.55-10-8.35-19-17.48-24.24-15.26-8.69-38.24,1.41-33,20.83,1.15,4.32,7.28,3.17,7.5-1,1.18-22.52,23.5-11,29.28-1.27a35.42,35.42,0,0,1,3.72,25.32c-3.64,16.31-17.23,23.51-33.14,23.55-25.62.07-43.71-15.32-57.15-35.53-2.14-3.22-7.49-1.24-6.37,2.68,5.68,20,27.27,36.75,49.83,42.32a3.46,3.46,0,0,0-.19.7c-1.27,14.45-2.79,25.36-12.39,36.92a85.68,85.68,0,0,1-22.16,18.49,107.86,107.86,0,0,1-57.52,14.79" fill="#231f20"/><path d="M982.66,1427.65c.94,3.42,1.54,7.28-.25,10.34-2.22,3.82-7.27,4.9-11.68,4.74-20.29-.73-35.21-18-52.14-29.44a4.16,4.16,0,0,0,.45-3.78c-12.36-29.29-59-14-80.95-27.67-10.35-6.48-20-20.61-14.09-32.49,2.33-4.68,6.44-8.65,11.15-11.85a35.21,35.21,0,0,0,10.71,23.89c11.78,11,28.81,14.27,44.93,15.22s32.64.17,48,5.12a67.9,67.9,0,0,1,43.86,45.92" fill="#f4961f"/><path d="M1021.21,1485a2.46,2.46,0,0,0,.18-4.06c-11.14-8-25.18-15.16-38.83-8.41-5.6,2.77-9.93,7.37-13.32,12.73a11.51,11.51,0,0,0-.88,1c-19.56-37.94-72.05-20.11-101.88-6.47-12,5.48-25.68,11.41-39.14,7.86-15.32-4-21.32-19.39-22.74-33.7a83.83,83.83,0,0,1,1.21-25c4.36,15.51,12,29.25,26.27,35.54,34.26,15.07,72.55-27,108.26-15.82,11.41,3.57,20.92,12.34,32.7,14.35,12.58,2.16,25.12-3.8,37.88-4.14s28,10.39,23.41,22.32a22.37,22.37,0,0,1-13.12,3.81" fill="#f4961f"/><path d="M1019.42,1485c-6.81-.28-14-2.38-20.68-4.06-1.59-.4-3.26-.73-5-1,8.17-1.2,17.26,2.2,25.64,5" fill="#f4961f"/><path d="M1041.5,1544.32c6.78-4.5,16.59-1.56,21.77,4.71,3.53,4.29,5.28,9.66,6,15.23a24.94,24.94,0,0,0-10.71-12c-3-1.77-6.34,1.73-4.68,4.68,6.68,11.87,10.44,24.71.17,36.35-6.72,7.61-17.63,11.16-27.58,10.85-20.62-.64-38.18-16.75-47.7-33.91a83.41,83.41,0,0,1-10.15-40.61c6.84-.07,5.48,15.74,7.78,21.38,6.16,15.09,22.58,22.82,37.59,29.18,4.36,1.85,9.7,3.59,13.5.78,2-1.46,3-3.84,3.65-6.18,3-10.62,1.17-24.32,10.36-30.42" fill="#f4961f"/><path d="M913.39,1645.69c1.73-17.67,15.81-27.24,30.6-16.13,2.57,1.93,5.28-1.27,4.86-3.73a14.5,14.5,0,0,0-3.2-7.09,24.38,24.38,0,0,1,7.7,1.7c4.87,2,9,6.91,8.39,12.15-1.3,11.51-20.26,11.58-25.17,22.07-4.29,9.14,4.73,18.73,13,24.56,5,3.51,10.21,7,16.18,8.18,19.34,3.86,34-16.26,51-26.16,8.47-4.92,18.12-7.4,27.71-9.35,8.22-1.68,16.85-3,24.91-.65s15.35,9.31,15.43,17.7c.06,6.77-4.42,13.17-3.49,19.88,1.07,7.7,9.31,12.83,17.08,12.85s15-3.88,21.46-8.21c2.71-1.83,5.33-3.78,7.89-5.8a109.71,109.71,0,0,1-5.92,11.3c-13.63,22.58-40,39.41-66.76,29.36-13-4.92-24.69-15.82-28-29.68-4.47-18.51,8.49-30.23,26.15-25.86,4.2,1,7.41-4.18,4.26-7.33-8.41-8.39-21.72-6.35-30.73.35-9.58,7.13-12.77,18.73-11.55,30-26.46-4.74-56.78,4-81.43-8.84-15.63-8.15-22-24.19-20.35-41.27" fill="#f4961f"/><path d="M813.47,1651.14c-9.18-15.52-11.49-38,2.29-51.85,6-6,14.15-8.89,22.42-9.17a46,46,0,0,0,13,1.66c3.92,1.16,7.25,3.09,9.11,7.4,2.47,5.65.2,17.08-8.23,14.64-3.68-1.07-5.68,4.12-2.55,6,18.17,11.19,25.92-16.36,15.64-30,.79-.2,1.58-.44,2.37-.67,12.2,6.73,17.49,24,10.75,36.27-4.42,8-12.93,13.75-15.55,22.56-3.62,12.16,7.34,25.64,20,26.41,7.84.47,15.35-3.25,20.69-9.05,0,.12.06.25.08.37a45.82,45.82,0,0,0,5,12.35c-32.67,22.76-75.43,6.26-95-26.92" fill="#f4961f"/><path d="M847.66,1559.33c9-.86,17-5.91,24.44-11,5.22-3.6,11.38-7.51,17.45-5.68a10.6,10.6,0,0,1,4.16,2.47c.48,8.35,1.27,17.4-5.31,24-4.92,4.93-12.75,7.13-19.25,9.13a59.42,59.42,0,0,1-18.76,3.07,41.63,41.63,0,0,0-9.27-1.37,36.33,36.33,0,0,1-9.82-4.49,46.71,46.71,0,0,1-20.45-31.86,58,58,0,0,1-.55-8.17,62.58,62.58,0,0,0,4.46,7c7.7,10.35,20.06,18.18,32.9,17" fill="#f4961f"/><path d="M880.77,1584.17a44.72,44.72,0,0,0,6.76-3.82,32.58,32.58,0,0,1-16.58,7.74,99.4,99.4,0,0,0,9.82-3.92" fill="#f4961f"/><path d="M861.58,1822.36c15.65-2.77,29.4-13.18,33-30.34,4.48-21.29-13.86-41.94-35.42-37.6-4.48.9-3.16,7.49,1,7.63,30,1.06,30.48,39.09,4.86,48.27-20.74,7.43-41.67-7.32-51.62-24.65-10.56-18.38-12.16-36.78-9.26-55a94.89,94.89,0,0,0,10.08,24.92c2.29,3.84,5,7.63,9,9.68s9.43,1.82,12.32-1.58c1.39-1.63,2-3.75,2.89-5.71,7.43-17.12,32-21.38,48-11.92s24.47,28.25,27.55,46.65c1.34,8,1.83,16.39-.93,24-6.55,18.06-27.59,24.73-46.93,28.33a19.82,19.82,0,0,0-4.65-22.69" fill="#f4961f"/><path d="M812.6,1867.52c7,14.26,22.8,25.46,38.3,22,9.61-2.16,17.43-9.35,25.92-14.34a64,64,0,0,0-3.91,10.25,49.09,49.09,0,0,0,5.62,38.78c-32.8,8.32-69.78-1-78.3-38.7-3.13-13.85-1.25-29.6,6.08-42,.83,8.36,2.6,16.52,6.29,24" fill="#f4961f"/><path d="M1017.52,1706.06c5.19,14.52,16.28,25.07,29.56,30.91,3.68,34.9-8,72.74-46.69,81.79-18,4.2-40.4.3-51.24-16.19-6.34-9.64-7.5-23.27,1.14-31.78,9-8.89,18.46-4.87,28.06.35a3.49,3.49,0,0,0,4.17-1,32,32,0,0,0,2.94,2.64c11.45,8.81,31.21.79,33.29-13.5,1.62-11.12-5.67-21.29-9.75-31.75-3.16-8.11-3-19.1,2.28-25,1.66-.26,3.31-.57,4.94-.94.37,1.49.79,3,1.3,4.39" fill="#f4961f"/><path d="M984.24,1837.31c-15.28-2-30.59-8.16-40.61-19.88a42.12,42.12,0,0,1-9.89-24.34c2.75,16.06,16.87,29.56,33,34.9,53.49,17.75,98.25-38.46,88.41-88.11a60,60,0,0,0,36.57-1.24,93.43,93.43,0,0,1-8.1,43.8c-16.91,36.8-59.18,60.15-99.33,54.87" fill="#f4961f"/><path d="M1011.74,1906.14a42.26,42.26,0,0,1-4.62-17.12,3.2,3.2,0,0,0,.79-4.27c-.21-.35-.45-.68-.66-1a24.82,24.82,0,0,1,7.66-16.16,18.35,18.35,0,0,1,9.79-5l.08.09c4.87,6.1,5.62,14.39,8,21.82,7.14,22,31.8,36.8,54.59,32.71,10.7-1.92,20.32-7.93,27.44-16.13-.51,1.13-1.07,2.24-1.66,3.35-10.71,19.8-31.73,26.89-53.09,27.27-19.94.36-38.78-7-48.35-25.52" fill="#f4961f"/><path d="M909.06,1847.34a44.12,44.12,0,0,1,9.89-4.75c11.2-3.67,23.32-3.31,35-2a244.64,244.64,0,0,1,53.5,11.89,74.17,74.17,0,0,1,7.67,3,30.83,30.83,0,0,0-12.74,10.15,38.13,38.13,0,0,0-3.77,6.85c-21.83-23.19-60.33-34.64-89.59-25.14" fill="#f4961f"/><path d="M963.13,1907.92c6.37,9,6.75,21.24,3,31.55s-11.31,18.88-19.65,26c-13.17,11.3-29.78,19.89-47.11,19-21.15-1.13-39-16-52.92-32a118.39,118.39,0,0,1-12.88-17.44c16.49,5.17,35,4.42,49.2-5a45.24,45.24,0,0,0,25.88,15.83c19.6,4,50.91-15.05,37.13-37.58-1.4-2.29-5.66-2.2-6.17.81-1.91,11.25-4.73,22.85-17.7,26-12.56,3-25.51-4.32-32.64-14.25-12.07-16.8-8.45-38.35,5.84-52.38a27.79,27.79,0,0,0-3.59,14.37c0,7.62,2.19,15.5,7.37,21.09s13.7,8.38,20.78,5.56c5.42-2.15,9.27-7.07,14.42-9.78,9.74-5.11,22.71-.78,29.09,8.18" fill="#f4961f"/><path d="M824.75,2072.35A51.22,51.22,0,0,0,863,2076.8c18.77-5.15,35.34-22.37,39.39-41.63,2.11,17.73-3.83,36.18-19.19,44.55-9.63,5.24-22.25,6.48-28.46,15.52-6.48,9.43-2,23.26,7,30.37s20.93,9,32.35,9.74c27.73,1.8,57.38-2.67,80.66-16.87a86.93,86.93,0,0,1-21,17.29,107.84,107.84,0,0,1-57.52,14.79c-37.22-.83-100.2-33.33-71.44-78.21" fill="#f4961f"/><path d="M812.3,2028.24c5,11.59,15,21.84,27.47,23.64s26.52-7.56,26.69-20.18c.06-4.45-1.42-9-2.42-13.51a3.24,3.24,0,0,0,1.7-3.11q-2.38-11.49,13.26-12.15a14.74,14.74,0,0,1,9.91,9.24c4,6.79,4.35,14.38,2.53,22a44.63,44.63,0,0,1-17,25C857,2071.79,833,2069,818,2053.85c-14.58-14.73-14.52-37.4-12.08-57.27.82,10.84,2.11,21.73,6.4,31.66" fill="#f4961f"/><path d="M948.88,2040.16c7.76,4.38,15.67,8.61,24.3,10.74,9.52,2.35,20.18,1.86,28.36-3.55a9.59,9.59,0,0,0,3.8-4c1.9-4.58-2.67-9.43-7.39-10.94s-10-1.32-14.35-3.69c-5.33-2.92-8.1-9.25-8.36-15.32-.6-14,10.87-26.84,24.52-30.07s28.38,2,38.83,11.35c8.16,7.31,14,16.85,18.07,27a120.37,120.37,0,0,1-11.36,5.32c-2.55-10-8.35-19-17.48-24.24-15.26-8.69-38.24,1.41-33,20.83,1.15,4.32,7.28,3.17,7.5-1,1.19-22.52,23.5-11,29.28-1.27a35.37,35.37,0,0,1,3.72,25.32c-3.64,16.31-17.23,23.51-33.14,23.55-23.23.06-40.26-12.61-53.26-30" fill="#f4961f"/><path d="M980.69,1351.69c13.76,5.77,25.65,15.69,36.18,26.18,8,8,22.09,19.83,19.46,32.26-.53,2.49-3.09,4.09-5.48,4.18-11.06.38-20.44-12.93-28.3-19.5-10.47-8.75-22.38-15.73-32.5-24.83-7.73-6.94.41-22.56,10.64-18.29" fill="#fff257"/><path d="M937.3,1337.68c4.92,1.35,9.46,4.58,13.88,7.07,6.32,3.57,2.09,13.82-5,11.77-4.87-1.42-10.36-2.41-14.76-5-7.4-4.33-2.51-16.16,5.84-13.86" fill="#fff257"/><path d="M824,1421.59a8.75,8.75,0,0,1,10.36-5.09c4.24,1.25,8.14,4.38,11.86,6.71a8,8,0,0,1,3.25,9.91c-1.41,3.33-5.66,6-9.36,4.59l-5.64-2.18c-2.27-.87-4.94-1.54-6.88-3-3.54-2.63-5.42-6.63-3.59-11" fill="#fff257"/><path d="M1071.77,1494c2.88-3.83,8-4.15,10.79,0,2.15,3.16,3.41,6.86,5.57,10.07,2.43,3.63,4.79,7.08,6,11.33,2.23,7.54,1.4,17.2-6.43,21.09-6.18,3.08-14.24-2-12.11-9.31,1.72-5.9-.2-8.81-2.69-14.23-2.66-5.84-5.49-13.21-1.18-19" fill="#fff257"/><path d="M1084.05,1554.06c.36-1.93.73-3.87,1.1-5.8.81-4.27,7.89-3.33,7.61,1-.24,3.72.3,8.89-1.74,12.12a4,4,0,0,1-7.22-1c-.71-2.17-.16-4.23.25-6.4" fill="#fff257"/><path d="M1113.19,1615.87c2-8,12.07-6.4,14.71,0,3.07,7.46,4.88,18,2.48,25.79-2,6.49-12.24,9-15.57,2-4-8.22-3.78-19.06-1.62-27.82" fill="#fff257"/><path d="M853.26,1514c5.48.46,11,.83,16.46,1.19,6,.41,8,9.63,1.49,11-5.28,1.15-10.55,2.3-15.82,3.54a8,8,0,0,1-10-6.68c-.59-4.42,3-9.5,7.89-9.1" fill="#fff257"/><path d="M823.51,1515.13a9.2,9.2,0,0,1,3.86-3.08c2.46-1.14,5.71-.77,7.1,1.86a5.28,5.28,0,0,1-1.86,7.1,9.6,9.6,0,0,1-4.81,1.59c-3.44,0-6.63-4.36-4.29-7.47" fill="#fff257"/><path d="M967.12,1653.5c3.89-7,13.28-4.59,19.06-1.67a5.38,5.38,0,0,1,2.44,6,5.54,5.54,0,0,1-5.12,3.9,11.5,11.5,0,0,0-2.29.47c-.46.13-.91.29-1.36.45l-.2.1c-3.57,1.47-6.31,2.13-10,.33-3.47-1.67-4.24-6.48-2.52-9.58" fill="#fff257"/><path d="M935.44,1539.55c7-4.48,11.53,4.44,13.66,9.75,3.36,8.4,6.08,16.61,10.59,24.53,3.15,5.52-4.39,11.66-8.93,6.89a89.78,89.78,0,0,1-14.61-19.81c-2.92-5.6-7.8-16.83-.71-21.36" fill="#fff257"/><path d="M923.8,1508.62a12.15,12.15,0,0,1,5,1.47c2.68,1.17,3.48,5.3,2,7.62a5.66,5.66,0,0,1-7.61,2,11.17,11.17,0,0,1-3.85-3.29c-2.41-3.3.87-7.75,4.47-7.79" fill="#fff257"/><path d="M842.67,1700.25a31.94,31.94,0,0,1,28.81,9.13c4.46,4.61,0,12.43-6.27,10.76-6.87-1.83-13.13-2-20.16-2.34-9.56-.47-12.75-15.48-2.38-17.55" fill="#fff257"/><path d="M819.55,1714.37c2.05-.57,4.18-.25,6.26-.12,2.67.16,5.26,2.24,5.13,5.12a5.25,5.25,0,0,1-5.13,5.13c-2.09.12-4.21.44-6.26-.13-4.93-1.37-4.93-8.62,0-10" fill="#fff257"/><path d="M1109.43,1784.43c1.28-7.37,5-14.14,7.61-21.09,2.54-6.71,3.92-14.43,7.89-20.45,3.8-5.77,11.9-4.5,14.16,1.85,5.64,15.83-4.18,39.75-16.91,49.49-6.7,5.13-13.88-3.32-12.75-9.8" fill="#fff257"/><path d="M1094.59,1808.77c1.35-1.35,3.5-2,5.22-2.69,2.87-1.25,6.57-.95,8.21,2.15a6.1,6.1,0,0,1-2.15,8.21c-1.63.93-3.4,2.25-5.21,2.75a6.67,6.67,0,0,1-7.39-2.75,6.48,6.48,0,0,1,1.32-7.67" fill="#fff257"/><path d="M1064.84,1890.77c5.42,1.81,10.35,5.19,15.29,8,6.33,3.61,2.09,14.82-5.1,12.11-5.24-2-11.17-3.53-15.94-6.48-6.93-4.3-2.55-16.41,5.75-13.64" fill="#fff257"/><path d="M918.32,2093.54c10.86-2.47,25.5-3.21,36.12.61,5.34,1.92,9.15,9.82,3.74,14.15-9.51,7.62-24.3,11.53-36.41,10.72-13.85-.93-18.5-22.07-3.45-25.48" fill="#fff257"/><path d="M885.14,2105.08a9.8,9.8,0,0,1,5.5-.94l3.74.34c3,.27,5.9,2.45,5.75,5.75a5.9,5.9,0,0,1-5.75,5.75l-3.74.34a9.49,9.49,0,0,1-5.5-.94c-3.9-1.89-3.9-8.41,0-10.3" fill="#fff257"/><path d="M815,1988.37c1.81-4.86,3.41-8.73,8.48-10.84a6.36,6.36,0,0,1,6.45,1.71c3.15,3.81,2.9,7.52,2.75,12.22a52.88,52.88,0,0,1-1.62,12.92c-3,10.42-17.88,8-18.48-2.5a35,35,0,0,1,2.42-13.51" fill="#fff257"/><path d="M1048.94,1974.16a22.5,22.5,0,0,1,2.21-4.68,15.69,15.69,0,0,1,4.53-4.65c1.85-1.25,3.62-1.43,5.78-1.67,4.37-.48,7.91,4.79,6.63,8.71l.12-1c-.1.68-.19,1.36-.28,2a9.17,9.17,0,0,1-1.22,2.58c-.43.77-.82,1.54-1.28,2.29,0-.12.08-.23,0-.26a1.13,1.13,0,0,1-.1.38c-.39.64-.21.41,0,.1-.11.28-.22.6-.24.66a24.42,24.42,0,0,1-1.55,4.26c-1.43,2.9-5.14,4.31-8.15,3.9s-6.31-2.71-6.79-5.85a12.83,12.83,0,0,1,.34-6.76" fill="#fff257"/><path d="M1065.39,1977.8l0-.07-.11.22a.19.19,0,0,1,0-.09.11.11,0,0,1,0-.06" fill="#fff257"/><path d="M924.54,1877.81c5.17-9.53,22.88-6.38,29.33.23,3.29,3.37,2.11,10-2.92,11.08-4,.81-8,.59-12.05.82-1.85.09-3.73.29-5.57.33-3.12.09-5.22-1.06-7.57-3-2.69-2.24-2.76-6.61-1.22-9.45" fill="#fff257"/><path d="M948.35,1985.36c4.46-3.63,8.21-6.66,14.09-7.21,3.66-.34,6.85,3.4,6.82,6.81,0,5.35-2.79,9.55-5.79,13.75-3.76,5.26-8,10.34-14.92,10.56-5.17.16-9-4.36-9.22-9.22-.31-6.2,4.54-11,9-14.69" fill="#fff257"/><path d="M915,2008.34a7,7,0,0,1,8.29-4.06,11.53,11.53,0,0,1,1.68.67,6.48,6.48,0,0,1,4.16,12c-3.19,1.77-8.13,2.53-11.26.16-2.82-2.13-4.34-5.28-2.87-8.77" fill="#fff257"/><path d="M961.05,1723.74c3.51-5.45,9.73-6.8,15.42-4,6.23,3,12.57,8.49,15.06,15,1.44,3.79-1.62,9.36-5.68,10-7,1.11-14.93-1.61-20.76-5.58-4.87-3.31-7.5-10.06-4-15.42" fill="#fff257"/><path d="M939.51,1720.3a8.83,8.83,0,0,1,4.78-1.16,30.87,30.87,0,0,1,3.54.53l4.75.79c3.81.64,6.28,5.56,5.15,9.08-1.34,4.12-5,5.83-9.08,5.15-3.61-.61-7.86-.68-10.54-3.47-3-3.06-2.69-8.84,1.4-10.92" fill="#fff257"/><path d="M740,2250.21c39-4.05,78.64-9.65,117.94-11.42a4,4,0,0,1,3.81-1.07c25,5.48,41.74-34.3,18.58-43.95a64.23,64.23,0,0,1-5.23,6.32c-11.05,11.64-26.45,18.28-42,22.19s-31.65,5.38-47.42,8.42c-17.43,3.37-34.59,8.67-52.32,9.5s-36.77-3.54-48.8-16.58a31.81,31.81,0,0,1-7.13-11.68,31,31,0,0,1-.73-14.71c-6.42,12.06-1.67,33.15,3.7,44.24,10.14,20.92,41.24,10.65,59.63,8.74" fill="#878c92"/><path d="M847.2,2288.44c9.84-1.55,24-1.74,31.32-9.57,6.44-6.87,7.05-14.82,4.83-22.47-9.27,8.09-21.49,12.45-33.35,16.17-36.92,11.55-76.08,19.67-114.2,13.08-7.79-1.35-15.74-3.43-21.92-8.37a22.3,22.3,0,0,1-8.41-15l-.22,0a41.14,41.14,0,0,1-13.65-.85c.56,8.26,1,16.74,4,24.53,5,12.86,15.48,15.63,28.14,15.3,19.86-.5,39.83-2.62,59.59-4.63q32-3.27,63.83-8.25" fill="#878c92"/><path d="M874.59,2306.74c-26,14-56,21.17-85.6,24.13-8.38.84-17,1.35-25.11-.9-11.25-3.13-20.16-11.11-28.12-19.92-7.1.63-14.44,1.12-21.35.2,3.05,40.69,58.25,31.49,86.94,30.53,9.86-.33,20.24-.11,30.32-1.27a4.2,4.2,0,0,1,2.72-.35,67.82,67.82,0,0,0,17.32-4.64c11.76-5.09,20.66-15.61,22.88-27.78" fill="#878c92"/><path d="M795.05,2197.43c-12-4.31-25.86-2.5-38.52-2.68-14.29-.19-28.53-.31-42.81.43-5.13.26-6.89,8.37-1.28,9.45a395.72,395.72,0,0,0,41,5.43c13.59,1.15,28.33,4.28,41.58.39,6.69-2,6.12-10.82,0-13" fill="#c2c8ce"/><path d="M832.58,2201.88c-2.07-2.69-4.4-3.41-7.73-3.52a71.56,71.56,0,0,0-7.6.44,5.38,5.38,0,0,0,0,10.75,69,69,0,0,0,7.6.43c3.33-.11,5.66-.83,7.73-3.51a4.36,4.36,0,0,0,0-4.59" fill="#c2c8ce"/><path d="M800.1,2258c-8.3.07-16.48,1.89-24.68,3-6,.8-6.48,9.6,0,9.74,8.21.19,16.49,1.08,24.68.25s8.53-13,0-13" fill="#c2c8ce"/><path d="M814.65,2304.84c-9.16.15-16.45,3.37-24.55,7.2-3.08,1.46-1.5,6.36,1.71,6.29,7.61-.18,15.17,1,22.84.64,9-.45,9.14-14.27,0-14.13" fill="#c2c8ce"/><path d="M840.73,2308.84c-2.19-1.51-5.18-1-7.7-1a4.69,4.69,0,1,0,0,9.37c2.53,0,5.5.51,7.7-1a4.32,4.32,0,0,0,0-7.35" fill="#c2c8ce"/><path d="M796.79,2359.64c-2.73-.92-5.92-.84-8.78-1.18s-5.26-1-8.06.32a3.4,3.4,0,0,0-1.21,4.62c1.81,2.86,4.88,3.64,8,4.4s6.83,1.35,10,.53c4.52-1.14,4-7.33,0-8.69" fill="#fff257"/><path d="M806.51,2357.19l-.91-.05c-4.35-.24-4.35,7,0,6.75l.91,0a3.33,3.33,0,0,0,0-6.65" fill="#fff257"/><path d="M287.8,1602.73c-6.39-20.72-24.32-37-46.58-37.12-20.58-.07-47.18,9.56-54.92,30.11-19.07-11.85-43.07-18.65-64.31-9.43-23.39,10.15-32.41,37-29.72,60.86,3,26.94,20.32,49.71,41.82,65.19,10.63,7.66,22.32,13.24,34.17,18.69,18.57,8.55,30,17.33,37.93,35,0,.46-.09.89-.1,1.35-.06,6.41,10.13,10,11.9,2.75,8.69-35.7,29.78-58.74,50-88.18,15.56-22.65,28.38-51.41,19.82-79.18m-19.68,53C252.85,1686.35,221,1711.89,210,1745c-15.27-21.53-56.35-33-72.88-46.15-22.2-17.7-39.67-46.95-30.81-76.2,4.71-15.55,16.53-26.52,33-28.29,18.48-2,33.37,7.59,48.54,16.34,6.32,3.65,12.63-4.88,6.61-9.4-.4-.3-.83-.59-1.25-.9,13.82-19.61,47.85-31.77,68-15.68,22.12,17.64,18.19,48.44,6.91,71" fill="#231f20"/><path d="M141.87,1666.12c-4.73-6.67-11.9-9.66-14.91-18a27.66,27.66,0,0,1-1.32-13.56c.56-3.91,1.8-6.41.88-10.22a2.07,2.07,0,0,0-2.89-1.5c-9.38,4.46-8.11,20.55-5.11,28.74,3.22,8.82,11.43,19.64,21.76,18.88,2.21-.17,2.65-2.89,1.59-4.37" fill="#231f20"/><path d="M160.32,1683.32c-3.18-2.52-6.59-4.73-10-7-2.59-1.74-6.26,1.82-3.85,4.2,3.09,3.06,6.14,6.15,9.47,9a3.8,3.8,0,0,0,4.61-.2,3.37,3.37,0,0,0,.65-.71,3.9,3.9,0,0,0-.92-5.26" fill="#231f20"/><path d="M516.57,2235.23c-2.2-28.57-18.67-50.86-40.64-68.19-25.13-19.82-54.05-35.84-85.33-43.32a195.94,195.94,0,0,0-94.68,1c-27.06,7.09-55.61,20-71.56,44.07-28.91,43.58-19,117.48,22.66,149.75,27.6,21.37,62.79,20.92,96,20.44,17.09-.25,35-.45,51.27,5.6,20.69,7.72,29.65,25.83,38.5,44.69,1.55,3.31,6,2.62,7.87.25,3.66,2.24,9.53-2.16,7.12-7.18-18.34-38.15,29-53,47.5-77.27,15-19.69,23.24-45,21.34-69.79m-9.8,10.43c-1.28,31.82-19.23,58.32-44.84,75.92-17.44,12-29.32,28.05-28.2,47.11-8.71-16.3-20.83-29.19-40.2-35.23-25.37-7.91-52.51-3.71-78.57-4.59-31.67-1.07-62.37-10.88-80-38.89-14.48-23.05-18.62-52-14.74-78.67,5.29-36.49,27.82-59,61.47-71.62a183.77,183.77,0,0,1,97.58-8.22c30.67,5.77,58.57,19.86,83.65,38.14,25.67,18.7,45.16,42.88,43.82,76" fill="#231f20"/><path d="M431.42,2183.16c-22.13-5.31-46.63-2.84-69.22-2.59s-46.66-.86-68.94,3.63a1.45,1.45,0,0,0,0,2.78c22.29,4.49,46.29,3.38,68.94,3.63s47.12,2.72,69.22-2.59a2.54,2.54,0,0,0,0-4.86" fill="#231f20"/><path d="M438.09,2221.61c-26.15-5.31-55.12-2.84-81.82-2.59s-55.16-.85-81.49,3.63a1.4,1.4,0,0,0,0,2.78c26.35,4.49,54.72,3.39,81.49,3.64s55.71,2.71,81.82-2.6a2.45,2.45,0,0,0,0-4.86" fill="#231f20"/><path d="M438.09,2249.48c-26.15-5.31-55.12-2.85-81.82-2.6s-55.16-.85-81.49,3.64a1.4,1.4,0,0,0,0,2.78c26.35,4.49,54.72,3.38,81.49,3.63s55.71,2.72,81.82-2.59a2.45,2.45,0,0,0,0-4.86" fill="#231f20"/><path d="M438.09,2277.34c-26.15-5.31-55.12-2.84-81.82-2.59s-55.16-.85-81.49,3.63a1.41,1.41,0,0,0,0,2.79c26.35,4.49,54.72,3.38,81.49,3.63s55.71,2.71,81.82-2.59a2.46,2.46,0,0,0,0-4.87" fill="#231f20"/><path d="M289.86,2152.54c-10-2.72-24.53,5-32.6,10.44-7.86,5.32-18.84,14.65-16.81,25.17a2.47,2.47,0,0,0,4.11,1.08c3.25-3.55,5.22-7.89,8.55-11.43a52.76,52.76,0,0,1,13.4-9.94c7.6-4.13,18.13-5.19,24.46-11.11a2.54,2.54,0,0,0-1.11-4.21" fill="#231f20"/><path d="M314.08,2147.56a21.47,21.47,0,0,0-11.94,3.61,2.55,2.55,0,0,0,.6,4.6,21.39,21.39,0,0,0,12.37-.57c4-1.38,3.55-7.73-1-7.64" fill="#231f20"/><path d="M398.38,1397.57c19.6-28.1,19.76-60.12,9.05-91.58.75-.84,1.49-1.71,2.23-2.53,11.08-12.41,22.22-24.77,33.08-37.37,10.34-12,22.34-24,30.38-37.74.77.25,1.54.54,2.31.78a3.42,3.42,0,0,0,.45,0,5.8,5.8,0,0,0,7.91-1.92,143.09,143.09,0,0,0,11.39-129.09c-.7-1.76-2.05-3.51-4.09-3.8a189.21,189.21,0,0,0-64.82,1.86c-16.78,3.49-44.94,9.53-53.88,26.17a3.83,3.83,0,0,0-3,4.5c.18.79.46,1.55.66,2.33a3.13,3.13,0,0,0-2.65.71c-24.57,22.38-45.54,49.72-67.11,74.94l-2.27,2.67c-20.62-14.7-52.75-3.85-73.16,5.78-30.24,14.29-51.3,41.2-59.66,73.36-.78,3,1.95,6.69,5.19,6.24a646,646,0,0,0,76.9-14.92,26.55,26.55,0,0,0,3.1,7.29c-7,6.11-17.8,18.43-16.46,28.4a21.86,21.86,0,0,0,.9,3.44c-21.27,6.07-37.51,24.26-45.06,44.53-1,2.78-.11,6,3.14,6.74a34.68,34.68,0,0,0,6.71.81,112.29,112.29,0,0,0-20.51,34c-3.55,9.18-12.41,30.73-6.19,40.07,6.1,9.15,21.11-1.69,27.94-5a239,239,0,0,0,41-24.78c-.69,2-1.33,4.16-2,6.41a4.24,4.24,0,0,0,3.18,5c12.63,2.64,25.67-9.81,34.64-17.19,9.82-8.09,22.23-20.14,21.58-33.8a2.38,2.38,0,0,0-.28-.77c10.87.64,17.26-6.66,25.54-13.48a3.87,3.87,0,0,0,1-4.68,76.57,76.57,0,0,0,7.55,2.19,5.46,5.46,0,0,0-1.36,3.37c-1.34,29.18-4.93,56.83-14.4,84.58-1.12,3.28,2.34,7.15,5.65,6.78,31-3.49,58.23-29.81,75.38-54.38m33.31-291.08a173.3,173.3,0,0,1,54.21-1.6,132.62,132.62,0,0,1-9.49,112.86c-46-14.87-74.77-47.58-97.49-88.22.05-.06.1-.08.15-.14,11.55-14.1,35.26-19.52,52.62-22.9m-187,162.1q-22,5.09-44.06,9.1a151.6,151.6,0,0,1,12.48-16.33c8.85-9.66,20.9-15.81,29.25-25.63,1.13-1.32.34-4.14-1.74-3.79-12.78,2.1-23.72,12.35-32.41,21.52-6.48,6.84-15.16,16.14-17.79,26-4.27.72-8.53,1.43-12.82,2.06,15.94-45.39,67.59-82.63,115.88-68.61q-12.92,15.12-25.8,30.26c-6,7.08-16.9,16-20,25.69a4.73,4.73,0,0,0-3-.28m30.89,129.07c-5.57,5.1-17.24,16.38-26.39,18.73a67.09,67.09,0,0,0,1.58-9.88l.37-.29c3-2.53-1.1-7.06-4.26-5.18-11.69,7-23.36,14.08-35.36,20.54q-6.75,3.64-13.65,7-6.3,3.06-12.74,5.85a12.83,12.83,0,0,0-4.28,1c-1.45-7.46,8.58-32.59,10.31-36.5,5.2-11.74,12.53-21.9,20.65-31.71a4,4,0,0,0,1.21-1.49l.69-.86a3.3,3.3,0,0,0-2.69-5.53,4.6,4.6,0,0,0-3.79-.56,21.59,21.59,0,0,1-6.75,1c7-17.32,20.31-28.38,37-36.63a63.9,63.9,0,0,0,5.48,8.19,30.21,30.21,0,0,0-14.6,7.89c-3.44,3.29-9.22,9.79-6.12,14.71a1.55,1.55,0,0,0,1.73.66c4-1.26,5.5-6.45,8.07-9.43,4-4.64,9-7.18,14.61-9.34,4.79,5.52,10,10.54,13.77,14.23,5.78,5.6,12.55,11.76,20,16.34a73.6,73.6,0,0,0-9.34,11.69c-2.18,3.22,3.15,5.9,5.34,2.78a69.62,69.62,0,0,0,7.25-12.58s0,0,0-.07a43.86,43.86,0,0,0,11,4.29c-6.89,8.22-10.89,17.61-19.08,25.1m18.32-36.94c-10.58-3.57-20.2-12.58-28.09-20.27A137.9,137.9,0,0,1,253,1326.08c-2.29-3-8.15-8.82-8.85-12.76-1.38-7.74,6.15-16.24,9-24,2,2.78,4.2,5.41,6,7.86A296.62,296.62,0,0,0,283,1325.67c10,10.36,22.2,20.3,35.73,26.57-9.06,3.81-13.35,12.34-24.8,8.48M345,1349.07c-.17-.06-.28-.17-.46-.22-22.6-6.21-39.25-15.81-55.49-32.95a287.63,287.63,0,0,1-21.7-26.42c-5.38-7.21-10.53-11.2-5.94-21.65,2.27-5.17,9-10.57,12.69-14.91,32.72-38.45,69.71-76.21,97.51-118.48,13.58,43,53.61,76.15,95.09,91.67-9.6,7.75-17.75,17.64-26.13,26.58-11.37,12.15-22.46,24.55-33.53,37-19.44,21.76-37.17,44.16-62,59.43m-14,90c1.27-4.1,2.43-8.27,3.52-12.46,20.08-8.27,43.73-31.08,46-51.83a2.36,2.36,0,0,0-4.38-1.59C369,1383.8,363,1394.62,354,1403.75c-5.34,5.39-11.37,9.83-17.37,14.33,4.25-18.6,6.55-37.72,5.83-56.62a4.81,4.81,0,0,0,1.92-.21c23.43-7.33,41-29.21,57.07-48.22,3.35,26.59,6.53,50.74-9.69,75.26-13.32,20.15-36.06,43.93-60.76,50.81" fill="#231f20"/><path d="M230.37,1364.58c1.51-2.11,3-4.24,4.5-6.36s-1.25-4.93-3.05-2.84-3.63,4.17-5.43,6.27c-1.5,1.77-3.24,3.24-3.06,5.68a1.85,1.85,0,0,0,2.34,1.68c2.33-.41,3.41-2.63,4.7-4.43" fill="#231f20"/><path d="M248.89,1368.92a2.26,2.26,0,0,0-4-2.09A97,97,0,0,1,224,1392.25c-7.37,6.44-16.83,10.4-23.48,17.43-1.59,1.68-.29,4.87,2.12,4.64,21.6-2,38.28-27.52,46.3-45.4" fill="#231f20"/><path d="M258.48,1379.4a62,62,0,0,0-8.25,6.36,2.42,2.42,0,0,0-.55,2.36,2,2,0,0,0,1.2,1.45,2.42,2.42,0,0,0,2.4-.1,63,63,0,0,0,7.88-6.81c1.71-1.68-.69-4.6-2.68-3.26" fill="#231f20"/><path d="M195.4,1284c.06,0,.15,0,.09-.1" fill="#231f20"/><path d="M471.46,1114.83c-6.79-4.06-16.77-3.74-24.38-2.82-6.68.81-16.68,1.83-20.57,8a2.55,2.55,0,0,0,1.69,3.63c6.26,1.25,13.79-3,20.14-3.65,7.35-.8,14.69.87,21.93.18a2.83,2.83,0,0,0,1.19-5.3" fill="#231f20"/><path d="M409.76,1125.51c-2.51,1.84-5.11,3.6-7.46,5.64s1,6.11,3.54,4.31,4.87-3.91,7.27-5.89-.94-5.83-3.35-4.06" fill="#231f20"/><path d="M414.55,1250.81c7.3-11.56,10.91-23.3,3.25-35.53-3.88-6.2-9.68-13.12-16.6-16.74-14.28-23.53-52.76-10.78-65.68,7.61-15.22,21.63-13.44,54.09,11.48,67.35,24.65,13.11,53.68-.68,67.55-22.69m-60.35,15.83c-20-8.53-23.07-29.57-15.48-48,8.55-20.8,31-29.65,50.27-21.43a2,2,0,0,0,.74,2.63c7.31,4.69,13.45,9.7,18.54,16.85,7.93,11.14,4.05,22.82-3.72,33-11.41,15-31.94,24.82-50.35,17" fill="#231f20"/><path d="M398.82,1244.5c4.65-7.39,7-14.88,2.07-22.69-2.48-4-6.18-8.38-10.6-10.69-9.12-15-33.69-6.88-41.94,4.86-9.72,13.81-8.58,34.54,7.33,43,15.74,8.38,34.28-.43,43.14-14.48m-38.54,10.11c-12.77-5.45-14.73-18.88-9.89-30.67,5.47-13.28,19.79-18.94,32.1-13.69a1.31,1.31,0,0,0,.48,1.69,40.62,40.62,0,0,1,11.83,10.75c5.07,7.11,2.59,14.57-2.37,21.08-7.29,9.55-20.4,15.85-32.15,10.84" fill="#231f20"/><path d="M391.21,1237.93a14.4,14.4,0,0,0,1.23-11.69,2.72,2.72,0,0,0-2.65-1.89l.56,0a1.48,1.48,0,0,0-2.46,1,2.31,2.31,0,0,0-.66,1.73,11.37,11.37,0,0,1-1.55,8c-1.24,1.92-3.79,3.55-4.23,5.85a1.65,1.65,0,0,0,.81,1.75c3.38,2,7.42-2.07,8.95-4.73" fill="#231f20"/><path d="M380.21,1245.87c1.13-2.53-2.39-5.53-4.27-3a9,9,0,0,1-3.54,2.89c-2.87,1.42-.69,6.12,2.29,5.09a9.13,9.13,0,0,0,5.52-5" fill="#231f20"/><path d="M340.62,1321a19.88,19.88,0,0,0-15.19,2.38,1.83,1.83,0,0,0,1.49,3.29,23.92,23.92,0,0,1,12.56-.55c3.32.66,4.41-4.25,1.14-5.12" fill="#231f20"/><path d="M352.75,1330.19c-3.9-1.4-9.36.32-13.44.75-4.76.51-9.53.84-14.32,1-2.56.09-2.31,3.75.15,3.9,5,.3,10.05.47,15.09.37,4.1-.08,9.71.44,13.21-2,1.75-1.19,1.11-3.44-.69-4.09" fill="#231f20"/><path d="M348,1342.49c.09-2.81-4.45-1.42-5.88-2.49-2-1.48-4.62,1.22-2.66,2.86a7.22,7.22,0,0,0,7.15,1.57,2,2,0,0,0,1.39-1.94" fill="#231f20"/><path d="M1232.67,2286.84c-2.78-10.63-12.66-16.57-22.87-16.76a187.2,187.2,0,0,0,8.34-20.15c.55-1.56.3-3.65-1.49-4.35q-15.8-6.27-31.56-12.6a3.18,3.18,0,0,0-4.51,3.05c.2,10.35-18,19.6-23.44,9.07-3.15-6.08,2.11-14.49,5.31-20a3.36,3.36,0,0,0-1.52-4.43,204.67,204.67,0,0,0-27.5-12.86,3.3,3.3,0,0,0-4.3,1.47,167.83,167.83,0,0,0-12.62,28.86c-.82,2.47,2.14,4.1,4.15,3.58,12.11-3.11,22.92,10.1,15.14,21-7.29,10.19-20.59,7.92-27.19-1.74-1.37-2-4.93-2.1-5.92.39-3.61,9.13-7.21,18.27-10.88,27.38a3.41,3.41,0,0,0,1.54,4.49L1119.7,2305a3.48,3.48,0,0,0,.73.17c-3.23,6.09-10.55,9.56-10.69,17.39-.12,7.06,5.32,13.44,11.4,16.39a21.6,21.6,0,0,0,19.48-.41,14.19,14.19,0,0,0,6.25-6.56c1.78-4,0-9.55,1.24-13.66,7.25,3.66,15.77,9.15,23.16,9.86,6.5.63,8.7-4.51,11.39-9.52,1.68-3.12,4.77-13.44,7.7-15.09,5.9-3.34,8.23,5,11.15,7.83,3.86,3.71,8.66,4.78,13.87,3.67,12.14-2.61,20.42-16.21,17.29-28.19m-22.22,19.75c-7.44-1.87-5.85-4.31-10.82-8.76-2.1-1.88-4.8-3.46-7.69-3.46-7.15,0-8.81,8.43-11.58,13.7-3.84,7.31-4.77,13.84-13.84,11.07-6.3-1.92-12.46-5.6-18.42-8.37a3.44,3.44,0,0,0-4,.8c-2.15,2.71-2.79,3.84-3.19,7.42-.35,3.13.68,6-.67,9-2.45,5.56-10.2,7.39-16,4.71-5.08-2.34-6.81-10.9-5-15.85.69-1.88,3.66-3.67,4.8-5.45a14.28,14.28,0,0,0,2.55-8.51,2,2,0,0,0-2-2.22,3,3,0,0,0-1.79-1.94l-23.57-10.36q3.84-9.64,7.74-19.26c11.42,10.23,30.29,9.18,36.46-7.32,5.26-14.11-5.64-26.66-19-26.81a161.8,161.8,0,0,1,9.18-20.27,199.53,199.53,0,0,1,21.47,10.17c-6.33,11.71-10.75,26.67,6.07,30.1,11.73,2.39,23-3.55,25.37-14.75q12.3,5,24.6,10a217.54,217.54,0,0,1-9.93,22.24c-1.43,2.76,1.43,5.32,4.1,4.65,9.27-2.33,20.28,3.18,21.4,13.44a17.53,17.53,0,0,1-2,9.44c-3.27,6.18-7.33,8.24-14.08,6.54" fill="#231f20"/><path d="M1300.55,2247.59c-10.63,2.77-16.57,12.65-16.75,22.86a188.21,188.21,0,0,0-20.16-8.34c-1.56-.55-3.65-.3-4.35,1.49q-6.27,15.8-12.6,31.56a3.18,3.18,0,0,0,3,4.51c10.35-.2,19.6,18,9.07,23.44-6.08,3.15-14.49-2.12-20-5.31a3.36,3.36,0,0,0-4.42,1.52,206.61,206.61,0,0,0-12.88,27.5,3.31,3.31,0,0,0,1.48,4.3,167.06,167.06,0,0,0,28.86,12.62c2.47.82,4.1-2.14,3.58-4.14-3.11-12.12,10.1-22.93,21-15.15,10.19,7.3,7.92,20.59-1.74,27.19-2,1.37-2.09,4.93.4,5.92,9.12,3.62,18.26,7.21,27.37,10.88a3.42,3.42,0,0,0,4.5-1.54q5.88-13.17,11.77-26.35a4,4,0,0,0,.16-.73c6.09,3.23,9.57,10.56,17.4,10.69,7,.12,13.43-5.32,16.38-11.4a21.57,21.57,0,0,0-.41-19.48,14.14,14.14,0,0,0-6.56-6.25c-4-1.78-9.55,0-13.65-1.24,3.65-7.25,9.15-15.76,9.86-23.16.62-6.49-4.52-8.7-9.53-11.39-3.12-1.67-13.44-4.77-15.09-7.7-3.34-5.89,5-8.22,7.83-11.14,3.71-3.87,4.79-8.66,3.67-13.87-2.61-12.15-16.21-20.43-28.19-17.29m19.75,22.21c-1.87,7.44-4.31,5.85-8.76,10.82-1.88,2.1-3.46,4.8-3.46,7.69,0,7.15,8.43,8.81,13.7,11.58,7.31,3.84,13.84,4.77,11.07,13.85-1.92,6.29-5.6,12.45-8.37,18.41a3.47,3.47,0,0,0,.8,4c2.71,2.14,3.84,2.78,7.42,3.18,3.14.35,6-.68,9,.67,5.57,2.45,7.39,10.21,4.71,16.05-2.34,5.08-10.9,6.81-15.85,5-1.88-.69-3.67-3.65-5.45-4.8a14.33,14.33,0,0,0-8.51-2.55,2,2,0,0,0-2.22,2,3,3,0,0,0-1.94,1.79l-10.36,23.58q-9.64-3.85-19.26-7.75c10.23-11.42,9.19-30.29-7.32-36.45-14.1-5.27-26.65,5.64-26.8,19a162.06,162.06,0,0,1-20.29-9.18,202.53,202.53,0,0,1,10.19-21.47c11.71,6.33,26.66,10.75,30.09-6.06,2.4-11.74-3.55-23.05-14.74-25.37q5-12.32,10-24.61a219.58,219.58,0,0,1,22.23,9.93c2.77,1.44,5.32-1.43,4.65-4.11-2.33-9.26,3.18-20.27,13.44-21.39a17.6,17.6,0,0,1,9.44,2c6.18,3.28,8.24,7.34,6.54,14.09" fill="#231f20"/><path d="M1263.52,2181.4c2.78,10.64,12.65,16.58,22.87,16.76a188.27,188.27,0,0,0-8.35,20.16c-.54,1.56-.3,3.64,1.49,4.35q15.81,6.26,31.57,12.6a3.19,3.19,0,0,0,4.51-3.06c-.21-10.34,18-19.6,23.44-9.06,3.15,6.08-2.12,14.48-5.31,20a3.35,3.35,0,0,0,1.52,4.42,205.18,205.18,0,0,0,27.49,12.87,3.31,3.31,0,0,0,4.31-1.47,167.83,167.83,0,0,0,12.62-28.86c.82-2.48-2.14-4.1-4.15-3.59-12.12,3.12-22.92-10.09-15.14-21,7.29-10.19,20.59-7.92,27.18,1.73,1.37,2,4.93,2.1,5.92-.39,3.62-9.13,7.22-18.26,10.89-27.37a3.44,3.44,0,0,0-1.54-4.5l-26.35-11.77a3.39,3.39,0,0,0-.74-.16c3.23-6.1,10.56-9.57,10.7-17.4.12-7-5.33-13.43-11.41-16.39a21.58,21.58,0,0,0-19.47.42,14.16,14.16,0,0,0-6.25,6.55c-1.79,4,0,9.56-1.24,13.66-7.25-3.65-15.77-9.14-23.17-9.86-6.49-.63-8.69,4.52-11.38,9.53-1.68,3.12-4.77,13.44-7.7,15.09-5.9,3.33-8.23-5-11.15-7.83-3.86-3.71-8.66-4.79-13.87-3.67-12.15,2.61-20.42,16.21-17.29,28.18m22.21-19.75c7.44,1.88,5.86,4.31,10.83,8.77,2.09,1.88,4.79,3.45,7.69,3.46,7.14,0,8.81-8.43,11.57-13.7,3.85-7.31,4.77-13.84,13.85-11.07,6.3,1.92,12.45,5.6,18.41,8.36a3.45,3.45,0,0,0,4-.79c2.15-2.71,2.79-3.84,3.18-7.43.35-3.13-.67-6,.67-9,2.46-5.56,10.21-7.38,16-4.7,5.09,2.34,6.81,10.9,5,15.85-.69,1.88-3.65,3.67-4.79,5.45a14.19,14.19,0,0,0-2.55,8.51,2,2,0,0,0,2,2.22,3,3,0,0,0,1.79,1.94l23.57,10.36q-3.84,9.64-7.74,19.25c-11.42-10.22-30.3-9.18-36.46,7.33-5.27,14.1,5.64,26.65,19.05,26.8a161.34,161.34,0,0,1-9.19,20.28,199.45,199.45,0,0,1-21.46-10.18c6.32-11.71,10.74-26.66-6.07-30.09-11.73-2.4-23,3.54-25.37,14.74q-12.32-5-24.6-10a215.22,215.22,0,0,1,9.93-22.23c1.43-2.77-1.44-5.32-4.11-4.65-9.26,2.32-20.28-3.18-21.4-13.45a17.65,17.65,0,0,1,2-9.44c3.28-6.17,7.33-8.24,14.08-6.54" fill="#231f20"/><path d="M1185.13,2214.54c10.87-1.69,17.77-10.92,19-21.07a186.36,186.36,0,0,0,19.21,10.34c1.49.7,3.59.67,4.48-1q7.82-15.08,15.71-30.13a3.18,3.18,0,0,0-2.58-4.79c-10.32-.84-17.69-19.87-6.66-24.24,6.36-2.52,14.2,3.57,19.38,7.31a3.38,3.38,0,0,0,4.56-1.07,206,206,0,0,0,15.57-26.07,3.3,3.3,0,0,0-1-4.43,168.47,168.47,0,0,0-27.43-15.46c-2.38-1.07-4.3,1.72-4,3.76,1.88,12.37-12.35,21.8-22.38,13-9.41-8.28-5.81-21.28,4.46-26.87,2.13-1.16,2.59-4.7.21-5.93-8.72-4.52-17.44-9-26.14-13.59a3.42,3.42,0,0,0-4.63,1.09q-7.17,12.51-14.36,25a3.38,3.38,0,0,0-.24.72c-5.74-3.83-8.46-11.47-16.23-12.39-7-.84-13.9,3.94-17.45,9.69a21.58,21.58,0,0,0-1.55,19.42,14.15,14.15,0,0,0,5.89,6.88c3.82,2.17,9.5,1,13.46,2.6-4.37,6.85-10.69,14.77-12.14,22.06-1.27,6.4,3.61,9.1,8.33,12.29,2.94,2,12.89,6.1,14.24,9.17,2.72,6.21-5.82,7.68-8.92,10.31-4.08,3.47-5.63,8.13-5,13.43,1.37,12.34,14.07,21.95,26.29,20m-17.4-24.09c2.61-7.21,4.87-5.39,9.8-9.89,2.09-1.89,3.93-4.42,4.23-7.3.72-7.11-7.51-9.61-12.47-12.89-6.89-4.56-13.29-6.14-9.62-14.9,2.54-6.07,6.82-11.83,10.18-17.48a3.43,3.43,0,0,0-.39-4.09c-2.48-2.41-3.54-3.16-7.06-3.92-3.08-.66-6,.07-8.93-1.57-5.29-3-6.32-10.9-3.06-16.44,2.84-4.82,11.53-5.68,16.27-3.38,1.8.87,3.28,4,4.94,5.32a14.29,14.29,0,0,0,8.21,3.39,2,2,0,0,0,2.41-1.75,3,3,0,0,0,2.1-1.59l12.69-22.41q9.2,4.8,18.38,9.64c-11.33,10.34-12.19,29.22,3.61,37,13.5,6.67,27.09-2.92,28.59-16.25a159.4,159.4,0,0,1,19.25,11.19,201.81,201.81,0,0,1-12.29,20.33c-11-7.48-25.45-13.38-30.55,3-3.57,11.43,1.2,23.28,12.11,26.73q-6.21,11.75-12.44,23.47a220,220,0,0,1-21.12-12.12c-2.6-1.71-5.44.89-5,3.61,1.38,9.45-5.21,19.86-15.53,19.94a17.72,17.72,0,0,1-9.19-3c-5.81-3.88-7.45-8.12-5.08-14.67" fill="#231f20"/><path d="M1478.35,1622.29c-11.33-30.28-32.26-54.82-39.34-87.06a166.46,166.46,0,0,1,10.5-103.08,3.92,3.92,0,0,0-.74-4.45c10.54.51,26.13-5.69,22-19.09-4.39-14.33-33-18.22-44.78-20.43-13.26-2.49-40-8.45-51.35,2.81-9.09,9-1.83,19.49,6.59,25.52a2.67,2.67,0,0,0-.29.81c-5.06,35.15-9.44,71-23.81,103.81a153.15,153.15,0,0,1-22.65,37.32c-10.45,12.42-23.58,21.26-36.25,31.16-42.69,33.36-50.92,87.91-21,132.86,6.8,10.22,13.86,21.71,24,29,12.44,8.87,28.25,10.9,42.92,13.57,27.71,5,57.21,8.34,83.82-3.2,48.17-20.88,67.81-92.78,50.33-139.52M1380,1759.45c-15.6-.36-31.19-3-46.49-5.93-21.21-4-32.71-12.79-44.86-30.35-16.3-23.54-25.68-48.82-18.39-77.58,7.7-30.36,29.75-44.71,52.59-63.29,48.93-39.83,58.2-104.35,63.19-163.48,3-.17,5-4.53,2.34-6.92-4.46-4-7.47-5.71-5.85-11.76s4.08-5.26,9.5-5.76c9.75-.89,20.14.39,29.77,2a152.17,152.17,0,0,1,24.48,6.29c1.72.59,11.48,2.74,12.06,4.79,1.47,5.08-4.61,10.61-9.23,12.88-6.58-1.16-13.6-.43-20.24-1.07-8-.76-16.76-4-24.66-2.57a1.51,1.51,0,0,0-.85,2.6c6.21,5.38,16.24,6.13,24.17,7a104.62,104.62,0,0,0,15.34,1,3.93,3.93,0,0,0-.8,1.14c-20,43.18-21.51,94.19-2.9,138.14,10.22,24.13,28.31,45.12,33.7,71.16,5.77,27.92-2.59,63.23-17.62,87.29-16.42,26.29-45.68,35.05-75.25,34.36" fill="#231f20"/><path d="M1460.6,1625.12c-11.42-5.4-22.9-3.41-34.86-.78-9,2-17.69,4.18-27,3.37-11-1-21-5.59-30.89-10.4-19.62-9.59-48.23-25.18-68.92-9.75a2.44,2.44,0,0,0,2.17,4.29c31.89-9.11,52.69,11.53,81,21.6,26.29,9.33,49.92-6.5,75.92-.88,4.36.94,6.53-5.54,2.48-7.45" fill="#231f20"/><path d="M1324.9,1637.82c-1.73-4.28-6.05-6.25-10.38-6.92-3.23-.49-7.65-1-10.51.78a2.48,2.48,0,0,0-3.27-.59c-7.55,5-14.07,13.26-11.24,22.9s14,12.62,22.49,8.31c7.39-3.73,16.41-15.83,12.91-24.48m-16.08,15.87c-4.77,3.3-11.87,2.68-12.74-4.07-.66-5.06,2.54-9.46,6-13,0,0,0,.08,0,.11,3.35,4,8.09,1.21,12.37,3.35,5,2.5-2.67,11.57-5.63,13.62" fill="#231f20"/><path d="M1344.94,1675.58c-3.07-4.51-11.9-7.08-15.72-2.39a6.65,6.65,0,0,0-7.51,1.27c-2.86,2.69-2.79,7.14-1.4,10.55,2.9,7.06,11.56,11.43,18.77,8.26,6.45-2.84,10-11.57,5.86-17.69m-7.14,9.75c-2.08,2.25-5.24,2.29-7.8.83a8.28,8.28,0,0,1-3.29-3.32c-1-1.85-1.1-5.51,2-4.61a2.11,2.11,0,0,0,.6.06,2.93,2.93,0,0,0,2.27.38c2.09-.53,4.14-1.38,6.14,0,2.37,1.64,1.84,4.72.07,6.64" fill="#231f20"/><path d="M1397.37,1655.45c-4.59-3.9-16.81-6.65-18.67,1.57a2.62,2.62,0,0,0,2.07,3c3.45.63,6.61-1.32,10,.38,3.62,1.78,4.57,5.56,2.53,9-6,10-19.55-2.14-15.09-11.18,1.13-2.28-1.83-5.3-4-3.45-6.47,5.59-3.38,15.34,2.09,20.54,6.4,6.09,15.86,6.78,22-.06,5.17-5.79,5.06-14.64-1-19.78" fill="#231f20"/><path d="M1454,1698.14a3,3,0,0,0-3.7-1.76c-5.36,1.69-6.75,5.91-9.85,10.34a80.79,80.79,0,0,1-15.81,16.75c-10.62,8.43-24.44,16.64-37.61,20-2.22.56-1.38,4,.82,3.87,17-1.43,30.62-5,44.12-16,8.16-6.62,25.78-21.34,22-33.2" fill="#231f20"/><path d="M1463.79,1673.67c-1.19-2.58-5.35-4.36-7.35-1.39s-2.59,7.79-2.84,11.53c-.19,2.69,2.64,5.35,5.23,3.43,3.66-2.71,7.05-9,5-13.57" fill="#231f20"/><path d="M1396,1488.91a150.68,150.68,0,0,0-2-45.74c-.53-2.79-4.59-2.59-4.48.37a222.59,222.59,0,0,1-2.94,46.12c-2.13,12.29-7.69,24.64-7.59,37.1,0,2.26,3.09,3,4.47,1.46,9-10.2,11-26.21,12.52-39.31" fill="#231f20"/><path d="M1369.63,1543.89a44.59,44.59,0,0,1-7.18,13.4c-2.48,3.13-7.19,5.66-7.75,9.72a2.38,2.38,0,0,0,1.88,2.76c5.09.35,8.59-5,11.24-8.87a46.74,46.74,0,0,0,6.77-15.35c.71-2.83-4-4.48-5-1.66" fill="#231f20"/><path d="M1435,1965.06c1.65-19.55,3.14-39.11,4.69-58.67a4.52,4.52,0,0,0-.91-3.21,4.65,4.65,0,0,0-1.74-3.63c-12.9-10.84-26.14-21.24-39.86-31q-10.29-7.33-20.88-14.23c-4.07-2.66-9.85-7.68-15.09-7.79-5.5-.11-12.36,4.75-17,7q-11.55,5.52-23,11.2c-13,6.41-27,12-39.06,20.21-.7-.37-1.39-.76-2.08-1.12-3-1.53-5.77,1.26-6.32,3.88a814.09,814.09,0,0,0-15.14,101.14,4.67,4.67,0,0,0,2.91,4.74,200.69,200.69,0,0,1,72.12,45.56,5,5,0,0,0,7.07,0,3,3,0,0,0,.71-.31c13.73-9.26,26.88-17.73,42.24-24.14,13.41-5.6,30.16-8.49,42.51-16,10.41-6.35,8-23.14,8.84-33.5M1268,1986.22a654.68,654.68,0,0,1,13.53-90.94c23.23,13.39,42.26,30.44,62.32,48.31.08.07.16.08.24.14-4.41,12.11-3.48,27.34-4.65,39.71-1.42,15-4.48,31.49-1.88,46.59a207.4,207.4,0,0,0-69.56-43.81m80.29-48.89c-15.34-20.47-37.25-36.45-59.68-48.93,9.18-3.2,18-7.63,26.82-11.58,6.24-2.8,12.49-5.54,18.72-8.35s14.3-8.52,20.94-9.63c14.32-2.38,29.53,12.49,40.47,20.41,10.75,7.78,21.16,16,31.39,24.43-27,8.71-54.58,18.59-75.55,38a30.93,30.93,0,0,0-.74-3,2.22,2.22,0,0,0-2.37-1.31m74.92,48.06c-2.91,7.14-13.42,8.78-20,11.16-21.11,7.64-45.87,16-61.66,33,5.25-14.11,5.58-30.53,7.14-45.24.92-8.68,3.12-18.51,3.7-28l.45-.2a4.29,4.29,0,0,0,2.4-4.54l-.3-1.87s0,0,0-.08c3.59-2.79,12-9.26,13.44-10.24a143.31,143.31,0,0,1,22.65-12.78c12.51-5.79,25.6-10.16,38.74-14.26-1.43,15.46-2.88,30.9-4.24,46.36-.65,7.43.54,19.7-2.3,26.65" fill="#231f20"/><path d="M1287,1970.1c-2.26-.46-4.24,1.22-6.2,2.15-2.24,1.07-4.52,2-6.76,3.1a1.77,1.77,0,0,0,1,3.33,25.58,25.58,0,0,0,7.8-1.88c2.15-.87,4.92-1.79,5.68-4.17a1.9,1.9,0,0,0-1.55-2.53" fill="#231f20"/><path d="M1322.17,1964.49c-7,.52-13.71,4.59-20.06,7.34-7.3,3.17-14.51,6.51-21.73,9.83-2,.92-.62,3.84,1.41,3.09,7.48-2.76,15-5.48,22.39-8.4,6.44-2.53,14-4.39,19.31-8.95a1.67,1.67,0,0,0-1.32-2.91" fill="#231f20"/><path d="M1331.8,1970.78c-6.09,1.18-11.84,5-17.42,7.68-6.31,3-12.62,6.06-19.06,8.79-1.4.59-.72,3.07.8,2.61,6.48-2,12.9-3.9,19.18-6.43,6-2.43,13.29-4.77,18-9.29,1.31-1.25.47-3.75-1.52-3.36" fill="#231f20"/><path d="M1328.51,1982.7c-3.72.64-7,3.18-10.23,5-3.65,2.07-7.33,4.09-11,6.12-1.42.78-.44,3,1,2.31,3.79-1.78,7.57-3.59,11.36-5.34,3.37-1.55,7.39-2.72,10.08-5.34a1.58,1.58,0,0,0-1.26-2.76" fill="#231f20"/><path d="M1329.77,1995c-4.31.71-8.76,3.73-12.68,5.61a1.36,1.36,0,0,0,1.14,2.47c4-1.78,9.15-3.22,12.46-6.06a1.16,1.16,0,0,0-.92-2" fill="#231f20"/><path d="M1332.19,2009.54c-3.09-.19-6.51,2.19-9.26,3.43a1.44,1.44,0,0,0,1.2,2.62c2.77-1.21,6.79-2.16,8.72-4.58a.94.94,0,0,0-.66-1.47" fill="#231f20"/><path d="M1376.25,1207.49a161.07,161.07,0,0,0-17.43-38.66c-17.17-27.65-42.11-49.11-71.78-65.87-14.36-8.11-27.66-10.84-44-9.26-20.65,2-41.66,4-62,8a4.18,4.18,0,0,0-3.13,4.77c-50.85,21.9-84.42,68-81.34,126,3,56.36,37.92,111.61,89.92,135,54.38,24.41,123.76,1.63,165.53-38,32.9-31.23,36.74-80.63,24.25-122m-42.77-56.12c17,17.36,29.65,37.82,34.78,61.32-16.71,1.13-33.53,5.36-50.08,9.2-.62-3.17-1.28-6.34-2-9.5-4.07-17.79-8.87-37.68-16.92-55.43a109.29,109.29,0,0,0,14.73-23.67c7.07,6,13.69,12.15,19.49,18.08m-27.83,73.32q-32.26,6.7-64.51,13.49c-.56-2.6-1.09-5.2-1.64-7.8-2.83-13.36-5.52-26.86-8.3-40.37,24.52-1.31,45.07-10,60.9-25.27,6.94,16.75,11,35.28,14.61,51.9q.8,3.73,1.5,7.49l-2.56.56m4.14,8.69a201.67,201.67,0,0,1,2,47.89,177.91,177.91,0,0,0-60.78,4.15q-4-19.08-8-38.15,32.25-6.72,64.5-13.45l2.24-.44m-41.94-127.91c13.63,4.38,27.29,12.91,39.78,22.67-4.67,6.21-8.85,12.72-13.35,18.95a94.66,94.66,0,0,0-13.71-19c-10.56-11.17-25.29-20.22-40.88-23.92,9.58-1.13,19.26-1.54,28.16,1.33m-55.27,3.23c24.42,2.9,46.91,8.86,63.44,28.54a94.71,94.71,0,0,1,11.76,18.14,67,67,0,0,1-12.63,11.74c-13.61,9.49-29.74,12.47-46,13.32-1.65-7.82-3.34-15.63-5.16-23.41-3.15-16.26-6.06-32.85-11.59-48.37l.13,0m-35.89,143c-.89-2.67-1.73-5.35-2.55-8-5.88-19.3-8.12-39-5.84-58.69,17.22,4.3,35.76,5.41,52.19,5.34,3,14.12,6.06,28.19,8.94,42.19.53,2.59,1.08,5.2,1.62,7.8q-27.19,5.67-54.36,11.38m56.24-2.29q4,19.45,8.07,38.9a147.75,147.75,0,0,0-39.57,19,274.37,274.37,0,0,1-21.71-46.86c17.75-3.64,35.48-7.37,53.21-11.07m-27.57-141.1c1,17.07,5.13,34,8.88,50.8,1.33,7.25,2.78,14.47,4.26,21.68-16.2.11-33-.92-48.85-4.74.48-2.5,1-5,1.59-7.51,5.87-23.44,18.42-40.69,31.39-60l2.73-.24m-13.25,1.18h.07c-13.94,14-23.39,34.17-28.58,52.27-1.13,3.92-2,7.87-2.78,11.83a95.8,95.8,0,0,1-32.88-17.64c16.55-22.12,40-33.06,64.17-46.45m-70.06,55.26c.81-1.39,1.66-2.69,2.52-4,9,10.35,21.25,17.21,34.79,21.68a147.91,147.91,0,0,0,4.34,58.44c1.17,4.22,2.46,8.47,3.81,12.72-18,3.55-38.3,6.28-54.76,14-1-3.37-2-6.76-2.81-10.19-7.31-31.2-4.24-64.73,12.11-92.66m-8,107c18.45.42,38.27-5.37,56.37-9.29a278,278,0,0,0,23.33,50.68c-10.82,9-19.55,20-24.29,33-25.72-17.82-45.24-44.71-55.41-74.34m95,92.71a122.73,122.73,0,0,1-35.83-15.78,97.13,97.13,0,0,1,24.88-28.46c11.79,18.19,26.13,34.46,43.47,47.06a102.61,102.61,0,0,1-32.52-2.82m47.74.89c-.16-.12-.23-.27-.42-.38-20.91-12.35-37.42-30.09-50.55-50.37a145.72,145.72,0,0,1,36.91-17.53q7.13,34.13,14.27,68.25l-.21,0m13.17-3.18c-.94.27-1.87.57-2.81.82q-7.17-34.37-14.33-68.74c1.8-.44,3.59-.86,5.37-1.21,16-3.25,32.85-3.25,49-1.2,1.11.14,2.16.35,3.24.53-.09.56-.14,1.13-.24,1.7-2.33,13.54-6.38,27.08-13.2,39.08-6.69,11.78-16.19,18.69-26,27.45a4,4,0,0,0-1,1.57m86.46-53.47c-14.24,20.13-37,33.21-59,43.24,11.11-13.55,17.92-32.29,21.31-47.33.76-3.35,1.35-6.72,1.89-10.1,12.53,3.36,24,8.61,36.61,13-.27.39-.5.81-.77,1.19m5.33-9c-.12-.11-.19-.25-.32-.35-11.14-8.48-24.85-13.72-39.42-16.51a210.94,210.94,0,0,0-2.24-51.35c16.71-3.11,33.85-6,49.63-11.58.16,1.1.41,2.16.54,3.28,2.87,24.3,3.09,53.76-8.19,76.51" fill="#231f20"/><path d="M300,1840.79c-25.42-13-57.3-13.73-81.45,2.54-15.11,10.17-25.13,25.54-37.75,38.31-13.33,13.5-40.46,28.36-55.77,13.08a4.35,4.35,0,0,0-.18-5.21c-17-22.76-42.14.42-50.49,18.17-10.72,22.8-12.47,49.5-6.42,73.84,14.13,56.81,65.52,87,121.78,88.29,59.76,1.42,119.25-28,146.62-82.58,24.57-49,16.67-119.4-36.34-146.44M112.37,2033.3c-20.37-16.3-32.7-41.33-35.94-67a100.67,100.67,0,0,1,3-40.71c3.4-11.63,16.48-40.9,31.83-35.26,6.36,16.61,24.92,24.19,42,20.78,26.27-5.25,41.12-29.87,58.62-47.54,42.9-43.32,109.58-14.35,123.77,40.51,30.68,118.67-135.14,199.69-223.3,129.17" fill="#231f20"/><path d="M133.7,1929.73c-13.64-8.11-32.7-.87-38,13.83a3.91,3.91,0,0,0-.25,1.37c-5.49,8.18-3.18,20.77,4.43,27.42,11.74,10.26,30.62,6.21,40.36-4.8,10.35-11.69,6.73-29.92-6.56-37.82m.09,30.8c-5.66,7.53-18.13,11.42-26.67,6.65-7.26-4.06-8.93-13.32-5.31-20.2a1.86,1.86,0,0,0,.27-.22c6-7.25,16.55-14,26.08-8.84,8,4.31,11.19,15.2,5.63,22.61" fill="#231f20"/><path d="M166.14,1928.31a2.94,2.94,0,0,0-.42.44c-9.62,14.19,5.73,28.37,19.07,31.33,19.62,4.35,37-6.43,40.64-26.49,8.26-45.22-56.56-35.82-59.29-5.28m49.87,1.32c-.91,11.75-8.83,21.17-20.8,21.88-9.55.56-21.73-3.07-24.18-12.08a2.75,2.75,0,0,0,.95-1.06c4.22-8.85,6.48-18,15.65-23.22,12.88-7.34,29.71-2.7,28.38,14.48" fill="#231f20"/><path d="M260.92,1863.11c-11.14,4.12-27.33,19.8-21.24,32,3.88,15,19.26,24.54,34.7,24.21,20.37-.44,29.69-17,23.63-35.36-5.78-17.51-18.43-27.75-37.09-20.87m27.77,26.07c6.89,24.13-24.87,24.56-38.95,10.65a3.22,3.22,0,0,0,.73-3c-3.41-12.16,3.82-21,15.52-24.45,13-3.89,19.43,5.37,22.7,16.81" fill="#231f20"/><path d="M190.49,1986.73c-6.61-5.74-16.74-8.6-25-4.56a16,16,0,0,0-8.08,9.08,8,8,0,0,0-3.05,1.43c-6.66,5.11-8.81,17.11-8.19,24.86,1.6,20,22.75,33.49,41.29,24.28,19.66-9.76,18.05-42,3-55.09m-1.17,16.34c3.9,9.73,3.78,25.24-7.22,30.28-8.5,3.9-19.73.24-24.31-7.83a25.8,25.8,0,0,1-2.88-15.54,30.86,30.86,0,0,1,1.76-7.33,20.24,20.24,0,0,1,1.59-3.48c.15-.15.2-.27.33-.41a7.68,7.68,0,0,0,.79,1.16,3.29,3.29,0,0,0,5.5-1.05c6.19-13.3,19.68-7.68,24.44,4.2" fill="#231f20"/><path d="M281.64,1929.27c-18.36.73-42.9,20.4-36.42,40.7,0,0,0,0,0,.06,2.88,15.48,15,27.79,32.25,26.85,18.38-1,36.83-16.14,38.18-35.14,1.34-18.66-16.27-33.18-34.05-32.47m20.65,39.36c-4.71,10.3-16.11,17.65-27.53,17.46-12.62-.2-17.64-9.26-21.38-19.29,3.39-13.49,13.4-25.1,28.1-26.23,15.5-1.2,27.49,13.43,20.81,28.06" fill="#231f20"/><path d="M120,1959.67c-4.15.76-8.37.61-11.84-2.11-1.45-1.14-3.06,1-2,2.31,3.68,4.85,9.68,7.12,15.57,5,3-1.07,1.3-5.76-1.69-5.2" fill="#231f20"/><path d="M131.79,1954.53c-1.1-.8-1.78-.69-3.14-.64-1.81.06-2.14,2.74-.24,2.88,1.52.11,2.22.23,3.48-.61a1,1,0,0,0-.1-1.63" fill="#231f20"/><path d="M177.66,2021.94c-1.77,1.21-2.81,2.43-5,2.86a10.78,10.78,0,0,1-5.5-.1c-1.51-.62-2.67,1.36-1.71,2.52a8.8,8.8,0,0,0,3.41,3.06,10.4,10.4,0,0,0,5,.91c3.67-.23,7.67-2.18,9.12-5.68,1.38-3.35-2.82-5.25-5.26-3.57" fill="#231f20"/><path d="M183.87,2007.51a2.27,2.27,0,0,0-.52,0,2.06,2.06,0,0,0-1.64,1.81,4.33,4.33,0,0,1-1.24,2.62c-1.78,1.77.66,4.68,2.59,3a7.36,7.36,0,0,0,2.64-5.27,2,2,0,0,0-1.83-2.15" fill="#231f20"/><path d="M207.5,1936.48c-2.83-.28-5.25,1.51-7.93,2.26a31,31,0,0,1-9.4,1,1.86,1.86,0,0,0-.3,3.71,39.46,39.46,0,0,0,10.58.15c3.19-.39,6.79-.79,8.84-3.44a2.42,2.42,0,0,0-1.79-3.72" fill="#231f20"/><path d="M210.07,1928a2.73,2.73,0,0,0-1.78,2.16,1.89,1.89,0,0,0,3.56,1.25,2.78,2.78,0,0,0,0-2.8,1.34,1.34,0,0,0-1.75-.61" fill="#231f20"/><path d="M278.29,1894.36c-4.46,2.07-8.74,3-13.55,1.5-2-.64-4.2,2-2.48,3.65,5.17,5,14.36,5.77,19.67.38,2.56-2.6-.07-7.19-3.64-5.53" fill="#231f20"/><path d="M287.6,1968.17c-3,3-5.31,5.81-9.27,7.58a1.91,1.91,0,0,0,1.16,3.59c4.7-.85,9.84-3.11,12.57-7.22,1.82-2.75-2-6.44-4.46-3.95" fill="#231f20"/><path d="M1077.91,1163.87c-31.44-20-81-28.23-116.2-10a90.35,90.35,0,0,0-17.85-16.33c-39.74-26.39-102.9-34.83-147-16a92.75,92.75,0,0,0-23.22,14.73c-20.43-12.82-46.17-19-68.52-19-28.22,0-68.5,8.59-91,30.89a131.87,131.87,0,0,0-18.37-5c-24.36-4.55-50.77,1.78-66.69,21.53-3.16,3.93,1.92,9.38,5.66,5.66,20.34-20.26,47.22-22.08,72.18-13.69a53,53,0,0,0-8.5,19.4c-3.75,17.7,4.83,42.21,26.54,40.49,16.68-1.33,36.13-19,30.76-36.85-3.61-12-16.91-21.18-31.11-27.47a66,66,0,0,1,8.24-6.32c37.53-24.08,94.61-27.23,133.42-2.74-19.48,20.07-31.56,48.5-16,73.18,9.15,14.48,26.84,17.44,41.13,8.74,16.15-9.83,21.42-28.77,16.25-46.43-4.37-15-13.59-27-25.43-36.37a89.09,89.09,0,0,1,21.92-12.58c41.81-16.46,114.88-8.08,149.29,29.06a71.28,71.28,0,0,0-10.41,8.76c-13.46,13.73-21.16,35.64-12.74,53.93,6.92,15,23.69,23.59,38.46,13.08,24.2-17.24,16.51-47.16,1-70.24,32.27-15.73,72.46-6.65,102.68,9.06,6.28,3.26,11.55-5.69,5.55-9.5M635.34,1171c7.89,5.56,6.86,4.66,6.24,16.1-.55,10.14-.37,13.86-10.53,17.3-8.58,2.9-15.26.76-20.18-6.36-8.5-12.31-3.19-26.44,5.76-37.53,3.29,1.48,6.53,3.09,9.69,4.89s6.16,3.59,9,5.6m148.89-12.93c12.2,13.21,22.93,36.44,9,52.35-17,19.32-38.73,4.1-38.56-18,.13-16.7,8.2-31.69,19.87-43.31a87.83,87.83,0,0,1,9.73,9m185.67,56.12c-5.14,14.42-23.09,15.42-28.19.23-5.93-17.63,5.46-35.38,19.69-45.35a67.45,67.45,0,0,1,8.14,17.58c2.65,9,3.55,18.57.36,27.54" fill="#fff"/><path d="M181.55,1327.9c-46.2-2.75-76.4,37.36-81.77,79.76-1.78,14.08-1.64,30.73,6.85,42.44-11.86,31.08-3.65,70.71,19.91,93.66,3.72,3.63,9-1.81,5.66-5.65-15.3-17.42-24.56-37.49-23.72-61.06a82.9,82.9,0,0,1,3.51-21.22c.76.63,1.54,1.25,2.39,1.83,12.47,8.54,27.22,5.24,36.54-6.32,8.22-10.2,7.48-23.3-5.68-28.76-13.75-5.71-26.1,4.5-32.9,15.71-.93,1.53-1.74,3.12-2.55,4.71-4.16-9-4.85-20.8-4.24-29.17a106.33,106.33,0,0,1,10.55-39.41c12.56-25.05,36.93-42.27,65.45-41.15,3.47.14,3.43-5.17,0-5.37m-34.27,103.6c5.31,11.78-5.22,24.66-17.84,24.82a19.32,19.32,0,0,1-15.32-6.52,58.29,58.29,0,0,1,4.07-8.09c3.87-6.39,22.47-24.88,29.09-10.21" fill="#fff"/><path d="M171.21,1797.58A18.27,18.27,0,0,0,153,1783.91c-11.61.5-19,10.42-22.89,20.34a44.16,44.16,0,0,1-4.52-17.16c-1.36-13.57-1.59-29.71,9-39.66,1.5-1.4-.68-3.46-2.21-2.21-16.61,13.55-18,48.94-4.61,66.59-5.52,23.39,2.93,51.8,23,65.28,3.11,2.08,6.24-2.44,3.86-5-13.16-14.24-24.72-35.07-21.87-55,15.19,11.7,44.79,3.47,38.38-19.5m-31.72,2.14q11.38-18.21,25.66-.47-5.55,8.49-11.12,17c-8.17,1.12-14.7-.89-19.63-6a41.56,41.56,0,0,1,5.09-10.52" fill="#fff"/><path d="M187.11,2271.61c-24.85-2.76-46.89-8.8-63.56-29-16.37-19.84-21.14-47.61-13.71-72a56.43,56.43,0,0,0,7.11,3.88c14.62,6.68,35.1,5,43.1-10.83,6.07-12,1.78-26.56-11.23-31.28-20.73-7.52-34.3,6.5-42,25.3-.75-.8-1.48-1.62-2.19-2.48-19.84-23.86-12.24-56.08-.13-81.57,1.33-2.8-2.78-5.28-4.21-2.46-14.48,28.52-22.39,71.93,3.56,94.9-4.66,15.42-5.88,32.26-4.22,42.68,6.29,39.52,45.48,76.78,87.47,71.57,5.58-.69,5.66-8.12,0-8.74M128,2142c9.62-6.11,30.41-5.84,26.17,14.62-2.77,13.3-20.22,15-30,12.25a35,35,0,0,1-11.58-5.88c.06-.14.1-.28.16-.41,3.39-7.8,7.82-15.85,15.24-20.58" fill="#fff"/><path d="M681.61,2374c-23.34,14.5-45.32,29.27-74.4,20.9a55.87,55.87,0,0,1-24.78-14.7c12.58-6.45,25-16,30.26-27.68,7.27-16-5.21-30.72-19.59-36.94-16.08-6.94-25.61,2.64-30.2,18-4.34,14.45-1.92,30.45,5.72,43.34a71.52,71.52,0,0,1-22.94,5.21c-29.07,1.52-55.93-17.49-61.87-46.31-.54-2.64-4.37-1.47-4,1.1,6.32,41.45,50.11,61.76,88,49.44,1.91-.63,3.9-1.36,5.93-2.17.47.57.94,1.14,1.43,1.69,28.68,31.32,84.75,26.2,111.54-5.16,3-3.48-.81-9.36-5.15-6.67m-107.26-5.16c-6.64-13.49-8.93-51.18,15.43-45.26a25.48,25.48,0,0,1,10.42,6.74q11.71,14-.83,25a73.51,73.51,0,0,1-15.5,13.42,82.75,82.75,0,0,1-7.12,4.27,45.77,45.77,0,0,1-2.4-4.21" fill="#fff"/><path d="M1137,2365.6c-22.63,14.52-46.29,33.75-73,40.18-24.42,5.89-45-5-58-23.27a67.53,67.53,0,0,0,10.44-6.63c12.08-9.35,23.28-24.9,13.64-39.86-6.26-9.72-25.23-22.7-37.12-15.65-13.19,7.82-8.67,29.41-5.56,41.09a92.42,92.42,0,0,0,6.49,17.21c-26.62,9-55.41-1.85-71-26-2.43-3.76-8.44-.31-6,3.53,17.47,27.92,51.42,40.29,81.1,29.79a73.49,73.49,0,0,0,21.15,22.34c18.33,12.37,39.81,13.1,60,4.91,21.74-8.82,48.22-22.23,63.63-40.18,3.32-3.86-.94-10.55-5.75-7.46m-142.09-6.19c-3.9-13-7-45.86,18.9-31.16,24.25,13.74,6.93,37.16-10.52,46.45-.55.29-1.1.51-1.65.78a80.66,80.66,0,0,1-6.73-16.07" fill="#fff"/><path d="M1451.14,1976c-3.47-.69-5,3.46-2.32,5.49,18,13.6,31.76,26.45,34.57,50.2s-7.07,48.72-22,66.92c-5.79,7.06-12.8,13.48-20.95,17.7,2.82-12.61-.18-27.14-11.16-34.74-23.61-16.36-40,26.53-23.32,40.81,5.31,4.54,11.91,6.1,18.7,5.83a37.24,37.24,0,0,1-24.41,15c-3.09.52-2.41,5.85.75,5.52,14.84-1.56,28.69-9.33,35.8-22.76a60.92,60.92,0,0,0,15.1-7.25c16.24-10.85,28.74-28.71,35.73-46.71,12.33-31.73,3.75-87.94-36.47-96m-36.57,144.19c-7.94-3.55-12.69-17.58-8.86-25.86q26.4-12.36,27.32,4.54a22.7,22.7,0,0,1,.07,11,43.11,43.11,0,0,1-3.78,10.66c-4.92,1.21-10.35,1.68-14.75-.3" fill="#fff"/><path d="M1547.44,1635.4c-4.3-29.33-22.31-54.54-50.13-65.23-4.33-1.66-7.44,5.61-3.18,7.54,40.52,18.43,52.36,63.92,41.45,104.44-.56,2.11-1.17,4.26-1.82,6.41a44.3,44.3,0,0,0-6.53-7.2c-16.71-14.57-35-2.26-36.74,17.68-1.62,18.84,13,37.54,31.68,24a48.54,48.54,0,0,0,12.09-13.14,82,82,0,0,1,3.76,28.42c-.81,18.53-7.13,36.69-18.76,51.2-6.87,8.58-16.46,16.91-27.42,20,.05-.13.12-.27.17-.41,5.16-14.2,4.16-36.73-12.61-42.74-18.27-6.53-32.89,15.29-27.51,31.5,4.23,12.75,16.1,18.92,28.58,19.86-10.53,16.79-27.39,28-46.8,32.06-3.1.65-1.76,5.24,1.29,4.7,22-3.89,42.51-17.08,53.2-36.84a43.57,43.57,0,0,0,13.11-3.25c24.77-10.69,40.29-37.53,44.26-63.29,2.41-15.58,1.36-35.73-5.68-51.87,8.63-20.17,10.23-45.93,7.59-63.9m-91,157.11q1.38-6.72,2.77-13.44,9.9-14.49,20-5c6.71,4,9,7.79,9.46,15.52a43.75,43.75,0,0,1-4.33,21.19c-10.18.4-26.56-6.46-27.86-18.31m68-83.1c-11.3,16.17-36.18-1.41-24.33-16.37l18.44-7.88a30.42,30.42,0,0,1,9.46,10.5c.72,1.13,1.37,2.3,2,3.49a56.88,56.88,0,0,1-5.56,10.26" fill="#fff"/><path d="M1479.07,1244.62c-.55-21.16-5-43.15-22.43-57-16.3-12.92-38.23-16-58.22-12.57-4.64.8-3.58,8.5,1.11,8.22,23.36-1.38,49.4,3,62.16,25.09,10.52,18.22,13.24,50.84,4.5,73.21a44.38,44.38,0,0,0-4.85-8.79c-22.91-31.94-73.17,2-47.07,31.18,11.22,12.54,30.42,11.87,43.33,2.44a44.17,44.17,0,0,0,5.07-4.41c.83,26-13.06,55.81-39.15,62-3.35.79-2.72,6.51.83,6.13,32.16-3.36,50.88-45,45.2-77,8.49-14.11,9.93-32.38,9.52-48.58m-48.47,61.22c-12.51-2.77-20.09-17.51-13.65-29.22,5.59-10.17,20-13.29,29.83-8,8.52,4.63,12.68,13.37,14.59,22.36a40,40,0,0,1-3.19,4.23c-7,8-16.46,13-27.58,10.59" fill="#fff"/><path d="M504.88,1062.78l-.52-.7a5.61,5.61,0,0,0-6-2.43l-3.52.57c-.78-4.33-1.58-8.67-2.33-13-.88-5.11-8.78-3.73-8.84,1.2,0,4.56-.19,9.12-.29,13.68l-9.24,1.5c-4.12.67-3.12,7.37,1,7.24l8.15-.26c0,2.15,0,4.3.06,6.45a7.38,7.38,0,0,0,5.22,6.86c2.08.76,3.63.31,5.49-.72s3.84-3.8,3.52-6.14-.66-4.59-1-6.88l3.22-.1a5.25,5.25,0,0,0,4.56-2.62c.17-.37.35-.73.52-1.1a3.53,3.53,0,0,0,0-3.53" fill="#fff"/><path d="M527.57,1115.29a4.15,4.15,0,0,0-2-3.57,24.66,24.66,0,0,0-2.88-1.1c-.41-1.81-.85-3.63-1.29-5.45-.93-3.86-7.19-3.1-7,.95,0,1.09.11,2.17.16,3.25a47.55,47.55,0,0,0-9.64.91c-5.61,1-3.12,9.21,2.33,8.43a33.54,33.54,0,0,1,8,0c.14,1.26.31,2.52.53,3.77.84,5,9.46,3.87,8.87-1.2-.09-.72-.21-1.43-.32-2.15,1.88-.42,3.47-1.49,3.27-3.83" fill="#fff"/><path d="M263.25,1751.59c-3.29-2.84-6.85-2.14-10.9-1.69a54.8,54.8,0,0,1-.44-12.21c.42-5.47-7.64-6.06-9.21-1.24a52.25,52.25,0,0,0-2.58,14.64l-3.64.35c-5.2.5-5.37,8.55,0,8.25l4.1-.23a49.94,49.94,0,0,0,2.21,9.13c3.42,9.77,17.42,4.17,13.24-5.58-.6-1.4-1.11-2.83-1.58-4.28,3.28-.09,6.55-.34,8.8-3a3,3,0,0,0,0-4.16" fill="#fff"/><path d="M234.55,2121c-3.8-3.66-8.67-2.09-13.42-1.18l-.59.11c-1.47-2.77-3-5.53-4.47-8.29-2.58-4.82-10.32-1.52-8.8,3.7.66,2.25,1.29,4.5,1.94,6.75l-6.92,1.31c-4.84.92-3.8,9.37,1.18,8.72L212,2131c.43,1.29.87,2.58,1.35,3.86,3.34,8.87,16,3.76,12.1-5.11l-.21-.44c3.91-.44,7.83-1.09,9.81-4.84a3,3,0,0,0-.45-3.49" fill="#fff"/><path d="M549.31,2290.81c-3.24-2.87-7.19-2.11-11.24-1.55l-2.81.4a24.84,24.84,0,0,1,0-4.8c.24-2.13-1.85-4.07-3.8-4.3a4.44,4.44,0,0,0-4.8,3.13,26.94,26.94,0,0,0-1.5,7.4l-1.75.25c-4.71.66-3.64,8.71,1.13,8.34l2.29-.17a8.26,8.26,0,0,0,2.74,3,4.64,4.64,0,0,0,6.75-2.75,6,6,0,0,0,.11-.94l2.87-.22c4.11-.34,7.91-.55,10.46-4a3.06,3.06,0,0,0-.47-3.71" fill="#fff"/><path d="M1214.4,2040.33c-3.39-4.43-7.14-3.29-12.34-3.2-.44,0-.87,0-1.31,0,.19-1.74.42-3.47.58-5.19.32-3.46-4.3-4.8-6.51-2.7a16.75,16.75,0,0,0-4.37,7.51c-2.84-.24-5.68-.56-8.51-1-5.68-.94-8.26,7.46-2.43,8.79,3.4.79,6.84,1.43,10.29,1.94a20.39,20.39,0,0,0,1.72,5.73c2.94,6.09,11.48,1.57,10.33-4.36a1.6,1.6,0,0,0,0-.21c4.79.34,10.13.57,12.6-4a3.19,3.19,0,0,0,0-3.28" fill="#fff"/><path d="M1482.25,1497.47c-.72-2.34-3.13-4.61-5.77-4.39s-5.4.38-8.11.47c-.26-3.68-.56-7.36-1-11-.54-4.84-7.69-6.68-9.08-1.23a85.46,85.46,0,0,0-2.15,12.16c-3.37-.14-6.73-.36-10.08-.72-5-.54-5.84,7.38-1.16,8.59,3.59.93,7.16,1.62,10.75,2.2,0,.63,0,1.26,0,1.88.13,7-.74,14.14,5.51,18.41a4.82,4.82,0,0,0,5.83-.75c4.82-5.17,2.68-11.12,2.21-17.66,0-.15,0-.31,0-.47,2.43.1,4.86.15,7.32.1s5.33-1.8,5.77-4.39a6.23,6.23,0,0,0,0-3.18" fill="#fff"/><path d="M1487.9,1433.58l-4.36.08a13.85,13.85,0,0,1,.88-2.69c1.84-4.11-3.67-7.57-6.16-3.59a22.88,22.88,0,0,0-2.76,6.42l-4.7.09c-4.34.07-4.34,6.67,0,6.75l4,.07a22.68,22.68,0,0,0,.87,5.26c1.69,5.81,11.08,3,8.91-2.45a22,22,0,0,1-.85-2.65l4.17.07c4.73.09,4.74-7.45,0-7.36" fill="#fff"/><path d="M1139.32,1345c-4.33-5.15-11.48-3.3-17.6-3l-4.17.23a127.6,127.6,0,0,1,.81-13.9c.62-5.53-8.52-6.71-9.7-1.31-1.14,5.23-2,10.53-2.84,15.84l-9.42.51a3.38,3.38,0,0,0,0,6.75l8.3.45c-.94,6.65-2.78,14.13,2.94,18.85,2.32,1.91,5.87,2.46,8.13,0,5.18-5.62,2.8-11.14,2.14-18.14l3.81.2c6.12.33,13.27,2.18,17.6-3a2.59,2.59,0,0,0,0-3.53" fill="#fff"/><path d="M1179.55,1382.07c-3.11-4.68-7.79-3.5-12.88-3.36l-2.28.06a26.06,26.06,0,0,1,.31-8.11c1-5.13-5.82-6.88-7.71-2.13a40.06,40.06,0,0,0-2.59,10.51l-6.57.17c-5.87.16-5.88,9,0,9.13l6.84.18a27.84,27.84,0,0,0,2.42,7.8c3,6,13.34,1.79,11-4.63-.36-1-.7-1.9-1-2.83,4.92.18,9.49,1.18,12.52-3.39a3.29,3.29,0,0,0,0-3.4" fill="#fff"/></g></g><rect x="3" width="1597" height="957" fill="#fcc60f"/><text transform="translate(99.81 432.28)" font-size="170" fill="#231f20" font-family="SegoePrint-Bold, Segoe Print" font-weight="700" letter-spacing="0.02em">Diffe<tspan x="414.61" y="0" letter-spacing="0.02em">r</tspan><tspan x="505.08" y="0">ent types </tspan><tspan x="87.78" y="300">of Intelligence</tspan></text></svg>