<svg id="Layer_1" data-name="Layer 1" xmlns="http://www.w3.org/2000/svg" xmlns:xlink="http://www.w3.org/1999/xlink" viewBox="0 0 1600 2560"><defs><linearGradient id="linear-gradient" y1="1280" x2="1600" y2="1280" gradientUnits="userSpaceOnUse"><stop offset="0.02" stop-color="#bbe3f4"/><stop offset="1" stop-color="#78c5e6"/></linearGradient><linearGradient id="linear-gradient-2" x1="300.02" y1="3426.73" x2="300.02" y2="3834.99" gradientTransform="matrix(1.02, 0, 0, -1.02, 494, 6055)" xlink:href="#linear-gradient"/><linearGradient id="linear-gradient-3" x1="300.02" y1="3796.7" x2="300.02" y2="4701.39" gradientTransform="matrix(1.02, 0, 0, -1.02, 494, 6055)" xlink:href="#linear-gradient"/><linearGradient id="linear-gradient-4" x1="300.02" y1="3986.84" x2="300.02" y2="4461.79" gradientTransform="matrix(1.02, 0, 0, -1.02, 494, 6055)" gradientUnits="userSpaceOnUse"><stop offset="0" stop-color="#fd86c8"/><stop offset="0.98" stop-color="#ffb1db"/></linearGradient><linearGradient id="linear-gradient-5" x1="300.02" y1="3459.25" x2="300.02" y2="3709.06" gradientTransform="matrix(1.02, 0, 0, -1.02, 494, 6055)" gradientUnits="userSpaceOnUse"><stop offset="0" stop-color="#fd869c"/><stop offset="0.98" stop-color="#f3385d"/></linearGradient></defs><title>emotional_intelligence</title><rect width="1600" height="2560" fill="url(#linear-gradient)"/><path d="M431.87,2560c0-313,184-416.39,184-416.39H984.11s184,103.37,184,416.39Z" fill="url(#linear-gradient-2)"/><path d="M773.88,2169.43l-55.26-25.82H616.4s-28.51,16-63,54.53a533,533,0,0,0,196,57.32c22.79,2.11,44.38-12.41,49.46-34.72a45.32,45.32,0,0,0-25-51.31Z" fill="#59c2e7"/><path d="M800,2182.66c-255.59,0-461.33-207.34-461.33-461.37C338.67,1466.51,545.22,1260,800,1260s461.33,206.55,461.33,461.33C1261.33,1975.21,1055.63,2182.66,800,2182.66Z" fill="url(#linear-gradient-3)"/><path d="M475,1781.54a134.85,134.85,0,0,1,114.45-182.08A134.85,134.85,0,0,1,800,1531.85a134.85,134.85,0,0,1,210.51,67.61A134.85,134.85,0,0,1,1125,1781.54a110.29,110.29,0,0,1,57.63,104c-3.65,58.35-53.35,103.18-111.82,103.18H529.23c-58.47,0-108.17-44.83-111.82-103.18a110.31,110.31,0,0,1,57.63-104Z" fill="url(#linear-gradient-4)"/><path d="M989.12,1790.37a12.28,12.28,0,0,0,16.17,1.11,109.93,109.93,0,0,1,119.67-9.77,134.29,134.29,0,0,0,6.65-24.3,134.33,134.33,0,0,0-59-13.58c-1.18,0-2.35,0-3.53.07a113.74,113.74,0,0,1-11.21-4.56c-11.06-5.24-25.16-14.44-29.54-28.53a12.31,12.31,0,1,0-23.52,7.3c4.4,14.19,13.87,24.86,24.61,32.82a134.51,134.51,0,0,0-39.2,21,12.3,12.3,0,0,0-1.08,18.4Z" fill="#fd75be"/><path d="M815.09,1641.17c14.24-.07,23.13-3.26,28.66-7.07a18.27,18.27,0,0,0,7.46-18.15A134.85,134.85,0,0,0,800,1532a135.59,135.59,0,0,1,22.12-13.7,159.39,159.39,0,0,1,54.15,98.43,25.44,25.44,0,0,0,12.31,18.45c5.7,3.29,14.1,5.91,26.39,6,6.69,0,12.55,5.13,12.81,11.82a12.31,12.31,0,0,1-12.3,12.81c-27,0-42.18-9.18-50.45-17.61-8.26,8.43-23.45,17.61-50.44,17.61a12.32,12.32,0,0,1-12.31-12.8c.26-6.68,6.12-11.79,12.81-11.83Z" fill="#fd75be"/><path d="M468.39,1757.41a134.29,134.29,0,0,0,6.65,24.3,109.93,109.93,0,0,1,119.67,9.77A12.33,12.33,0,0,0,609.8,1772a134.72,134.72,0,0,0-38-20.67c11.46-9.12,27.86-16.44,51.31-18.31a12.31,12.31,0,1,0-2-24.55c-40.07,3.19-63.92,19.84-77.9,36.33a134.68,134.68,0,0,0-74.82,12.64Z" fill="#fd75be"/><path d="M570.1,1884.4C581,1919,602.36,1933.55,619,1939.7a109.6,109.6,0,0,0,17.88-48.54c.67-5.83,5.15-10.75,11-11.3a12.34,12.34,0,0,1,13.53,13.66A134.92,134.92,0,0,1,605,1988.74H527.41a109.76,109.76,0,0,0,74.87-29.44c-18.77-8.86-43.09-27.71-55.67-67.48-3-9.59,6.29-20.14,19.06-14.45a7.66,7.66,0,0,1,4.43,7Z" fill="#fd75be"/><path d="M1029.9,1884.4C1019,1919,997.64,1933.55,981,1939.7a109.6,109.6,0,0,1-17.88-48.54c-.67-5.83-5.15-10.75-11-11.3a12.34,12.34,0,0,0-13.53,13.66,134.92,134.92,0,0,0,56.47,95.22h77.54a109.76,109.76,0,0,1-74.87-29.44c18.77-8.86,43.09-27.71,55.67-67.48a12.32,12.32,0,0,0-23.49-7.42Z" fill="#fd75be"/><path d="M1117.94,1578.78a341.34,341.34,0,0,0-27.38-44.07,25.39,25.39,0,0,1,41-30,391.47,391.47,0,0,1,31.47,50.65,25.39,25.39,0,0,1-45,23.44Z" fill="#bde5f6"/><path d="M1034.11,1473.74c-6.93-6-14.15-11.7-21.47-17.09a25.39,25.39,0,1,1,30.09-40.9c8.34,6.14,16.57,12.69,24.46,19.47a25.39,25.39,0,0,1-33.08,38.52Z" fill="#bde5f6"/><path d="M580.51,2560V2451.12c0-9.74,7-18.45,16.66-19.62a19,19,0,0,1,21.43,18.9V2560Z" fill="#59c2e7"/><path d="M1019.75,2560V2451.12c0-9.74-7-18.45-16.66-19.62a19,19,0,0,0-21.43,18.9V2560Z" fill="#59c2e7"/><path d="M800,2303.17c-105.07-102.69-277.57,69.32-23.39,217.34a46.43,46.43,0,0,0,46.78,0c254.18-148,81.68-320-23.39-217.34Z" fill="url(#linear-gradient-5)"/><path d="M414.94,155.26H351.46V182.6h49.91v25.1H351.46v29.1h63.48v26.37H319.73V129.87h95.21Z"/><path d="M578.24,263.17h-29.1V208.58q0-11.52-.68-15a9.58,9.58,0,0,0-3.57-5.76q-2.88-2.29-8-2.3a17.24,17.24,0,0,0-9.76,3.42q-5,3.42-5,19.63v54.59h-29.1V208.58q0-11.82-1.08-15.28a10.7,10.7,0,0,0-4.05-5.62,12.65,12.65,0,0,0-7.57-2.15q-7.51,0-11.18,4.74t-3.66,18.31v54.59H437.32V164.54h27.35v15q6.94-17.1,27.78-17.09,18.87,0,27.29,17.09,8.21-17.1,28.61-17.09a33.36,33.36,0,0,1,16.8,4,23.51,23.51,0,0,1,10.06,10.45q3,6.45,3,22.17Z"/><path d="M648,162.49q22.53,0,35.17,14.74t12.63,36.92q0,21.87-13.12,36.47t-34.88,14.6q-21.08,0-33.7-14.45T601.5,213.66q0-15.72,5.71-26.71a47.33,47.33,0,0,1,15.66-17.72Q632.82,162.48,648,162.49Zm.78,19q-8.28,0-12.47,6.4t-4.18,25.44q0,17.48,4,25.09t12.46,7.62q7.41,0,12-6.49t4.58-24.76q0-19.43-4-26.37T648.82,181.53Z"/><path d="M752,187.19v41.7q0,7.81,2.33,10.45t11,2.64q4,0,9.24-.39v21.58q-12.69,2.15-18.26,2.15-18.16,0-25.78-7t-7.62-25.25v-45.9H707.29V164.54h17.28l2.34-29.1,25.1-2v31.06H773.2v22.65Z"/><path d="M823.61,127.14v29.1h-29.1v-29.1Zm0,37.4v98.63h-29.1V164.54Z"/><path d="M893.41,162.49q22.53,0,35.17,14.74t12.63,36.92q0,21.87-13.12,36.47t-34.88,14.6q-21.06,0-33.7-14.45t-12.63-37.11q0-15.72,5.7-26.71a47.41,47.41,0,0,1,15.66-17.72Q878.19,162.48,893.41,162.49Zm.78,19q-8.28,0-12.46,6.4t-4.19,25.44q0,17.48,4,25.09T894,246.08q7.41,0,12-6.49t4.58-24.76q0-19.43-4-26.37T894.19,181.53Z"/><path d="M1050.31,263.17h-29.1V207.8q0-10.06-.78-13.77a11.15,11.15,0,0,0-3.81-6.3,11.35,11.35,0,0,0-7.62-2.59q-15.33,0-15.33,22.66v55.37h-29.1V164.54h27v16.7q6.74-11.93,13.28-15.34a30.21,30.21,0,0,1,14.16-3.41q14.07,0,22.66,7.57t8.59,29.73Z"/><path d="M1165.37,263.17h-28.22a70.38,70.38,0,0,1-1.37-15.43q-7.41,10.55-14.77,14a38.81,38.81,0,0,1-16.72,3.47q-13.85,0-22.38-7.52t-8.53-20.21a31.24,31.24,0,0,1,5-17.09q5-7.82,16-12.26t40.17-6.59v-5.66q0-14.37-14.31-14.36-15.29,0-17,14.36l-26.85-2.54q2.64-16.8,15.92-23.83t30.07-7a74.14,74.14,0,0,1,19,2.34q8.88,2.34,13.87,7a24.64,24.64,0,0,1,6.74,9.91q1.76,5.23,1.75,18.22v44.72Q1163.61,257.61,1165.37,263.17Zm-30.86-47.27q-30.46,3-30.47,18.46a13.33,13.33,0,0,0,3.21,8.94q3.23,3.75,9.16,3.76a16,16,0,0,0,12.89-6.4q5.22-6.39,5.21-15.77Z"/><path d="M1192.64,263.17V129.87h29.1v133.3Z"/><path d="M294.71,369.87v133.3H263.55V369.87Z"/><path d="M410.84,503.17h-29.1V447.8q0-10.07-.78-13.77a11.15,11.15,0,0,0-3.81-6.3,11.35,11.35,0,0,0-7.62-2.59q-15.33,0-15.33,22.66v55.37H325.1V404.54h27v16.7q6.74-11.92,13.28-15.34a30.21,30.21,0,0,1,14.16-3.41q14.06,0,22.66,7.57t8.59,29.73Z"/><path d="M472.68,427.19v41.7q0,7.82,2.33,10.45T486,482q4,0,9.23-.39v21.58q-12.69,2.15-18.26,2.15-18.17,0-25.78-7t-7.62-25.25v-45.9H428V404.54h17.28l2.35-29.1,25.1-2v31.06h21.19v22.65Z"/><path d="M602.77,458.74H539.3c-.07,1.75-.1,3.28-.1,4.59q0,10.55,5.61,15.91a18.73,18.73,0,0,0,13.43,5.38q14.55,0,17.48-15.53l26.37,2q-11,34.18-44.82,34.18-14.76,0-25-5.91a46.7,46.7,0,0,1-17-17.23q-6.69-11.34-6.68-27.15,0-23.54,13.42-38t34.52-14.45a44.88,44.88,0,0,1,32.67,13.42Q602.77,429.35,602.77,458.74Zm-63.57-16.9h35.06q-1.37-20.31-16.7-20.31Q541.15,421.53,539.2,441.84Z"/><path d="M626.13,503.17V369.87h29.1v133.3Z"/><path d="M684.16,503.17V369.87h29.1v133.3Z"/><path d="M771.29,367.14v29.1h-29.1v-29.1Zm0,37.4v98.63h-29.1V404.54Z"/><path d="M898.75,406.78a38.22,38.22,0,0,0-7.71-1q-9.67,0-11.33,8.59,7.9,8.31,7.91,18.75,0,14-11.67,22.27t-33.65,8.3a77.5,77.5,0,0,1-15.23-1.48q-5,2.92-5,7.53,0,5.07,4.2,6.74T846.5,479q22.75,1.17,31.35,2.83a25.84,25.84,0,0,1,14.45,8,22.42,22.42,0,0,1,5.86,15.82q0,13.57-12.54,22.95t-44.49,9.38q-30,0-40.43-6.51T790.25,515q0-13.2,16.9-17.8-12.51-6.24-12.5-17.57,0-14.16,19.73-22.07-17.49-7.23-17.49-24.1,0-13.76,12.07-22.35t33.34-8.58a80.35,80.35,0,0,1,26.08,4.29A27.33,27.33,0,0,1,873.31,393q4.05-5.43,17.24-5.42a41.79,41.79,0,0,1,8.2.78Zm-76.07,95.71q-1.77,0-4.45,2.34a7.25,7.25,0,0,0-2.68,5.66q0,6.64,8.49,8.31A105.66,105.66,0,0,0,844,520.46q15,0,20.95-2.25t6-7.23q0-3.81-5-5.86t-26.81-2.05l-5.86.1a57.69,57.69,0,0,1-7.22-.29A18.71,18.71,0,0,0,822.68,502.49Zm19.38-84.28q-7.5,0-11.73,4.05a14.14,14.14,0,0,0-4.24,10.7q0,15,16.07,15,7.79,0,12.22-4.39a14.89,14.89,0,0,0,.24-21Q850.44,418.21,842.06,418.21Z"/><path d="M1004.43,458.74H941c-.07,1.75-.1,3.28-.1,4.59q0,10.55,5.61,15.91a18.73,18.73,0,0,0,13.43,5.38q14.55,0,17.48-15.53l26.37,2q-11,34.18-44.82,34.18-14.76,0-25-5.91a46.7,46.7,0,0,1-17-17.23q-6.69-11.34-6.68-27.15,0-23.54,13.42-38t34.52-14.45a44.88,44.88,0,0,1,32.67,13.42Q1004.43,429.35,1004.43,458.74Zm-63.57-16.9h35.06q-1.36-20.31-16.7-20.31Q942.81,421.53,940.86,441.84Z"/><path d="M1113.54,503.17h-29.11V447.8q0-10.07-.78-13.77a11.15,11.15,0,0,0-3.81-6.3,11.3,11.3,0,0,0-7.61-2.59q-15.35,0-15.34,22.66v55.37h-29.1V404.54h27v16.7q6.75-11.92,13.29-15.34a30.21,30.21,0,0,1,14.16-3.41q14.06,0,22.65,7.57t8.6,29.73Z"/><path d="M1229.28,466.16q-1.66,17.47-13.82,28.27t-31.4,10.79q-20.89,0-34-13.82t-13.14-37q0-23.15,13.43-37.55t35.89-14.4q18.06,0,29.93,10.84a39.64,39.64,0,0,1,13.14,27.15L1202.13,442q-1.37-17.78-15.43-17.78-17.28,0-17.29,28.32,0,18.85,4.84,23.93a15.61,15.61,0,0,0,11.77,5.08q13.47,0,16.11-17.09Z"/><path d="M1338.48,458.74H1275c-.07,1.75-.1,3.28-.1,4.59q0,10.55,5.62,15.91a18.71,18.71,0,0,0,13.43,5.38q14.55,0,17.48-15.53l26.36,2q-11,34.18-44.82,34.18-14.74,0-25-5.91a46.68,46.68,0,0,1-17-17.23q-6.69-11.34-6.69-27.15,0-23.54,13.43-38t34.52-14.45a44.87,44.87,0,0,1,32.66,13.42Q1338.49,429.35,1338.48,458.74Zm-63.58-16.9H1310q-1.37-20.31-16.7-20.31Q1276.85,421.53,1274.9,441.84Z"/><path d="M248.87,838.28l4.88-21.1H265a11,11,0,0,0-.39,2.83,7,7,0,0,0,2.25,5.38,7.6,7.6,0,0,0,5.37,2.1,8.64,8.64,0,0,0,6.28-2.47,8.28,8.28,0,0,0,2.51-6.14,10.74,10.74,0,0,0-1.48-5.15q-1.49-2.72-8.06-8.59T263,795.41a16.64,16.64,0,0,1-2-7.52,18.12,18.12,0,0,1,4.93-12.6q4.94-5.43,14-5.42,8.49,0,13.33,5.32l1.07-4.83h10.84L301,788.28H290.08a6.39,6.39,0,0,0,.15-1.37,5.22,5.22,0,0,0-2.12-4.27,8.47,8.47,0,0,0-5.47-1.69,7.48,7.48,0,0,0-4.72,1.37,4.22,4.22,0,0,0-1.75,3.47,7.18,7.18,0,0,0,1.19,3.69q1.18,2,7.81,7.74t8.94,10.61a22.22,22.22,0,0,1,2.32,9.65q0,9.62-6.18,15.82a21.09,21.09,0,0,1-15.6,6.2,16.78,16.78,0,0,1-13.28-6.3l-1.22,5.08Z" fill="#f3385d"/><path d="M336.91,824.17,347.6,829q-7.12,10.69-21.29,10.69-9.85,0-15.72-5.59t-5.86-14.94a29.86,29.86,0,0,1,7.86-20.69A25.12,25.12,0,0,1,332,789.74a21,21,0,0,1,15,5.69q6,5.69,6,15.36a35.72,35.72,0,0,1-.68,6.73H318.75a17,17,0,0,0-.3,3.09,10,10,0,0,0,2.42,7.09,8.34,8.34,0,0,0,6.37,2.57Q333.35,830.27,336.91,824.17ZM320.5,809.81h18.7a12,12,0,0,0,.2-2.15,8.41,8.41,0,0,0-2.27-6.13,7.54,7.54,0,0,0-5.59-2.32Q324,799.21,320.5,809.81Z" fill="#f3385d"/><path d="M393.4,821l10.4,5.08q-8.21,13.62-22.7,13.62-9.81,0-15.75-5.76t-5.93-15.23a27.48,27.48,0,0,1,8.13-19.93,26.29,26.29,0,0,1,19.46-8.3,19.12,19.12,0,0,1,11.37,3.62l.74-3.13h10.59l-4.1,17.73H395q-.52-6.84-7.81-6.84-5.37,0-9.08,4.92a19.67,19.67,0,0,0-3.71,12.2,9.5,9.5,0,0,0,2.27,6.56,7.48,7.48,0,0,0,5.83,2.54Q389.07,828.07,393.4,821Z" fill="#f3385d"/><path d="M407.47,838.28l2.29-10.11h5.71l6.3-27.1h-6.39L417.67,791h19.15l-3.17,13.72.2.2q7.57-11,10.49-12.7a12.19,12.19,0,0,1,6.09-1.66,24.14,24.14,0,0,1,4.25.44l-2.88,12.6a21.31,21.31,0,0,0-4.4-.49q-11.72,0-15.14,15L430,828.17h7.44l-2.35,10.11Z" fill="#f3385d"/><path d="M486.86,824.17,497.55,829q-7.12,10.69-21.29,10.69-9.86,0-15.72-5.59t-5.86-14.94a29.86,29.86,0,0,1,7.86-20.69A25.12,25.12,0,0,1,482,789.74a21,21,0,0,1,15,5.69q6,5.69,6,15.36a34.91,34.91,0,0,1-.68,6.73H468.7a17,17,0,0,0-.3,3.09,10,10,0,0,0,2.42,7.09,8.35,8.35,0,0,0,6.37,2.57Q483.29,830.27,486.86,824.17Zm-16.41-14.36h18.71a12,12,0,0,0,.19-2.15,8.41,8.41,0,0,0-2.27-6.13,7.54,7.54,0,0,0-5.59-2.32Q474,799.21,470.45,809.81Z" fill="#f3385d"/><path d="M535.88,825.87l-2.58,10.89a28.45,28.45,0,0,1-12.18,2.93,10.26,10.26,0,0,1-7.39-2.66,9.17,9.17,0,0,1-2.8-7,28.12,28.12,0,0,1,.83-6.59l5.15-22.41h-5.54l2.3-10.11h5.58l1.59-6.88,17.33-12L533.74,791h6.34l-2.26,10.11H531.5L526.37,823a12.26,12.26,0,0,0-.39,2.68c0,1.66,1,2.49,3,2.49A15.07,15.07,0,0,0,535.88,825.87Z" fill="#f3385d"/><path d="M588.37,839.69q-9.12,0-14.82-5.5T567.87,820a29.75,29.75,0,0,1,8.42-21.46A27.59,27.59,0,0,1,597,789.74q9.57,0,15.09,6.09a21,21,0,0,1,5.51,14.63,28.44,28.44,0,0,1-8.37,20.7A28,28,0,0,1,588.37,839.69Zm7.28-39.35q-6,0-9.55,6.43a27.92,27.92,0,0,0-3.54,13.67,9.89,9.89,0,0,0,1.86,6.31,6.09,6.09,0,0,0,5,2.35q5.91,0,9.67-6.41A26.59,26.59,0,0,0,602.88,809a9.66,9.66,0,0,0-2-6.33A6.47,6.47,0,0,0,595.65,800.34Z" fill="#f3385d"/><path d="M648.29,828.17,646,838.28H620.26l2.29-10.11h4.84l6.26-27.1h-7.19L628.75,791H636q4.54-21.39,21.58-21.38a20.89,20.89,0,0,1,11.72,3.71L665.37,783a9.09,9.09,0,0,0-6.21-2.78,6.48,6.48,0,0,0-5.37,2.39q-1.9,2.4-3.33,8.4h6.13l-2.31,10.11h-6.15l-6.26,27.1Z" fill="#f3385d"/><path d="M751.17,770.36h10.89l-5,21.82H746.19a10.15,10.15,0,0,0-4.35-8.2,16.88,16.88,0,0,0-10.35-3.13q-11.09,0-19.34,8.89a29.79,29.79,0,0,0-8.25,21,15.81,15.81,0,0,0,4.42,11.55,15.19,15.19,0,0,0,11.35,4.51q13.62,0,16.41-9.52H725.39l2.39-10.64h31.39q-2.24,14.89-13.62,23.73t-27.49,8.84q-14.79,0-23.48-8.94a29.76,29.76,0,0,1-8.7-21.53q0-15.87,13.36-27.64a46.15,46.15,0,0,1,31.52-11.77q11.67,0,19.14,6.79Z" fill="#f3385d"/><path d="M759.57,838.28l2.29-10.11h5.71l6.3-27.1h-6.39L769.77,791h19.15l-3.17,13.72.2.2q7.57-11,10.49-12.7a12.19,12.19,0,0,1,6.09-1.66,24.14,24.14,0,0,1,4.25.44l-2.88,12.6a21.31,21.31,0,0,0-4.4-.49q-11.71,0-15.14,15l-2.3,10.11h7.44l-2.35,10.11Z" fill="#f3385d"/><path d="M839,824.17,849.65,829q-7.12,10.69-21.29,10.69-9.86,0-15.72-5.59t-5.86-14.94a29.86,29.86,0,0,1,7.86-20.69,25.12,25.12,0,0,1,19.44-8.73,21,21,0,0,1,15,5.69q6,5.69,6,15.36a35.72,35.72,0,0,1-.68,6.73H820.8a17,17,0,0,0-.3,3.09,10,10,0,0,0,2.42,7.09,8.35,8.35,0,0,0,6.37,2.57Q835.4,830.27,839,824.17Zm-16.41-14.36h18.7a12,12,0,0,0,.2-2.15,8.41,8.41,0,0,0-2.27-6.13,7.54,7.54,0,0,0-5.59-2.32Q826.08,799.21,822.55,809.81Z" fill="#f3385d"/><path d="M911.32,828.17l-2.92,10.11H886.67l.86-3.82q-6.88,4.41-12.79,4.4a14.43,14.43,0,0,1-10.17-3.71,12.22,12.22,0,0,1-4-9.39,15.09,15.09,0,0,1,6.35-12.6q6.35-4.81,17.67-4.82a47.1,47.1,0,0,1,8.69,1.37l.79-3.9a4.54,4.54,0,0,0,.14-1.13,4.74,4.74,0,0,0-2.36-4.1,10.48,10.48,0,0,0-5.89-1.56q-4.74,0-11.08,3.22l-7.18-7.13a43,43,0,0,1,20.45-5.37q9.68,0,15.06,3.86a12.31,12.31,0,0,1,5.4,10.59,19,19,0,0,1-.54,4.35l-4.61,19.63Zm-21.79-2.5,1.78-7.86a26.59,26.59,0,0,0-7.16-1,11.81,11.81,0,0,0-7.36,2.16,6.59,6.59,0,0,0-2.82,5.44,5,5,0,0,0,1.63,3.8,5.51,5.51,0,0,0,3.93,1.54Q884.21,829.78,889.53,825.67Z" fill="#f3385d"/><path d="M945.31,825.87l-2.59,10.89a28.42,28.42,0,0,1-12.18,2.93,10.26,10.26,0,0,1-7.38-2.66,9.14,9.14,0,0,1-2.8-7,28.09,28.09,0,0,1,.82-6.59l5.15-22.41H920.8L923.1,791h5.58l1.59-6.88,17.32-12L943.16,791h6.35l-2.27,10.11h-6.32L935.79,823a12.26,12.26,0,0,0-.39,2.68q0,2.49,3,2.49A15.11,15.11,0,0,0,945.31,825.87Z" fill="#f3385d"/><path d="M972.55,838.28,975,827.63h6.39L992.18,781h-8.1l2.49-10.64h31.69L1015.77,781h-6.4l-10.69,46.63h19l4.79-20.85h13l-7.32,31.5Z" fill="#f3385d"/><path d="M1070.16,824.17l10.69,4.83q-7.12,10.69-21.28,10.69-9.87,0-15.73-5.59T1038,819.16a29.86,29.86,0,0,1,7.86-20.69,25.12,25.12,0,0,1,19.44-8.73,21,21,0,0,1,15,5.69q6,5.69,6,15.36a34.91,34.91,0,0,1-.68,6.73H1052a17,17,0,0,0-.3,3.09,10,10,0,0,0,2.42,7.09,8.35,8.35,0,0,0,6.37,2.57Q1066.59,830.27,1070.16,824.17Zm-16.41-14.36h18.71a12,12,0,0,0,.19-2.15,8.41,8.41,0,0,0-2.27-6.13,7.54,7.54,0,0,0-5.59-2.32Q1057.28,799.21,1053.75,809.81Z" fill="#f3385d"/><path d="M1142.52,828.17l-2.92,10.11h-21.73l.86-3.82q-6.88,4.41-12.78,4.4a14.44,14.44,0,0,1-10.18-3.71,12.22,12.22,0,0,1-4-9.39,15.09,15.09,0,0,1,6.35-12.6q6.35-4.81,17.67-4.82a47,47,0,0,1,8.69,1.37l.79-3.9a4.56,4.56,0,0,0,.15-1.13,4.73,4.73,0,0,0-2.37-4.1,10.48,10.48,0,0,0-5.89-1.56q-4.73,0-11.08,3.22l-7.18-7.13a43,43,0,0,1,20.45-5.37q9.67,0,15.06,3.86a12.31,12.31,0,0,1,5.4,10.59,19,19,0,0,1-.54,4.35l-4.61,19.63Zm-21.79-2.5,1.78-7.86a26.54,26.54,0,0,0-7.16-1A11.76,11.76,0,0,0,1108,819a6.57,6.57,0,0,0-2.83,5.44,5,5,0,0,0,1.63,3.8,5.51,5.51,0,0,0,3.93,1.54Q1115.41,829.78,1120.73,825.67Z" fill="#f3385d"/><path d="M1202.1,828.17l-2.3,10.11h-20.9l1.37-5.81-.2-.2q-6.19,6.69-14,6.69a14.67,14.67,0,0,1-11.77-5.33q-4.49-5.32-4.49-14.07a31.74,31.74,0,0,1,7.37-21q7.38-8.82,17.39-8.82,8.49,0,13.62,8l4-17.29H1185l2.44-10.1H1209l-13.28,57.81Zm-37.51-9a8.67,8.67,0,0,0,2.06,6.07,7.32,7.32,0,0,0,5.71,2.25q5.22,0,9-5.87t3.73-11.16a9.84,9.84,0,0,0-2.32-6.87,7.63,7.63,0,0,0-5.93-2.57q-4.87,0-8.54,5.41A22.17,22.17,0,0,0,1164.59,819.17Z" fill="#f3385d"/><path d="M1243.06,824.17l10.69,4.83q-7.12,10.69-21.29,10.69-9.86,0-15.72-5.59t-5.86-14.94a29.86,29.86,0,0,1,7.86-20.69,25.12,25.12,0,0,1,19.44-8.73,21,21,0,0,1,15,5.69q6,5.69,6,15.36a34.91,34.91,0,0,1-.68,6.73H1224.9a17,17,0,0,0-.3,3.09,10,10,0,0,0,2.42,7.09,8.35,8.35,0,0,0,6.37,2.57Q1239.49,830.27,1243.06,824.17Zm-16.41-14.36h18.71a12,12,0,0,0,.19-2.15,8.41,8.41,0,0,0-2.27-6.13,7.54,7.54,0,0,0-5.59-2.32Q1230.18,799.21,1226.65,809.81Z" fill="#f3385d"/><path d="M1260.54,838.28l2.3-10.11h5.71l6.3-27.1h-6.4l2.29-10.11h19.16l-3.17,13.72.19.2q7.57-11,10.49-12.7a12.19,12.19,0,0,1,6.09-1.66,24.25,24.25,0,0,1,4.26.44l-2.88,12.6a21.39,21.39,0,0,0-4.4-.49q-11.73,0-15.15,15L1283,828.17h7.43l-2.34,10.11Z" fill="#f3385d"/><path d="M1302.53,838.28l3.81-16.31h9.33q1.61,8,11.08,8,9.18,0,9.18-5.07a3.93,3.93,0,0,0-1.39-3q-1.39-1.26-9.55-3.16t-11.06-5.82a13,13,0,0,1-2.9-7.64,12.83,12.83,0,0,1,5.47-10.6q5.46-4.2,14-4.2a19.35,19.35,0,0,1,11,3L1342,791h10.2l-3.17,13.82h-9.72q-1.61-5.52-8.69-5.52a9.85,9.85,0,0,0-5.32,1.27,3.79,3.79,0,0,0-2,3.31,2.93,2.93,0,0,0,1.28,2.36c.84.67,3.88,1.61,9.1,2.82s8.87,3.05,10.94,5.53a13,13,0,0,1,3.1,8.54q0,6.79-5.89,11.23t-15.11,4.44q-8.2,0-13.28-3.17l-.63,2.69Z" fill="#f3385d"/><path d="M484.25,948.17l-2.93,10.11H459.59l.87-3.82q-6.88,4.41-12.79,4.4a14.47,14.47,0,0,1-10.18-3.71,12.25,12.25,0,0,1-4-9.39,15.08,15.08,0,0,1,6.34-12.6q6.35-4.81,17.68-4.82a47.22,47.22,0,0,1,8.69,1.37l.78-3.9a4.56,4.56,0,0,0,.15-1.13,4.73,4.73,0,0,0-2.37-4.1,10.47,10.47,0,0,0-5.88-1.56q-4.74,0-11.09,3.22l-7.17-7.13a43,43,0,0,1,20.45-5.37q9.66,0,15.06,3.86a12.33,12.33,0,0,1,5.39,10.59,19,19,0,0,1-.54,4.35l-4.6,19.63Zm-21.8-2.5,1.79-7.86a26.64,26.64,0,0,0-7.16-1,11.79,11.79,0,0,0-7.36,2.16,6.6,6.6,0,0,0-2.83,5.44,5,5,0,0,0,1.64,3.8,5.51,5.51,0,0,0,3.92,1.54Q457.15,949.78,462.45,945.67Z" fill="#f3385d"/><path d="M486.49,958.28l2.3-10.11H494l6.3-27.1h-7.13L495.47,911h21.58l-1.36,5.91a67.28,67.28,0,0,1,9.83-5.32,18.21,18.21,0,0,1,6.47-1.17,10.56,10.56,0,0,1,7.83,3,10.88,10.88,0,0,1,3,8.08,19.1,19.1,0,0,1-.48,4.15l-5.23,22.51h6.46l-2.34,10.11h-20.9l6.93-29.89a11.44,11.44,0,0,0,.35-2.58q0-4.06-3.48-4.06T513.37,927l-4.87,21.2h6l-2.34,10.11Z" fill="#f3385d"/><path d="M604.22,948.17l-2.29,10.11H581l1.36-5.81-.19-.2Q576,959,568.18,959a14.64,14.64,0,0,1-11.76-5.33q-4.5-5.32-4.5-14.07a31.69,31.69,0,0,1,7.38-21q7.37-8.82,17.38-8.82,8.49,0,13.62,8l4-17.29h-7.23l2.44-10.1h21.59l-13.28,57.81Zm-37.5-9a8.66,8.66,0,0,0,2,6.07,7.34,7.34,0,0,0,5.71,2.25q5.22,0,9-5.87t3.74-11.16a9.88,9.88,0,0,0-2.32-6.87,7.66,7.66,0,0,0-5.93-2.57q-4.89,0-8.55,5.41A22.17,22.17,0,0,0,566.72,939.17Z" fill="#f3385d"/><path d="M633.13,958.28l2.39-10.65h6.39L652.71,901h-7.62l2.49-10.64h29.1q12.21,0,18.51,5.25t6.29,14.86A21.69,21.69,0,0,1,694.59,927q-6.89,6.52-22.34,6.52h-9.87l-3.28,14.16h8.2l-2.39,10.65Zm31.71-35.45h5.81q6.38,0,9.87-3.79a13.7,13.7,0,0,0,3.48-9.63q0-8.42-9.52-8.41H669.9Z" fill="#f3385d"/><path d="M732.78,944.17l10.7,4.83q-7.14,10.69-21.29,10.69-9.87,0-15.73-5.59t-5.85-14.94a29.86,29.86,0,0,1,7.86-20.69,25.11,25.11,0,0,1,19.43-8.73,21,21,0,0,1,15,5.69q6,5.69,6,15.36a35,35,0,0,1-.69,6.73H714.62a16.94,16.94,0,0,0-.29,3.09,10,10,0,0,0,2.41,7.09,8.36,8.36,0,0,0,6.38,2.57C727.18,950.27,730.41,948.23,732.78,944.17Zm-16.4-14.36h18.7a12,12,0,0,0,.19-2.15,8.37,8.37,0,0,0-2.27-6.13,7.52,7.52,0,0,0-5.59-2.32Q719.9,919.21,716.38,929.81Z" fill="#f3385d"/><path d="M750.26,958.28l2.3-10.11h5.71l6.3-27.1h-6.4L760.46,911h19.16l-3.17,13.72.19.2q7.59-11,10.49-12.7a12.24,12.24,0,0,1,6.09-1.66,24.25,24.25,0,0,1,4.26.44l-2.88,12.6a21.39,21.39,0,0,0-4.4-.49q-11.73,0-15.14,15l-2.3,10.11h7.44l-2.35,10.11Z" fill="#f3385d"/><path d="M820.28,948.17,818,958.28H792.26l2.29-10.11h4.83l6.26-27.1h-7.18L800.75,911H808q4.54-21.39,21.58-21.38a20.89,20.89,0,0,1,11.72,3.71L837.37,903a9.09,9.09,0,0,0-6.21-2.78,6.5,6.5,0,0,0-5.38,2.39q-1.9,2.4-3.32,8.4h6.12l-2.31,10.11h-6.14l-6.26,27.1Z" fill="#f3385d"/><path d="M850,959.69q-9.13,0-14.82-5.5T829.51,940a29.79,29.79,0,0,1,8.42-21.46,27.61,27.61,0,0,1,20.68-8.75q9.57,0,15.09,6.09a21,21,0,0,1,5.52,14.63,28.41,28.41,0,0,1-8.38,20.7A28,28,0,0,1,850,959.69Zm7.27-39.35q-6,0-9.54,6.43a27.92,27.92,0,0,0-3.54,13.67,10,10,0,0,0,1.85,6.31,6.1,6.1,0,0,0,5,2.35q5.91,0,9.67-6.41A26.49,26.49,0,0,0,864.52,929a9.65,9.65,0,0,0-1.95-6.33A6.48,6.48,0,0,0,857.29,920.34Z" fill="#f3385d"/><path d="M881.61,958.28l2.3-10.11h5.71l6.3-27.1h-6.4L891.81,911H911l-3.17,13.72.19.2q7.57-11,10.49-12.7a12.19,12.19,0,0,1,6.09-1.66,24.25,24.25,0,0,1,4.26.44L926,923.56a21.39,21.39,0,0,0-4.4-.49q-11.73,0-15.14,15l-2.3,10.11h7.43l-2.34,10.11Z" fill="#f3385d"/><path d="M926,958.28l2.29-10.11H935l6.3-27.1h-8.5L935.12,911h22.94l-1.51,6.59q11.36-7.17,18.35-7.17,9.35,0,12.23,8.49,13.2-8.49,20.62-8.49a13.25,13.25,0,0,1,9.07,3.24,10.83,10.83,0,0,1,3.69,8.53,16.68,16.68,0,0,1-.44,3.71l-5.14,22.31h7.4L1020,958.28H998.12l6.59-28.08a12.72,12.72,0,0,0,.39-3q0-5.22-4.81-5.22T987,928.16l-4.73,20h7.35l-2.29,10.11H965.45l6.49-28.08a15.43,15.43,0,0,0,.39-3.22q0-5-4.79-5-5.73,0-13.36,6.1l-4.66,20.07h7.38l-2.29,10.11Z" fill="#f3385d"/><path d="M1061.93,944.17l10.7,4.83q-7.14,10.69-21.29,10.69-9.87,0-15.72-5.59t-5.86-14.94a29.86,29.86,0,0,1,7.86-20.69,25.11,25.11,0,0,1,19.43-8.73,21,21,0,0,1,15,5.69q6,5.69,6,15.36a35,35,0,0,1-.69,6.73h-33.59a16.94,16.94,0,0,0-.29,3.09,10,10,0,0,0,2.41,7.09,8.36,8.36,0,0,0,6.38,2.57C1056.33,950.27,1059.56,948.23,1061.93,944.17Zm-16.4-14.36h18.7a12,12,0,0,0,.19-2.15,8.37,8.37,0,0,0-2.27-6.13,7.52,7.52,0,0,0-5.59-2.32Q1049,919.21,1045.53,929.81Z" fill="#f3385d"/><path d="M1079.41,958.28l2.3-10.11h5.71l6.3-27.1h-6.4l2.3-10.11h19.15l-3.17,13.72.19.2q7.59-11,10.5-12.7a12.19,12.19,0,0,1,6.09-1.66,24.24,24.24,0,0,1,4.25.44l-2.88,12.6a21.39,21.39,0,0,0-4.4-.49q-11.71,0-15.14,15l-2.3,10.11h7.44L1107,958.28Z" fill="#f3385d"/><path d="M1121.41,958.28l3.8-16.31h9.33q1.62,8,11.09,8,9.16,0,9.17-5.07a3.93,3.93,0,0,0-1.39-3q-1.4-1.26-9.55-3.16t-11-5.82a12.36,12.36,0,0,1,2.56-18.24q5.48-4.2,14-4.2a19.32,19.32,0,0,1,11,3l.59-2.49h10.2l-3.17,13.82h-9.72q-1.6-5.52-8.69-5.52a9.88,9.88,0,0,0-5.32,1.27,3.78,3.78,0,0,0-2,3.31,2.92,2.92,0,0,0,1.27,2.36q1.27,1,9.1,2.82t10.94,5.53a12.91,12.91,0,0,1,3.1,8.54q0,6.79-5.88,11.23t-15.11,4.44q-8.2,0-13.29-3.17l-.63,2.69Z" fill="#f3385d"/></svg>