<svg id="Layer_1" data-name="Layer 1" xmlns="http://www.w3.org/2000/svg" xmlns:xlink="http://www.w3.org/1999/xlink" viewBox="0 0 1600 2560"><defs><linearGradient id="linear-gradient" y1="1280" x2="1600" y2="1280" gradientUnits="userSpaceOnUse"><stop offset="0.02" stop-color="#bbe3f4"/><stop offset="1" stop-color="#78c5e6"/></linearGradient><linearGradient id="linear-gradient-2" x1="300.02" y1="3426.73" x2="300.02" y2="3834.99" gradientTransform="matrix(1.02, 0, 0, -1.02, 494, 6055)" xlink:href="#linear-gradient"/><linearGradient id="linear-gradient-3" x1="300.02" y1="3796.7" x2="300.02" y2="4701.39" gradientTransform="matrix(1.02, 0, 0, -1.02, 494, 6055)" xlink:href="#linear-gradient"/><linearGradient id="linear-gradient-4" x1="300.02" y1="3986.84" x2="300.02" y2="4461.79" gradientTransform="matrix(1.02, 0, 0, -1.02, 494, 6055)" gradientUnits="userSpaceOnUse"><stop offset="0" stop-color="#fd86c8"/><stop offset="0.98" stop-color="#ffb1db"/></linearGradient><linearGradient id="linear-gradient-5" x1="300.02" y1="3459.25" x2="300.02" y2="3709.06" gradientTransform="matrix(1.02, 0, 0, -1.02, 494, 6055)" gradientUnits="userSpaceOnUse"><stop offset="0" stop-color="#fd869c"/><stop offset="0.98" stop-color="#f3385d"/></linearGradient></defs><title>emotional_intelligence</title><rect width="1600" height="2560" fill="url(#linear-gradient)"/><path d="M431.87,2560c0-313,184-416.39,184-416.39H984.11s184,103.37,184,416.39Z" fill="url(#linear-gradient-2)"/><path d="M773.88,2169.43l-55.26-25.82H616.4s-28.51,16-63,54.53a533,533,0,0,0,196,57.32c22.79,2.11,44.38-12.41,49.46-34.72a45.32,45.32,0,0,0-25-51.31Z" fill="#59c2e7"/><path d="M800,2182.66c-255.59,0-461.33-207.34-461.33-461.37C338.67,1466.51,545.22,1260,800,1260s461.33,206.55,461.33,461.33C1261.33,1975.21,1055.63,2182.66,800,2182.66Z" fill="url(#linear-gradient-3)"/><path d="M475,1781.54a134.85,134.85,0,0,1,114.45-182.08A134.85,134.85,0,0,1,800,1531.85a134.85,134.85,0,0,1,210.51,67.61A134.85,134.85,0,0,1,1125,1781.54a110.29,110.29,0,0,1,57.63,104c-3.65,58.35-53.35,103.18-111.82,103.18H529.23c-58.47,0-108.17-44.83-111.82-103.18a110.31,110.31,0,0,1,57.63-104Z" fill="url(#linear-gradient-4)"/><path d="M989.12,1790.37a12.28,12.28,0,0,0,16.17,1.11,109.93,109.93,0,0,1,119.67-9.77,134.29,134.29,0,0,0,6.65-24.3,134.33,134.33,0,0,0-59-13.58c-1.18,0-2.35,0-3.53.07a113.74,113.74,0,0,1-11.21-4.56c-11.06-5.24-25.16-14.44-29.54-28.53a12.31,12.31,0,1,0-23.52,7.3c4.4,14.19,13.87,24.86,24.61,32.82a134.51,134.51,0,0,0-39.2,21,12.3,12.3,0,0,0-1.08,18.4Z" fill="#fd75be"/><path d="M815.09,1641.17c14.24-.07,23.13-3.26,28.66-7.07a18.27,18.27,0,0,0,7.46-18.15A134.85,134.85,0,0,0,800,1532a135.59,135.59,0,0,1,22.12-13.7,159.39,159.39,0,0,1,54.15,98.43,25.44,25.44,0,0,0,12.31,18.45c5.7,3.29,14.1,5.91,26.39,6,6.69,0,12.55,5.13,12.81,11.82a12.31,12.31,0,0,1-12.3,12.81c-27,0-42.18-9.18-50.45-17.61-8.26,8.43-23.45,17.61-50.44,17.61a12.32,12.32,0,0,1-12.31-12.8c.26-6.68,6.12-11.79,12.81-11.83Z" fill="#fd75be"/><path d="M468.39,1757.41a134.29,134.29,0,0,0,6.65,24.3,109.93,109.93,0,0,1,119.67,9.77A12.33,12.33,0,0,0,609.8,1772a134.72,134.72,0,0,0-38-20.67c11.46-9.12,27.86-16.44,51.31-18.31a12.31,12.31,0,1,0-2-24.55c-40.07,3.19-63.92,19.84-77.9,36.33a134.68,134.68,0,0,0-74.82,12.64Z" fill="#fd75be"/><path d="M570.1,1884.4C581,1919,602.36,1933.55,619,1939.7a109.6,109.6,0,0,0,17.88-48.54c.67-5.83,5.15-10.75,11-11.3a12.34,12.34,0,0,1,13.53,13.66A134.92,134.92,0,0,1,605,1988.74H527.41a109.76,109.76,0,0,0,74.87-29.44c-18.77-8.86-43.09-27.71-55.67-67.48-3-9.59,6.29-20.14,19.06-14.45a7.66,7.66,0,0,1,4.43,7Z" fill="#fd75be"/><path d="M1029.9,1884.4C1019,1919,997.64,1933.55,981,1939.7a109.6,109.6,0,0,1-17.88-48.54c-.67-5.83-5.15-10.75-11-11.3a12.34,12.34,0,0,0-13.53,13.66,134.92,134.92,0,0,0,56.47,95.22h77.54a109.76,109.76,0,0,1-74.87-29.44c18.77-8.86,43.09-27.71,55.67-67.48a12.32,12.32,0,0,0-23.49-7.42Z" fill="#fd75be"/><path d="M1117.94,1578.78a341.34,341.34,0,0,0-27.38-44.07,25.39,25.39,0,0,1,41-30,391.47,391.47,0,0,1,31.47,50.65,25.39,25.39,0,0,1-45,23.44Z" fill="#bde5f6"/><path d="M1034.11,1473.74c-6.93-6-14.15-11.7-21.47-17.09a25.39,25.39,0,1,1,30.09-40.9c8.34,6.14,16.57,12.69,24.46,19.47a25.39,25.39,0,0,1-33.08,38.52Z" fill="#bde5f6"/><path d="M580.51,2560V2451.12c0-9.74,7-18.45,16.66-19.62a19,19,0,0,1,21.43,18.9V2560Z" fill="#59c2e7"/><path d="M1019.75,2560V2451.12c0-9.74-7-18.45-16.66-19.62a19,19,0,0,0-21.43,18.9V2560Z" fill="#59c2e7"/><path d="M800,2303.17c-105.07-102.69-277.57,69.32-23.39,217.34a46.43,46.43,0,0,0,46.78,0c254.18-148,81.68-320-23.39-217.34Z" fill="url(#linear-gradient-5)"/><text transform="translate(306.35 263.17)" font-size="200" font-family="FranklinGothic-Demi, Franklin Gothic Demi" font-weight="300" letter-spacing="0.03em">Emotional <tspan x="-56.17" y="240">In</tspan><tspan x="121.5" y="240" letter-spacing="0.02em">t</tspan><tspan x="195.84" y="240">elligence</tspan></text><text transform="translate(247.75 838.28)" font-size="100" fill="#f3385d" font-family="Rockwell-BoldItalic, Rockwell" font-weight="700" font-style="italic">Secret of Great Leaders<tspan x="181.13" y="120">and </tspan><tspan x="384.25" y="120" letter-spacing="-0.02em">P</tspan><tspan x="446.85" y="120">er</tspan><tspan x="543.73" y="120" letter-spacing="-0.01em">f</tspan><tspan x="576.05" y="120">o</tspan><tspan x="633.37" y="120" letter-spacing="0.04em">r</tspan><tspan x="679.08" y="120">mers</tspan></text></svg>