<svg id="Layer_1" data-name="Layer 1" xmlns="http://www.w3.org/2000/svg" viewBox="0 0 1600 2560"><defs><style>.cls-1{fill:#c71313;}.cls-2,.cls-5{fill:#fff708;}.cls-3{fill:#fec606;}.cls-4{fill:#ff9108;}.cls-5{font-size:265px;font-family:SegoeScript-Bold, Segoe Script;font-weight:700;}.cls-6{letter-spacing:0.08em;}.cls-7{fill:#ad1111;}</style></defs><title>five_stars</title><rect id="bg" class="cls-1" width="1600" height="2560"/><g id="Layer_14" data-name="Layer 14"><path class="cls-2" d="M1095.64,1240.72a7.81,7.81,0,0,0,0-11.31,6.63,6.63,0,0,0-4.31-2.15l-191.75-28a8.38,8.38,0,0,1-5.93-4.31l-86.18-174a8.57,8.57,0,0,0-10.77-3.77c-1.62.54-2.69,2.15-3.77,3.77l-85.64,174a8.38,8.38,0,0,1-5.93,4.31l-191.75,28c-4.31.53-7,4.84-6.47,9.15a6.64,6.64,0,0,0,2.16,4.31l139,135.2a8,8,0,0,1,2.15,7l-32.86,191.22a8.28,8.28,0,0,0,6.47,9.15c1.61.54,3.23,0,4.85-.54l171.82-90.49a9.23,9.23,0,0,1,7.54,0l171.82,90.49a8,8,0,0,0,10.78-3.23c.54-1.61,1.07-3.23.54-4.85l-32.86-191.21a8,8,0,0,1,2.15-7Z"/><path class="cls-3" d="M1382.19,1210.56a6.19,6.19,0,0,0,0-9.16,4.86,4.86,0,0,0-3.77-1.61l-154.05-22.63a7.81,7.81,0,0,1-4.84-3.23l-69-139.51a6.28,6.28,0,0,0-8.62-2.69,6.58,6.58,0,0,0-2.69,2.69l-68.94,139.51c-1.08,1.62-2.7,3.23-4.85,3.23l-154.05,22.63c-.54,0-1.62.53-2.16.53l181.52,26.4c4.31.54,7,4.84,6.47,9.15a6.62,6.62,0,0,1-2.16,4.31l-78.1,76.49,2.69,2.69a5.46,5.46,0,0,1,1.62,5.39l-26.39,153.51c-.54,3.23,1.61,6.46,5.38,7.54a7.94,7.94,0,0,0,3.77-.54L1142,1412.55a5.81,5.81,0,0,1,5.93,0l137.89,72.71a6.28,6.28,0,0,0,8.62-2.69c.54-1.08,1.07-2.7.54-3.77l-26.4-153.51a6,6,0,0,1,1.62-5.39Z"/><path class="cls-3" d="M579.09,1324.75a6,6,0,0,1,1.62-5.39l2.69-2.69-78.1-76.49a7.81,7.81,0,0,1,0-11.31,6.63,6.63,0,0,1,4.31-2.15l181.52-26.4c-.54-.53-1.08-.53-2.16-.53l-154.05-22.63a7.81,7.81,0,0,1-4.84-3.23l-69-139.51a6.29,6.29,0,0,0-8.62-2.69,6.58,6.58,0,0,0-2.69,2.69l-68.95,139.51c-1.07,1.62-2.69,3.23-4.84,3.23l-154,22.63c-3.23.53-5.93,3.77-5.39,7,0,1.61,1.08,2.69,1.62,3.77l111.49,108.8a5.46,5.46,0,0,1,1.62,5.39l-26.39,153.51c-.54,3.23,1.61,6.46,5.38,7.54a7.94,7.94,0,0,0,3.77-.54L452,1412.55a5.81,5.81,0,0,1,5.93,0l137.89,72.71a6.28,6.28,0,0,0,8.62-2.69c.54-1.08,1.07-2.7.54-3.77Z"/><path class="cls-4" d="M1475.38,1131.92a4.24,4.24,0,0,0,0-5.93,4.07,4.07,0,0,0-2.16-1.07l-99.1-14.55a4.43,4.43,0,0,1-3.24-2.15l-44.16-89.42c-1.08-2.15-3.24-2.69-5.39-1.61-.54.54-1.62,1.08-1.62,1.61l-44.16,89.42a3.65,3.65,0,0,1-3.24,2.15l-78.1,11.31,25.86,52.25c1.07,1.62,2.69,3.23,4.84,3.23l154,22.63c3.23.53,5.93,3.77,5.39,7,0,1.61-1.08,2.69-1.62,3.77l-53.86,52.78,85.1,44.71c2.16,1.08,4.31.54,5.39-1.61.54-.54.54-1.62.54-2.7l-16.7-98.57a5.12,5.12,0,0,1,1.08-3.77Z"/><path class="cls-4" d="M328.63,1110.91a4.46,4.46,0,0,1-3.24-2.15l-44.16-89.42c-1.08-2.15-3.23-2.69-5.39-1.61-.54.54-1.62,1.07-1.62,1.61l-44.16,89.42a3.65,3.65,0,0,1-3.24,2.15l-99.1,14.54c-2.16.54-3.77,2.16-3.24,4.85a2.81,2.81,0,0,0,1.08,2.16l71.64,70a3.32,3.32,0,0,1,1.08,3.77l-16.7,98.57a4.2,4.2,0,0,0,3.23,4.85,4.82,4.82,0,0,0,2.69-.54l85.11-45.79-53.86-52.78a6.19,6.19,0,0,1,0-9.16,4.86,4.86,0,0,1,3.77-1.61l154-22.63a7.81,7.81,0,0,0,4.84-3.23l25.86-52.25Z"/></g><text class="cls-5" transform="translate(109.74 518.29)">Five <tspan class="cls-6" x="697.95" y="0">S</tspan><tspan x="881.31" y="0">tars</tspan></text><rect class="cls-7" x="65" width="37.5" height="2559"/><path class="cls-3" d="M186.77,1908.54h68.95v15.09H186.77Zm26.63,7.84h15.69v88H213.4Z"/><path class="cls-3" d="M263.63,1908.54h15.76v95.84H263.63Zm40.54,54.38q0-6.14-3.29-9.49t-9.36-3.36q-5.81,0-9,3.09t-3.16,8.77L278,1947.76a24.78,24.78,0,0,1,7.81-9.49,18.9,18.9,0,0,1,11.11-3.3q10.93,0,17,7.28t6,20.6v41.53H304.17Z"/><path class="cls-3" d="M358,2005.37l-6.86-3.56a24.15,24.15,0,0,1-10.48-10.45q-3.63-6.88-3.63-16.64V1967q0-10.15,3.47-17.34a24.29,24.29,0,0,1,10.08-10.94,31.73,31.73,0,0,1,15.92-3.76,25.44,25.44,0,0,1,15,4.38A27.24,27.24,0,0,1,391,1952q3.25,8.31,3.26,20v4.49H347.81V1965h31.84l-.07-.73q-.66-7.17-4-11.14a11.26,11.26,0,0,0-9-4q-7.12,0-11,4.45t-3.89,12.62v8.7q0,7.79,4.22,12t11.87,4.18a20.92,20.92,0,0,0,7.68-1.48,23.23,23.23,0,0,0,6.82-4.12l10.28,9.62a38.12,38.12,0,0,1-11.7,7.55,34.15,34.15,0,0,1-13.08,2.67Z"/><path class="cls-3" d="M470.61,2005.37l-7.68-4.32a28.91,28.91,0,0,1-11.79-12.36q-4.12-8-4.12-19v-26.3q0-11,4.12-19a29.21,29.21,0,0,1,11.79-12.39,36.14,36.14,0,0,1,18.1-4.35,33.1,33.1,0,0,1,15.65,3.69,31.52,31.52,0,0,1,11.67,10.65,42.82,42.82,0,0,1,6.36,16.44H498.5a23.08,23.08,0,0,0-3.76-8.07,17.88,17.88,0,0,0-6.1-5.31,16.17,16.17,0,0,0-7.61-1.84,17.57,17.57,0,0,0-9.46,2.47,16.31,16.31,0,0,0-6.16,7,24.65,24.65,0,0,0-2.18,10.74v26.3a24.67,24.67,0,0,0,2.18,10.75,16.12,16.12,0,0,0,6.16,7,17.83,17.83,0,0,0,9.46,2.43,16.87,16.87,0,0,0,7.68-1.77,17.55,17.55,0,0,0,6.1-5.21,21.9,21.9,0,0,0,3.69-8.24h16.21a43.7,43.7,0,0,1-6.42,16.44,31.6,31.6,0,0,1-11.67,10.65,33,33,0,0,1-15.59,3.69Z"/><path class="cls-3" d="M542.5,2001.88a23.2,23.2,0,0,1-9.89-10.19,35.29,35.29,0,0,1-3.39-16.11v-11.14a34.56,34.56,0,0,1,3.39-15.92,23.07,23.07,0,0,1,9.89-10.09,36.85,36.85,0,0,1,31.18,0,23.18,23.18,0,0,1,9.89,10.09,34.56,34.56,0,0,1,3.39,15.92v11.33a34.77,34.77,0,0,1-3.39,16,23.35,23.35,0,0,1-9.89,10.12,36.57,36.57,0,0,1-31.18,0Zm25.28-15.39q3.42-3.79,3.43-10.72v-11.33q0-6.86-3.43-10.62t-9.69-3.75q-6.27,0-9.69,3.75T545,1964.44v11.33q0,6.93,3.4,10.72t9.72,3.79Q564.35,1990.28,567.78,1986.49Z"/><path class="cls-3" d="M604.76,1936h15.75v68.42H604.76Zm40.41,28q0-6.66-3.27-10.25t-9.26-3.59q-5.8,0-9,3.13t-3.17,8.86l-1.38-14.17a24.56,24.56,0,0,1,7.91-9.59,18.89,18.89,0,0,1,11-3.33,22,22,0,0,1,12.32,3.36,20.81,20.81,0,0,1,7.81,9.86,41.14,41.14,0,0,1,2.67,15.65v40.54H645.17Zm40.34,0q0-6.66-3.3-10.25t-9.36-3.59q-5.73,0-8.86,3.46t-3.14,9.85l-3-14.5a25.83,25.83,0,0,1,8.47-10.28,20,20,0,0,1,11.64-3.63,22.88,22.88,0,0,1,12.62,3.36,21.05,21.05,0,0,1,8,9.86,40.33,40.33,0,0,1,2.73,15.65v40.54H685.51Z"/><path class="cls-3" d="M720.38,1936h15.75v68.42H720.38Zm40.41,28q0-6.66-3.27-10.25t-9.26-3.59q-5.81,0-9,3.13t-3.17,8.86l-1.38-14.17a24.56,24.56,0,0,1,7.91-9.59,18.89,18.89,0,0,1,11-3.33,22,22,0,0,1,12.32,3.36,20.81,20.81,0,0,1,7.81,9.86,41.14,41.14,0,0,1,2.67,15.65v40.54H760.79Zm40.34,0q0-6.66-3.3-10.25t-9.36-3.59q-5.73,0-8.86,3.46t-3.14,9.85l-3-14.5a25.83,25.83,0,0,1,8.47-10.28,20,20,0,0,1,11.64-3.63,22.88,22.88,0,0,1,12.62,3.36,21.05,21.05,0,0,1,8,9.86,40.33,40.33,0,0,1,2.73,15.65v40.54H801.13Z"/><path class="cls-3" d="M851.75,1977.55q0,6.08,3.23,9.4t9.1,3.33q5.86,0,9-3.13t3.16-9l.93,14.63a20.14,20.14,0,0,1-6.6,9,17.7,17.7,0,0,1-11.27,3.62q-11.13,0-17.23-7.18t-6.1-20.31V1936h15.75ZM876.27,1936H892v68.42H876.27Z"/><path class="cls-3" d="M911.08,1936h15.75v68.42H911.08Zm40.54,27q0-6.14-3.3-9.49t-9.36-3.36q-5.81,0-9,3.13t-3.17,8.86l-1.38-14.17a24.49,24.49,0,0,1,7.81-9.62,18.86,18.86,0,0,1,11.11-3.3q10.93,0,17,7.28t6,20.6v41.53H951.62Z"/><path class="cls-3" d="M986,1908.54h15.69v15.75H986Zm0,27.42h15.69v68.42H986Z"/><path class="cls-3" d="M1039.09,2005.37l-6.79-3.59A24.14,24.14,0,0,1,1022,1991.3q-3.56-6.88-3.56-16.65v-9.29a35.21,35.21,0,0,1,3.56-16.45,24,24,0,0,1,10.35-10.38,34.87,34.87,0,0,1,16.35-3.56,39.84,39.84,0,0,1,10.31,1.29,31,31,0,0,1,8.71,3.72,23.4,23.4,0,0,1,6.42,5.93l-10.67,10a18.66,18.66,0,0,0-6.33-4.35,19.5,19.5,0,0,0-7.58-1.51q-7.32,0-11.34,4t-4,11.31v9.29q0,7.51,4,11.57t11.38,4.06a18.39,18.39,0,0,0,13.91-6.33l10.67,10.68a24.42,24.42,0,0,1-6.49,5.83,30.62,30.62,0,0,1-8.7,3.66,41.06,41.06,0,0,1-10.25,1.25Z"/><path class="cls-3" d="M1090.18,2000.13q-5.87-5.24-5.87-15.92,0-10.14,5.93-15.23t17.8-5.07h18.33l.92,12.26h-19.18q-4.68,0-7,2t-2.34,6.06a7.17,7.17,0,0,0,3,6.36q3,2.09,9.16,2.08,7.51,0,11.17-1.65t3.66-5.14l1.39,9.76a11.58,11.58,0,0,1-3.92,5.4,19.09,19.09,0,0,1-6.76,3.26,32.34,32.34,0,0,1-8.64,1.09Q1096.05,2005.37,1090.18,2000.13Zm35.59-39.12q0-5.73-3.39-8.9t-9.59-3.16a24.69,24.69,0,0,0-7.78,1.25,24,24,0,0,0-6.86,3.49l-10.48-8.83a26.54,26.54,0,0,1,10.55-7.28,38.71,38.71,0,0,1,14.5-2.61,33.93,33.93,0,0,1,14.9,3,21.31,21.31,0,0,1,9.46,8.7,27.3,27.3,0,0,1,3.26,13.75v44h-14.57Z"/><path class="cls-3" d="M1154.18,1936h32.17v13.78h-32.17Zm11.08,64.17q-4-4.58-4-13.55v-70.53H1177v68.36a6.46,6.46,0,0,0,1,3.86,3.37,3.37,0,0,0,2.9,1.35h5.47v15.09h-8.44Q1169.29,2004.71,1165.26,2000.13Z"/><path class="cls-3" d="M1203,1908.54h15.69v15.75H1203Zm0,27.42h15.69v68.42H1203Z"/><path class="cls-3" d="M1248.68,2001.88a23.2,23.2,0,0,1-9.89-10.19,35.29,35.29,0,0,1-3.4-16.11v-11.14a34.55,34.55,0,0,1,3.4-15.92,23.07,23.07,0,0,1,9.89-10.09,36.85,36.85,0,0,1,31.18,0,23.1,23.1,0,0,1,9.88,10.09,34.43,34.43,0,0,1,3.4,15.92v11.33a34.64,34.64,0,0,1-3.4,16,23.28,23.28,0,0,1-9.88,10.12,36.57,36.57,0,0,1-31.18,0Zm25.28-15.39q3.42-3.79,3.42-10.72v-11.33q0-6.86-3.42-10.62t-9.69-3.75q-6.27,0-9.69,3.75t-3.43,10.62v11.33q0,6.93,3.39,10.72t9.73,3.79Q1270.53,1990.28,1274,1986.49Z"/><path class="cls-3" d="M1310.94,1936h15.75v68.42h-15.75Zm40.54,27q0-6.14-3.3-9.49t-9.36-3.36q-5.8,0-9,3.13t-3.17,8.86l-1.38-14.17a24.49,24.49,0,0,1,7.81-9.62,18.85,18.85,0,0,1,11.1-3.3q11,0,17,7.28t6,20.6v41.53h-15.75Z"/><path class="cls-3" d="M249.86,2205.37l-6.37-1.35a54,54,0,0,1-11.93-4,46.48,46.48,0,0,1-10.18-6.52l8.37-12.59a38.84,38.84,0,0,0,12.43,7.08,43.76,43.76,0,0,0,14.6,2.41q9.62,0,14.93-3.43a10.89,10.89,0,0,0,5.3-9.69v-.07a10,10,0,0,0-2.37-7,13.91,13.91,0,0,0-6.2-3.82,77.32,77.32,0,0,0-9.82-2.27,1.07,1.07,0,0,0-.39-.07,1.09,1.09,0,0,1-.4-.07l-1.19-.19a96.7,96.7,0,0,1-15.82-3.76,22.71,22.71,0,0,1-10.54-7.78q-4.35-5.59-4.35-15.88v-.07a28.54,28.54,0,0,1,4.08-15.56,25.64,25.64,0,0,1,11.87-9.82q7.77-3.36,18.72-3.36a47.24,47.24,0,0,1,10.32,1.15,54.15,54.15,0,0,1,10.15,3.36,57.34,57.34,0,0,1,9.65,5.51l-7.64,13a46.1,46.1,0,0,0-11.27-6,33.13,33.13,0,0,0-11.21-2c-6.06,0-10.76,1.11-14.07,3.33a10.66,10.66,0,0,0-5,9.39v.07a9.89,9.89,0,0,0,2.57,7.19,15.22,15.22,0,0,0,6.43,3.85,107.25,107.25,0,0,0,10.78,2.61l.49.09.49.1.73.14c.26,0,.5.08.72.13a78.41,78.41,0,0,1,14.87,4.28,23.45,23.45,0,0,1,10,8q4,5.55,4,15.1v.13a27.27,27.27,0,0,1-4.22,15.36,26.25,26.25,0,0,1-12.26,9.72q-8.06,3.33-19.38,3.33Z"/><path class="cls-3" d="M328.1,2205.37l-6.86-3.56a24.15,24.15,0,0,1-10.48-10.45q-3.61-6.89-3.62-16.64V2167q0-10.16,3.46-17.34a24.4,24.4,0,0,1,10.08-10.94A31.75,31.75,0,0,1,336.6,2135a25.4,25.4,0,0,1,15,4.38,27.18,27.18,0,0,1,9.49,12.69q3.27,8.31,3.26,20v4.49H317.88V2165h31.84l-.06-.73c-.45-4.78-1.78-8.5-4-11.14a11.26,11.26,0,0,0-9-3.95q-7.11,0-11,4.45t-3.88,12.62v8.7q0,7.79,4.21,12t11.87,4.18a20.92,20.92,0,0,0,7.68-1.48,23.11,23.11,0,0,0,6.82-4.12l10.29,9.62a38.28,38.28,0,0,1-11.71,7.55,34.11,34.11,0,0,1-13.08,2.67Z"/><path class="cls-3" d="M400.21,2205.37l-6.79-3.59a24.12,24.12,0,0,1-10.34-10.48q-3.57-6.89-3.56-16.65v-9.29q0-9.63,3.56-16.45a23.94,23.94,0,0,1,10.34-10.38,34.87,34.87,0,0,1,16.35-3.56,40,40,0,0,1,10.32,1.29,31,31,0,0,1,8.7,3.72,23.58,23.58,0,0,1,6.43,5.93l-10.68,10a18.47,18.47,0,0,0-6.33-4.35,19.46,19.46,0,0,0-7.58-1.51q-7.32,0-11.34,4t-4,11.31v9.29q0,7.51,4,11.57t11.37,4.06a18.35,18.35,0,0,0,13.91-6.33l10.68,10.68a24.46,24.46,0,0,1-6.5,5.83,30.62,30.62,0,0,1-8.7,3.66,41,41,0,0,1-10.25,1.25Z"/><path class="cls-3" d="M448.73,2136h16.41v68.42H448.73Zm34.21,15a14.65,14.65,0,0,0-5.34-.89q-5.93,0-9.19,3.52t-3.27,9.79l-1.38-15.49a24.41,24.41,0,0,1,7.74-9.52A17.75,17.75,0,0,1,482,2135a23.11,23.11,0,0,1,8.11,1.35,17.88,17.88,0,0,1,6.32,4l-9.62,13.25A10.14,10.14,0,0,0,482.94,2151Z"/><path class="cls-3" d="M524,2205.37l-6.86-3.56a24.15,24.15,0,0,1-10.48-10.45q-3.63-6.89-3.62-16.64V2167q0-10.16,3.46-17.34a24.35,24.35,0,0,1,10.08-10.94,31.75,31.75,0,0,1,15.92-3.76,25.42,25.42,0,0,1,15,4.38A27.24,27.24,0,0,1,557,2152q3.25,8.31,3.26,20v4.49H513.79V2165h31.84l-.07-.73q-.66-7.17-4-11.14a11.26,11.26,0,0,0-9-3.95q-7.11,0-11,4.45t-3.89,12.62v8.7q0,7.79,4.22,12t11.87,4.18a20.92,20.92,0,0,0,7.68-1.48,23.23,23.23,0,0,0,6.82-4.12l10.28,9.62a38.12,38.12,0,0,1-11.7,7.55,34.15,34.15,0,0,1-13.08,2.67Z"/><path class="cls-3" d="M572.13,2136H604.3v13.78H572.13Zm11.07,64.17q-4-4.58-4-13.55v-70.53h15.76v68.36a6.53,6.53,0,0,0,1,3.86,3.38,3.38,0,0,0,2.91,1.35h5.47v15.09h-8.44Q587.22,2204.71,583.2,2200.13Z"/><path class="cls-3" d="M640.49,2205.37l-5.54-1.15a47.66,47.66,0,0,1-10.38-3.4,39.21,39.21,0,0,1-8.74-5.47l9.56-11.86a43,43,0,0,0,10.65,5.6,31.63,31.63,0,0,0,10.58,1.91q7.18,0,10.9-1.94t3.73-5.64a5,5,0,0,0-1.85-4.25,10.83,10.83,0,0,0-4.64-2q-2.81-.53-7.88-1l-1.78-.14c-.62,0-1.21-.1-1.78-.19a3.15,3.15,0,0,1-.53,0,4.58,4.58,0,0,0-.53,0,65.2,65.2,0,0,1-11.79-2.21,15.31,15.31,0,0,1-7.75-5.44q-3.13-4-3.13-11.53a21.46,21.46,0,0,1,3.13-11.9,19.19,19.19,0,0,1,9.2-7.32,39.47,39.47,0,0,1,14.89-2.47,51.45,51.45,0,0,1,10.29,1,49.89,49.89,0,0,1,9.59,3,46.68,46.68,0,0,1,8.67,4.84l-9.43,11.47a44.16,44.16,0,0,0-9.72-4.41,32.3,32.3,0,0,0-9.53-1.52q-6.2,0-9.43,1.78a5.7,5.7,0,0,0-3.22,5.27,3.87,3.87,0,0,0,1.77,3.43,11.22,11.22,0,0,0,4.45,1.62c1.78.28,4.37.58,7.75.89l1,.1c.33,0,.67.05,1,.1h.46a2.33,2.33,0,0,1,.53.06,70.68,70.68,0,0,1,12.59,2.18,16.79,16.79,0,0,1,8.51,5.76q3.48,4.32,3.49,12.56a21.64,21.64,0,0,1-3.3,12.23,20,20,0,0,1-9.79,7.51,43.65,43.65,0,0,1-15.91,2.54Z"/><path class="cls-3" d="M722.42,2136h32.17v13.78H722.42Zm11.08,64.17q-4-4.58-4-13.55v-70.53h15.76v68.36a6.46,6.46,0,0,0,1,3.86,3.36,3.36,0,0,0,2.9,1.35h5.47v15.09h-8.44Q737.51,2204.71,733.5,2200.13Z"/><path class="cls-3" d="M783,2201.88a23.25,23.25,0,0,1-9.89-10.19,35.29,35.29,0,0,1-3.39-16.11v-11.14a34.56,34.56,0,0,1,3.39-15.92,23.12,23.12,0,0,1,9.89-10.09,36.85,36.85,0,0,1,31.18,0,23.07,23.07,0,0,1,9.89,10.09,34.56,34.56,0,0,1,3.39,15.92v11.33a34.77,34.77,0,0,1-3.39,16,23.24,23.24,0,0,1-9.89,10.12,36.57,36.57,0,0,1-31.18,0Zm25.28-15.39q3.44-3.79,3.43-10.72v-11.33q0-6.86-3.43-10.62t-9.69-3.75q-6.25,0-9.69,3.75t-3.43,10.62v11.33q0,6.93,3.4,10.72t9.72,3.79Q804.89,2190.28,808.31,2186.49Z"/><path class="cls-3" d="M890.28,2202.11a21.29,21.29,0,0,1-8-9.82,39.67,39.67,0,0,1-2.73-15.53v-13.05a40.55,40.55,0,0,1,2.7-15.59,21.17,21.17,0,0,1,7.88-9.89,22.17,22.17,0,0,1,12.43-3.39,18.48,18.48,0,0,1,10.57,3.23,22.83,22.83,0,0,1,7.68,9.1l-1.38,14.56a15,15,0,0,0-1.38-6.72,9.62,9.62,0,0,0-4-4.22,13.12,13.12,0,0,0-6.39-1.45q-5.86,0-9.1,3.82t-3.23,10.68v12.92q0,6.79,3.23,10.52t9.1,3.72a12.79,12.79,0,0,0,6.39-1.48,9.85,9.85,0,0,0,4-4.25,14.82,14.82,0,0,0,1.38-6.66l.92,15a18.5,18.5,0,0,1-6.56,8.6,18.08,18.08,0,0,1-10.91,3.26A22.72,22.72,0,0,1,890.28,2202.11Zm7,30.09-6.27-2.87a22.91,22.91,0,0,1-9.75-8.07l10.61-9.69A16.7,16.7,0,0,0,905,2218q6.72,0,10.61-3.66t3.89-10.31v-68H935.2v66.38a34.38,34.38,0,0,1-3.52,16.15,23.58,23.58,0,0,1-10.29,10.22,35,35,0,0,1-16.24,3.49Z"/><path class="cls-3" d="M973.3,2205.37l-6.85-3.56A24.1,24.1,0,0,1,956,2191.36q-3.63-6.89-3.63-16.64V2167q0-10.16,3.46-17.34a24.37,24.37,0,0,1,10.09-10.94,31.73,31.73,0,0,1,15.92-3.76,25.39,25.39,0,0,1,15,4.38,27.19,27.19,0,0,1,9.5,12.69q3.26,8.31,3.26,20v4.49H963.09V2165h31.84l-.07-.73q-.66-7.17-4-11.14a11.26,11.26,0,0,0-9-3.95q-7.12,0-11,4.45t-3.89,12.62v8.7q0,7.79,4.22,12t11.87,4.18a20.82,20.82,0,0,0,7.67-1.48,23.28,23.28,0,0,0,6.83-4.12l10.28,9.62a38.12,38.12,0,0,1-11.7,7.55,34.15,34.15,0,0,1-13.08,2.67Z"/><path class="cls-3" d="M1021.42,2136h32.17v13.78h-32.17Zm11.08,64.17q-4-4.58-4-13.55v-70.53h15.75v68.36a6.46,6.46,0,0,0,1,3.86,3.37,3.37,0,0,0,2.9,1.35h5.47v15.09h-8.43Q1036.52,2204.71,1032.5,2200.13Z"/><path class="cls-3" d="M1101.71,2136h35.53v13.45h-35.53Zm7.25-9.29q0-9.11,4.19-13.62t12.89-4.51h11.2V2123h-8.63a3.3,3.3,0,0,0-2.9,1.45,6.55,6.55,0,0,0-1,3.76v76.2H1109Z"/><path class="cls-3" d="M1149.77,2136h16.41v68.42h-16.41Zm34.21,15a14.65,14.65,0,0,0-5.34-.89q-5.94,0-9.2,3.52t-3.26,9.79l-1.38-15.49a24.24,24.24,0,0,1,7.74-9.52,17.72,17.72,0,0,1,10.51-3.4,23.07,23.07,0,0,1,8.11,1.35,17.84,17.84,0,0,1,6.33,4l-9.62,13.25A10.21,10.21,0,0,0,1184,2151Z"/><path class="cls-3" d="M1217.37,2201.88a23.2,23.2,0,0,1-9.89-10.19,35.16,35.16,0,0,1-3.4-16.11v-11.14a34.43,34.43,0,0,1,3.4-15.92,23.07,23.07,0,0,1,9.89-10.09,36.85,36.85,0,0,1,31.18,0,23.1,23.1,0,0,1,9.88,10.09,34.43,34.43,0,0,1,3.4,15.92v11.33a34.64,34.64,0,0,1-3.4,16,23.28,23.28,0,0,1-9.88,10.12,36.57,36.57,0,0,1-31.18,0Zm25.28-15.39q3.42-3.79,3.42-10.72v-11.33q0-6.86-3.42-10.62t-9.69-3.75q-6.27,0-9.69,3.75t-3.43,10.62v11.33q0,6.93,3.39,10.72t9.73,3.79Q1239.22,2190.28,1242.65,2186.49Z"/><path class="cls-3" d="M1279.63,2136h15.75v68.42h-15.75Zm40.4,27.95q0-6.66-3.26-10.25t-9.26-3.59q-5.8,0-9,3.13t-3.16,8.86l-1.38-14.17a24.56,24.56,0,0,1,7.91-9.59,18.83,18.83,0,0,1,11-3.33,22,22,0,0,1,12.33,3.36,20.81,20.81,0,0,1,7.81,9.86,41.14,41.14,0,0,1,2.67,15.65v40.54H1320Zm40.35,0q0-6.66-3.3-10.25t-9.36-3.59q-5.73,0-8.87,3.46t-3.13,9.85l-3-14.5a25.83,25.83,0,0,1,8.47-10.28,20,20,0,0,1,11.63-3.63,22.91,22.91,0,0,1,12.63,3.36,21,21,0,0,1,8,9.86,40.14,40.14,0,0,1,2.74,15.65v40.54h-15.75Z"/><path class="cls-3" d="M384.62,2351.78v17.73a40,40,0,0,1-4.25,18.82,30.35,30.35,0,0,1-12,12.59,35.43,35.43,0,0,1-18,4.45,37.89,37.89,0,0,1-18.12-4.18,29.79,29.79,0,0,1-12.17-11.84,35.49,35.49,0,0,1-4.31-17.73v-28.28a39.76,39.76,0,0,1,4.25-18.78,30.39,30.39,0,0,1,12-12.56,35.43,35.43,0,0,1,18-4.45,34.44,34.44,0,0,1,15.49,3.53,32.39,32.39,0,0,1,11.86,10,37.31,37.31,0,0,1,6.46,15h-17a16.84,16.84,0,0,0-9.66-11.11,18,18,0,0,0-7.15-1.48,17.77,17.77,0,0,0-9.46,2.47,16.69,16.69,0,0,0-6.3,7,23.32,23.32,0,0,0-2.24,10.45v28.28a18.82,18.82,0,0,0,2.28,9.39,15.44,15.44,0,0,0,6.46,6.27,20.38,20.38,0,0,0,9.65,2.21,18.79,18.79,0,0,0,9.5-2.34,15.63,15.63,0,0,0,6.29-6.79,23.62,23.62,0,0,0,2.21-10.58v-2.9h-17v-15.1Z"/><path class="cls-3" d="M416.79,2401a30.37,30.37,0,0,1-12.06-12.39,38.73,38.73,0,0,1-4.29-18.56v-27.16a38.69,38.69,0,0,1,4.29-18.55,30.39,30.39,0,0,1,12.06-12.4,39.16,39.16,0,0,1,36,0,30.42,30.42,0,0,1,12.07,12.4,38.8,38.8,0,0,1,4.28,18.55V2370a38.84,38.84,0,0,1-4.28,18.56A30.39,30.39,0,0,1,452.78,2401a39.16,39.16,0,0,1-36,0Zm27.52-13.61a16,16,0,0,0,6.36-6.76,21.86,21.86,0,0,0,2.25-10.12v-28.08a21.86,21.86,0,0,0-2.25-10.12,16,16,0,0,0-6.36-6.76,20.33,20.33,0,0,0-19.05,0,16.16,16.16,0,0,0-6.36,6.76,22,22,0,0,0-2.24,10.12v28.08a22,22,0,0,0,2.24,10.12,16.16,16.16,0,0,0,6.36,6.76,20.33,20.33,0,0,0,19.05,0Z"/><path class="cls-3" d="M501.3,2401a30.31,30.31,0,0,1-12.06-12.39A38.73,38.73,0,0,1,485,2370v-27.16a38.69,38.69,0,0,1,4.29-18.55,30.33,30.33,0,0,1,12.06-12.4,39.16,39.16,0,0,1,36,0,30.33,30.33,0,0,1,12.06,12.4,38.69,38.69,0,0,1,4.29,18.55V2370a38.73,38.73,0,0,1-4.29,18.56A30.31,30.31,0,0,1,537.29,2401a39.16,39.16,0,0,1-36,0Zm27.52-13.61a16,16,0,0,0,6.36-6.76,22,22,0,0,0,2.24-10.12v-28.08a22,22,0,0,0-2.24-10.12,16,16,0,0,0-6.36-6.76,20.33,20.33,0,0,0-19.05,0,16,16,0,0,0-6.36,6.76,21.86,21.86,0,0,0-2.24,10.12v28.08a21.86,21.86,0,0,0,2.24,10.12,16,16,0,0,0,6.36,6.76,20.33,20.33,0,0,0,19.05,0Z"/><path class="cls-3" d="M572.75,2308.54h15.76v95.84H572.75Zm9.1,80.75H604.2q9.75,0,15.13-4.88t5.37-13.84v-28.22q0-9-5.37-13.84t-15.13-4.88H581.85v-15.09H603.8q11.73,0,20.07,4a28.23,28.23,0,0,1,12.69,11.73q4.35,7.71,4.35,18.59V2370a37.26,37.26,0,0,1-4.28,18.33A28.65,28.65,0,0,1,624,2400.23q-8.32,4.16-20.26,4.15H581.85Z"/><path class="cls-3" d="M684.42,2308.54h69v15.09h-69Zm26.63,7.84h15.69v88H711.05Z"/><path class="cls-3" d="M765.33,2401.88a23.17,23.17,0,0,1-9.88-10.19,35.16,35.16,0,0,1-3.4-16.11v-11.14a34.43,34.43,0,0,1,3.4-15.92,23,23,0,0,1,9.88-10.09,36.85,36.85,0,0,1,31.18,0,23.07,23.07,0,0,1,9.89,10.09,34.56,34.56,0,0,1,3.39,15.92v11.33a34.77,34.77,0,0,1-3.39,16,23.24,23.24,0,0,1-9.89,10.12,36.57,36.57,0,0,1-31.18,0Zm25.28-15.39q3.43-3.79,3.43-10.72v-11.33q0-6.86-3.43-10.62t-9.69-3.75q-6.25,0-9.69,3.75t-3.42,10.62v11.33q0,6.93,3.39,10.72t9.72,3.79Q787.19,2390.28,790.61,2386.49Z"/><path class="cls-3" d="M932,2351.78v17.73a40,40,0,0,1-4.26,18.82,30.35,30.35,0,0,1-12,12.59,35.39,35.39,0,0,1-18,4.45,37.93,37.93,0,0,1-18.13-4.18,29.7,29.7,0,0,1-12.16-11.84,35.39,35.39,0,0,1-4.32-17.73v-28.28a39.88,39.88,0,0,1,4.25-18.78,30.35,30.35,0,0,1,12-12.56,35.37,35.37,0,0,1,18-4.45,34.44,34.44,0,0,1,15.49,3.53,32.42,32.42,0,0,1,11.87,10,37.59,37.59,0,0,1,6.46,15h-17a16.84,16.84,0,0,0-9.66-11.11,18.76,18.76,0,0,0-16.61,1,16.6,16.6,0,0,0-6.29,7,23.19,23.19,0,0,0-2.25,10.45v28.28a18.82,18.82,0,0,0,2.28,9.39,15.5,15.5,0,0,0,6.46,6.27,20.42,20.42,0,0,0,9.66,2.21,18.78,18.78,0,0,0,9.49-2.34,15.63,15.63,0,0,0,6.29-6.79,23.62,23.62,0,0,0,2.21-10.58v-2.9h-17v-15.1Z"/><path class="cls-3" d="M951.12,2308.47h15.76v95.91H951.12Zm6.53,41.27h33a10.62,10.62,0,0,0,5.84-1.62,10.51,10.51,0,0,0,3.92-4.58,16.87,16.87,0,0,0,1.45-6.92,16.13,16.13,0,0,0-1.38-6.86,10.36,10.36,0,0,0-9.83-6.19h-33v-15.1h33.49a28.21,28.21,0,0,1,14.23,3.5,24.2,24.2,0,0,1,9.53,9.88,34,34,0,0,1,0,29.6,24.17,24.17,0,0,1-9.56,9.89,28.28,28.28,0,0,1-14.2,3.49H957.65Zm23.14,12.13,16.34-3,25.18,45.55H1003.4Z"/><path class="cls-3" d="M1039.12,2308.54h15.76v95.84h-15.76Zm6.53,0H1102v15.09h-56.36Zm0,40.74h49.11v15h-49.11Zm0,40H1102v15.09h-56.36Z"/><path class="cls-3" d="M1146.57,2308.54H1158l36,95.84h-16.94L1152.3,2333l-24.78,71.39h-16.94Zm-19,62.55H1178v15.1h-50.43Z"/><path class="cls-3" d="M1191.39,2308.54h68.95v15.09h-68.95Zm26.63,7.84h15.69v88H1218Z"/><path class="cls-3" d="M1268.58,2388.3h16.09v16.08h-16.09Zm.2-79.76h15.69v69.28h-15.69Z"/></svg>