<svg id="Layer_1" data-name="Layer 1" xmlns="http://www.w3.org/2000/svg" viewBox="0 0 1600 2560"><title>five_stars</title><rect id="bg" width="1600" height="2560" fill="#c71313"/><g id="Layer_14" data-name="Layer 14"><path d="M1095.64,1240.72a7.81,7.81,0,0,0,0-11.31,6.63,6.63,0,0,0-4.31-2.15l-191.75-28a8.38,8.38,0,0,1-5.93-4.31l-86.18-174a8.57,8.57,0,0,0-10.77-3.77c-1.62.54-2.69,2.15-3.77,3.77l-85.64,174a8.38,8.38,0,0,1-5.93,4.31l-191.75,28c-4.31.53-7,4.84-6.47,9.15a6.64,6.64,0,0,0,2.16,4.31l139,135.2a8,8,0,0,1,2.15,7l-32.86,191.22a8.28,8.28,0,0,0,6.47,9.15c1.61.54,3.23,0,4.85-.54l171.82-90.49a9.23,9.23,0,0,1,7.54,0l171.82,90.49a8,8,0,0,0,10.78-3.23c.54-1.61,1.07-3.23.54-4.85l-32.86-191.21a8,8,0,0,1,2.15-7Z" fill="#fff708"/><path d="M1382.19,1210.56a6.19,6.19,0,0,0,0-9.16,4.86,4.86,0,0,0-3.77-1.61l-154.05-22.63a7.81,7.81,0,0,1-4.84-3.23l-69-139.51a6.28,6.28,0,0,0-8.62-2.69,6.58,6.58,0,0,0-2.69,2.69l-68.94,139.51c-1.08,1.62-2.7,3.23-4.85,3.23l-154.05,22.63c-.54,0-1.62.53-2.16.53l181.52,26.4c4.31.54,7,4.84,6.47,9.15a6.62,6.62,0,0,1-2.16,4.31l-78.1,76.49,2.69,2.69a5.46,5.46,0,0,1,1.62,5.39l-26.39,153.51c-.54,3.23,1.61,6.46,5.38,7.54a7.94,7.94,0,0,0,3.77-.54L1142,1412.55a5.81,5.81,0,0,1,5.93,0l137.89,72.71a6.28,6.28,0,0,0,8.62-2.69c.54-1.08,1.07-2.7.54-3.77l-26.4-153.51a6,6,0,0,1,1.62-5.39Z" fill="#fec606"/><path d="M579.09,1324.75a6,6,0,0,1,1.62-5.39l2.69-2.69-78.1-76.49a7.81,7.81,0,0,1,0-11.31,6.63,6.63,0,0,1,4.31-2.15l181.52-26.4c-.54-.53-1.08-.53-2.16-.53l-154.05-22.63a7.81,7.81,0,0,1-4.84-3.23l-69-139.51a6.29,6.29,0,0,0-8.62-2.69,6.58,6.58,0,0,0-2.69,2.69l-68.95,139.51c-1.07,1.62-2.69,3.23-4.84,3.23l-154,22.63c-3.23.53-5.93,3.77-5.39,7,0,1.61,1.08,2.69,1.62,3.77l111.49,108.8a5.46,5.46,0,0,1,1.62,5.39l-26.39,153.51c-.54,3.23,1.61,6.46,5.38,7.54a7.94,7.94,0,0,0,3.77-.54L452,1412.55a5.81,5.81,0,0,1,5.93,0l137.89,72.71a6.28,6.28,0,0,0,8.62-2.69c.54-1.08,1.07-2.7.54-3.77Z" fill="#fec606"/><path d="M1475.38,1131.92a4.24,4.24,0,0,0,0-5.93,4.07,4.07,0,0,0-2.16-1.07l-99.1-14.55a4.43,4.43,0,0,1-3.24-2.15l-44.16-89.42c-1.08-2.15-3.24-2.69-5.39-1.61-.54.54-1.62,1.08-1.62,1.61l-44.16,89.42a3.65,3.65,0,0,1-3.24,2.15l-78.1,11.31,25.86,52.25c1.07,1.62,2.69,3.23,4.84,3.23l154,22.63c3.23.53,5.93,3.77,5.39,7,0,1.61-1.08,2.69-1.62,3.77l-53.86,52.78,85.1,44.71c2.16,1.08,4.31.54,5.39-1.61.54-.54.54-1.62.54-2.7l-16.7-98.57a5.12,5.12,0,0,1,1.08-3.77Z" fill="#ff9108"/><path d="M328.63,1110.91a4.46,4.46,0,0,1-3.24-2.15l-44.16-89.42c-1.08-2.15-3.23-2.69-5.39-1.61-.54.54-1.62,1.07-1.62,1.61l-44.16,89.42a3.65,3.65,0,0,1-3.24,2.15l-99.1,14.54c-2.16.54-3.77,2.16-3.24,4.85a2.81,2.81,0,0,0,1.08,2.16l71.64,70a3.32,3.32,0,0,1,1.08,3.77l-16.7,98.57a4.2,4.2,0,0,0,3.23,4.85,4.82,4.82,0,0,0,2.69-.54l85.11-45.79-53.86-52.78a6.19,6.19,0,0,1,0-9.16,4.86,4.86,0,0,1,3.77-1.61l154-22.63a7.81,7.81,0,0,0,4.84-3.23l25.86-52.25Z" fill="#ff9108"/></g><path d="M268.9,352.67a7.65,7.65,0,0,1-3.95,1.62,40.17,40.17,0,0,1-5.24.32q-5.69,0-10.74.19t-7.5.2q-3.24,0-8.67.52T221,356.81q-6.33.78-12.94,1.88T195.79,361q-5.68,1.17-9.77,2.39a18.3,18.3,0,0,0-5.37,2.27,42.26,42.26,0,0,0-2.46,7.44q-1.68,6.15-3.36,14.88t-3,19a158,158,0,0,0-1.29,19.79q7.11-1.43,14.62-3.17t16.31-3.3a90.08,90.08,0,0,0,10.28-2.33l11.07-3.1c3.7-1,7.31-1.94,10.8-2.72a43.9,43.9,0,0,1,9.51-1.16c3.11,0,5.71.11,7.83.32a14.72,14.72,0,0,1,5.18,1.36,5.89,5.89,0,0,1,2.84,3.17,16.57,16.57,0,0,1,.84,5.89,14.29,14.29,0,0,1-1.61,6.53,25.05,25.05,0,0,1-4.21,5.89q-1.82,1.94-6.79,3.62t-10.74,3q-5.76,1.36-11,2.33c-3.49.65-6,1.1-7.57,1.36Q208.86,446,200,447.84t-16,3.69q-7.12,1.82-11.71,3.43t-5.11,2.65a23.88,23.88,0,0,0-1.49,5.56q-.59,3.49-1,7.83c-.26,2.89-.44,5.93-.52,9.12s-.13,6.34-.13,9.45q0,7.64-.06,12.81T164,512.86a47.69,47.69,0,0,1-.39,6.21,13.58,13.58,0,0,1-1.74,5.24,9.6,9.6,0,0,1-4.08,3.62,16.27,16.27,0,0,1-7.25,1.36h-1.35a6.61,6.61,0,0,1-1.36-.13,27.48,27.48,0,0,1-3.63-1.16,25.33,25.33,0,0,1-11.45-8.93,13.72,13.72,0,0,1-2.39-8.15A251,251,0,0,1,132,481.61q1.68-14.3,3-26.07c.08-.6.32-2.29.71-5.05s.88-6.23,1.49-10.41,1.29-8.89,2.07-14.11,1.55-10.52,2.33-15.91,1.53-10.7,2.26-15.92,1.4-9.94,2-14.17,1.07-7.74,1.42-10.54.52-4.51.52-5.12a12.14,12.14,0,0,0-.52-3.42c-.35-1.17-.73-2.35-1.17-3.56s-.82-2.44-1.16-3.69a14.08,14.08,0,0,1-.52-3.82,10.13,10.13,0,0,1,1.62-5.17,22.84,22.84,0,0,1,4-5,24.25,24.25,0,0,1,5.18-3.76,11,11,0,0,1,5.11-1.49,39.43,39.43,0,0,1,9.06.91,30.54,30.54,0,0,0,7.11.91,72.66,72.66,0,0,0,11.84-1.17q6.93-1.17,15.72-3,7.63-1.56,15.27-2.92t14.95-2.45q7.31-1.11,14-1.75t12.55-.65a16.47,16.47,0,0,1,5.3,1.1,33.37,33.37,0,0,1,6,2.85,21.83,21.83,0,0,1,4.92,3.94,6.53,6.53,0,0,1,2,4.27,17.52,17.52,0,0,1-2.13,8q-2.14,4.14-8.22,8.28Z" fill="#fff708"/><path d="M397.26,478.44q-4.27,4.28-8.09,8t-7.7,7.12q-3.87,3.36-7.83,6.6t-8.34,6.47a85.58,85.58,0,0,1-17.6,10,43.36,43.36,0,0,1-16.43,3.55,37.52,37.52,0,0,1-15.72-3,34.06,34.06,0,0,1-11.39-8.28,44.27,44.27,0,0,1-7.7-12,81.34,81.34,0,0,1-4.72-14.36,108.54,108.54,0,0,1-2.4-15.34q-.64-7.76-.64-14.75,0-2.71.39-7.83t1.1-10.74q.71-5.62,1.55-10.93a76.73,76.73,0,0,1,1.75-8.54,20.73,20.73,0,0,1,3.29-6.4,28.85,28.85,0,0,1,5.63-5.63,23.28,23.28,0,0,1,15-5.44q8.41,0,8.41,10.09a52.46,52.46,0,0,1-.77,8.29q-.78,4.79-1.43,9.7c-.51,3.88-1,7.36-1.42,10.42s-.8,5.82-1.1,8.28-.54,4.68-.71,6.66-.26,3.88-.26,5.7a96.33,96.33,0,0,0,.71,11A78.36,78.36,0,0,0,323,478.38a36.65,36.65,0,0,0,3.49,8.79c1.38,2.38,3,3.56,4.79,3.56a48.32,48.32,0,0,0,9.06-1,35.67,35.67,0,0,0,10.74-4.2q5.43-3.1,11.32-7.25a147.37,147.37,0,0,0,12.1-9.57q5.82-5.06,11.45-10.1t11.32-11c1.72-1.81,3.3-3.44,4.72-4.91s2.74-2.87,3.95-4.21,2.39-2.63,3.56-3.88l3.68-3.95c.35-.43.78-.92,1.3-1.48s1.08-1.12,1.68-1.69a10.16,10.16,0,0,1,1.94-1.42,4.17,4.17,0,0,1,2.07-.58,8,8,0,0,1,3,.65,4.8,4.8,0,0,1,2.53,2.58,9.69,9.69,0,0,1,1,3.56c.09,1.17.13,2.14.13,2.91a11.32,11.32,0,0,1-1.42,4.21q-1.43,2.91-3.76,6.79t-5.43,8.28q-3.11,4.41-6.34,8.8t-6.53,8.35Q400.11,475.6,397.26,478.44Zm-50.34-150.1a25.07,25.07,0,0,1-1.29,8.09,26.35,26.35,0,0,1-3.75,7.18q-4.92,6.86-15.14,6.86a47,47,0,0,1-7.25-.58,30.74,30.74,0,0,1-6.79-1.81,15.9,15.9,0,0,1-5-3.05,5.48,5.48,0,0,1-1.94-4.14,19.69,19.69,0,0,1,2.13-8.47,38.65,38.65,0,0,1,5.37-8.28,31.92,31.92,0,0,1,7.18-6.34,14.16,14.16,0,0,1,7.57-2.53,49.06,49.06,0,0,1,8,.59,17.44,17.44,0,0,1,5.95,2,9,9,0,0,1,3.69,4A15.21,15.21,0,0,1,346.92,328.34Z" fill="#fff708"/><path d="M600.41,459.29a9.61,9.61,0,0,1-1.49,4.66,27.36,27.36,0,0,1-3.95,5.17,44.68,44.68,0,0,1-5.75,5.05,54.41,54.41,0,0,1-6.93,4.4,60.58,60.58,0,0,1-14.68,5.11,75,75,0,0,1-15.47,1.62,37.28,37.28,0,0,1-10.48-1.68,40.21,40.21,0,0,1-10.87-5.12,34.32,34.32,0,0,1-9-8.73A27.93,27.93,0,0,1,517,457.22a29.27,29.27,0,0,1-1.29,4.72q-.92,2.54-2.08,5.05T511.19,472q-1.23,2.52-2.39,4.72-3.24,6.21-7.05,12.61t-7.7,12.23q-3.89,5.82-7.31,10.68t-5.89,8a32.4,32.4,0,0,1-6.73,6.8,37.27,37.27,0,0,1-6.73,3.94,25.74,25.74,0,0,1-5.82,1.88,25.17,25.17,0,0,1-4,.45,11.11,11.11,0,0,1-4.27-1,23.51,23.51,0,0,1-4.47-2.45,20.58,20.58,0,0,1-3.75-3.37,11.31,11.31,0,0,1-2.26-3.82,109.23,109.23,0,0,0-2.4-18.69,190.84,190.84,0,0,0-8.47-28,200.85,200.85,0,0,1-9.38-31.64A125.19,125.19,0,0,1,419.9,421q0-8.53,5.31-13.85t14.49-5.3a15.9,15.9,0,0,1,6.47,1.16,11.54,11.54,0,0,1,6.66,7.9,22.13,22.13,0,0,1,.72,5.69,25.43,25.43,0,0,1-1.1,7.38,24.57,24.57,0,0,0-1.1,7.24,58.12,58.12,0,0,0,1,10q1,5.56,2.46,11.78t3.36,12.68q1.88,6.47,3.69,12.55c1.2,4.06,2.33,7.89,3.36,11.52s1.86,6.77,2.46,9.44q1.94-2.58,4.59-6.72t5.37-8.74q2.72-4.59,5.24-8.93c1.69-2.89,3-5.32,4.08-7.31q1.81-3.49,4.14-8.34t4.59-10.1q2.26-5.24,4.14-10.41a79.34,79.34,0,0,0,2.79-9.19,18.49,18.49,0,0,1,5.24-9.83,14.52,14.52,0,0,1,10.67-4,14.91,14.91,0,0,1,4.4.72,11.56,11.56,0,0,1,4.4,2.58,14.74,14.74,0,0,1,3.43,4.92,20.34,20.34,0,0,1,1.49,7.7,41.78,41.78,0,0,0,2.46,14,38.76,38.76,0,0,0,5.88,10.74,27.35,27.35,0,0,0,7.77,6.86,16.4,16.4,0,0,0,8.08,2.39,50.42,50.42,0,0,0,6.54-.45c2.28-.3,4.55-.71,6.79-1.23a58.53,58.53,0,0,0,6.47-1.88,49.61,49.61,0,0,0,5.44-2.26q3.87-2.07,7-3.37A16.41,16.41,0,0,1,595,455c2.25.17,3.71.67,4.4,1.49A4.2,4.2,0,0,1,600.41,459.29Z" fill="#fff708"/><path d="M713,454.24q0,4.8-3.75,10.87a77.09,77.09,0,0,1-10.09,12.68,126.36,126.36,0,0,1-15.34,13.27,117.3,117.3,0,0,1-17.34,10.61,99.84,99.84,0,0,1-18.3,7A68.91,68.91,0,0,1,630,511.18a51.08,51.08,0,0,1-19.34-3.43,37.83,37.83,0,0,1-14.37-10.09,45.06,45.06,0,0,1-9-16.63,77,77,0,0,1-3.11-22.9,86.64,86.64,0,0,1,1.49-15.79,102.71,102.71,0,0,1,4.34-16,95.22,95.22,0,0,1,7.11-15.4,101.36,101.36,0,0,1,9.71-14,100.09,100.09,0,0,1,8-8.34,60.8,60.8,0,0,1,9.9-7.57,54.72,54.72,0,0,1,12-5.5,45.2,45.2,0,0,1,14.17-2.14,25.92,25.92,0,0,1,11.07,2.27,27.41,27.41,0,0,1,8.21,5.75,25.21,25.21,0,0,1,5.18,7.9,22.59,22.59,0,0,1,1.81,8.67,41.73,41.73,0,0,1-4.34,18.82,66.18,66.18,0,0,1-12.09,16.7A130.65,130.65,0,0,1,642,449.07q-10.93,7.64-24.13,15.65a13.71,13.71,0,0,0-2,1.17c-.9.6-1.36,1-1.36,1.16a17.86,17.86,0,0,0,1.3,5.57,17,17,0,0,0,3.62,5.56,20,20,0,0,0,6.28,4.34,21.82,21.82,0,0,0,9.12,1.74A62.06,62.06,0,0,0,651.26,482a78.9,78.9,0,0,0,16.3-6.54,101.34,101.34,0,0,0,15.66-10.35,119.38,119.38,0,0,0,14.49-13.71,17.73,17.73,0,0,1,5.11-4.27,10.5,10.5,0,0,1,4.73-1.3,5,5,0,0,1,3.81,1.81Q713,449.46,713,454.24Zm-62.75-49.55a6.8,6.8,0,0,0-.78-3.43,7.37,7.37,0,0,0-1.75-2.14,6.27,6.27,0,0,0-1.94-1.1,5.38,5.38,0,0,0-1.36-.32,15.7,15.7,0,0,0-10.74,4.46,44.62,44.62,0,0,0-8.8,11.45,98,98,0,0,0-6.79,15.4q-2.91,8.42-4.85,16.31,7.75-6,14.49-11a125.08,125.08,0,0,0,11.71-9.84,48.22,48.22,0,0,0,7.89-9.57A19.36,19.36,0,0,0,650.23,404.69Z" fill="#fff708"/><path d="M963.62,356.81a26.38,26.38,0,0,1-.45,4.4,40.67,40.67,0,0,1-1.36,5.37c-.61,1.86-1.28,3.62-2,5.3a14.53,14.53,0,0,1-2.52,4.08h.13q-4.14,4.92-19.54,4.92a89.18,89.18,0,0,0-.45-9.64,24.4,24.4,0,0,0-1.49-6.54,7.81,7.81,0,0,0-3.24-3.49,23,23,0,0,0-5.24-2.33,40.35,40.35,0,0,0-5.88-1.36,35.33,35.33,0,0,0-5.18-.45q-5.57,0-10.87.26a100.8,100.8,0,0,0-10.41,1,93.09,93.09,0,0,0-10.36,2.2,94.05,94.05,0,0,0-10.67,3.63,78.35,78.35,0,0,0-8.22,3.88,57.41,57.41,0,0,0-8.08,5.24,35.35,35.35,0,0,0-6.41,6.34,16.14,16.14,0,0,0-3.3,7.31l.13-.26a14.76,14.76,0,0,0,2.07,6.92,34.81,34.81,0,0,0,5.63,7.51,47.07,47.07,0,0,0,8.22,6.73,34.92,34.92,0,0,0,9.83,4.46l2.2.78c1.21.43,2.67.92,4.4,1.48s3.56,1.19,5.5,1.88,3.75,1.32,5.43,1.88l4.27,1.42c1.17.39,1.83.63,2,.71q30,7.63,44.51,18.38t14.49,26.39a24.56,24.56,0,0,1-2.2,10,49.71,49.71,0,0,1-5.56,9.51,69,69,0,0,1-7.31,8.35,76.35,76.35,0,0,1-7.44,6.4l.13-.13q-3.76,3-8.48,6.08t-10.16,6.09q-5.43,3-11.25,5.56a119.56,119.56,0,0,1-11.91,4.53q-5.69,1.82-12,3.43t-12.48,2.78q-6.21,1.17-12,1.81a94.48,94.48,0,0,1-10.42.65,39.37,39.37,0,0,1-6-.58q-3.56-.59-7.5-1.62t-7.89-2.46a42.45,42.45,0,0,1-7.06-3.24,21.84,21.84,0,0,1-5-3.88,6.33,6.33,0,0,1-1.94-4.4,20.83,20.83,0,0,1,.77-5,25.94,25.94,0,0,1,2.27-5.76,20.17,20.17,0,0,1,3.49-4.79,6.08,6.08,0,0,1,4.34-2,23,23,0,0,1,6.08.77l6.4,1.75q3.55,1,8.28,1.81a68.53,68.53,0,0,0,11.71.84,74.89,74.89,0,0,0,14.56-1.49,114.2,114.2,0,0,0,14.95-4,128.3,128.3,0,0,0,14.1-5.76,113.88,113.88,0,0,0,12.16-6.72c1.56-1,3.26-2.22,5.11-3.56a42.08,42.08,0,0,0,5.18-4.4,28.44,28.44,0,0,0,4-5,9.91,9.91,0,0,0,1.62-5.31q0-3.11-4.66-5.95v.13a66.18,66.18,0,0,0-13.59-6.34c-4.48-1.47-8.41-2.67-11.77-3.63a314.86,314.86,0,0,1-34.68-11.51h.13a93.81,93.81,0,0,1-30.41-19.8Q817.41,404,817.4,385.28a27.86,27.86,0,0,1,4.14-14.37,53.86,53.86,0,0,1,11.26-13.13,95.77,95.77,0,0,1,16.5-11.32,129,129,0,0,1,20-8.87A151,151,0,0,1,891,331.84a116.49,116.49,0,0,1,21.42-2.07q3.23,0,8.09.45t10,1.29c3.41.57,6.66,1.25,9.77,2.07a31,31,0,0,1,7.37,2.79h-.12a36.61,36.61,0,0,1,11.84,9.57Q963.61,351.51,963.62,356.81Z" fill="#fff708"/><path d="M1148.39,405.33a9.62,9.62,0,0,1-1,4.47,15.23,15.23,0,0,1-2.59,3.62,21.81,21.81,0,0,1-3.43,2.91c-1.25.86-2.44,1.64-3.56,2.33a97.24,97.24,0,0,1-12.48,4.53q-6.67,1.94-13.26,3.3t-12.88,2.26c-4.19.61-8,1.13-11.58,1.56-2.42.25-4.94.54-7.57.84s-5.2.58-7.7.84-4.83.52-7,.77-4,.52-5.56.78q-2.85,11-5.37,21.09t-4.34,19c-.17,1-.43,2.46-.77,4.27s-.71,3.8-1.1,6-.76,4.42-1.1,6.79-.67,4.61-1,6.73-.54,4-.71,5.69-.26,3-.26,3.82q0,4.53,1.42,6.4a17.62,17.62,0,0,0,2.85,3,36.84,36.84,0,0,1,4.33,4,8.12,8.12,0,0,1-.06,10.16,17.61,17.61,0,0,1-4.53,4,28.13,28.13,0,0,1-5.82,2.72,18.5,18.5,0,0,1-5.83,1,16.05,16.05,0,0,1-8.41-2.26,22,22,0,0,1-6.47-6,28.12,28.12,0,0,1-4.14-8.54,34.27,34.27,0,0,1-1.42-9.83,150.86,150.86,0,0,1,1.29-18.77,194.18,194.18,0,0,1,3.76-20.57q1-4.53,2.26-10t2.26-10.36q1-4.91,1.82-8.73c.51-2.54.86-4.25,1-5.11q-2.71.14-7.83.78a98.31,98.31,0,0,1-12.1.64,56.86,56.86,0,0,1-9.83-.71,15.28,15.28,0,0,1-6.6-2.65,10.82,10.82,0,0,1-3.75-5.31,27.33,27.33,0,0,1-1.17-8.8,6.24,6.24,0,0,1,2.2-5,14.73,14.73,0,0,1,5.44-2.84,34.4,34.4,0,0,1,6.73-1.3q3.49-.31,6.21-.32,1.29,0,4.53-.33c2.15-.21,4.5-.43,7.05-.64s5-.43,7.37-.65,4.21-.32,5.5-.32q.64,0,1.62-2.46a58.64,58.64,0,0,0,2-6.34q1-3.88,2.13-8.61c.73-3.14,1.44-6.25,2.14-9.31s1.31-5.89,1.87-8.48,1-4.61,1.36-6.08a108.76,108.76,0,0,0,2.39-12.16,77.1,77.1,0,0,1,2.92-12.75,28.21,28.21,0,0,1,5.5-10.09q3.55-4.08,10.15-4.08,7,0,10.35,3t3.37,10a60.72,60.72,0,0,1-.58,7.64,50,50,0,0,1-2,8.8q-3.1,10-5.3,18.63t-3.56,15.07q-1.36,6.4-2.53,13.65,5.31,0,10.16-.06t9.9-.26q5-.19,10.55-.58t12-1.17c5-.6,9.23-1.2,12.69-1.81s6.49-1.16,9.12-1.68,5-.95,7.18-1.29a41.92,41.92,0,0,1,6.73-.52,6.56,6.56,0,0,1,3.43,1Q1148.38,401.72,1148.39,405.33Z" fill="#fff708"/><path d="M1292.15,416.2a17.43,17.43,0,0,1-.77,4.92,36.26,36.26,0,0,1-2,5.17q-1.23,2.59-2.78,5.18a52.61,52.61,0,0,1-3.24,4.79,187.43,187.43,0,0,1-16.11,18.95q-8.6,8.87-17.27,16.63a97.65,97.65,0,0,1-9.58,7.51,84.32,84.32,0,0,1-9.83,5.82,53.17,53.17,0,0,1-9.58,3.75,32.57,32.57,0,0,1-8.66,1.3,16.48,16.48,0,0,1-9.45-3.11,32.65,32.65,0,0,1-8-7.83,41.77,41.77,0,0,1-5.43-10.16,29.19,29.19,0,0,1-2-10.09q-1.54,2.33-4.53,6.21t-6.21,7.9q-3.24,4-6,7.31c-1.85,2.2-3.17,3.77-3.94,4.72a124,124,0,0,1-9.58,9.06q-5.43,4.65-10.8,8.41a86.69,86.69,0,0,1-10,6.14c-3.1,1.6-5.48,2.4-7.12,2.4a34,34,0,0,1-11-1.81,29.14,29.14,0,0,1-9.39-5.24,25.43,25.43,0,0,1-9-20,62,62,0,0,1,1.75-13.91,128.65,128.65,0,0,1,4.79-15.78,155.55,155.55,0,0,1,7.31-16.63q4.26-8.42,9.25-16.37a176.1,176.1,0,0,1,10.54-15.07,117.94,117.94,0,0,1,11.39-12.68,69.44,69.44,0,0,1,22-14.5,64.29,64.29,0,0,1,24.06-4.65,14.43,14.43,0,0,1,5.44.9,12,12,0,0,1,3.75,2.4,14.48,14.48,0,0,1,2.65,3.43c.74,1.29,1.41,2.58,2,3.88a28.64,28.64,0,0,0,2.14,2.52c1,1.08,2,2.26,3,3.56a35,35,0,0,1,2.71,3.88,6.93,6.93,0,0,1,1.17,3.49,24.69,24.69,0,0,1-.78,5.89c-.52,2.12-1.06,4.55-1.62,7.31s-1.09,5.89-1.61,9.38a83.15,83.15,0,0,0-.78,12.1,81.82,81.82,0,0,0,.58,9.06,70.14,70.14,0,0,0,1.75,9.7,33.34,33.34,0,0,0,2.91,7.7c1.17,2.12,2.48,3.17,4,3.17a18.38,18.38,0,0,0,4.85-.58,18.09,18.09,0,0,0,4.08-1.68,34,34,0,0,0,3.94-2.65q2-1.56,4.6-3.37a163.66,163.66,0,0,0,16.11-13.46q8.09-7.62,16.49-15.65c1.56-1.47,3.17-3.11,4.86-4.92a72.06,72.06,0,0,1,5.17-5.05,36.72,36.72,0,0,1,5.24-3.88,9.68,9.68,0,0,1,4.92-1.55Q1292.15,410.12,1292.15,416.2Zm-104.42-16.3a10.21,10.21,0,0,0-.19-1.49,9.61,9.61,0,0,0-.46-1.75,27,27,0,0,0-9.38,3.3,52.59,52.59,0,0,0-11,8.48,123.18,123.18,0,0,0-12.61,14.68A212.94,212.94,0,0,0,1140,445.06q-1.93,3.49-4.14,7.57a86.09,86.09,0,0,0-4.07,8.73,62.77,62.77,0,0,0-3,9.9,50.62,50.62,0,0,0-1.17,11.06,4.19,4.19,0,0,0,1.23,3.3,3.74,3.74,0,0,0,2.52,1.1c2,0,4.55-1.14,7.7-3.43a79.08,79.08,0,0,0,10.23-9.12q5.49-5.69,11.25-13t10.68-15a152.79,152.79,0,0,0,8.6-15.27,66.4,66.4,0,0,0,5.11-13.65c.26-1.3.56-2.81.91-4.53s.67-3.43,1-5.11.54-3.22.71-4.6A28.07,28.07,0,0,0,1187.73,399.9Z" fill="#fff708"/><path d="M1400.33,414.91a13,13,0,0,1-.52,3.1,18.56,18.56,0,0,1-1.55,3.89,12.12,12.12,0,0,1-2.66,3.36,6.27,6.27,0,0,1-3.94,1.55l-2.2-.06c-1.13,0-2.33-.11-3.63-.2s-2.5-.15-3.62-.19-1.94-.07-2.46-.07a58.66,58.66,0,0,0-37.39,15.53,82.65,82.65,0,0,0-7.44,7.64,118.16,118.16,0,0,0-7.51,9.64,132,132,0,0,0-7.05,11.19,119.08,119.08,0,0,0-6.08,12.42q-2.21,5.31-4.27,10.93a114.67,114.67,0,0,0-3.62,11.84q-.92,3.38-1.36,5.89a53,53,0,0,1-1.49,5.89,8.26,8.26,0,0,1-2.2,3.56,13.77,13.77,0,0,1-3.62,2.46,21.78,21.78,0,0,1-4.34,1.48,27.12,27.12,0,0,1-4.46.65q-8.28,0-11.39-7.5t-3.1-22.39q0-3.36.06-6.34t.26-6c.13-2,.28-4.14.45-6.34s.39-4.68.65-7.44q.51-6.08,1.42-14.42t1.94-17q1-8.6,2.27-16.62t2.52-13.59a22.49,22.49,0,0,1,5.24-10.74q3.69-3.89,10.8-3.88a9.18,9.18,0,0,1,4.21,1.1,17.2,17.2,0,0,1,6.66,6,7.46,7.46,0,0,1,1.3,3.23l.13,2.33a66.93,66.93,0,0,1-.65,8.54q-.64,4.92-1.75,10.42t-2.32,11.12c-.83,3.76-1.64,7.34-2.46,10.74s-1.56,6.56-2.2,9.45-1.15,5.28-1.49,7.18q4.53-9.57,9.7-18.44a144.83,144.83,0,0,1,11.13-16.43,98.33,98.33,0,0,1,12.81-13.52,61.84,61.84,0,0,1,14.75-9.58,82.85,82.85,0,0,1,11.39-4.33,34.14,34.14,0,0,1,9.32-1.49,53.12,53.12,0,0,1,10.15,1,42.5,42.5,0,0,1,9.58,3,24.53,24.53,0,0,1,7.18,4.85A8.91,8.91,0,0,1,1400.33,414.91Z" fill="#fff708"/><path d="M1486.63,488a36.61,36.61,0,0,1-2.52,13.26,56.2,56.2,0,0,1-6.66,12.36,67,67,0,0,1-9.58,10.74,72.6,72.6,0,0,1-11.26,8.41,61.85,61.85,0,0,1-11.64,5.5,33.68,33.68,0,0,1-10.87,2c-5.27,0-9.1-1.27-11.52-3.82s-3.62-6-3.62-10.28a17.67,17.67,0,0,1,1-5.89,15.36,15.36,0,0,1,2.78-4.92,12.92,12.92,0,0,1,4.47-3.36,14.09,14.09,0,0,1,6-1.23h2.33a25,25,0,0,0,5.82-.78c2.16-.51,4.66-1.94,7.51-4.27a18.62,18.62,0,0,0,5.5-7.44,20.84,20.84,0,0,0,1.75-7.57,10.77,10.77,0,0,0-1.43-5.37,25.79,25.79,0,0,0-3.75-5,49.67,49.67,0,0,0-5.37-4.85c-2-1.6-4.16-3.21-6.41-4.85q-4.4-3.37-8.86-7.05a66.53,66.53,0,0,1-8.09-7.9,38.87,38.87,0,0,1-5.82-8.93,23.66,23.66,0,0,1-2.2-10.15,36.82,36.82,0,0,1,1.94-11.39,65,65,0,0,1,5.24-11.78,79.47,79.47,0,0,1,16.44-20.18A44.14,44.14,0,0,1,1447,387a19.53,19.53,0,0,1,8.67-2.33q6.6,0,10,3.23t3.42,10.36a15.7,15.7,0,0,1-1.74,6.92,41.4,41.4,0,0,1-4.4,7,66.42,66.42,0,0,1-6,6.66q-3.3,3.24-6.41,5.95a40.78,40.78,0,0,1-5.11,4,38,38,0,0,0-4.46,3.37,28,28,0,0,0,3.36,4.72,56.54,56.54,0,0,0,4.53,4.66q2.46,2.26,5,4.33l4.72,3.88q4.78,3.89,9.71,8.16a87.69,87.69,0,0,1,9,9,47.08,47.08,0,0,1,6.66,10A24.92,24.92,0,0,1,1486.63,488Z" fill="#fff708"/><rect x="65" width="37.5" height="2559" fill="#ad1111"/><path d="M186.77,1908.54h68.95v15.09H186.77Zm26.63,7.84h15.69v88H213.4Z" fill="#fec606"/><path d="M263.63,1908.54h15.76v95.84H263.63Zm40.54,54.38q0-6.14-3.29-9.49t-9.36-3.36q-5.81,0-9,3.09t-3.16,8.77L278,1947.76a24.78,24.78,0,0,1,7.81-9.49,18.9,18.9,0,0,1,11.11-3.3q10.93,0,17,7.28t6,20.6v41.53H304.17Z" fill="#fec606"/><path d="M358,2005.37l-6.86-3.56a24.15,24.15,0,0,1-10.48-10.45q-3.63-6.88-3.63-16.64V1967q0-10.15,3.47-17.34a24.29,24.29,0,0,1,10.08-10.94,31.73,31.73,0,0,1,15.92-3.76,25.44,25.44,0,0,1,15,4.38A27.24,27.24,0,0,1,391,1952q3.25,8.31,3.26,20v4.49H347.81V1965h31.84l-.07-.73q-.66-7.17-4-11.14a11.26,11.26,0,0,0-9-4q-7.12,0-11,4.45t-3.89,12.62v8.7q0,7.79,4.22,12t11.87,4.18a20.92,20.92,0,0,0,7.68-1.48,23.23,23.23,0,0,0,6.82-4.12l10.28,9.62a38.12,38.12,0,0,1-11.7,7.55,34.15,34.15,0,0,1-13.08,2.67Z" fill="#fec606"/><path d="M470.61,2005.37l-7.68-4.32a28.91,28.91,0,0,1-11.79-12.36q-4.12-8-4.12-19v-26.3q0-11,4.12-19a29.21,29.21,0,0,1,11.79-12.39,36.14,36.14,0,0,1,18.1-4.35,33.1,33.1,0,0,1,15.65,3.69,31.52,31.52,0,0,1,11.67,10.65,42.82,42.82,0,0,1,6.36,16.44H498.5a23.08,23.08,0,0,0-3.76-8.07,17.88,17.88,0,0,0-6.1-5.31,16.17,16.17,0,0,0-7.61-1.84,17.57,17.57,0,0,0-9.46,2.47,16.31,16.31,0,0,0-6.16,7,24.65,24.65,0,0,0-2.18,10.74v26.3a24.67,24.67,0,0,0,2.18,10.75,16.12,16.12,0,0,0,6.16,7,17.83,17.83,0,0,0,9.46,2.43,16.87,16.87,0,0,0,7.68-1.77,17.55,17.55,0,0,0,6.1-5.21,21.9,21.9,0,0,0,3.69-8.24h16.21a43.7,43.7,0,0,1-6.42,16.44,31.6,31.6,0,0,1-11.67,10.65,33,33,0,0,1-15.59,3.69Z" fill="#fec606"/><path d="M542.5,2001.88a23.2,23.2,0,0,1-9.89-10.19,35.29,35.29,0,0,1-3.39-16.11v-11.14a34.56,34.56,0,0,1,3.39-15.92,23.07,23.07,0,0,1,9.89-10.09,36.85,36.85,0,0,1,31.18,0,23.18,23.18,0,0,1,9.89,10.09,34.56,34.56,0,0,1,3.39,15.92v11.33a34.77,34.77,0,0,1-3.39,16,23.35,23.35,0,0,1-9.89,10.12,36.57,36.57,0,0,1-31.18,0Zm25.28-15.39q3.42-3.79,3.43-10.72v-11.33q0-6.86-3.43-10.62t-9.69-3.75q-6.27,0-9.69,3.75T545,1964.44v11.33q0,6.93,3.4,10.72t9.72,3.79Q564.35,1990.28,567.78,1986.49Z" fill="#fec606"/><path d="M604.76,1936h15.75v68.42H604.76Zm40.41,28q0-6.66-3.27-10.25t-9.26-3.59q-5.8,0-9,3.13t-3.17,8.86l-1.38-14.17a24.56,24.56,0,0,1,7.91-9.59,18.89,18.89,0,0,1,11-3.33,22,22,0,0,1,12.32,3.36,20.81,20.81,0,0,1,7.81,9.86,41.14,41.14,0,0,1,2.67,15.65v40.54H645.17Zm40.34,0q0-6.66-3.3-10.25t-9.36-3.59q-5.73,0-8.86,3.46t-3.14,9.85l-3-14.5a25.83,25.83,0,0,1,8.47-10.28,20,20,0,0,1,11.64-3.63,22.88,22.88,0,0,1,12.62,3.36,21.05,21.05,0,0,1,8,9.86,40.33,40.33,0,0,1,2.73,15.65v40.54H685.51Z" fill="#fec606"/><path d="M720.38,1936h15.75v68.42H720.38Zm40.41,28q0-6.66-3.27-10.25t-9.26-3.59q-5.81,0-9,3.13t-3.17,8.86l-1.38-14.17a24.56,24.56,0,0,1,7.91-9.59,18.89,18.89,0,0,1,11-3.33,22,22,0,0,1,12.32,3.36,20.81,20.81,0,0,1,7.81,9.86,41.14,41.14,0,0,1,2.67,15.65v40.54H760.79Zm40.34,0q0-6.66-3.3-10.25t-9.36-3.59q-5.73,0-8.86,3.46t-3.14,9.85l-3-14.5a25.83,25.83,0,0,1,8.47-10.28,20,20,0,0,1,11.64-3.63,22.88,22.88,0,0,1,12.62,3.36,21.05,21.05,0,0,1,8,9.86,40.33,40.33,0,0,1,2.73,15.65v40.54H801.13Z" fill="#fec606"/><path d="M851.75,1977.55q0,6.08,3.23,9.4t9.1,3.33q5.86,0,9-3.13t3.16-9l.93,14.63a20.14,20.14,0,0,1-6.6,9,17.7,17.7,0,0,1-11.27,3.62q-11.13,0-17.23-7.18t-6.1-20.31V1936h15.75ZM876.27,1936H892v68.42H876.27Z" fill="#fec606"/><path d="M911.08,1936h15.75v68.42H911.08Zm40.54,27q0-6.14-3.3-9.49t-9.36-3.36q-5.81,0-9,3.13t-3.17,8.86l-1.38-14.17a24.49,24.49,0,0,1,7.81-9.62,18.86,18.86,0,0,1,11.11-3.3q10.93,0,17,7.28t6,20.6v41.53H951.62Z" fill="#fec606"/><path d="M986,1908.54h15.69v15.75H986Zm0,27.42h15.69v68.42H986Z" fill="#fec606"/><path d="M1039.09,2005.37l-6.79-3.59A24.14,24.14,0,0,1,1022,1991.3q-3.56-6.88-3.56-16.65v-9.29a35.21,35.21,0,0,1,3.56-16.45,24,24,0,0,1,10.35-10.38,34.87,34.87,0,0,1,16.35-3.56,39.84,39.84,0,0,1,10.31,1.29,31,31,0,0,1,8.71,3.72,23.4,23.4,0,0,1,6.42,5.93l-10.67,10a18.66,18.66,0,0,0-6.33-4.35,19.5,19.5,0,0,0-7.58-1.51q-7.32,0-11.34,4t-4,11.31v9.29q0,7.51,4,11.57t11.38,4.06a18.39,18.39,0,0,0,13.91-6.33l10.67,10.68a24.42,24.42,0,0,1-6.49,5.83,30.62,30.62,0,0,1-8.7,3.66,41.06,41.06,0,0,1-10.25,1.25Z" fill="#fec606"/><path d="M1090.18,2000.13q-5.87-5.24-5.87-15.92,0-10.14,5.93-15.23t17.8-5.07h18.33l.92,12.26h-19.18q-4.68,0-7,2t-2.34,6.06a7.17,7.17,0,0,0,3,6.36q3,2.09,9.16,2.08,7.51,0,11.17-1.65t3.66-5.14l1.39,9.76a11.58,11.58,0,0,1-3.92,5.4,19.09,19.09,0,0,1-6.76,3.26,32.34,32.34,0,0,1-8.64,1.09Q1096.05,2005.37,1090.18,2000.13Zm35.59-39.12q0-5.73-3.39-8.9t-9.59-3.16a24.69,24.69,0,0,0-7.78,1.25,24,24,0,0,0-6.86,3.49l-10.48-8.83a26.54,26.54,0,0,1,10.55-7.28,38.71,38.71,0,0,1,14.5-2.61,33.93,33.93,0,0,1,14.9,3,21.31,21.31,0,0,1,9.46,8.7,27.3,27.3,0,0,1,3.26,13.75v44h-14.57Z" fill="#fec606"/><path d="M1154.18,1936h32.17v13.78h-32.17Zm11.08,64.17q-4-4.58-4-13.55v-70.53H1177v68.36a6.46,6.46,0,0,0,1,3.86,3.37,3.37,0,0,0,2.9,1.35h5.47v15.09h-8.44Q1169.29,2004.71,1165.26,2000.13Z" fill="#fec606"/><path d="M1203,1908.54h15.69v15.75H1203Zm0,27.42h15.69v68.42H1203Z" fill="#fec606"/><path d="M1248.68,2001.88a23.2,23.2,0,0,1-9.89-10.19,35.29,35.29,0,0,1-3.4-16.11v-11.14a34.55,34.55,0,0,1,3.4-15.92,23.07,23.07,0,0,1,9.89-10.09,36.85,36.85,0,0,1,31.18,0,23.1,23.1,0,0,1,9.88,10.09,34.43,34.43,0,0,1,3.4,15.92v11.33a34.64,34.64,0,0,1-3.4,16,23.28,23.28,0,0,1-9.88,10.12,36.57,36.57,0,0,1-31.18,0Zm25.28-15.39q3.42-3.79,3.42-10.72v-11.33q0-6.86-3.42-10.62t-9.69-3.75q-6.27,0-9.69,3.75t-3.43,10.62v11.33q0,6.93,3.39,10.72t9.73,3.79Q1270.53,1990.28,1274,1986.49Z" fill="#fec606"/><path d="M1310.94,1936h15.75v68.42h-15.75Zm40.54,27q0-6.14-3.3-9.49t-9.36-3.36q-5.8,0-9,3.13t-3.17,8.86l-1.38-14.17a24.49,24.49,0,0,1,7.81-9.62,18.85,18.85,0,0,1,11.1-3.3q11,0,17,7.28t6,20.6v41.53h-15.75Z" fill="#fec606"/><path d="M249.86,2205.37l-6.37-1.35a54,54,0,0,1-11.93-4,46.48,46.48,0,0,1-10.18-6.52l8.37-12.59a38.84,38.84,0,0,0,12.43,7.08,43.76,43.76,0,0,0,14.6,2.41q9.62,0,14.93-3.43a10.89,10.89,0,0,0,5.3-9.69v-.07a10,10,0,0,0-2.37-7,13.91,13.91,0,0,0-6.2-3.82,77.32,77.32,0,0,0-9.82-2.27,1.07,1.07,0,0,0-.39-.07,1.09,1.09,0,0,1-.4-.07l-1.19-.19a96.7,96.7,0,0,1-15.82-3.76,22.71,22.71,0,0,1-10.54-7.78q-4.35-5.59-4.35-15.88v-.07a28.54,28.54,0,0,1,4.08-15.56,25.64,25.64,0,0,1,11.87-9.82q7.77-3.36,18.72-3.36a47.24,47.24,0,0,1,10.32,1.15,54.15,54.15,0,0,1,10.15,3.36,57.34,57.34,0,0,1,9.65,5.51l-7.64,13a46.1,46.1,0,0,0-11.27-6,33.13,33.13,0,0,0-11.21-2c-6.06,0-10.76,1.11-14.07,3.33a10.66,10.66,0,0,0-5,9.39v.07a9.89,9.89,0,0,0,2.57,7.19,15.22,15.22,0,0,0,6.43,3.85,107.25,107.25,0,0,0,10.78,2.61l.49.09.49.1.73.14c.26,0,.5.08.72.13a78.41,78.41,0,0,1,14.87,4.28,23.45,23.45,0,0,1,10,8q4,5.55,4,15.1v.13a27.27,27.27,0,0,1-4.22,15.36,26.25,26.25,0,0,1-12.26,9.72q-8.06,3.33-19.38,3.33Z" fill="#fec606"/><path d="M328.1,2205.37l-6.86-3.56a24.15,24.15,0,0,1-10.48-10.45q-3.61-6.89-3.62-16.64V2167q0-10.16,3.46-17.34a24.4,24.4,0,0,1,10.08-10.94A31.75,31.75,0,0,1,336.6,2135a25.4,25.4,0,0,1,15,4.38,27.18,27.18,0,0,1,9.49,12.69q3.27,8.31,3.26,20v4.49H317.88V2165h31.84l-.06-.73c-.45-4.78-1.78-8.5-4-11.14a11.26,11.26,0,0,0-9-3.95q-7.11,0-11,4.45t-3.88,12.62v8.7q0,7.79,4.21,12t11.87,4.18a20.92,20.92,0,0,0,7.68-1.48,23.11,23.11,0,0,0,6.82-4.12l10.29,9.62a38.28,38.28,0,0,1-11.71,7.55,34.11,34.11,0,0,1-13.08,2.67Z" fill="#fec606"/><path d="M400.21,2205.37l-6.79-3.59a24.12,24.12,0,0,1-10.34-10.48q-3.57-6.89-3.56-16.65v-9.29q0-9.63,3.56-16.45a23.94,23.94,0,0,1,10.34-10.38,34.87,34.87,0,0,1,16.35-3.56,40,40,0,0,1,10.32,1.29,31,31,0,0,1,8.7,3.72,23.58,23.58,0,0,1,6.43,5.93l-10.68,10a18.47,18.47,0,0,0-6.33-4.35,19.46,19.46,0,0,0-7.58-1.51q-7.32,0-11.34,4t-4,11.31v9.29q0,7.51,4,11.57t11.37,4.06a18.35,18.35,0,0,0,13.91-6.33l10.68,10.68a24.46,24.46,0,0,1-6.5,5.83,30.62,30.62,0,0,1-8.7,3.66,41,41,0,0,1-10.25,1.25Z" fill="#fec606"/><path d="M448.73,2136h16.41v68.42H448.73Zm34.21,15a14.65,14.65,0,0,0-5.34-.89q-5.93,0-9.19,3.52t-3.27,9.79l-1.38-15.49a24.41,24.41,0,0,1,7.74-9.52A17.75,17.75,0,0,1,482,2135a23.11,23.11,0,0,1,8.11,1.35,17.88,17.88,0,0,1,6.32,4l-9.62,13.25A10.14,10.14,0,0,0,482.94,2151Z" fill="#fec606"/><path d="M524,2205.37l-6.86-3.56a24.15,24.15,0,0,1-10.48-10.45q-3.63-6.89-3.62-16.64V2167q0-10.16,3.46-17.34a24.35,24.35,0,0,1,10.08-10.94,31.75,31.75,0,0,1,15.92-3.76,25.42,25.42,0,0,1,15,4.38A27.24,27.24,0,0,1,557,2152q3.25,8.31,3.26,20v4.49H513.79V2165h31.84l-.07-.73q-.66-7.17-4-11.14a11.26,11.26,0,0,0-9-3.95q-7.11,0-11,4.45t-3.89,12.62v8.7q0,7.79,4.22,12t11.87,4.18a20.92,20.92,0,0,0,7.68-1.48,23.23,23.23,0,0,0,6.82-4.12l10.28,9.62a38.12,38.12,0,0,1-11.7,7.55,34.15,34.15,0,0,1-13.08,2.67Z" fill="#fec606"/><path d="M572.13,2136H604.3v13.78H572.13Zm11.07,64.17q-4-4.58-4-13.55v-70.53h15.76v68.36a6.53,6.53,0,0,0,1,3.86,3.38,3.38,0,0,0,2.91,1.35h5.47v15.09h-8.44Q587.22,2204.71,583.2,2200.13Z" fill="#fec606"/><path d="M640.49,2205.37l-5.54-1.15a47.66,47.66,0,0,1-10.38-3.4,39.21,39.21,0,0,1-8.74-5.47l9.56-11.86a43,43,0,0,0,10.65,5.6,31.63,31.63,0,0,0,10.58,1.91q7.18,0,10.9-1.94t3.73-5.64a5,5,0,0,0-1.85-4.25,10.83,10.83,0,0,0-4.64-2q-2.81-.53-7.88-1l-1.78-.14c-.62,0-1.21-.1-1.78-.19a3.15,3.15,0,0,1-.53,0,4.58,4.58,0,0,0-.53,0,65.2,65.2,0,0,1-11.79-2.21,15.31,15.31,0,0,1-7.75-5.44q-3.13-4-3.13-11.53a21.46,21.46,0,0,1,3.13-11.9,19.19,19.19,0,0,1,9.2-7.32,39.47,39.47,0,0,1,14.89-2.47,51.45,51.45,0,0,1,10.29,1,49.89,49.89,0,0,1,9.59,3,46.68,46.68,0,0,1,8.67,4.84l-9.43,11.47a44.16,44.16,0,0,0-9.72-4.41,32.3,32.3,0,0,0-9.53-1.52q-6.2,0-9.43,1.78a5.7,5.7,0,0,0-3.22,5.27,3.87,3.87,0,0,0,1.77,3.43,11.22,11.22,0,0,0,4.45,1.62c1.78.28,4.37.58,7.75.89l1,.1c.33,0,.67.05,1,.1h.46a2.33,2.33,0,0,1,.53.06,70.68,70.68,0,0,1,12.59,2.18,16.79,16.79,0,0,1,8.51,5.76q3.48,4.32,3.49,12.56a21.64,21.64,0,0,1-3.3,12.23,20,20,0,0,1-9.79,7.51,43.65,43.65,0,0,1-15.91,2.54Z" fill="#fec606"/><path d="M722.42,2136h32.17v13.78H722.42Zm11.08,64.17q-4-4.58-4-13.55v-70.53h15.76v68.36a6.46,6.46,0,0,0,1,3.86,3.36,3.36,0,0,0,2.9,1.35h5.47v15.09h-8.44Q737.51,2204.71,733.5,2200.13Z" fill="#fec606"/><path d="M783,2201.88a23.25,23.25,0,0,1-9.89-10.19,35.29,35.29,0,0,1-3.39-16.11v-11.14a34.56,34.56,0,0,1,3.39-15.92,23.12,23.12,0,0,1,9.89-10.09,36.85,36.85,0,0,1,31.18,0,23.07,23.07,0,0,1,9.89,10.09,34.56,34.56,0,0,1,3.39,15.92v11.33a34.77,34.77,0,0,1-3.39,16,23.24,23.24,0,0,1-9.89,10.12,36.57,36.57,0,0,1-31.18,0Zm25.28-15.39q3.44-3.79,3.43-10.72v-11.33q0-6.86-3.43-10.62t-9.69-3.75q-6.25,0-9.69,3.75t-3.43,10.62v11.33q0,6.93,3.4,10.72t9.72,3.79Q804.89,2190.28,808.31,2186.49Z" fill="#fec606"/><path d="M890.28,2202.11a21.29,21.29,0,0,1-8-9.82,39.67,39.67,0,0,1-2.73-15.53v-13.05a40.55,40.55,0,0,1,2.7-15.59,21.17,21.17,0,0,1,7.88-9.89,22.17,22.17,0,0,1,12.43-3.39,18.48,18.48,0,0,1,10.57,3.23,22.83,22.83,0,0,1,7.68,9.1l-1.38,14.56a15,15,0,0,0-1.38-6.72,9.62,9.62,0,0,0-4-4.22,13.12,13.12,0,0,0-6.39-1.45q-5.86,0-9.1,3.82t-3.23,10.68v12.92q0,6.79,3.23,10.52t9.1,3.72a12.79,12.79,0,0,0,6.39-1.48,9.85,9.85,0,0,0,4-4.25,14.82,14.82,0,0,0,1.38-6.66l.92,15a18.5,18.5,0,0,1-6.56,8.6,18.08,18.08,0,0,1-10.91,3.26A22.72,22.72,0,0,1,890.28,2202.11Zm7,30.09-6.27-2.87a22.91,22.91,0,0,1-9.75-8.07l10.61-9.69A16.7,16.7,0,0,0,905,2218q6.72,0,10.61-3.66t3.89-10.31v-68H935.2v66.38a34.38,34.38,0,0,1-3.52,16.15,23.58,23.58,0,0,1-10.29,10.22,35,35,0,0,1-16.24,3.49Z" fill="#fec606"/><path d="M973.3,2205.37l-6.85-3.56A24.1,24.1,0,0,1,956,2191.36q-3.63-6.89-3.63-16.64V2167q0-10.16,3.46-17.34a24.37,24.37,0,0,1,10.09-10.94,31.73,31.73,0,0,1,15.92-3.76,25.39,25.39,0,0,1,15,4.38,27.19,27.19,0,0,1,9.5,12.69q3.26,8.31,3.26,20v4.49H963.09V2165h31.84l-.07-.73q-.66-7.17-4-11.14a11.26,11.26,0,0,0-9-3.95q-7.12,0-11,4.45t-3.89,12.62v8.7q0,7.79,4.22,12t11.87,4.18a20.82,20.82,0,0,0,7.67-1.48,23.28,23.28,0,0,0,6.83-4.12l10.28,9.62a38.12,38.12,0,0,1-11.7,7.55,34.15,34.15,0,0,1-13.08,2.67Z" fill="#fec606"/><path d="M1021.42,2136h32.17v13.78h-32.17Zm11.08,64.17q-4-4.58-4-13.55v-70.53h15.75v68.36a6.46,6.46,0,0,0,1,3.86,3.37,3.37,0,0,0,2.9,1.35h5.47v15.09h-8.43Q1036.52,2204.71,1032.5,2200.13Z" fill="#fec606"/><path d="M1101.71,2136h35.53v13.45h-35.53Zm7.25-9.29q0-9.11,4.19-13.62t12.89-4.51h11.2V2123h-8.63a3.3,3.3,0,0,0-2.9,1.45,6.55,6.55,0,0,0-1,3.76v76.2H1109Z" fill="#fec606"/><path d="M1149.77,2136h16.41v68.42h-16.41Zm34.21,15a14.65,14.65,0,0,0-5.34-.89q-5.94,0-9.2,3.52t-3.26,9.79l-1.38-15.49a24.24,24.24,0,0,1,7.74-9.52,17.72,17.72,0,0,1,10.51-3.4,23.07,23.07,0,0,1,8.11,1.35,17.84,17.84,0,0,1,6.33,4l-9.62,13.25A10.21,10.21,0,0,0,1184,2151Z" fill="#fec606"/><path d="M1217.37,2201.88a23.2,23.2,0,0,1-9.89-10.19,35.16,35.16,0,0,1-3.4-16.11v-11.14a34.43,34.43,0,0,1,3.4-15.92,23.07,23.07,0,0,1,9.89-10.09,36.85,36.85,0,0,1,31.18,0,23.1,23.1,0,0,1,9.88,10.09,34.43,34.43,0,0,1,3.4,15.92v11.33a34.64,34.64,0,0,1-3.4,16,23.28,23.28,0,0,1-9.88,10.12,36.57,36.57,0,0,1-31.18,0Zm25.28-15.39q3.42-3.79,3.42-10.72v-11.33q0-6.86-3.42-10.62t-9.69-3.75q-6.27,0-9.69,3.75t-3.43,10.62v11.33q0,6.93,3.39,10.72t9.73,3.79Q1239.22,2190.28,1242.65,2186.49Z" fill="#fec606"/><path d="M1279.63,2136h15.75v68.42h-15.75Zm40.4,27.95q0-6.66-3.26-10.25t-9.26-3.59q-5.8,0-9,3.13t-3.16,8.86l-1.38-14.17a24.56,24.56,0,0,1,7.91-9.59,18.83,18.83,0,0,1,11-3.33,22,22,0,0,1,12.33,3.36,20.81,20.81,0,0,1,7.81,9.86,41.14,41.14,0,0,1,2.67,15.65v40.54H1320Zm40.35,0q0-6.66-3.3-10.25t-9.36-3.59q-5.73,0-8.87,3.46t-3.13,9.85l-3-14.5a25.83,25.83,0,0,1,8.47-10.28,20,20,0,0,1,11.63-3.63,22.91,22.91,0,0,1,12.63,3.36,21,21,0,0,1,8,9.86,40.14,40.14,0,0,1,2.74,15.65v40.54h-15.75Z" fill="#fec606"/><path d="M384.62,2351.78v17.73a40,40,0,0,1-4.25,18.82,30.35,30.35,0,0,1-12,12.59,35.43,35.43,0,0,1-18,4.45,37.89,37.89,0,0,1-18.12-4.18,29.79,29.79,0,0,1-12.17-11.84,35.49,35.49,0,0,1-4.31-17.73v-28.28a39.76,39.76,0,0,1,4.25-18.78,30.39,30.39,0,0,1,12-12.56,35.43,35.43,0,0,1,18-4.45,34.44,34.44,0,0,1,15.49,3.53,32.39,32.39,0,0,1,11.86,10,37.31,37.31,0,0,1,6.46,15h-17a16.84,16.84,0,0,0-9.66-11.11,18,18,0,0,0-7.15-1.48,17.77,17.77,0,0,0-9.46,2.47,16.69,16.69,0,0,0-6.3,7,23.32,23.32,0,0,0-2.24,10.45v28.28a18.82,18.82,0,0,0,2.28,9.39,15.44,15.44,0,0,0,6.46,6.27,20.38,20.38,0,0,0,9.65,2.21,18.79,18.79,0,0,0,9.5-2.34,15.63,15.63,0,0,0,6.29-6.79,23.62,23.62,0,0,0,2.21-10.58v-2.9h-17v-15.1Z" fill="#fec606"/><path d="M416.79,2401a30.37,30.37,0,0,1-12.06-12.39,38.73,38.73,0,0,1-4.29-18.56v-27.16a38.69,38.69,0,0,1,4.29-18.55,30.39,30.39,0,0,1,12.06-12.4,39.16,39.16,0,0,1,36,0,30.42,30.42,0,0,1,12.07,12.4,38.8,38.8,0,0,1,4.28,18.55V2370a38.84,38.84,0,0,1-4.28,18.56A30.39,30.39,0,0,1,452.78,2401a39.16,39.16,0,0,1-36,0Zm27.52-13.61a16,16,0,0,0,6.36-6.76,21.86,21.86,0,0,0,2.25-10.12v-28.08a21.86,21.86,0,0,0-2.25-10.12,16,16,0,0,0-6.36-6.76,20.33,20.33,0,0,0-19.05,0,16.16,16.16,0,0,0-6.36,6.76,22,22,0,0,0-2.24,10.12v28.08a22,22,0,0,0,2.24,10.12,16.16,16.16,0,0,0,6.36,6.76,20.33,20.33,0,0,0,19.05,0Z" fill="#fec606"/><path d="M501.3,2401a30.31,30.31,0,0,1-12.06-12.39A38.73,38.73,0,0,1,485,2370v-27.16a38.69,38.69,0,0,1,4.29-18.55,30.33,30.33,0,0,1,12.06-12.4,39.16,39.16,0,0,1,36,0,30.33,30.33,0,0,1,12.06,12.4,38.69,38.69,0,0,1,4.29,18.55V2370a38.73,38.73,0,0,1-4.29,18.56A30.31,30.31,0,0,1,537.29,2401a39.16,39.16,0,0,1-36,0Zm27.52-13.61a16,16,0,0,0,6.36-6.76,22,22,0,0,0,2.24-10.12v-28.08a22,22,0,0,0-2.24-10.12,16,16,0,0,0-6.36-6.76,20.33,20.33,0,0,0-19.05,0,16,16,0,0,0-6.36,6.76,21.86,21.86,0,0,0-2.24,10.12v28.08a21.86,21.86,0,0,0,2.24,10.12,16,16,0,0,0,6.36,6.76,20.33,20.33,0,0,0,19.05,0Z" fill="#fec606"/><path d="M572.75,2308.54h15.76v95.84H572.75Zm9.1,80.75H604.2q9.75,0,15.13-4.88t5.37-13.84v-28.22q0-9-5.37-13.84t-15.13-4.88H581.85v-15.09H603.8q11.73,0,20.07,4a28.23,28.23,0,0,1,12.69,11.73q4.35,7.71,4.35,18.59V2370a37.26,37.26,0,0,1-4.28,18.33A28.65,28.65,0,0,1,624,2400.23q-8.32,4.16-20.26,4.15H581.85Z" fill="#fec606"/><path d="M684.42,2308.54h69v15.09h-69Zm26.63,7.84h15.69v88H711.05Z" fill="#fec606"/><path d="M765.33,2401.88a23.17,23.17,0,0,1-9.88-10.19,35.16,35.16,0,0,1-3.4-16.11v-11.14a34.43,34.43,0,0,1,3.4-15.92,23,23,0,0,1,9.88-10.09,36.85,36.85,0,0,1,31.18,0,23.07,23.07,0,0,1,9.89,10.09,34.56,34.56,0,0,1,3.39,15.92v11.33a34.77,34.77,0,0,1-3.39,16,23.24,23.24,0,0,1-9.89,10.12,36.57,36.57,0,0,1-31.18,0Zm25.28-15.39q3.43-3.79,3.43-10.72v-11.33q0-6.86-3.43-10.62t-9.69-3.75q-6.25,0-9.69,3.75t-3.42,10.62v11.33q0,6.93,3.39,10.72t9.72,3.79Q787.19,2390.28,790.61,2386.49Z" fill="#fec606"/><path d="M932,2351.78v17.73a40,40,0,0,1-4.26,18.82,30.35,30.35,0,0,1-12,12.59,35.39,35.39,0,0,1-18,4.45,37.93,37.93,0,0,1-18.13-4.18,29.7,29.7,0,0,1-12.16-11.84,35.39,35.39,0,0,1-4.32-17.73v-28.28a39.88,39.88,0,0,1,4.25-18.78,30.35,30.35,0,0,1,12-12.56,35.37,35.37,0,0,1,18-4.45,34.44,34.44,0,0,1,15.49,3.53,32.42,32.42,0,0,1,11.87,10,37.59,37.59,0,0,1,6.46,15h-17a16.84,16.84,0,0,0-9.66-11.11,18.76,18.76,0,0,0-16.61,1,16.6,16.6,0,0,0-6.29,7,23.19,23.19,0,0,0-2.25,10.45v28.28a18.82,18.82,0,0,0,2.28,9.39,15.5,15.5,0,0,0,6.46,6.27,20.42,20.42,0,0,0,9.66,2.21,18.78,18.78,0,0,0,9.49-2.34,15.63,15.63,0,0,0,6.29-6.79,23.62,23.62,0,0,0,2.21-10.58v-2.9h-17v-15.1Z" fill="#fec606"/><path d="M951.12,2308.47h15.76v95.91H951.12Zm6.53,41.27h33a10.62,10.62,0,0,0,5.84-1.62,10.51,10.51,0,0,0,3.92-4.58,16.87,16.87,0,0,0,1.45-6.92,16.13,16.13,0,0,0-1.38-6.86,10.36,10.36,0,0,0-9.83-6.19h-33v-15.1h33.49a28.21,28.21,0,0,1,14.23,3.5,24.2,24.2,0,0,1,9.53,9.88,34,34,0,0,1,0,29.6,24.17,24.17,0,0,1-9.56,9.89,28.28,28.28,0,0,1-14.2,3.49H957.65Zm23.14,12.13,16.34-3,25.18,45.55H1003.4Z" fill="#fec606"/><path d="M1039.12,2308.54h15.76v95.84h-15.76Zm6.53,0H1102v15.09h-56.36Zm0,40.74h49.11v15h-49.11Zm0,40H1102v15.09h-56.36Z" fill="#fec606"/><path d="M1146.57,2308.54H1158l36,95.84h-16.94L1152.3,2333l-24.78,71.39h-16.94Zm-19,62.55H1178v15.1h-50.43Z" fill="#fec606"/><path d="M1191.39,2308.54h68.95v15.09h-68.95Zm26.63,7.84h15.69v88H1218Z" fill="#fec606"/><path d="M1268.58,2388.3h16.09v16.08h-16.09Zm.2-79.76h15.69v69.28h-15.69Z" fill="#fec606"/></svg>