<svg id="Layer_1" data-name="Layer 1" xmlns="http://www.w3.org/2000/svg" xmlns:xlink="http://www.w3.org/1999/xlink" viewBox="0 0 1602 2561"><defs><linearGradient id="linear-gradient" x1="0.5" y1="1280.5" x2="1601.5" y2="1280.5" gradientUnits="userSpaceOnUse"><stop offset="0" stop-color="#3a65cf"/><stop offset="1" stop-color="#3358b5"/></linearGradient></defs><title>free_time</title><rect x="0.5" y="0.5" width="1601" height="2560" stroke="#000" stroke-miterlimit="10" fill="url(#linear-gradient)"/><path d="M1170.73,1564.83c-1.55,184.32-137.58,336.56-314.78,363.4,159.66-48.89,277-196.37,283.41-372.88A228.88,228.88,0,0,1,1170.73,1564.83Z" transform="translate(1 0.5)" fill="#89bf13"/><path d="M1170.75,1561.63c0,1.07,0,2.13,0,3.2a229.54,229.54,0,0,0-31.09-9.42c-31.45-7.22-64.47-8.35-96.74-5.57-47.23,4.07-95.31,22.23-142.69,23.7L724.85,1579c-21.52.66-43.35,1.3-64.31-3.65-16.07-3.79-31.2-10.77-46.94-15.73-59.38-18.74-123.17-8-184.34,5.94-.73-95.58,35.65-189.86,102.39-259.82A371.93,371.93,0,0,1,670,1214.54V1077.45H651.94s-33.12-2-33.12-32.12,33.12-33.11,33.12-33.11H949s14-1.28,23.84,7.82c5.25,4.86,9.27,12.7,9.27,25.29,0,36.13-33.11,32.12-33.11,32.12H931.92V1215C1071.54,1268.2,1170.75,1403.33,1170.75,1561.63Z" transform="translate(1 0.5)" fill="#f6f5df"/><circle cx="805.97" cy="1549.09" r="244.35" fill="#3358b5"/><circle cx="806.39" cy="1548.68" r="187.71" fill="#fff"/><line x1="806.39" y1="1463.33" x2="806.39" y2="1539.01" fill="none" stroke="#000" stroke-linecap="round" stroke-linejoin="round" stroke-width="11.58"/><line x1="806.39" y1="1542.06" x2="858.21" y2="1542.06" fill="none" stroke="#000" stroke-linecap="round" stroke-miterlimit="10" stroke-width="11.58"/><path d="M1139.36,1555.35c-6.43,176.51-123.75,324-283.41,372.88a374.49,374.49,0,0,1-56,4.2c-114.9,0-225.18-54.67-294.89-146A368.61,368.61,0,0,1,433.73,1620a366.07,366.07,0,0,1-4.47-54.5c61.17-14,125-24.68,184.34-5.94,15.74,5,30.87,11.94,46.94,15.73,21,5,42.79,4.31,64.31,3.65l175.36-5.42c47.38-1.47,95.46-19.63,142.69-23.7C1075.07,1547.07,1108,1548.18,1139.36,1555.35Z" transform="translate(1 0.5)" fill="#99d815"/><path d="M1170.75,1561.63c0,1.07,0,2.13,0,3.2a229.54,229.54,0,0,0-31.09-9.42v-.3c0-188.66-221.77-340.18-221.77-340.18l2-153.54H947c38.75,0,8-48.11,7.41-49l18.44,7.69c5.25,4.86,9.27,12.7,9.27,25.29,0,36.13-33.11,32.12-33.11,32.12H931.92V1215C1071.54,1268.2,1170.75,1403.33,1170.75,1561.63Z" transform="translate(1 0.5)" fill="#d8debf"/><path d="M618.2,148.5l2.2-23h95l-2.2,23-34.8-3-.8,66,2.4,52H652l2.4-48.6-.8-69.2Z" transform="translate(1 0.5)" fill="#fff"/><path d="M857.4,124.5l-2.8,87,2.4,52H829l2.4-48.6-.4-10.6H777.2l-.2,7.2,2.4,52h-28l2.4-48.6-2.4-85.4,28.4-5-2,58.6h52.6L829,129.5Z" transform="translate(1 0.5)" fill="#fff"/><path d="M909.4,263.5l2.4-48.6-2.4-89.4h75l-2.2,21.4h-45L936,182.3h40l-2.2,21.2H935.2l-.2,8,1.4,30.8h48.4l-2.2,21.2Z" transform="translate(1 0.5)" fill="#fff"/><path d="M417.31,386.9h-42.6l-1.2,36.8h38.2l-2.2,21.2h-36.6l-.2,6.6,2.4,52h-28l2.4-48.6-2.4-89.4h72.4Z" transform="translate(1 0.5)" fill="#fff"/><path d="M448.9,406.9l24.2-5.2q1.8,15.41,2.4,29.2,18.21-28.2,34.2-28.2l-2.2,31.2q-11.6,0-18.3,2.1t-13.7,8.3v7.2l2.2,47-26.8,5,2.4-48.6A350.79,350.79,0,0,0,448.9,406.9Z" transform="translate(1 0.5)" fill="#fff"/><path d="M578.3,483.1a28.76,28.76,0,0,0,12.2-3,46.8,46.8,0,0,0,10-6l3.6-3,9.2,11.2a44.34,44.34,0,0,1-6.2,7.8,62,62,0,0,1-8.5,7.5,45.48,45.48,0,0,1-11.4,5.6,43.83,43.83,0,0,1-14.7,2.5q-16.2,0-26.4-12.3t-10.2-31.7q0-24.39,14.2-42.8t33.2-18.4q14.6,0,22.7,8.2t8.1,23a78.28,78.28,0,0,1-3,20l-4,4.2-50,4.6Q560.51,483.11,578.3,483.1Zm0-62a18.65,18.65,0,0,0-14.8,7.1q-6,7.11-7,18.1l34-4.2a60.93,60.93,0,0,0,.6-7.6Q591.1,421.11,578.3,421.1Z" transform="translate(1 0.5)" fill="#fff"/><path d="M687.5,483.1a28.76,28.76,0,0,0,12.2-3,46.8,46.8,0,0,0,10-6l3.6-3,9.2,11.2a44.34,44.34,0,0,1-6.2,7.8,62,62,0,0,1-8.5,7.5,45.48,45.48,0,0,1-11.4,5.6,43.83,43.83,0,0,1-14.7,2.5q-16.2,0-26.4-12.3t-10.2-31.7q0-24.39,14.2-42.8t33.2-18.4q14.6,0,22.7,8.2t8.1,23a78.28,78.28,0,0,1-3,20l-4,4.2-50,4.6Q669.71,483.11,687.5,483.1Zm0-62a18.65,18.65,0,0,0-14.8,7.1q-6,7.11-7,18.1l34-4.2a60.93,60.93,0,0,0,.6-7.6Q700.3,421.11,687.5,421.1Z" transform="translate(1 0.5)" fill="#fff"/><path d="M753.3,464.7l-1.6-18.2,47.2-8.4,1.6,18.2Z" transform="translate(1 0.5)" fill="#fff"/><path d="M823.1,388.5l2.2-23h95l-2.2,23-34.8-3-.8,66,2.4,52h-28l2.4-48.6-.8-69.2Z" transform="translate(1 0.5)" fill="#fff"/><path d="M950.5,372.4a16.71,16.71,0,0,1,5.2-12,16.33,16.33,0,0,1,12-5.3q6.79,0,10.4,3.7t3.6,11.1a17.67,17.67,0,0,1-5.1,12.7,15.94,15.94,0,0,1-11.8,5.3q-6.7,0-10.5-4.4A16.33,16.33,0,0,1,950.5,372.4Zm28.2,29.3-2.4,49.8,2.2,47-26.8,5,2.4-48.6-2.2-48.2Z" transform="translate(1 0.5)" fill="#fff"/><path d="M1076.29,434.5q-2.4-4.59-11.2-4.6t-20,7v14.6l2.2,47-26.79,5,2.39-48.6a352.48,352.48,0,0,0-4.39-48l24.19-5.2q1.41,11.61,2,22.6a79.8,79.8,0,0,1,6.81-7.9q3.8-3.9,12-8.8a32,32,0,0,1,16.59-4.9,20.06,20.06,0,0,1,14.2,5.4q5.81,5.4,7.4,14.8,16.61-20.19,33.6-20.2,10.61,0,16.8,7.1t6.2,19.3l-1.2,22.4,2.2,48-27,5,2.4-51.6q0-13.8-2.4-18.4t-11-4.6q-8.6,0-19.4,6.6l-.8,15,2.2,48-27,5,2.4-51.6Q1078.69,439.1,1076.29,434.5Z" transform="translate(1 0.5)" fill="#fff"/><path d="M1237.29,483.1a28.76,28.76,0,0,0,12.2-3,46.8,46.8,0,0,0,10-6l3.6-3,9.2,11.2a44.34,44.34,0,0,1-6.2,7.8,62,62,0,0,1-8.5,7.5,45.48,45.48,0,0,1-11.4,5.6,43.83,43.83,0,0,1-14.7,2.5q-16.2,0-26.4-12.3t-10.2-31.7q0-24.39,14.2-42.8t33.2-18.4q14.6,0,22.7,8.2t8.1,23a78.28,78.28,0,0,1-3,20l-4,4.2-50,4.6Q1219.49,483.11,1237.29,483.1Zm0-62a18.65,18.65,0,0,0-14.8,7.1q-6,7.11-7,18.1l34-4.2a60.93,60.93,0,0,0,.6-7.6Q1250.09,421.11,1237.29,421.1Z" transform="translate(1 0.5)" fill="#fff"/><path d="M499.71,626.9h-42.6l-1.2,36.8h38.2l-2.2,21.2h-36.6l-.2,6.6,2.4,52h-28l2.4-48.6-2.4-89.4h72.4Z" transform="translate(1 0.5)" fill="#fff"/><path d="M541.3,658.3q13.8-17.79,32.3-17.8t28.8,12q10.3,12,10.3,31.8,0,26.4-13.3,43.9t-33.5,17.5a34.94,34.94,0,0,1-27.5-12.5q-10.9-12.5-10.9-31.5Q527.5,676.1,541.3,658.3Zm49,36.4q0-29-19.8-29-20.6,0-20.6,27.2,0,14.21,5.8,22.2t15.3,8q9.5,0,14.4-7.3T590.3,694.7Z" transform="translate(1 0.5)" fill="#fff"/><path d="M647.7,646.9l24.2-5.2q1.8,15.4,2.4,29.2,18.19-28.2,34.2-28.2l-2.2,31.2q-11.59,0-18.3,2.1t-13.7,8.3v7.2l2.2,47-26.8,5,2.4-48.6A350.79,350.79,0,0,0,647.7,646.9Z" transform="translate(1 0.5)" fill="#fff"/><path d="M796.7,674.5q-2.4-4.59-11.2-4.6t-20,7v14.6l2.2,47-26.8,5,2.4-48.6a350.79,350.79,0,0,0-4.4-48l24.2-5.2q1.39,11.61,2,22.6a81,81,0,0,1,6.8-7.9q3.79-3.9,12-8.8a32,32,0,0,1,16.6-4.9,20.07,20.07,0,0,1,14.2,5.4q5.81,5.4,7.4,14.8,16.6-20.19,33.6-20.2,10.6,0,16.8,7.1t6.2,19.3l-1.2,22.4,2.2,48-27,5,2.4-51.6q0-13.8-2.4-18.4t-11-4.6q-8.6,0-19.4,6.6l-.8,15,2.2,48-27,5,2.4-51.6Q799.1,679.1,796.7,674.5Z" transform="translate(1 0.5)" fill="#fff"/><path d="M945.7,743.5q-10.8,0-17.5-7.1t-6.7-18.7l1.2-23-2.2-48,26.8-5-2.6,60.8c0,5.73,1,9.94,3.1,12.6s5.36,4,9.9,4,10.8-2.27,18.8-6.8v-12l-2.2-52.6,27-5-2.4,50,.2,16.4a56.64,56.64,0,0,0,6.6,25.8l-20.8,9.2q-6.6-13-8-20.8Q958.9,743.51,945.7,743.5Z" transform="translate(1 0.5)" fill="#fff"/><path d="M1071.1,588.7l-2.6,102.8,2.2,47-27,5,2.4-48.6-2.4-101.2Z" transform="translate(1 0.5)" fill="#fff"/><path d="M1115,736q-7.5-7.5-7.5-20.2t11.6-22q11.6-9.3,28.2-9.3h13.6v-3.4q0-9.79-4-13.4t-15-3.6A38.49,38.49,0,0,0,1131,666a85.73,85.73,0,0,0-14.1,5.9l-5.8-15.8a100,100,0,0,1,20.9-10.8q12.3-4.8,20.3-4.8,31.4,0,31.4,30.4v39.2q0,11.21,7,25l-21.2,9a108.51,108.51,0,0,1-7.4-17.2q-11,16.61-27.8,16.6Q1122.5,743.5,1115,736Zm27.7-12.9q8,0,18.2-8.2V701.5a81.67,81.67,0,0,0-17.2-2.4q-12.6,0-12.6,11.2,0,5.81,3.2,9.3A10.81,10.81,0,0,0,1142.7,723.1Z" transform="translate(1 0.5)" fill="#fff"/><path d="M181.91,2213.17H170v-65.33h41.6v10H181.91v16.89h25.34v10H181.91Z" transform="translate(1 0.5)"/><path d="M220.58,2142.47h12.16V2155H220.58Zm.29,23.38h11.58v47.32H220.87Z" transform="translate(1 0.5)"/><path d="M256.08,2172.45h.19a17.45,17.45,0,0,1,2.59-2.88,17.2,17.2,0,0,1,3.57-2.49,20.56,20.56,0,0,1,4.42-1.74,19.43,19.43,0,0,1,5.15-.66,21.19,21.19,0,0,1,5,.59,14.94,14.94,0,0,1,4.42,1.83,13.32,13.32,0,0,1,3.54,3.22,15.18,15.18,0,0,1,2.42,4.71,16.34,16.34,0,0,1,.66,3.3c.11,1.19.17,2.56.17,4.13v30.71H276.64v-28.91a30.51,30.51,0,0,0-.15-3.27,9.69,9.69,0,0,0-.54-2.39,5.93,5.93,0,0,0-2.66-3.22,8.9,8.9,0,0,0-4.32-1,14,14,0,0,0-6.47,1.59,16.48,16.48,0,0,0-5.49,4.61v32.57H245.43v-47.32H255Z" transform="translate(1 0.5)"/><path d="M298.46,2190.46a33.23,33.23,0,0,1,1.71-11.06,24,24,0,0,1,4.66-8.15,19.19,19.19,0,0,1,6.77-4.93,19.84,19.84,0,0,1,7.91-1.64,19,19,0,0,1,3.61.34,19.76,19.76,0,0,1,3.22.93,21.72,21.72,0,0,1,2.83,1.32c.88.49,1.7,1,2.45,1.51h.09c0-.65,0-1.57-.07-2.75s0-2.49,0-3.89v-19.67h11.57v56.64c0,3.12,0,5.81.1,8s.13,4.25.19,6H333l-.49-5h-.19a18.22,18.22,0,0,1-2.47,2.39,17,17,0,0,1-3.17,2,17.65,17.65,0,0,1-3.81,1.34,19.45,19.45,0,0,1-4.52.49A20.36,20.36,0,0,1,311,2213a17.89,17.89,0,0,1-6.35-4.22,20.59,20.59,0,0,1-4.49-7.47A31.54,31.54,0,0,1,298.46,2190.46Zm22.8,14.7a11.87,11.87,0,0,0,3.25-.44,14.28,14.28,0,0,0,2.91-1.17,14.64,14.64,0,0,0,2.41-1.61,17.56,17.56,0,0,0,1.79-1.71v-22.46A19.58,19.58,0,0,0,327,2175a13.47,13.47,0,0,0-5.37-1.1,11.09,11.09,0,0,0-3.79.73,9.41,9.41,0,0,0-3.61,2.49,14,14,0,0,0-2.74,4.89,24.38,24.38,0,0,0-1.1,8q0,7.13,2.76,11.13A9.3,9.3,0,0,0,321.26,2205.16Z" transform="translate(1 0.5)"/><path d="M356.67,2142.47h12.15V2155H356.67Zm.29,23.38h11.57v47.32H357Z" transform="translate(1 0.5)"/><path d="M392.16,2172.45h.2a16.59,16.59,0,0,1,2.59-2.88,17.4,17.4,0,0,1,3.56-2.49,21,21,0,0,1,4.42-1.74,19.48,19.48,0,0,1,5.15-.66,21.27,21.27,0,0,1,5,.59,14.89,14.89,0,0,1,4.41,1.83,13.32,13.32,0,0,1,3.54,3.22,15.68,15.68,0,0,1,3.08,8c.12,1.19.17,2.56.17,4.13v30.71H412.72v-28.91a30.51,30.51,0,0,0-.15-3.27,9.27,9.27,0,0,0-.53-2.39,6,6,0,0,0-2.66-3.22,8.91,8.91,0,0,0-4.33-1,14,14,0,0,0-6.47,1.59,16.68,16.68,0,0,0-5.49,4.61v32.57H381.52v-47.32h9.57Z" transform="translate(1 0.5)"/><path d="M467.7,2214.39c0-.65,0-1.46,0-2.42s.06-1.76.13-2.41h-.1a23.54,23.54,0,0,1-2.47,1.73,22.3,22.3,0,0,1-3,1.56,18.92,18.92,0,0,1-3.66,1.12,19.94,19.94,0,0,1-4.1.42,20.91,20.91,0,0,1-7.35-1.34,17,17,0,0,1-6.37-4.25,21.57,21.57,0,0,1-4.5-7.45,31.29,31.29,0,0,1-1.7-10.93,32.92,32.92,0,0,1,1.73-11.21,24.08,24.08,0,0,1,4.61-8,19.14,19.14,0,0,1,14.31-6.5,15.93,15.93,0,0,1,7.72,1.83,17,17,0,0,1,5.51,4.67h.2l.49-5.33h10.15v48.2a32.73,32.73,0,0,1-.68,7.13,19.25,19.25,0,0,1-2,5.27,17.7,17.7,0,0,1-4,4.69,22.32,22.32,0,0,1-5.52,3.32,31.46,31.46,0,0,1-6.81,2,45,45,0,0,1-7.86.65c-1.57,0-3.1-.05-4.59-.17s-2.91-.27-4.23-.48-2.52-.46-3.61-.74a23.19,23.19,0,0,1-2.76-.85v-9.43a41.46,41.46,0,0,0,6.76,1.64,48.13,48.13,0,0,0,7.45.56q7.77,0,12-3t4.25-9.11Zm-10.35-9.23a12.33,12.33,0,0,0,3.32-.44,15.4,15.4,0,0,0,2.88-1.12,14.6,14.6,0,0,0,2.37-1.52,13.12,13.12,0,0,0,1.78-1.66v-21.14a15.72,15.72,0,0,0-4.59-3.66,12.47,12.47,0,0,0-5.81-1.51,10.31,10.31,0,0,0-2.27.27,8.62,8.62,0,0,0-2.42.95,9.92,9.92,0,0,0-2.32,1.83,11,11,0,0,0-1.93,2.9,19.4,19.4,0,0,0-1.34,4.2,28,28,0,0,0-.51,5.67,27.35,27.35,0,0,0,.68,6.37,14.3,14.3,0,0,0,2.05,4.78,9.29,9.29,0,0,0,3.4,3A10.09,10.09,0,0,0,457.35,2205.16Z" transform="translate(1 0.5)"/><path d="M526,2174.74h30.27v-26.9h12v65.33h-12v-28.42H526v28.42H514v-65.33h12Z" transform="translate(1 0.5)"/><path d="M610.23,2208.14H610a22.87,22.87,0,0,1-2.34,2.1,22.13,22.13,0,0,1-3.12,2,18.73,18.73,0,0,1-3.91,1.53,17.6,17.6,0,0,1-4.64.59,18.51,18.51,0,0,1-6.3-1,14.25,14.25,0,0,1-5-3,13.93,13.93,0,0,1-3.29-4.78,15.84,15.84,0,0,1-1.2-6.28,16.13,16.13,0,0,1,1.39-6.83,14.6,14.6,0,0,1,3.88-5.13,17.15,17.15,0,0,1,6-3.2,25.38,25.38,0,0,1,7.67-1.1,38,38,0,0,1,5.66.39,38.72,38.72,0,0,1,4.54.93v-1.9a9.33,9.33,0,0,0-.56-3.2,7.13,7.13,0,0,0-1.81-2.74,9,9,0,0,0-3.24-1.9,14.86,14.86,0,0,0-4.89-.71,32.43,32.43,0,0,0-7,.78,56.74,56.74,0,0,0-7.61,2.35v-9a38.33,38.33,0,0,1,7.56-2.39,44.59,44.59,0,0,1,8.4-.88,29.4,29.4,0,0,1,9.06,1.27,19,19,0,0,1,6.49,3.49,14,14,0,0,1,3.91,5.25,16.66,16.66,0,0,1,1.29,6.59v17.83c0,3.12,0,5.81.1,8s.13,4.25.2,6H610.72ZM609.3,2193c-1.1-.26-2.37-.49-3.81-.71a29.86,29.86,0,0,0-4.34-.31,11.81,11.81,0,0,0-6.72,1.68,5.82,5.82,0,0,0-2.46,5.15,6.61,6.61,0,0,0,.56,2.81,5.56,5.56,0,0,0,1.51,2,6.55,6.55,0,0,0,2.22,1.17,9.16,9.16,0,0,0,2.69.39,11.58,11.58,0,0,0,3.32-.46,15.48,15.48,0,0,0,2.88-1.17,14.84,14.84,0,0,0,2.37-1.59,17.38,17.38,0,0,0,1.78-1.71Z" transform="translate(1 0.5)"/><path d="M657.54,2214.39a16.66,16.66,0,0,1-6.91-1.39,17.37,17.37,0,0,1-5.15-3.44h-.19c0,.65.06,1.57.1,2.75s0,2.49,0,3.89v19.67H633.86v-70H644l.49,5.33h.19a16.93,16.93,0,0,1,5.52-4.67,16.12,16.12,0,0,1,7.81-1.83,21,21,0,0,1,7.6,1.44,18.31,18.31,0,0,1,6.61,4.42,22,22,0,0,1,4.62,7.52,30.41,30.41,0,0,1,1.73,10.79,31.52,31.52,0,0,1-1.86,11.4,23.37,23.37,0,0,1-4.88,8,19.74,19.74,0,0,1-6.71,4.67A20,20,0,0,1,657.54,2214.39ZM656,2174a12.59,12.59,0,0,0-5.76,1.49,16.48,16.48,0,0,0-4.84,3.88v21.09a14.18,14.18,0,0,0,1.76,1.66,14.79,14.79,0,0,0,2.3,1.52,14.1,14.1,0,0,0,2.8,1.12,11.77,11.77,0,0,0,3.2.44,9.55,9.55,0,0,0,8.28-4.39,15.87,15.87,0,0,0,2.12-5,26.33,26.33,0,0,0,.74-6.47,26.66,26.66,0,0,0-.76-6.69,14.17,14.17,0,0,0-2.15-4.78,9.25,9.25,0,0,0-3.34-2.88A9.62,9.62,0,0,0,656,2174Z" transform="translate(1 0.5)"/><path d="M712.52,2214.39a16.61,16.61,0,0,1-6.9-1.39,17.29,17.29,0,0,1-5.16-3.44h-.19c0,.65.06,1.57.1,2.75s0,2.49,0,3.89v19.67H688.84v-70H699l.49,5.33h.19a17,17,0,0,1,5.52-4.67,16.12,16.12,0,0,1,7.81-1.83,21,21,0,0,1,7.6,1.44,18.31,18.31,0,0,1,6.61,4.42,22,22,0,0,1,4.62,7.52,30.41,30.41,0,0,1,1.73,10.79,31.52,31.52,0,0,1-1.86,11.4,23.37,23.37,0,0,1-4.88,8,19.64,19.64,0,0,1-6.71,4.67A20,20,0,0,1,712.52,2214.39ZM711,2174a12.59,12.59,0,0,0-5.76,1.49,16.31,16.31,0,0,0-4.83,3.88v21.09a13.39,13.39,0,0,0,1.75,1.66,14.79,14.79,0,0,0,2.3,1.52,14,14,0,0,0,2.81,1.12,11.65,11.65,0,0,0,3.19.44,9.55,9.55,0,0,0,8.28-4.39,15.87,15.87,0,0,0,2.12-5,26.33,26.33,0,0,0,.74-6.47,26.66,26.66,0,0,0-.76-6.69,14.17,14.17,0,0,0-2.15-4.78,9.25,9.25,0,0,0-3.34-2.88A9.62,9.62,0,0,0,711,2174Z" transform="translate(1 0.5)"/><path d="M743.82,2142.47H756V2155H743.82Zm.3,23.38h11.57v47.32H744.12Z" transform="translate(1 0.5)"/><path d="M779.32,2172.45h.2a16.93,16.93,0,0,1,2.58-2.88,17.47,17.47,0,0,1,3.57-2.49,20.77,20.77,0,0,1,4.42-1.74,19.48,19.48,0,0,1,5.15-.66,21.19,21.19,0,0,1,5,.59,14.84,14.84,0,0,1,4.42,1.83,13.32,13.32,0,0,1,3.54,3.22,15.68,15.68,0,0,1,3.08,8c.11,1.19.17,2.56.17,4.13v30.71H799.88v-28.91a30.51,30.51,0,0,0-.15-3.27,9.25,9.25,0,0,0-.54-2.39,5.93,5.93,0,0,0-2.66-3.22,8.9,8.9,0,0,0-4.32-1,14,14,0,0,0-6.47,1.59,16.48,16.48,0,0,0-5.49,4.61v32.57H768.68v-47.32h9.57Z" transform="translate(1 0.5)"/><path d="M848.51,2205.06a37.89,37.89,0,0,0,7-.68,55.75,55.75,0,0,0,7.42-2v9.23a34.9,34.9,0,0,1-6.88,1.85,51.22,51.22,0,0,1-9.62.88,34.64,34.64,0,0,1-9.55-1.29,20.82,20.82,0,0,1-7.88-4.18,20.07,20.07,0,0,1-5.35-7.47,28,28,0,0,1-2-11.13,31.3,31.3,0,0,1,1.86-11.28,23.12,23.12,0,0,1,5-8,20.61,20.61,0,0,1,7.15-4.76,22.5,22.5,0,0,1,8.33-1.59,24.2,24.2,0,0,1,8.27,1.37,16.52,16.52,0,0,1,6.55,4.3,19.92,19.92,0,0,1,4.29,7.54,34.47,34.47,0,0,1,1.54,10.91c0,1.63-.08,3-.14,4.15h-31a14,14,0,0,0,1.47,5.59,10.76,10.76,0,0,0,3.19,3.76,13,13,0,0,0,4.62,2.1A23.48,23.48,0,0,0,848.51,2205.06Zm-4.64-31.34a9,9,0,0,0-3.9.8,9.2,9.2,0,0,0-3,2.2,10.77,10.77,0,0,0-2,3.25,15.76,15.76,0,0,0-1,4h18.6a13.66,13.66,0,0,0-.56-4,9.7,9.7,0,0,0-1.66-3.25,7.84,7.84,0,0,0-2.73-2.2A8.58,8.58,0,0,0,843.87,2173.72Z" transform="translate(1 0.5)"/><path d="M896.36,2199.45a3.64,3.64,0,0,0-.85-2.49,6.81,6.81,0,0,0-2.27-1.64,20.44,20.44,0,0,0-3.25-1.15c-1.22-.32-2.5-.65-3.83-1a50.87,50.87,0,0,1-4.89-1.59,14.74,14.74,0,0,1-4.12-2.37,10.4,10.4,0,0,1-2.83-3.68,12.7,12.7,0,0,1-1.05-5.45,15.59,15.59,0,0,1,1.41-6.86,13.67,13.67,0,0,1,3.84-4.81,16.3,16.3,0,0,1,5.61-2.83,24.11,24.11,0,0,1,6.76-.93,44.83,44.83,0,0,1,8.16.71,42.6,42.6,0,0,1,6.88,1.83v9.43c-1.07-.36-2.2-.7-3.39-1s-2.39-.57-3.61-.8-2.44-.42-3.64-.56a27.82,27.82,0,0,0-3.42-.22,13.28,13.28,0,0,0-3.47.39,6.77,6.77,0,0,0-2.29,1.05,3.92,3.92,0,0,0-1.27,1.51,4.26,4.26,0,0,0-.39,1.78,4,4,0,0,0,.85,2.64,6.07,6.07,0,0,0,2.37,1.66,23.09,23.09,0,0,0,3.17,1l3.23.81c1.63.39,3.25.86,4.88,1.41a15.48,15.48,0,0,1,4.39,2.32,11.37,11.37,0,0,1,3.2,3.86,12.91,12.91,0,0,1,1.25,6,15.18,15.18,0,0,1-1.52,7,13.65,13.65,0,0,1-4.22,5,18.68,18.68,0,0,1-6.49,2.93,34.4,34.4,0,0,1-8.33.95,42.1,42.1,0,0,1-8.08-.71,26.61,26.61,0,0,1-5.93-1.78v-9.33a36.51,36.51,0,0,0,7,1.93,38.56,38.56,0,0,0,6,.51,24,24,0,0,0,4-.31,11.36,11.36,0,0,0,3.2-1,6,6,0,0,0,2.12-1.74A4.1,4.1,0,0,0,896.36,2199.45Z" transform="translate(1 0.5)"/><path d="M938.75,2199.45a3.64,3.64,0,0,0-.86-2.49,6.81,6.81,0,0,0-2.27-1.64,20.09,20.09,0,0,0-3.25-1.15c-1.22-.32-2.49-.65-3.83-1a50.67,50.67,0,0,1-4.88-1.59,14.66,14.66,0,0,1-4.13-2.37,10.4,10.4,0,0,1-2.83-3.68,12.7,12.7,0,0,1-1.05-5.45,15.45,15.45,0,0,1,1.42-6.86,13.65,13.65,0,0,1,3.83-4.81,16.3,16.3,0,0,1,5.61-2.83,24.18,24.18,0,0,1,6.77-.93,44.8,44.8,0,0,1,8.15.71,43,43,0,0,1,6.89,1.83v9.43c-1.08-.36-2.21-.7-3.4-1s-2.39-.57-3.61-.8-2.43-.42-3.64-.56a27.58,27.58,0,0,0-3.42-.22,13.2,13.2,0,0,0-3.46.39,6.82,6.82,0,0,0-2.3,1.05,4,4,0,0,0-1.27,1.51,4.26,4.26,0,0,0-.39,1.78,4,4,0,0,0,.86,2.64,6,6,0,0,0,2.36,1.66,22.78,22.78,0,0,0,3.18,1l3.22.81q2.44.59,4.88,1.41a15.53,15.53,0,0,1,4.4,2.32,11.48,11.48,0,0,1,3.2,3.86,12.91,12.91,0,0,1,1.24,6,15.18,15.18,0,0,1-1.51,7,13.77,13.77,0,0,1-4.23,5,18.59,18.59,0,0,1-6.49,2.93,34.35,34.35,0,0,1-8.33.95,42.18,42.18,0,0,1-8.08-.71,26.61,26.61,0,0,1-5.93-1.78v-9.33a36.51,36.51,0,0,0,7,1.93,38.59,38.59,0,0,0,6,.51,24,24,0,0,0,4-.31,11.36,11.36,0,0,0,3.2-1A6,6,0,0,0,938,2202,4.1,4.1,0,0,0,938.75,2199.45Z" transform="translate(1 0.5)"/><path d="M963.7,2200.13h13.52l-10.55,33.11H954.32Z" transform="translate(1 0.5)"/><path d="M1005.3,2213.17h-12v-65.33h41.61v10H1005.3v16.89h25.34v10H1005.3Z" transform="translate(1 0.5)"/><path d="M1089.09,2189.54a29.81,29.81,0,0,1-1.66,10.15,22.42,22.42,0,0,1-4.76,7.86,21.07,21.07,0,0,1-7.5,5.06,26,26,0,0,1-9.81,1.78,26.7,26.7,0,0,1-10-1.78,20.68,20.68,0,0,1-7.49-5.06,22.19,22.19,0,0,1-4.72-7.86,30.06,30.06,0,0,1-1.63-10.15,29.62,29.62,0,0,1,1.66-10.16,22.13,22.13,0,0,1,4.76-7.86,21.16,21.16,0,0,1,7.49-5.06,26.1,26.1,0,0,1,9.82-1.78,26.61,26.61,0,0,1,10,1.78,20.85,20.85,0,0,1,7.5,5.06,22.17,22.17,0,0,1,4.71,7.86A30.12,30.12,0,0,1,1089.09,2189.54Zm-12,0a23,23,0,0,0-.87-6.64,14.31,14.31,0,0,0-2.45-4.84,9.89,9.89,0,0,0-3.76-2.93,11.64,11.64,0,0,0-4.78-1,11.38,11.38,0,0,0-4.71,1,10,10,0,0,0-3.74,2.93,14.48,14.48,0,0,0-2.44,4.84,25.49,25.49,0,0,0,0,13.28,13.91,13.91,0,0,0,2.47,4.81,10.55,10.55,0,0,0,3.76,2.93,11.3,11.3,0,0,0,4.76,1,11.17,11.17,0,0,0,4.73-1,10.39,10.39,0,0,0,3.71-2.93,14.06,14.06,0,0,0,2.45-4.81A23,23,0,0,0,1077.12,2189.54Z" transform="translate(1 0.5)"/><path d="M1133.42,2212.14a28.94,28.94,0,0,1-5.37,1.59,32.72,32.72,0,0,1-6.69.66,30.27,30.27,0,0,1-9.57-1.47,21.42,21.42,0,0,1-7.76-4.44,20.51,20.51,0,0,1-5.23-7.54,27.59,27.59,0,0,1-1.9-10.67,28.34,28.34,0,0,1,2.2-11.72,22.13,22.13,0,0,1,13.55-12.43,27.37,27.37,0,0,1,8.61-1.44,32.74,32.74,0,0,1,6.11.56,28.47,28.47,0,0,1,5.32,1.54v9.43a26.18,26.18,0,0,0-4.56-1.49,22.74,22.74,0,0,0-5.21-.56,16.56,16.56,0,0,0-5.32.85,12,12,0,0,0-4.49,2.71,12.85,12.85,0,0,0-3.1,4.91,21,21,0,0,0-1.15,7.35,19.45,19.45,0,0,0,.88,5.88,13.36,13.36,0,0,0,2.56,4.71,12.53,12.53,0,0,0,4.3,3.15,14.68,14.68,0,0,0,6.18,1.2,23.9,23.9,0,0,0,5.76-.64,34.84,34.84,0,0,0,4.88-1.56Z" transform="translate(1 0.5)"/><path d="M1164.33,2214.39a25.71,25.71,0,0,1-11.82-2.42,16.93,16.93,0,0,1-7.08-6.52,17.66,17.66,0,0,1-1.88-4.83,26.43,26.43,0,0,1-.61-5.86v-28.91h11.58v27.69a21.5,21.5,0,0,0,.34,4.13,11,11,0,0,0,1,3,7.49,7.49,0,0,0,3.32,3.2,11.62,11.62,0,0,0,5.13,1.05,11.36,11.36,0,0,0,5.35-1.17,7.54,7.54,0,0,0,3.34-3.57,14.8,14.8,0,0,0,1.13-6.4v-27.93h11.57v28.91a21.45,21.45,0,0,1-2,9.72,16.12,16.12,0,0,1-2.91,4.07,16.8,16.8,0,0,1-4.2,3.13,22.07,22.07,0,0,1-5.47,2A30.24,30.24,0,0,1,1164.33,2214.39Z" transform="translate(1 0.5)"/><path d="M1218.87,2199.45a3.64,3.64,0,0,0-.85-2.49,6.81,6.81,0,0,0-2.27-1.64,20.44,20.44,0,0,0-3.25-1.15c-1.22-.32-2.5-.65-3.83-1a50.87,50.87,0,0,1-4.89-1.59,14.74,14.74,0,0,1-4.12-2.37,10.4,10.4,0,0,1-2.83-3.68,12.7,12.7,0,0,1-1-5.45,15.59,15.59,0,0,1,1.41-6.86,13.67,13.67,0,0,1,3.84-4.81,16.3,16.3,0,0,1,5.61-2.83,24.11,24.11,0,0,1,6.76-.93,44.83,44.83,0,0,1,8.16.71,42.6,42.6,0,0,1,6.88,1.83v9.43c-1.07-.36-2.2-.7-3.39-1s-2.39-.57-3.61-.8-2.44-.42-3.64-.56a27.82,27.82,0,0,0-3.42-.22,13.28,13.28,0,0,0-3.47.39,6.77,6.77,0,0,0-2.29,1.05,3.92,3.92,0,0,0-1.27,1.51,4.26,4.26,0,0,0-.39,1.78,4,4,0,0,0,.85,2.64,6.07,6.07,0,0,0,2.37,1.66,23.09,23.09,0,0,0,3.17,1l3.23.81c1.63.39,3.25.86,4.88,1.41a15.48,15.48,0,0,1,4.39,2.32,11.37,11.37,0,0,1,3.2,3.86,12.91,12.91,0,0,1,1.25,6,15.18,15.18,0,0,1-1.52,7,13.65,13.65,0,0,1-4.22,5,18.68,18.68,0,0,1-6.49,2.93,34.4,34.4,0,0,1-8.33.95,42.1,42.1,0,0,1-8.08-.71,26.61,26.61,0,0,1-5.93-1.78v-9.33a36.51,36.51,0,0,0,7,1.93,38.56,38.56,0,0,0,6,.51,24,24,0,0,0,4-.31,11.36,11.36,0,0,0,3.2-1,6,6,0,0,0,2.12-1.74A4.1,4.1,0,0,0,1218.87,2199.45Z" transform="translate(1 0.5)"/><path d="M1288.75,2208.14h-.2a22.05,22.05,0,0,1-5.47,4.13,18.3,18.3,0,0,1-3.91,1.53,17.52,17.52,0,0,1-4.63.59,18.51,18.51,0,0,1-6.3-1,13.87,13.87,0,0,1-8.33-7.81,15.84,15.84,0,0,1-1.19-6.28,16.13,16.13,0,0,1,1.39-6.83,14.6,14.6,0,0,1,3.88-5.13,17.06,17.06,0,0,1,6-3.2,25.31,25.31,0,0,1,7.66-1.1,38.26,38.26,0,0,1,5.67.39,39.16,39.16,0,0,1,4.54.93v-1.9a9.33,9.33,0,0,0-.56-3.2,7.25,7.25,0,0,0-1.81-2.74,8.93,8.93,0,0,0-3.25-1.9,14.75,14.75,0,0,0-4.88-.71,32.36,32.36,0,0,0-7,.78,56.85,56.85,0,0,0-7.62,2.35v-9a38.64,38.64,0,0,1,7.57-2.39,44.59,44.59,0,0,1,8.4-.88,29.4,29.4,0,0,1,9.06,1.27,19.14,19.14,0,0,1,6.49,3.49,14.19,14.19,0,0,1,3.91,5.25,16.66,16.66,0,0,1,1.29,6.59v17.83c0,3.12,0,5.81.1,8s.13,4.25.19,6h-10.45Zm-.93-15.14c-1.11-.26-2.38-.49-3.81-.71a29.9,29.9,0,0,0-4.35-.31,11.75,11.75,0,0,0-6.71,1.68,5.83,5.83,0,0,0-2.47,5.15,6.61,6.61,0,0,0,.56,2.81,5.58,5.58,0,0,0,1.52,2,6.37,6.37,0,0,0,2.22,1.17,9.11,9.11,0,0,0,2.69.39,11.63,11.63,0,0,0,3.32-.46,15.48,15.48,0,0,0,2.88-1.17,15.3,15.3,0,0,0,2.37-1.59,17.38,17.38,0,0,0,1.78-1.71Z" transform="translate(1 0.5)"/><path d="M1323,2172.45h.2a16.59,16.59,0,0,1,2.59-2.88,17.4,17.4,0,0,1,3.56-2.49,21,21,0,0,1,4.42-1.74,19.48,19.48,0,0,1,5.15-.66,21.27,21.27,0,0,1,5,.59,14.89,14.89,0,0,1,4.41,1.83,13.51,13.51,0,0,1,3.55,3.22,15.76,15.76,0,0,1,3.07,8c.11,1.19.17,2.56.17,4.13v30.71h-11.57v-28.91a30.51,30.51,0,0,0-.15-3.27,9.7,9.7,0,0,0-.53-2.39,6,6,0,0,0-2.67-3.22,8.84,8.84,0,0,0-4.32-1,14,14,0,0,0-6.47,1.59,16.58,16.58,0,0,0-5.49,4.61v32.57h-11.57v-47.32H1322Z" transform="translate(1 0.5)"/><path d="M1365.41,2190.46a33.24,33.24,0,0,1,1.7-11.06,24.06,24.06,0,0,1,4.67-8.15,19.15,19.15,0,0,1,6.76-4.93,19.88,19.88,0,0,1,7.91-1.64,19,19,0,0,1,3.61.34,19.88,19.88,0,0,1,3.23.93,23,23,0,0,1,2.83,1.32c.88.49,1.69,1,2.44,1.51h.1c0-.65-.06-1.57-.08-2.75s0-2.49,0-3.89v-19.67h11.57v56.64c0,3.12,0,5.81.1,8s.13,4.25.19,6H1400l-.49-5h-.2a18.11,18.11,0,0,1-2.46,2.39,16.72,16.72,0,0,1-3.18,2,17.28,17.28,0,0,1-3.81,1.34,19.42,19.42,0,0,1-4.51.49,20.37,20.37,0,0,1-7.4-1.37,17.89,17.89,0,0,1-6.35-4.22,20.59,20.59,0,0,1-4.49-7.47A31.79,31.79,0,0,1,1365.41,2190.46Zm22.8,14.7a11.92,11.92,0,0,0,3.25-.44,14.42,14.42,0,0,0,2.9-1.17,14.75,14.75,0,0,0,2.42-1.61,17.38,17.38,0,0,0,1.78-1.71v-22.46A19.58,19.58,0,0,0,1394,2175a13.4,13.4,0,0,0-5.37-1.1,11.09,11.09,0,0,0-3.79.73,9.48,9.48,0,0,0-3.61,2.49,13.84,13.84,0,0,0-2.73,4.89,24.11,24.11,0,0,0-1.1,8q0,7.13,2.76,11.13A9.29,9.29,0,0,0,1388.21,2205.16Z" transform="translate(1 0.5)"/><path d="M317.41,2307.88c-1.08,0-2.13,0-3.18-.05s-2-.1-2.93-.2v25.54h-12v-65.33h18.85a73.58,73.58,0,0,1,8.27.41,37.12,37.12,0,0,1,6.33,1.25,20.46,20.46,0,0,1,10.3,6.54,17.65,17.65,0,0,1,3.61,11.43,18.37,18.37,0,0,1-1.95,8.52,17.81,17.81,0,0,1-5.71,6.42,28.25,28.25,0,0,1-9.18,4.05A49.64,49.64,0,0,1,317.41,2307.88Zm-6.11-10.31c.69.1,1.56.17,2.62.22s2.15.08,3.29.08a35.05,35.05,0,0,0,8.11-.79,15.43,15.43,0,0,0,5.27-2.17,8,8,0,0,0,2.88-3.37,10.46,10.46,0,0,0,.88-4.32,9.16,9.16,0,0,0-1.32-5,8.57,8.57,0,0,0-4.59-3.27,19.09,19.09,0,0,0-4.22-.85,59.43,59.43,0,0,0-6.18-.27H311.3Z" transform="translate(1 0.5)"/><path d="M386.06,2295h-1a25.4,25.4,0,0,0-9.35,1.59,13,13,0,0,0-6.22,4.86v31.69H357.93v-47.32h9.57l1.08,6.6h.19a15,15,0,0,1,5.64-5.69,17,17,0,0,1,8.62-2.08,20.29,20.29,0,0,1,3,.2Z" transform="translate(1 0.5)"/><path d="M438,2309.54a29.57,29.57,0,0,1-1.66,10.15,22.13,22.13,0,0,1-4.76,7.86,21,21,0,0,1-7.49,5.06,26.06,26.06,0,0,1-9.82,1.78,26.61,26.61,0,0,1-10-1.78,20.72,20.72,0,0,1-7.5-5.06,22.17,22.17,0,0,1-4.71-7.86,32.07,32.07,0,0,1,0-20.31,22.29,22.29,0,0,1,4.77-7.86,21.07,21.07,0,0,1,7.49-5.06,26,26,0,0,1,9.81-1.78,26.67,26.67,0,0,1,10,1.78,20.94,20.94,0,0,1,7.5,5.06,22.17,22.17,0,0,1,4.71,7.86A30.12,30.12,0,0,1,438,2309.54Zm-12,0a22.63,22.63,0,0,0-.88-6.64,14.48,14.48,0,0,0-2.44-4.84,10,10,0,0,0-3.76-2.93,11.69,11.69,0,0,0-4.79-1,11.38,11.38,0,0,0-4.71,1,10,10,0,0,0-3.73,2.93,14.29,14.29,0,0,0-2.44,4.84,25.49,25.49,0,0,0,0,13.28,13.73,13.73,0,0,0,2.46,4.81,10.64,10.64,0,0,0,3.76,2.93,11.37,11.37,0,0,0,4.76,1,11.18,11.18,0,0,0,4.74-1,10.47,10.47,0,0,0,3.71-2.93,14.22,14.22,0,0,0,2.44-4.81A22.68,22.68,0,0,0,426.05,2309.54Z" transform="translate(1 0.5)"/><path d="M445.83,2310.46a33.24,33.24,0,0,1,1.7-11.06,24.06,24.06,0,0,1,4.67-8.15,19.15,19.15,0,0,1,6.76-4.93,19.88,19.88,0,0,1,7.91-1.64,19,19,0,0,1,3.61.34,19.88,19.88,0,0,1,3.23.93,23,23,0,0,1,2.83,1.32c.88.49,1.69,1,2.44,1.51h.1c0-.65-.06-1.57-.08-2.75s0-2.49,0-3.89v-19.67h11.57v56.64c0,3.12,0,5.81.1,8s.13,4.25.19,6H480.4l-.49-5h-.2a18.11,18.11,0,0,1-2.46,2.39,16.72,16.72,0,0,1-3.18,2,17.28,17.28,0,0,1-3.81,1.34,19.36,19.36,0,0,1-4.51.49,20.41,20.41,0,0,1-7.4-1.37,17.89,17.89,0,0,1-6.35-4.22,20.59,20.59,0,0,1-4.49-7.47A31.79,31.79,0,0,1,445.83,2310.46Zm22.8,14.7a11.92,11.92,0,0,0,3.25-.44,14.42,14.42,0,0,0,2.9-1.17,14.75,14.75,0,0,0,2.42-1.61,17.38,17.38,0,0,0,1.78-1.71v-22.46a19.58,19.58,0,0,0-4.59-2.76,13.4,13.4,0,0,0-5.37-1.1,11.09,11.09,0,0,0-3.79.73,9.48,9.48,0,0,0-3.61,2.49,13.84,13.84,0,0,0-2.73,4.89,24.11,24.11,0,0,0-1.1,8q0,7.13,2.76,11.13A9.29,9.29,0,0,0,468.63,2325.16Z" transform="translate(1 0.5)"/><path d="M524.93,2334.39a25.68,25.68,0,0,1-11.82-2.42,16.93,16.93,0,0,1-7.08-6.52,17.35,17.35,0,0,1-1.88-4.83,25.85,25.85,0,0,1-.61-5.86v-28.91h11.57v27.69a22.33,22.33,0,0,0,.34,4.13,10.68,10.68,0,0,0,1,3,7.44,7.44,0,0,0,3.32,3.2,11.56,11.56,0,0,0,5.13,1.05,11.32,11.32,0,0,0,5.34-1.17,7.55,7.55,0,0,0,3.35-3.57,14.81,14.81,0,0,0,1.12-6.4v-27.93h11.57v28.91a21.31,21.31,0,0,1-2,9.72,16.33,16.33,0,0,1-2.9,4.07,16.8,16.8,0,0,1-4.2,3.13,22.22,22.22,0,0,1-5.47,2A30.37,30.37,0,0,1,524.93,2334.39Z" transform="translate(1 0.5)"/><path d="M592.6,2332.14a28.94,28.94,0,0,1-5.37,1.59,32.72,32.72,0,0,1-6.69.66,30.27,30.27,0,0,1-9.57-1.47,21.42,21.42,0,0,1-7.76-4.44,20.51,20.51,0,0,1-5.23-7.54,27.59,27.59,0,0,1-1.9-10.67,28.34,28.34,0,0,1,2.2-11.72,22.06,22.06,0,0,1,13.55-12.43,27.37,27.37,0,0,1,8.61-1.44,32.82,32.82,0,0,1,6.11.56,28.47,28.47,0,0,1,5.32,1.54v9.43a26,26,0,0,0-4.57-1.49,22.59,22.59,0,0,0-5.2-.56,16.56,16.56,0,0,0-5.32.85,12,12,0,0,0-4.49,2.71,12.85,12.85,0,0,0-3.1,4.91A20.78,20.78,0,0,0,568,2310a19.14,19.14,0,0,0,.88,5.88,13.36,13.36,0,0,0,2.56,4.71,12.53,12.53,0,0,0,4.3,3.15,14.68,14.68,0,0,0,6.18,1.2,23.9,23.9,0,0,0,5.76-.64,34.84,34.84,0,0,0,4.88-1.56Z" transform="translate(1 0.5)"/><path d="M631.52,2333.12a29.44,29.44,0,0,1-4.66.93,40.28,40.28,0,0,1-5.06.34,21.37,21.37,0,0,1-9.74-1.93,11.07,11.07,0,0,1-5.35-5.54,18,18,0,0,1-1.12-7v-24.51h-8.84v-9.53h8.84v-13.23h11.57v13.23h13.67v9.53H617.16v23a7.82,7.82,0,0,0,.83,4.06q1.47,2.24,5.81,2.24a25.23,25.23,0,0,0,4-.31,35.06,35.06,0,0,0,3.74-.81Z" transform="translate(1 0.5)"/><path d="M640.55,2262.47h12.16V2275H640.55Zm.29,23.38h11.58v47.32H640.84Z" transform="translate(1 0.5)"/><path d="M707.69,2285.85l-18.31,47.32H677.91l-18.36-47.32h12.2l6.59,18.07q2.83,7.62,5.18,15.24h.2q2-6.6,5.07-14.95l6.6-18.36Z" transform="translate(1 0.5)"/><path d="M714.53,2262.47h12.15V2275H714.53Zm.29,23.38h11.57v47.32H714.82Z" transform="translate(1 0.5)"/><path d="M768.29,2333.12a29.58,29.58,0,0,1-4.67.93,40,40,0,0,1-5,.34,21.37,21.37,0,0,1-9.74-1.93,11,11,0,0,1-5.35-5.54,18,18,0,0,1-1.12-7v-24.51h-8.84v-9.53h8.84v-13.23h11.57v13.23H767.6v9.53H753.93v23a7.82,7.82,0,0,0,.83,4.06c1,1.49,2.91,2.24,5.81,2.24a25.23,25.23,0,0,0,4-.31,35.6,35.6,0,0,0,3.74-.81Z" transform="translate(1 0.5)"/><path d="M771.46,2285.85h12.4l7.08,17.14q4,9.77,5.67,14.46h.19q1.23-3.67,5.18-13.58l7.32-18h12.55l-30.47,70H780l10.84-25.34Z" transform="translate(1 0.5)"/><path d="M884.79,2298.21q7,10,11.43,17.77h.29q-.59-12.74-.59-18.55v-29.59h12v65.33H895.34l-21.29-30.08q-5.62-7.82-11.62-18.11h-.3q.58,12,.59,18.6v29.59h-12v-65.33h12.55Z" transform="translate(1 0.5)"/><path d="M967.16,2309.54a29.57,29.57,0,0,1-1.66,10.15,22.13,22.13,0,0,1-4.76,7.86,21,21,0,0,1-7.49,5.06,26.06,26.06,0,0,1-9.82,1.78,26.61,26.61,0,0,1-10-1.78,20.72,20.72,0,0,1-7.5-5.06,22.17,22.17,0,0,1-4.71-7.86,32.07,32.07,0,0,1,0-20.31,22.29,22.29,0,0,1,4.77-7.86,21.07,21.07,0,0,1,7.49-5.06,26,26,0,0,1,9.81-1.78,26.67,26.67,0,0,1,10,1.78,20.94,20.94,0,0,1,7.5,5.06,22.17,22.17,0,0,1,4.71,7.86A30.12,30.12,0,0,1,967.16,2309.54Zm-12,0a22.63,22.63,0,0,0-.88-6.64,14.29,14.29,0,0,0-2.44-4.84,10,10,0,0,0-3.76-2.93,11.65,11.65,0,0,0-4.79-1,11.38,11.38,0,0,0-4.71,1,10,10,0,0,0-3.73,2.93,14.29,14.29,0,0,0-2.44,4.84,25.49,25.49,0,0,0,0,13.28,13.73,13.73,0,0,0,2.46,4.81,10.64,10.64,0,0,0,3.76,2.93,11.37,11.37,0,0,0,4.76,1,11.18,11.18,0,0,0,4.74-1,10.47,10.47,0,0,0,3.71-2.93,14,14,0,0,0,2.44-4.81A22.68,22.68,0,0,0,955.2,2309.54Z" transform="translate(1 0.5)"/><path d="M1033.08,2315.64q2.14-7.71,5.32-16.55l11.28-31.25h16.8v65.33h-12v-33.11q0-7.28.58-16.89h-.44c-.55,1.85-1.2,3.94-2,6.25s-1.53,4.59-2.34,6.83l-13.53,36.92h-7.71l-13.53-36.92q-1.22-3.36-2.34-6.83c-.75-2.31-1.4-4.4-2-6.25h-.44q.58,9,.59,16.84v33.16h-12v-65.33h16.7l11.28,31.1q2.82,7.77,5.32,16.7Z" transform="translate(1 0.5)"/><path d="M1108.47,2328.14h-.19a23,23,0,0,1-2.35,2.1,22.13,22.13,0,0,1-3.12,2,18.51,18.51,0,0,1-3.91,1.53,17.6,17.6,0,0,1-4.64.59,18.59,18.59,0,0,1-6.3-1,13.81,13.81,0,0,1-8.32-7.81,15.84,15.84,0,0,1-1.2-6.28,16.28,16.28,0,0,1,1.39-6.83,14.63,14.63,0,0,1,3.89-5.13,17.1,17.1,0,0,1,6-3.2,25.38,25.38,0,0,1,7.67-1.1,38,38,0,0,1,5.66.39,38.72,38.72,0,0,1,4.54.93v-1.9a9.1,9.1,0,0,0-.56-3.2,7.11,7.11,0,0,0-1.8-2.74,9,9,0,0,0-3.25-1.9,14.79,14.79,0,0,0-4.88-.71,32.45,32.45,0,0,0-7,.78,56.74,56.74,0,0,0-7.61,2.35v-9a38.42,38.42,0,0,1,7.57-2.39,44.39,44.39,0,0,1,8.39-.88,29.4,29.4,0,0,1,9.06,1.27,19.19,19.19,0,0,1,6.5,3.49,14.05,14.05,0,0,1,3.9,5.25,16.66,16.66,0,0,1,1.3,6.59v17.83c0,3.12,0,5.81.09,8s.13,4.25.2,6H1109Zm-.93-15.14c-1.1-.26-2.37-.49-3.8-.71a30.1,30.1,0,0,0-4.35-.31,11.75,11.75,0,0,0-6.71,1.68,5.81,5.81,0,0,0-2.47,5.15,6.61,6.61,0,0,0,.56,2.81,5.58,5.58,0,0,0,1.52,2,6.37,6.37,0,0,0,2.22,1.17,9,9,0,0,0,2.68.39,11.58,11.58,0,0,0,3.32-.46,15.48,15.48,0,0,0,2.88-1.17,14.84,14.84,0,0,0,2.37-1.59,16.41,16.41,0,0,0,1.78-1.71Z" transform="translate(1 0.5)"/><path d="M1161,2333.12a29.44,29.44,0,0,1-4.66.93,40.16,40.16,0,0,1-5.06.34,21.4,21.4,0,0,1-9.74-1.93,11,11,0,0,1-5.34-5.54,18,18,0,0,1-1.13-7v-24.51h-8.83v-9.53h8.83v-13.23h11.58v13.23h13.67v9.53h-13.67v23a7.72,7.72,0,0,0,.83,4.06q1.46,2.24,5.81,2.24a25.32,25.32,0,0,0,4-.31,35.4,35.4,0,0,0,3.73-.81Z" transform="translate(1 0.5)"/><path d="M1199,2333.12a29.44,29.44,0,0,1-4.66.93,40.16,40.16,0,0,1-5.06.34,21.37,21.37,0,0,1-9.74-1.93,11,11,0,0,1-5.34-5.54,18,18,0,0,1-1.13-7v-24.51h-8.84v-9.53H1173v-13.23h11.57v13.23h13.68v9.53h-13.68v23a7.82,7.82,0,0,0,.83,4.06q1.47,2.24,5.82,2.24a25.1,25.1,0,0,0,4-.31,35.06,35.06,0,0,0,3.74-.81Z" transform="translate(1 0.5)"/><path d="M1232.35,2325.06a38,38,0,0,0,7-.68,56.15,56.15,0,0,0,7.42-2v9.23a35.11,35.11,0,0,1-6.88,1.85,51.3,51.3,0,0,1-9.62.88,34.64,34.64,0,0,1-9.55-1.29,20.82,20.82,0,0,1-7.88-4.18,20.07,20.07,0,0,1-5.35-7.47,28,28,0,0,1-2-11.13,31.3,31.3,0,0,1,1.86-11.28,22.83,22.83,0,0,1,5-8,20.61,20.61,0,0,1,7.15-4.76,22.5,22.5,0,0,1,8.33-1.59,24.2,24.2,0,0,1,8.27,1.37,16.52,16.52,0,0,1,6.55,4.3,20.05,20.05,0,0,1,4.29,7.54,34.47,34.47,0,0,1,1.54,10.91c0,1.63-.08,3-.15,4.15h-31a14.13,14.13,0,0,0,1.46,5.59,10.79,10.79,0,0,0,3.2,3.76,13,13,0,0,0,4.62,2.1A23.42,23.42,0,0,0,1232.35,2325.06Zm-4.64-31.34a9,9,0,0,0-3.91.8,9.16,9.16,0,0,0-3,2.2,10.77,10.77,0,0,0-2,3.25,15.34,15.34,0,0,0-1,4h18.6a13.66,13.66,0,0,0-.56-4,9.89,9.89,0,0,0-1.66-3.25,8,8,0,0,0-2.74-2.2A8.54,8.54,0,0,0,1227.71,2293.72Z" transform="translate(1 0.5)"/><path d="M1287.38,2295h-1a25.37,25.37,0,0,0-9.35,1.59,13,13,0,0,0-6.22,4.86v31.69h-11.58v-47.32h9.57l1.08,6.6h.19a15,15,0,0,1,5.64-5.69,17,17,0,0,1,8.62-2.08,20.29,20.29,0,0,1,3,.2Z" transform="translate(1 0.5)"/><path d="M414.53,2414.74H444.8v-26.9h12v65.33h-12v-28.42H414.53v28.42h-12v-65.33h12Z" transform="translate(1 0.5)"/><path d="M516,2429.54a29.57,29.57,0,0,1-1.66,10.15,22.27,22.27,0,0,1-4.76,7.86,21.07,21.07,0,0,1-7.5,5.06,26,26,0,0,1-9.81,1.78,26.7,26.7,0,0,1-10-1.78,20.77,20.77,0,0,1-7.49-5.06,22.17,22.17,0,0,1-4.71-7.86,32.07,32.07,0,0,1,0-20.31,22.27,22.27,0,0,1,4.76-7.86,21.2,21.2,0,0,1,7.5-5.06,26,26,0,0,1,9.81-1.78,26.7,26.7,0,0,1,10,1.78,20.9,20.9,0,0,1,7.49,5.06,22.17,22.17,0,0,1,4.71,7.86A29.87,29.87,0,0,1,516,2429.54Zm-12,0a23,23,0,0,0-.88-6.64,14.48,14.48,0,0,0-2.44-4.84,10,10,0,0,0-3.76-2.93,11.69,11.69,0,0,0-4.79-1,11.38,11.38,0,0,0-4.71,1,10.06,10.06,0,0,0-3.74,2.93,14.48,14.48,0,0,0-2.44,4.84,25.49,25.49,0,0,0,0,13.28,13.91,13.91,0,0,0,2.47,4.81,10.64,10.64,0,0,0,3.76,2.93,11.34,11.34,0,0,0,4.76,1,11.21,11.21,0,0,0,4.74-1,10.56,10.56,0,0,0,3.71-2.93,14.22,14.22,0,0,0,2.44-4.81A23,23,0,0,0,504.08,2429.54Z" transform="translate(1 0.5)"/><path d="M557.3,2418.7q-1.37,7.08-3.22,13.72l-5.72,20.75H537l-16.56-47.32h12.21l6.11,19.83q2.09,6.89,3.71,13.33h.19q1.36-6.26,3.27-13.33l5.42-19.83h12.21l5.32,19.83q1.71,6.3,3.27,13.33h.2q1.67-6.6,3.71-13.33l6.1-19.83h12.21l-16.55,47.32H566.43l-5.71-20.75q-2-7-3.22-13.72Z" transform="translate(1 0.5)"/><path d="M670.58,2405.22a16.18,16.18,0,0,1-1.9,7.79,14.69,14.69,0,0,1-6.3,5.88v.2a20.46,20.46,0,0,1,4.47,2.12,14.23,14.23,0,0,1,3.46,3.08,13.81,13.81,0,0,1,2.25,4,14.69,14.69,0,0,1,.8,5,19.41,19.41,0,0,1-.75,5.13,16.21,16.21,0,0,1-2.66,5.3,20.71,20.71,0,0,1-5.08,4.71,26.26,26.26,0,0,1-8,3.42c-.81.19-1.7.37-2.66.54s-2,.3-3.2.41-2.47.2-3.91.25-3,.07-4.83.07h-19v-65.33H646a38.62,38.62,0,0,1,11.72,1.46,21.16,21.16,0,0,1,5.76,2.81,17.93,17.93,0,0,1,4,3.86,15,15,0,0,1,2.34,4.49A15.42,15.42,0,0,1,670.58,2405.22ZM646,2414.74a20.2,20.2,0,0,0,7.28-1,7.58,7.58,0,0,0,3.83-3.1,8.74,8.74,0,0,0,1.15-4.46,8.27,8.27,0,0,0-1.32-4.62,7.86,7.86,0,0,0-4.49-3,16.35,16.35,0,0,0-3.08-.56c-1.17-.12-2.62-.17-4.35-.17h-9.81v16.89Zm-10.79,10v18.41H643c2.09,0,3.88-.06,5.37-.17a24,24,0,0,0,3.86-.56,15.79,15.79,0,0,0,4.15-1.44,10.24,10.24,0,0,0,2.69-2,7,7,0,0,0,1.46-2.54,9.91,9.91,0,0,0,.44-3,7.81,7.81,0,0,0-1.51-4.78,9.05,9.05,0,0,0-4.74-3.08,17.37,17.37,0,0,0-3.32-.63c-1.27-.13-2.9-.2-4.88-.2Z" transform="translate(1 0.5)"/><path d="M705,2454.39a25.64,25.64,0,0,1-11.81-2.42,16.81,16.81,0,0,1-7.08-6.52,17.35,17.35,0,0,1-1.88-4.83,25.85,25.85,0,0,1-.61-5.86v-28.91h11.57v27.69a21.5,21.5,0,0,0,.34,4.13,10.68,10.68,0,0,0,1,3,7.44,7.44,0,0,0,3.32,3.2,11.55,11.55,0,0,0,5.12,1.05,11.33,11.33,0,0,0,5.35-1.17,7.55,7.55,0,0,0,3.35-3.57,14.81,14.81,0,0,0,1.12-6.4v-27.93h11.57v28.91a21.45,21.45,0,0,1-2,9.72,16.12,16.12,0,0,1-2.91,4.07,16.56,16.56,0,0,1-4.19,3.13,22.37,22.37,0,0,1-5.47,2A30.4,30.4,0,0,1,705,2454.39Z" transform="translate(1 0.5)"/><path d="M759.55,2439.45a3.64,3.64,0,0,0-.86-2.49,6.71,6.71,0,0,0-2.27-1.64,20.09,20.09,0,0,0-3.25-1.15c-1.22-.32-2.49-.65-3.83-1a50.67,50.67,0,0,1-4.88-1.59,14.8,14.8,0,0,1-4.13-2.37,10.4,10.4,0,0,1-2.83-3.68,12.7,12.7,0,0,1-1-5.45,15.45,15.45,0,0,1,1.42-6.86,13.65,13.65,0,0,1,3.83-4.81,16.3,16.3,0,0,1,5.61-2.83,24.18,24.18,0,0,1,6.77-.93,44.8,44.8,0,0,1,8.15.71,42.73,42.73,0,0,1,6.89,1.83v9.43c-1.08-.36-2.21-.7-3.4-1s-2.39-.57-3.61-.8-2.43-.42-3.64-.56a27.58,27.58,0,0,0-3.42-.22,13.2,13.2,0,0,0-3.46.39,6.82,6.82,0,0,0-2.3,1.05A4,4,0,0,0,748,2417a4.26,4.26,0,0,0-.39,1.78,4,4,0,0,0,.86,2.64,6.1,6.1,0,0,0,2.36,1.66,22.78,22.78,0,0,0,3.18,1l3.22.81q2.44.59,4.88,1.41a15.53,15.53,0,0,1,4.4,2.32,11.48,11.48,0,0,1,3.2,3.86,12.91,12.91,0,0,1,1.24,6,15.18,15.18,0,0,1-1.51,7,13.77,13.77,0,0,1-4.23,5,18.59,18.59,0,0,1-6.49,2.93,34.32,34.32,0,0,1-8.32.95,42.21,42.21,0,0,1-8.09-.71,26.61,26.61,0,0,1-5.93-1.78v-9.33a36.51,36.51,0,0,0,7,1.93,38.59,38.59,0,0,0,6,.51,23.88,23.88,0,0,0,4-.31,11.26,11.26,0,0,0,3.2-1,6,6,0,0,0,2.12-1.74A4,4,0,0,0,759.55,2439.45Z" transform="translate(1 0.5)"/><path d="M775.12,2405.85h12.4L794.6,2423q4,9.77,5.67,14.46h.19q1.23-3.67,5.18-13.58l7.32-18h12.55l-30.47,70H783.62l10.84-25.34Z" transform="translate(1 0.5)"/><path d="M847.09,2405.85H859.5l7.08,17.14q4,9.77,5.66,14.46h.2q1.21-3.67,5.17-13.58l7.33-18h12.55l-30.47,70H855.59l10.84-25.34Z" transform="translate(1 0.5)"/><path d="M949.44,2429.54a29.81,29.81,0,0,1-1.66,10.15,22.42,22.42,0,0,1-4.76,7.86,21.07,21.07,0,0,1-7.5,5.06,26,26,0,0,1-9.81,1.78,26.7,26.7,0,0,1-10-1.78,20.77,20.77,0,0,1-7.49-5.06,22.17,22.17,0,0,1-4.71-7.86,32.07,32.07,0,0,1,0-20.31,22.27,22.27,0,0,1,4.76-7.86,21.2,21.2,0,0,1,7.5-5.06,26,26,0,0,1,9.81-1.78,26.7,26.7,0,0,1,10,1.78,20.9,20.9,0,0,1,7.49,5.06,22.17,22.17,0,0,1,4.71,7.86A30.12,30.12,0,0,1,949.44,2429.54Zm-12,0a23,23,0,0,0-.88-6.64,14.48,14.48,0,0,0-2.44-4.84,10,10,0,0,0-3.76-2.93,11.69,11.69,0,0,0-4.79-1,11.38,11.38,0,0,0-4.71,1,10.06,10.06,0,0,0-3.74,2.93,14.48,14.48,0,0,0-2.44,4.84,25.49,25.49,0,0,0,0,13.28,13.91,13.91,0,0,0,2.47,4.81,10.64,10.64,0,0,0,3.76,2.93,11.34,11.34,0,0,0,4.76,1,11.17,11.17,0,0,0,4.73-1,10.51,10.51,0,0,0,3.72-2.93,14.22,14.22,0,0,0,2.44-4.81A23,23,0,0,0,937.48,2429.54Z" transform="translate(1 0.5)"/><path d="M980.59,2454.39a25.71,25.71,0,0,1-11.82-2.42,16.93,16.93,0,0,1-7.08-6.52,17.66,17.66,0,0,1-1.88-4.83,26.43,26.43,0,0,1-.61-5.86v-28.91h11.58v27.69a21.5,21.5,0,0,0,.34,4.13,11,11,0,0,0,1,3,7.44,7.44,0,0,0,3.32,3.2,11.62,11.62,0,0,0,5.13,1.05,11.36,11.36,0,0,0,5.35-1.17,7.54,7.54,0,0,0,3.34-3.57,14.8,14.8,0,0,0,1.13-6.4v-27.93H1002v28.91a21.45,21.45,0,0,1-2,9.72,16.12,16.12,0,0,1-2.91,4.07,16.8,16.8,0,0,1-4.2,3.13,22.07,22.07,0,0,1-5.47,2A30.24,30.24,0,0,1,980.59,2454.39Z" transform="translate(1 0.5)"/><path d="M1069.26,2436.52h-24.6l-6.4,16.65h-12.75l25.93-65.33h10.94l25.93,65.33h-12.65Zm-12.4-33q-3.42,10.24-6.11,17.13l-2.24,5.82h16.89l-2.23-5.82q-2.65-6.95-6.11-17.13Z" transform="translate(1 0.5)"/><path d="M1124.24,2415h-1a25.33,25.33,0,0,0-9.35,1.59,13,13,0,0,0-6.23,4.86v31.69h-11.57v-47.32h9.57l1.07,6.6h.2a15,15,0,0,1,5.64-5.69,17,17,0,0,1,8.62-2.08,20.05,20.05,0,0,1,3,.2Z" transform="translate(1 0.5)"/><path d="M1155.44,2445.06a38.07,38.07,0,0,0,7-.68,56.15,56.15,0,0,0,7.42-2v9.23a35,35,0,0,1-6.89,1.85,51.22,51.22,0,0,1-9.62.88,34.57,34.57,0,0,1-9.54-1.29,20.94,20.94,0,0,1-7.89-4.18,20,20,0,0,1-5.34-7.47,28,28,0,0,1-2-11.13,31.53,31.53,0,0,1,1.85-11.28,23.12,23.12,0,0,1,5-8,20.65,20.65,0,0,1,7.16-4.76,22.45,22.45,0,0,1,8.32-1.59,24.22,24.22,0,0,1,8.28,1.37,16.56,16.56,0,0,1,6.54,4.3,20.07,20.07,0,0,1,4.3,7.54,34.76,34.76,0,0,1,1.54,10.91c0,1.63-.08,3-.15,4.15h-31a14.3,14.3,0,0,0,1.47,5.59,10.68,10.68,0,0,0,3.2,3.76,13,13,0,0,0,4.61,2.1A23.48,23.48,0,0,0,1155.44,2445.06Zm-4.63-31.34a9,9,0,0,0-3.91.8,9.16,9.16,0,0,0-3,2.2,10.77,10.77,0,0,0-2,3.25,15.35,15.35,0,0,0-1,4h18.6a13.33,13.33,0,0,0-.56-4,9.52,9.52,0,0,0-1.66-3.25,7.84,7.84,0,0,0-2.73-2.2A8.54,8.54,0,0,0,1150.81,2413.72Z" transform="translate(1 0.5)"/><path d="M1184.06,2440.13h13.13v13h-13.13Zm13-52.29-1.17,41.89h-10.59l-1.17-41.89Z" transform="translate(1 0.5)"/><rect x="85.5" width="37.5" height="2559" fill="#3358b5"/></svg>