<?xml version="1.0" encoding="UTF-8" standalone="no"?><!DOCTYPE svg PUBLIC "-//W3C//DTD SVG 1.1//EN" "http://www.w3.org/Graphics/SVG/1.1/DTD/svg11.dtd"><svg width="100%" height="100%" viewBox="0 0 800 1280" version="1.1" xmlns="http://www.w3.org/2000/svg" xmlns:xlink="http://www.w3.org/1999/xlink" xml:space="preserve" xmlns:serif="http://www.serif.com/" style="fill-rule:evenodd;clip-rule:evenodd;stroke-linejoin:round;stroke-miterlimit:1.41421;"><rect x="0" y="0" width="800" height="1280" style="fill:#344f8a;"/><clipPath id="_clip1"><rect id="dizziness" x="58.667" y="597.333" width="682.667" height="682.667"/></clipPath><g clip-path="url(#_clip1)"><g><path d="M508.6,1148.76l-73.387,-43.48l-161.227,-0.384l-27.949,8.464l-23.119,93.327l63.321,73.316l136.671,0l85.69,-131.243Z" style="fill:#faf8f8;fill-rule:nonzero;"/><path d="M96.944,1212.99l15.354,52.542l153.644,14.467l22.909,0l-4.939,-9.432c-27.51,-52.462 -35.25,-124.478 -37.307,-153.003c-0.108,-1.421 -0.284,-2.828 -0.568,-4.208l-83.261,25.223c-34.236,10.379 -59.702,39.161 -65.832,74.411Z" style="fill:#f0e9e6;fill-rule:nonzero;"/><path d="M80.554,1280c-8.423,0 -14.799,-7.613 -13.322,-15.905l9.697,-54.433c7.497,-43.166 38.227,-77.821 80.176,-90.446l48.389,-14.549c9.95,-2.992 20.125,3.993 20.869,14.355c2.487,34.579 10.96,106.411 39.576,160.978l-185.385,0Z" style="fill:#bae6ef;fill-rule:nonzero;"/><path d="M539.572,922.322l8.735,2.405c20.896,5.752 33.154,27.414 27.382,48.381c-7.962,28.92 -37.781,45.932 -66.602,37.997l-301.37,-82.972c-28.821,-7.935 -45.73,-37.812 -37.768,-66.733c5.773,-20.968 27.391,-33.302 48.287,-27.548l8.734,2.404l312.602,86.066Z" style="fill:#f2bb88;fill-rule:nonzero;"/><path d="M441.498,1118.01l-12.035,-12.73l-2.996,-78.822l-0.002,0l0,-0.003l-1.202,0.026l-142.53,2.737c0,0 2.888,39.384 2.891,39.387l-10.356,25.2l-1.555,13.439c-1.654,14.185 2.219,28.561 11.179,39.683c11.368,14.109 32.215,28.882 69.681,28.882c37.463,0 58.31,-14.769 69.678,-28.877c4.64,-5.758 7.915,-12.389 9.766,-19.415c0.001,-0.008 0.001,-0.016 0.004,-0.023l7.477,-9.484Z" style="fill:#f2d1a5;fill-rule:nonzero;"/><path d="M435.214,1105.28l-8.741,-78.822l-0.014,0l-1.191,0.027l-142.529,2.733l-4.709,40.677l-2.761,23.91c13.518,10.257 27.916,17.564 42.963,21.705c10.109,2.774 20.866,4.195 32.003,4.195c16.689,0 34.476,-3.244 52.817,-9.476c4.054,-1.378 8.348,1.293 8.82,5.549l0.012,0.111c0.282,2.54 1.992,4.694 4.402,5.545l17.696,6.243l0.04,-0.163c0,0 0,-0.013 0,-0.027l7.47,-9.472l-6.278,-12.735Z" style="fill:#f2bb88;fill-rule:nonzero;"/><path d="M539.572,922.322c-18.286,66.42 -25.575,87.884 -62.93,117.988c-51.525,41.523 -107.632,63.913 -151.94,51.714c-44.307,-12.199 -81.048,-60.151 -104.059,-122.194c-13.936,-37.575 -12.934,-59.233 -1.568,-104.059c2.24,-8.838 12.129,-20.715 15.14,-31.653l18.931,-154.61l330.463,140.433l-44.037,102.381Z" style="fill:#f2d1a5;fill-rule:nonzero;"/><g><path d="M261.866,683.219l-10.399,6.317c3.388,-2.365 6.855,-4.456 10.399,-6.317Z" style="fill:#f2bb88;fill-rule:nonzero;"/><path d="M583.61,819.941l-43.647,101.487c-1.879,-17.794 -9.52,-36.026 -21.759,-49.893c-40.324,-45.671 -104.069,-16.216 -163.884,-108.349c-0.013,-0.004 -0.023,-0.02 -0.019,-0.033c-0.877,-1.351 -1.747,-2.727 -2.626,-4.121c-2.581,-4.135 -8.529,-4.299 -11.315,-0.293c-2.489,3.581 -5.013,7.04 -7.609,10.354c-13.513,17.221 -28.769,30.368 -49.666,36.024c-25.071,6.796 -56.535,49.965 -64.01,60.651c2.251,-8.84 4.891,-18.583 7.901,-29.516l24.492,-146.717l10.399,-6.317l321.743,136.723Z" style="fill:#f2bb88;fill-rule:nonzero;"/><path d="M261.866,683.219l-10.399,6.317c3.388,-2.365 6.855,-4.456 10.399,-6.317Z" style="fill:#f2bb88;fill-rule:nonzero;"/></g><path d="M347.709,716.054c-4.397,6.767 -9.414,23.483 -14.072,29.423c-13.505,17.22 -28.773,30.372 -49.664,36.029c-28.654,7.757 -57,54.753 -57,54.753c-32.219,-8.87 -33.318,-60.955 -24.223,-93.987c21.21,-77.036 79.044,-103.582 127.685,-89.791c5.945,1.686 11.847,4.131 17.55,7.672c3.113,1.934 5.921,7.287 8.889,9.928c3.707,-2.251 7.732,-7.408 11.569,-9.289c35.041,-17.172 75.179,-19.031 114.239,-8.045c16.157,4.544 28.8,13.077 44.152,21.843c110.306,62.982 85.538,235.873 13.829,241.436c0,0 0.804,-7.694 0.575,-13.073c-0.825,-19.375 -8.716,-39.82 -22.146,-55.034c-40.323,-45.676 -104.063,-16.212 -163.881,-108.345c-2.703,-4.156 -4.823,-18.853 -7.502,-23.52Z" style="fill:#7a6d79;fill-rule:nonzero;"/><path d="M539.578,922.318c0,0 0.323,-1.582 0.674,-3.618c0.891,-5.074 1.214,-10.375 0.967,-15.748c49.452,-42.485 57.463,-183.326 -37.154,-237.347c-11.521,-6.582 -23.402,-12.015 -35.445,-16.242c20.924,4.189 41.743,12.124 61.537,23.426c110.309,62.988 81.13,243.966 9.421,249.529Z" style="fill:#685e68;fill-rule:nonzero;"/><path d="M355.209,739.571c-1.969,-3.027 -3.931,-6.186 -5.885,-9.482c-1.011,-1.705 -3.467,-1.768 -4.565,-0.12c-3.627,5.438 -7.305,10.634 -11.121,15.51l14.339,-85.316c2.382,1.47 4.729,3.136 7.025,5.018c1.306,1.071 3.142,1.176 4.602,0.329c2.907,-1.686 5.858,-3.261 8.842,-4.709l-13.237,78.77Z" style="fill:#685e68;fill-rule:nonzero;"/><g><path d="M371.782,977.057c-12.383,0 -24.682,-3.816 -34.878,-10.862c-4.612,-3.185 -5.766,-9.507 -2.58,-14.119c3.186,-4.61 9.508,-5.766 14.119,-2.579c7.257,5.015 16.109,7.576 24.923,7.231c5.591,-0.212 10.321,4.135 10.545,9.736c0.224,5.601 -4.136,10.322 -9.736,10.546c-0.798,0.031 -1.596,0.047 -2.393,0.047Z" style="fill:#f2bb88;fill-rule:nonzero;"/><g><path d="M447.161,951.754c-2.362,0 -4.733,-0.819 -6.654,-2.49l-29.094,-25.299c-4.228,-3.678 -4.676,-10.089 -0.998,-14.318c3.678,-4.23 10.089,-4.676 14.318,-0.998l29.093,25.298c4.229,3.678 4.676,10.09 0.999,14.318c-2.007,2.308 -4.829,3.489 -7.664,3.489Z" style="fill:#f2bb88;fill-rule:nonzero;"/><path d="M292.892,906.994c-4.931,0 -9.257,-3.6 -10.021,-8.624c-0.843,-5.541 2.965,-10.717 8.508,-11.559l38.115,-5.798c5.545,-0.842 10.717,2.966 11.558,8.507c0.843,5.541 -2.964,10.717 -8.507,11.559l-38.115,5.798c-0.517,0.079 -1.031,0.117 -1.538,0.117Z" style="fill:#f2bb88;fill-rule:nonzero;"/></g><path d="M364.178,1040.05c-3.836,0 -7.507,-2.185 -9.22,-5.897c-1.523,-3.297 -6.245,-8.002 -14.548,-10.412c-8.301,-2.408 -14.812,-0.962 -17.864,1.007c-4.707,3.042 -10.991,1.689 -14.031,-3.019c-3.04,-4.709 -1.688,-10.992 3.019,-14.031c9.011,-5.818 21.92,-7.107 34.532,-3.449c12.611,3.66 22.825,11.659 27.32,21.398c2.35,5.089 0.129,11.119 -4.96,13.468c-1.378,0.633 -2.824,0.935 -4.248,0.935Z" style="fill:#f2bb88;fill-rule:nonzero;"/></g><path d="M732.98,783.399c-0.027,6.887 -3.085,13.41 -9.093,19.35c-16.915,16.739 -61.773,30.595 -123.328,39.716c-24.006,3.545 -50.555,6.387 -78.985,8.389c-31.976,2.26 -66.333,3.465 -102.111,3.465c-3.301,0 -6.617,-0.014 -9.945,-0.041c-84.317,-0.514 -163.572,-7.456 -223.193,-19.513c-67.131,-13.572 -99.729,-31.245 -99.648,-54.018c0.095,-23.87 39.121,-42.828 115.981,-56.32c0.162,-0.027 1.583,-0.257 6.414,-1.041c-2.368,5.926 -4.479,12.219 -6.319,18.89c-0.258,0.947 -0.515,1.908 -0.758,2.882c-78.687,14.317 -94.993,31.718 -95.02,35.67c0,4.79 14.953,20.203 83.369,34.046c4.926,1.001 10,1.962 15.196,2.882c9.797,1.745 20.054,3.356 30.717,4.844c50.704,7.023 110.568,10.988 173.382,11.38c3.397,0.027 6.793,0.041 10.149,0.041c28.281,0 54.993,-0.744 79.905,-2.097c39.107,-2.111 73.802,-5.711 103.288,-10.285c56.887,-8.809 94.37,-21.19 106.63,-33.315c1.948,-1.935 3.058,-3.761 3.072,-5.006c0.027,-6.509 -22.017,-26.306 -122.233,-40.596c-3.071,-7.55 -6.752,-14.898 -11.041,-21.935c7.767,1.002 9.485,1.218 9.58,1.232c42.841,5.913 76.833,13.477 101.001,22.462c28.985,10.772 43.058,23.505 42.99,38.918Z" style="fill:#f0e9e6;fill-rule:nonzero;"/><path d="M683.495,953.926c-5.4,8.592 -15.684,12.895 -31.015,12.895c-19.283,0 -46.549,-6.792 -82.178,-20.405c-56.901,-21.732 -127.523,-58.39 -198.876,-103.193c-31.84,-20 -62.165,-40.569 -89.919,-60.947c-26.996,-19.811 -51.556,-39.432 -72.733,-58.133c-5.832,-5.155 -11.393,-10.23 -16.684,-15.223c-49.811,-47.023 -68.106,-79.296 -55.927,-98.7c8.214,-13.072 27.402,-16.157 58.646,-9.446c25.738,5.535 59.973,17.876 98.999,35.697c0.203,0.081 8.66,3.843 18.01,7.984c8.133,3.599 13.613,6.035 17.321,7.672c-15.913,-4.262 -32.76,-4.235 -48.958,0.447c-93.193,-41.854 -123.545,-36.779 -126.819,-31.556c-2.571,4.087 1.881,25.21 52.665,73.139c3.776,3.572 7.7,7.172 11.773,10.825c24.208,21.759 53.342,44.899 85.764,68.241c24.56,17.672 51.015,35.453 78.66,52.814c55.588,34.899 110.608,64.736 158.754,86.197c4.696,2.111 9.31,4.114 13.857,6.049c7.794,3.302 15.372,6.36 22.72,9.175c65.223,24.925 86.183,19.77 88.754,15.669c2.856,-4.546 -3.761,-30.365 -68.579,-87.645c1.949,-7.483 3.41,-15.358 4.344,-23.477c3.816,3.518 6.306,5.805 6.753,6.211c27.97,24.519 48.836,46.238 62.043,64.573c16.089,22.328 20.216,39.053 12.625,51.137Z" style="fill:#f0e9e6;fill-rule:nonzero;"/><path d="M425.237,1270.57c20.7,-39.473 30.2,-89.996 34.514,-124.751c0.731,-5.887 -2.901,-11.432 -8.58,-13.141l-17.165,-5.165c1.732,-6.55 2.219,-13.437 1.421,-20.284l-0.217,-1.949l27.849,8.376l83.139,25.007c34.33,10.325 18.925,114.434 18.925,114.434l-121.915,26.905l-22.91,0l4.939,-9.432Z" style="fill:#f0e9e6;fill-rule:nonzero;"/><path d="M622.971,1274.87c8.424,0 14.8,-7.613 13.322,-15.905l-15.546,-49.06c-7.497,-43.166 -32.333,-69.772 -74.282,-82.397l-40.768,-10.54c-9.95,-2.992 -12.383,-7.598 -13.128,2.765c-0.19,2.638 -10.201,4.782 -10.466,7.83c-3.218,36.899 -12.465,102.031 -38.897,152.435l171.975,0l7.79,-5.128Z" style="fill:#bae6ef;fill-rule:nonzero;"/><path d="M482.098,1127.57l44.235,13.302c41.948,12.625 72.679,47.28 80.176,90.446l8.673,48.687l13.41,0c8.431,0 14.804,-7.618 13.329,-15.9l-9.702,-54.438c-7.497,-43.166 -38.227,-77.821 -80.176,-90.446l-48.389,-14.547c-9.946,-2.99 -20.122,3.992 -20.866,14.357c-0.19,2.639 -0.42,5.494 -0.69,8.539Z" style="fill:#94d8e6;fill-rule:nonzero;"/></g></g><g><path d="M122.09,147.303l10.076,0l8.139,44.913l9.404,-44.913l8.614,0l9.316,44.913l8.537,-44.913l8.404,0l-12.629,60.118l-8.97,0l-9.492,-44.034l-9.317,44.034l-9.146,0l-12.936,-60.118Z" style="fill:#fff;fill-rule:nonzero;"/><path d="M190.117,147.303l9.141,0l0,21.49c2.084,-4.629 5.621,-6.944 10.612,-6.944c2.554,0 4.704,0.586 6.451,1.758c1.747,1.172 2.965,2.732 3.655,4.68c0.69,1.949 1.035,5.633 1.035,11.053l0,27.949l-9.141,0l0,-27.917c0,-4.624 -0.529,-7.469 -1.587,-8.538c-1.059,-1.068 -2.367,-1.602 -3.925,-1.602c-4.734,0 -7.1,4.229 -7.1,12.686l0,25.371l-9.141,0l0,-59.986Z" style="fill:#fff;fill-rule:nonzero;"/><path d="M239.775,175.472l-8.833,-1.098c0.585,-3.955 2.407,-7.031 5.464,-9.229c3.057,-2.197 6.809,-3.296 11.256,-3.296c3.979,0 7.161,0.799 9.545,2.395c2.385,1.597 3.884,3.494 4.498,5.691c0.615,2.198 0.922,5.523 0.922,9.976l0,15.117c0,6.123 0.264,10.21 0.791,12.261l-8.657,0c-0.381,-1.611 -0.572,-4.072 -0.572,-7.383c-2.778,5.654 -6.931,8.481 -12.458,8.481c-3.743,0 -6.748,-1.149 -9.015,-3.449c-2.266,-2.3 -3.4,-5.427 -3.4,-9.383c0,-4.834 1.66,-8.657 4.979,-11.469c3.32,-2.813 9.073,-4.219 17.261,-4.219c0.409,0 1.053,0.015 1.93,0.044l0,-1.802c0,-3.164 -0.474,-5.552 -1.423,-7.163c-0.95,-1.611 -2.651,-2.417 -5.104,-2.417c-4.001,0 -6.395,2.315 -7.184,6.943Zm13.711,10.196c-1.168,-0.117 -2.059,-0.176 -2.672,-0.176c-7.945,0 -11.918,3.12 -11.918,9.36c0,4.541 1.972,6.812 5.915,6.812c2.308,0 4.331,-1.231 6.068,-3.692c1.738,-2.46 2.607,-5.844 2.607,-10.151l0,-2.153Z" style="fill:#fff;fill-rule:nonzero;"/><path d="M274.536,151.346l8.262,-0.791l0,12.349l8.481,0l0,7.383l-8.481,0l0,19.571c0,3.452 0.088,5.742 0.264,6.868c0.175,1.126 0.703,2.048 1.582,2.764c0.878,0.717 2.343,1.075 4.394,1.075c1.084,0 2.315,-0.102 3.691,-0.307l0,7.334c-2.46,0.53 -4.746,0.795 -6.855,0.795c-3.428,0 -6.05,-0.666 -7.866,-1.999c-1.817,-1.333 -2.974,-3.142 -3.472,-5.427c-0.498,-2.285 -0.747,-5.772 -0.747,-10.459l0,-20.215l-5.757,0l0,-7.383l6.021,0l0.483,-11.558Z" style="fill:#fff;fill-rule:nonzero;"/><path d="M315.845,151.346l8.261,-0.791l0,12.349l8.482,0l0,7.383l-8.482,0l0,19.571c0,3.452 0.088,5.742 0.264,6.868c0.176,1.126 0.703,2.048 1.582,2.764c0.879,0.717 2.344,1.075 4.395,1.075c1.084,0 2.314,-0.102 3.691,-0.307l0,7.334c-2.461,0.53 -4.746,0.795 -6.855,0.795c-3.428,0 -6.05,-0.666 -7.867,-1.999c-1.816,-1.333 -2.973,-3.142 -3.471,-5.427c-0.498,-2.285 -0.747,-5.772 -0.747,-10.459l0,-20.215l-5.757,0l0,-7.383l6.02,0l0.484,-11.558Z" style="fill:#fff;fill-rule:nonzero;"/><path d="M372.007,184.657c0,15.82 -5.86,23.73 -17.578,23.73c-5.391,0 -9.632,-1.911 -12.722,-5.734c-3.091,-3.824 -4.637,-9.676 -4.637,-17.557c0,-15.498 5.86,-23.247 17.578,-23.247c5.332,0 9.559,1.89 12.679,5.669c3.12,3.78 4.68,9.493 4.68,17.139Zm-9.756,0.461c0,-6.232 -0.694,-10.511 -2.082,-12.836c-1.387,-2.326 -3.264,-3.489 -5.63,-3.489c-5.142,0 -7.713,5.442 -7.713,16.325c0,5.56 0.599,9.67 1.797,12.333c1.198,2.662 3.169,3.993 5.916,3.993c2.716,0 4.681,-1.353 5.893,-4.059c1.213,-2.707 1.819,-6.795 1.819,-12.267Z" style="fill:#fff;fill-rule:nonzero;"/><path d="M397.803,147.303l13.505,0c6.54,0 11.768,1.158 15.684,3.472c3.915,2.315 6.877,5.757 8.886,10.327c2.009,4.571 3.014,9.639 3.014,15.205c0,5.86 -0.902,11.082 -2.706,15.667c-1.803,4.585 -4.56,8.284 -8.27,11.096c-3.711,2.813 -8.997,4.219 -15.86,4.219l-14.253,0l0,-59.986Zm9.931,7.955l0,44.077l4.14,0c5.784,0 9.982,-2 12.595,-5.999c2.613,-3.999 3.92,-9.338 3.92,-16.018c0,-14.707 -5.505,-22.06 -16.515,-22.06l-4.14,0Z" style="fill:#fff;fill-rule:nonzero;"/><path d="M480.771,184.657c0,15.82 -5.859,23.73 -17.578,23.73c-5.39,0 -9.631,-1.911 -12.722,-5.734c-3.091,-3.824 -4.636,-9.676 -4.636,-17.557c0,-15.498 5.859,-23.247 17.578,-23.247c5.332,0 9.558,1.89 12.678,5.669c3.12,3.78 4.68,9.493 4.68,17.139Zm-9.755,0.461c0,-6.232 -0.694,-10.511 -2.082,-12.836c-1.388,-2.326 -3.265,-3.489 -5.631,-3.489c-5.141,0 -7.712,5.442 -7.712,16.325c0,5.56 0.599,9.67 1.796,12.333c1.198,2.662 3.17,3.993 5.916,3.993c2.717,0 4.682,-1.353 5.894,-4.059c1.212,-2.707 1.819,-6.795 1.819,-12.267Z" style="fill:#fff;fill-rule:nonzero;"/><path d="M501.03,147.303l10.076,0l8.14,44.913l9.404,-44.913l8.613,0l9.317,44.913l8.536,-44.913l8.405,0l-12.629,60.118l-8.971,0l-9.492,-44.034l-9.316,44.034l-9.147,0l-12.936,-60.118Z" style="fill:#fff;fill-rule:nonzero;"/><path d="M569.058,147.303l9.14,0l0,21.49c2.084,-4.629 5.622,-6.944 10.612,-6.944c2.554,0 4.705,0.586 6.451,1.758c1.747,1.172 2.966,2.732 3.655,4.68c0.69,1.949 1.035,5.633 1.035,11.053l0,27.949l-9.14,0l0,-27.917c0,-4.624 -0.53,-7.469 -1.588,-8.538c-1.058,-1.068 -2.367,-1.602 -3.925,-1.602c-4.733,0 -7.1,4.229 -7.1,12.686l0,25.371l-9.14,0l0,-59.986Z" style="fill:#fff;fill-rule:nonzero;"/><path d="M642.71,186.459l-25.093,0c0,5.988 0.811,9.983 2.433,11.984c1.621,2.001 3.659,3.001 6.113,3.001c4.091,0 6.677,-2.754 7.758,-8.262l8.393,1.099c-2.197,9.404 -7.675,14.106 -16.435,14.106c-5.361,0 -9.639,-1.918 -12.832,-5.756c-3.193,-3.838 -4.79,-9.463 -4.79,-16.875c0,-7.618 1.611,-13.506 4.834,-17.666c3.222,-4.161 7.529,-6.241 12.92,-6.241c3.779,0 6.958,1.04 9.536,3.121c2.578,2.08 4.394,4.812 5.449,8.195c1.055,3.384 1.626,7.815 1.714,13.294Zm-9.36,-6.197c0,-7.822 -2.549,-11.733 -7.647,-11.733c-4.775,0 -7.397,3.911 -7.866,11.733l15.513,0Z" style="fill:#fff;fill-rule:nonzero;"/><path d="M650.313,162.904l8.437,0l0,6.856c2.055,-5.274 5.724,-7.911 11.008,-7.911c2.994,0 5.408,0.718 7.243,2.154c1.835,1.435 2.994,3.156 3.479,5.163c0.484,2.007 0.726,5.179 0.726,9.514l0,28.609l-9.141,0l0,-28.093c0,-3.862 -0.338,-6.489 -1.014,-7.879c-0.676,-1.39 -2.116,-2.085 -4.321,-2.085c-2.294,0 -4.08,0.885 -5.359,2.656c-1.278,1.77 -1.918,5.289 -1.918,10.557l0,24.844l-9.141,0l0,-44.385Z" style="fill:#fff;fill-rule:nonzero;"/><path d="M42,282.303l10.789,0l11.039,25.015l11.202,-25.015l9.509,0l-16.656,34.629l0,25.357l-9.931,0l0,-25.357l-15.952,-34.629Z" style="fill:#fff;fill-rule:nonzero;"/><path d="M116.619,319.657c0,15.82 -5.86,23.73 -17.578,23.73c-5.391,0 -9.632,-1.911 -12.723,-5.734c-3.09,-3.824 -4.636,-9.676 -4.636,-17.557c0,-15.498 5.86,-23.247 17.578,-23.247c5.332,0 9.558,1.89 12.678,5.669c3.121,3.78 4.681,9.493 4.681,17.139Zm-9.756,0.461c0,-6.232 -0.694,-10.511 -2.082,-12.836c-1.387,-2.326 -3.264,-3.489 -5.631,-3.489c-5.141,0 -7.712,5.442 -7.712,16.325c0,5.56 0.599,9.67 1.797,12.333c1.197,2.662 3.169,3.993 5.915,3.993c2.717,0 4.682,-1.353 5.894,-4.059c1.213,-2.707 1.819,-6.795 1.819,-12.267Z" style="fill:#fff;fill-rule:nonzero;"/><path d="M124.968,297.904l9.141,0l0,28.213c0,3.926 0.323,6.555 0.97,7.888c0.647,1.333 2.073,2 4.278,2c2.734,0 4.645,-1.187 5.732,-3.56c1.088,-2.373 1.632,-6.767 1.632,-13.183l0,-21.358l9.141,0l0,44.385l-8.438,0l0,-6.68c-2.368,5.186 -6.125,7.778 -11.272,7.778c-2.631,0 -4.788,-0.556 -6.469,-1.669c-1.681,-1.114 -2.887,-2.696 -3.618,-4.747c-0.731,-2.05 -1.097,-5.61 -1.097,-10.678l0,-28.389Z" style="fill:#fff;fill-rule:nonzero;"/><path d="M166.716,297.904l8.042,0l0,9.932c2.47,-7.237 6.174,-10.855 11.113,-10.855c0.47,0 1.029,0.044 1.675,0.132l0,9.536c-0.764,-0.088 -1.382,-0.132 -1.852,-0.132c-6.558,0 -9.837,4.395 -9.837,13.184l0,22.588l-9.141,0l0,-44.385Z" style="fill:#fff;fill-rule:nonzero;"/><path d="M208.376,282.303l18.15,0c4.57,0 8.042,0.367 10.415,1.099c2.373,0.733 4.38,2.366 6.02,4.9c1.641,2.534 2.461,5.618 2.461,9.251c0,6.65 -2.973,11.03 -8.921,13.139c7.178,2.256 10.767,7.28 10.767,15.073c0,4.424 -1.414,8.284 -4.241,11.58c-2.827,3.296 -8.239,4.944 -16.237,4.944l-18.414,0l0,-59.986Zm9.712,24.874l6.285,0c4.423,0 7.338,-0.813 8.745,-2.439c1.406,-1.626 2.109,-3.728 2.109,-6.307c0,-3.017 -0.806,-5.178 -2.417,-6.482c-1.611,-1.303 -4.102,-1.955 -7.471,-1.955l-7.251,0l0,17.183Zm0,27.158l7.998,0c7.325,0 10.987,-3.238 10.987,-9.712c0,-2.52 -0.777,-4.776 -2.329,-6.768c-1.553,-1.992 -4.717,-2.988 -9.493,-2.988l-7.163,0l0,19.468Z" style="fill:#fff;fill-rule:nonzero;"/><path d="M257.068,297.904l8.042,0l0,9.932c2.469,-7.237 6.174,-10.855 11.113,-10.855c0.47,0 1.028,0.044 1.675,0.132l0,9.536c-0.765,-0.088 -1.382,-0.132 -1.853,-0.132c-6.558,0 -9.837,4.395 -9.837,13.184l0,22.588l-9.14,0l0,-44.385Z" style="fill:#fff;fill-rule:nonzero;"/><path d="M291.213,310.472l-8.833,-1.098c0.585,-3.955 2.407,-7.031 5.464,-9.229c3.057,-2.197 6.809,-3.296 11.256,-3.296c3.979,0 7.161,0.799 9.545,2.395c2.385,1.597 3.884,3.494 4.498,5.691c0.615,2.198 0.922,5.523 0.922,9.976l0,15.117c0,6.123 0.264,10.21 0.791,12.261l-8.657,0c-0.381,-1.611 -0.572,-4.072 -0.572,-7.383c-2.778,5.654 -6.931,8.481 -12.458,8.481c-3.743,0 -6.748,-1.149 -9.015,-3.449c-2.266,-2.3 -3.4,-5.427 -3.4,-9.383c0,-4.834 1.66,-8.657 4.979,-11.469c3.32,-2.813 9.073,-4.219 17.261,-4.219c0.409,0 1.053,0.015 1.93,0.044l0,-1.802c0,-3.164 -0.474,-5.552 -1.423,-7.163c-0.95,-1.611 -2.651,-2.417 -5.104,-2.417c-4.001,0 -6.395,2.315 -7.184,6.943Zm13.711,10.196c-1.168,-0.117 -2.059,-0.176 -2.672,-0.176c-7.945,0 -11.918,3.12 -11.918,9.36c0,4.541 1.972,6.812 5.915,6.812c2.308,0 4.331,-1.231 6.068,-3.692c1.738,-2.46 2.607,-5.844 2.607,-10.151l0,-2.153Z" style="fill:#fff;fill-rule:nonzero;"/><path d="M333.752,291.928l-9.624,0l0,-9.712l9.624,0l0,9.712Zm-9.404,5.976l9.141,0l0,44.385l-9.141,0l0,-44.385Z" style="fill:#fff;fill-rule:nonzero;"/><path d="M344.299,297.904l8.438,0l0,6.856c2.055,-5.274 5.724,-7.911 11.007,-7.911c2.995,0 5.409,0.718 7.244,2.154c1.835,1.435 2.994,3.156 3.478,5.163c0.485,2.007 0.727,5.179 0.727,9.514l0,28.609l-9.141,0l0,-28.093c0,-3.862 -0.338,-6.489 -1.014,-7.879c-0.676,-1.39 -2.117,-2.085 -4.322,-2.085c-2.293,0 -4.079,0.885 -5.358,2.656c-1.279,1.77 -1.918,5.289 -1.918,10.557l0,24.844l-9.141,0l0,-44.385Z" style="fill:#fff;fill-rule:nonzero;"/><rect x="402.834" y="282.303" width="9.932" height="59.985" style="fill:#fff;fill-rule:nonzero;"/><path d="M450.647,308.275l-7.163,1.934c-1.318,-4.453 -3.823,-6.68 -7.515,-6.68c-1.699,0 -3.069,0.527 -4.109,1.582c-1.04,1.055 -1.56,2.359 -1.56,3.911c0,1.758 0.528,3.047 1.582,3.867c1.055,0.821 3.472,1.846 7.251,3.077c4.659,1.552 8.013,3.303 10.064,5.251c2.051,1.948 3.076,4.666 3.076,8.152c0,3.926 -1.465,7.244 -4.395,9.954c-2.929,2.71 -6.884,4.064 -11.865,4.064c-9.404,0 -14.736,-4.306 -15.996,-12.919l7.778,-1.451c0.997,5.098 3.824,7.647 8.482,7.647c2.373,0 4.138,-0.586 5.295,-1.758c1.157,-1.172 1.736,-2.563 1.736,-4.175c0,-1.113 -0.395,-2.219 -1.186,-3.318c-0.791,-1.098 -3.003,-2.234 -6.636,-3.405c-3.486,-1.114 -6.116,-2.154 -7.888,-3.121c-1.773,-0.966 -3.23,-2.365 -4.373,-4.196c-1.142,-1.831 -1.714,-3.904 -1.714,-6.219c0,-3.779 1.377,-6.994 4.131,-9.646c2.754,-2.651 6.314,-3.977 10.679,-3.977c7.412,0 12.187,3.809 14.326,11.426Z" style="fill:#fff;fill-rule:nonzero;"/><path d="M469.148,282.303l36.65,0l0,8.438l-13.403,0l0,51.548l-9.932,0l0,-51.548l-13.315,0l0,-8.438Z" style="fill:#fff;fill-rule:nonzero;"/><path d="M539.241,319.657c0,15.82 -5.86,23.73 -17.578,23.73c-5.391,0 -9.632,-1.911 -12.723,-5.734c-3.09,-3.824 -4.636,-9.676 -4.636,-17.557c0,-15.498 5.86,-23.247 17.578,-23.247c5.332,0 9.558,1.89 12.679,5.669c3.12,3.78 4.68,9.493 4.68,17.139Zm-9.756,0.461c0,-6.232 -0.694,-10.511 -2.082,-12.836c-1.387,-2.326 -3.264,-3.489 -5.631,-3.489c-5.141,0 -7.712,5.442 -7.712,16.325c0,5.56 0.599,9.67 1.797,12.333c1.197,2.662 3.169,3.993 5.915,3.993c2.717,0 4.682,-1.353 5.894,-4.059c1.213,-2.707 1.819,-6.795 1.819,-12.267Z" style="fill:#fff;fill-rule:nonzero;"/><path d="M580.637,319.657c0,15.82 -5.859,23.73 -17.578,23.73c-5.391,0 -9.631,-1.911 -12.722,-5.734c-3.091,-3.824 -4.636,-9.676 -4.636,-17.557c0,-15.498 5.859,-23.247 17.578,-23.247c5.332,0 9.558,1.89 12.678,5.669c3.12,3.78 4.68,9.493 4.68,17.139Zm-9.756,0.461c0,-6.232 -0.694,-10.511 -2.081,-12.836c-1.388,-2.326 -3.265,-3.489 -5.631,-3.489c-5.142,0 -7.712,5.442 -7.712,16.325c0,5.56 0.598,9.67 1.796,12.333c1.198,2.662 3.17,3.993 5.916,3.993c2.717,0 4.681,-1.353 5.894,-4.059c1.212,-2.707 1.818,-6.795 1.818,-12.267Z" style="fill:#fff;fill-rule:nonzero;"/><path d="M599.226,282.303l36.65,0l0,8.438l-13.403,0l0,51.548l-9.931,0l0,-51.548l-13.316,0l0,-8.438Z" style="fill:#fff;fill-rule:nonzero;"/><path d="M650.862,291.928l-9.624,0l0,-9.712l9.624,0l0,9.712Zm-9.404,5.976l9.14,0l0,44.385l-9.14,0l0,-44.385Z" style="fill:#fff;fill-rule:nonzero;"/><path d="M661.409,297.904l8.042,0l0,9.932c2.469,-7.237 6.174,-10.855 11.112,-10.855c0.47,0 1.029,0.044 1.676,0.132l0,9.536c-0.765,-0.088 -1.382,-0.132 -1.853,-0.132c-6.558,0 -9.837,4.395 -9.837,13.184l0,22.588l-9.14,0l0,-44.385Z" style="fill:#fff;fill-rule:nonzero;"/><path d="M718.186,321.459l-25.093,0c0,5.988 0.811,9.983 2.433,11.984c1.621,2.001 3.659,3.001 6.113,3.001c4.091,0 6.677,-2.754 7.758,-8.262l8.394,1.099c-2.198,9.404 -7.676,14.106 -16.436,14.106c-5.361,0 -9.639,-1.918 -12.832,-5.756c-3.193,-3.838 -4.79,-9.463 -4.79,-16.875c0,-7.618 1.611,-13.506 4.834,-17.666c3.223,-4.161 7.529,-6.241 12.92,-6.241c3.779,0 6.958,1.04 9.536,3.121c2.578,2.08 4.394,4.812 5.449,8.195c1.055,3.384 1.626,7.815 1.714,13.294Zm-9.36,-6.197c0,-7.822 -2.549,-11.733 -7.647,-11.733c-4.775,0 -7.397,3.911 -7.866,11.733l15.513,0Z" style="fill:#fff;fill-rule:nonzero;"/><path d="M748.86,282.303l9.14,0l0,59.986l-8.437,0l0,-6.724c-2.131,5.01 -5.796,7.515 -10.993,7.515c-4.993,0 -8.738,-2.095 -11.234,-6.284c-2.496,-4.19 -3.745,-9.683 -3.745,-16.48c0,-7.295 1.38,-12.978 4.139,-17.051c2.759,-4.072 6.43,-6.108 11.014,-6.108c4.817,0 8.189,1.963 10.116,5.889l0,-20.743Zm0,33.866c0,-4.565 -0.859,-7.761 -2.578,-9.589c-1.719,-1.829 -3.496,-2.743 -5.332,-2.743c-5.068,0 -7.603,5.207 -7.603,15.623c0,11.118 2.564,16.677 7.691,16.677c1.981,0 3.78,-0.922 5.397,-2.765c1.616,-1.843 2.425,-5.047 2.425,-9.611l0,-7.592Z" style="fill:#fff;fill-rule:nonzero;"/><path d="M119.871,421.346l8.261,-0.791l0,12.349l8.482,0l0,7.383l-8.482,0l0,19.571c0,3.452 0.088,5.742 0.264,6.868c0.176,1.126 0.703,2.048 1.582,2.764c0.879,0.717 2.344,1.075 4.395,1.075c1.084,0 2.314,-0.102 3.691,-0.307l0,7.334c-2.461,0.53 -4.746,0.795 -6.856,0.795c-3.427,0 -6.049,-0.666 -7.866,-1.999c-1.816,-1.333 -2.973,-3.142 -3.471,-5.427c-0.498,-2.285 -0.747,-5.772 -0.747,-10.459l0,-20.215l-5.757,0l0,-7.383l6.02,0l0.484,-11.558Z" style="fill:#fff;fill-rule:nonzero;"/><path d="M176.033,454.657c0,15.82 -5.86,23.73 -17.578,23.73c-5.391,0 -9.632,-1.911 -12.723,-5.734c-3.09,-3.824 -4.636,-9.676 -4.636,-17.557c0,-15.498 5.86,-23.247 17.578,-23.247c5.332,0 9.558,1.89 12.679,5.669c3.12,3.78 4.68,9.493 4.68,17.139Zm-9.756,0.461c0,-6.232 -0.694,-10.511 -2.082,-12.836c-1.387,-2.326 -3.264,-3.489 -5.631,-3.489c-5.141,0 -7.712,5.442 -7.712,16.325c0,5.56 0.599,9.67 1.797,12.333c1.197,2.662 3.169,3.993 5.915,3.993c2.717,0 4.682,-1.353 5.894,-4.059c1.213,-2.707 1.819,-6.795 1.819,-12.267Z" style="fill:#fff;fill-rule:nonzero;"/><path d="M194.622,417.303l36.65,0l0,8.438l-13.403,0l0,51.548l-9.932,0l0,-51.548l-13.315,0l0,-8.438Z" style="fill:#fff;fill-rule:nonzero;"/><path d="M235.227,417.303l9.141,0l0,21.49c2.084,-4.629 5.621,-6.944 10.612,-6.944c2.554,0 4.704,0.586 6.451,1.758c1.747,1.172 2.965,2.732 3.655,4.68c0.69,1.949 1.035,5.633 1.035,11.053l0,27.949l-9.141,0l0,-27.917c0,-4.624 -0.529,-7.469 -1.588,-8.538c-1.058,-1.068 -2.366,-1.602 -3.924,-1.602c-4.734,0 -7.1,4.229 -7.1,12.686l0,25.371l-9.141,0l0,-59.986Z" style="fill:#fff;fill-rule:nonzero;"/><path d="M286.028,426.928l-9.624,0l0,-9.712l9.624,0l0,9.712Zm-9.404,5.976l9.14,0l0,44.385l-9.14,0l0,-44.385Z" style="fill:#fff;fill-rule:nonzero;"/><path d="M296.575,432.904l8.437,0l0,6.856c2.055,-5.274 5.724,-7.911 11.008,-7.911c2.994,0 5.409,0.718 7.243,2.154c1.835,1.435 2.994,3.156 3.479,5.163c0.484,2.007 0.726,5.179 0.726,9.514l0,28.609l-9.14,0l0,-28.093c0,-3.862 -0.338,-6.489 -1.015,-7.879c-0.676,-1.39 -2.116,-2.085 -4.321,-2.085c-2.294,0 -4.08,0.885 -5.359,2.656c-1.278,1.77 -1.918,5.289 -1.918,10.557l0,24.844l-9.14,0l0,-44.385Z" style="fill:#fff;fill-rule:nonzero;"/><path d="M337.971,417.303l9.141,0l0,35.453l14.329,-19.852l9.05,0l-11.47,15.286l12.744,29.099l-9.882,0l-8.878,-22.243l-5.893,8.136l0,14.107l-9.141,0l0,-59.986Z" style="fill:#fff;fill-rule:nonzero;"/><path d="M429.158,430.707l-8.482,2.944c-0.996,-3.179 -2.307,-5.527 -3.933,-7.042c-1.626,-1.516 -3.845,-2.274 -6.658,-2.274c-2.607,0 -4.621,0.771 -6.042,2.314c-1.421,1.542 -2.131,3.313 -2.131,5.311c0,2.204 0.798,3.959 2.395,5.267c1.596,1.307 4.782,2.869 9.558,4.686c4.072,1.553 7.207,3.032 9.404,4.438c2.197,1.407 3.977,3.289 5.339,5.647c1.363,2.359 2.044,5.091 2.044,8.196c0,5.039 -1.78,9.331 -5.34,12.876c-3.559,3.545 -8.547,5.317 -14.963,5.317c-11.074,0 -17.93,-5.595 -20.566,-16.787l8.877,-2.505c1.552,7.383 5.595,11.075 12.129,11.075c3.193,0 5.617,-0.828 7.273,-2.483c1.655,-1.655 2.482,-3.699 2.482,-6.131c0,-1.787 -0.571,-3.442 -1.713,-4.965c-1.143,-1.524 -3.985,-3.15 -8.526,-4.878c-4.805,-1.817 -8.269,-3.355 -10.393,-4.615c-2.124,-1.259 -3.933,-3.12 -5.427,-5.581c-1.494,-2.461 -2.241,-5.258 -2.241,-8.393c0,-4.776 1.662,-8.789 4.987,-12.041c3.326,-3.252 7.742,-4.878 13.25,-4.878c9.756,0 15.981,4.834 18.677,14.502Z" style="fill:#fff;fill-rule:nonzero;"/><path d="M440.364,421.346l8.261,-0.791l0,12.349l8.482,0l0,7.383l-8.482,0l0,19.571c0,3.452 0.088,5.742 0.264,6.868c0.176,1.126 0.703,2.048 1.582,2.764c0.879,0.717 2.344,1.075 4.395,1.075c1.084,0 2.314,-0.102 3.691,-0.307l0,7.334c-2.461,0.53 -4.746,0.795 -6.855,0.795c-3.428,0 -6.05,-0.666 -7.867,-1.999c-1.816,-1.333 -2.973,-3.142 -3.471,-5.427c-0.498,-2.285 -0.747,-5.772 -0.747,-10.459l0,-20.215l-5.757,0l0,-7.383l6.02,0l0.484,-11.558Z" style="fill:#fff;fill-rule:nonzero;"/><path d="M463.259,432.904l8.042,0l0,9.932c2.47,-7.237 6.174,-10.855 11.113,-10.855c0.47,0 1.029,0.044 1.675,0.132l0,9.536c-0.764,-0.088 -1.382,-0.132 -1.852,-0.132c-6.558,0 -9.837,4.395 -9.837,13.184l0,22.588l-9.141,0l0,-44.385Z" style="fill:#fff;fill-rule:nonzero;"/><path d="M497.405,445.472l-8.833,-1.098c0.585,-3.955 2.406,-7.031 5.463,-9.229c3.058,-2.197 6.81,-3.296 11.257,-3.296c3.978,0 7.16,0.799 9.545,2.395c2.384,1.597 3.884,3.494 4.498,5.691c0.614,2.198 0.921,5.523 0.921,9.976l0,15.117c0,6.123 0.264,10.21 0.791,12.261l-8.657,0c-0.381,-1.611 -0.571,-4.072 -0.571,-7.383c-2.778,5.654 -6.931,8.481 -12.459,8.481c-3.743,0 -6.748,-1.149 -9.014,-3.449c-2.267,-2.3 -3.4,-5.427 -3.4,-9.383c0,-4.834 1.659,-8.657 4.979,-11.469c3.319,-2.813 9.073,-4.219 17.261,-4.219c0.409,0 1.052,0.015 1.93,0.044l0,-1.802c0,-3.164 -0.475,-5.552 -1.424,-7.163c-0.949,-1.611 -2.65,-2.417 -5.104,-2.417c-4,0 -6.395,2.315 -7.183,6.943Zm13.711,10.196c-1.168,-0.117 -2.059,-0.176 -2.673,-0.176c-7.945,0 -11.917,3.12 -11.917,9.36c0,4.541 1.971,6.812 5.915,6.812c2.307,0 4.33,-1.231 6.068,-3.692c1.738,-2.46 2.607,-5.844 2.607,-10.151l0,-2.153Z" style="fill:#fff;fill-rule:nonzero;"/><path d="M539.944,426.928l-9.624,0l0,-9.712l9.624,0l0,9.712Zm-9.404,5.976l9.14,0l0,44.385l-9.14,0l0,-44.385Z" style="fill:#fff;fill-rule:nonzero;"/><path d="M584.988,425.829l0,6.724c-0.85,-0.176 -1.553,-0.264 -2.11,-0.264c-2.695,0 -4.292,1.626 -4.79,4.878c2.227,2.812 3.34,5.991 3.34,9.536c0,4.014 -1.391,7.397 -4.175,10.151c-2.783,2.754 -6.533,4.131 -11.25,4.131c-1.787,0 -3.662,-0.264 -5.625,-0.791c-2.226,0.85 -3.339,2.139 -3.339,3.867c0,1.494 0.593,2.461 1.779,2.901c1.187,0.439 4.329,0.791 9.427,1.054c4.394,0.235 7.705,0.645 9.931,1.231c2.227,0.586 4.007,1.78 5.34,3.581c1.333,1.802 1.999,4.168 1.999,7.098c0,4.511 -1.743,7.932 -5.229,10.261c-3.487,2.329 -8.453,3.493 -14.898,3.493c-6.211,0 -10.744,-1.018 -13.601,-3.054c-2.856,-2.036 -4.285,-4.739 -4.285,-8.108c0,-4.277 2.154,-7.133 6.46,-8.569c-3.222,-1.787 -4.834,-4.204 -4.834,-7.251c0,-3.867 2.183,-6.841 6.548,-8.921c-3.808,-2.519 -5.713,-6.313 -5.713,-11.382c0,-4.336 1.451,-7.844 4.351,-10.525c2.9,-2.68 6.636,-4.021 11.206,-4.021c2.988,0 5.786,0.645 8.394,1.934c0.468,-3.076 1.355,-5.208 2.658,-6.394c1.304,-1.187 3.201,-1.78 5.691,-1.78c0.733,0 1.641,0.073 2.725,0.22Zm-13.008,20.742c0,-5.801 -2.007,-8.701 -6.021,-8.701c-4.365,0 -6.547,2.93 -6.547,8.789c0,5.684 2.109,8.525 6.328,8.525c4.16,0 6.24,-2.871 6.24,-8.613Zm-12.349,28.872c-2.548,1.26 -3.823,3.15 -3.823,5.669c0,2.109 0.82,3.662 2.461,4.658c1.641,0.996 4.365,1.494 8.174,1.494c7.031,0 10.547,-2.036 10.547,-6.108c0,-1.992 -0.667,-3.362 -2,-4.109c-1.333,-0.747 -3.962,-1.179 -7.888,-1.296c-3.31,-0.117 -5.801,-0.22 -7.471,-0.308Z" style="fill:#fff;fill-rule:nonzero;"/><path d="M590.349,417.303l9.141,0l0,21.49c2.084,-4.629 5.621,-6.944 10.612,-6.944c2.554,0 4.704,0.586 6.451,1.758c1.747,1.172 2.965,2.732 3.655,4.68c0.69,1.949 1.035,5.633 1.035,11.053l0,27.949l-9.141,0l0,-27.917c0,-4.624 -0.529,-7.469 -1.587,-8.538c-1.059,-1.068 -2.367,-1.602 -3.925,-1.602c-4.734,0 -7.1,4.229 -7.1,12.686l0,25.371l-9.141,0l0,-59.986Z" style="fill:#fff;fill-rule:nonzero;"/><path d="M633.372,421.346l8.261,-0.791l0,12.349l8.482,0l0,7.383l-8.482,0l0,19.571c0,3.452 0.088,5.742 0.264,6.868c0.176,1.126 0.703,2.048 1.582,2.764c0.879,0.717 2.344,1.075 4.395,1.075c1.084,0 2.314,-0.102 3.691,-0.307l0,7.334c-2.461,0.53 -4.746,0.795 -6.856,0.795c-3.427,0 -6.049,-0.666 -7.866,-1.999c-1.816,-1.333 -2.973,-3.142 -3.471,-5.427c-0.498,-2.285 -0.747,-5.772 -0.747,-10.459l0,-20.215l-5.757,0l0,-7.383l6.02,0l0.484,-11.558Z" style="fill:#fff;fill-rule:nonzero;"/><path d="M662.815,436.508l-8.525,-1.67c1.113,-12.422 7.177,-18.633 18.193,-18.633c5.303,0 9.492,1.494 12.568,4.482c3.076,2.989 4.615,7.017 4.615,12.085c0,2.52 -0.528,5.032 -1.583,7.537c-1.054,2.505 -3.53,5.354 -7.426,8.547c-2.666,2.197 -4.285,3.911 -4.856,5.142c-0.572,1.23 -0.857,2.871 -0.857,4.922l0.044,2.373l-8.306,0l0.044,-1.846c0,-4.307 0.336,-7.31 1.007,-9.009c0.672,-1.699 2.336,-3.691 4.993,-5.976c2.628,-2.256 4.438,-4.182 5.431,-5.779c0.993,-1.597 1.489,-3.626 1.489,-6.087c0,-2.812 -0.694,-4.936 -2.082,-6.372c-1.388,-1.435 -3.28,-2.153 -5.676,-2.153c-5.581,0 -8.606,4.146 -9.073,12.437Zm3.12,29.97l9.8,0l0,10.811l-9.8,0l0,-10.811Z" style="fill:#fff;fill-rule:nonzero;"/></g></svg>