<?xml version="1.0" encoding="UTF-8" standalone="no"?><!DOCTYPE svg PUBLIC "-//W3C//DTD SVG 1.1//EN" "http://www.w3.org/Graphics/SVG/1.1/DTD/svg11.dtd"><svg width="100%" height="100%" viewBox="0 0 800 1280" version="1.1" xmlns="http://www.w3.org/2000/svg" xmlns:xlink="http://www.w3.org/1999/xlink" xml:space="preserve" xmlns:serif="http://www.serif.com/" style="fill-rule:evenodd;clip-rule:evenodd;stroke-linejoin:round;stroke-miterlimit:1.41421;"><rect x="0" y="0" width="800" height="1280" style="fill:#344f8a;"/><clipPath id="_clip1"><rect id="dizziness" x="58.667" y="597.333" width="682.667" height="682.667"/></clipPath><g clip-path="url(#_clip1)"><g><path d="M508.6,1148.76l-73.387,-43.48l-161.227,-0.384l-27.949,8.464l-23.119,93.327l63.321,73.316l136.671,0l85.69,-131.243Z" style="fill:#faf8f8;fill-rule:nonzero;"/><path d="M96.944,1212.99l15.354,52.542l153.644,14.467l22.909,0l-4.939,-9.432c-27.51,-52.462 -35.25,-124.478 -37.307,-153.003c-0.108,-1.421 -0.284,-2.828 -0.568,-4.208l-83.261,25.223c-34.236,10.379 -59.702,39.161 -65.832,74.411Z" style="fill:#f0e9e6;fill-rule:nonzero;"/><path d="M80.554,1280c-8.423,0 -14.799,-7.613 -13.322,-15.905l9.697,-54.433c7.497,-43.166 38.227,-77.821 80.176,-90.446l48.389,-14.549c9.95,-2.992 20.125,3.993 20.869,14.355c2.487,34.579 10.96,106.411 39.576,160.978l-185.385,0Z" style="fill:#bae6ef;fill-rule:nonzero;"/><path d="M539.572,922.322l8.735,2.405c20.896,5.752 33.154,27.414 27.382,48.381c-7.962,28.92 -37.781,45.932 -66.602,37.997l-301.37,-82.972c-28.821,-7.935 -45.73,-37.812 -37.768,-66.733c5.773,-20.968 27.391,-33.302 48.287,-27.548l8.734,2.404l312.602,86.066Z" style="fill:#f2bb88;fill-rule:nonzero;"/><path d="M441.498,1118.01l-12.035,-12.73l-2.996,-78.822l-0.002,0l0,-0.003l-1.202,0.026l-142.53,2.737c0,0 2.888,39.384 2.891,39.387l-10.356,25.2l-1.555,13.439c-1.654,14.185 2.219,28.561 11.179,39.683c11.368,14.109 32.215,28.882 69.681,28.882c37.463,0 58.31,-14.769 69.678,-28.877c4.64,-5.758 7.915,-12.389 9.766,-19.415c0.001,-0.008 0.001,-0.016 0.004,-0.023l7.477,-9.484Z" style="fill:#f2d1a5;fill-rule:nonzero;"/><path d="M435.214,1105.28l-8.741,-78.822l-0.014,0l-1.191,0.027l-142.529,2.733l-4.709,40.677l-2.761,23.91c13.518,10.257 27.916,17.564 42.963,21.705c10.109,2.774 20.866,4.195 32.003,4.195c16.689,0 34.476,-3.244 52.817,-9.476c4.054,-1.378 8.348,1.293 8.82,5.549l0.012,0.111c0.282,2.54 1.992,4.694 4.402,5.545l17.696,6.243l0.04,-0.163c0,0 0,-0.013 0,-0.027l7.47,-9.472l-6.278,-12.735Z" style="fill:#f2bb88;fill-rule:nonzero;"/><path d="M539.572,922.322c-18.286,66.42 -25.575,87.884 -62.93,117.988c-51.525,41.523 -107.632,63.913 -151.94,51.714c-44.307,-12.199 -81.048,-60.151 -104.059,-122.194c-13.936,-37.575 -12.934,-59.233 -1.568,-104.059c2.24,-8.838 12.129,-20.715 15.14,-31.653l18.931,-154.61l330.463,140.433l-44.037,102.381Z" style="fill:#f2d1a5;fill-rule:nonzero;"/><g><path d="M261.866,683.219l-10.399,6.317c3.388,-2.365 6.855,-4.456 10.399,-6.317Z" style="fill:#f2bb88;fill-rule:nonzero;"/><path d="M583.61,819.941l-43.647,101.487c-1.879,-17.794 -9.52,-36.026 -21.759,-49.893c-40.324,-45.671 -104.069,-16.216 -163.884,-108.349c-0.013,-0.004 -0.023,-0.02 -0.019,-0.033c-0.877,-1.351 -1.747,-2.727 -2.626,-4.121c-2.581,-4.135 -8.529,-4.299 -11.315,-0.293c-2.489,3.581 -5.013,7.04 -7.609,10.354c-13.513,17.221 -28.769,30.368 -49.666,36.024c-25.071,6.796 -56.535,49.965 -64.01,60.651c2.251,-8.84 4.891,-18.583 7.901,-29.516l24.492,-146.717l10.399,-6.317l321.743,136.723Z" style="fill:#f2bb88;fill-rule:nonzero;"/><path d="M261.866,683.219l-10.399,6.317c3.388,-2.365 6.855,-4.456 10.399,-6.317Z" style="fill:#f2bb88;fill-rule:nonzero;"/></g><path d="M347.709,716.054c-4.397,6.767 -9.414,23.483 -14.072,29.423c-13.505,17.22 -28.773,30.372 -49.664,36.029c-28.654,7.757 -57,54.753 -57,54.753c-32.219,-8.87 -33.318,-60.955 -24.223,-93.987c21.21,-77.036 79.044,-103.582 127.685,-89.791c5.945,1.686 11.847,4.131 17.55,7.672c3.113,1.934 5.921,7.287 8.889,9.928c3.707,-2.251 7.732,-7.408 11.569,-9.289c35.041,-17.172 75.179,-19.031 114.239,-8.045c16.157,4.544 28.8,13.077 44.152,21.843c110.306,62.982 85.538,235.873 13.829,241.436c0,0 0.804,-7.694 0.575,-13.073c-0.825,-19.375 -8.716,-39.82 -22.146,-55.034c-40.323,-45.676 -104.063,-16.212 -163.881,-108.345c-2.703,-4.156 -4.823,-18.853 -7.502,-23.52Z" style="fill:#7a6d79;fill-rule:nonzero;"/><path d="M539.578,922.318c0,0 0.323,-1.582 0.674,-3.618c0.891,-5.074 1.214,-10.375 0.967,-15.748c49.452,-42.485 57.463,-183.326 -37.154,-237.347c-11.521,-6.582 -23.402,-12.015 -35.445,-16.242c20.924,4.189 41.743,12.124 61.537,23.426c110.309,62.988 81.13,243.966 9.421,249.529Z" style="fill:#685e68;fill-rule:nonzero;"/><path d="M355.209,739.571c-1.969,-3.027 -3.931,-6.186 -5.885,-9.482c-1.011,-1.705 -3.467,-1.768 -4.565,-0.12c-3.627,5.438 -7.305,10.634 -11.121,15.51l14.339,-85.316c2.382,1.47 4.729,3.136 7.025,5.018c1.306,1.071 3.142,1.176 4.602,0.329c2.907,-1.686 5.858,-3.261 8.842,-4.709l-13.237,78.77Z" style="fill:#685e68;fill-rule:nonzero;"/><g><path d="M371.782,977.057c-12.383,0 -24.682,-3.816 -34.878,-10.862c-4.612,-3.185 -5.766,-9.507 -2.58,-14.119c3.186,-4.61 9.508,-5.766 14.119,-2.579c7.257,5.015 16.109,7.576 24.923,7.231c5.591,-0.212 10.321,4.135 10.545,9.736c0.224,5.601 -4.136,10.322 -9.736,10.546c-0.798,0.031 -1.596,0.047 -2.393,0.047Z" style="fill:#f2bb88;fill-rule:nonzero;"/><g><path d="M447.161,951.754c-2.362,0 -4.733,-0.819 -6.654,-2.49l-29.094,-25.299c-4.228,-3.678 -4.676,-10.089 -0.998,-14.318c3.678,-4.23 10.089,-4.676 14.318,-0.998l29.093,25.298c4.229,3.678 4.676,10.09 0.999,14.318c-2.007,2.308 -4.829,3.489 -7.664,3.489Z" style="fill:#f2bb88;fill-rule:nonzero;"/><path d="M292.892,906.994c-4.931,0 -9.257,-3.6 -10.021,-8.624c-0.843,-5.541 2.965,-10.717 8.508,-11.559l38.115,-5.798c5.545,-0.842 10.717,2.966 11.558,8.507c0.843,5.541 -2.964,10.717 -8.507,11.559l-38.115,5.798c-0.517,0.079 -1.031,0.117 -1.538,0.117Z" style="fill:#f2bb88;fill-rule:nonzero;"/></g><path d="M364.178,1040.05c-3.836,0 -7.507,-2.185 -9.22,-5.897c-1.523,-3.297 -6.245,-8.002 -14.548,-10.412c-8.301,-2.408 -14.812,-0.962 -17.864,1.007c-4.707,3.042 -10.991,1.689 -14.031,-3.019c-3.04,-4.709 -1.688,-10.992 3.019,-14.031c9.011,-5.818 21.92,-7.107 34.532,-3.449c12.611,3.66 22.825,11.659 27.32,21.398c2.35,5.089 0.129,11.119 -4.96,13.468c-1.378,0.633 -2.824,0.935 -4.248,0.935Z" style="fill:#f2bb88;fill-rule:nonzero;"/></g><path d="M732.98,783.399c-0.027,6.887 -3.085,13.41 -9.093,19.35c-16.915,16.739 -61.773,30.595 -123.328,39.716c-24.006,3.545 -50.555,6.387 -78.985,8.389c-31.976,2.26 -66.333,3.465 -102.111,3.465c-3.301,0 -6.617,-0.014 -9.945,-0.041c-84.317,-0.514 -163.572,-7.456 -223.193,-19.513c-67.131,-13.572 -99.729,-31.245 -99.648,-54.018c0.095,-23.87 39.121,-42.828 115.981,-56.32c0.162,-0.027 1.583,-0.257 6.414,-1.041c-2.368,5.926 -4.479,12.219 -6.319,18.89c-0.258,0.947 -0.515,1.908 -0.758,2.882c-78.687,14.317 -94.993,31.718 -95.02,35.67c0,4.79 14.953,20.203 83.369,34.046c4.926,1.001 10,1.962 15.196,2.882c9.797,1.745 20.054,3.356 30.717,4.844c50.704,7.023 110.568,10.988 173.382,11.38c3.397,0.027 6.793,0.041 10.149,0.041c28.281,0 54.993,-0.744 79.905,-2.097c39.107,-2.111 73.802,-5.711 103.288,-10.285c56.887,-8.809 94.37,-21.19 106.63,-33.315c1.948,-1.935 3.058,-3.761 3.072,-5.006c0.027,-6.509 -22.017,-26.306 -122.233,-40.596c-3.071,-7.55 -6.752,-14.898 -11.041,-21.935c7.767,1.002 9.485,1.218 9.58,1.232c42.841,5.913 76.833,13.477 101.001,22.462c28.985,10.772 43.058,23.505 42.99,38.918Z" style="fill:#f0e9e6;fill-rule:nonzero;"/><path d="M683.495,953.926c-5.4,8.592 -15.684,12.895 -31.015,12.895c-19.283,0 -46.549,-6.792 -82.178,-20.405c-56.901,-21.732 -127.523,-58.39 -198.876,-103.193c-31.84,-20 -62.165,-40.569 -89.919,-60.947c-26.996,-19.811 -51.556,-39.432 -72.733,-58.133c-5.832,-5.155 -11.393,-10.23 -16.684,-15.223c-49.811,-47.023 -68.106,-79.296 -55.927,-98.7c8.214,-13.072 27.402,-16.157 58.646,-9.446c25.738,5.535 59.973,17.876 98.999,35.697c0.203,0.081 8.66,3.843 18.01,7.984c8.133,3.599 13.613,6.035 17.321,7.672c-15.913,-4.262 -32.76,-4.235 -48.958,0.447c-93.193,-41.854 -123.545,-36.779 -126.819,-31.556c-2.571,4.087 1.881,25.21 52.665,73.139c3.776,3.572 7.7,7.172 11.773,10.825c24.208,21.759 53.342,44.899 85.764,68.241c24.56,17.672 51.015,35.453 78.66,52.814c55.588,34.899 110.608,64.736 158.754,86.197c4.696,2.111 9.31,4.114 13.857,6.049c7.794,3.302 15.372,6.36 22.72,9.175c65.223,24.925 86.183,19.77 88.754,15.669c2.856,-4.546 -3.761,-30.365 -68.579,-87.645c1.949,-7.483 3.41,-15.358 4.344,-23.477c3.816,3.518 6.306,5.805 6.753,6.211c27.97,24.519 48.836,46.238 62.043,64.573c16.089,22.328 20.216,39.053 12.625,51.137Z" style="fill:#f0e9e6;fill-rule:nonzero;"/><path d="M425.237,1270.57c20.7,-39.473 30.2,-89.996 34.514,-124.751c0.731,-5.887 -2.901,-11.432 -8.58,-13.141l-17.165,-5.165c1.732,-6.55 2.219,-13.437 1.421,-20.284l-0.217,-1.949l27.849,8.376l83.139,25.007c34.33,10.325 18.925,114.434 18.925,114.434l-121.915,26.905l-22.91,0l4.939,-9.432Z" style="fill:#f0e9e6;fill-rule:nonzero;"/><path d="M622.971,1274.87c8.424,0 14.8,-7.613 13.322,-15.905l-15.546,-49.06c-7.497,-43.166 -32.333,-69.772 -74.282,-82.397l-40.768,-10.54c-9.95,-2.992 -12.383,-7.598 -13.128,2.765c-0.19,2.638 -10.201,4.782 -10.466,7.83c-3.218,36.899 -12.465,102.031 -38.897,152.435l171.975,0l7.79,-5.128Z" style="fill:#bae6ef;fill-rule:nonzero;"/><path d="M482.098,1127.57l44.235,13.302c41.948,12.625 72.679,47.28 80.176,90.446l8.673,48.687l13.41,0c8.431,0 14.804,-7.618 13.329,-15.9l-9.702,-54.438c-7.497,-43.166 -38.227,-77.821 -80.176,-90.446l-48.389,-14.547c-9.946,-2.99 -20.122,3.992 -20.866,14.357c-0.19,2.639 -0.42,5.494 -0.69,8.539Z" style="fill:#94d8e6;fill-rule:nonzero;"/></g></g><g transform="matrix(0.5,0,0,0.5,-182.027,-82.4889)"><text x="607.793px" y="579.556px" style="font-family:'FranklinGothic-MediumCond', 'Franklin Gothic Medium Cond', sans-serif;font-stretch:condensed;font-size:180px;fill:#fff;">What t<tspan x="1031.78px 1114.57px " y="579.556px 579.556px ">o </tspan>Do When</text><text x="453.765px" y="849.556px" style="font-family:'FranklinGothic-MediumCond', 'Franklin Gothic Medium Cond', sans-serif;font-stretch:condensed;font-size:180px;fill:#fff;">Y<tspan x="521.001px 603.794px " y="849.556px 849.556px ">ou</tspan>r Br<tspan x="919.146px 1001.94px " y="849.556px 849.556px ">ai</tspan>n Is T<tspan x="1366.25px 1449.04px " y="849.556px 849.556px ">oo</tspan> T<tspan x="1636.16px 1676.06px " y="849.556px 849.556px ">ir</tspan>ed</text><text x="589.732px" y="1119.56px" style="font-family:'FranklinGothic-MediumCond', 'Franklin Gothic Medium Cond', sans-serif;font-stretch:condensed;font-size:180px;fill:#fff;">t<tspan x="639.829px 722.622px " y="1119.56px 1119.56px ">o </tspan>Think S<tspan x="1230.72px 1279.76px 1331.53px 1414.32px " y="1119.56px 1119.56px 1119.56px 1119.56px ">trai</tspan>ght?</text></g></svg>