<?xml version="1.0" encoding="UTF-8" standalone="no"?><!DOCTYPE svg PUBLIC "-//W3C//DTD SVG 1.1//EN" "http://www.w3.org/Graphics/SVG/1.1/DTD/svg11.dtd"><svg width="100%" height="100%" viewBox="0 0 960 540" version="1.1" xmlns="http://www.w3.org/2000/svg" xmlns:xlink="http://www.w3.org/1999/xlink" xml:space="preserve" xmlns:serif="http://www.serif.com/" style="fill-rule:evenodd;clip-rule:evenodd;stroke-linejoin:round;stroke-miterlimit:1.41421;"><rect x="0" y="0" width="960" height="540" style="fill:#344f8a;"/><clipPath id="_clip1"><rect id="dizziness" x="240.748" y="61.496" width="478.504" height="478.504"/></clipPath><g clip-path="url(#_clip1)"><g><path d="M556.121,448.007l-51.439,-30.476l-113.009,-0.27l-19.591,5.933l-16.205,65.416l44.384,51.39l95.797,0l60.063,-91.993Z" style="fill:#faf8f8;fill-rule:nonzero;"/><path d="M267.578,493.031l10.762,36.829l107.694,10.14l16.058,0l-3.462,-6.611c-19.283,-36.773 -24.708,-87.251 -26.15,-107.245c-0.076,-0.996 -0.199,-1.982 -0.398,-2.95l-58.36,17.68c-23.997,7.275 -41.848,27.449 -46.144,52.157Z" style="fill:#f0e9e6;fill-rule:nonzero;"/><path d="M256.09,540c-5.905,0 -10.374,-5.336 -9.338,-11.148l6.797,-38.154c5.254,-30.257 26.794,-54.548 56.197,-63.397l33.918,-10.198c6.974,-2.097 14.106,2.799 14.628,10.062c1.743,24.238 7.683,74.587 27.74,112.835l-129.942,0Z" style="fill:#bae6ef;fill-rule:nonzero;"/><path d="M577.831,289.292l6.122,1.685c14.647,4.032 23.239,19.215 19.193,33.912c-5.581,20.271 -26.482,32.196 -46.683,26.634l-211.24,-58.159c-20.202,-5.561 -32.054,-26.503 -26.474,-46.775c4.047,-14.697 19.2,-23.342 33.846,-19.309l6.123,1.685l219.113,60.327Z" style="fill:#f2bb88;fill-rule:nonzero;"/><path d="M509.088,426.454l-8.436,-8.922l-2.1,-55.25l-0.002,0l0,-0.002l-0.842,0.018l-99.904,1.919c0,0 2.024,27.606 2.026,27.608l-7.259,17.663l-1.09,9.42c-1.159,9.943 1.556,20.02 7.836,27.815c7.968,9.89 22.58,20.245 48.842,20.245c26.259,0 40.871,-10.352 48.839,-20.241c3.253,-4.036 5.548,-8.684 6.845,-13.609c0.001,-0.006 0.001,-0.011 0.003,-0.016l5.242,-6.648Z" style="fill:#f2d1a5;fill-rule:nonzero;"/><path d="M504.683,417.532l-6.127,-55.25l-0.01,0l-0.834,0.019l-99.904,1.916l-3.301,28.512l-1.935,16.759c9.475,7.19 19.567,12.312 30.114,15.214c7.086,1.945 14.626,2.94 22.432,2.94c11.698,0 24.166,-2.273 37.021,-6.642c2.842,-0.965 5.852,0.907 6.183,3.89l0.008,0.078c0.197,1.78 1.396,3.29 3.085,3.887l12.404,4.375l0.028,-0.114c0,0 0,-0.009 0,-0.019l5.236,-6.639l-4.4,-8.926Z" style="fill:#f2bb88;fill-rule:nonzero;"/><path d="M577.831,289.292c-12.818,46.555 -17.926,61.6 -44.11,82.701c-36.116,29.105 -75.443,44.799 -106.5,36.248c-31.056,-8.55 -56.809,-42.162 -72.938,-85.65c-9.769,-26.337 -9.066,-41.518 -1.1,-72.938c1.571,-6.195 8.502,-14.52 10.613,-22.186l13.269,-108.372l231.633,98.434l-30.867,71.763Z" style="fill:#f2d1a5;fill-rule:nonzero;"/><g><path d="M383.177,121.696l-7.289,4.428c2.375,-1.658 4.805,-3.124 7.289,-4.428Z" style="fill:#f2bb88;fill-rule:nonzero;"/><path d="M608.699,217.529l-30.594,71.136c-1.317,-12.473 -6.673,-25.252 -15.252,-34.972c-28.264,-32.012 -72.946,-11.367 -114.871,-75.945c-0.01,-0.003 -0.017,-0.014 -0.014,-0.024c-0.614,-0.946 -1.224,-1.911 -1.841,-2.888c-1.809,-2.898 -5.978,-3.013 -7.931,-0.206c-1.744,2.511 -3.513,4.935 -5.333,7.258c-9.472,12.07 -20.165,21.286 -34.813,25.251c-17.573,4.763 -39.627,35.022 -44.867,42.512c1.579,-6.197 3.429,-13.026 5.538,-20.689l17.168,-102.839l7.289,-4.428l225.521,95.834Z" style="fill:#f2bb88;fill-rule:nonzero;"/><path d="M383.177,121.696l-7.289,4.428c2.375,-1.658 4.805,-3.124 7.289,-4.428Z" style="fill:#f2bb88;fill-rule:nonzero;"/></g><path d="M443.347,144.711c-3.081,4.744 -6.598,16.46 -9.863,20.624c-9.466,12.07 -20.168,21.289 -34.811,25.254c-20.085,5.437 -39.953,38.378 -39.953,38.378c-22.584,-6.217 -23.354,-42.725 -16.979,-65.879c14.866,-53.997 55.405,-72.604 89.499,-62.938c4.166,1.182 8.304,2.896 12.301,5.378c2.182,1.356 4.15,5.108 6.23,6.959c2.599,-1.578 5.42,-5.193 8.11,-6.511c24.561,-12.036 52.695,-13.339 80.074,-5.639c11.325,3.185 20.186,9.166 30.947,15.311c77.318,44.146 59.957,165.331 9.694,169.23c0,0 0.563,-5.393 0.403,-9.163c-0.579,-13.58 -6.11,-27.911 -15.523,-38.575c-28.264,-32.016 -72.942,-11.364 -114.87,-75.943c-1.895,-2.913 -3.381,-13.214 -5.259,-16.486Z" style="fill:#7a6d79;fill-rule:nonzero;"/><path d="M577.835,289.289c0,0 0.227,-1.109 0.472,-2.536c0.625,-3.557 0.851,-7.272 0.678,-11.039c34.663,-29.779 40.278,-128.499 -26.042,-166.364c-8.076,-4.614 -16.403,-8.422 -24.845,-11.385c14.667,2.937 29.259,8.499 43.133,16.42c77.32,44.15 56.867,171.005 6.604,174.904Z" style="fill:#685e68;fill-rule:nonzero;"/><path d="M448.605,161.195c-1.38,-2.122 -2.756,-4.336 -4.125,-6.646c-0.709,-1.195 -2.43,-1.24 -3.2,-0.084c-2.542,3.811 -5.12,7.454 -7.795,10.871l10.05,-59.801c1.67,1.031 3.315,2.199 4.925,3.518c0.915,0.75 2.202,0.824 3.225,0.23c2.038,-1.181 4.106,-2.285 6.198,-3.3l-9.278,55.212Z" style="fill:#685e68;fill-rule:nonzero;"/><g><path d="M460.221,327.657c-8.68,0 -17.301,-2.675 -24.447,-7.614c-3.233,-2.232 -4.042,-6.664 -1.808,-9.896c2.232,-3.232 6.664,-4.042 9.896,-1.808c5.087,3.515 11.291,5.311 17.469,5.069c3.92,-0.149 7.235,2.898 7.392,6.824c0.156,3.926 -2.9,7.235 -6.824,7.392c-0.56,0.022 -1.12,0.033 -1.678,0.033Z" style="fill:#f2bb88;fill-rule:nonzero;"/><g><path d="M513.057,309.921c-1.656,0 -3.318,-0.574 -4.665,-1.745l-20.392,-17.733c-2.964,-2.578 -3.278,-7.072 -0.7,-10.036c2.578,-2.965 7.072,-3.278 10.036,-0.7l20.392,17.733c2.964,2.578 3.278,7.072 0.7,10.036c-1.406,1.617 -3.384,2.445 -5.371,2.445Z" style="fill:#f2bb88;fill-rule:nonzero;"/><path d="M404.924,278.547c-3.456,0 -6.489,-2.523 -7.023,-6.044c-0.591,-3.885 2.078,-7.512 5.963,-8.102l26.716,-4.065c3.887,-0.59 7.512,2.079 8.102,5.963c0.591,3.884 -2.079,7.512 -5.964,8.102l-26.715,4.065c-0.363,0.055 -0.723,0.081 -1.079,0.081Z" style="fill:#f2bb88;fill-rule:nonzero;"/></g><path d="M454.891,371.814c-2.689,0 -5.262,-1.532 -6.463,-4.134c-1.067,-2.31 -4.377,-5.608 -10.197,-7.297c-5.818,-1.689 -10.382,-0.675 -12.521,0.705c-3.3,2.132 -7.704,1.184 -9.835,-2.116c-2.131,-3.301 -1.183,-7.704 2.116,-9.835c6.316,-4.078 15.365,-4.981 24.205,-2.417c8.84,2.565 15.999,8.172 19.15,14.998c1.646,3.567 0.09,7.794 -3.477,9.44c-0.966,0.444 -1.98,0.656 -2.978,0.656Z" style="fill:#f2bb88;fill-rule:nonzero;"/></g><path d="M713.397,191.915c-0.019,4.828 -2.162,9.4 -6.374,13.564c-11.856,11.733 -43.298,21.445 -86.445,27.838c-16.826,2.485 -35.435,4.477 -55.363,5.88c-22.412,1.584 -46.495,2.429 -71.572,2.429c-2.315,0 -4.639,-0.01 -6.972,-0.029c-59.1,-0.36 -114.653,-5.226 -156.443,-13.677c-47.054,-9.513 -69.903,-21.901 -69.846,-37.864c0.066,-16.731 27.42,-30.019 81.294,-39.476c0.114,-0.018 1.11,-0.18 4.496,-0.73c-1.66,4.155 -3.139,8.565 -4.429,13.241c-0.181,0.664 -0.361,1.337 -0.532,2.02c-55.154,10.035 -66.583,22.233 -66.602,25.002c0,3.358 10.481,14.161 58.436,23.864c3.453,0.702 7.009,1.376 10.652,2.02c6.867,1.224 14.056,2.353 21.53,3.396c35.54,4.923 77.501,7.702 121.53,7.977c2.38,0.019 4.761,0.028 7.113,0.028c19.824,0 38.547,-0.521 56.008,-1.47c27.411,-1.48 51.731,-4.002 72.398,-7.208c39.874,-6.175 66.147,-14.854 74.741,-23.352c1.366,-1.356 2.143,-2.637 2.153,-3.509c0.019,-4.563 -15.432,-18.439 -85.677,-28.455c-2.153,-5.293 -4.733,-10.443 -7.74,-15.375c5.445,0.702 6.649,0.854 6.716,0.863c30.029,4.145 53.855,9.447 70.795,15.745c20.316,7.55 30.18,16.475 30.133,27.278Z" style="fill:#f0e9e6;fill-rule:nonzero;"/><path d="M678.711,311.444c-3.785,6.022 -10.993,9.039 -21.739,9.039c-13.516,0 -32.628,-4.762 -57.602,-14.304c-39.884,-15.232 -89.385,-40.927 -139.399,-72.331c-22.318,-14.019 -43.573,-28.436 -63.027,-42.72c-18.922,-13.886 -36.137,-27.639 -50.981,-40.747c-4.088,-3.613 -7.986,-7.17 -11.694,-10.67c-34.914,-32.96 -47.738,-55.581 -39.201,-69.183c5.757,-9.162 19.207,-11.325 41.107,-6.62c18.04,3.879 42.037,12.529 69.391,25.021c0.142,0.057 6.071,2.694 12.625,5.596c5.7,2.523 9.541,4.23 12.14,5.378c-11.154,-2.988 -22.963,-2.969 -34.316,0.313c-65.322,-29.337 -86.597,-25.78 -88.892,-22.119c-1.802,2.865 1.318,17.671 36.915,51.266c2.646,2.504 5.397,5.027 8.252,7.588c16.968,15.251 37.389,31.47 60.115,47.832c17.215,12.387 35.758,24.85 55.135,37.019c38.964,24.462 77.529,45.376 111.276,60.419c3.292,1.479 6.526,2.883 9.713,4.239c5.463,2.315 10.775,4.458 15.925,6.431c45.717,17.471 60.409,13.858 62.211,10.984c2.001,-3.187 -2.637,-21.284 -48.069,-61.434c1.366,-5.245 2.39,-10.765 3.045,-16.456c2.674,2.466 4.42,4.069 4.733,4.354c19.605,17.186 34.23,32.409 43.488,45.261c11.277,15.65 14.17,27.374 8.849,35.844Z" style="fill:#f0e9e6;fill-rule:nonzero;"/><path d="M497.69,533.389c14.509,-27.668 21.168,-63.082 24.192,-87.443c0.512,-4.126 -2.034,-8.012 -6.015,-9.21l-12.031,-3.621c1.214,-4.59 1.555,-9.418 0.996,-14.218l-0.152,-1.365l19.52,5.871l58.275,17.528c24.063,7.237 13.265,80.21 13.265,80.21l-85.454,18.859l-16.058,0l3.462,-6.611Z" style="fill:#f0e9e6;fill-rule:nonzero;"/><path d="M636.288,536.406c5.904,0 10.374,-5.336 9.338,-11.148l-10.897,-34.388c-5.255,-30.256 -22.663,-48.905 -52.066,-57.755l-28.576,-7.388c-6.975,-2.097 -8.68,-5.325 -9.203,1.938c-0.132,1.85 -7.149,3.352 -7.335,5.489c-2.256,25.863 -8.738,71.517 -27.264,106.847l120.543,0l5.46,-3.595Z" style="fill:#bae6ef;fill-rule:nonzero;"/><path d="M537.545,433.153l31.006,9.324c29.403,8.849 50.943,33.14 56.198,63.397l6.08,34.126l9.399,0c5.909,0 10.376,-5.34 9.343,-11.145l-6.801,-38.157c-5.255,-30.257 -26.795,-54.548 -56.198,-63.397l-33.918,-10.196c-6.971,-2.096 -14.104,2.798 -14.625,10.063c-0.133,1.85 -0.294,3.851 -0.484,5.985Z" style="fill:#94d8e6;fill-rule:nonzero;"/></g></g></svg>