<svg id="Layer_1" data-name="Layer 1" xmlns="http://www.w3.org/2000/svg" viewBox="0 0 1600 2576.5"><title>ikigai</title><rect width="1600" height="2560" fill="#2980b9"/><g id="Icons"><path id="Shape" d="M786.15,1575.18A395.52,395.52,0,0,0,764,1678H607.7a25.21,25.21,0,0,0-25.21,20.42c-16.38,84.94-14.37,72.34-14.37,75.62a129,129,0,0,1-81.41,30c-53.18,0-123.76-33-142.16-79.9a75.62,75.62,0,1,1,0-92.25,126,126,0,0,1,117-79.9,126,126,0,0,1,252.06,0,124,124,0,0,1,72.59,23.18Z" transform="translate(0 0.5)" fill="#cfd8dc"/><path d="M1121.14,2129.71l-4.29,2c-6.3,38.31-13.86,84.69-25.2,153.5a25.33,25.33,0,0,1-50.41,5l-5.55-90.49a25.21,25.21,0,0,0-44.87-4c-9.07,18.4-25.2,62-47.38,17.39l-28.23-67.55a25.21,25.21,0,0,0-46.89,4l-53.94,191.06a25.2,25.2,0,0,1-49.15-3.28L736.5,2051.82a25.2,25.2,0,0,0-48.14-5.79L587.53,2242.38a25.2,25.2,0,0,1-48.39-11.85l23.19-122A25.2,25.2,0,0,0,522,2086.36l-60.5,45.37-4.28-2a1700.51,1700.51,0,0,0,126-431.27,25.2,25.2,0,0,1,25.2-20.42H969.9a25.21,25.21,0,0,1,25.21,20.42,1683.9,1683.9,0,0,0,126,431.27Z" transform="translate(0 0.5)" fill="#f5f5f5"/><path d="M994.6,1698.44A25.19,25.19,0,0,0,969.4,1678H893.78A25.21,25.21,0,0,1,919,1698.44a1683.5,1683.5,0,0,0,126,431.27l-3.78,2c-2.78,17.39-6,36.8-9.58,58.73,7.31,8.57,5,4,10.84,100.82a25.33,25.33,0,0,0,50.41-5c11.34-68.81,18.9-115.19,25.2-153.51l4.29-2a1684.27,1684.27,0,0,1-127.8-432.28Z" transform="translate(0 0.5)" fill="#cfd8dc"/><path d="M503.6,2538.72a139.14,139.14,0,0,0-149.22-15.88l-27.95,14-.42.21-39.27,19.69h238.1Zm267.64-1.67,0,0-6-1.83a107.86,107.86,0,0,0-11.29-1.56,112.11,112.11,0,0,0-30.8,1.56q-18.3,6.66-35.88,15a.11.11,0,0,0-.07,0q-6.57,3.13-13,6.49h161Zm512.22,18.43-4.69-1.39-.09,0-12.61-3.74a218.64,218.64,0,0,0-31.61-10.8l-1.19-.31a218.62,218.62,0,0,0-122.47,4.55l-40.39,13h217.35Zm87.31,19.26-.38.1.67,1.16.37-.1Z" transform="translate(0 0.5)" fill="sienna"/><path d="M1360.53,2556.75h-73l-4-1.22-4.72-1.44-.09,0-11.1-3.38a219.36,219.36,0,0,0-33.12-11.16l-1.19-.31a218.91,218.91,0,0,0-121,4.92c-13.73,4.42-26.38,8.66-38.23,12.62H983.94a191.29,191.29,0,0,1-62.64,0H837c-28.64-9.15-49.38-15.75-65.79-19.7l0,0c-6.33-1.52-12-2.66-17.25-3.39-24.84-3.52-39.8,1.87-66.68,16.59a.11.11,0,0,0-.07,0c-3.63,2-7.49,4.15-11.62,6.49H527.78c-.34-.25-.66-.51-1-.78l-21.68-18.39a139.14,139.14,0,0,0-149.22-15.88l-29.46,15.15-.42.21-38.29,19.69H217.64c10.87-18.6,40.16-68.92,116.32-201.16a1733,1733,0,0,0,123.26-226.85l.37.13,3.91,1.38,60.5-45.37a25.19,25.19,0,0,1,40.39,20.71v.19q0,.64-.06,1.29l-23.19,122a26.37,26.37,0,0,0-.08,2.94v.13h0v0a25.2,25.2,0,0,0,48.47,8.73l100.83-196.36a25.21,25.21,0,0,1,48.14,5.8l28.73,285.58a25.2,25.2,0,0,0,49.15,3.28l53.94-191.06a25.21,25.21,0,0,1,46.89-4l28.23,67.55c22.17,44.61,38.31,0,47.39-17.4a25.19,25.19,0,0,1,41-4.83,24.85,24.85,0,0,1,5.13,8.87l.39,6.38,2.94,48.08.11,1.73,2.1,34.3a25.35,25.35,0,0,0,40,18,25,25,0,0,0,3.8-3.37h0a25.26,25.26,0,0,0,6.7-16v0c0-.62,0-1.24,0-1.87v0c0-.61,0-1.22-.1-1.83,2.61-16.16,5-31.09,7.32-45h0c7.29-44.58,12.94-78.48,17.73-107.54h0c0-.33.09-.63.15-1l2.7-1.27.36-.16h0l.3-.15.91-.43a1748.22,1748.22,0,0,0,123.26,226.85Z" transform="translate(0 0.5)" fill="sienna"/><path d="M1371.43,2575.9l-.37.1-.67-1.16.38-.1Z" transform="translate(0 0.5)" fill="sienna"/><path d="M1360,2556.75h-75.81l-.7-1.22,0-.05L1265,2523.31l-96.22-167.72q-26.67-41.79-50.75-84.47h0q-8.88-15.77-17.42-31.65h0c-.14-.22-.26-.45-.38-.68h0c-.25-.44-.49-.89-.72-1.32-.1-.19-.2-.37-.3-.57,4.54-27.22,1.76-9.83,17.64-106.62l3.92-1.38.37-.13,0,.08h0c.3.68.6,1.36.92,2a1762,1762,0,0,0,122.3,224.73Z" transform="translate(0 0.5)" fill="#783e22"/><path d="M61.12,2039.74a50.07,50.07,0,0,1,3.88-9.3v47.71A50.6,50.6,0,0,1,61.12,2039.74Z" transform="translate(0 0.5)" fill="#cfd8dc"/><path d="M330.21,2081.12a49.23,49.23,0,0,1-23.09,20.57,50.51,50.51,0,0,1-64.56-21.85,75.61,75.61,0,0,1-99.31,11.85,50.4,50.4,0,0,1-40.75,12.63v-99.89a50.23,50.23,0,0,1,12-.2,75.62,75.62,0,0,1,144.68,8.06v1a50.44,50.44,0,0,1,71,67.82Z" transform="translate(0 0.5)" fill="#cfd8dc"/><path d="M1321.38,1873.66a75.62,75.62,0,0,1,144.68-7.56,50.41,50.41,0,1,1-28.73,87.72,75.63,75.63,0,0,1-99.31-13.36,50.51,50.51,0,0,1-64.56,21.84,49.26,49.26,0,0,1-23.09-20.56,50.44,50.44,0,0,1,71-67.83Z" transform="translate(0 0.5)" fill="#bdc3c7"/><path d="M1479.33,1867.26a39.47,39.47,0,0,0-16.27,0,75.1,75.1,0,0,0-143.68,7.51,50.16,50.16,0,0,0-66.78,11,48.88,48.88,0,0,0-10.62,28.81,50.09,50.09,0,0,0,93.92,26.25,75.1,75.1,0,0,0,77.1,23A374,374,0,0,1,1099.85,2076,1729.88,1729.88,0,0,1,995.72,1698.3a25,25,0,0,0-25-20.28h-204a375.47,375.47,0,1,1,711.9,189.24Z" transform="translate(0 0.5)" fill="#bb193b"/><path d="M1423.89,1822.37a75.45,75.45,0,0,0-103.86,51.8,50.39,50.39,0,0,0-67.08,11.08,49.17,49.17,0,0,0-10.68,29,50.32,50.32,0,0,0,94.36,26.36,84.3,84.3,0,0,0,10.81,10.31l-9,13.08A377.27,377.27,0,0,1,1106,2077.87h-6.54a1759.9,1759.9,0,0,1-104.61-379.48A25.16,25.16,0,0,0,969.73,1678h-205c12.12-184,155.49-332.26,339-350.55a377.2,377.2,0,0,1,320.12,494.9Z" transform="translate(0 0.5)" fill="#ef314c"/><path d="M1520.14,1916a50.41,50.41,0,0,1-83.68,37.81,75.63,75.63,0,0,1-99.31-13.36,50.41,50.41,0,1,1-16.64-66.55,75.34,75.34,0,0,1,144.68-7.56,50.42,50.42,0,0,1,55,49.66Z" transform="translate(0 0.5)" fill="#cfd8dc"/></g><path d="M363.49,356.68a4.73,4.73,0,0,1-1.11,3.07,7.71,7.71,0,0,1-3.67,2.23,35.8,35.8,0,0,1-6.84,1.36,116.63,116.63,0,0,1-21.79,0,36,36,0,0,1-6.92-1.36,7.75,7.75,0,0,1-3.68-2.23,4.73,4.73,0,0,1-1.11-3.07V147.84a4.78,4.78,0,0,1,1.11-3.08,7.87,7.87,0,0,1,3.76-2.22,38.74,38.74,0,0,1,6.93-1.37,93.39,93.39,0,0,1,10.76-.51,95.49,95.49,0,0,1,10.94.51,36.49,36.49,0,0,1,6.84,1.37,7.78,7.78,0,0,1,3.67,2.22,4.78,4.78,0,0,1,1.11,3.08Z" transform="translate(0 0.5)" fill="#f2f2f2"/><path d="M590.68,356.16a6,6,0,0,1-.94,3.34,6.8,6.8,0,0,1-3.59,2.39,33.23,33.23,0,0,1-7.26,1.45,109,109,0,0,1-11.62.51,104.15,104.15,0,0,1-16-.85c-3.25-.57-5.58-1.42-7-2.56a12.3,12.3,0,0,1-3.33-4.1L474.13,251.4V356.34a5.26,5.26,0,0,1-1,3.24,7.67,7.67,0,0,1-3.59,2.31,31,31,0,0,1-6.84,1.45,116.63,116.63,0,0,1-21.79,0,31.23,31.23,0,0,1-6.92-1.45,8.26,8.26,0,0,1-3.67-2.31,4.93,4.93,0,0,1-1.12-3.24V148a5,5,0,0,1,1.12-3.25,7.78,7.78,0,0,1,3.67-2.22,36.67,36.67,0,0,1,6.92-1.37,116.63,116.63,0,0,1,21.79,0,36.49,36.49,0,0,1,6.84,1.37,7.24,7.24,0,0,1,3.59,2.22,5.31,5.31,0,0,1,1,3.25v94.17l64.77-94a12.63,12.63,0,0,1,2.91-3.67,12.48,12.48,0,0,1,4.44-2.31,32.89,32.89,0,0,1,7-1.2c2.84-.22,6.49-.34,10.93-.34a102.11,102.11,0,0,1,11.28.51,33.59,33.59,0,0,1,7.1,1.46,7.66,7.66,0,0,1,3.67,2.3,5.05,5.05,0,0,1,1,3.08,13.39,13.39,0,0,1-1.54,6q-1.54,3.07-5.81,9.74L519.25,243.2l66.14,100a78.45,78.45,0,0,1,4.52,9.31A12.17,12.17,0,0,1,590.68,356.16Z" transform="translate(0 0.5)" fill="#f2f2f2"/><path d="M683.21,356.68a4.73,4.73,0,0,1-1.11,3.07,7.8,7.8,0,0,1-3.68,2.23,35.84,35.84,0,0,1-6.83,1.36,116.63,116.63,0,0,1-21.79,0,35.67,35.67,0,0,1-6.92-1.36,7.75,7.75,0,0,1-3.68-2.23,4.73,4.73,0,0,1-1.11-3.07V147.84a4.78,4.78,0,0,1,1.11-3.08,7.82,7.82,0,0,1,3.76-2.22,38.61,38.61,0,0,1,6.92-1.37,93.7,93.7,0,0,1,10.77-.51,95.61,95.61,0,0,1,10.94.51,36.53,36.53,0,0,1,6.83,1.37,7.87,7.87,0,0,1,3.68,2.22,4.78,4.78,0,0,1,1.11,3.08Z" transform="translate(0 0.5)" fill="#f2f2f2"/><path d="M926.29,176a74.73,74.73,0,0,1-.42,8.54,27.29,27.29,0,0,1-1.2,5.73,6.45,6.45,0,0,1-1.88,3,4.2,4.2,0,0,1-2.65.85q-2.22,0-7.18-3.07a106,106,0,0,0-13.16-6.67,141.56,141.56,0,0,0-19.56-6.66,101.63,101.63,0,0,0-26.41-3.08,73.22,73.22,0,0,0-29.05,5.55A63.28,63.28,0,0,0,802.56,196a70,70,0,0,0-14.18,24.44,95.4,95.4,0,0,0-5,31.53q0,19,5,33.41a67.66,67.66,0,0,0,14.1,24.18,58.23,58.23,0,0,0,21.79,14.7,77,77,0,0,0,28.12,5,65.35,65.35,0,0,0,14.86-1.71A54.31,54.31,0,0,0,881,322.33V271.06H839.14c-2.06,0-3.65-1.28-4.79-3.85s-1.71-6.92-1.71-13.07a62,62,0,0,1,.43-8,19.66,19.66,0,0,1,1.28-5.22,7.3,7.3,0,0,1,2-2.9,4.3,4.3,0,0,1,2.74-.94h74.68a12,12,0,0,1,4.87.94,10.74,10.74,0,0,1,3.76,2.82,12.87,12.87,0,0,1,2.48,4.53,19.71,19.71,0,0,1,.85,6.06v88a21.12,21.12,0,0,1-1.79,9q-1.8,3.84-7.35,6.07t-13.76,4.61q-8.21,2.4-17,4.1t-17.78,2.56q-9,.86-18,.86-26.49,0-47.42-7.61A93.09,93.09,0,0,1,745,301.73q-7.69-20.76-7.69-47.08,0-27.17,8.2-48.79a103.26,103.26,0,0,1,23.25-36.74A100.46,100.46,0,0,1,805,146q21.29-8,47.43-8a159.64,159.64,0,0,1,26.14,2,147.81,147.81,0,0,1,20.6,4.79,81.63,81.63,0,0,1,14.61,6.06,37.27,37.27,0,0,1,8.12,5.64,14.38,14.38,0,0,1,3.33,6.75A60.9,60.9,0,0,1,926.29,176Z" transform="translate(0 0.5)" fill="#f2f2f2"/><path d="M1170.58,346.08a60.13,60.13,0,0,1,2.56,9.74c.34,2.4-.12,4.19-1.37,5.39s-3.47,1.93-6.66,2.22-7.58.42-13.16.42q-8.71,0-13.59-.25a33,33,0,0,1-7.43-1,6.75,6.75,0,0,1-3.59-2.13,11.66,11.66,0,0,1-1.71-3.59l-14.87-44.44h-83l-14,43.24a13.85,13.85,0,0,1-1.79,4,7.35,7.35,0,0,1-3.59,2.56,26.11,26.11,0,0,1-7,1.28q-4.53.35-11.88.34a114.23,114.23,0,0,1-12.3-.51c-3-.34-5-1.16-6.15-2.48s-1.54-3.16-1.2-5.55a56.24,56.24,0,0,1,2.56-9.57l68.19-196.19a17,17,0,0,1,2.4-4.7,8.46,8.46,0,0,1,4.35-2.74,34.72,34.72,0,0,1,8.29-1.19q5.3-.25,14-.26,10.08,0,16.06.26a43.1,43.1,0,0,1,9.31,1.19,8.94,8.94,0,0,1,4.79,2.82,16.79,16.79,0,0,1,2.48,5.13ZM1069.06,183.9h-.17l-31.27,94h62.72Z" transform="translate(0 0.5)" fill="#f2f2f2"/><path d="M1264.13,356.68a4.79,4.79,0,0,1-1.11,3.07,7.8,7.8,0,0,1-3.68,2.23,35.8,35.8,0,0,1-6.84,1.36,116.63,116.63,0,0,1-21.79,0,36,36,0,0,1-6.92-1.36,7.71,7.71,0,0,1-3.67-2.23,4.73,4.73,0,0,1-1.11-3.07V147.84a4.78,4.78,0,0,1,1.11-3.08,7.82,7.82,0,0,1,3.76-2.22,38.42,38.42,0,0,1,6.92-1.37,93.7,93.7,0,0,1,10.77-.51,95.29,95.29,0,0,1,10.93.51,36.49,36.49,0,0,1,6.84,1.37,7.87,7.87,0,0,1,3.68,2.22,4.84,4.84,0,0,1,1.11,3.08Z" transform="translate(0 0.5)" fill="#f2f2f2"/><path d="M324.48,699.24q-3.81,0-11.86-.53-7.77-.54-11.87-.49.19,5.56,1.32,19.82,1,12.6,1,19.92c0,1.11.12,2.75.35,4.93s.34,3.83.34,4.94a13.71,13.71,0,0,1-1.57,6.59c-1.33,2.5-3.23,3.76-5.71,3.76a7.15,7.15,0,0,1-4.73-1.71,6,6,0,0,1-2.3-4.79,13.54,13.54,0,0,1,.24-2.07,12.73,12.73,0,0,0,.25-2.13c0-1.49-.11-3.76-.32-6.78s-.32-5.31-.32-6.84q0-6.54-1-17.72-1.17-12.84-1.37-17.73h-2.54a75.91,75.91,0,0,1-17.28-1.56c-3.62-.88-5.42-3-5.42-6.4a6.6,6.6,0,0,1,1.76-4.49,6.1,6.1,0,0,1,5.37-2.15c1.14.07,3.72.34,7.76.83a73.63,73.63,0,0,0,7.81.54q3,0,8.91-.1c4-.06,6.93-.1,8.91-.1,2.48,0,6.19.18,11.14.52s8.66.51,11.13.51a6.81,6.81,0,0,1,4.91,1.9,6.57,6.57,0,0,1,0,9.4A6.75,6.75,0,0,1,324.48,699.24Z" transform="translate(0 0.5)" fill="#f5f5f5"/><path d="M352.26,713.11a24.9,24.9,0,0,1,7.64-5.25,22.17,22.17,0,0,1,8.72-1.73q8.36,0,12,4.68,2.73,3.53,3.32,10.8.24,6,.54,12.06.78,7.86,1,9.57a86.5,86.5,0,0,0,1.67,9.47,8.06,8.06,0,0,1,.24,1.81,5.67,5.67,0,0,1-2.08,4.51,7.2,7.2,0,0,1-4.85,1.78c-3.29,0-5.42-1.62-6.4-4.88a78.87,78.87,0,0,1-2.15-11.13,92.13,92.13,0,0,1-.88-11.33q0-1.22.12-3.69c.08-1.64.13-2.87.13-3.68,0-2.41,0-3.81-.1-4.2-.29-1.79-1.14-2.69-2.54-2.69q-5.42,0-9.82,5a58.91,58.91,0,0,0-6.15,9.48q0,17.67-1.71,21.29a6.32,6.32,0,0,1-6.05,4,7.25,7.25,0,0,1-4.86-1.83,5.72,5.72,0,0,1-2.12-4.52,9,9,0,0,1,.53-2.59q.35-1.07.59-13.18-.24-9.81.1-32.67l.09-1.61q.3-5.76.3-7.71a31.55,31.55,0,0,0-.47-4.47,31.21,31.21,0,0,1-.46-4.47,5.85,5.85,0,0,1,2-4.56,7,7,0,0,1,4.84-1.79q4.83,0,6.49,5.18a32,32,0,0,1,.93,9c0,3.26-.1,6.56-.3,9.92C352.36,706.83,352.26,710,352.26,713.11Z" transform="translate(0 0.5)" fill="#f5f5f5"/><path d="M422.13,760q-11.67,0-19.09-5.56-8.21-6.15-8.2-17.34,0-12.35,6.49-20.9,7.23-9.47,19.48-9.47,8.51,0,14.12,2.74,7.36,3.62,7.37,11.23,0,5.37-6,9.52a77.34,77.34,0,0,1-11,5.56l-16.46,7.28a14.8,14.8,0,0,0,5.67,3.81,21.12,21.12,0,0,0,7.61,1.27,21.46,21.46,0,0,0,11.09-2.69q4-2.38,6.49-2.39,5.09,0,5.08,4.93,0,5.57-8.16,9.08A36.28,36.28,0,0,1,422.13,760Zm-1.32-41.45a10.94,10.94,0,0,0-7.76,3q-3.23,3-5.17,9.08c3.67-1.6,7.34-3.18,11-4.74a79.34,79.34,0,0,0,10.5-5.52A17.31,17.31,0,0,0,420.81,718.58Z" transform="translate(0 0.5)" fill="#f5f5f5"/><path d="M554.26,697.83c-.59,0-1.52-.06-2.79-.17s-2.29-.18-3.07-.18h-3.81a23.24,23.24,0,0,0-.05,3.47q0,35-4.93,50.93-3.61,11.76-13.14,11.77-9.08,0-18-6.25-10.06-7-10.06-16.41,0-7.62,6.88-7.62t6.89,7.52q0,2.88,4.95,6.18t9.3,3.3c1.18,0,2-2.17,2.54-6.5q.19-1.56,1.08-15.18.74-11.15.73-27.74c0-.45-.05-1.51-.15-3.17l-1.12.05c-1.43.06-3.35,0-5.76-.05-2.9-.13-4.82-.2-5.76-.2a7.13,7.13,0,0,1-4.89-1.76,6.28,6.28,0,0,1-2.14-4.93q0-6.63,8.74-6.64c1.1,0,2.75,0,4.93.12s3.81.13,4.88.13q3.08,0,9.2-.35c4.09-.22,7.16-.34,9.21-.34q13.08,0,13.08,7.28a6.71,6.71,0,0,1-1.75,4.54A6.54,6.54,0,0,1,554.26,697.83Z" transform="translate(0 0.5)" fill="#f5f5f5"/><path d="M611.43,760.47q-2.23,0-7.13-4.34a64,64,0,0,1-7.91,3.24,19.26,19.26,0,0,1-5.81,1.1q-11.76,0-17.65-6.3t-5.88-18.84a27,27,0,0,1,8.69-20.15,28.93,28.93,0,0,1,20.8-8.37,27.94,27.94,0,0,1,10.74,2.61q7.38,3.15,7.38,7.3a4.54,4.54,0,0,1-1.13,3,33.46,33.46,0,0,0-.75,4.86q-.27,2.93-.27,6.84,0,9.22,1.32,13.29.13.43,2.24,5a25.58,25.58,0,0,1,1.91,4.74,5.37,5.37,0,0,1-2,4.25A6.81,6.81,0,0,1,611.43,760.47Zm-12.11-33a35.74,35.74,0,0,1,.22-3.59c.15-1.35.37-2.85.66-4.51a10.59,10.59,0,0,0-1.73-.71,4.69,4.69,0,0,0-1.29-.22,15.63,15.63,0,0,0-11.63,5.2,16.89,16.89,0,0,0-5,12q0,6.54,2.35,9.84a8.06,8.06,0,0,0,7,3.29,16.38,16.38,0,0,0,5.74-1,18,18,0,0,0,5.1-3A152.42,152.42,0,0,1,599.32,727.51Z" transform="translate(0 0.5)" fill="#f5f5f5"/><path d="M649.42,760.67a43,43,0,0,1-8.84-1l-.05,19.92a6.27,6.27,0,0,1-1.9,4.69,7.21,7.21,0,0,1-9.67,0,6.27,6.27,0,0,1-1.9-4.69q0-2.29.09-18.21.11-11.82,0-19.29-.14-10.54-.68-18.16-.74-10.5-.73-9.62a12.81,12.81,0,0,1,1.8-6.93,6.45,6.45,0,0,1,5.67-3.27A6.23,6.23,0,0,1,637.8,706a6.05,6.05,0,0,1,1.85,4.44l0,.49a29.44,29.44,0,0,1,6.56-2.76,25.08,25.08,0,0,1,6.62-.9q11.24,0,16.41,9.52,3.85,7.18,3.85,18.61,0,10.68-6.1,17.72Q660.41,760.68,649.42,760.67Zm3.37-40.38a15,15,0,0,0-6.25,1.44,25.59,25.59,0,0,0-6.4,4.32q.58,10.05.59,20.16a27.74,27.74,0,0,0,8.69,1.42,9.08,9.08,0,0,0,7.71-3.56q2.45-3.23,2.45-8.69a47.4,47.4,0,0,0-.59-9.14Q657.58,720.29,652.79,720.29Z" transform="translate(0 0.5)" fill="#f5f5f5"/><path d="M724.47,760.47q-2.25,0-7.13-4.34a64.61,64.61,0,0,1-7.91,3.24,19.37,19.37,0,0,1-5.81,1.1q-11.77,0-17.65-6.3t-5.89-18.84a27,27,0,0,1,8.69-20.15,29,29,0,0,1,20.8-8.37,27.94,27.94,0,0,1,10.75,2.61q7.36,3.15,7.37,7.3a4.58,4.58,0,0,1-1.12,3,32,32,0,0,0-.76,4.86q-.27,2.93-.27,6.84,0,9.22,1.32,13.29.15.43,2.25,5a25.11,25.11,0,0,1,1.9,4.74,5.37,5.37,0,0,1-2,4.25A6.8,6.8,0,0,1,724.47,760.47Zm-12.11-33a33,33,0,0,1,.22-3.59c.14-1.35.36-2.85.66-4.51a10.65,10.65,0,0,0-1.74-.71,4.57,4.57,0,0,0-1.29-.22,15.59,15.59,0,0,0-11.62,5.2,16.89,16.89,0,0,0-5,12q0,6.54,2.34,9.84a8.07,8.07,0,0,0,7,3.29,16.38,16.38,0,0,0,5.74-1,17.77,17.77,0,0,0,5.1-3A154.23,154.23,0,0,1,712.36,727.51Z" transform="translate(0 0.5)" fill="#f5f5f5"/><path d="M778.37,761.25q-6,0-6.69-5.9-.67-5-1.37-10.11a76.36,76.36,0,0,1-.73-10.11c0-.85.06-2.29.17-4.34s.17-3.5.17-4.35c0-.23,0-.81.1-1.73s.1-1.69.1-2.27q0-4.07-2-4.06-4.17,0-8.2,5.38a40.72,40.72,0,0,0-6.3,13.63c-.06,1.1-.19,2.57-.41,4.4a37.13,37.13,0,0,0-.27,4.41,42.16,42.16,0,0,1-.32,4.22,41.81,41.81,0,0,0-.31,4.23,6.35,6.35,0,0,1-1.93,4.73,7.24,7.24,0,0,1-9.7,0,6.33,6.33,0,0,1-1.9-4.7c0-.93-.1-2.33-.29-4.2s-.3-3.28-.3-4.2q0-4.78.69-13.28t.68-13.28c0-1-.06-2.47-.17-4.45s-.17-3.44-.17-4.4a6,6,0,0,1,2-4.6,6.91,6.91,0,0,1,4.86-1.81q6.39,0,6.83,7.66l.05.54q7.13-7.18,15-7.18,9.22,0,12.74,7.72,2.36,5.17,2.35,15.48v3.46c0,1.5-.05,2.56-.05,3.18a59.31,59.31,0,0,0,1.05,9.81,59.22,59.22,0,0,1,1,9.77,5.94,5.94,0,0,1-1.95,4.54A6.89,6.89,0,0,1,778.37,761.25Z" transform="translate(0 0.5)" fill="#f5f5f5"/><path d="M818.85,760q-11.67,0-19.09-5.56-8.21-6.15-8.21-17.34,0-12.35,6.5-20.9,7.22-9.47,19.48-9.47,8.49,0,14.11,2.74,7.38,3.62,7.37,11.23,0,5.37-6,9.52a78.22,78.22,0,0,1-11,5.56l-16.45,7.28a14.84,14.84,0,0,0,5.66,3.81,21.13,21.13,0,0,0,7.62,1.27,21.42,21.42,0,0,0,11.08-2.69q4.05-2.38,6.5-2.39,5.07,0,5.07,4.93,0,5.57-8.15,9.08A36.31,36.31,0,0,1,818.85,760Zm-1.32-41.45a10.9,10.9,0,0,0-7.76,3q-3.22,3-5.18,9.08,5.52-2.4,11-4.74a79.13,79.13,0,0,0,10.49-5.52A17.3,17.3,0,0,0,817.53,718.58Z" transform="translate(0 0.5)" fill="#f5f5f5"/><path d="M886.52,722q-4.83,0-5.81-4a23,23,0,0,0-4-.34q-11.78,0-11.77,3.22,0,1.9,7.08,5.13,9.66,4.44,13.09,6.93,7.08,5.13,7.08,11.58,0,8.38-7.82,12.74-6.3,3.46-15.48,3.47a33.58,33.58,0,0,1-11.86-2q-7.32-2.73-7.32-8.05c0-3.26,1.93-4.88,5.81-4.88a22.64,22.64,0,0,1,6.49,1.41,22.39,22.39,0,0,0,6.54,1.42q9.91,0,10-4,0-2.49-6.88-5.51-10.07-4.46-12.89-6.4-6.88-4.83-6.89-11.77,0-9.81,10.4-13.23,6.11-2,18.56-2,4.88,0,7.23,1.27c2.14,1.14,3.22,3.24,3.22,6.3Q891.26,722.05,886.52,722Z" transform="translate(0 0.5)" fill="#f5f5f5"/><path d="M927.44,760q-11.67,0-19.09-5.56-8.21-6.15-8.21-17.34,0-12.35,6.5-20.9,7.22-9.47,19.48-9.47,8.49,0,14.11,2.74,7.38,3.62,7.37,11.23,0,5.37-6,9.52a78.22,78.22,0,0,1-11,5.56l-16.45,7.28a14.84,14.84,0,0,0,5.66,3.81,21.13,21.13,0,0,0,7.62,1.27,21.42,21.42,0,0,0,11.08-2.69q4.05-2.38,6.5-2.39,5.07,0,5.07,4.93,0,5.57-8.15,9.08A36.31,36.31,0,0,1,927.44,760Zm-1.32-41.45a10.9,10.9,0,0,0-7.76,3q-3.23,3-5.18,9.08,5.52-2.4,11-4.74a79.13,79.13,0,0,0,10.49-5.52A17.3,17.3,0,0,0,926.12,718.58Z" transform="translate(0 0.5)" fill="#f5f5f5"/><path d="M1029,760.77q-12.4,0-19.54-5.52-6-4.59-6-10.6a7.29,7.29,0,0,1,1.85-5.1,6.62,6.62,0,0,1,5.13-2q4.39,0,6.45,4.5,2.77,6,12.59,6a38.11,38.11,0,0,0,16.26-3.66q8.16-3.76,8.16-8.25,0-6.15-5.08-8.11-3.61-1.41-14.5-1.66a39.23,39.23,0,0,1-15.14-3.17q-9-4-8.89-11.62.15-9.52,10.16-17.46a34.7,34.7,0,0,1,22.07-7.93,41.18,41.18,0,0,1,11.82,2.19q8.73,2.74,8.74,6.3a6.51,6.51,0,0,1-1.76,4.49,6.41,6.41,0,0,1-5,2.2,36,36,0,0,1-6.86-1,35.5,35.5,0,0,0-6.91-1,25.68,25.68,0,0,0-12,3q-5.86,3-5.86,6.59a3.55,3.55,0,0,0,1.78,3,12.8,12.8,0,0,0,5.35,1.68l12.45.69q10.85.83,17.14,6.1,6.93,5.87,6.93,16.21,0,12.6-14.35,19.09A60.23,60.23,0,0,1,1029,760.77Z" transform="translate(0 0.5)" fill="#f5f5f5"/><path d="M1102,760q-11.67,0-19.09-5.56-8.21-6.15-8.2-17.34,0-12.35,6.49-20.9,7.23-9.47,19.48-9.47,8.51,0,14.11,2.74,7.38,3.62,7.38,11.23,0,5.37-6,9.52a77,77,0,0,1-11,5.56l-16.45,7.28a14.84,14.84,0,0,0,5.66,3.81,21.21,21.21,0,0,0,7.62,1.27,21.46,21.46,0,0,0,11.09-2.69q4-2.38,6.49-2.39c3.38,0,5.08,1.64,5.08,4.93q0,5.57-8.16,9.08A36.28,36.28,0,0,1,1102,760Zm-1.32-41.45a10.94,10.94,0,0,0-7.76,3q-3.23,3-5.18,9.08,5.52-2.4,11-4.74a80,80,0,0,0,10.5-5.52A17.31,17.31,0,0,0,1100.72,718.58Z" transform="translate(0 0.5)" fill="#f5f5f5"/><path d="M1157.8,760.86q-10.74,0-18-6.1-7.66-6.45-7.66-17,0-9.72,6.88-20.07,7.82-11.82,18.17-11.82a32.36,32.36,0,0,1,11.86,2.74q8.25,3.36,8.25,7.76a6.17,6.17,0,0,1-1.66,4.25,5.77,5.77,0,0,1-4.54,2q-2.1,0-5-2.27c-2-1.51-4.93-2.27-8.86-2.27q-3.76,0-8.16,7.37-4.2,7.14-4.2,12.31a9.69,9.69,0,0,0,3.71,8.05,14.51,14.51,0,0,0,9.28,2.79q3.27,0,8-2.49t6-2.49a6.11,6.11,0,0,1,4.52,1.9,6,6,0,0,1,1.88,4.35q0,3.81-8.3,7.61Q1162.49,760.87,1157.8,760.86Z" transform="translate(0 0.5)" fill="#f5f5f5"/><path d="M1229.63,722.58q-.45,7.47-6.79,7.47-6.15,0-6.15-6.34l-.25-4.94q-11,1.77-15.72,11.28l0,24.56a6.14,6.14,0,0,1-1.91,4.62,6.69,6.69,0,0,1-4.83,1.83,5.83,5.83,0,0,1-4.69-1.95,6.54,6.54,0,0,1-1.56-4.5v-32c0-1,0-2.51.1-4.52s.09-3.5.09-4.51a6.6,6.6,0,0,1,1.64-4.57,5.92,5.92,0,0,1,4.66-1.83q5.43,0,6.45,5.57a31.33,31.33,0,0,1,19.19-6.45q9.77,0,9.76,13C1229.67,721,1229.66,722.06,1229.63,722.58Z" transform="translate(0 0.5)" fill="#f5f5f5"/><path d="M1263.36,760q-11.67,0-19.09-5.56-8.2-6.15-8.2-17.34,0-12.35,6.49-20.9,7.23-9.47,19.48-9.47,8.51,0,14.12,2.74,7.36,3.62,7.37,11.23,0,5.37-6,9.52a77.34,77.34,0,0,1-11,5.56l-16.46,7.28a14.8,14.8,0,0,0,5.67,3.81,21.12,21.12,0,0,0,7.61,1.27,21.46,21.46,0,0,0,11.09-2.69q4-2.38,6.49-2.39,5.08,0,5.08,4.93,0,5.57-8.15,9.08A36.36,36.36,0,0,1,1263.36,760ZM1262,718.58a10.94,10.94,0,0,0-7.76,3q-3.22,3-5.17,9.08c3.67-1.6,7.34-3.18,11-4.74a78.7,78.7,0,0,0,10.5-5.52A17.31,17.31,0,0,0,1262,718.58Z" transform="translate(0 0.5)" fill="#f5f5f5"/><path d="M1331.13,718.48c-.68,0-1.48,0-2.41-.07s-1.74-.08-2.42-.08a32.27,32.27,0,0,0-4.64.39q.88,19.74.88,25.79c0,.42,0,1.21,0,2.36s.05,2.1.05,2.81q0,11.24-7.08,11.23a6.91,6.91,0,0,1-4.64-1.66,5.45,5.45,0,0,1-2.15-4.39q0-1.75.15-5.28c.1-2.34.14-4.1.14-5.27q0-5.91-.87-25.29-3-.15-9.16-.81t-6.13-6.32a6.43,6.43,0,0,1,6.64-6.54c1.21,0,4,.19,8.3.58,0-1-.11-2.76-.24-5.17-.13-2.09-.2-3.7-.2-4.84a5.86,5.86,0,0,1,2-4.54,7,7,0,0,1,4.83-1.81q7.23,0,7.23,12.16l-.1,4a34.74,34.74,0,0,1,4.93-.44q5.61,0,7.67.73,3.9,1.37,3.9,6a6.22,6.22,0,0,1-1.9,4.64A6.67,6.67,0,0,1,1331.13,718.48Z" transform="translate(0 0.5)" fill="#f5f5f5"/><path d="M198.34,898.48c-.69,0-1.49,0-2.42-.07s-1.73-.08-2.42-.08a32,32,0,0,0-4.63.39q.87,19.74.87,25.79c0,.42,0,1.21,0,2.36s.05,2.1.05,2.81q0,11.24-7.08,11.23a6.91,6.91,0,0,1-4.64-1.66,5.45,5.45,0,0,1-2.15-4.39q0-1.75.15-5.28c.1-2.34.15-4.1.15-5.27q0-5.91-.88-25.29-3-.15-9.16-.81t-6.12-6.32a6.41,6.41,0,0,1,6.64-6.54q1.8,0,8.3.58c0-1-.12-2.76-.25-5.17-.13-2.09-.19-3.7-.19-4.84a5.85,5.85,0,0,1,2-4.54,7,7,0,0,1,4.83-1.81q7.23,0,7.23,12.16l-.1,4a34.74,34.74,0,0,1,4.93-.44c3.75,0,6.3.24,7.67.73,2.6.91,3.91,2.9,3.91,6a6.23,6.23,0,0,1-1.91,4.64A6.66,6.66,0,0,1,198.34,898.48Z" transform="translate(0 0.5)" fill="#f5f5f5"/><path d="M233.1,940.67a21.72,21.72,0,0,1-15.53-6.2q-7.12-6.79-7.47-18.12A29.9,29.9,0,0,1,216,897.11q7.43-10,20.66-10A18.31,18.31,0,0,1,252.19,895q5.18,7,5.18,17.44,0,11.33-6.06,19.33A21.68,21.68,0,0,1,233.1,940.67ZM236,900q-6,0-9.47,5.47a19.9,19.9,0,0,0-2.93,10.84q0,5.86,3.32,9a8.68,8.68,0,0,0,6.15,2.49,10.51,10.51,0,0,0,7.37-2.88,12.74,12.74,0,0,0,3.81-9.14Q244.93,900.09,236,900Z" transform="translate(0 0.5)" fill="#f5f5f5"/><path d="M355.07,940.47c-1.5,0-3.87-1.45-7.13-4.34a64,64,0,0,1-7.91,3.24,19.32,19.32,0,0,1-5.81,1.1q-11.76,0-17.65-6.3t-5.88-18.84a27,27,0,0,1,8.69-20.15,28.91,28.91,0,0,1,20.8-8.37,27.94,27.94,0,0,1,10.74,2.61q7.36,3.15,7.37,7.3a4.53,4.53,0,0,1-1.12,3,32,32,0,0,0-.76,4.86q-.27,2.93-.27,6.84,0,9.22,1.32,13.29.15.43,2.25,5a25.11,25.11,0,0,1,1.9,4.74,5.39,5.39,0,0,1-2,4.25A6.81,6.81,0,0,1,355.07,940.47Zm-12.11-33a33,33,0,0,1,.22-3.59c.15-1.35.37-2.85.66-4.51a10.59,10.59,0,0,0-1.73-.71,4.69,4.69,0,0,0-1.3-.22,15.61,15.61,0,0,0-11.62,5.2,16.89,16.89,0,0,0-5,12q0,6.54,2.34,9.84a8.09,8.09,0,0,0,7,3.29,16.33,16.33,0,0,0,5.73-1,18,18,0,0,0,5.11-3A152.42,152.42,0,0,1,343,907.51Z" transform="translate(0 0.5)" fill="#f5f5f5"/><path d="M461.76,935.93q-5.77,2.54-17.83,4.54a113.23,113.23,0,0,1-18.11,1.86q-12,0-12-10.5,0,.82,1-15.48,1.28-21.2,1.27-47.17a6.47,6.47,0,0,1,1.93-4.73,7,7,0,0,1,9.74,0,6.45,6.45,0,0,1,2,4.73q0,26-1.31,48c-.3,2.61-.61,6.59-.93,12q11.56-.2,29.69-5.67a7.22,7.22,0,0,1,2.14-.34,6.18,6.18,0,0,1,5,2.25,6.73,6.73,0,0,1,1.71,4.49Q466,934,461.76,935.93Z" transform="translate(0 0.5)" fill="#f5f5f5"/><path d="M493.05,940.67a21.68,21.68,0,0,1-15.52-6.2q-7.14-6.79-7.48-18.12A30,30,0,0,1,476,897.11q7.43-10,20.66-10A18.31,18.31,0,0,1,512.14,895q5.18,7,5.18,17.44,0,11.33-6.05,19.33A21.71,21.71,0,0,1,493.05,940.67ZM496,900q-6,0-9.47,5.47a19.9,19.9,0,0,0-2.93,10.84q0,5.86,3.32,9a8.68,8.68,0,0,0,6.15,2.49,10.55,10.55,0,0,0,7.38-2.88,12.77,12.77,0,0,0,3.8-9.14Q504.88,900.09,496,900Z" transform="translate(0 0.5)" fill="#f5f5f5"/><path d="M566,941.25q-6,0-6.69-5.9c-.46-3.36-.91-6.73-1.37-10.11a76.36,76.36,0,0,1-.73-10.11c0-.85.06-2.29.17-4.34s.17-3.5.17-4.35c0-.23,0-.81.1-1.73s.1-1.69.1-2.27q0-4.07-2-4.06-4.18,0-8.2,5.38a40.53,40.53,0,0,0-6.3,13.63c-.06,1.1-.2,2.57-.41,4.4a37.13,37.13,0,0,0-.27,4.41,42.16,42.16,0,0,1-.32,4.22c-.21,1.89-.32,3.3-.32,4.23a6.34,6.34,0,0,1-1.92,4.73,7.24,7.24,0,0,1-9.7,0,6.29,6.29,0,0,1-1.9-4.7c0-.93-.1-2.33-.29-4.2s-.3-3.28-.3-4.2q0-4.78.69-13.28t.68-13.28c0-1-.06-2.47-.17-4.45s-.17-3.44-.17-4.4a6,6,0,0,1,2-4.6,6.88,6.88,0,0,1,4.85-1.81q6.4,0,6.84,7.66l.05.54q7.13-7.18,15-7.18,9.23,0,12.74,7.72,2.36,5.17,2.35,15.48v3.46c0,1.5,0,2.56,0,3.18a59.31,59.31,0,0,0,1,9.81,59.22,59.22,0,0,1,1,9.77,5.91,5.91,0,0,1-2,4.54A6.85,6.85,0,0,1,566,941.25Z" transform="translate(0 0.5)" fill="#f5f5f5"/><path d="M627.13,908.69a166.18,166.18,0,0,0-2.44,24.21q-.5,15.78-5.27,22.9-6.4,9.53-22.66,9.53-19,0-19-7.52a5.79,5.79,0,0,1,1.7-4.35,6.17,6.17,0,0,1,4.5-1.66,34.78,34.78,0,0,1,6.3.83,37.31,37.31,0,0,0,7.27.83q7.28,0,10.74-4.44t3.91-13.82a16.58,16.58,0,0,1-5.62,3.81,18.09,18.09,0,0,1-6.83,1.27q-9.72,0-15.8-6.33t-6.08-16.18q0-13.29,8.11-21.49,8.4-8.49,22.7-8.49a24.73,24.73,0,0,1,7.91,1.12,12.35,12.35,0,0,1,5.38,3.42q6.19.74,6.2,7.32A55.64,55.64,0,0,1,627.13,908.69Zm-18.94-9.77q-8.27,0-12.85,5.42-4.1,4.93-4.1,12.79,0,5.82,2.2,8.74c1.46,2,3.66,2.93,6.59,2.93q4,0,8.06-4.64a16.54,16.54,0,0,0,4.34-8.69q.93-4.68,2.15-14.6a14.82,14.82,0,0,0-3.27-1.46A10.6,10.6,0,0,0,608.19,898.92Z" transform="translate(0 0.5)" fill="#f5f5f5"/><path d="M724.44,940.47c-1.5,0-3.87-1.45-7.13-4.34a64,64,0,0,1-7.91,3.24,19.32,19.32,0,0,1-5.81,1.1q-11.76,0-17.65-6.3t-5.88-18.84a27,27,0,0,1,8.69-20.15,28.93,28.93,0,0,1,20.8-8.37,27.94,27.94,0,0,1,10.74,2.61q7.38,3.15,7.37,7.3a4.53,4.53,0,0,1-1.12,3,33.3,33.3,0,0,0-.76,4.86c-.18,2-.26,4.23-.26,6.84q0,9.22,1.31,13.29.15.43,2.25,5a25.11,25.11,0,0,1,1.9,4.74,5.36,5.36,0,0,1-2,4.25A6.81,6.81,0,0,1,724.44,940.47Zm-12.11-33a35.74,35.74,0,0,1,.22-3.59c.15-1.35.37-2.85.66-4.51a10.59,10.59,0,0,0-1.73-.71,4.69,4.69,0,0,0-1.3-.22,15.61,15.61,0,0,0-11.62,5.2,16.89,16.89,0,0,0-5,12q0,6.54,2.35,9.84a8.06,8.06,0,0,0,7,3.29,16.29,16.29,0,0,0,5.73-1,18,18,0,0,0,5.11-3A152.42,152.42,0,0,1,712.33,907.51Z" transform="translate(0 0.5)" fill="#f5f5f5"/><path d="M778.35,941.25q-6,0-6.69-5.9-.69-5-1.37-10.11a74.7,74.7,0,0,1-.73-10.11c0-.85.05-2.29.17-4.34s.17-3.5.17-4.35c0-.23,0-.81.1-1.73s.09-1.69.09-2.27q0-4.07-2-4.06-4.18,0-8.21,5.38a40.52,40.52,0,0,0-6.29,13.63c-.06,1.1-.2,2.57-.41,4.4a37.13,37.13,0,0,0-.27,4.41,42.16,42.16,0,0,1-.32,4.22c-.21,1.89-.32,3.3-.32,4.23a6.31,6.31,0,0,1-1.93,4.73,7.23,7.23,0,0,1-9.69,0,6.3,6.3,0,0,1-1.91-4.7c0-.93-.09-2.33-.29-4.2s-.29-3.28-.29-4.2q0-4.78.68-13.28t.69-13.28c0-1-.06-2.47-.17-4.45s-.18-3.44-.18-4.4a6,6,0,0,1,2-4.6,6.92,6.92,0,0,1,4.86-1.81q6.39,0,6.84,7.66l.05.54q7.13-7.18,15-7.18,9.24,0,12.75,7.72,2.34,5.17,2.34,15.48v3.46c0,1.5-.05,2.56-.05,3.18a59.31,59.31,0,0,0,1.05,9.81,59.22,59.22,0,0,1,1,9.77,5.94,5.94,0,0,1-2,4.54A6.85,6.85,0,0,1,778.35,941.25Z" transform="translate(0 0.5)" fill="#f5f5f5"/><path d="M830,888.71q.63-16.65,1.51-23,.82-5.76,6.35-5.76a6.07,6.07,0,0,1,4.64,1.87,6.46,6.46,0,0,1,1.75,4.59q0,7.14-1.1,21.3T842,909q0,17.46,1.12,23.37a7.73,7.73,0,0,1,.15,1.43,5.72,5.72,0,0,1-2,4.46,6.57,6.57,0,0,1-4.54,1.75,5.73,5.73,0,0,1-5.37-3.22,19.46,19.46,0,0,1-6.88,2.61,43.41,43.41,0,0,1-7.38.61q-10.93,0-18.16-7-7.38-7.12-7.37-18.16,0-13.14,7.42-21.22t19.38-8.08a25.06,25.06,0,0,1,6.54.78A14.84,14.84,0,0,1,830,888.71Zm-1,15.39a11.13,11.13,0,0,0-4.2-4.59,12,12,0,0,0-6.15-1.52q-7.23,0-10.84,4.18t-3.62,12.52a12.09,12.09,0,0,0,3.91,9,12.67,12.67,0,0,0,9.08,3.76,14.65,14.65,0,0,0,5.72-.87,27.45,27.45,0,0,0,4.49-3.13A18.86,18.86,0,0,0,829,922Q828.88,919.62,829,904.1Z" transform="translate(0 0.5)" fill="#f5f5f5"/><path d="M968.62,869.75a24.22,24.22,0,0,0-1,6.23c0,.92-.09,2.33-.27,4.25s-.27,3.32-.27,4.24q0,4.65-.49,13.83t-.49,13.83q0,3.58.54,10.69t.54,10.69a6.13,6.13,0,0,1-1.91,4.56,6.52,6.52,0,0,1-4.73,1.87,7.29,7.29,0,0,1-5-1.84,5.71,5.71,0,0,1-2.1-4.46c0-2.38-.11-5.94-.32-10.7s-.32-8.31-.32-10.69c0-1.86,0-3.5.1-4.93a145.31,145.31,0,0,0-19,2.39q-9.37,1.71-18.75,3.47-.09,3.09-.68,10.35-.5,6.38-.49,10.43a5.49,5.49,0,0,1-1.9,4.24,6.76,6.76,0,0,1-4.74,1.74,6.57,6.57,0,0,1-4.73-1.82,5.86,5.86,0,0,1-1.91-4.43q0-4.82.86-14.39t.85-14.4q0-6.1.29-18.37t.3-18.38a5.87,5.87,0,0,1,1.9-4.43,7,7,0,0,1,9.47,0,6.1,6.1,0,0,1,1.91,4.54q0,3.72-.27,11.16t-.27,11.16c0,.81-.11,2.38-.34,4.69a44.43,44.43,0,0,0-.25,4.93L934,896.72a139.46,139.46,0,0,1,19-2.24q.19-3.32.63-17.77a23.45,23.45,0,0,1,2.3-8.73q2.73-6.08,6.2-6.07a6.84,6.84,0,0,1,4.59,1.72,5.91,5.91,0,0,1,2.15,4.65A5.66,5.66,0,0,1,968.62,869.75Z" transform="translate(0 0.5)" fill="#f5f5f5"/><path d="M1021.26,940.47q-2.25,0-7.13-4.34a64.61,64.61,0,0,1-7.91,3.24,19.37,19.37,0,0,1-5.81,1.1q-11.77,0-17.65-6.3t-5.89-18.84a27,27,0,0,1,8.69-20.15,29,29,0,0,1,20.81-8.37,27.94,27.94,0,0,1,10.74,2.61q7.36,3.15,7.37,7.3a4.53,4.53,0,0,1-1.12,3,32,32,0,0,0-.76,4.86q-.27,2.93-.27,6.84,0,9.22,1.32,13.29.15.43,2.25,5a25.11,25.11,0,0,1,1.9,4.74,5.37,5.37,0,0,1-2,4.25A6.8,6.8,0,0,1,1021.26,940.47Zm-12.11-33a33,33,0,0,1,.22-3.59c.14-1.35.36-2.85.66-4.51a10.3,10.3,0,0,0-1.74-.71,4.57,4.57,0,0,0-1.29-.22,15.59,15.59,0,0,0-11.62,5.2,16.89,16.89,0,0,0-5,12q0,6.54,2.34,9.84a8.07,8.07,0,0,0,7,3.29,16.38,16.38,0,0,0,5.74-1,17.77,17.77,0,0,0,5.1-3A154.23,154.23,0,0,1,1009.15,907.51Z" transform="translate(0 0.5)" fill="#f5f5f5"/><path d="M1059.24,940.67a42.92,42.92,0,0,1-8.83-1l-.05,19.92a6.28,6.28,0,0,1-1.91,4.69,7.2,7.2,0,0,1-9.66,0,6.28,6.28,0,0,1-1.91-4.69q0-2.29.1-18.21.09-11.82,0-19.29-.15-10.54-.69-18.16-.72-10.5-.73-9.62a12.73,12.73,0,0,1,1.81-6.93,6.44,6.44,0,0,1,5.66-3.27,6.2,6.2,0,0,1,4.59,1.85,6.06,6.06,0,0,1,1.86,4.44l0,.49a29.31,29.31,0,0,1,6.57-2.76,25,25,0,0,1,6.61-.9q11.23,0,16.41,9.52,3.86,7.18,3.86,18.61,0,10.68-6.11,17.72Q1070.23,940.68,1059.24,940.67Zm3.37-40.38a15.06,15.06,0,0,0-6.25,1.44,25.73,25.73,0,0,0-6.39,4.32q.58,10.05.58,20.16a27.78,27.78,0,0,0,8.69,1.42,9.09,9.09,0,0,0,7.72-3.56q2.44-3.23,2.44-8.69a46.58,46.58,0,0,0-.59-9.14Q1067.4,900.29,1062.61,900.29Z" transform="translate(0 0.5)" fill="#f5f5f5"/><path d="M1114.71,940.67a43,43,0,0,1-8.84-1l0,19.92a6.27,6.27,0,0,1-1.9,4.69,7.21,7.21,0,0,1-9.67,0,6.27,6.27,0,0,1-1.9-4.69q0-2.29.1-18.21.09-11.82,0-19.29-.15-10.54-.69-18.16-.73-10.5-.73-9.62a12.73,12.73,0,0,1,1.81-6.93,6.43,6.43,0,0,1,5.66-3.27,6.23,6.23,0,0,1,4.59,1.85,6.06,6.06,0,0,1,1.86,4.44l0,.49a29.44,29.44,0,0,1,6.56-2.76,25.08,25.08,0,0,1,6.62-.9q11.24,0,16.41,9.52,3.85,7.18,3.85,18.61,0,10.68-6.1,17.72Q1125.7,940.68,1114.71,940.67Zm3.37-40.38a15.06,15.06,0,0,0-6.25,1.44,25.59,25.59,0,0,0-6.4,4.32q.58,10.05.59,20.16a27.74,27.74,0,0,0,8.69,1.42,9.11,9.11,0,0,0,7.72-3.56c1.62-2.15,2.44-5.05,2.44-8.69a47.4,47.4,0,0,0-.59-9.14Q1122.87,900.29,1118.08,900.29Z" transform="translate(0 0.5)" fill="#f5f5f5"/><path d="M1196.15,896.53q-5.31,11.09-16.84,34.81-6.25,12.75-9.52,21.14-1,3-3.23,9-1.75,4.59-6.25,4.59a7.24,7.24,0,0,1-4.88-1.81,5.73,5.73,0,0,1-2.1-4.54q0-4.55,10.35-26.9-5.37-10.6-17-31.2-1.17-1.86-2.39-3.76a8.27,8.27,0,0,1-1.32-4.11,6.22,6.22,0,0,1,2.1-4.63,6.79,6.79,0,0,1,4.84-2,5.93,5.93,0,0,1,5,2.4q6.94,9.22,16.17,27.78,5.22-11.58,6.34-14,3.46-7.27,6.79-12.79A6.44,6.44,0,0,1,1190,887a7.26,7.26,0,0,1,4.89,1.85,5.78,5.78,0,0,1,2.14,4.54A7.15,7.15,0,0,1,1196.15,896.53Z" transform="translate(0 0.5)" fill="#f5f5f5"/><path d="M1296.15,935.93q-5.76,2.54-17.82,4.54a113.45,113.45,0,0,1-18.12,1.86q-12,0-12-10.5,0,.82,1-15.48,1.26-21.2,1.27-47.17a6.5,6.5,0,0,1,1.92-4.73,6.57,6.57,0,0,1,4.86-2,6.66,6.66,0,0,1,4.89,2,6.45,6.45,0,0,1,1.95,4.73q0,26-1.32,48c-.29,2.61-.6,6.59-.93,12q11.58-.2,29.69-5.67a7.33,7.33,0,0,1,2.15-.34,6.21,6.21,0,0,1,5,2.25,6.73,6.73,0,0,1,1.71,4.49Q1300.4,934,1296.15,935.93Z" transform="translate(0 0.5)" fill="#f5f5f5"/><path d="M1322.61,914.89q0,2.77.17,8.93t.18,8.94a6.18,6.18,0,0,1-1.91,4.66,7.3,7.3,0,0,1-9.67,0,6.17,6.17,0,0,1-1.9-4.66q0-2.79-.17-8.94c-.12-4.1-.17-7.08-.17-8.93q0-4.35.49-10.89t.48-10.89a6.18,6.18,0,0,1,1.91-4.66,7.3,7.3,0,0,1,9.67,0,6.17,6.17,0,0,1,1.9,4.66q0,4.35-.49,10.89C1322.78,908.36,1322.61,912,1322.61,914.89Zm-4.15-35.79A7.77,7.77,0,0,1,1313,877a6.89,6.89,0,0,1,0-10.26,7.77,7.77,0,0,1,5.42-2.1,7.69,7.69,0,0,1,5.4,2.1,6.93,6.93,0,0,1,0,10.26A7.69,7.69,0,0,1,1318.46,879.1Z" transform="translate(0 0.5)" fill="#f5f5f5"/><path d="M1360.55,887.64q6.54-.58,9.38-.59,9.12,0,9.13,6.25,0,6.45-9.72,6.16a85.68,85.68,0,0,0-9.33.44q-.19,5.18-.09,13.18.19,11.52.19,13.13a70.51,70.51,0,0,1-1.12,14.17q-1.12,5.22-6.45,5.22a7,7,0,0,1-4.76-1.76,5.62,5.62,0,0,1-2-4.44,8,8,0,0,1,.09-1.22A79.86,79.86,0,0,0,1347,925V900.63c-.59,0-1.66.16-3.23.39a23.78,23.78,0,0,1-2.83.24,7.12,7.12,0,0,1-4.93-1.73,5.92,5.92,0,0,1-2-4.66q0-4.54,4.78-6a41.2,41.2,0,0,1,8.55-.83c0-.59.24-2.42.63-5.52q1.37-10.89,5.91-16.21,5.65-6.65,17.38-6.64,8.94,0,8.94,6.4t-8.3,6.35q-5.91,0-8.6,4.15-2,3.07-2.68,9.61Z" transform="translate(0 0.5)" fill="#f5f5f5"/><path d="M1414.8,940q-11.67,0-19.09-5.56-8.2-6.15-8.21-17.34,0-12.35,6.5-20.9,7.21-9.47,19.48-9.47,8.49,0,14.11,2.74,7.37,3.62,7.37,11.23,0,5.37-6,9.52a78.22,78.22,0,0,1-11,5.56l-16.45,7.28a14.84,14.84,0,0,0,5.66,3.81,21.13,21.13,0,0,0,7.62,1.27,21.42,21.42,0,0,0,11.08-2.69q4-2.38,6.5-2.39,5.07,0,5.07,4.93,0,5.57-8.15,9.08A36.31,36.31,0,0,1,1414.8,940Zm-1.32-41.45a10.94,10.94,0,0,0-7.77,3q-3.21,3-5.17,9.08,5.52-2.4,11-4.74a79.13,79.13,0,0,0,10.49-5.52A17.3,17.3,0,0,0,1413.48,898.58Z" transform="translate(0 0.5)" fill="#f5f5f5"/><path d="M102.5,2004.43v99.89A50.11,50.11,0,0,1,65,2078.15v-47.71A50.38,50.38,0,0,1,102.5,2004.43Z" transform="translate(0 0.5)" fill="#b3b3b3"/><path d="M102.5,0V2004.43a50.38,50.38,0,0,0-37.5,26V0Z" transform="translate(0 0.5)" fill="#236fa1"/><path d="M81.74,2096.54a50.21,50.21,0,0,0,20.76,7.78V2559H65V2078.15A50.15,50.15,0,0,0,81.74,2096.54Z" transform="translate(0 0.5)" fill="#236fa1"/></svg>