<svg id="Layer_1" data-name="Layer 1" xmlns="http://www.w3.org/2000/svg" viewBox="0 0 1600 2500"><title>innovating_around_customer_needs</title><rect width="1600" height="2500" fill="#fe9"/><path d="M1198.91,1723.6a29.79,29.79,0,1,1-29.8,29.76,29.77,29.77,0,0,1,29.8-29.76Zm-96.25,332.79a29.77,29.77,0,1,1,.07-42.09,29.74,29.74,0,0,1-.07,42.09Zm.78-564.08a29.79,29.79,0,1,1,0-42.13,29.78,29.78,0,0,1,0,42.13Zm-303-108.49a29.78,29.78,0,1,1,29.84-29.75,29.81,29.81,0,0,1-29.84,29.75Zm-261.11,107.7a29.77,29.77,0,1,1,.06-42.11,29.78,29.78,0,0,1-.06,42.11Zm-42.81,521.94a29.77,29.77,0,1,1-.07,42.1,29.8,29.8,0,0,1,.07-42.1Zm-95.43-231.37a29.79,29.79,0,1,1,29.81-29.72,29.76,29.76,0,0,1-29.81,29.72Zm889.56,20.78c1.61-16.17,2.49-32.65,2.51-49.32s-.81-33.16-2.38-49.36c-150.68-53.42-180.12-122.68-110.13-265a494.08,494.08,0,0,0-66.1-66.21C972.18,1442.68,903,1413,850,1262.22c-16.2-1.64-32.69-2.52-49.37-2.54s-33.12.81-49.36,2.4c-53.34,150.68-122.62,180.13-264.9,110.1a496.44,496.44,0,0,0-66.2,66c69.56,142.46,40,211.7-110.87,264.62-1.62,16.22-2.5,32.73-2.52,49.38a489.53,489.53,0,0,0,2.41,49.33C459.88,1855,489.3,1924.23,419.34,2066.45a491.83,491.83,0,0,0,66.05,66.27c75-36.65,129.69-45.76,172.4-24.18V2062c-117.07-53.94-198.32-172.31-198.14-309.64.27-188,152.84-340.17,340.8-339.93s340.12,152.85,339.84,340.89c-.18,137-81.32,254.88-198.1,308.68v46.44c42.63-20.86,97-11.5,171.34,25.08a490.23,490.23,0,0,0,66.27-66.07c-69.6-142.4-40-211.6,110.87-264.62Z" transform="translate(0 0.5)" fill="#ffd400"/><path d="M947.1,2155.21a31.79,31.79,0,0,1-31.8,31.8H684.69a31.8,31.8,0,1,1,0-63.6H915.3a31.79,31.79,0,0,1,31.8,31.8Z" transform="translate(0 0.5)" fill="#1a1a1a"/><path d="M926.23,2227.52a31.8,31.8,0,0,1-31.8,31.81H705.56a31.8,31.8,0,1,1,0-63.6H894.43a31.79,31.79,0,0,1,31.8,31.79Z" transform="translate(0 0.5)" fill="#1a1a1a"/><path d="M903.24,2299.86a31.79,31.79,0,0,1-31.79,31.8H728.57a31.81,31.81,0,1,1,0-63.61H871.45a31.8,31.8,0,0,1,31.79,31.81Z" transform="translate(0 0.5)" fill="#1a1a1a"/><path d="M812.35,1166.53v-98.2a12.36,12.36,0,0,0-24.72,0v98.2a12.36,12.36,0,1,0,24.72,0" transform="translate(0 0.5)" fill="#1a1a1a"/><path d="M1357.16,1736.07h98.21a12.37,12.37,0,0,0,0-24.73h-98.21a12.37,12.37,0,0,0,0,24.73" transform="translate(0 0.5)" fill="#1a1a1a"/><path d="M144.62,1736.07h98.2a12.37,12.37,0,0,0,0-24.73h-98.2a12.37,12.37,0,0,0,0,24.73" transform="translate(0 0.5)" fill="#1a1a1a"/><path d="M414.76,1321l-69.46-69.44A12.36,12.36,0,0,0,327.82,1269l69.46,69.44A12.36,12.36,0,0,0,414.76,1321" transform="translate(0 0.5)" fill="#1a1a1a"/><path d="M1272.15,2178.39,1202.71,2109a12.36,12.36,0,1,0-17.48,17.48l69.44,69.44a12.36,12.36,0,1,0,17.48-17.48" transform="translate(0 0.5)" fill="#1a1a1a"/><path d="M1202.71,1338.48l69.44-69.45a12.36,12.36,0,0,0-17.48-17.48L1185.23,1321a12.36,12.36,0,1,0,17.48,17.49" transform="translate(0 0.5)" fill="#1a1a1a"/><path d="M345.3,2195.87l69.46-69.44A12.36,12.36,0,1,0,397.28,2109l-69.46,69.43a12.36,12.36,0,0,0,17.48,17.49" transform="translate(0 0.5)" fill="#1a1a1a"/><path d="M1011.84,1783.86l-.07.41a6.52,6.52,0,1,0,12.85,2.2l.08-.44a6.52,6.52,0,0,0-12.86-2.17h0m-9,35-.14.39a6.52,6.52,0,1,0,12.3,4.34l.15-.43a6.52,6.52,0,0,0-12.31-4.3h0m-14.79,33-.2.37a6.52,6.52,0,1,0,11.39,6.34l.22-.39a6.52,6.52,0,0,0-11.41-6.32m-20.11,30-.27.33a6.52,6.52,0,1,0,10.17,8.16l.28-.35a6.52,6.52,0,0,0-10.18-8.14m-24.85,26.26-.31.27a6.52,6.52,0,1,0,8.66,9.74l.33-.29a6.52,6.52,0,1,0-8.68-9.72m-28.87,21.73-.36.22a6.52,6.52,0,0,0,6.93,11l.37-.23a6.52,6.52,0,0,0-6.94-11h0m-32.08,16.58-.39.17a6.52,6.52,0,1,0,5,12.05l.41-.17a6.52,6.52,0,1,0-5-12h0m-34.43,11-.42.09a6.52,6.52,0,0,0,2.86,12.72l.44-.09a6.52,6.52,0,1,0-2.88-12.72h0m-35.79,5-.42,0a6.52,6.52,0,1,0,.69,13l.44,0a6.52,6.52,0,1,0-.71-13m-36.14-1-.41,0a6.52,6.52,0,1,0-1.48,13l.44.06a6.52,6.52,0,1,0,1.45-13h0m-35.43-7-.4-.12a6.52,6.52,0,1,0-3.64,12.52l.43.13a6.52,6.52,0,0,0,3.61-12.53h0m-33.76-12.92-.38-.19a6.52,6.52,0,0,0-5.7,11.73l.41.2a6.52,6.52,0,0,0,5.67-11.74h0M675.49,1923l-.34-.24a6.52,6.52,0,1,0-7.59,10.6l.37.26a6.52,6.52,0,1,0,7.56-10.62h0m-27.58-23.36-.3-.3a6.52,6.52,0,0,0-9.25,9.19l.32.32a6.52,6.52,0,1,0,9.23-9.21h0M624.61,1872l-.24-.34a6.52,6.52,0,0,0-10.65,7.52l.26.36a6.52,6.52,0,1,0,10.63-7.54h0m-18.34-31.12-.18-.38a6.52,6.52,0,0,0-11.76,5.63l.19.4a6.52,6.52,0,1,0,11.75-5.65h0m-12.85-33.77-.11-.4a6.52,6.52,0,0,0-12.55,3.56l.13.43a6.52,6.52,0,0,0,12.53-3.59h0m-7-35.45-.05-.41a6.52,6.52,0,1,0-13,1.4l0,.44a6.52,6.52,0,0,0,13-1.43h0m-1-36.13,0-.42a6.52,6.52,0,1,0-13-.76l0,.44a6.52,6.52,0,1,0,13,.74h0m5.06-35.78.1-.41a6.52,6.52,0,1,0-12.71-2.93l-.1.43a6.52,6.52,0,0,0,12.71,2.91h0m11-34.42.17-.39a6.52,6.52,0,1,0-12-5l-.17.41a6.52,6.52,0,1,0,12,5h0m16.67-32.08.23-.35a6.52,6.52,0,0,0-11-7l-.24.38a6.52,6.52,0,0,0,11,7h0m21.81-28.83.28-.31a6.52,6.52,0,1,0-9.69-8.73l-.3.33a6.52,6.52,0,0,0,9.71,8.71h0m26.3-24.78.33-.27a6.52,6.52,0,1,0-8.1-10.22l-.34.28a6.52,6.52,0,0,0,8.11,10.21h0m30.07-20,.37-.2a6.52,6.52,0,0,0-6.28-11.43l-.39.21a6.52,6.52,0,1,0,6.3,11.42m33-14.7.39-.14a6.52,6.52,0,1,0-4.26-12.32l-.41.15a6.52,6.52,0,1,0,4.28,12.31h0m35-8.93.42-.07a6.52,6.52,0,1,0-2.12-12.86l-.44.07a6.52,6.52,0,1,0,2.14,12.86m36-2.93h.42a6.52,6.52,0,0,0,0-13h-.45a6.52,6.52,0,1,0,0,13h0m36,3.08.41.07a6.52,6.52,0,0,0,2.22-12.85l-.44-.07a6.52,6.52,0,1,0-2.19,12.85h0m35,9.08.39.14a6.52,6.52,0,1,0,4.36-12.29l-.42-.15a6.52,6.52,0,1,0-4.33,12.3h0m33,14.85.37.21a6.52,6.52,0,0,0,6.36-11.38l-.39-.22a6.52,6.52,0,1,0-6.34,11.39m30,20.18.33.26a6.52,6.52,0,1,0,8.18-10.15l-.35-.28a6.52,6.52,0,1,0-8.16,10.17m26.2,24.9.28.31a6.52,6.52,0,1,0,9.76-8.64l-.3-.34a6.52,6.52,0,0,0-9.74,8.67h0M982.24,1634l.22.36a6.52,6.52,0,0,0,11.06-6.9l-.23-.38a6.52,6.52,0,0,0-11,6.92h0m16.52,32.12.16.39a6.52,6.52,0,1,0,12.06-4.94l-.17-.41a6.52,6.52,0,1,0-12,5h0m10.87,34.45.09.41a6.52,6.52,0,1,0,12.73-2.83l-.1-.43a6.52,6.52,0,1,0-12.72,2.85h0m4.91,35.8,0,.42a6.52,6.52,0,0,0,13-.66l0-.44a6.52,6.52,0,1,0-13,.68h0m.3,11.47v.42a6.52,6.52,0,0,0,13,0v-.45a6.52,6.52,0,0,0-13,0h0" transform="translate(0 0.5)" fill="#333"/><path d="M918.47,1551.21A118.48,118.48,0,1,1,800,1432.74a118.48,118.48,0,0,1,118.48,118.47Z" transform="translate(0 0.5)" fill="#fff"/><path d="M918.47,1551.21h-4.61a113.86,113.86,0,1,1-33.35-80.51,113.5,113.5,0,0,1,33.35,80.51h9.22A123.08,123.08,0,1,0,800,1674.29a123.09,123.09,0,0,0,123.09-123.08Z" transform="translate(0 0.5)" fill="#333"/><path d="M918.47,1984.59A118.48,118.48,0,1,1,800,1866.12a118.47,118.47,0,0,1,118.48,118.47" transform="translate(0 0.5)" fill="#fff"/><path d="M918.47,1984.59h-4.61a113.86,113.86,0,1,1-33.35-80.52,113.5,113.5,0,0,1,33.35,80.52h9.22A123.08,123.08,0,1,0,800,2107.67a123.09,123.09,0,0,0,123.09-123.08Z" transform="translate(0 0.5)" fill="#333"/><path d="M1016.68,1886.37a118.47,118.47,0,1,1,118.48-118.47,118.46,118.46,0,0,1-118.48,118.47" transform="translate(0 0.5)" fill="#fff"/><path d="M1016.68,1886.37v-4.6a113.86,113.86,0,1,1,80.52-33.35,113.52,113.52,0,0,1-80.52,33.35V1891A123.08,123.08,0,1,0,893.62,1767.9,123.07,123.07,0,0,0,1016.68,1891v-4.61Z" transform="translate(0 0.5)" fill="#333"/><path d="M583.3,1886.37A118.47,118.47,0,1,1,701.77,1767.9,118.47,118.47,0,0,1,583.3,1886.37Z" transform="translate(0 0.5)" fill="#fff"/><path d="M583.3,1886.37v-4.6a113.85,113.85,0,1,1,80.52-33.35,113.53,113.53,0,0,1-80.52,33.35V1891A123.08,123.08,0,1,0,460.23,1767.9,123.08,123.08,0,0,0,583.3,1891v-4.61Z" transform="translate(0 0.5)" fill="#333"/><path d="M853.92,1515.68v-.07a9,9,0,0,0-5.68-8.4,9.06,9.06,0,0,0,2.44-9.82v0a12.36,12.36,0,0,1-9.24-15.94l-.14-.17a9,9,0,0,0-9.71-2.7,9,9,0,0,0-4.43-9.12l-.12-.06a8.93,8.93,0,0,0-10,.77,9.14,9.14,0,0,0-16.64-3,9,9,0,0,0-9.24-4.09l-.12,0a8.92,8.92,0,0,0-7.19,7.06,9,9,0,0,0-10.16-.7l-.06,0a9.06,9.06,0,0,0-4.42,9.13,9.05,9.05,0,0,0-9.72,2.79l-.05,0a12.35,12.35,0,0,1-9.21,15.93l-.09.23a9,9,0,0,0,2.56,9.77,9,9,0,0,0-5.72,8.41v.09a12.3,12.3,0,0,1,3.22,18.21v0a9,9,0,0,0,8.19,6,9,9,0,0,0,1,10l.16.18a8.92,8.92,0,0,0,9.68,2.7,9,9,0,0,0,4.42,9.14l.12.06a8.93,8.93,0,0,0,10-.75,9,9,0,0,0,7.25,7.06l.13,0a8.94,8.94,0,0,0,9.23-4.15,9,9,0,0,0,7.66,4.3,8.65,8.65,0,0,0,1.6-.14l.13,0a9,9,0,0,0,7.21-7,9,9,0,0,0,10.15.72l.05,0a9,9,0,0,0,4.44-9.11,9.06,9.06,0,0,0,9.75-2.79l0,0a12.33,12.33,0,0,1,9.25-15.91l.08-.24a12.24,12.24,0,0,1,3.18-18.12v-.24Z" transform="translate(0 0.5)" fill="#2b0b09"/><polygon points="807.83 1570.06 797.94 1579.15 788.79 1570.06 788.79 1551.68 807.83 1551.68 807.83 1570.06 807.83 1570.06" fill="#77321b"/><path d="M832.61,1529.87H834c1.41,0,2.42-2.47,2.84-3.69a29.37,29.37,0,0,0,1.47-6.13c.19-1.52-.28-4.12-2.23-4.12-2.24,0-3.49,2.27-3.49,2.27v11.67Z" transform="translate(0 0.5)" fill="#77321b"/><path d="M764.36,1529.87H763c-1.41,0-2.41-2.47-2.84-3.69a31.72,31.72,0,0,1-1.48-6.13c-.17-1.52.29-4.12,2.25-4.12,2.23,0,3.47,2.27,3.47,2.27v11.67Z" transform="translate(0 0.5)" fill="#77321b"/><path d="M833.53,1498a30.73,30.73,0,0,0-13.19-20.9c-4.8-3.29-12.73-5.83-21.53-5.73h-.61c-8.79-.1-16.73,2.44-21.53,5.73a30.73,30.73,0,0,0-13.19,20.9s-5,20.87,3.67,39.89c1.48,3.25,3.74,10.39,14.05,19.09,6.77,5.73,11.58,7.65,17.23,7.65h.15c5.64,0,10.46-1.92,17.24-7.65,10.27-8.7,12.55-15.84,14-19.09,8.7-19,3.68-39.89,3.68-39.89Z" transform="translate(0 0.5)" fill="#77321b"/><path d="M837.83,1529.71a2.86,2.86,0,1,1-2.86-2.87,2.86,2.86,0,0,1,2.86,2.87Z" transform="translate(0 0.5)" fill="#f1eeec"/><path d="M765.39,1529.71a2.87,2.87,0,1,1-2.87-2.87,2.87,2.87,0,0,1,2.87,2.87Z" transform="translate(0 0.5)" fill="#f1eeec"/><polygon points="835.46 1639.99 850.89 1639.99 841.92 1580.47 827.13 1573.96 832.22 1614.32 835.46 1639.99 835.46 1639.99" fill="#77321b"/><polygon points="761.51 1639.99 764.75 1614.32 769.86 1573.96 755.06 1580.47 746.08 1639.99 761.51 1639.99 761.51 1639.99" fill="#77321b"/><polygon points="765.56 1610.46 769.86 1573.96 755.06 1580.47 750.43 1604.41 765.56 1610.46 765.56 1610.46" fill="#fe150b"/><polygon points="831.4 1610.46 827.13 1573.96 841.92 1580.47 846.54 1604.41 831.4 1610.46 831.4 1610.46" fill="#fe150b"/><polygon points="767.88 1639.99 830.02 1639.99 831.95 1619.45 831.95 1576.77 826.91 1573.96 807.83 1570.06 798.06 1577.56 788.79 1570.06 770.06 1573.96 764.59 1576.27 765.7 1606.83 767.88 1639.99 767.88 1639.99" fill="#fe150b"/><path d="M835.52,1508.84a66.38,66.38,0,0,0-1.39-11.26,31.31,31.31,0,0,0-13.44-21.29c-4.88-3.35-13-6-21.94-5.84h-.61c-9-.11-17,2.49-21.95,5.84a31.32,31.32,0,0,0-13.43,21.29,65.73,65.73,0,0,0-1.38,11.15l.09,0a6.63,6.63,0,1,0,9,6.2,6.4,6.4,0,0,0-.21-1.58,6.49,6.49,0,0,0,2.57.53,6.65,6.65,0,0,0,6.63-6.65l-.07-.66a6.71,6.71,0,0,0,2.86.66,6.57,6.57,0,0,0,5.67-3.25,6.7,6.7,0,0,0,4.7,1.94,6.59,6.59,0,0,0,5.71-3.34,6.6,6.6,0,0,0,10.41,1.4,6.58,6.58,0,0,0,8.55,2.59l-.06.66a6.61,6.61,0,0,0,9.2,6.12,6.91,6.91,0,0,0-.21,1.58,6.64,6.64,0,1,0,9.33-6.05Z" transform="translate(0 0.5)" fill="#48130e"/><polygon points="554.46 1819.7 629.53 1819.7 629.53 1716.46 554.46 1716.46 554.46 1819.7 554.46 1819.7" fill="#350e07"/><path d="M620,1692.12s7.55-.27,8.54,11.38,6.39,50.91-24.86,67.69c0,0-9.26-64.52,16.32-79.07Z" transform="translate(0 0.5)" fill="#350e07"/><path d="M620,1692.12S615.6,1678,591.63,1678s-57.94,17.54-34.59,71.56c7.78,18,25.27,24.34,25.27,24.34L620,1692.12Z" transform="translate(0 0.5)" fill="#350e07"/><polygon points="599.91 1788.39 581.24 1788.39 581.24 1768.51 599.91 1768.51 599.91 1788.39 599.91 1788.39" fill="#fdca8b"/><polygon points="626.64 1847.08 641.57 1847.08 634 1796.75 619.48 1790.36 624.49 1829.94 626.64 1847.08 626.64 1847.08" fill="#fdca8b"/><polygon points="556.15 1847.08 558.32 1829.94 563.32 1790.36 548.82 1796.75 541.23 1847.08 556.15 1847.08 556.15 1847.08" fill="#fdca8b"/><polygon points="623.08 1847.08 624.23 1834.99 624.23 1793.13 619.28 1790.36 599.91 1786.54 582.91 1786.54 563.53 1790.36 558.58 1793.13 558.58 1834.99 559.73 1847.08 623.08 1847.08 623.08 1847.08" fill="gray"/><path d="M623.67,1741.68h1.38c1.39,0,2.37-2.42,2.79-3.62a32.12,32.12,0,0,0,1.46-6c.16-1.48-.3-4-2.21-4-2.2,0-3.42,2.23-3.42,2.23v11.45Z" transform="translate(0 0.5)" fill="#fdca8b"/><path d="M556.74,1741.68h-1.36c-1.4,0-2.39-2.42-2.8-3.62a30.35,30.35,0,0,1-1.45-6c-.19-1.48.29-4,2.2-4,2.18,0,3.41,2.23,3.41,2.23v11.45Z" transform="translate(0 0.5)" fill="#fdca8b"/><path d="M624.57,1710.44A30.12,30.12,0,0,0,611.63,1690c-4.7-3.24-12.48-5.73-21.11-5.63h-.6c-8.64-.1-16.41,2.39-21.11,5.63a30.09,30.09,0,0,0-12.93,20.48s-4.94,20.47,3.6,39.13c1.45,3.19,3.66,10.19,13.77,18.72,6.64,5.63,11.36,7.51,16.91,7.51h.13c5.55,0,10.27-1.88,16.91-7.51,10.08-8.53,12.32-15.53,13.78-18.72,8.51-18.66,3.59-39.13,3.59-39.13Z" transform="translate(0 0.5)" fill="#fdca8b"/><path d="M559.81,1749.57a52,52,0,0,1-2.84-7.89h-1.26c-1.39,0-2.38-2.42-2.79-3.62a30.35,30.35,0,0,1-1.45-6c-.18-1.48.28-4,2.2-4l.19,0v-5.79c-.14-10.08,1.57-17.6,4.3-23.23l0,0s-9,3.71-9,17.53v40.25c0,21.2,10.83,44.64,4.32,56.44,0,0,29.85,5.66,31.57-38.12-3.52-1-7.08-3-11.5-6.79-10.08-8.53-12.32-15.53-13.77-18.72Z" transform="translate(0 0.5)" fill="#350e07"/><path d="M623.75,1727.31A15.45,15.45,0,0,0,626,1733v-5.47c.62-4.29,3.28-28.32-11.85-39.17-15.41-11-26.09-9.83-37-4.65-10.56,2.58-23.63,11.25-23.26,38.49v10.69c1.77-2.45,2.43-6.2,2.67-8.55h33.69v-16.25c6.1,8.18,14.42,16.15,25.12,19.87,0,0-12.49-8.87-13.74-20.68,0,0,1.81,10.89,22.15,20Z" transform="translate(0 0.5)" fill="#59170b"/><path d="M609.55,1745.24c-5.76,0-13.16,1-15-6.12-.83-3.22-.72-5.65.33-7.44a7,7,0,0,1,1.07-1.31c1.29-1,4.33-2.68,10.49-3.13.58,0,1.18-.07,1.76-.07a35.05,35.05,0,0,1,10.12,1.71c1.21,1.46,1.21,3.95,1.21,7.67,0,8.49-3.08,8.69-10,8.69Zm-22.87-6.06c-1.85,7.12-9.27,6-15.07,6-6.92,0-10-.17-10-8.61,0-3.71,0-6.19,1.2-7.63a33.09,33.09,0,0,1,11.93-1.64c6.18.46,9.25,2.15,10.48,3.09a6.32,6.32,0,0,1,1.11,1.33c1.08,1.78,1.18,4.2.35,7.41ZM623.21,1729a54.18,54.18,0,0,0-8.13-2.2,14.51,14.51,0,0,0-1.53-.24,32.9,32.9,0,0,0-7.24-.37c-9,.61-11.89,3.63-12.8,5.16h-5.83c-.91-1.53-3.82-4.55-12.81-5.16a32.81,32.81,0,0,0-7.23.37,14.81,14.81,0,0,0-1.5.24A53.53,53.53,0,0,0,558,1729l-.71.28,1.48,2.88.23.22.29-.12c.08,0,1.16-.5,1.67-.69a25.64,25.64,0,0,0-.37,5.41c0,8.48,3.81,9.18,11.31,9.18,6,0,13.75,1,15.79-6.26a13.28,13.28,0,0,0,.48-5.55H593a12.78,12.78,0,0,0,.47,5.55c2,7.28,9.79,6.26,15.81,6.26,7.5,0,11.31-.7,11.31-9.18a24.88,24.88,0,0,0-.38-5.41c.5.18,1.3.51,1.53.6l.29.12,1.81-3-.67-.26Z" transform="translate(0 0.5)" fill="#0f0f0f"/><polyline points="1005.2 1790.54 1036.41 1790.54 1033.23 1766.34 1008.39 1766.34 1005.2 1790.54" fill="#cd7340"/><polygon points="1004.56 1790.54 1020.95 1790.54 1037.04 1790.54 1037.17 1791.95 1020.95 1811.99 1004.43 1791.95 1004.56 1790.54 1004.56 1790.54" fill="#cd7340"/><polygon points="986.48 1847.7 982.24 1796.25 1004.56 1790.54 1020.95 1800.45 1037.04 1790.54 1059.69 1796.25 1055.38 1847.7 986.48 1847.7 986.48 1847.7" fill="#111"/><polygon points="968.42 1847.7 969.66 1804.73 982.24 1796.25 986.38 1842.73 986.24 1847.7 968.42 1847.7 968.42 1847.7" fill="#111"/><polygon points="1055.68 1847.7 1055.53 1842.73 1059.69 1796.25 1072.2 1804.73 1074.31 1847.7 1055.68 1847.7 1055.68 1847.7" fill="#111"/><path d="M1007.13,1775.36v0l.54-4.17,0,0-.55,4.17" transform="translate(0 0.5)" fill="#ccc"/><path d="M1027.5,1780.34h-13.1c-1.34,0-4.12-2-7.27-5l.55-4.17c3,2.87,5.59,4.86,6.9,4.86h12.62c1.27,0,3.78-1.88,6.73-4.63l.54,4.14c-3,2.84-5.65,4.78-7,4.78" transform="translate(0 0.5)" fill="#a55c33"/><path d="M991.37,1740.55h-1.22c-1.24,0-2.12-2.23-2.48-3.34a30.89,30.89,0,0,1-1.29-5.56c-.15-1.37.26-3.74,2-3.74,1.94,0,3,2.06,3,2.06v10.58Z" transform="translate(0 0.5)" fill="#cd7340"/><path d="M1050.38,1740.55h1.21c1.24,0,2.11-2.23,2.48-3.34a28.44,28.44,0,0,0,1.29-5.56c.16-1.37-.24-3.74-1.95-3.74-1.94,0-3,2.06-3,2.06v10.58Z" transform="translate(0 0.5)" fill="#cd7340"/><path d="M1002.11,1693.53c7.38-5.84,23.31-9.37,36.83.09,11.25,7.89,12.67,22.13,12.67,22.13v34.65c0,2.27-19.93,25.65-24.41,25.65h-12.62c-4.5,0-24-23.38-24-25.65v-36s.93-12.57,11.48-20.91" transform="translate(0 0.5)" fill="#cd7340"/><path d="M1001.5,1694c3.07-1.35,5.62-2.36,5.62-2.18,0,.45,1.58,7,1.58,7s-8.44,3.48-8.44,10.91-9.63,5-9.63,12.89v-8.18A32.3,32.3,0,0,1,1001.5,1694" transform="translate(0 0.5)" fill="#3b0807"/><path d="M1040.72,1694c-3-1.35-5.59-2.36-5.59-2.18,0,.45-1.59,7-1.59,7s8.44,3.48,8.44,10.91,9.63,5,9.63,12.89v-8.18a32.21,32.21,0,0,0-10.89-20.41" transform="translate(0 0.5)" fill="#3b0807"/><path d="M1047.82,1708.48v18.26c0,8.08,3.79,11.23,3.79,11.23v-14.3a31,31,0,0,0-3.79-15.19" transform="translate(0 0.5)" fill="#3b0807"/><path d="M994.4,1708.48v18.26c0,8.08-3.77,11.23-3.77,11.23v-14.3a31.09,31.09,0,0,1,3.77-15.19Z" transform="translate(0 0.5)" fill="#3b0807"/><path d="M1040.23,1688.86c-.72-6-5.45-12.21-20.92-13.13s-18.32,12.34-26.57,17.36-6,16.16-1.93,21.72c0,0,.06-13.84,12.43-14.47a39,39,0,0,1,13.56,1.8c4.8,1.36,8.8,2.72,14.38,1.11,6.13-1.77,9.91-7.31,9-14.39" transform="translate(0 0.5)" fill="#3b0807"/><path d="M1037.61,1686.55s12.76,4.15,14.78,17.08-2.61,20.07-2.61,20.07-3.31-20.66-18-22.7c0,0-5.86-8.78,5.87-14.45" transform="translate(0 0.5)" fill="#3b0807"/><path d="M1029.93,1702.26c.61-.41,1.21-.84,1.78-1.31l0,0,.67.11a13,13,0,0,1-2.48,1.15m6.9-15.32a30.47,30.47,0,0,0-1.65-4.91,16,16,0,0,1,2.47,4.53h0l-.78.39" transform="translate(0 0.5)" fill="#682f26"/><path d="M1032.41,1701.11l-.67-.11,0,0a14.06,14.06,0,0,0,5.2-7.62,13.17,13.17,0,0,0-.08-6.39l.78-.39h0a12.76,12.76,0,0,1,.48,7.07,12.5,12.5,0,0,1-5.72,7.48" transform="translate(0 0.5)" fill="#682f26"/><path d="M1010.05,1699.29a25.81,25.81,0,0,0-.58-8.9,10.33,10.33,0,0,0-1.9-3.86,11.86,11.86,0,0,0-3.39-2.87,8.2,8.2,0,0,1,4.12,2.23,10,10,0,0,1,2.38,4.16,14.8,14.8,0,0,1-.63,9.24" transform="translate(0 0.5)" fill="#682f26"/><path d="M1012.14,1699.86a28.94,28.94,0,0,0,.34-10.35,15.66,15.66,0,0,0-1.55-4.84,18.87,18.87,0,0,0-3-4.26,11.92,11.92,0,0,1,3.83,3.78,14.26,14.26,0,0,1,2,5.11,17.77,17.77,0,0,1-1.58,10.56" transform="translate(0 0.5)" fill="#682f26"/><path d="M1014.52,1700.25a43.25,43.25,0,0,0,1.31-11.31,21.06,21.06,0,0,0-3-10.77,13.31,13.31,0,0,1,3.18,4.91,19.62,19.62,0,0,1,1.12,5.82,23.84,23.84,0,0,1-2.57,11.35" transform="translate(0 0.5)" fill="#682f26"/><path d="M1022.25,1702.26a27.35,27.35,0,0,0,4-12.07,24.34,24.34,0,0,0-2.53-12.42,18.34,18.34,0,0,1,3.78,12.52,19.85,19.85,0,0,1-5.29,12" transform="translate(0 0.5)" fill="#682f26"/><path d="M1020,1701.86a29,29,0,0,0,2.05-5.94,24.16,24.16,0,0,0,.67-6.15,27.28,27.28,0,0,0-3.06-12,19.56,19.56,0,0,1,.34,24.09" transform="translate(0 0.5)" fill="#682f26"/><path d="M1027.8,1702.54a30.72,30.72,0,0,0,3-3.56c.11.32.22.6.33.85a16,16,0,0,1-3.33,2.71m6.56-14a21.29,21.29,0,0,0-2.1-8.1,15.58,15.58,0,0,1,2.83,5.65,12.55,12.55,0,0,1,.32,1.71c-.37.25-.72.49-1.05.74" transform="translate(0 0.5)" fill="#682f26"/><path d="M1031.13,1699.83c-.11-.25-.22-.53-.33-.85a18.32,18.32,0,0,0,3.16-6.77,13.63,13.63,0,0,0,.4-3.7c.33-.25.68-.49,1.05-.74a14.89,14.89,0,0,1-.23,4.71,16.68,16.68,0,0,1-4,7.35" transform="translate(0 0.5)" fill="#682f26"/><path d="M1017.42,1700.89a28.31,28.31,0,0,0,1.42-6,26.45,26.45,0,0,0,.16-6,34.26,34.26,0,0,0-3.2-11.7,22,22,0,0,1,4.46,11.6,19.9,19.9,0,0,1-2.84,12.08" transform="translate(0 0.5)" fill="#682f26"/><path d="M1024.6,1702.26a15.78,15.78,0,0,0,5.42-10.71c.47-4.07-.5-8.19-1.64-12.26a21.62,21.62,0,0,1,2.9,12.39c0,.12,0,.25,0,.37a8.09,8.09,0,0,0-1,3.7,12.21,12.21,0,0,1-5.68,6.51" transform="translate(0 0.5)" fill="#682f26"/><path d="M1030.28,1695.75a8.09,8.09,0,0,1,1-3.7,14.94,14.94,0,0,1-1,3.7" transform="translate(0 0.5)" fill="#682f26"/><path d="M1038.42,1700.89a9.93,9.93,0,0,1,4.26-4.15,8.91,8.91,0,0,1,3.82-1,5.72,5.72,0,0,1,2.09.37,19.77,19.77,0,0,0-2.8.63,13.24,13.24,0,0,0-2.55,1.07,37.7,37.7,0,0,0-4.82,3" transform="translate(0 0.5)" fill="#682f26"/><path d="M1039.88,1702.26a7.4,7.4,0,0,1,4.34-3.47,10.4,10.4,0,0,1,2.82-.41,7.31,7.31,0,0,1,2.74.5,33.23,33.23,0,0,0-5.17,1.1,18.37,18.37,0,0,0-4.73,2.28" transform="translate(0 0.5)" fill="#682f26"/><path d="M1041.19,1703.32a7.55,7.55,0,0,1,5.64-2.4,7.08,7.08,0,0,1,4.62,1.62,27.93,27.93,0,0,0-3.92-.43,8.9,8.9,0,0,0-1.26.09,20.39,20.39,0,0,0-5.08,1.12" transform="translate(0 0.5)" fill="#682f26"/><path d="M1051.45,1705.56c-1.59-.18-3-.52-4.41-.54a12.44,12.44,0,0,0-1.37-.07c-1,0-2,.09-3,.18a6.2,6.2,0,0,1,4.32-1.37h.15a7.14,7.14,0,0,1,4.33,1.8" transform="translate(0 0.5)" fill="#682f26"/><path d="M1051.45,1709.17a18.48,18.48,0,0,0-3.86-1.48,25.62,25.62,0,0,0-4.09-.69,5,5,0,0,1,2.72-.72,8,8,0,0,1,1.69.19,5.53,5.53,0,0,1,3.54,2.7" transform="translate(0 0.5)" fill="#682f26"/><path d="M1037.32,1699.61a7,7,0,0,1,2.06-4.92,6.55,6.55,0,0,1,4.44-1.94l.54,0a14,14,0,0,0-4.09,2.8,18.23,18.23,0,0,0-3,4" transform="translate(0 0.5)" fill="#682f26"/><path d="M1006.05,1698.81a16.9,16.9,0,0,0,0-7.32,10.58,10.58,0,0,0-4.09-5.86,7.8,7.8,0,0,1,5.31,5.54,10.19,10.19,0,0,1-1.26,7.64" transform="translate(0 0.5)" fill="#682f26"/><path d="M1002.76,1698.81a39,39,0,0,0-.28-5.8,9.24,9.24,0,0,0-2.19-5.12,4.89,4.89,0,0,1,2.36,2,8.06,8.06,0,0,1,1.07,3,10.41,10.41,0,0,1-1,6" transform="translate(0 0.5)" fill="#682f26"/><path d="M1000,1698.81a24.87,24.87,0,0,0-.36-4.46,5.74,5.74,0,0,0-2.19-3.57,3.6,3.6,0,0,1,2.24,1,5.18,5.18,0,0,1,1.18,2.26,6.66,6.66,0,0,1-.87,4.72" transform="translate(0 0.5)" fill="#682f26"/><path d="M997.43,1699.86a14.11,14.11,0,0,0-.3-3.63,3.79,3.79,0,0,0-.67-1.49,9.84,9.84,0,0,0-1.26-1.39,3.24,3.24,0,0,1,1.95.71,3.71,3.71,0,0,1,1.19,1.84,4.48,4.48,0,0,1-.91,4" transform="translate(0 0.5)" fill="#682f26"/><path d="M995.66,1700.89a14.16,14.16,0,0,0-1.42-3,22.65,22.65,0,0,0-2-2.64,4.25,4.25,0,0,1,3.11,2,4,4,0,0,1,.36,3.66" transform="translate(0 0.5)" fill="#682f26"/><path d="M993.94,1703.15a9.72,9.72,0,0,0-1.61-3.29,10.64,10.64,0,0,0-2.8-2.38l.48,0a3.93,3.93,0,0,1,1.58.33,4.58,4.58,0,0,1,1.73,1.3,4.2,4.2,0,0,1,.62,4.07" transform="translate(0 0.5)" fill="#682f26"/><path d="M993,1705.79a20.12,20.12,0,0,0-2-2.9c-.67-.91-1.54-1.59-2.43-2.57a4.86,4.86,0,0,1,3.4,1.77,4.49,4.49,0,0,1,1,3.7" transform="translate(0 0.5)" fill="#682f26"/><polyline points="782.09 2007.66 813.3 2007.66 810.12 1983.45 785.3 1983.45 782.09 2007.66" fill="#b9723f"/><polygon points="781.47 2007.66 797.87 2007.66 813.93 2007.66 814.07 2009.07 797.87 2029.11 781.32 2009.07 781.47 2007.66 781.47 2007.66" fill="#b9723f"/><path d="M763.39,2064.33l-4.25-51.47,22.33-5.69s7.27,9.9,16.39,9.9c7.18,0,16.07-9.9,16.07-9.9l22.65,5.69-4.3,51.47Z" transform="translate(0 0.5)" fill="#fff"/><polygon points="745.32 2064.83 746.57 2021.86 759.14 2013.36 763.29 2059.86 763.14 2064.83 745.32 2064.83 745.32 2064.83" fill="#b9723f"/><polygon points="832.59 2064.83 832.44 2059.86 836.58 2013.36 849.12 2021.86 851.21 2064.83 832.59 2064.83 832.59 2064.83" fill="#b9723f"/><polygon points="761.86 2043.86 759.14 2013.36 746.57 2021.86 745.93 2043.86 761.86 2043.86 761.86 2043.86" fill="#fff"/><polygon points="850.19 2043.86 849.12 2021.86 836.58 2013.36 833.87 2043.86 850.19 2043.86 850.19 2043.86" fill="#fff"/><path d="M784,1992.49l0,0,1.26-9.52h0l-1.26,9.54" transform="translate(0 0.5)" fill="#ccc"/><path d="M804.41,1997.46H791.32c-1.35,0-4.13-2-7.28-5l1.26-9.54h24.81l1.28,9.74c-3,2.83-5.65,4.77-7,4.77" transform="translate(0 0.5)" fill="#945b32"/><path d="M768,1958.32h-1.35c-1.36,0-2.32-2.46-2.73-3.69a33.71,33.71,0,0,1-1.41-6.12c-.16-1.51.28-4.12,2.15-4.12,2.14,0,3.34,2.27,3.34,2.27v11.66Z" transform="translate(0 0.5)" fill="#b9723f"/><path d="M827.53,1958.32h1.33c1.37,0,2.33-2.46,2.73-3.69a34.23,34.23,0,0,0,1.43-6.12c.17-1.51-.28-4.12-2.15-4.12-2.15,0-3.34,2.27-3.34,2.27v11.66Z" transform="translate(0 0.5)" fill="#b9723f"/><path d="M779,1910.65c7.37-5.84,23.29-9.37,36.82.1,11.27,7.88,12.67,22.12,12.67,22.12v34.64c0,2.28-19.91,25.66-24.41,25.66H791.46c-4.46,0-23.92-23.38-23.92-25.66v-35.94s.94-12.59,11.48-20.92Z" transform="translate(0 0.5)" fill="#b9723f"/><path d="M797.81,1988.43h-.14c-4,.08-6.62,3.75-6.63,3.76a4.45,4.45,0,0,0,2.1,1h9.45a4.49,4.49,0,0,0,2.1-1s-2.89-3.68-6.88-3.76Z" transform="translate(0 0.5)" fill="#100201"/><path d="M778.41,1911.16c3.07-1.34,5.59-2.38,5.59-2.19,0,.45,1.6,7,1.6,7s-8.44,3.48-8.44,10.91-9.62,5-9.62,12.88v-8.17a32.14,32.14,0,0,1,10.87-20.41Z" transform="translate(0 0.5)" fill="#3b0807"/><path d="M817.63,1911.16c-3.06-1.34-5.59-2.38-5.59-2.19,0,.45-1.6,7-1.6,7s8.44,3.48,8.44,10.91,9.63,5,9.63,12.88v-8.17a32.18,32.18,0,0,0-10.88-20.41Z" transform="translate(0 0.5)" fill="#3b0807"/><path d="M823.76,1925.61v18.26c0,8.07,4.75,11.22,4.75,11.22v-14.3c0-5.75-2.39-11-4.75-15.18Z" transform="translate(0 0.5)" fill="#100201"/><path d="M772.28,1925.61v18.26c0,8.07-4.74,11.22-4.74,11.22v-14.88c0-5.75,2.37-10.44,4.74-14.6Z" transform="translate(0 0.5)" fill="#100201"/><path d="M828.56,1935.73a27.07,27.07,0,0,0,.26-3.73c0-15.57-13.72-28.19-30.65-28.19s-30.63,12.62-30.63,28.19a25.59,25.59,0,0,0,.26,3.73s16.25-4.71,30.37-4.71c12.93,0,30.39,4.71,30.39,4.71Z" transform="translate(0 0.5)" fill="#111"/><path d="M798.17,1926.12c-12.55,0-26.76,3.44-30.59,4.44,0,.48,0,1,0,1.44a25.59,25.59,0,0,0,.26,3.73c15.54-4.51,15.53-4.71,30.37-4.71,12.93,0,30.39,4.71,30.39,4.71a27.07,27.07,0,0,0,.26-3.73c0-.47,0-1,0-1.42-4-1-19-4.46-30.61-4.46Z" transform="translate(0 0.5)"/><polygon points="797.36 1921.54 802.68 1919.98 800.8 1923.44 798.93 1926.91 795.47 1925 792.02 1923.09 797.36 1921.54 797.36 1921.54" fill="red"/><path d="M787.38,1923.06l-.93.12,0-.29-.07-.24-.13-.05-.13.1v.23l.09.28.31.21a2.6,2.6,0,0,1,.94.54,1.51,1.51,0,0,1,.29.81v.62l-.34.38-.63.22-.72-.06-.42-.34-.18-.66,0-.26.94-.13.07.48.07.27.15,0,.14-.1,0-.24-.15-.44-.52-.29-.55-.3-.24-.28-.16-.5,0-.67.33-.37.6-.2.69,0,.41.27.18.64v.16Z" transform="translate(0 0.5)" fill="#f1eeec"/><path d="M789.15,1924.21c-.1-.44-.21-1-.33-1.62,0,.76,0,1.31,0,1.66l.35,0Zm.26-2.57,1,3.84-1,.12-.13-.7-.36,0,0,.7-1,.12.09-4,1.46-.17Z" transform="translate(0 0.5)" fill="#f1eeec"/><polygon points="793.41 1921.8 793.72 1925.71 792.83 1925.78 792.63 1923.14 792.48 1925.81 791.85 1925.86 791.27 1923.31 791.47 1925.89 790.58 1925.96 790.27 1922.05 791.59 1921.94 791.78 1922.77 792 1923.75 792.09 1921.9 793.41 1921.8 793.41 1921.8" fill="#f1eeec"/><path d="M795,1921.9l0,1h.07l.19-.08,0-.29v-.32l-.08-.26-.26,0Zm-1-.63,1,0,.64,0,.35.17.17.3.06.54,0,.34-.06.55-.28.28-.53.11h-.27l.06,1.58-1,0-.16-3.92Z" transform="translate(0 0.5)" fill="#f1eeec"/><polygon points="797.6 1921.65 797.63 1924.79 798.25 1924.79 798.26 1925.57 796.62 1925.59 796.58 1921.66 797.6 1921.65 797.6 1921.65" fill="#f1eeec"/><polygon points="798.5 1921.64 800.19 1921.68 800.18 1922.46 799.5 1922.45 799.48 1923.19 800.12 1923.2 800.11 1923.95 799.47 1923.94 799.45 1924.8 800.2 1924.82 800.19 1925.6 798.42 1925.57 798.5 1921.64 798.5 1921.64" fill="#f1eeec"/><polygon points="804.6 1921.95 804.55 1922.73 803.94 1922.69 803.71 1925.82 802.69 1925.74 802.92 1922.61 802.32 1922.57 802.38 1921.79 804.6 1921.95 804.6 1921.95" fill="#f1eeec"/><polygon points="804.86 1921.98 806.55 1922.15 806.47 1922.93 805.79 1922.86 805.72 1923.6 806.35 1923.66 806.28 1924.41 805.65 1924.35 805.56 1925.2 806.31 1925.28 806.23 1926.06 804.47 1925.89 804.86 1921.98 804.86 1921.98" fill="#f1eeec"/><path d="M809,1921.94l-.56,1.68.28,2.23-.94-.11a12.74,12.74,0,0,1-.14-1.45l-.2.77-.17.62-1-.11.63-2.13-.17-1.77,1,.12,0,.55.05.53.34-1,.85.1Z" transform="translate(0 0.5)" fill="#f1eeec"/><polygon points="811.47 1922.78 811.36 1923.56 810.76 1923.47 810.33 1926.58 809.32 1926.44 809.75 1923.33 809.15 1923.25 809.26 1922.47 811.47 1922.78 811.47 1922.78" fill="#f1eeec"/><path d="M797.86,1898.17c-19.4,0-35.17,16.5-35.17,36.79v.77h3.51V1935c0-18.37,14.2-33.3,31.66-33.3s31.67,14.93,31.67,33.3v.77H833V1935c0-20.29-15.77-36.79-35.17-36.79Z" transform="translate(0 0.5)" fill="#111"/><path d="M831.72,1935h-.87c0-19.07-14.8-34.6-33-34.6s-33,15.53-33,34.6H764c0-19.56,15.16-35.47,33.85-35.47s33.86,15.91,33.86,35.47Z" transform="translate(0 0.5)" fill="gray"/><path d="M758.72,1936.91v19.89c-2.39-.38-4.26-4.68-4.26-10s1.87-9.57,4.26-9.94Z" transform="translate(0 0.5)" fill="#111"/><path d="M758.08,1936.2c.38-1.09,1.15-1.33,2.25-1.86s1.68-.79,2.4-1.12v27.28c-.72-.34-1.4-.64-2.4-1.14s-1.87-.76-2.25-1.85c-1.42-4.21-1.42-17.1,0-21.31Z" transform="translate(0 0.5)" fill="#666"/><path d="M760.69,1959.25a1.85,1.85,0,0,0,1.61,2h4.1a1.83,1.83,0,0,0,1.58-2v-24.79a1.85,1.85,0,0,0-1.58-2h-4.1a1.86,1.86,0,0,0-1.61,2v24.79Z" transform="translate(0 0.5)" fill="#111"/><path d="M837.8,1936.91v19.89c2.37-.38,4.23-4.68,4.23-10s-1.86-9.57-4.23-9.94Z" transform="translate(0 0.5)" fill="#111"/><path d="M838.43,1936.2c-.37-1.09-1.14-1.33-2.24-1.86l-2.41-1.12v27.28c.72-.34,1.39-.64,2.41-1.14s1.87-.76,2.24-1.85c1.42-4.21,1.42-17.1,0-21.31Z" transform="translate(0 0.5)" fill="#666"/><path d="M835.81,1959.25a1.83,1.83,0,0,1-1.6,2h-4.1a1.84,1.84,0,0,1-1.6-2v-24.79a1.86,1.86,0,0,1,1.6-2h4.1a1.85,1.85,0,0,1,1.6,2v24.79Z" transform="translate(0 0.5)" fill="#111"/><path d="M407.71,180.44a9,9,0,0,1,7.35,3.85q3,3.86,7.7,15.93,11,28.51,21.53,89.42a9.29,9.29,0,0,1,.17,2,4,4,0,0,1-1.66,2.8,6.8,6.8,0,0,1-4.72,1.49,8.65,8.65,0,0,1-5.17-1.49,7.55,7.55,0,0,1-2.8-4.9q-.69-3.41-2.62-13.38-4.2-22.23-5.6-23.1-2.1-1.23-13.91-2.63T392.31,249c-2.56,0-4.08.24-4.55.7q-3.15,2.81-8.57,42.53-.7,3.32-6.65,3.32t-6-5.07q0-12.6,9.27-48.13t15.4-47.07Q399,180.44,407.71,180.44Zm-.7,19.43q-2.62,0-9.1,15.48t-6.47,19.17a1.66,1.66,0,0,0,.35,1.22q1.4,1.41,11,2.45t12.78,1.05c2.1,0,3.26-.14,3.5-.44a6.17,6.17,0,0,0,.35-2.8q0-2.35-4.73-19.25T407,199.87Z" transform="translate(0 0.5)"/><path d="M477,270.22l.18,18A7.75,7.75,0,0,1,474.3,294a8.58,8.58,0,0,1-5.69,2.62q-4,0-5.07-6.3-.18-1.39-1.4-25.64t-4.73-38.06a58.62,58.62,0,0,1-1.57-7.87q0-5.78,7-5.78a5.64,5.64,0,0,1,4.72,2.28,10.78,10.78,0,0,1,2.19,4.63q.44,2.37.79,6.39c.23,2.69.4,4.38.52,5.08a26.79,26.79,0,0,1,11-13.13,30.94,30.94,0,0,1,16.1-4.37q14.34,0,14.35,7.35a7.35,7.35,0,0,1-2.54,5.86,8.71,8.71,0,0,1-5.86,2.19q-14.88,0-21,9.45T477,270.22Z" transform="translate(0 0.5)"/><path d="M547,214.74a32.1,32.1,0,0,1,17.68,5.43q8.4,5.42,8.39,13.38T566.26,249q-6.82,7.44-18.2,9a114.4,114.4,0,0,1-14.7.7q1.92,14.86,7.53,19.6a6.06,6.06,0,0,0,4.72,1.92,25.55,25.55,0,0,0,18.2-6.91q7.35-6.91,10.5-6.91,1.4,0,4.2,2.62c1.87,1.75,2.8,3.39,2.8,4.9q0,4.56-11,13.13a43.39,43.39,0,0,1-11.82,6.73,35.35,35.35,0,0,1-12.86,2.72q-15.23,0-22.4-19.6a74.75,74.75,0,0,1-4.55-26.6q0-14.53,6.83-25T547,214.74Zm.88,12.08q-6.66,0-11.38,7.52-1.75,2.63-3.32,11.9,24.49,0,24.5-12.07Q557.69,226.82,547.89,226.82Z" transform="translate(0 0.5)"/><path d="M687.53,214.92a7.58,7.58,0,0,1,4.47,1.57,4.4,4.4,0,0,1,2.18,3.5q0,5.08-14.87,54.95t-22,70c-1,3.15-2.69,4.73-4.9,4.73a6.39,6.39,0,0,1-5.25-2.37c-1.29-1.57-1.93-3.88-1.93-6.91s2-10.3,5.87-21.79,6.27-18.81,7.08-22q-4.36-7.35-29.57-73.5a6,6,0,0,1-.35-2.27c0-.94.7-2.16,2.1-3.68a7.48,7.48,0,0,1,5.77-2.27c2.45,0,4.44,1.22,5.95,3.67q2.46,6.3,8.05,22t8.67,22.67q3.06,7,5.86,14.52,2.45-8.22,8.4-31.94t6.82-27Q680.53,214.91,687.53,214.92Z" transform="translate(0 0.5)"/><path d="M736.71,214.22q12.6,0,20.73,12.07t8.14,29q0,16.89-8.31,28.79t-22,11.9q-13.74,0-22.14-12.16a46.51,46.51,0,0,1-8.4-27q0-19.06,7.7-30.45Q720.6,214.22,736.71,214.22Zm-2.1,14.35q-7.35,0-12.08,7.7a30.61,30.61,0,0,0-4.72,16.27q0,13.31,5.25,20.3t11.9,7q11.89,0,15.22-10.32a45.51,45.51,0,0,0,1.4-12.25Q751.58,228.56,734.61,228.57Z" transform="translate(0 0.5)"/><path d="M778.88,215.88a7,7,0,0,1,4.64-2,6.6,6.6,0,0,1,3.67.87,4,4,0,0,1,1.58,1.58,18,18,0,0,1,.61,2.45q-1.05,13.65-1,24.58a138.38,138.38,0,0,0,2.63,25q2.63,14.08,5.77,14.09,4.72,0,12-5.25t10.41-11Q817,241,817,223a9.11,9.11,0,0,1,2.36-6.3,7.4,7.4,0,0,1,5.69-2.63q5.43,0,5.43,7.35,0,12.44,1.83,36.93t3.77,31.15a13.54,13.54,0,0,1,.35,3.23c0,1.23-.79,2.4-2.37,3.5a10.37,10.37,0,0,1-6.12,1.67q-3.76,0-5-4.2-.35-3.51-1.75-10.5Q809,295.94,796.56,295.94a14.53,14.53,0,0,1-10.33-4.37,29.88,29.88,0,0,1-7.17-11.9,91.38,91.38,0,0,1-4.55-27.3q0-12.78,1.4-31.5A9.27,9.27,0,0,1,778.88,215.88Z" transform="translate(0 0.5)"/><path d="M897.88,293.93a8.87,8.87,0,0,1-6,2.54c-2.16,0-3.64-1.4-4.46-4.2q-.52-23.1-.52-46l-.53-44.1q0-13.29,11.73-18.2,9.45-4.37,22.4-4.37a36.73,36.73,0,0,1,14.26,3.23,41.8,41.8,0,0,1,13.65,9.45q6,6.23,6,13.48t-6.66,15.57A68.84,68.84,0,0,1,931.31,236a85.81,85.81,0,0,1-19.08,9.54A175.71,175.71,0,0,1,940.58,270q12.07,13.05,12.08,20.22a5.74,5.74,0,0,1-2.28,4.28,8,8,0,0,1-5.51,2,6.88,6.88,0,0,1-5.51-2.8q-3.86-9.29-14.62-19.52a171.25,171.25,0,0,0-25.11-19.51l1,33.6A7.54,7.54,0,0,1,897.88,293.93Zm28.44-68q14.61-9.27,14.61-16.71t-7.35-11.46a35.63,35.63,0,0,0-17.41-4q-10.06,0-16,2.45-.18,8.92-.18,39.55Q911.7,235.21,926.32,225.94Z" transform="translate(0 0.5)"/><path d="M991.15,214.74a32,32,0,0,1,17.68,5.43q8.4,5.42,8.4,13.38T1010.4,249q-6.82,7.44-18.2,9a114.19,114.19,0,0,1-14.7.7q1.93,14.86,7.53,19.6a6.06,6.06,0,0,0,4.72,1.92,25.53,25.53,0,0,0,18.2-6.91q7.35-6.91,10.5-6.91,1.41,0,4.2,2.62c1.87,1.75,2.8,3.39,2.8,4.9q0,4.56-11,13.13a43.48,43.48,0,0,1-11.81,6.73,35.4,35.4,0,0,1-12.87,2.72q-15.22,0-22.4-19.6a75,75,0,0,1-4.55-26.6q0-14.53,6.83-25T991.15,214.74Zm.88,12.08q-6.66,0-11.38,7.52-1.74,2.63-3.32,11.9,24.49,0,24.5-12.07Q1001.83,226.82,992,226.82Z" transform="translate(0 0.5)"/><path d="M1084.43,214q7.69,0,7.7,13.13v3l-.35,12.25q-.18,5.78-.18,11.38l2.63,39.55q0,4.37-8.93,4.37h-2.53a2.84,2.84,0,0,1-2.8-1.57,5.3,5.3,0,0,1-.18-3.85,8.23,8.23,0,0,0-.44-5.08q-8,8.58-21.35,8.58-24.68,0-24.67-38.15,0-21.18,8-32t22.84-10.85a42.27,42.27,0,0,1,14,2.45A7.32,7.32,0,0,1,1084.43,214ZM1066.23,230q-10,0-14.88,5.77t-4.9,21.18q0,25.89,14,25.9c2.45,0,5.17-1.11,8.14-3.33a18.1,18.1,0,0,0,6.21-7.52,61.77,61.77,0,0,0,3.33-20.65q0-11.2-2.71-16.28T1066.23,230Z" transform="translate(0 0.5)"/><path d="M1167.73,269.69q6.12,0,6.12,10.33,0,5.6-6,11.11t-13.22,5.51q-10.66,0-15.75-10.85a20.33,20.33,0,0,1-7.26,7.61,18.18,18.18,0,0,1-10,3.24,17.28,17.28,0,0,1-8.58-2,14.72,14.72,0,0,1-5.77-6,51.92,51.92,0,0,1-3.5-7.79,45.92,45.92,0,0,1-2-9.18q-.87-8.76-1.31-28.09T1100,206.6q0-17.58.44-24.15t2.1-8.57a6.32,6.32,0,0,1,5.16-2q7.69,0,7.7,6.12,0,4.72-.78,24.68t-.79,35.7a211,211,0,0,0,1.22,25.37q2.1,16.8,6,16.8t6-5.42a8.55,8.55,0,0,1,2.63-3.77,7.25,7.25,0,0,1,4.9-1.66h.35q-1.57-15.39-1.58-48t.44-39.2q.43-6.55,2.1-8.57a6.32,6.32,0,0,1,5.16-2q7.69,0,7.7,6.12,0,4.72-.78,24.68t-.79,35.7a211,211,0,0,0,1.22,25.37q2.1,16.8,6,16.8t6-5.42a8.55,8.55,0,0,1,2.63-3.77A7.25,7.25,0,0,1,1167.73,269.69Z" transform="translate(0 0.5)"/><path d="M1235.45,214.92a7.58,7.58,0,0,1,4.47,1.57,4.4,4.4,0,0,1,2.18,3.5q0,5.08-14.87,54.95t-22,70c-1,3.15-2.69,4.73-4.9,4.73a6.39,6.39,0,0,1-5.25-2.37c-1.29-1.57-1.93-3.88-1.93-6.91s2-10.3,5.86-21.79,6.28-18.81,7.09-22q-4.38-7.35-29.57-73.5a6,6,0,0,1-.35-2.27c0-.94.7-2.16,2.1-3.68a7.48,7.48,0,0,1,5.77-2.27q3.68,0,6,3.67,2.44,6.3,8,22t8.67,22.67q3.06,7,5.86,14.52,2.45-8.22,8.4-31.94t6.82-27Q1228.46,214.91,1235.45,214.92Z" transform="translate(0 0.5)"/><path d="M249.25,394.47a11.18,11.18,0,0,1,6.21-1.75c2.34,0,3.79,1.34,4.38,4q.17,20.31.7,60.73,0,24.67-1.4,41.82a6.85,6.85,0,0,1-3.24,4.64,10.16,10.16,0,0,1-5.86,2q-4.9,0-4.9-5.07,1.74-17.5,1.75-43.4l-1-58.8A7.45,7.45,0,0,1,249.25,394.47Z" transform="translate(0 0.5)"/><path d="M286.26,500.34l-1.92-71a7,7,0,0,1,2.27-5.42,6.78,6.78,0,0,1,4.55-2.1q5.59,0,6.48,4.72a67.78,67.78,0,0,1,.7,9.8q9.45-12.42,23.62-12.42,21.71,0,21.7,49.52v13.74q0,9.18-1.05,13.39-1.23,5.25-7.52,5.25-4.2,0-4.2-5.6l.17-9.8q0-20.31-1.31-27.74t-2.54-11.81q-3-9.45-9.62-9.45-8.76,0-12.25,6.3a38.07,38.07,0,0,0-4.55,16.1q-1.23,16.28-1.23,34.47a6.79,6.79,0,0,1-2.62,5.6,9.77,9.77,0,0,1-6.3,2.1C287.72,505.94,286.26,504.08,286.26,500.34Z" transform="translate(0 0.5)"/><path d="M365.36,500.34l-1.92-71a7,7,0,0,1,2.27-5.42,6.78,6.78,0,0,1,4.55-2.1q5.6,0,6.48,4.72a67.78,67.78,0,0,1,.7,9.8q9.45-12.42,23.62-12.42,21.7,0,21.7,49.52v13.74q0,9.18-1.05,13.39-1.23,5.25-7.52,5.25-4.2,0-4.2-5.6l.17-9.8q0-20.31-1.31-27.74t-2.54-11.81q-3-9.45-9.62-9.45-8.76,0-12.25,6.3a38.07,38.07,0,0,0-4.55,16.1q-1.23,16.28-1.23,34.47a6.79,6.79,0,0,1-2.62,5.6,9.77,9.77,0,0,1-6.3,2.1C366.82,505.94,365.36,504.08,365.36,500.34Z" transform="translate(0 0.5)"/><path d="M468.78,424.22q12.6,0,20.74,12.07t8.14,29q0,16.89-8.31,28.79t-22.05,11.9q-13.74,0-22.14-12.16a46.51,46.51,0,0,1-8.4-27q0-19.07,7.7-30.45Q452.68,424.22,468.78,424.22Zm-2.1,14.35q-7.35,0-12.07,7.7a30.62,30.62,0,0,0-4.73,16.27q0,13.31,5.25,20.3t11.9,7q11.91,0,15.23-10.32a45.51,45.51,0,0,0,1.4-12.25Q483.66,438.56,466.68,438.57Z" transform="translate(0 0.5)"/><path d="M564.86,423.17a4.25,4.25,0,0,1,3.67,1.66,5.91,5.91,0,0,1,1.23,3.59l-.18,1.75q-7.35,18.72-10.85,30.45-2.26,8.22-3.41,12.25T551.56,487q-2.62,10.15-3.5,13.13c-1.64,4-4.49,5.95-8.58,5.95-2,0-3.38-1.29-4.2-3.85a293.27,293.27,0,0,0-16.45-39.55Q508,440.67,506.5,437.43a14.11,14.11,0,0,1-1.49-5.86,7.35,7.35,0,0,1,2.36-5.08,7.26,7.26,0,0,1,5.34-2.45q3,0,5.07,3.15,1.94,3.85,10.94,21.53t12.69,27.82a39.32,39.32,0,0,1,1.22-4.37q8.93-31,14.53-44.28Q560.13,423.17,564.86,423.17Z" transform="translate(0 0.5)"/><path d="M627.16,424q7.7,0,7.7,13.13v3l-.35,12.25q-.18,5.78-.18,11.38L637,503.32q0,4.37-8.93,4.37H625.5a2.84,2.84,0,0,1-2.8-1.57,5.3,5.3,0,0,1-.18-3.85,8.23,8.23,0,0,0-.44-5.08q-8,8.58-21.35,8.58-24.68,0-24.67-38.15,0-21.18,8-32t22.84-10.85a42.27,42.27,0,0,1,14,2.45A7.32,7.32,0,0,1,627.16,424ZM609,440q-10,0-14.88,5.77t-4.9,21.18q0,25.89,14,25.9c2.45,0,5.17-1.11,8.14-3.33a18.1,18.1,0,0,0,6.21-7.52,61.77,61.77,0,0,0,3.33-20.65q0-11.2-2.71-16.28T609,440Z" transform="translate(0 0.5)"/><path d="M651.31,424l8.75.18a14.58,14.58,0,0,0,3.32-.18V388.17a6.72,6.72,0,0,1,3-5.08,8.9,8.9,0,0,1,5.25-2.1,5.19,5.19,0,0,1,3.94,1.58c1,1.05,1.42,2.68,1.31,4.9s-.18,14.35-.18,36.4l20.48-.7q5.25,0,5.25,6.12c0,3-.91,5.31-2.71,6.83a9.83,9.83,0,0,1-5.78,2.45q-3.06.17-6,.17l-10.67-.17q0,7.17,1.49,28.35t2.36,27.38q.87,6.22.35,8.05a3.79,3.79,0,0,1-1.93,2.54,14.8,14.8,0,0,1-6.12,1.05q-3.86,0-4.55-4.2-3.51-22.92-4.73-63-1.58.18-12.07.18t-10.5-6.13Q641.51,424,651.31,424Z" transform="translate(0 0.5)"/><path d="M718.68,395.17a8.17,8.17,0,0,1,6,3,9,9,0,0,1,2.8,6.21q0,3.24-3.06,6.57T718,414.24a8.24,8.24,0,0,1-6-2.8,9.86,9.86,0,0,1-2.71-7.17q0-8.4,9.1-9.1Zm7.35,91.7.18,12.25a6.89,6.89,0,0,1-2.63,5.51,8.61,8.61,0,0,1-5.6,2.19c-2.92,0-4.43-1.46-4.55-4.38q-2.26-55.81-2.27-61.77t.52-14.53q.36-3.15,4-3.15,9.27,0,10.5,7.53a47.61,47.61,0,0,1,.52,6.12l-.7,11Z" transform="translate(0 0.5)"/><path d="M753,500.34l-1.92-71a7,7,0,0,1,2.27-5.42,6.78,6.78,0,0,1,4.55-2.1q5.6,0,6.48,4.72a67.78,67.78,0,0,1,.7,9.8q9.45-12.42,23.62-12.42,21.71,0,21.7,49.52v13.74q0,9.18-1,13.39-1.23,5.25-7.52,5.25-4.2,0-4.2-5.6l.17-9.8q0-20.31-1.31-27.74t-2.54-11.81q-3-9.45-9.62-9.45-8.76,0-12.25,6.3a38.07,38.07,0,0,0-4.55,16.1q-1.23,16.28-1.23,34.47a6.79,6.79,0,0,1-2.62,5.6,9.77,9.77,0,0,1-6.3,2.1C754.44,505.94,753,504.08,753,500.34Z" transform="translate(0 0.5)"/><path d="M875.66,498.59a20.08,20.08,0,0,1-15.93,7.35A24.79,24.79,0,0,1,843.11,500q-14.7-11.37-14.7-34.82,0-18.37,10.15-29.49a32.52,32.52,0,0,1,25-11.11q14.88,0,20.3,10.15,4.73,8.92,4.73,26.95L888.26,476q0,10.14,1,28.08t1,27q0,15-7.44,22.14t-22.66,7.09a49.06,49.06,0,0,1-18.55-3.85q-9.45-3.85-9.45-8.93a7.39,7.39,0,0,1,2-5.6,6.52,6.52,0,0,1,4.64-1.92q2.63,0,11.81,3.85t13.22,3.85q12.6,0,12.6-20.65T875.66,498.59Zm-.18-37q0-12.69-3.76-17.85t-11.81-5.16q-8.05,0-12.95,7.35t-4.9,18.63q0,11.29,4.63,17.94T861,489.14q9.62,0,12.42-8.22Q875.48,474.26,875.48,461.58Z" transform="translate(0 0.5)"/><path d="M982.23,390.44a9,9,0,0,1,7.35,3.85q3,3.85,7.7,15.93,11,28.51,21.52,89.42a8.6,8.6,0,0,1,.18,2,4.05,4.05,0,0,1-1.66,2.8,6.83,6.83,0,0,1-4.73,1.49,8.64,8.64,0,0,1-5.16-1.49,7.51,7.51,0,0,1-2.8-4.9q-.71-3.41-2.63-13.38-4.2-22.23-5.6-23.1-2.1-1.23-13.91-2.63c-7.87-.93-13.1-1.4-15.66-1.4s-4.09.24-4.55.7q-3.15,2.81-8.58,42.53-.69,3.32-6.65,3.32c-4,0-5.95-1.69-5.95-5.07q0-12.6,9.28-48.13t15.4-47.07Q973.47,390.44,982.23,390.44Zm-.7,19.43q-2.62,0-9.1,15.48T966,444.52a1.71,1.71,0,0,0,.35,1.22q1.41,1.41,11,2.45t12.77,1.05c2.1,0,3.27-.14,3.5-.44A6,6,0,0,0,994,446q0-2.36-4.72-19.25T981.53,409.87Z" transform="translate(0 0.5)"/><path d="M1051.53,480.22l.17,18a7.74,7.74,0,0,1-2.88,5.78,8.6,8.6,0,0,1-5.69,2.62q-4,0-5.08-6.3-.16-1.39-1.4-25.64t-4.72-38.06a59.5,59.5,0,0,1-1.58-7.87q0-5.77,7-5.78a5.66,5.66,0,0,1,4.73,2.28,11,11,0,0,1,2.19,4.63q.43,2.37.78,6.39c.24,2.69.41,4.38.53,5.08a26.78,26.78,0,0,1,11-13.13,31,31,0,0,1,16.1-4.37q14.35,0,14.35,7.35a7.35,7.35,0,0,1-2.53,5.86,8.73,8.73,0,0,1-5.87,2.19q-14.87,0-21,9.45T1051.53,480.22Z" transform="translate(0 0.5)"/><path d="M1127.3,424.22q12.6,0,20.74,12.07t8.14,29q0,16.89-8.32,28.79t-22,11.9q-13.74,0-22.13-12.16a46.51,46.51,0,0,1-8.4-27q0-19.07,7.7-30.45Q1111.2,424.22,1127.3,424.22Zm-2.1,14.35q-7.35,0-12.07,7.7a30.62,30.62,0,0,0-4.73,16.27q0,13.31,5.25,20.3t11.9,7q11.9,0,15.23-10.32a45.51,45.51,0,0,0,1.4-12.25Q1142.18,438.56,1125.2,438.57Z" transform="translate(0 0.5)"/><path d="M1169.48,425.88a7,7,0,0,1,4.63-2,6.61,6.61,0,0,1,3.68.87,3.88,3.88,0,0,1,1.57,1.58,17.58,17.58,0,0,1,.62,2.45q-1.05,13.65-1,24.58a138.29,138.29,0,0,0,2.62,25q2.63,14.08,5.78,14.09,4.73,0,12-5.25t10.42-11q-2.1-25.2-2.1-43.22a9.11,9.11,0,0,1,2.36-6.3,7.38,7.38,0,0,1,5.69-2.63q5.41,0,5.42,7.35,0,12.44,1.84,36.93t3.76,31.15a13.54,13.54,0,0,1,.35,3.23c0,1.23-.79,2.4-2.36,3.5a10.43,10.43,0,0,1-6.13,1.67q-3.76,0-5-4.2-.36-3.51-1.75-10.5-12.25,12.76-24.68,12.77a14.51,14.51,0,0,1-10.32-4.37,29.78,29.78,0,0,1-7.18-11.9,91.7,91.7,0,0,1-4.55-27.3q0-12.78,1.4-31.5A9.35,9.35,0,0,1,1169.48,425.88Z" transform="translate(0 0.5)"/><path d="M1243.5,500.34l-1.92-71a7,7,0,0,1,2.27-5.42,6.78,6.78,0,0,1,4.55-2.1q5.6,0,6.48,4.72a67.78,67.78,0,0,1,.7,9.8q9.45-12.42,23.62-12.42,21.71,0,21.7,49.52v13.74q0,9.18-1.05,13.39-1.23,5.25-7.52,5.25-4.2,0-4.2-5.6l.17-9.8q0-20.31-1.31-27.74t-2.54-11.81q-3-9.45-9.62-9.45-8.76,0-12.25,6.3a38.07,38.07,0,0,0-4.55,16.1q-1.23,16.28-1.23,34.47a6.79,6.79,0,0,1-2.62,5.6,9.77,9.77,0,0,1-6.3,2.1C1245,505.94,1243.5,504.08,1243.5,500.34Z" transform="translate(0 0.5)"/><path d="M1357.77,423.87l-.17-33.78q0-9.45,6-9.45t6.74,5.25q.34,2.28.87,27.48t1.66,47.25q1.14,22,1.14,41.12,0,5.25-7.88,5.25-5.25,0-5.25-7.35a27.86,27.86,0,0,1-17.84,5.95q-13.12,0-21.27-9.8t-8.14-24.15a62.51,62.51,0,0,1,5.87-26.86,35.16,35.16,0,0,1,18.29-17.94,37.52,37.52,0,0,1,14.87-3.32A34.8,34.8,0,0,1,1357.77,423.87Zm1,23.88a17.75,17.75,0,0,0-3.07-5.77,7,7,0,0,0-3.76-2.45,23.06,23.06,0,0,0-4.81-.44,15.48,15.48,0,0,0-6.83,2.1,17.39,17.39,0,0,0-6.82,6.83,38.31,38.31,0,0,0-5.6,19.86q0,10.41,4.11,17a13.07,13.07,0,0,0,11.73,6.57q7.61,0,12-7.53t4.38-19.25Q1360.05,451.52,1358.74,447.75Z" transform="translate(0 0.5)"/><path d="M172.69,634.92a7.55,7.55,0,0,1,4.46,1.57,4.39,4.39,0,0,1,2.19,3.5q0,5.09-14.87,55t-22.05,70c-1,3.15-2.69,4.73-4.9,4.73a6.39,6.39,0,0,1-5.25-2.37c-1.29-1.57-1.93-3.88-1.93-6.91s1.95-10.3,5.86-21.79,6.27-18.81,7.09-22q-4.38-7.35-29.57-73.5a6,6,0,0,1-.35-2.27c0-.94.7-2.16,2.1-3.68a7.48,7.48,0,0,1,5.77-2.27q3.67,0,6,3.67,2.44,6.3,8.05,22t8.66,22.67q3.06,7,5.87,14.52,2.44-8.22,8.4-31.94t6.82-27C165.46,636.2,168,634.92,172.69,634.92Z" transform="translate(0 0.5)"/><path d="M221.86,634.22q12.6,0,20.74,12.07t8.14,29q0,16.89-8.31,28.79t-22.05,11.9q-13.74,0-22.14-12.16a46.51,46.51,0,0,1-8.4-27q0-19.07,7.7-30.45Q205.76,634.22,221.86,634.22Zm-2.1,14.35q-7.35,0-12.07,7.7A30.62,30.62,0,0,0,203,672.54q0,13.31,5.25,20.3t11.9,7q11.91,0,15.23-10.32a45.51,45.51,0,0,0,1.4-12.25Q236.74,648.56,219.76,648.57Z" transform="translate(0 0.5)"/><path d="M264,635.88a7,7,0,0,1,4.64-2,6.6,6.6,0,0,1,3.67.87,4,4,0,0,1,1.58,1.58,19.63,19.63,0,0,1,.61,2.45q-1.05,13.65-1.05,24.58a138.29,138.29,0,0,0,2.62,25q2.63,14.08,5.78,14.09,4.73,0,12-5.25t10.41-11q-2.1-25.2-2.1-43.22a9.11,9.11,0,0,1,2.36-6.3,7.4,7.4,0,0,1,5.69-2.63q5.42,0,5.42,7.35,0,12.43,1.84,36.93t3.76,31.15a13,13,0,0,1,.35,3.23c0,1.23-.78,2.4-2.36,3.5a10.39,10.39,0,0,1-6.12,1.67c-2.51,0-4.18-1.4-5-4.2q-.36-3.51-1.75-10.5-12.25,12.76-24.68,12.77a14.51,14.51,0,0,1-10.32-4.37,29.78,29.78,0,0,1-7.18-11.9,91.7,91.7,0,0,1-4.55-27.3q0-12.78,1.4-31.5A9.35,9.35,0,0,1,264,635.88Z" transform="translate(0 0.5)"/><path d="M354,690.22l.17,18a7.74,7.74,0,0,1-2.88,5.78,8.6,8.6,0,0,1-5.69,2.62q-4,0-5.08-6.3-.17-1.4-1.4-25.64t-4.72-38.06a59.5,59.5,0,0,1-1.58-7.87q0-5.78,7-5.78a5.65,5.65,0,0,1,4.73,2.28,11,11,0,0,1,2.19,4.63q.43,2.37.78,6.39c.24,2.69.41,4.38.53,5.08a26.78,26.78,0,0,1,11-13.13,31,31,0,0,1,16.1-4.37q14.35,0,14.35,7.35a7.35,7.35,0,0,1-2.53,5.86,8.73,8.73,0,0,1-5.87,2.19q-14.87,0-21,9.45T354,690.22Z" transform="translate(0 0.5)"/><path d="M491.19,601.32a85.24,85.24,0,0,1,25.9,4.55q3.15,2.45,3.15,5.33a6.32,6.32,0,0,1-2.89,5.08,10.58,10.58,0,0,1-6.56,2.19A70.39,70.39,0,0,0,493.11,616q-18.9,0-28.7,11.2t-9.8,33.25q0,22,11.55,34.47a18.61,18.61,0,0,0,14.18,6.48q8.22,0,26.25-8.75,6.3-3,8.4-3,4.54,0,4.55,4.73t-4.38,7.87q-15,7.88-23.45,10.59a48.34,48.34,0,0,1-14.52,2.71,28.81,28.81,0,0,1-21.53-9.27q-15.93-17.16-15.92-46.82t15.13-43.92A51.09,51.09,0,0,1,491.19,601.32Z" transform="translate(0 0.5)"/><path d="M537.56,635.88a7,7,0,0,1,4.64-2,6.6,6.6,0,0,1,3.67.87,4,4,0,0,1,1.58,1.58,19.63,19.63,0,0,1,.61,2.45q-1,13.65-1,24.58a138.29,138.29,0,0,0,2.62,25q2.63,14.08,5.78,14.09,4.73,0,12-5.25t10.41-11q-2.1-25.2-2.1-43.22a9.11,9.11,0,0,1,2.36-6.3,7.4,7.4,0,0,1,5.69-2.63q5.41,0,5.42,7.35,0,12.43,1.84,36.93t3.76,31.15a13,13,0,0,1,.35,3.23c0,1.23-.78,2.4-2.36,3.5a10.39,10.39,0,0,1-6.12,1.67c-2.51,0-4.18-1.4-5-4.2q-.36-3.51-1.75-10.5-12.25,12.76-24.68,12.77a14.51,14.51,0,0,1-10.32-4.37,29.78,29.78,0,0,1-7.18-11.9,91.7,91.7,0,0,1-4.55-27.3q0-12.78,1.4-31.5A9.35,9.35,0,0,1,537.56,635.88Z" transform="translate(0 0.5)"/><path d="M615.26,639.82a25.83,25.83,0,0,1,17.06-6.13,50.66,50.66,0,0,1,18.64,3.5q8.92,3.51,8.92,9.28a5.65,5.65,0,0,1-2.27,4.72,6.89,6.89,0,0,1-3.94,1.75c-1.11,0-2,0-2.62-.09s-3-1.13-7-3.23a24.33,24.33,0,0,0-11.12-3.15,14.62,14.62,0,0,0-8.66,2.53,8.56,8.56,0,0,0-3.59,7.44,8.81,8.81,0,0,0,4.12,7.7q4.11,2.8,14.43,4.81t15.84,5.69q5.52,3.68,5.51,13.65,0,14.54-7.61,20.56t-18.46,6q-10.86,0-18.46-3T608.43,703q0-6.82,6.83-6.82c1.16,0,3.73.81,7.7,2.45a30.86,30.86,0,0,0,11.81,2.45q5.87,0,8.93-3.77a13.31,13.31,0,0,0,3.06-8.66,7.47,7.47,0,0,0-4-7.09q-4-2.17-12.25-3.58a62.19,62.19,0,0,1-12.07-3q-10.5-4.2-10.5-18.72Q607.91,645.93,615.26,639.82Z" transform="translate(0 0.5)"/><path d="M676.68,634l8.75.18a14.7,14.7,0,0,0,3.33-.18V598.17a6.71,6.71,0,0,1,3-5.08A9,9,0,0,1,697,591a5.16,5.16,0,0,1,3.94,1.58q1.49,1.57,1.31,4.9t-.17,36.4l20.47-.7q5.25,0,5.25,6.12c0,3-.9,5.31-2.71,6.83a9.83,9.83,0,0,1-5.77,2.45q-3.07.16-6,.17l-10.68-.17q0,7.17,1.49,28.35t2.36,27.38c.59,4.15.7,6.83.35,8.05a3.81,3.81,0,0,1-1.92,2.54,14.85,14.85,0,0,1-6.13,1.05q-3.84,0-4.55-4.2-3.49-22.92-4.72-63-1.58.18-12.08.18t-10.5-6.13Q666.88,634,676.68,634Z" transform="translate(0 0.5)"/><path d="M763.48,634.22q12.6,0,20.74,12.07t8.14,29q0,16.89-8.32,28.79t-22,11.9q-13.74,0-22.13-12.16a46.51,46.51,0,0,1-8.4-27q0-19.07,7.7-30.45Q747.38,634.22,763.48,634.22Zm-2.1,14.35q-7.35,0-12.07,7.7a30.62,30.62,0,0,0-4.73,16.27q0,13.31,5.25,20.3t11.9,7q11.89,0,15.23-10.32a45.51,45.51,0,0,0,1.4-12.25Q778.36,648.56,761.38,648.57Z" transform="translate(0 0.5)"/><path d="M813,715.94q-4.56,0-5.43-5.07,0-35.36-4.2-63a9.13,9.13,0,0,1,2.54-6.3,7.6,7.6,0,0,1,5.77-2.8q3.24,0,4.82,3.67a20.61,20.61,0,0,1,17.32-8.57q13.83,0,21.35,13.3,8.75-12.6,23.19-12.6T900,646.12q4.72,7.17,6.65,18.9t1.93,33.25q0,8.4-1.75,13t-7.35,4.64c-3,0-4.55-1.92-4.55-5.77l.52-21.88q0-39.37-20.47-39.37-6.48,0-9.1,4.55a28.55,28.55,0,0,0-3.5,11.37q-.71,10.5-.7,19.08v25.37a5.65,5.65,0,0,1-2.8,4.73,10.12,10.12,0,0,1-5.78,1.92q-3.86,0-4.9-5.07l.53-36.23q0-19.25-6.48-24-3.15-2.28-9.54-2.28t-9.45,4.73q-3.06,4.73-3.06,15.22l1.05,32.55Q821.23,715.95,813,715.94Z" transform="translate(0 0.5)"/><path d="M947.23,634.74a32.07,32.07,0,0,1,17.68,5.43q8.4,5.42,8.4,13.38T966.48,669q-6.83,7.44-18.2,9a114.4,114.4,0,0,1-14.7.7q1.92,14.87,7.53,19.6a6.06,6.06,0,0,0,4.72,1.92,25.55,25.55,0,0,0,18.2-6.91q7.35-6.91,10.5-6.91,1.4,0,4.2,2.62c1.87,1.75,2.8,3.39,2.8,4.9q0,4.56-11,13.13a43.39,43.39,0,0,1-11.82,6.73,35.35,35.35,0,0,1-12.86,2.72q-15.23,0-22.4-19.6a75,75,0,0,1-4.55-26.6q0-14.53,6.83-25T947.23,634.74Zm.88,12.08q-6.66,0-11.38,7.52-1.76,2.63-3.32,11.9,24.5,0,24.5-12.07Q957.91,646.82,948.11,646.82Z" transform="translate(0 0.5)"/><path d="M1014.25,690.22l.18,18a7.72,7.72,0,0,1-2.89,5.78,8.57,8.57,0,0,1-5.69,2.62q-4,0-5.07-6.3-.18-1.4-1.4-25.64t-4.73-38.06a58.62,58.62,0,0,1-1.57-7.87q0-5.78,7-5.78a5.63,5.63,0,0,1,4.72,2.28,10.78,10.78,0,0,1,2.19,4.63q.43,2.37.79,6.39c.23,2.69.41,4.38.52,5.08a26.79,26.79,0,0,1,11-13.13,30.94,30.94,0,0,1,16.1-4.37q14.34,0,14.35,7.35a7.35,7.35,0,0,1-2.54,5.86,8.71,8.71,0,0,1-5.86,2.19q-14.88,0-21,9.45T1014.25,690.22Z" transform="translate(0 0.5)"/><path d="M1068.07,584.34a6.25,6.25,0,0,1,4.2-1.57,6.71,6.71,0,0,1,4.37,1.66,5.5,5.5,0,0,1,2,4.46,50.22,50.22,0,0,1-3.5,18.55q-3.5,8.92-9.27,8.93c-3.85,0-5.78-2-5.78-6,0-1.64,1-4.55,3.07-8.75a30.08,30.08,0,0,0,3.06-13.3A5.05,5.05,0,0,1,1068.07,584.34Z" transform="translate(0 0.5)"/><path d="M1107.88,639.82a25.81,25.81,0,0,1,17.06-6.13,50.7,50.7,0,0,1,18.64,3.5q8.93,3.51,8.92,9.28a5.65,5.65,0,0,1-2.27,4.72,6.89,6.89,0,0,1-3.94,1.75c-1.11,0-2,0-2.63-.09s-3-1.13-7-3.23a24.29,24.29,0,0,0-11.11-3.15,14.62,14.62,0,0,0-8.66,2.53,8.56,8.56,0,0,0-3.59,7.44,8.82,8.82,0,0,0,4.11,7.7q4.11,2.8,14.44,4.81t15.84,5.69q5.5,3.68,5.51,13.65,0,14.54-7.61,20.56t-18.46,6q-10.86,0-18.47-3t-7.61-8.93q0-6.82,6.83-6.82c1.16,0,3.73.81,7.7,2.45a30.86,30.86,0,0,0,11.81,2.45q5.86,0,8.92-3.77a13.32,13.32,0,0,0,3.07-8.66,7.49,7.49,0,0,0-4-7.09q-4-2.17-12.25-3.58a62.19,62.19,0,0,1-12.07-3q-10.5-4.2-10.5-18.72Q1100.53,645.93,1107.88,639.82Z" transform="translate(0 0.5)"/><path d="M1277.1,599.92a6.88,6.88,0,0,1,5.07,2.36,7.68,7.68,0,0,1,2.28,5.51q0,68.43.61,82.69t.61,14.61a13.6,13.6,0,0,1-2.1,7.26q-2.1,3.42-4.63,3.42a20.42,20.42,0,0,1-3.85-.27,17.7,17.7,0,0,1-2.37-.61,5.47,5.47,0,0,1-2.1-1.4l-1.75-1.75A13.6,13.6,0,0,1,1267,709l-1.84-3.24q-.71-1.21-2.19-4.29T1256.54,689q-5-9.45-9-17-13.82-25.38-25.72-40.08,0,56.88-3.15,78.93-.53,4.2-6.48,4.2a7.43,7.43,0,0,1-4.63-1.4,5.35,5.35,0,0,1-1.84-4.55q0-3.15,1.31-34.65t1.31-39.29v-9.89q0-12.6,1.93-14.17a6.27,6.27,0,0,1,4-1.58q9.63,0,29.4,31.5,3.86,6.13,14.7,25.64t13,24.06l-2.1-72.62q0-15.06,3.33-17.15A8.73,8.73,0,0,1,1277.1,599.92Z" transform="translate(0 0.5)"/><path d="M1323.47,634.74a32,32,0,0,1,17.68,5.43q8.4,5.42,8.4,13.38t-6.83,15.4q-6.83,7.44-18.2,9a114.19,114.19,0,0,1-14.7.7q1.93,14.87,7.53,19.6a6.06,6.06,0,0,0,4.72,1.92,25.53,25.53,0,0,0,18.2-6.91q7.35-6.91,10.5-6.91,1.41,0,4.2,2.62c1.87,1.75,2.8,3.39,2.8,4.9q0,4.56-11,13.13a43.48,43.48,0,0,1-11.81,6.73,35.4,35.4,0,0,1-12.87,2.72q-15.22,0-22.4-19.6a75,75,0,0,1-4.55-26.6q0-14.53,6.83-25T1323.47,634.74Zm.88,12.08q-6.66,0-11.38,7.52-1.74,2.63-3.32,11.9,24.49,0,24.5-12.07Q1334.15,646.82,1324.35,646.82Z" transform="translate(0 0.5)"/><path d="M1393.12,634.74a32,32,0,0,1,17.68,5.43q8.4,5.42,8.4,13.38t-6.83,15.4q-6.82,7.44-18.2,9a114.19,114.19,0,0,1-14.7.7q1.93,14.87,7.53,19.6a6.06,6.06,0,0,0,4.72,1.92,25.53,25.53,0,0,0,18.2-6.91q7.35-6.91,10.5-6.91,1.41,0,4.2,2.62c1.87,1.75,2.8,3.39,2.8,4.9q0,4.56-11,13.13a43.48,43.48,0,0,1-11.81,6.73,35.4,35.4,0,0,1-12.87,2.72q-15.23,0-22.4-19.6a75,75,0,0,1-4.55-26.6q0-14.53,6.83-25T1393.12,634.74Zm.88,12.08q-6.66,0-11.38,7.52-1.74,2.63-3.32,11.9,24.5,0,24.5-12.07Q1403.8,646.82,1394,646.82Z" transform="translate(0 0.5)"/><path d="M1479.4,633.87l-.18-33.78q0-9.45,6-9.45t6.74,5.25q.35,2.28.87,27.48t1.66,47.25q1.14,22.05,1.14,41.12,0,5.25-7.87,5.25-5.25,0-5.25-7.35a27.91,27.91,0,0,1-17.85,6q-13.12,0-21.27-9.8t-8.13-24.15a62.5,62.5,0,0,1,5.86-26.86,35.2,35.2,0,0,1,18.29-17.94,37.52,37.52,0,0,1,14.87-3.32A35,35,0,0,1,1479.4,633.87Zm1,23.88a17.94,17.94,0,0,0-3.06-5.77,7.07,7.07,0,0,0-3.77-2.45,23,23,0,0,0-4.81-.44,15.41,15.41,0,0,0-6.82,2.1,17.41,17.41,0,0,0-6.83,6.83,38.41,38.41,0,0,0-5.6,19.86q0,10.41,4.11,17a13.07,13.07,0,0,0,11.73,6.57q7.61,0,12-7.53t4.37-19.25Q1481.67,661.52,1480.36,657.75Z" transform="translate(0 0.5)"/></svg>