<svg id="Layer_1" data-name="Layer 1" xmlns="http://www.w3.org/2000/svg" viewBox="0 0 1605.5 2565.5"><title>lean_startup</title><rect x="0.5" y="0.5" width="1600" height="2560" fill="#1c57e1" stroke="#000" stroke-miterlimit="10"/><g id="Success"><path d="M514.75,2560H153V2348a42.39,42.39,0,0,1,42.39-42.4H557.14a42.4,42.4,0,0,1,42.4,42.4v127.17A84.79,84.79,0,0,1,514.75,2560Z" transform="translate(0.5 0.5)" fill="#fff" stroke="#111af7" stroke-miterlimit="10" stroke-width="10"/><path d="M876.5,2560H514.75V2178.47a42.39,42.39,0,0,1,42.39-42.4H918.89a42.4,42.4,0,0,1,42.4,42.4v296.74A84.79,84.79,0,0,1,876.5,2560Z" transform="translate(0.5 0.5)" fill="#fff" stroke="#111af7" stroke-miterlimit="10" stroke-width="10"/><path d="M1238.25,2560H876.5V2008.9a42.39,42.39,0,0,1,42.39-42.4h361.75a42.4,42.4,0,0,1,42.4,42.4v466.31A84.79,84.79,0,0,1,1238.25,2560Z" transform="translate(0.5 0.5)" fill="#fff" stroke="#111af7" stroke-miterlimit="10" stroke-width="10"/><path d="M1600,2560H1238.25V1754.54a42.39,42.39,0,0,1,42.39-42.39h277a42.39,42.39,0,0,1,42.39,42.39Z" transform="translate(0.5 0.5)" fill="#fff" stroke="#111af7" stroke-miterlimit="10" stroke-width="10"/></g><path d="M243.29,423.64V270.86h-42v52h-25.2V245.37H341.14v77.49h-25.2v-52H274.05V423.64h26.51v25.49H217.21V423.64Z" transform="translate(0.5 0.5)" fill="#fff"/><path d="M380.83,424.37V270.12H355.2V245.37h53.47v78.22q25.05-20.22,47.6-20.21,14.07,0,23.15,5.85a29.51,29.51,0,0,1,12.38,15.46q3.29,9.6,3.29,28.05v71.63h24.17v24.76h-52V362.41q0-16.11-1-21.53a14.32,14.32,0,0,0-5.64-8.94,17.54,17.54,0,0,0-10.92-3.52q-16.11,0-41,18.31v77.64h24.61v24.76H355.2V424.37Z" transform="translate(0.5 0.5)" fill="#fff"/><path d="M681.86,385.26H562.62q2.64,19.64,15.53,31.79t33,12.16q29.14,0,46.14-23.44l24.61,10.84a74.23,74.23,0,0,1-31.2,27.61,93.32,93.32,0,0,1-40.14,9q-32.52,0-55.59-20.29t-23.07-54.71q0-32.67,22.49-53.76T606,303.38q28.56,0,51.78,20.58T681.86,385.26Zm-28.71-20.21q-2.94-15-15.53-27t-30.91-12.09a40.69,40.69,0,0,0-28.56,10.92q-11.86,10.9-14.5,28.2Z" transform="translate(0.5 0.5)" fill="#fff"/><path d="M798.61,423.64V270.86H772.24V245.37h83.35v25.49H830.54V423.64h62.4V354.35h28.72v94.78H772.24V423.64Z" transform="translate(0.5 0.5)" fill="#fff"/><path d="M1085.13,385.26H965.89q2.64,19.64,15.53,31.79t33,12.16q29.14,0,46.14-23.44l24.61,10.84a74.23,74.23,0,0,1-31.2,27.61,93.29,93.29,0,0,1-40.14,9q-32.52,0-55.59-20.29t-23.07-54.71q0-32.67,22.49-53.76t51.63-21.09q28.57,0,51.79,20.58T1085.13,385.26Zm-28.71-20.21q-2.93-15-15.53-27T1010,325.93a40.69,40.69,0,0,0-28.57,10.92q-11.86,10.9-14.5,28.2Z" transform="translate(0.5 0.5)" fill="#fff"/><path d="M1251.68,424.37v24.76h-48.63V431.84q-20.21,19.64-45.12,19.63a49.16,49.16,0,0,1-33.61-12.6Q1110,426.29,1110,406.65t15.17-32.82q15.15-13,36.54-13,19.92,0,38.53,12V358.75q0-10.85-2-16.7t-9.6-10.55q-7.55-4.68-19.7-4.69-20.94,0-30.32,16.7l-26.66-7q17.71-33.11,61.23-33.1,16,0,27.61,4.32t17.36,11.13a36.58,36.58,0,0,1,7.69,14.72q2,7.9,2,25.2v65.62Zm-51.41-28q-18-14.06-36.48-14.06-11.57,0-19.33,6.74a22,22,0,0,0-7.77,17.43,22.52,22.52,0,0,0,6.82,16.7q6.81,6.74,18.53,6.74,20.2,0,38.23-17Z" transform="translate(0.5 0.5)" fill="#fff"/><path d="M1316.28,307.33v17.14q26.82-19.34,48.93-19.34,13.77,0,22.78,6.52t11.79,16q2.78,9.45,2.78,27.61v69.14h23.88v24.76h-51.71V356.4q0-16.11-4.83-21a16,16,0,0,0-11.87-4.9q-18.45,0-41.75,18v75.88h24.47v24.76h-77.2V424.37h24.9V332.09h-24.9V307.33Z" transform="translate(0.5 0.5)" fill="#fff"/><path d="M317.63,809.13v-74h25.49v18q18.3,33.26,47.9,33.25,15.08,0,25.48-9.23T426.9,753q0-14.49-8.49-20.87t-32.08-12.67q-27.39-7.32-40.58-13.84a52,52,0,0,1-21-18.61Q316.9,675,316.89,658.4q0-25.64,17.07-40.95t42.85-15.3q24.45,0,45.41,15.82V604.34h24.9v61.82h-24.9V652Q406.54,628.37,379,628.37q-16.69,0-25.63,7.69t-8.94,18.38A23.89,23.89,0,0,0,349,668.87,26.87,26.87,0,0,0,360.55,678q7,2.94,27.69,8.19,27,7,39.11,13.1t20.94,20.29q8.79,14.22,8.79,32.67,0,26.09-18.38,43.08t-45.49,17q-27.82,0-50.09-20.07v16.85Z" transform="translate(0.5 0.5)" fill="#fff"/><path d="M475.54,692.09V667.33H494V645.5L521.83,620v47.31h26.22v24.76H521.83v68.84q0,16.56,1.83,20.44t9.15,3.88a41.27,41.27,0,0,0,15.24-2.93v25.34a63.38,63.38,0,0,1-21.39,3.81q-12.75,0-20.65-5.64a24,24,0,0,1-10-14.13q-2-8.51-2.05-29.3V692.09Z" transform="translate(0.5 0.5)" fill="#fff"/><path d="M712.4,784.37v24.76H663.77V791.84q-20.22,19.63-45.12,19.63A49.2,49.2,0,0,1,585,798.87q-14.28-12.58-14.28-32.22t15.16-32.82q15.17-13,36.55-13,19.92,0,38.53,12V718.75q0-10.85-2-16.7t-9.6-10.55q-7.55-4.68-19.7-4.69-21,0-30.32,16.7l-26.66-7q17.72-33.11,61.23-33.1,16,0,27.61,4.32t17.36,11.13a36.58,36.58,0,0,1,7.69,14.72q2,7.91,2,25.2v65.62Zm-51.41-28q-18-14.05-36.48-14.06-11.57,0-19.33,6.74a22,22,0,0,0-7.77,17.43,22.55,22.55,0,0,0,6.81,16.7q6.81,6.74,18.53,6.74,20.22,0,38.24-17Z" transform="translate(0.5 0.5)" fill="#fff"/><path d="M751.37,784.37V692.09H722.8V667.33h50.83v31.93a56.24,56.24,0,0,1,13-20.65q8.36-8.21,17.65-10.84t25.42-2.64h7.32v28.13h-5.57q-21.24,0-31.71,4.25T784.25,713q-5.06,11.2-5,40.21v31.2h30.91v24.76H722.8V784.37Z" transform="translate(0.5 0.5)" fill="#fff"/><path d="M854.93,692.09V667.33h18.46V645.5L901.22,620v47.31h26.22v24.76H901.22v68.84q0,16.56,1.83,20.44t9.16,3.88a41.26,41.26,0,0,0,15.23-2.93v25.34a63.38,63.38,0,0,1-21.39,3.81q-12.74,0-20.65-5.64a24,24,0,0,1-10-14.13q-2.06-8.51-2.05-29.3V692.09Z" transform="translate(0.5 0.5)" fill="#fff"/><path d="M1102.34,784.37v24.76h-52.29V792.87q-24.46,18.6-46.88,18.6-14.2,0-23.51-6.22a29.69,29.69,0,0,1-12.37-16.12q-3.09-9.89-3.08-31.86V692.09H944.14V667.33H992v86.43q0,15.68.88,21.09a14.22,14.22,0,0,0,5.13,8.94,16.21,16.21,0,0,0,10.69,3.51q19.34,0,41.31-18.46V692.09h-25V667.33h52.88v117Z" transform="translate(0.5 0.5)" fill="#fff"/><path d="M1133.25,848V692.09h-23.87V667.33h51.7V689.6q20.81-24.47,50.39-24.47,29.9,0,49.44,20.51T1280.47,739q0,34.42-21.24,54.35t-48.34,19.92q-28.12,0-49.81-21.68V848h27.54V872.7h-81.3V848Zm27.39-107.67a53.86,53.86,0,0,0,4.84,22.41,43.29,43.29,0,0,0,15.38,17.95q10.55,7.25,24.76,7.25,19.91,0,32.88-13.33t13-36.62q0-22.71-13.54-35.45t-30.84-12.75q-18.45,0-32.45,13.85T1160.64,740.28Z" transform="translate(0.5 0.5)" fill="#fff"/><path d="M190.72,1185.5v-86.84h11.1v38.22h16.64v-38.22h11.1v86.84h-11.1v-38.21H201.82v38.21Z" transform="translate(0.5 0.5)"/><path d="M261.54,1187.08q-8.33,0-13.17-8.09t-4.86-22.25q0-14.15,4.86-22.28t13.17-8.12q8.31,0,13.2,8.12t4.89,22.28q0,14.16-4.89,22.25T261.54,1187.08Zm-.1-51.09q-7.51,0-7.52,20.75t7.78,20.7q7.51,0,7.52-20.7T261.44,1136Z" transform="translate(0.5 0.5)"/><path d="M300.3,1186.77l-15.61-58.85H295l7.28,30.92h.27l8.55-30.92H315l8.61,30.92h.27l7.21-30.92h10.31l-15.61,58.85H322.9l-9.71-34.53h-.25l-9.78,34.53Z" transform="translate(0.5 0.5)"/><path d="M404.05,1185.5v-76.43H390.72v-10.41h37.83v10.41H415.22v76.43Z" transform="translate(0.5 0.5)"/><path d="M447.9,1187.08q-8.32,0-13.17-8.09t-4.86-22.25q0-14.15,4.86-22.28t13.17-8.12q8.31,0,13.2,8.12t4.89,22.28q0,14.16-4.89,22.25T447.9,1187.08Zm-.1-51.09q-7.51,0-7.52,20.75t7.78,20.7q7.51,0,7.52-20.7T447.8,1136Z" transform="translate(0.5 0.5)"/><path d="M512.31,1185.5H502.15v-4.45h-.25q-3.61,5.34-9.21,5.34-6.78,0-11.52-8t-4.73-21.52q0-13.59,4.7-22.06t12.06-8.47q5.15,0,8.95,4.7v-32.38h10.16Zm-10.16-14.72v-29.09q-2-5.7-6.57-5.7c-2.7,0-4.83,1.84-6.39,5.54s-2.34,8.91-2.34,15.62q0,19.08,8.16,19.08a6.42,6.42,0,0,0,5.09-2.41C501.47,1172.22,502.15,1171.2,502.15,1170.78Z" transform="translate(0.5 0.5)"/><path d="M562.06,1174.83v7.68q-4.78,4.26-7.91,4.26-5.67,0-7.45-7.24-5.58,7.56-11,7.55-4.48,0-7.88-4.34a16.19,16.19,0,0,1-3.39-10.25,15.8,15.8,0,0,1,4.75-11.56q4.76-4.76,17.15-11.93v-5.52q0-7.5-6-7.49t-14.49,9.45v-11.68q7.74-7.42,15.36-7.42a15.27,15.27,0,0,1,10.83,4.19q4.47,4.18,4.47,11.3v32.5q0,3.36,1.59,3.36Q559,1177.69,562.06,1174.83Zm-15.75-4V1156q-11.92,7.24-11.93,15a7.43,7.43,0,0,0,1.39,4.67,4.29,4.29,0,0,0,3.54,1.81c1.76,0,3.37-1,4.82-2.89S546.31,1171.39,546.31,1170.83Z" transform="translate(0.5 0.5)"/><path d="M566.8,1217.24l11.69-41.85-15.25-47.47h10.54l9.38,30h.27l8.32-30H601.9L577,1217.24Z" transform="translate(0.5 0.5)"/><path d="M610.33,1127.67l-.13-1.21a22,22,0,0,0,3.62-14.66q-5.46-1.4-5.46-6.92a7.24,7.24,0,0,1,2-5.23,6.64,6.64,0,0,1,5-2.13,7.12,7.12,0,0,1,6,3.17,13.87,13.87,0,0,1,2.32,8.38Q623.72,1121.9,610.33,1127.67Z" transform="translate(0.5 0.5)"/><path d="M625.61,1182.39v-11.17q5.64,6.21,10,6.22a5,5,0,0,0,3.61-1.4,4.68,4.68,0,0,0,1.46-3.55q0-3.95-5.74-12.51t-7.21-12.66a22.52,22.52,0,0,1-1.46-7.46,13.77,13.77,0,0,1,3.53-9.68,11.58,11.58,0,0,1,8.92-3.84,15.7,15.7,0,0,1,9.64,3.68v9.58q-4.95-4-8.69-4.06-4.07,0-4.06,4.32,0,3.62,5.93,11.9t7.55,12.57a22.5,22.5,0,0,1,1.62,7.9,15,15,0,0,1-3.93,10.63,12.89,12.89,0,0,1-9.84,4.22Q631.38,1187.08,625.61,1182.39Z" transform="translate(0.5 0.5)"/><path d="M709.23,1185.5v-86.84h30.92v10.41H720.4v26h18.1v10.41H720.4v29.65h20.83v10.41Z" transform="translate(0.5 0.5)" fill="#f2f2f2"/><path d="M757.27,1185.5v-57.58h10.15v6.23h.26q4.25-7.19,10.66-7.18a11,11,0,0,1,9.17,4.51q3.47,4.5,3.46,12.57v41.45H780.82v-41.2q0-8.31-5.46-8.31c-2,0-3.86,1-5.49,3.14s-2.45,3.33-2.45,3.71v42.66Z" transform="translate(0.5 0.5)" fill="#f2f2f2"/><path d="M827.2,1175.85v9a23.2,23.2,0,0,1-9,2.22q-10.66,0-10.66-12.87v-37.4H801v-.89a212.29,212.29,0,0,0,15.87-22.85h.89v14.85h9.46v8.89h-9.46v32.83q0,4.56.86,6.18a3.23,3.23,0,0,0,3.14,1.62A13.63,13.63,0,0,0,827.2,1175.85Z" transform="translate(0.5 0.5)" fill="#f2f2f2"/><path d="M837.21,1185.5v-57.58h10.16v15.56h.25q3-10.29,5-13.4a6.32,6.32,0,0,1,5.62-3.11,8.76,8.76,0,0,1,5.2,1.72l-.76,10.41a7.6,7.6,0,0,0-4.44-1.46q-4.77,0-7.84,8.57a48.37,48.37,0,0,0-3.08,16.44v22.85Z" transform="translate(0.5 0.5)" fill="#f2f2f2"/><path d="M899.78,1172v10a17,17,0,0,1-11.87,5.07q-8.76,0-13.58-7.87t-4.83-22.59q0-14.36,4.22-22.32t11.78-8q15.74,0,15.42,32.62H879.66q0,18.74,10.25,18.73Q895.48,1177.69,899.78,1172Zm-20.25-20.63h11.24q0-16.12-5.84-16.13Q879.53,1135.22,879.53,1151.35Z" transform="translate(0.5 0.5)" fill="#f2f2f2"/><path d="M914.05,1216.54v-88.62H924.2v4.13h.26q3.3-5.07,8.69-5.08,7,0,11.78,8.7t4.79,21.9q0,13.08-4.67,21.29t-11.9,8.22q-4.95,0-8.69-5.07h-.26v34.53Zm10.15-74.84v30.53q3.49,5.2,7,5.21,8.06,0,8.06-20,0-20.82-9-20.82a5.37,5.37,0,0,0-4.32,2.19C924.79,1140.27,924.2,1141.23,924.2,1141.7Z" transform="translate(0.5 0.5)" fill="#f2f2f2"/><path d="M962.27,1185.5v-57.58h10.16v15.56h.25q3-10.29,5.05-13.4a6.32,6.32,0,0,1,5.62-3.11,8.76,8.76,0,0,1,5.2,1.72l-.76,10.41a7.6,7.6,0,0,0-4.44-1.46q-4.77,0-7.84,8.57a48.37,48.37,0,0,0-3.08,16.44v22.85Z" transform="translate(0.5 0.5)" fill="#f2f2f2"/><path d="M1024.84,1172v10a17,17,0,0,1-11.87,5.07q-8.76,0-13.58-7.87t-4.83-22.59q0-14.36,4.22-22.32t11.78-8q15.74,0,15.42,32.62h-21.26q0,18.74,10.25,18.73Q1020.53,1177.69,1024.84,1172Zm-20.25-20.63h11.24q0-16.12-5.84-16.13Q1004.59,1135.22,1004.59,1151.35Z" transform="translate(0.5 0.5)" fill="#f2f2f2"/><path d="M1039.11,1185.5v-57.58h10.15v6.23h.26q4.24-7.19,10.66-7.18a11,11,0,0,1,9.17,4.51q3.47,4.5,3.46,12.57v41.45h-10.15v-41.2q0-8.31-5.46-8.31c-2,0-3.87,1-5.49,3.14s-2.45,3.33-2.45,3.71v42.66Z" transform="translate(0.5 0.5)" fill="#f2f2f2"/><path d="M1115.45,1172v10a17,17,0,0,1-11.87,5.07q-8.76,0-13.58-7.87t-4.83-22.59q0-14.36,4.22-22.32t11.78-8q15.74,0,15.42,32.62h-21.26q0,18.74,10.25,18.73Q1111.15,1177.69,1115.45,1172Zm-20.25-20.63h11.24q0-16.12-5.84-16.13Q1095.2,1135.22,1095.2,1151.35Z" transform="translate(0.5 0.5)" fill="#f2f2f2"/><path d="M1162.59,1127.92v57.58h-10.15v-6.22h-.25c-2.71,4.74-6.12,7.11-10.26,7.11a11.58,11.58,0,0,1-9.37-4.38q-3.61-4.38-3.61-12.13v-42h10.16v41.2q0,8.19,5.43,8.19a7,7,0,0,0,5.53-2.89c1.58-1.92,2.37-3.23,2.37-3.9v-42.6Z" transform="translate(0.5 0.5)" fill="#f2f2f2"/><path d="M1177.94,1185.5v-57.58h10.15v15.56h.26q3-10.29,5.05-13.4A6.31,6.31,0,0,1,1199,1127a8.79,8.79,0,0,1,5.21,1.72l-.76,10.41a7.61,7.61,0,0,0-4.45-1.46q-4.76,0-7.84,8.57a48.61,48.61,0,0,0-3.08,16.44v22.85Z" transform="translate(0.5 0.5)" fill="#f2f2f2"/><path d="M1209.41,1182.39v-11.17q5.64,6.21,10,6.22a5,5,0,0,0,3.62-1.4,4.68,4.68,0,0,0,1.46-3.55q0-3.95-5.74-12.51t-7.21-12.66a22.52,22.52,0,0,1-1.46-7.46,13.77,13.77,0,0,1,3.53-9.68,11.56,11.56,0,0,1,8.91-3.84,15.7,15.7,0,0,1,9.65,3.68v9.58q-4.95-4-8.69-4.06-4.07,0-4.07,4.32,0,3.62,5.94,11.9t7.55,12.57a22.5,22.5,0,0,1,1.62,7.9,15,15,0,0,1-3.93,10.63,12.89,12.89,0,0,1-9.84,4.22Q1215.18,1187.08,1209.41,1182.39Z" transform="translate(0.5 0.5)" fill="#f2f2f2"/><path d="M1292.52,1098.66h11.18v65.2q0,12.38,8.18,12.37a7,7,0,0,0,5.91-3.11q2.28-3.11,2.28-8.75v-65.71h11.18v64.49q0,11.43-5.78,17.46a18.22,18.22,0,0,1-13.59,6,17.64,17.64,0,0,1-13.83-6.28q-5.52-6.28-5.53-16.32Z" transform="translate(0.5 0.5)"/><path d="M1343.8,1182.39v-11.17q5.64,6.21,10,6.22a5,5,0,0,0,3.61-1.4,4.68,4.68,0,0,0,1.46-3.55q0-3.95-5.74-12.51t-7.21-12.66a22.52,22.52,0,0,1-1.46-7.46,13.77,13.77,0,0,1,3.53-9.68,11.58,11.58,0,0,1,8.92-3.84,15.7,15.7,0,0,1,9.64,3.68v9.58q-4.95-4-8.69-4.06-4.07,0-4.06,4.32,0,3.62,5.93,11.9t7.55,12.57a22.5,22.5,0,0,1,1.62,7.9,15,15,0,0,1-3.93,10.63,12.89,12.89,0,0,1-9.84,4.22Q1349.57,1187.08,1343.8,1182.39Z" transform="translate(0.5 0.5)"/><path d="M1409.35,1172v10a17,17,0,0,1-11.87,5.07q-8.76,0-13.59-7.87t-4.82-22.59q0-14.36,4.22-22.32t11.78-8q15.73,0,15.42,32.62h-21.26q0,18.74,10.25,18.73Q1405,1177.69,1409.35,1172Zm-20.25-20.63h11.23q0-16.12-5.83-16.13Q1389.1,1135.22,1389.1,1151.35Z" transform="translate(0.5 0.5)"/><path d="M199.37,1326v11.74a21.29,21.29,0,0,1-13.27,4.89q-11.17,0-17.27-11.43t-6.09-32.62q0-21.19,6.13-33.14t17.48-11.93q5.46,0,12,4.51v11.3q-5.58-5.4-11.17-5.4-6.74,0-9.74,7.89t-3,26.26q0,18.18,3.05,26.17t10.09,8Q192.38,1332.23,199.37,1326Z" transform="translate(0.5 0.5)"/><path d="M226.14,1343.08q-8.32,0-13.18-8.09t-4.85-22.25q0-14.15,4.85-22.28t13.18-8.12q8.31,0,13.2,8.12t4.89,22.28q0,14.16-4.89,22.25T226.14,1343.08ZM226,1292q-7.51,0-7.52,20.75t7.77,20.7q7.53,0,7.53-20.7T226,1292Z" transform="translate(0.5 0.5)"/><path d="M256.84,1341.5v-57.58H267v6.23h.25q4.25-7.19,10.66-7.18a11,11,0,0,1,9.18,4.51q3.45,4.5,3.46,12.57v41.45H280.39v-41.2q0-8.31-5.46-8.31c-2,0-3.86,1-5.49,3.14s-2.44,3.33-2.44,3.71v42.66Z" transform="translate(0.5 0.5)"/><path d="M326.77,1331.85v9a23.15,23.15,0,0,1-8.95,2.22q-10.67,0-10.66-12.87v-37.4h-6.6v-.89a215.2,215.2,0,0,0,15.87-22.85h.89v14.85h9.45v8.89h-9.45v32.83q0,4.56.85,6.18a3.23,3.23,0,0,0,3.14,1.62A13.63,13.63,0,0,0,326.77,1331.85Z" transform="translate(0.5 0.5)"/><path d="M341.74,1265.2a5.86,5.86,0,1,1,4.12-1.71A5.63,5.63,0,0,1,341.74,1265.2Zm-5.08,76.3v-57.58h10.15v57.58Z" transform="translate(0.5 0.5)"/><path d="M361.46,1341.5v-57.58h10.16v6.23h.25q4.25-7.19,10.66-7.18a11,11,0,0,1,9.18,4.51q3.45,4.5,3.46,12.57v41.45H385v-41.2q0-8.31-5.46-8.31c-2,0-3.86,1-5.49,3.14s-2.44,3.33-2.44,3.71v42.66Z" transform="translate(0.5 0.5)"/><path d="M442.31,1283.92v57.58H432.16v-6.22h-.26q-4,7.11-10.25,7.11a11.57,11.57,0,0,1-9.37-4.38q-3.61-4.38-3.61-12.13v-42h10.16v41.2q0,8.19,5.43,8.19a7,7,0,0,0,5.53-2.89c1.57-1.92,2.37-3.22,2.37-3.9v-42.6Z" transform="translate(0.5 0.5)"/><path d="M473.4,1343.08q-8.32,0-13.17-8.09t-4.86-22.25q0-14.15,4.86-22.28t13.17-8.12q8.31,0,13.2,8.12t4.89,22.28q0,14.16-4.89,22.25T473.4,1343.08Zm-.1-51.09q-7.51,0-7.52,20.75t7.77,20.7q7.53,0,7.53-20.7T473.3,1292Z" transform="translate(0.5 0.5)"/><path d="M537,1283.92v57.58H526.83v-6.22h-.26q-4.05,7.11-10.25,7.11A11.57,11.57,0,0,1,507,1338q-3.61-4.38-3.61-12.13v-42H513.5v41.2q0,8.19,5.43,8.19a7,7,0,0,0,5.53-2.89q2.37-2.88,2.37-3.9v-42.6Z" transform="translate(0.5 0.5)"/><path d="M549.34,1338.39v-11.17q5.65,6.21,10,6.22A5,5,0,0,0,563,1332a4.72,4.72,0,0,0,1.46-3.55q0-3.95-5.74-12.51t-7.21-12.66a22.52,22.52,0,0,1-1.46-7.46,13.79,13.79,0,0,1,3.52-9.68,11.59,11.59,0,0,1,8.92-3.84,15.7,15.7,0,0,1,9.65,3.68v9.58q-4.95-4-8.7-4.06c-2.7,0-4.06,1.44-4.06,4.32q0,3.62,5.94,11.9t7.55,12.57a22.5,22.5,0,0,1,1.62,7.9,14.94,14.94,0,0,1-3.94,10.63,12.86,12.86,0,0,1-9.83,4.22Q555.12,1343.08,549.34,1338.39Z" transform="translate(0.5 0.5)"/><path d="M632.72,1341.5v-86.84h11.17v86.84Z" transform="translate(0.5 0.5)"/><path d="M659.48,1341.5v-57.58h10.16v6.23h.26q4.25-7.19,10.66-7.18a11,11,0,0,1,9.17,4.51q3.46,4.5,3.46,12.57v41.45H683v-41.2q0-8.31-5.45-8.31c-2,0-3.87,1-5.5,3.14s-2.44,3.33-2.44,3.71v42.66Z" transform="translate(0.5 0.5)"/><path d="M707.46,1341.5v-57.58h10.15v6.23h.26q4.25-7.19,10.66-7.18a11,11,0,0,1,9.17,4.51q3.46,4.5,3.46,12.57v41.45H731v-41.2q0-8.31-5.46-8.31c-2,0-3.87,1-5.49,3.14s-2.45,3.33-2.45,3.71v42.66Z" transform="translate(0.5 0.5)"/><path d="M771.42,1343.08q-8.31,0-13.17-8.09t-4.86-22.25q0-14.15,4.86-22.28t13.17-8.12q8.33,0,13.21,8.12t4.88,22.28q0,14.16-4.88,22.25T771.42,1343.08Zm-.09-51.09q-7.53,0-7.53,20.75t7.78,20.7q7.51,0,7.52-20.7T771.33,1292Z" transform="translate(0.5 0.5)"/><path d="M811.39,1342.77l-17.32-58.85h10.12l8.49,32.87h.2l8.45-32.87h10.19l-17.27,58.85Z" transform="translate(0.5 0.5)"/><path d="M876.19,1330.83v7.68q-4.79,4.26-7.91,4.26-5.67,0-7.45-7.24-5.58,7.56-11,7.55-4.48,0-7.88-4.34a16.19,16.19,0,0,1-3.39-10.25,15.8,15.8,0,0,1,4.75-11.56q4.76-4.76,17.15-11.93v-5.52q0-7.5-6-7.49t-14.49,9.45v-11.68q7.74-7.42,15.36-7.42a15.27,15.27,0,0,1,10.83,4.19q4.47,4.18,4.47,11.3v32.5q0,3.36,1.59,3.36C872.82,1333.69,874.16,1332.74,876.19,1330.83Zm-15.75-4V1312q-11.93,7.24-11.93,15a7.43,7.43,0,0,0,1.39,4.67,4.29,4.29,0,0,0,3.54,1.81c1.76,0,3.37-1,4.83-2.89S860.44,1327.38,860.44,1326.83Z" transform="translate(0.5 0.5)"/><path d="M907.91,1331.85v9a23.2,23.2,0,0,1-8.95,2.22q-10.66,0-10.67-12.87v-37.4h-6.6v-.89a213.73,213.73,0,0,0,15.87-22.85h.89v14.85h9.46v8.89h-9.46v32.83c0,3,.28,5.1.86,6.18a3.22,3.22,0,0,0,3.14,1.62A13.72,13.72,0,0,0,907.91,1331.85Z" transform="translate(0.5 0.5)"/><path d="M922.87,1265.2a5.84,5.84,0,1,1,4.13-1.71A5.65,5.65,0,0,1,922.87,1265.2Zm-5.08,76.3v-57.58H928v57.58Z" transform="translate(0.5 0.5)"/><path d="M958.59,1343.08q-8.33,0-13.17-8.09t-4.86-22.25q0-14.15,4.86-22.28t13.17-8.12q8.31,0,13.2,8.12t4.89,22.28q0,14.16-4.89,22.25T958.59,1343.08Zm-.1-51.09q-7.51,0-7.52,20.75t7.78,20.7q7.51,0,7.52-20.7T958.49,1292Z" transform="translate(0.5 0.5)"/><path d="M989.29,1341.5v-57.58h10.16v6.23h.25q4.26-7.19,10.67-7.18a11,11,0,0,1,9.17,4.51q3.47,4.5,3.46,12.57v41.45h-10.16v-41.2q0-8.31-5.46-8.31c-2,0-3.86,1-5.49,3.14s-2.44,3.33-2.44,3.71v42.66Z" transform="translate(0.5 0.5)"/><path d="M1104.47,1331.85v9a23.2,23.2,0,0,1-9,2.22q-10.66,0-10.67-12.87v-37.4h-6.6v-.89a212.29,212.29,0,0,0,15.87-22.85h.89v14.85h9.46v8.89H1095v32.83q0,4.56.86,6.18a3.23,3.23,0,0,0,3.14,1.62A13.67,13.67,0,0,0,1104.47,1331.85Z" transform="translate(0.5 0.5)"/><path d="M1130.22,1343.08q-8.31,0-13.17-8.09t-4.85-22.25q0-14.15,4.85-22.28t13.17-8.12q8.33,0,13.2,8.12t4.89,22.28q0,14.16-4.89,22.25T1130.22,1343.08Zm-.09-51.09q-7.53,0-7.52,20.75t7.77,20.7q7.51,0,7.52-20.7T1130.13,1292Z" transform="translate(0.5 0.5)"/><path d="M1240.64,1326v11.74a21.29,21.29,0,0,1-13.27,4.89q-11.17,0-17.27-11.43t-6.09-32.62q0-21.19,6.12-33.14t17.49-11.93q5.46,0,12,4.51v11.3q-5.58-5.4-11.17-5.4-6.73,0-9.74,7.89t-3,26.26q0,18.18,3,26.17t10.09,8Q1233.65,1332.23,1240.64,1326Z" transform="translate(0.5 0.5)"/><path d="M1251.66,1341.5v-57.58h10.16v15.56h.25q3-10.29,5-13.4a6.33,6.33,0,0,1,5.62-3.11,8.76,8.76,0,0,1,5.2,1.72l-.76,10.41a7.6,7.6,0,0,0-4.44-1.46q-4.77,0-7.84,8.57a48.37,48.37,0,0,0-3.08,16.44v22.85Z" transform="translate(0.5 0.5)"/><path d="M1314.23,1328v10a17,17,0,0,1-11.87,5.07q-8.76,0-13.58-7.87t-4.82-22.59q0-14.36,4.22-22.32t11.77-8q15.75,0,15.43,32.62h-21.27q0,18.74,10.25,18.73C1308.07,1333.69,1311.37,1331.79,1314.23,1328ZM1294,1307.35h11.24q0-16.12-5.84-16.13Q1294,1291.22,1294,1307.35Z" transform="translate(0.5 0.5)"/><path d="M1364,1330.83v7.68q-4.79,4.26-7.9,4.26-5.67,0-7.46-7.24-5.56,7.56-11,7.55-4.5,0-7.89-4.34a16.24,16.24,0,0,1-3.38-10.25,15.76,15.76,0,0,1,4.75-11.56q4.74-4.76,17.15-11.93v-5.52q0-7.5-6-7.49t-14.49,9.45v-11.68q7.74-7.42,15.36-7.42a15.23,15.23,0,0,1,10.82,4.19q4.47,4.18,4.47,11.3v32.5q0,3.36,1.59,3.36Q1360.94,1333.69,1364,1330.83Zm-15.74-4V1312q-11.94,7.24-11.94,15a7.49,7.49,0,0,0,1.39,4.67,4.31,4.31,0,0,0,3.54,1.81c1.77,0,3.38-1,4.83-2.89S1348.24,1327.38,1348.24,1326.83Z" transform="translate(0.5 0.5)"/><path d="M1395.7,1331.85v9a23.2,23.2,0,0,1-9,2.22q-10.66,0-10.66-12.87v-37.4h-6.6v-.89a213.82,213.82,0,0,0,15.86-22.85h.89v14.85h9.46v8.89h-9.46v32.83q0,4.56.86,6.18a3.23,3.23,0,0,0,3.14,1.62A13.63,13.63,0,0,0,1395.7,1331.85Z" transform="translate(0.5 0.5)"/><path d="M1433.83,1328v10a17,17,0,0,1-11.87,5.07q-8.76,0-13.58-7.87t-4.83-22.59q0-14.36,4.23-22.32t11.77-8q15.73,0,15.43,32.62h-21.27q0,18.74,10.25,18.73Q1429.53,1333.69,1433.83,1328Zm-20.25-20.63h11.24q0-16.12-5.84-16.13Q1413.58,1291.22,1413.58,1307.35Z" transform="translate(0.5 0.5)"/><path d="M207.59,1497.5v-86.84h9.33q11.18,0,17,6.57t5.87,17.49q0,12.38-9,18.6,7,5,11.87,26.34l4,17.84H235l-3.36-15q-3.6-15.75-6.26-20c-1.78-2.86-4-4.13-6.6-3.84v38.85Zm11.17-49.26h.51q9.39,0,9.39-13.14,0-14-9.9-14Z" transform="translate(0.5 0.5)"/><path d="M291.17,1486.83v7.69q-4.79,4.24-7.91,4.25-5.67,0-7.45-7.24-5.58,7.56-11,7.56c-3,0-5.62-1.46-7.88-4.35a16.19,16.19,0,0,1-3.38-10.25,15.79,15.79,0,0,1,4.74-11.56q4.75-4.76,17.16-11.93v-5.52q0-7.5-6-7.49t-14.49,9.46v-11.68q7.74-7.44,15.36-7.43a15.27,15.27,0,0,1,10.83,4.19q4.47,4.18,4.47,11.3v32.5q0,3.36,1.59,3.36C287.8,1489.69,289.14,1488.74,291.17,1486.83Zm-15.74-4V1468q-11.94,7.24-11.94,15a7.43,7.43,0,0,0,1.39,4.67,4.29,4.29,0,0,0,3.54,1.81c1.76,0,3.37-1,4.83-2.89S275.43,1483.39,275.43,1482.84Z" transform="translate(0.5 0.5)"/><path d="M334.63,1497.5H324.47v-4.45h-.25q-3.62,5.34-9.2,5.34-6.79,0-11.52-8t-4.73-21.52q0-13.59,4.69-22.06t12.06-8.47q5.14,0,9,4.7v-32.38h10.16Zm-10.16-14.72v-29.09c-1.34-3.8-3.54-5.7-6.57-5.7q-4,0-6.38,5.54t-2.34,15.62q0,19.08,8.15,19.08a6.42,6.42,0,0,0,5.09-2.41C323.79,1484.22,324.47,1483.2,324.47,1482.78Z" transform="translate(0.5 0.5)"/><path d="M354.1,1421.2a5.84,5.84,0,1,1,4.13-1.71A5.65,5.65,0,0,1,354.1,1421.2ZM349,1497.5v-57.57h10.16v57.57Z" transform="translate(0.5 0.5)"/><path d="M402.71,1486.2v9.71a18.2,18.2,0,0,1-10,3.18q-8.83,0-14.73-8.45t-5.9-21.45q0-13.59,5.84-22.22t14.79-8.63a23.43,23.43,0,0,1,9.14,2.09v10.41q-4.57-2.85-7.56-2.85-5.38,0-8.6,5.61t-3.2,15.27q0,9.47,3.49,15t9.33,5.56Q398.7,1489.44,402.71,1486.2Z" transform="translate(0.5 0.5)"/><path d="M447.76,1486.83v7.69q-4.78,4.24-7.91,4.25-5.67,0-7.45-7.24-5.58,7.56-11,7.56c-3,0-5.62-1.46-7.88-4.35a16.19,16.19,0,0,1-3.39-10.25,15.8,15.8,0,0,1,4.75-11.56q4.75-4.76,17.15-11.93v-5.52q0-7.5-6-7.49t-14.49,9.46v-11.68q7.74-7.44,15.36-7.43a15.27,15.27,0,0,1,10.83,4.19q4.47,4.18,4.47,11.3v32.5q0,3.36,1.59,3.36C444.39,1489.69,445.73,1488.74,447.76,1486.83Zm-15.75-4V1468q-11.92,7.24-11.93,15a7.43,7.43,0,0,0,1.39,4.67,4.29,4.29,0,0,0,3.54,1.81c1.76,0,3.37-1,4.82-2.89S432,1483.39,432,1482.84Z" transform="translate(0.5 0.5)"/><path d="M456.88,1497.5v-86.84H467v86.84Z" transform="translate(0.5 0.5)"/><path d="M480.54,1497.5v-86.84h10.15v86.84Z" transform="translate(0.5 0.5)"/><path d="M503.05,1529.24l11.7-41.85-15.25-47.46H510l9.39,30h.26l8.33-30h10.15l-24.95,89.31Z" transform="translate(0.5 0.5)"/><path d="M590.55,1495.28v-11.56c3.35,3.18,6.58,4.76,9.72,4.76a8.15,8.15,0,0,0,6-2.45,8,8,0,0,0,2.48-5.92,24,24,0,0,0-1.4-7.24q-1.39-4.24-7.52-15.71t-8-17.36a35.52,35.52,0,0,1-1.84-10.41q0-8.76,5-14.32a16.36,16.36,0,0,1,12.73-5.55,22.37,22.37,0,0,1,9.33,2.28v10.54c-3-1.78-5.65-2.66-7.8-2.66q-8.44,0-8.45,8.25a23.94,23.94,0,0,0,1.43,7.33q1.42,4.29,7.55,15.62t7.94,17.26a36.5,36.5,0,0,1,1.81,10.51q0,8.88-5,14.44a16.57,16.57,0,0,1-12.92,5.55A20.47,20.47,0,0,1,590.55,1495.28Z" transform="translate(0.5 0.5)" fill="#f2f2f2"/><path d="M664,1439.93v57.57H653.89v-6.22h-.26q-4.05,7.11-10.25,7.11A11.57,11.57,0,0,1,634,1494q-3.62-4.38-3.61-12.13v-42h10.16v41.19q0,8.19,5.43,8.19a7,7,0,0,0,5.53-2.89c1.57-1.92,2.37-3.22,2.37-3.9v-42.59Z" transform="translate(0.5 0.5)" fill="#f2f2f2"/><path d="M708,1486.2v9.71a18.18,18.18,0,0,1-10,3.18q-8.82,0-14.72-8.45t-5.91-21.45q0-13.59,5.84-22.22t14.79-8.63a23.39,23.39,0,0,1,9.14,2.09v10.41q-4.56-2.85-7.55-2.85-5.4,0-8.6,5.61t-3.21,15.27q0,9.47,3.49,15t9.34,5.56C702.87,1489.44,705.35,1488.36,708,1486.2Z" transform="translate(0.5 0.5)" fill="#f2f2f2"/><path d="M746.46,1486.2v9.71a18.18,18.18,0,0,1-10,3.18q-8.82,0-14.72-8.45t-5.91-21.45q0-13.59,5.84-22.22t14.79-8.63a23.39,23.39,0,0,1,9.14,2.09v10.41Q741,1448,738,1448q-5.4,0-8.6,5.61t-3.21,15.27q0,9.47,3.49,15t9.34,5.56C741.32,1489.44,743.8,1488.36,746.46,1486.2Z" transform="translate(0.5 0.5)" fill="#f2f2f2"/><path d="M784.4,1484v10a17,17,0,0,1-11.87,5.08q-8.76,0-13.58-7.88t-4.83-22.59q0-14.36,4.23-22.32t11.77-8q15.75,0,15.43,32.62H764.28q0,18.74,10.25,18.73Q780.1,1489.69,784.4,1484Zm-20.25-20.63h11.24q0-16.12-5.84-16.13Q764.15,1447.22,764.15,1463.35Z" transform="translate(0.5 0.5)" fill="#f2f2f2"/><path d="M795.94,1494.39v-11.17q5.64,6.21,10,6.22a5.05,5.05,0,0,0,3.62-1.4,4.7,4.7,0,0,0,1.45-3.55q0-3.95-5.74-12.51t-7.2-12.66a22.27,22.27,0,0,1-1.46-7.46,13.77,13.77,0,0,1,3.52-9.68,11.58,11.58,0,0,1,8.92-3.84,15.73,15.73,0,0,1,9.65,3.68v9.59q-5-4.06-8.7-4.07-4.06,0-4.06,4.32,0,3.62,5.93,11.9t7.56,12.57a22.47,22.47,0,0,1,1.61,7.9,15,15,0,0,1-3.93,10.63,12.89,12.89,0,0,1-9.84,4.23Q801.72,1499.09,795.94,1494.39Z" transform="translate(0.5 0.5)" fill="#f2f2f2"/><path d="M830.39,1494.39v-11.17q5.64,6.21,10,6.22A5.05,5.05,0,0,0,844,1488a4.7,4.7,0,0,0,1.46-3.55q0-3.95-5.75-12.51t-7.2-12.66a22.27,22.27,0,0,1-1.46-7.46,13.77,13.77,0,0,1,3.52-9.68,11.58,11.58,0,0,1,8.92-3.84,15.73,15.73,0,0,1,9.65,3.68v9.59q-4.95-4.06-8.7-4.07-4.07,0-4.06,4.32,0,3.62,5.93,11.9t7.56,12.57a22.5,22.5,0,0,1,1.62,7.9,15,15,0,0,1-3.94,10.63,12.89,12.89,0,0,1-9.84,4.23Q836.17,1499.09,830.39,1494.39Z" transform="translate(0.5 0.5)" fill="#f2f2f2"/><path d="M868.65,1497.5v-48.69h-4.57v-8.88h4.57v-9.14q0-21.27,20.25-21.27V1418c-3.54,0-6.1,1.06-7.7,3.18s-2.4,5.52-2.4,10.22v8.57h5.65v8.88H878.8v48.69Z" transform="translate(0.5 0.5)" fill="#f2f2f2"/><path d="M926.84,1439.93v57.57H916.68v-6.22h-.25q-4,7.11-10.26,7.11a11.58,11.58,0,0,1-9.37-4.38q-3.6-4.38-3.61-12.13v-42h10.16v41.19q0,8.19,5.43,8.19a7,7,0,0,0,5.53-2.89q2.37-2.88,2.37-3.9v-42.59Z" transform="translate(0.5 0.5)" fill="#f2f2f2"/><path d="M941.29,1497.5v-86.84h10.16v86.84Z" transform="translate(0.5 0.5)" fill="#f2f2f2"/><path d="M1012.16,1497.5v-86.84h13.27a22.46,22.46,0,0,1,16.34,6.35,20.42,20.42,0,0,1,6.51,15.12q0,11.74-11.3,18.73,13.26,6.23,13.27,21.58,0,11.1-7.18,18.08t-20.37,7Zm11.17-50h1a12.18,12.18,0,0,0,9.3-3.68q3.45-3.69,3.46-9.84t-3.34-9.52q-3.33-3.36-9.42-3.37h-1Zm0,39.61h2q6.48,0,10.12-3.77t3.65-10.48q0-6.66-3.58-10.8t-10.19-4.15h-2Z" transform="translate(0.5 0.5)"/><path d="M1095.68,1439.93v57.57h-10.16v-6.22h-.25q-4.05,7.11-10.26,7.11a11.58,11.58,0,0,1-9.37-4.38q-3.6-4.38-3.61-12.13v-42h10.16v41.19q0,8.19,5.43,8.19a7,7,0,0,0,5.53-2.89q2.37-2.88,2.37-3.9v-42.59Z" transform="translate(0.5 0.5)"/><path d="M1108,1494.39v-11.17q5.64,6.21,10,6.22a5,5,0,0,0,3.61-1.4,4.67,4.67,0,0,0,1.46-3.55q0-3.95-5.74-12.51t-7.2-12.66a22.27,22.27,0,0,1-1.46-7.46,13.77,13.77,0,0,1,3.52-9.68,11.58,11.58,0,0,1,8.92-3.84,15.73,15.73,0,0,1,9.65,3.68v9.59c-3.31-2.71-6.2-4.07-8.7-4.07q-4.07,0-4.06,4.32,0,3.62,5.93,11.9t7.55,12.57a22.5,22.5,0,0,1,1.62,7.9,15,15,0,0,1-3.93,10.63,12.9,12.9,0,0,1-9.84,4.23Q1113.82,1499.09,1108,1494.39Z" transform="translate(0.5 0.5)"/><path d="M1150.42,1421.2a5.84,5.84,0,1,1,0-11.68,5.68,5.68,0,0,1,4.13,1.68,5.86,5.86,0,0,1-4.13,10Zm-5.08,76.3v-57.57h10.16v57.57Z" transform="translate(0.5 0.5)"/><path d="M1170.15,1497.5v-57.57h10.15v6.22h.26q4.25-7.17,10.66-7.18a11,11,0,0,1,9.17,4.51q3.46,4.5,3.46,12.57v41.45H1193.7v-41.2q0-8.31-5.46-8.31c-2,0-3.87,1-5.49,3.14s-2.45,3.33-2.45,3.71v42.66Z" transform="translate(0.5 0.5)"/><path d="M1246.49,1484v10a17,17,0,0,1-11.87,5.08q-8.76,0-13.58-7.88t-4.83-22.59q0-14.36,4.22-22.32t11.78-8q15.74,0,15.42,32.62h-21.26q0,18.74,10.25,18.73Q1242.19,1489.69,1246.49,1484Zm-20.25-20.63h11.24q0-16.12-5.84-16.13Q1226.24,1447.22,1226.24,1463.35Z" transform="translate(0.5 0.5)"/><path d="M1258,1494.39v-11.17q5.65,6.21,10,6.22a5,5,0,0,0,3.62-1.4,4.7,4.7,0,0,0,1.46-3.55q0-3.95-5.74-12.51t-7.21-12.66a22.52,22.52,0,0,1-1.46-7.46,13.77,13.77,0,0,1,3.53-9.68,11.56,11.56,0,0,1,8.91-3.84,15.7,15.7,0,0,1,9.65,3.68v9.59q-4.95-4.06-8.69-4.07-4.06,0-4.07,4.32,0,3.62,5.94,11.9t7.55,12.57a22.5,22.5,0,0,1,1.62,7.9,15,15,0,0,1-3.93,10.63,12.9,12.9,0,0,1-9.84,4.23C1265.66,1499.09,1261.88,1497.52,1258,1494.39Z" transform="translate(0.5 0.5)"/><path d="M1292.47,1494.39v-11.17q5.65,6.21,10,6.22a5,5,0,0,0,3.62-1.4,4.7,4.7,0,0,0,1.46-3.55q0-3.95-5.74-12.51t-7.21-12.66a22.52,22.52,0,0,1-1.46-7.46,13.77,13.77,0,0,1,3.53-9.68,11.56,11.56,0,0,1,8.91-3.84,15.7,15.7,0,0,1,9.65,3.68v9.59q-5-4.06-8.69-4.07-4.07,0-4.07,4.32,0,3.62,5.94,11.9t7.55,12.57a22.5,22.5,0,0,1,1.62,7.9,15,15,0,0,1-3.93,10.63,12.9,12.9,0,0,1-9.84,4.23C1300.11,1499.09,1296.33,1497.52,1292.47,1494.39Z" transform="translate(0.5 0.5)"/><path d="M1358,1484v10a17,17,0,0,1-11.87,5.08q-8.76,0-13.59-7.88t-4.82-22.59q0-14.36,4.22-22.32t11.78-8q15.74,0,15.42,32.62h-21.26q0,18.74,10.25,18.73Q1353.73,1489.69,1358,1484Zm-20.25-20.63H1349q0-16.12-5.83-16.13Q1337.78,1447.22,1337.78,1463.35Z" transform="translate(0.5 0.5)"/><path d="M1369.56,1494.39v-11.17q5.65,6.21,10,6.22a5,5,0,0,0,3.62-1.4,4.7,4.7,0,0,0,1.46-3.55q0-3.95-5.75-12.51t-7.2-12.66a22.52,22.52,0,0,1-1.46-7.46,13.77,13.77,0,0,1,3.52-9.68,11.58,11.58,0,0,1,8.92-3.84,15.7,15.7,0,0,1,9.65,3.68v9.59q-4.95-4.06-8.7-4.07c-2.7,0-4.06,1.44-4.06,4.32q0,3.62,5.94,11.9t7.55,12.57a22.5,22.5,0,0,1,1.62,7.9,14.94,14.94,0,0,1-3.94,10.63,12.87,12.87,0,0,1-9.84,4.23Q1375.34,1499.09,1369.56,1494.39Z" transform="translate(0.5 0.5)"/><path d="M97,0V2559.48H65.73A31.89,31.89,0,0,0,60,2560V0Z" transform="translate(0.5 0.5)" fill="#111af7" stroke="#000" stroke-miterlimit="10"/></svg>