<svg id="Layer_1" data-name="Layer 1" xmlns="http://www.w3.org/2000/svg" xmlns:xlink="http://www.w3.org/1999/xlink" viewBox="0 0 1601 2561"><defs><linearGradient id="linear-gradient" y1="1785.65" x2="1600" y2="1785.65" gradientUnits="userSpaceOnUse"><stop offset="0" stop-color="#ee6161"/><stop offset="0.4" stop-color="#ed5e5e"/><stop offset="0.72" stop-color="#ec5454"/><stop offset="1" stop-color="#e94444"/></linearGradient></defs><title>locus_of_control</title><rect x="0.5" y="0.5" width="1600" height="2560" fill="#fff" stroke="#000" stroke-miterlimit="10"/><rect width="1600" height="2560" fill="#edd479"/><path d="M575.61,1922.17H915.13v486.71H575.61Z" fill="#ffcebf"/><path d="M575.61,1922.17v238.27l227.93,11.28a53.43,53.43,0,0,1,50.75,53.39v183.77h60.84V1922.17Z" fill="#ffb09e"/><path d="M995.59,1759.28v253.94c0,70-56.87,126.79-127,126.79H644.45a151.27,151.27,0,0,1-151.27-151.27V1759.28Z" fill="#ffcebf"/><path d="M932.79,1842.42S759.84,1857,723.86,1967c-49.35,150.84,98.87,193.56,208.93,102Z" fill="#ffb09e"/><path d="M1600,1688.76v101.61c0,6.87-10,12-20.68,10.7-234.55-29.13-704.53-70.06-990.79,22.16C329.66,1906.63,139.56,1926,18.9,1926H17.29c-9.56,0-17.29-4.9-17.29-10.9v-99.66c0-6,7.76-10.91,17.35-10.89,15.77,0,33.71-.39,53.8-1.52,86.57-4.81,231.31-24,429.23-87.7,327.14-105.38,819.07-68.82,1085.5-37.25C1594.08,1679,1600,1683.52,1600,1688.76Z" fill="url(#linear-gradient)"/><path d="M744.39,1794.65V1643.48c0-33.09-25.11-61.47-58.1-63.87a62.82,62.82,0,0,0-67.51,62.63v153.64a62.81,62.81,0,0,0,67.51,62.63C719.28,1856.11,744.39,1827.74,744.39,1794.65Z" fill="#ffcebf"/><path d="M681.4,1579c-1.74,0-3.46.09-5.17.23a62.75,62.75,0,0,1,7.32,29.47v154.09a63,63,0,0,1-57.81,62.75,63,63,0,0,0,63.76,33c30.27-3.77,54.89-32.93,54.89-63.43V1642a63,63,0,0,0-63-63Z" fill="#ffb09e"/><path d="M870,1801v-181.7c0-33.09-25.1-61.46-58.1-63.87a62.82,62.82,0,0,0-67.5,62.63v184.17a62.8,62.8,0,0,0,67.5,62.63C844.89,1862.47,870,1834.1,870,1801Z" fill="#ffcebf"/><path d="M807,1554.82c-1.18,0-2.35,0-3.51.1a62.73,62.73,0,0,1,5.65,26.07V1765.7a63,63,0,0,1-59.48,62.88,63,63,0,0,0,66.67,36.25c31-4.47,53.65-31.9,53.65-63.27V1617.81A63,63,0,0,0,807,1554.82Z" fill="#ffb09e"/><path d="M937.49,1864.88c33-2.4,58.1-30.78,58.1-63.87V1618.07a62.82,62.82,0,0,0-67.5-62.63c-33,2.4-58.1,30.78-58.1,63.87v182.93A62.82,62.82,0,0,0,937.49,1864.88Z" fill="#ffcebf"/><path d="M932.61,1554.83a64.63,64.63,0,0,0-6.85.37,62.68,62.68,0,0,1,9,32.44v184.7A63,63,0,0,1,878.62,1835a63,63,0,0,0,63.52,29.84c31-4.54,53.45-31.87,53.45-63.16V1617.81A63,63,0,0,0,932.61,1554.83Z" fill="#ffb09e"/><path d="M618.78,1827.83V1676.66c0-33.09-25.1-61.47-58.1-63.87a62.81,62.81,0,0,0-67.5,62.63v153.64a62.8,62.8,0,0,0,67.5,62.63C593.68,1889.29,618.78,1860.92,618.78,1827.83Z" fill="#ffcebf"/><path d="M555.8,1612.22c-1,0-2,0-2.95.07a62.9,62.9,0,0,1,5.09,24.85v154.08a63,63,0,0,1-60,62.91,63,63,0,0,0,66.69,37.54c29.89-4.05,54.17-33.21,54.17-63.38V1675.2a63,63,0,0,0-63-63Z" fill="#ffb09e"/><path d="M758.93,2022c6.44-37.32,34.69-84.88,34.69-84.88,33.84-44.7,70.68-70.21,122.71-68.43,16.11.55,48.28-10.63,52.16-30a8.68,8.68,0,0,0-5-9.45l-29.91-14c-53.19-24.84-68.12-89.5-61.38-118,7.21-30.48,23.28-44.62,34.86-39.21,0,0,132.74,60.21,171.13,79.25a38.56,38.56,0,0,1,21.4,35.12L1098,1883a189.33,189.33,0,0,1-38.35,111.46l-56.7,74.89c-77.63,102.47-146.72,80.77-238.88,71.29,0,0-15.17-60.41-5.12-118.65Z" fill="#ffcebf"/><path d="M1077.93,1737.71c-38.3-19-170.72-79.07-170.72-79.07-9-4.19-20.63,3.43-28.76,21.28,41.67,19,112.61,51.54,139,64.61a38.46,38.46,0,0,1,21.34,35l-1.63,110.18a189.33,189.33,0,0,1-38.36,111.5l-56.46,74.58c-31.86,42.06-62.28,63.13-93.46,72.73,53.84,1.86,102-11,154-79.56l56.56-74.72a188.91,188.91,0,0,0,38.26-111.21l1.63-110.33a38.45,38.45,0,0,0-21.35-35Z" fill="#ffb09e"/><path d="M921.42,2560h-356a5.48,5.48,0,0,1-5.48-5.48V2358.09A8.09,8.09,0,0,1,568,2350H918.82a8.09,8.09,0,0,1,8.09,8.08v196.43A5.48,5.48,0,0,1,921.42,2560Z" fill="#ee6161"/><path d="M866.07,2350v210h55.35a5.48,5.48,0,0,0,5.49-5.48V2358a8.07,8.07,0,0,0-8.12-8Z" fill="#e94444"/><path d="M138.62,188h19.16v32.65H187V188h19.15v84.73H187V237.36H157.78v35.37H138.62Z" fill="#e94444"/><path d="M220.9,240.51c0-21.45,15.1-33.83,31.42-33.83s31.42,12.38,31.42,33.83-15.1,33.78-31.42,33.78S220.9,261.91,220.9,240.51Zm43.25,0c0-11.16-3.93-18.41-11.83-18.41s-11.83,7.25-11.83,18.41,3.92,18.36,11.83,18.36S264.15,251.67,264.15,240.51Z" fill="#e94444"/><path d="M290.47,208.24h19l6.17,29.86c1.13,6.36,1.84,12.63,2.92,19.17h.52c1.13-6.54,2.26-13,3.83-19.17l7-29.86h16.6l7.25,29.86c1.56,6.36,2.69,12.63,4,19.17h.52c1.13-6.54,1.84-12.81,3-19.17l6.13-29.86h17.66l-15.42,64.49H347.29L341.37,247c-1.18-6-2.26-11.92-3.44-18.86h-.52c-1.13,6.94-2.05,12.92-3.27,18.9l-5.66,25.73H306.62Z" fill="#e94444"/><path d="M425.22,249.28V223.23h-8.81V209l9.88-.73,2.24-17.13h15.8v17.13h15.46v15H444.33v25.82c0,7.32,3.32,10.25,8.35,10.25a19.14,19.14,0,0,0,6.13-1.22l3,13.88a45.74,45.74,0,0,1-14.34,2.33C431.55,274.29,425.22,264.23,425.22,249.28Z" fill="#e94444"/><path d="M466.34,240.51c0-21.45,15.1-33.83,31.42-33.83s31.41,12.38,31.41,33.83-15.09,33.78-31.41,33.78S466.34,261.91,466.34,240.51Zm43.25,0c0-11.16-3.93-18.41-11.83-18.41s-11.84,7.25-11.84,18.41,3.93,18.36,11.84,18.36S509.59,251.67,509.59,240.51Z" fill="#e94444"/><path d="M563.31,262l11-13.14c6,5.25,13.84,8.85,20.82,8.85,8,0,11.9-3.14,11.9-8.17,0-5.34-4.81-7.05-12.21-10.09l-11-4.7c-8.78-3.57-17.1-10.78-17.1-23.09,0-14,12.54-25.26,30.18-25.26a39.16,39.16,0,0,1,27.25,11.11l-9.67,12.07c-5.58-4.28-10.89-6.64-17.58-6.64s-10.81,2.75-10.81,7.6c0,5.2,5.54,7.09,12.93,10l10.8,4.37c10.35,4.19,16.81,11.08,16.81,23.05,0,14.07-11.73,26.26-31.92,26.26A46.64,46.64,0,0,1,563.31,262Z" fill="#e94444"/><path d="M638.42,249.28V223.23h-8.81V209l9.88-.73,2.23-17.13h15.81v17.13H673v15H657.53v25.82c0,7.32,3.32,10.25,8.35,10.25a19.19,19.19,0,0,0,6.13-1.22L675,272a45.74,45.74,0,0,1-14.34,2.33C644.75,274.29,638.42,264.23,638.42,249.28Z" fill="#e94444"/><path d="M680.06,254.85c0-13.59,10.81-20.95,36.32-23.64-.38-5.64-3.2-9.33-10.2-9.33-5.41,0-10.81,2.28-17.06,5.83l-6.8-12.55c8.19-5,17.41-8.48,27.55-8.48,16.49,0,25.62,9.42,25.62,29.18v36.87H719.9l-1.38-6.6h-.47c-5.43,4.77-11.52,8.16-18.76,8.16C687.52,274.29,680.06,265.71,680.06,254.85Zm36.32-.85V242.73c-13.59,1.83-18,5.72-18,10.59,0,4.16,2.86,6.19,7.4,6.19C710.08,259.51,713,257.37,716.38,254Z" fill="#e94444"/><path d="M749.58,296.65l3.4-14.56a19.64,19.64,0,0,0,4.34.82c6.3,0,9.62-3.47,11.29-8.46l1-3.37-24.89-62.84h19.21L773.11,236c1.86,5.84,3.39,12,5.09,18.28h.52c1.44-6.11,2.87-12.22,4.48-18.28L791,208.24h18.3l-22.39,65.19c-6.12,16.16-13,24.52-28.17,24.52A29.66,29.66,0,0,1,749.58,296.65Z" fill="#e94444"/><path d="M846.86,188h20.89l13.75,37.65c1.7,5,3.18,10.43,4.88,15.65h.52c1.7-5.22,3.14-10.65,4.83-15.65L905.05,188H926v84.73H908.51V241.64c0-8.26,1.54-20.59,2.45-28.79h-.52l-7,20.05-12,32.46H880.87l-12-32.46-6.76-20.05h-.52c.9,8.2,2.45,20.53,2.45,28.79v31.09H846.86Z" fill="#e94444"/><path d="M940.58,240.51c0-21.45,15.09-33.83,31.42-33.83s31.41,12.38,31.41,33.83S988.32,274.29,972,274.29,940.58,261.91,940.58,240.51Zm43.25,0c0-11.16-3.93-18.41-11.83-18.41s-11.84,7.25-11.84,18.41,3.93,18.36,11.84,18.36S983.83,251.67,983.83,240.51Z" fill="#e94444"/><path d="M1015.68,249.28V223.23h-8.81V209l9.88-.73,2.24-17.13h15.8v17.13h15.46v15h-15.46v25.82c0,7.32,3.32,10.25,8.35,10.25a19.14,19.14,0,0,0,6.13-1.22l3,13.88a45.74,45.74,0,0,1-14.34,2.33C1022,274.29,1015.68,264.23,1015.68,249.28Z" fill="#e94444"/><path d="M1061.4,188.81c0-5.86,4.65-10,11.06-10s11.06,4.13,11.06,10-4.65,10-11.06,10S1061.4,194.63,1061.4,188.81Zm1.48,19.43H1082v64.49h-19.12Z" fill="#e94444"/><path d="M1091.91,208.24h19.21l8.39,30.44c1.65,6.41,3.35,13.08,5,19.83h.52c1.65-6.75,3.35-13.42,5-19.83l8.39-30.44h18.3l-21,64.49h-22Z" fill="#e94444"/><path d="M1161.19,254.85c0-13.59,10.81-20.95,36.32-23.64-.38-5.64-3.2-9.33-10.2-9.33-5.41,0-10.81,2.28-17.07,5.83l-6.79-12.55c8.18-5,17.41-8.48,27.55-8.48,16.49,0,25.62,9.42,25.62,29.18v36.87H1201l-1.38-6.6h-.47c-5.43,4.77-11.52,8.16-18.77,8.16C1168.65,274.29,1161.19,265.71,1161.19,254.85Zm36.32-.85V242.73c-13.59,1.83-18,5.72-18,10.59,0,4.16,2.85,6.19,7.4,6.19C1191.21,259.51,1194.12,257.37,1197.51,254Z" fill="#e94444"/><path d="M1232.91,249.28V223.23h-8.81V209l9.88-.73,2.23-17.13H1252v17.13h15.46v15H1252v25.82c0,7.32,3.32,10.25,8.35,10.25a19.19,19.19,0,0,0,6.13-1.22l3,13.88a45.61,45.61,0,0,1-14.33,2.33C1239.24,274.29,1232.91,264.23,1232.91,249.28Z" fill="#e94444"/><path d="M1274,240.51c0-20.93,14.93-33.83,30.42-33.83,18.37,0,27.47,13.35,27.47,30.95a43.84,43.84,0,0,1-.79,8.45h-38.59c1.71,9.36,8.12,13.65,16.73,13.65,4.88,0,9.27-1.48,14-4.22l6.32,11.52a42,42,0,0,1-22.89,7.26C1288.27,274.29,1274,261.86,1274,240.51Zm41.57-7.07c0-7.09-3.09-12.2-10.72-12.2-6,0-11.25,4-12.55,12.2Z" fill="#e94444"/><path d="M1341.79,240.51c0-21.09,13.17-33.83,26.75-33.83,7.12,0,11.46,2.64,15.82,6.73l-.69-9.78v-22h19.11v91.07h-15.59l-1.38-6.39h-.47c-4.56,4.56-10.94,8-17.16,8C1352.15,274.29,1341.79,261.57,1341.79,240.51Zm41.88,12.37V226.39a15.67,15.67,0,0,0-10.67-4.08c-6.19,0-11.62,5.72-11.62,18,0,12.67,4.37,18.37,11.77,18.37C1377.22,258.66,1380.5,257.11,1383.67,252.88Z" fill="#e94444"/><path d="M1447.64,207.69c0-5.32-3.61-8.2-8.75-8.2-4.78,0-8.28,2.48-11.85,6l-10.52-9.62c6.11-7,14.65-11.81,24.77-11.81,14,0,24.65,6.91,24.65,22.29,0,16-19.53,20.93-18,36.3h-16.71C1428.58,224.85,1447.64,217.52,1447.64,207.69ZM1428,262.29c0-6.81,4.91-12.06,11.54-12.06s11.53,5.25,11.53,12.06-4.91,12-11.53,12S1428,269.05,1428,262.29Z" fill="#e94444"/><path d="M495.26,876.82q-11.52,5.07-35.64,9.08-22.06,3.71-36.23,3.71-23.92,0-23.93-21,0,1.67,2-31Q404,795.27,404,743.32a13,13,0,0,1,3.85-9.47,13.11,13.11,0,0,1,9.72-3.91,13.24,13.24,0,0,1,9.76,3.91,12.87,12.87,0,0,1,3.91,9.47q0,52-2.64,95.9-.87,7.81-1.85,23.93,23.15-.39,59.37-11.33a14.64,14.64,0,0,1,4.3-.69,12.42,12.42,0,0,1,10,4.5,13.47,13.47,0,0,1,3.42,9Q503.76,873,495.26,876.82Z" fill="#e94444"/><path d="M553.86,886.29a43.43,43.43,0,0,1-31.06-12.4q-14.25-13.57-14.94-36.23a59.69,59.69,0,0,1,11.82-38.48q14.84-19.92,41.31-19.92,19.53,0,31,15.62,10.35,14.07,10.35,34.87,0,22.65-12.11,38.67Q576.71,886.29,553.86,886.29ZM559.72,805q-12-.09-19,10.94a39.77,39.77,0,0,0-5.86,21.68q0,11.72,6.64,18a17.37,17.37,0,0,0,12.31,5,21,21,0,0,0,14.74-5.77q7.14-6.74,7.62-18.26Q577.5,805.14,559.72,805Z" fill="#e94444"/><path d="M663.72,886.68q-21.48,0-36-12.21-15.35-12.88-15.34-34,0-19.44,13.77-40.14,15.63-23.62,36.33-23.63,10.15,0,23.73,5.47,16.5,6.73,16.51,15.53a12.37,12.37,0,0,1-3.32,8.49,11.56,11.56,0,0,1-9.09,4q-4.2,0-10.1-4.55t-17.73-4.54q-7.51,0-16.31,14.75-8.4,14.26-8.4,24.61t7.43,16.11q7,5.56,18.55,5.57,6.54,0,16-5t12-5a12.24,12.24,0,0,1,9,3.81,12,12,0,0,1,3.76,8.69q0,7.62-16.6,15.23Q673.09,886.68,663.72,886.68Z" fill="#e94444"/><path d="M807.08,824.08q0,6.54.1,19.73t.1,19.73c0,1.36.11,3.4.34,6.1s.34,4.74.34,6.1a11.64,11.64,0,0,1-4,9,14,14,0,0,1-9.71,3.56A12.38,12.38,0,0,1,782.47,881a74.49,74.49,0,0,1-25.88,4.59q-13.86,0-23.34-5.83a27,27,0,0,1-12.69-19.53,283.11,283.11,0,0,1-3.81-43.41A163.66,163.66,0,0,1,719.68,788q2-11,13.18-11a14.09,14.09,0,0,1,9.67,3.54,11.45,11.45,0,0,1,4,9,97.71,97.71,0,0,1-1.41,13.38,97.43,97.43,0,0,0-1.42,13.87q0,13.68.93,23.9a97.81,97.81,0,0,0,2.78,16.92,29.16,29.16,0,0,0,4.74,1.65,17.94,17.94,0,0,0,4.44.58,102.66,102.66,0,0,0,23.83-3.12q0-7.51-.1-17.09-.2-11.43-.19-16.41A279.39,279.39,0,0,1,782,788.63Q783.45,777,795.26,777a14.44,14.44,0,0,1,9.87,3.62,10.77,10.77,0,0,1,3.81,9.08Q807.08,826.91,807.08,824.08Z" fill="#e94444"/><path d="M894.29,809q-9.67,0-11.62-8.1a46.06,46.06,0,0,0-8-.69q-23.53,0-23.54,6.45,0,3.81,14.16,10.25,19.34,8.89,26.18,13.87,14.14,10.26,14.16,23.15,0,16.78-15.63,25.48-12.6,6.94-31,6.94a67.45,67.45,0,0,1-23.73-4q-14.64-5.46-14.65-16.11,0-9.76,11.63-9.77,4.49,0,13,2.84t13.09,2.83q19.83,0,19.92-8,0-5-13.77-11-20.12-8.89-25.78-12.8Q825,820.67,825,806.8q0-19.63,20.8-26.47,12.21-4,37.11-4,9.76,0,14.45,2.54,6.45,3.42,6.45,12.6Q903.76,809,894.29,809Z" fill="#e94444"/><path d="M1049.85,886.29a43.43,43.43,0,0,1-31-12.4q-14.26-13.57-14.94-36.23a59.68,59.68,0,0,1,11.81-38.48q14.85-19.92,41.31-19.92,19.53,0,31.06,15.62,10.35,14.07,10.35,34.87,0,22.65-12.11,38.67Q1072.71,886.29,1049.85,886.29Zm5.86-81.25q-12-.09-18.94,10.94a39.69,39.69,0,0,0-5.86,21.68q0,11.72,6.64,18a17.35,17.35,0,0,0,12.3,5,21,21,0,0,0,14.75-5.77q7.13-6.74,7.62-18.26Q1073.48,805.14,1055.71,805Z" fill="#e94444"/><path d="M1161.18,780.23q13.1-1.17,18.75-1.17,18.27,0,18.26,12.5,0,12.9-19.43,12.31a173.73,173.73,0,0,0-18.65.88q-.39,10.35-.2,26.36.39,23.05.39,26.27,0,17.88-2.24,28.32t-12.89,10.45a14.11,14.11,0,0,1-9.53-3.51,11.28,11.28,0,0,1-4.05-8.89,14.79,14.79,0,0,1,.2-2.44,159.39,159.39,0,0,0,2.34-26.27V806.21q-1.76.1-6.44.78a46.37,46.37,0,0,1-5.67.49,14.26,14.26,0,0,1-9.86-3.47,11.82,11.82,0,0,1-3.91-9.32q0-9.09,9.57-11.92,4.31-1.26,17.09-1.66.1-1.75,1.27-11,2.73-21.78,11.82-32.42,11.32-13.29,34.76-13.28,17.88,0,17.87,12.79T1184,749.86q-11.8,0-17.18,8.3-4,6.17-5.38,19.24Z" fill="#e94444"/><path d="M565.87,1016.52q-8.79,0-13-9.27-1.95-4.39-3.91-5.28-1.46-.68-7.71-.68-12.3,0-28.42,19.14-22.56,26.76-22.56,50.1a25.81,25.81,0,0,0,7.13,18.26,22.59,22.59,0,0,0,17.09,7.62,43,43,0,0,0,19.63-5.08q3.51-1.86,14.84-9.57,7.62-5.09,11.53-5.08a13.26,13.26,0,0,1,10,4.3,12.94,12.94,0,0,1,3.81,9.18q0,5.76-5.08,10.06-26.85,22.65-54.69,22.65a49.1,49.1,0,0,1-37.11-16,51.43,51.43,0,0,1-14.45-36.33q0-32.71,28.61-66.8,24.32-28.9,49.71-28.91,4.29,0,7.76.3a45.83,45.83,0,0,1,6.11.88,14.26,14.26,0,0,1,10.35-4.2q10,0,12.3,11.42a97.21,97.21,0,0,1,1.66,19.14,15,15,0,0,1-2.83,8.89Q572.91,1016.53,565.87,1016.52Z" fill="#e94444"/><path d="M632,1126.29a43.43,43.43,0,0,1-31.05-12.4q-14.26-13.58-14.94-36.23a59.68,59.68,0,0,1,11.81-38.48q14.85-19.92,41.31-19.92,19.53,0,31.06,15.62,10.35,14.07,10.35,34.87,0,22.65-12.11,38.67Q654.84,1126.28,632,1126.29Zm5.86-81.25q-12-.09-18.94,10.94a39.69,39.69,0,0,0-5.86,21.68q0,11.71,6.64,18a17.33,17.33,0,0,0,12.3,5,21,21,0,0,0,14.75-5.77q7.13-6.73,7.62-18.26Q655.61,1045.14,637.84,1045Z" fill="#e94444"/><path d="M773.88,1127.46q-12,0-13.38-11.81-1.37-10.07-2.74-20.22a151,151,0,0,1-1.46-20.21c0-1.7.11-4.59.34-8.7s.34-7,.34-8.69c0-.45.07-1.61.2-3.46s.19-3.37.19-4.55q0-8.1-3.91-8.1-8.36,0-16.41,10.76t-12.59,27.26q-.18,3.3-.82,8.8a74.09,74.09,0,0,0-.54,8.81,84.68,84.68,0,0,1-.64,8.45,84,84,0,0,0-.63,8.45,12.64,12.64,0,0,1-3.86,9.46,14.44,14.44,0,0,1-19.39,0,12.59,12.59,0,0,1-3.8-9.4q0-2.77-.59-8.4c-.39-3.74-.59-6.55-.59-8.4q0-9.55,1.37-26.56t1.37-26.55c0-2-.12-5-.34-8.9s-.35-6.88-.35-8.8a11.93,11.93,0,0,1,4-9.2,13.84,13.84,0,0,1,9.72-3.63q12.78,0,13.67,15.33l.1,1.07q14.25-14.35,30.07-14.35,18.47,0,25.49,15.43,4.7,10.35,4.69,31v6.94q-.11,4.48-.1,6.35a118.73,118.73,0,0,0,2.1,19.62,118.54,118.54,0,0,1,2.1,19.54,11.84,11.84,0,0,1-3.91,9.08A13.67,13.67,0,0,1,773.88,1127.46Z" fill="#e94444"/><path d="M870.56,1041.91c-1.37,0-3,0-4.84-.14s-3.46-.15-4.83-.15a64.43,64.43,0,0,0-9.28.78q1.75,39.46,1.76,51.57c0,.84,0,2.42.1,4.73s.09,4.19.09,5.62q0,22.46-14.16,22.46a13.85,13.85,0,0,1-9.27-3.32,10.91,10.91,0,0,1-4.3-8.79c0-2.35.1-5.86.29-10.55s.3-8.2.3-10.55q0-11.8-1.76-50.58-6.06-.3-18.31-1.61t-12.26-12.65a12.84,12.84,0,0,1,13.28-13.08q3.61,0,16.6,1.17-.09-3.14-.48-10.35-.39-6.26-.39-9.67a11.69,11.69,0,0,1,4-9.08,13.92,13.92,0,0,1,9.67-3.62q14.44,0,14.45,24.32l-.19,8a70.87,70.87,0,0,1,9.86-.88q11.24,0,15.33,1.46,7.81,2.75,7.81,11.92a12.4,12.4,0,0,1-3.81,9.27A13.24,13.24,0,0,1,870.56,1041.91Z" fill="#e94444"/><path d="M977.69,1050.12q-.88,14.94-13.58,14.94-12.3,0-12.3-12.7l-.49-9.86q-22,3.51-31.45,22.56l.1,49.12a12.26,12.26,0,0,1-3.81,9.23,13.39,13.39,0,0,1-9.67,3.66q-6,0-9.37-3.91a13,13,0,0,1-3.13-9v-64q0-3,.2-9t.19-9a13.15,13.15,0,0,1,3.28-9.13q3.27-3.66,9.32-3.66,10.85,0,12.89,11.13a62.74,62.74,0,0,1,38.38-12.89q19.53,0,19.53,26Q977.78,1048.57,977.69,1050.12Z" fill="#e94444"/><path d="M1032.18,1126.29a43.43,43.43,0,0,1-31.06-12.4q-14.25-13.58-14.94-36.23A59.69,59.69,0,0,1,998,1039.18q14.84-19.92,41.31-19.92,19.53,0,31,15.62,10.35,14.07,10.35,34.87,0,22.65-12.11,38.67Q1055,1126.28,1032.18,1126.29ZM1038,1045q-12-.09-18.95,10.94a39.77,39.77,0,0,0-5.86,21.68q0,11.71,6.64,18a17.37,17.37,0,0,0,12.31,5,21,21,0,0,0,14.74-5.77q7.14-6.73,7.62-18.26Q1055.82,1045.14,1038,1045Z" fill="#e94444"/><path d="M1127.2,1106.17q0,18.55-13.48,18.56a13.3,13.3,0,0,1-9.67-3.71,12.79,12.79,0,0,1-3.81-9.57V976.39a11.79,11.79,0,0,1,4.11-9.28,14.4,14.4,0,0,1,9.66-3.32,13.36,13.36,0,0,1,9.48,3.47,11.91,11.91,0,0,1,3.71,9.13Z" fill="#e94444"/></svg>