<svg id="Layer_1" data-name="Layer 1" xmlns="http://www.w3.org/2000/svg" viewBox="0 0 1601 2561.5"><title>make_people_Like_u</title><rect x="0.5" y="1" width="1600" height="2560" fill="#02000d" stroke="#000" stroke-miterlimit="10"/><rect x="432.5" y="2241.5" width="936" height="99" fill="#ff0"/><path d="M249.39,1294.21h51.34v-42.4h11.94v98H300.73V1305H249.39v44.83H237.45v-98h11.94Z" transform="translate(0.5 0.5)" fill="#fff"/><path d="M398.15,1315.09A45.28,45.28,0,0,1,395.8,1330a33.67,33.67,0,0,1-6.63,11.54,29.45,29.45,0,0,1-10.36,7.43,33.87,33.87,0,0,1-13.62,2.64,34.67,34.67,0,0,1-13.88-2.64,29.34,29.34,0,0,1-10.4-7.43,32.75,32.75,0,0,1-6.56-11.54,46.66,46.66,0,0,1-2.27-14.94,45.61,45.61,0,0,1,2.34-15,34.33,34.33,0,0,1,6.63-11.57,29.24,29.24,0,0,1,10.4-7.47,34.13,34.13,0,0,1,13.66-2.64A34.83,34.83,0,0,1,379,1281a28.81,28.81,0,0,1,10.4,7.47,33.62,33.62,0,0,1,6.52,11.57A47,47,0,0,1,398.15,1315.09Zm-11.87,0a38.54,38.54,0,0,0-1.57-11.46,25.59,25.59,0,0,0-4.4-8.5,18.5,18.5,0,0,0-6.7-5.27,20.95,20.95,0,0,0-17,0,18.41,18.41,0,0,0-6.7,5.27,25.41,25.41,0,0,0-4.4,8.5,42.35,42.35,0,0,0,0,22.85,24.8,24.8,0,0,0,4.43,8.46,19.1,19.1,0,0,0,6.74,5.23,20,20,0,0,0,8.5,1.8,19.75,19.75,0,0,0,8.46-1.8,18.84,18.84,0,0,0,6.66-5.23,25.29,25.29,0,0,0,4.4-8.46A38.34,38.34,0,0,0,386.28,1315.09Z" transform="translate(0.5 0.5)" fill="#fff"/><path d="M457.53,1291.72q-2.23,9.6-4.18,16.56l-11.26,41.53H430.62L408,1280.23h11.36l13,43.35q2.58,8.58,3.91,13.7h.29q1.17-5.27,3.88-15.23l11.62-41.82H463.4l12.67,41.82q2.54,8.49,4.22,15.23h.29q1.77-6.73,3.91-13.7l13-43.35h11.35l-23.19,69.58H473.69l-11.56-41.53q-2.08-7.4-4.3-16.56Z" transform="translate(0.5 0.5)" fill="#fff"/><path d="M589.6,1350a23.61,23.61,0,0,1-4.47,1.1,48.64,48.64,0,0,1-7.17.59,30.07,30.07,0,0,1-9.53-1.36,17.93,17.93,0,0,1-6.7-3.88,15.8,15.8,0,0,1-4-6.12,23,23,0,0,1-1.32-8V1290H543v-9.74h13.4v-19h11.35v19h20.81V1290H567.77v40.57a14,14,0,0,0,.7,4.47,9,9,0,0,0,2.2,3.55,10.23,10.23,0,0,0,3.84,2.35,16.8,16.8,0,0,0,5.64.84,32.62,32.62,0,0,0,4.8-.37,37.72,37.72,0,0,0,4.65-1Z" transform="translate(0.5 0.5)" fill="#fff"/><path d="M667,1315.09a45,45,0,0,1-2.35,14.94,33.81,33.81,0,0,1-6.62,11.54,29.58,29.58,0,0,1-10.37,7.43,33.84,33.84,0,0,1-13.62,2.64,34.71,34.71,0,0,1-13.88-2.64,29.43,29.43,0,0,1-10.4-7.43,32.9,32.9,0,0,1-6.56-11.54,46.66,46.66,0,0,1-2.27-14.94,45.34,45.34,0,0,1,2.35-15,34,34,0,0,1,6.63-11.57,29.07,29.07,0,0,1,10.4-7.47,34.1,34.1,0,0,1,13.66-2.64,34.78,34.78,0,0,1,13.84,2.64,28.72,28.72,0,0,1,10.4,7.47,33.62,33.62,0,0,1,6.52,11.57A47,47,0,0,1,667,1315.09Zm-11.87,0a38.22,38.22,0,0,0-1.57-11.46,25.41,25.41,0,0,0-4.4-8.5,18.5,18.5,0,0,0-6.7-5.27,20.95,20.95,0,0,0-17,0,18.5,18.5,0,0,0-6.7,5.27,25.41,25.41,0,0,0-4.4,8.5,42.35,42.35,0,0,0,0,22.85,24.8,24.8,0,0,0,4.43,8.46,19.1,19.1,0,0,0,6.74,5.23,20,20,0,0,0,8.5,1.8,19.75,19.75,0,0,0,8.46-1.8,18.84,18.84,0,0,0,6.66-5.23,25.11,25.11,0,0,0,4.4-8.46A38,38,0,0,0,655.15,1315.09Z" transform="translate(0.5 0.5)" fill="#fff"/><path d="M825.78,1302.64q5.79-20.76,14.32-44.54L870.45,1174h45.19v175.79H883.46v-89.08q0-19.57,1.57-45.46h-1.18q-2.24,7.5-5.25,16.82t-6.31,18.39l-36.39,99.33H815.14l-36.39-99.33q-3.29-9.06-6.31-18.39t-5.25-16.82H766q1.57,24.32,1.57,45.33v89.21H735.39V1174h44.94l30.34,83.69q7.62,20.89,14.32,44.93Z" transform="translate(0.5 0.5)" fill="#0b1ddb"/><path d="M1028.63,1336.27h-.53a58.46,58.46,0,0,1-6.3,5.65,59.28,59.28,0,0,1-8.41,5.46,49.49,49.49,0,0,1-10.51,4.13,47.29,47.29,0,0,1-12.48,1.58,50,50,0,0,1-16.95-2.82,38.36,38.36,0,0,1-13.53-8.15,37.86,37.86,0,0,1-8.87-12.87,42.63,42.63,0,0,1-3.22-16.89,43.48,43.48,0,0,1,3.75-18.39A39,39,0,0,1,962,1280.18a46.14,46.14,0,0,1,16-8.61,68,68,0,0,1,20.63-3,102.61,102.61,0,0,1,15.24,1.06,106.92,106.92,0,0,1,12.21,2.49V1267a24.85,24.85,0,0,0-1.51-8.61,19.06,19.06,0,0,0-4.86-7.35A23.81,23.81,0,0,0,1011,1246a39.74,39.74,0,0,0-13.14-1.9,87.07,87.07,0,0,0-18.92,2.1,148.71,148.71,0,0,0-20.5,6.3v-24.3a102.77,102.77,0,0,1,20.37-6.44,117.62,117.62,0,0,1,22.6-2.36,78.79,78.79,0,0,1,24.37,3.41,51.2,51.2,0,0,1,17.47,9.4,38,38,0,0,1,10.51,14.12,44.67,44.67,0,0,1,3.48,17.74v48q0,12.62.26,21.68t.53,16.16h-28.12Zm-2.5-40.72q-4.46-1-10.24-1.91a79.88,79.88,0,0,0-11.7-.85q-11.43,0-18.06,4.53t-6.63,13.86a17.54,17.54,0,0,0,1.51,7.55,14.89,14.89,0,0,0,4.07,5.33,17.37,17.37,0,0,0,6,3.15,24.38,24.38,0,0,0,7.22,1,31,31,0,0,0,8.94-1.25,41,41,0,0,0,7.75-3.15,37.84,37.84,0,0,0,6.37-4.27,44.5,44.5,0,0,0,4.79-4.6Z" transform="translate(0.5 0.5)" fill="#0b1ddb"/><path d="M1093.53,1159.57h31.14v114.56h.65l48.48-51.63h38.5l-55.84,59.78,56.23,67.53H1175l-49.79-59.26h-.52v59.26h-31.14Z" transform="translate(0.5 0.5)" fill="#0b1ddb"/><path d="M1291.39,1328a103.53,103.53,0,0,0,18.91-1.84,146.39,146.39,0,0,0,20-5.26v24.83q-6,2.64-18.52,5a138.48,138.48,0,0,1-25.88,2.37,92.9,92.9,0,0,1-25.69-3.48,55.91,55.91,0,0,1-21.21-11.23,54.07,54.07,0,0,1-14.39-20.1q-5.32-12.36-5.32-30,0-17.34,5-30.35a61.82,61.82,0,0,1,13.4-21.54,55,55,0,0,1,19.25-12.81,60.53,60.53,0,0,1,22.4-4.27,65.16,65.16,0,0,1,22.27,3.68,44.7,44.7,0,0,1,17.6,11.56q7.42,7.88,11.56,20.3t4.14,29.36q-.13,6.57-.39,11.17h-83.43a38.21,38.21,0,0,0,3.94,15,28.91,28.91,0,0,0,8.61,10.11,35.36,35.36,0,0,0,12.41,5.65A63,63,0,0,0,1291.39,1328Zm-12.49-84.35a24.46,24.46,0,0,0-10.51,2.17,24.81,24.81,0,0,0-7.94,5.91,28.69,28.69,0,0,0-5.32,8.74,42,42,0,0,0-2.63,10.64h50a36.49,36.49,0,0,0-1.51-10.64,26.26,26.26,0,0,0-4.46-8.74,21.39,21.39,0,0,0-7.36-5.91A23.17,23.17,0,0,0,1278.9,1243.65Z" transform="translate(0.5 0.5)" fill="#0b1ddb"/><path d="M305.8,1678.09a45,45,0,0,1-18.59-3.74,46,46,0,0,1-13.86-9.27h-.53c.09,1.76.18,4.23.27,7.43s.13,6.67.13,10.44v53H242.08V1547.5h27.33l1.31,14.32h.53a45.78,45.78,0,0,1,14.84-12.55,43.4,43.4,0,0,1,21-4.92,56.43,56.43,0,0,1,20.43,3.87,49.28,49.28,0,0,1,17.8,11.89,58.88,58.88,0,0,1,12.42,20.24q4.67,12.21,4.66,29,0,17.73-5,30.68a63.43,63.43,0,0,1-13.14,21.41A52.9,52.9,0,0,1,326.23,1674,53.46,53.46,0,0,1,305.8,1678.09Zm-4.07-108.78a34,34,0,0,0-15.51,4,44.16,44.16,0,0,0-13,10.44v56.76A38.74,38.74,0,0,0,278,1645a39.75,39.75,0,0,0,6.17,4.08,38.34,38.34,0,0,0,7.56,3,31,31,0,0,0,8.6,1.18,25.66,25.66,0,0,0,22.27-11.82,43.27,43.27,0,0,0,5.71-13.47,79.36,79.36,0,0,0-.06-35.41,38.15,38.15,0,0,0-5.78-12.87,24.86,24.86,0,0,0-9-7.75A25.81,25.81,0,0,0,301.73,1569.31Z" transform="translate(0.5 0.5)" fill="#16db4e"/><path d="M455.57,1653a103.72,103.72,0,0,0,18.92-1.84,146.77,146.77,0,0,0,20-5.26v24.83q-6,2.64-18.53,5a138.48,138.48,0,0,1-25.88,2.37,92.83,92.83,0,0,1-25.68-3.48,55.88,55.88,0,0,1-21.22-11.23,54.18,54.18,0,0,1-14.39-20.1q-5.31-12.36-5.32-30,0-17.34,5-30.35a61.53,61.53,0,0,1,13.4-21.54,54.93,54.93,0,0,1,19.24-12.81,60.53,60.53,0,0,1,22.4-4.27,65.16,65.16,0,0,1,22.27,3.68,44.67,44.67,0,0,1,17.61,11.56q7.41,7.88,11.56,20.29t4.14,29.37q-.13,6.57-.4,11.17H415.24a38,38,0,0,0,3.94,15,29,29,0,0,0,8.6,10.11,35.33,35.33,0,0,0,12.42,5.65A62.87,62.87,0,0,0,455.57,1653Zm-12.48-84.35a24.43,24.43,0,0,0-10.51,2.17,24.74,24.74,0,0,0-7.95,5.91,28.88,28.88,0,0,0-5.32,8.74,42.42,42.42,0,0,0-2.63,10.64h50.06a36.83,36.83,0,0,0-1.51-10.64,26.28,26.28,0,0,0-4.47-8.74,21.3,21.3,0,0,0-7.36-5.91A23.13,23.13,0,0,0,443.09,1568.65Z" transform="translate(0.5 0.5)" fill="#16db4e"/><path d="M649.35,1611.22a79.76,79.76,0,0,1-4.47,27.32,59.71,59.71,0,0,1-12.81,21.16,56.64,56.64,0,0,1-20.16,13.59,69.64,69.64,0,0,1-26.41,4.8,71.29,71.29,0,0,1-26.87-4.8,56,56,0,0,1-20.16-13.59,59.59,59.59,0,0,1-12.68-21.16,80.75,80.75,0,0,1-4.4-27.32,79.82,79.82,0,0,1,4.47-27.33,59.76,59.76,0,0,1,12.81-21.15,56.8,56.8,0,0,1,20.16-13.6,69.83,69.83,0,0,1,26.41-4.79,71.49,71.49,0,0,1,26.87,4.79,56.1,56.1,0,0,1,20.16,13.6A59.78,59.78,0,0,1,645,1583.89,81.06,81.06,0,0,1,649.35,1611.22Zm-32.19,0a61.26,61.26,0,0,0-2.36-17.87,38.65,38.65,0,0,0-6.57-13,26.59,26.59,0,0,0-10.12-7.89,31.35,31.35,0,0,0-12.87-2.63,30.59,30.59,0,0,0-12.68,2.63,26.75,26.75,0,0,0-10,7.89,38.65,38.65,0,0,0-6.57,13,68.84,68.84,0,0,0,0,35.74,37.27,37.27,0,0,0,6.64,12.94,28.18,28.18,0,0,0,10.11,7.88,30.19,30.19,0,0,0,12.81,2.69,29.79,29.79,0,0,0,12.75-2.69,27.84,27.84,0,0,0,10-7.88,38.05,38.05,0,0,0,6.57-12.94A61.26,61.26,0,0,0,617.16,1611.22Z" transform="translate(0.5 0.5)" fill="#16db4e"/><path d="M740.66,1678.09a45,45,0,0,1-18.59-3.74,46,46,0,0,1-13.86-9.27h-.53c.09,1.76.18,4.23.27,7.43s.13,6.67.13,10.44v53H676.94V1547.5h27.33l1.31,14.32h.53A45.78,45.78,0,0,1,721,1549.27a43.4,43.4,0,0,1,21-4.92,56.43,56.43,0,0,1,20.43,3.87,49.28,49.28,0,0,1,17.8,11.89,58.88,58.88,0,0,1,12.42,20.24q4.67,12.21,4.66,29,0,17.73-5,30.68a63.43,63.43,0,0,1-13.14,21.41,52.51,52.51,0,0,1-38.49,16.62Zm-4.07-108.78a34,34,0,0,0-15.51,4,44.16,44.16,0,0,0-13,10.44v56.76a38.74,38.74,0,0,0,4.73,4.46,39.75,39.75,0,0,0,6.17,4.08,38.34,38.34,0,0,0,7.56,3,31,31,0,0,0,8.6,1.18,25.66,25.66,0,0,0,22.27-11.82,43.27,43.27,0,0,0,5.71-13.47,79.36,79.36,0,0,0-.06-35.41,38.15,38.15,0,0,0-5.78-12.87,24.86,24.86,0,0,0-9-7.75A25.81,25.81,0,0,0,736.59,1569.31Z" transform="translate(0.5 0.5)" fill="#16db4e"/><path d="M826.19,1674.81V1484.57h31.13v190.24Z" transform="translate(0.5 0.5)" fill="#16db4e"/><path d="M958.35,1653a103.72,103.72,0,0,0,18.92-1.84,146.77,146.77,0,0,0,20-5.26v24.83q-6,2.64-18.53,5a138.4,138.4,0,0,1-25.88,2.37,92.83,92.83,0,0,1-25.68-3.48,56,56,0,0,1-21.22-11.23,54,54,0,0,1-14.38-20.1q-5.32-12.36-5.33-30,0-17.34,5-30.35a61.53,61.53,0,0,1,13.4-21.54,54.88,54.88,0,0,1,19.25-12.81,60.48,60.48,0,0,1,22.39-4.27,65.12,65.12,0,0,1,22.27,3.68,44.67,44.67,0,0,1,17.61,11.56q7.41,7.88,11.56,20.29t4.14,29.37q-.14,6.57-.4,11.17H918a38.21,38.21,0,0,0,3.94,15,28.91,28.91,0,0,0,8.61,10.11,35.2,35.2,0,0,0,12.41,5.65A62.87,62.87,0,0,0,958.35,1653Zm-12.48-84.35a24.43,24.43,0,0,0-10.51,2.17,24.85,24.85,0,0,0-8,5.91,29.09,29.09,0,0,0-5.32,8.74,42.42,42.42,0,0,0-2.63,10.64h50.06a36.83,36.83,0,0,0-1.51-10.64,26.28,26.28,0,0,0-4.47-8.74,21.21,21.21,0,0,0-7.36-5.91A23.13,23.13,0,0,0,945.87,1568.65Z" transform="translate(0.5 0.5)" fill="#16db4e"/><path d="M439.8,1824v148.85h82.25v26.94H407.62V1824Z" transform="translate(0.5 0.5)" fill="#ff1919"/><path d="M548.32,1809.57H581v33.76H548.32Zm.79,62.93h31.14v127.31H549.11Z" transform="translate(0.5 0.5)" fill="#ff1919"/><path d="M616.51,1809.57h31.13v114.56h.66l48.48-51.63h38.49l-55.83,59.78,56.23,67.53H698l-49.79-59.26h-.53v59.26H616.51Z" transform="translate(0.5 0.5)" fill="#ff1919"/><path d="M814.36,1978a103.72,103.72,0,0,0,18.92-1.84,146.77,146.77,0,0,0,20-5.26v24.83q-6,2.64-18.53,5a138.4,138.4,0,0,1-25.88,2.37,92.83,92.83,0,0,1-25.68-3.48,56,56,0,0,1-21.22-11.23,54,54,0,0,1-14.38-20.1q-5.32-12.36-5.32-30,0-17.34,5-30.35a61.68,61.68,0,0,1,13.4-21.54,54.88,54.88,0,0,1,19.25-12.81,60.49,60.49,0,0,1,22.4-4.27,65.1,65.1,0,0,1,22.26,3.68,44.67,44.67,0,0,1,17.61,11.56q7.43,7.88,11.56,20.29t4.14,29.37q-.14,6.57-.4,11.17H774a38.21,38.21,0,0,0,3.94,15,28.91,28.91,0,0,0,8.61,10.11,35.2,35.2,0,0,0,12.41,5.65A62.87,62.87,0,0,0,814.36,1978Zm-12.48-84.35a24.46,24.46,0,0,0-10.51,2.17,24.85,24.85,0,0,0-8,5.91,29.09,29.09,0,0,0-5.32,8.74,42.42,42.42,0,0,0-2.63,10.64h50.06a36.83,36.83,0,0,0-1.51-10.64,26.28,26.28,0,0,0-4.47-8.74,21.21,21.21,0,0,0-7.36-5.91A23.13,23.13,0,0,0,801.88,1893.65Z" transform="translate(0.5 0.5)" fill="#ff1919"/><path d="M981.08,1899.7l46.77-75.68h35.74L997,1929v70.82H964.79V1929l-66.61-105h35.74l46.77,75.68Z" transform="translate(0.5 0.5)" fill="#ff1919"/><path d="M1183.67,1936.22a80,80,0,0,1-4.47,27.32,60,60,0,0,1-12.81,21.16,56.68,56.68,0,0,1-20.17,13.59,69.59,69.59,0,0,1-26.4,4.8,71.22,71.22,0,0,1-26.87-4.8,55.9,55.9,0,0,1-20.17-13.59,59.73,59.73,0,0,1-12.68-21.16,81,81,0,0,1-4.4-27.32,79.82,79.82,0,0,1,4.47-27.33,60,60,0,0,1,12.81-21.15,56.75,56.75,0,0,1,20.17-13.6,69.78,69.78,0,0,1,26.4-4.79,71.45,71.45,0,0,1,26.87,4.79,56.13,56.13,0,0,1,20.17,13.6,59.76,59.76,0,0,1,12.67,21.15A80.81,80.81,0,0,1,1183.67,1936.22Zm-32.19,0a61.25,61.25,0,0,0-2.37-17.87,38.29,38.29,0,0,0-6.57-13,26.63,26.63,0,0,0-10.11-7.89,31.4,31.4,0,0,0-12.88-2.63,30.63,30.63,0,0,0-12.68,2.63,26.91,26.91,0,0,0-10,7.89,38.65,38.65,0,0,0-6.57,13,68.84,68.84,0,0,0,0,35.74,37.27,37.27,0,0,0,6.64,12.94,28.22,28.22,0,0,0,10.12,7.88,30.13,30.13,0,0,0,12.81,2.69,29.75,29.75,0,0,0,12.74-2.69,27.84,27.84,0,0,0,10-7.88,37.7,37.7,0,0,0,6.57-12.94A61.25,61.25,0,0,0,1151.48,1936.22Z" transform="translate(0.5 0.5)" fill="#ff1919"/><path d="M1267.48,2003.09q-19.18,0-31.79-6.5t-19-17.54a47.11,47.11,0,0,1-5.06-13,70.25,70.25,0,0,1-1.64-15.76V1872.5h31.14V1947a57.54,57.54,0,0,0,.92,11.1,28.71,28.71,0,0,0,2.75,8.08,19.94,19.94,0,0,0,8.94,8.61,31.15,31.15,0,0,0,13.79,2.82,30.52,30.52,0,0,0,14.39-3.15,20.24,20.24,0,0,0,9-9.59q3-6.18,3-17.21V1872.5H1325v77.78q0,15.49-5.39,26.14a43.34,43.34,0,0,1-7.82,11,45.79,45.79,0,0,1-11.29,8.41,60.19,60.19,0,0,1-14.72,5.39A81.8,81.8,0,0,1,1267.48,2003.09Z" transform="translate(0.5 0.5)" fill="#ff1919"/><path d="M464.9,2324.81l10.35-49.93h8.14L473,2324.81Zm12.56-61.54,1.84-9h8.56l-1.84,9Z" transform="translate(0.5 0.5)"/><path d="M496,2324.81h-8.15l10.41-49.93h6.67v6.78h.21a23.64,23.64,0,0,1,7.54-5.94,21.69,21.69,0,0,1,9.75-2.15,17.67,17.67,0,0,1,5.49.81,12.43,12.43,0,0,1,4.26,2.34,10.76,10.76,0,0,1,2.76,3.78,12.77,12.77,0,0,1,1,5.16,29.69,29.69,0,0,1-.35,4.36c-.22,1.54-.51,3.12-.86,4.73l-6.26,30.06h-8.14l6.41-31a30.72,30.72,0,0,0,.84-6.31,8.46,8.46,0,0,0-.55-3.23,5.4,5.4,0,0,0-1.55-2.15,6.66,6.66,0,0,0-2.39-1.21,11.19,11.19,0,0,0-3-.4,16.67,16.67,0,0,0-6.57,1.29,17.73,17.73,0,0,0-5.42,3.55,21.25,21.25,0,0,0-4,5.31,24.59,24.59,0,0,0-2.37,6.62Z" transform="translate(0.5 0.5)"/><path d="M610.88,2296.32a71.41,71.41,0,0,1-1.15,12.67,62.86,62.86,0,0,1-3.37,12,52.8,52.8,0,0,1-5.36,10.27,38.4,38.4,0,0,1-7.2,8.07,31.51,31.51,0,0,1-8.9,5.28,28.27,28.27,0,0,1-10.33,1.89,27.43,27.43,0,0,1-7.83-1,29.15,29.15,0,0,1-5.31-2.05l1.63-6.78a24.56,24.56,0,0,0,5,2,23.45,23.45,0,0,0,6.18.79,21.17,21.17,0,0,0,9.56-2.26,27.17,27.17,0,0,0,8.09-6.26,40,40,0,0,0,6.2-9.46,63.24,63.24,0,0,0,4.26-11.82h-.21a16.24,16.24,0,0,1-3.1,3.1,20.83,20.83,0,0,1-4,2.42,23.45,23.45,0,0,1-9.75,2.1,21.52,21.52,0,0,1-6.8-1,15.21,15.21,0,0,1-5.55-3.21,14.81,14.81,0,0,1-3.7-5.39,19.57,19.57,0,0,1-1.34-7.59,30.39,30.39,0,0,1,1.73-10.33,26.38,26.38,0,0,1,4.84-8.38,22.87,22.87,0,0,1,7.38-5.65,21.25,21.25,0,0,1,9.38-2.07,21.91,21.91,0,0,1,7.51,1.29,16.42,16.42,0,0,1,6.28,4,19.17,19.17,0,0,1,4.29,7A30.38,30.38,0,0,1,610.88,2296.32ZM586.4,2310a16.69,16.69,0,0,0,6.85-1.37,15.28,15.28,0,0,0,5.18-3.68,16.14,16.14,0,0,0,3.21-5.31,18,18,0,0,0,1.1-6.25,17.42,17.42,0,0,0-.74-5.2,11.42,11.42,0,0,0-2.18-4.08,9.89,9.89,0,0,0-3.55-2.65,11.66,11.66,0,0,0-4.83-.95,13.45,13.45,0,0,0-6.12,1.45,14.64,14.64,0,0,0-4.92,4,19.6,19.6,0,0,0-3.2,6.07,23.87,23.87,0,0,0-1.16,7.54c0,3.5,1,6.12,2.79,7.83S583.17,2310,586.4,2310Z" transform="translate(0.5 0.5)"/><path d="M667.22,2292.33a40.66,40.66,0,0,1-.74,7.49,39.61,39.61,0,0,1-2.26,7.67,38.06,38.06,0,0,1-3.81,7.15,27.73,27.73,0,0,1-5.38,5.94,25.24,25.24,0,0,1-7,4,23.82,23.82,0,0,1-8.62,1.5,23.28,23.28,0,0,1-8.65-1.42,15.11,15.11,0,0,1-5.78-3.94,15.3,15.3,0,0,1-3.23-6,26.74,26.74,0,0,1-1-7.43,40.66,40.66,0,0,1,.74-7.49,39.61,39.61,0,0,1,2.26-7.67,38.06,38.06,0,0,1,3.81-7.15,27.51,27.51,0,0,1,5.39-5.94,24.8,24.8,0,0,1,7-4,23.82,23.82,0,0,1,8.62-1.5,23.28,23.28,0,0,1,8.65,1.42,15,15,0,0,1,5.78,3.94,15.32,15.32,0,0,1,3.23,5.94A26.29,26.29,0,0,1,667.22,2292.33Zm-38.31,14.82q0,5.83,2.55,8.93c1.7,2.07,4.47,3.1,8.33,3.1a14.27,14.27,0,0,0,7.75-2.23,21.31,21.31,0,0,0,6.12-5.94,29.15,29.15,0,0,0,4-8.51,34.91,34.91,0,0,0,1.42-10q0-5.84-2.55-8.93t-8.32-3.11a14.29,14.29,0,0,0-7.76,2.24,21,21,0,0,0-6.09,5.94,30.37,30.37,0,0,0-4,8.51A34.57,34.57,0,0,0,628.91,2307.15Z" transform="translate(0.5 0.5)"/><path d="M708.52,2288.28a5.64,5.64,0,0,0,.66,2.81,6.77,6.77,0,0,0,1.76,2,11.5,11.5,0,0,0,2.58,1.5c1,.42,2,.82,3.1,1.21,1.5.53,3,1.1,4.57,1.71a17.57,17.57,0,0,1,4.2,2.36,11.39,11.39,0,0,1,3.1,3.66,11.68,11.68,0,0,1,1.21,5.67,16.37,16.37,0,0,1-1.55,7.3,14.79,14.79,0,0,1-4.31,5.29,19.18,19.18,0,0,1-6.57,3.2,30.43,30.43,0,0,1-8.33,1.08,39.55,39.55,0,0,1-8.17-.87,21.57,21.57,0,0,1-6.49-2.28l1.53-6.84a45.8,45.8,0,0,0,6.07,2.13,25.81,25.81,0,0,0,7.06.92,18.47,18.47,0,0,0,6.6-1,11.37,11.37,0,0,0,3.89-2.36,6.92,6.92,0,0,0,1.84-2.92,9.85,9.85,0,0,0,.44-2.63,5.86,5.86,0,0,0-.94-3.41,8.33,8.33,0,0,0-2.47-2.32,18.61,18.61,0,0,0-3.47-1.65l-4-1.45q-2-.73-3.84-1.65a13.82,13.82,0,0,1-3.34-2.26,10.42,10.42,0,0,1-2.34-3.31,11.74,11.74,0,0,1-.89-4.81,15.66,15.66,0,0,1,1.47-7,14.37,14.37,0,0,1,4-4.94,17.11,17.11,0,0,1,5.75-2.94,24,24,0,0,1,6.89-1,31.87,31.87,0,0,1,4.26.29,38.06,38.06,0,0,1,4,.76,33.51,33.51,0,0,1,3.65,1.08,24.46,24.46,0,0,1,3,1.28l-1.42,6.73a51,51,0,0,0-6.49-2.29,25.09,25.09,0,0,0-6.65-.92,15.19,15.19,0,0,0-4.47.61,10.26,10.26,0,0,0-3.26,1.63,6.84,6.84,0,0,0-2,2.44A7,7,0,0,0,708.52,2288.28Z" transform="translate(0.5 0.5)"/><path d="M782.57,2286.5a12.92,12.92,0,0,1-2.31,7.83,16.25,16.25,0,0,1-6.7,5.09,41.44,41.44,0,0,1-10.75,2.87,125.34,125.34,0,0,1-14.5,1.13c0,.38-.07.77-.08,1.15s0,.81,0,1.26q0,6.84,3.42,10t10.24,3.15a32,32,0,0,0,3.71-.23,35.39,35.39,0,0,0,3.81-.69c1.26-.29,2.48-.64,3.65-1a28.48,28.48,0,0,0,3.18-1.26l-1.47,7.46a33.88,33.88,0,0,1-6.33,2.05,35.34,35.34,0,0,1-7.91.84,26,26,0,0,1-9.23-1.47,16.71,16.71,0,0,1-6.35-4.13,16.44,16.44,0,0,1-3.68-6.3,25.9,25.9,0,0,1-1.19-8,41.7,41.7,0,0,1,.79-8,38.72,38.72,0,0,1,2.34-7.62,33.24,33.24,0,0,1,3.84-6.72,26.46,26.46,0,0,1,5.28-5.39,24.67,24.67,0,0,1,6.7-3.6,24,24,0,0,1,8-1.31,22.5,22.5,0,0,1,5.92.76,14.71,14.71,0,0,1,5,2.37,11.46,11.46,0,0,1,3.42,4A12.42,12.42,0,0,1,782.57,2286.5Zm-32.74,9.61a84.4,84.4,0,0,0,10.35-.57,34.85,34.85,0,0,0,7.73-1.77,12,12,0,0,0,4.83-3,6.57,6.57,0,0,0,1.68-4.55,5,5,0,0,0-.47-2.13,5.21,5.21,0,0,0-1.42-1.81,7.06,7.06,0,0,0-2.34-1.26,9.75,9.75,0,0,0-3.18-.48,14.92,14.92,0,0,0-5.7,1.11,16.52,16.52,0,0,0-4.94,3.15,21.06,21.06,0,0,0-3.91,4.94A26,26,0,0,0,749.83,2296.11Z" transform="translate(0.5 0.5)"/><path d="M828.13,2283.29a30.78,30.78,0,0,0-5.54-1.89,24,24,0,0,0-5.65-.74,16.05,16.05,0,0,0-6.44,1.26,17.33,17.33,0,0,0-5.1,3.34,21.22,21.22,0,0,0-3.73,4.76,31,31,0,0,0-2.52,5.54,34.62,34.62,0,0,0-1.42,5.65,32.24,32.24,0,0,0-.45,5.1,18.15,18.15,0,0,0,.9,6.15,9.42,9.42,0,0,0,2.49,3.91,9.26,9.26,0,0,0,3.84,2.05,18.69,18.69,0,0,0,4.86.61,27,27,0,0,0,7.25-1,28.06,28.06,0,0,0,5.94-2.28l-1.47,7.46a16.91,16.91,0,0,1-2.52,1.1,27.87,27.87,0,0,1-3.21.92,36,36,0,0,1-3.6.63,29.43,29.43,0,0,1-3.76.24,24.4,24.4,0,0,1-7.2-1,15.84,15.84,0,0,1-6-3.39,16.43,16.43,0,0,1-4.13-6,23,23,0,0,1-1.52-8.86A41.41,41.41,0,0,1,792,2292a36.89,36.89,0,0,1,3.65-7.06,26.1,26.1,0,0,1,5.28-5.86,24.39,24.39,0,0,1,7.07-4,24.9,24.9,0,0,1,8.83-1.5,27.18,27.18,0,0,1,3.73.26c1.23.18,2.39.4,3.5.66s2.13.56,3.1.89a25.81,25.81,0,0,1,2.44,1Z" transform="translate(0.5 0.5)"/><path d="M878.74,2293.22a38.51,38.51,0,0,1-.69,7,39.55,39.55,0,0,1-2.1,7.38,38.16,38.16,0,0,1-3.6,7,26.73,26.73,0,0,1-5.2,5.91,24.71,24.71,0,0,1-6.89,4.08,23.61,23.61,0,0,1-8.69,1.52,20.66,20.66,0,0,1-7.31-1.24,14.84,14.84,0,0,1-5.62-3.65,16.88,16.88,0,0,1-3.6-5.91,23,23,0,0,1-1.29-8,42.42,42.42,0,0,1,2.74-14.64,39.64,39.64,0,0,1,3.59-7.2,28.37,28.37,0,0,1,5.18-6.09,23.9,23.9,0,0,1,6.89-4.24,22.89,22.89,0,0,1,8.67-1.57,20.8,20.8,0,0,1,7.33,1.23,15.29,15.29,0,0,1,5.65,3.68,16.61,16.61,0,0,1,3.65,6.12A26.11,26.11,0,0,1,878.74,2293.22Zm-18.4-12.72a13.26,13.26,0,0,0-5.57,1.16,16.38,16.38,0,0,0-4.57,3.13,21,21,0,0,0-3.6,4.6A32.55,32.55,0,0,0,844,2295a36.25,36.25,0,0,0-2.1,12,19.39,19.39,0,0,0,.6,5,10.74,10.74,0,0,0,1.87,3.87,8.34,8.34,0,0,0,3.2,2.47,11.31,11.31,0,0,0,4.58.86,13.28,13.28,0,0,0,5.54-1.15,16.44,16.44,0,0,0,4.6-3.13,22.16,22.16,0,0,0,3.6-4.57,31.66,31.66,0,0,0,2.6-5.55,36.24,36.24,0,0,0,2.1-12.08,19.36,19.36,0,0,0-.6-5,10.75,10.75,0,0,0-1.87-3.84,8.34,8.34,0,0,0-3.2-2.47A11.14,11.14,0,0,0,860.34,2280.5Z" transform="translate(0.5 0.5)"/><path d="M893.19,2324.81H885l10.41-49.93h6.67v6.78h.21a23.64,23.64,0,0,1,7.54-5.94,21.69,21.69,0,0,1,9.75-2.15,17.67,17.67,0,0,1,5.49.81,12.34,12.34,0,0,1,4.26,2.34,10.76,10.76,0,0,1,2.76,3.78,12.77,12.77,0,0,1,1,5.16,31,31,0,0,1-.34,4.36c-.23,1.54-.52,3.12-.87,4.73l-6.25,30.06h-8.15l6.41-31a30.72,30.72,0,0,0,.84-6.31,8.46,8.46,0,0,0-.55-3.23,5.4,5.4,0,0,0-1.55-2.15,6.58,6.58,0,0,0-2.39-1.21,11.19,11.19,0,0,0-3-.4,16.67,16.67,0,0,0-6.57,1.29,17.85,17.85,0,0,0-5.42,3.55,21.25,21.25,0,0,0-4,5.31,24.24,24.24,0,0,0-2.36,6.62Z" transform="translate(0.5 0.5)"/><path d="M956.25,2326.12a14,14,0,0,1-5.89-1.18,12,12,0,0,1-4.36-3.39,15.51,15.51,0,0,1-2.73-5.31,23.54,23.54,0,0,1-.95-6.88,51.23,51.23,0,0,1,.77-8.81,46.55,46.55,0,0,1,2.23-8.35,39.33,39.33,0,0,1,3.63-7.39,27.8,27.8,0,0,1,4.94-5.91,21.13,21.13,0,0,1,6.28-3.91,18.92,18.92,0,0,1,7.22-1.42,14.83,14.83,0,0,1,7.36,1.71,12.22,12.22,0,0,1,4.73,4.65h.21l6.51-31.22h8.15L980.9,2313.3q-.17.84-.27,1.65a10.83,10.83,0,0,0-.1,1.34,2.29,2.29,0,0,0,.68,1.84,4,4,0,0,0,2.52.58c.43,0,1,0,1.61-.08a17.46,17.46,0,0,0,1.86-.24l-1.42,6.73a12.94,12.94,0,0,1-2.15.34c-.91.09-1.82.13-2.73.13q-4.36,0-6.31-2.05t-1.84-6.93h-.21a23.25,23.25,0,0,1-3.86,4.44,22.34,22.34,0,0,1-4.21,2.94,17.64,17.64,0,0,1-8.22,2.13Zm22.18-40a18.39,18.39,0,0,0-1.66-1.95,11.72,11.72,0,0,0-5.1-3.07,12.39,12.39,0,0,0-9.09.84,15.49,15.49,0,0,0-4.49,3.55,23.61,23.61,0,0,0-3.39,5.07,38.67,38.67,0,0,0-2.39,5.91,39.32,39.32,0,0,0-1.39,6.07,38.11,38.11,0,0,0-.45,5.59,18.63,18.63,0,0,0,.68,5.47,9.16,9.16,0,0,0,1.79,3.39,6.11,6.11,0,0,0,2.52,1.73,8.49,8.49,0,0,0,2.89.5,11.63,11.63,0,0,0,5.26-1.34,17.68,17.68,0,0,0,5-3.89,26.7,26.7,0,0,0,4.23-6.25,32.87,32.87,0,0,0,2.81-8.43Z" transform="translate(0.5 0.5)"/><path d="M1008.85,2288.28a5.64,5.64,0,0,0,.66,2.81,6.77,6.77,0,0,0,1.76,2,11.28,11.28,0,0,0,2.58,1.5c1,.42,2,.82,3.1,1.21,1.5.53,3,1.1,4.57,1.71a17.57,17.57,0,0,1,4.2,2.36,11.39,11.39,0,0,1,3.1,3.66,11.68,11.68,0,0,1,1.21,5.67,16.37,16.37,0,0,1-1.55,7.3,14.79,14.79,0,0,1-4.31,5.29,19.18,19.18,0,0,1-6.57,3.2,30.43,30.43,0,0,1-8.33,1.08,39.55,39.55,0,0,1-8.17-.87,21.57,21.57,0,0,1-6.49-2.28l1.53-6.84a45.8,45.8,0,0,0,6.07,2.13,25.76,25.76,0,0,0,7.06.92,18.51,18.51,0,0,0,6.6-1,11.37,11.37,0,0,0,3.89-2.36,6.92,6.92,0,0,0,1.84-2.92,9.85,9.85,0,0,0,.44-2.63,5.86,5.86,0,0,0-.94-3.41,8.33,8.33,0,0,0-2.47-2.32,18.61,18.61,0,0,0-3.47-1.65l-4-1.45q-1.95-.73-3.84-1.65a13.82,13.82,0,0,1-3.34-2.26,10.42,10.42,0,0,1-2.34-3.31,11.74,11.74,0,0,1-.89-4.81,15.66,15.66,0,0,1,1.47-7,14.37,14.37,0,0,1,4-4.94,17.11,17.11,0,0,1,5.75-2.94,24,24,0,0,1,6.89-1,31.61,31.61,0,0,1,4.25.29,38.25,38.25,0,0,1,4.05.76,34.19,34.19,0,0,1,3.65,1.08,23.65,23.65,0,0,1,3,1.28l-1.41,6.73a51,51,0,0,0-6.49-2.29,25.14,25.14,0,0,0-6.65-.92,15.19,15.19,0,0,0-4.47.61,10.26,10.26,0,0,0-3.26,1.63,6.84,6.84,0,0,0-2,2.44A7,7,0,0,0,1008.85,2288.28Z" transform="translate(0.5 0.5)"/><path d="M1106.91,2293.22a38.45,38.45,0,0,1-.68,7,41.14,41.14,0,0,1-2.1,7.38,38.79,38.79,0,0,1-3.6,7,27,27,0,0,1-5.2,5.91,24.71,24.71,0,0,1-6.89,4.08,23.62,23.62,0,0,1-8.7,1.52,20.6,20.6,0,0,1-7.3-1.24,14.76,14.76,0,0,1-5.62-3.65,16.88,16.88,0,0,1-3.6-5.91,23,23,0,0,1-1.29-8,42.71,42.71,0,0,1,2.73-14.64,40.35,40.35,0,0,1,3.6-7.2,28.37,28.37,0,0,1,5.18-6.09,24,24,0,0,1,6.88-4.24,23,23,0,0,1,8.67-1.57,20.76,20.76,0,0,1,7.33,1.23,15.21,15.21,0,0,1,5.65,3.68,16.49,16.49,0,0,1,3.66,6.12A26.38,26.38,0,0,1,1106.91,2293.22Zm-18.39-12.72a13.22,13.22,0,0,0-5.57,1.16,16.23,16.23,0,0,0-4.57,3.13,21,21,0,0,0-3.6,4.6,32.55,32.55,0,0,0-2.6,5.57,36.25,36.25,0,0,0-2.1,12,19.39,19.39,0,0,0,.6,5,10.56,10.56,0,0,0,1.86,3.87,8.37,8.37,0,0,0,3.21,2.47,11.29,11.29,0,0,0,4.57.86,13.29,13.29,0,0,0,5.55-1.15,16.25,16.25,0,0,0,4.59-3.13,21.5,21.5,0,0,0,3.6-4.57,31.69,31.69,0,0,0,2.61-5.55,35.5,35.5,0,0,0,1.57-6,36.2,36.2,0,0,0,.53-6,18.92,18.92,0,0,0-.61-5,10.58,10.58,0,0,0-1.86-3.84,8.3,8.3,0,0,0-3.21-2.47A11.09,11.09,0,0,0,1088.52,2280.5Z" transform="translate(0.5 0.5)"/><path d="M1147.64,2281.82a25,25,0,0,0-3.2-.21,17.07,17.07,0,0,0-6.63,1.23,16,16,0,0,0-5.09,3.37,18,18,0,0,0-3.55,5,26.53,26.53,0,0,0-2.08,6.07l-5.72,27.54h-8.15l10.41-49.93h6.67v6.78h.21a26.77,26.77,0,0,1,2.78-3.15,18.26,18.26,0,0,1,3.42-2.58,17.56,17.56,0,0,1,9-2.36c.63,0,1.24,0,1.84.08s1.17.13,1.73.23Z" transform="translate(0.5 0.5)"/><path d="M1184.64,2325.12a14.58,14.58,0,0,1-2.18.34c-.9.09-1.82.13-2.76.13-3,0-5.16-.57-6.65-1.73s-2.23-3-2.23-5.47a19,19,0,0,1,.42-3.67l13.82-66h8.14l-13.34,63.85a19.66,19.66,0,0,0-.48,3.42,2.37,2.37,0,0,0,.74,1.92,3.94,3.94,0,0,0,2.47.6,19.48,19.48,0,0,0,3.47-.32Z" transform="translate(0.5 0.5)"/><path d="M1238.87,2286.5a12.92,12.92,0,0,1-2.31,7.83,16.25,16.25,0,0,1-6.7,5.09,41.44,41.44,0,0,1-10.75,2.87,125.34,125.34,0,0,1-14.5,1.13c0,.38-.07.77-.08,1.15s0,.81,0,1.26q0,6.84,3.42,10t10.24,3.15a32,32,0,0,0,3.71-.23,35.39,35.39,0,0,0,3.81-.69c1.26-.29,2.48-.64,3.65-1a28.48,28.48,0,0,0,3.18-1.26l-1.47,7.46a33.88,33.88,0,0,1-6.33,2.05,35.28,35.28,0,0,1-7.91.84,25.88,25.88,0,0,1-9.22-1.47,16.67,16.67,0,0,1-6.36-4.13,16.44,16.44,0,0,1-3.68-6.3,25.9,25.9,0,0,1-1.18-8,41.68,41.68,0,0,1,.78-8,38.72,38.72,0,0,1,2.34-7.62,33.72,33.72,0,0,1,3.84-6.72,26.46,26.46,0,0,1,5.28-5.39,24.67,24.67,0,0,1,6.7-3.6,24,24,0,0,1,8-1.31,22.5,22.5,0,0,1,5.92.76,14.62,14.62,0,0,1,5,2.37,11.46,11.46,0,0,1,3.42,4A12.42,12.42,0,0,1,1238.87,2286.5Zm-32.74,9.61a84.4,84.4,0,0,0,10.35-.57,34.72,34.72,0,0,0,7.73-1.77,12,12,0,0,0,4.83-3,6.57,6.57,0,0,0,1.68-4.55,5,5,0,0,0-.47-2.13,5.1,5.1,0,0,0-1.42-1.81,7.06,7.06,0,0,0-2.34-1.26,9.75,9.75,0,0,0-3.18-.48,14.92,14.92,0,0,0-5.7,1.11,16.52,16.52,0,0,0-4.94,3.15,21.06,21.06,0,0,0-3.91,4.94A26.38,26.38,0,0,0,1206.13,2296.11Z" transform="translate(0.5 0.5)"/><path d="M1256.79,2288.28a5.64,5.64,0,0,0,.66,2.81,6.5,6.5,0,0,0,1.76,2,11.21,11.21,0,0,0,2.57,1.5c1,.42,2,.82,3.1,1.21q2.26.8,4.57,1.71a17.45,17.45,0,0,1,4.21,2.36,11.52,11.52,0,0,1,3.1,3.66,11.8,11.8,0,0,1,1.21,5.67,16.37,16.37,0,0,1-1.55,7.3,14.89,14.89,0,0,1-4.31,5.29,19.18,19.18,0,0,1-6.57,3.2,30.48,30.48,0,0,1-8.33,1.08,39.48,39.48,0,0,1-8.17-.87,21.57,21.57,0,0,1-6.49-2.28l1.52-6.84a46.31,46.31,0,0,0,6.07,2.13,25.88,25.88,0,0,0,7.07.92,18.45,18.45,0,0,0,6.59-1,11.17,11.17,0,0,0,3.89-2.36,6.83,6.83,0,0,0,1.84-2.92,9.52,9.52,0,0,0,.45-2.63,5.79,5.79,0,0,0-1-3.41,8.21,8.21,0,0,0-2.47-2.32,18.51,18.51,0,0,0-3.46-1.65l-4-1.45c-1.29-.49-2.57-1-3.83-1.65a13.44,13.44,0,0,1-3.34-2.26,10.26,10.26,0,0,1-2.34-3.31,11.57,11.57,0,0,1-.89-4.81,15.66,15.66,0,0,1,1.47-7,14.25,14.25,0,0,1,4-4.94,17.11,17.11,0,0,1,5.75-2.94,23.89,23.89,0,0,1,6.88-1,31.64,31.64,0,0,1,4.26.29,38.73,38.73,0,0,1,4,.76,34.89,34.89,0,0,1,3.65,1.08,23.65,23.65,0,0,1,3,1.28l-1.42,6.73a49.91,49.91,0,0,0-6.49-2.29,25,25,0,0,0-6.65-.92,15.08,15.08,0,0,0-4.46.61,10.06,10.06,0,0,0-3.26,1.63,6.87,6.87,0,0,0-2,2.44A7.14,7.14,0,0,0,1256.79,2288.28Z" transform="translate(0.5 0.5)"/><path d="M1299.67,2288.28a5.64,5.64,0,0,0,.66,2.81,6.63,6.63,0,0,0,1.76,2,11.21,11.21,0,0,0,2.57,1.5c1,.42,2,.82,3.1,1.21,1.51.53,3,1.1,4.58,1.71a17.57,17.57,0,0,1,4.2,2.36,11.52,11.52,0,0,1,3.1,3.66,11.68,11.68,0,0,1,1.21,5.67,16.37,16.37,0,0,1-1.55,7.3,14.79,14.79,0,0,1-4.31,5.29,19.18,19.18,0,0,1-6.57,3.2,30.48,30.48,0,0,1-8.33,1.08,39.48,39.48,0,0,1-8.17-.87,21.57,21.57,0,0,1-6.49-2.28l1.52-6.84a46.31,46.31,0,0,0,6.07,2.13,25.88,25.88,0,0,0,7.07.92,18.55,18.55,0,0,0,6.6-1,11.37,11.37,0,0,0,3.89-2.36,7,7,0,0,0,1.84-2.92,9.85,9.85,0,0,0,.44-2.63,5.86,5.86,0,0,0-.94-3.41,8.33,8.33,0,0,0-2.47-2.32,18.92,18.92,0,0,0-3.47-1.65l-4-1.45c-1.29-.49-2.57-1-3.83-1.65a13.62,13.62,0,0,1-3.34-2.26,10.42,10.42,0,0,1-2.34-3.31,11.74,11.74,0,0,1-.89-4.81,15.66,15.66,0,0,1,1.47-7,14.25,14.25,0,0,1,4-4.94,17.11,17.11,0,0,1,5.75-2.94,23.9,23.9,0,0,1,6.89-1,31.61,31.61,0,0,1,4.25.29,38.73,38.73,0,0,1,4,.76,34.89,34.89,0,0,1,3.65,1.08,23.65,23.65,0,0,1,3,1.28l-1.42,6.73a49.91,49.91,0,0,0-6.49-2.29,25,25,0,0,0-6.64-.92,15.15,15.15,0,0,0-4.47.61,10.16,10.16,0,0,0-3.26,1.63,7,7,0,0,0-2,2.44A7.14,7.14,0,0,0,1299.67,2288.28Z" transform="translate(0.5 0.5)"/><path d="M1150.82,189H639.68A154.18,154.18,0,0,0,485.5,343.18V679.3A154.18,154.18,0,0,0,639.68,833.48h73.4a6.32,6.32,0,0,1,6.33,6.32v165.69c0,19.59,23.92,29.08,37.32,14.81L930.27,835.47a6.31,6.31,0,0,1,4.6-2h215.95A154.18,154.18,0,0,0,1305,679.3V343.18A154.18,154.18,0,0,0,1150.82,189Z" transform="translate(0.5 0.5)" fill="#ff1919"/><path d="M784.84,774.59a6.37,6.37,0,0,0-6.18-6.54H706c-82,0-148.53-72.69-148.53-162.36V252.28a176.76,176.76,0,0,1,5.47-43.79,154.26,154.26,0,0,0-77.44,134V679.3A154.18,154.18,0,0,0,639.68,833.48h73.4a6.32,6.32,0,0,1,6.33,6.32V1000c0,19.22,24.15,28.55,37.68,14.54l27.75-28.74V774.59Z" transform="translate(0.5 0.5)" fill="#dc0000"/><path d="M1068.76,389.09h0a100.25,100.25,0,0,0-141.76,0L904.89,411.2a13.5,13.5,0,0,1-19.09,0L864,389.44a100.25,100.25,0,0,0-141.76,0h0a100.25,100.25,0,0,0,0,141.76L885.81,694.73a13.51,13.51,0,0,0,19.1,0l163.85-163.88A100.23,100.23,0,0,0,1068.76,389.09Z" transform="translate(0.5 0.5)" fill="#eed6bb" stroke="#000" stroke-miterlimit="10"/><path d="M1068.76,389.09h0a100.25,100.25,0,0,0-141.76,0L904.89,411.2a13.5,13.5,0,0,1-19.09,0L864,389.44a100.25,100.25,0,0,0-141.76,0h0a100.25,100.25,0,0,0,0,141.76L885.81,694.73a13.51,13.51,0,0,0,19.1,0l163.85-163.88A100.23,100.23,0,0,0,1068.76,389.09Z" transform="translate(0.5 0.5)" fill="#eed6bb" stroke="#000" stroke-miterlimit="10"/><path d="M774.72,531.2a100.23,100.23,0,0,1,0-141.76h0a99.65,99.65,0,0,1,44.66-25.85,100.19,100.19,0,0,0-97.1,25.85h0a100.25,100.25,0,0,0,0,141.76L885.81,694.73a13.51,13.51,0,0,0,19.1,0l16.67-16.67Z" transform="translate(0.5 0.5)" fill="#f0b776"/><rect x="85" width="37.5" height="2559" fill="#333"/></svg>