<svg id="Layer_1" data-name="Layer 1" xmlns="http://www.w3.org/2000/svg" viewBox="0 0 1600 2560.5"><title>tencent_vs_tencent</title><rect width="1600" height="2560" fill="#2fd699"/><path d="M537.93,261.18H515.26V380.53H494.78V261.18H472.1V243h65.83Z" transform="translate(-4.75 0.5)" fill="#104a35"/><path d="M610.13,369.55q0,11-11.34,11H564.08q-11.34,0-11.34-11v-66.8q0-11,11.34-11h34.71q11.34,0,11.34,11v32.61l-5.54,5.53H572v24.88h18.89V351h19.25ZM590.88,327.8V306.53H572V327.8Z" transform="translate(-4.75 0.5)" fill="#104a35"/><path d="M689.36,380.53H669.14v-72l-18.89.35v71.63H630.12V291.76h20.13V295q7-1.14,14-2.19a91,91,0,0,1,14.15-1.41q11,0,11,10.81Z" transform="translate(-4.75 0.5)" fill="#104a35"/><path d="M766.57,369.55q0,11-11.17,11H720.51q-11.34,0-11.34-11v-66.8q0-11,11.34-11H755.4q11.16,0,11.17,11v21.09H747V308.55H729v55.28h18v-17h19.6Z" transform="translate(-4.75 0.5)" fill="#104a35"/><path d="M843.77,369.55q0,11-11.33,11H797.72q-11.34,0-11.34-11v-66.8q0-11,11.34-11h34.72q11.32,0,11.33,11v32.61l-5.53,5.53H805.63v24.88h18.9V351h19.24ZM824.53,327.8V306.53h-18.9V327.8Z" transform="translate(-4.75 0.5)" fill="#104a35"/><path d="M923,380.53H902.79v-72l-18.9.35v71.63H863.76V291.76h20.13V295q7-1.14,14-2.19A91.16,91.16,0,0,1,912,291.41q11,0,11,10.81Z" transform="translate(-4.75 0.5)" fill="#104a35"/><path d="M981.13,380.53H958.81q-11.16,0-11.16-11V308.9h-9.49V291.76h9.49V267.68h20v24.08h12.92V308.9H967.69v54.49h13.44Z" transform="translate(-4.75 0.5)" fill="#104a35"/><path d="M1021.25,243l-12,43.07H996L1000.6,243Z" transform="translate(-4.75 0.5)" fill="#104a35"/><path d="M1094.15,369.55q0,11-11.16,11h-33.84q-11.16,0-11.16-11V350.47h19.25v14.94h17.66V351.35l-30.85-18.19q-6.06-3.6-6.06-9.67V302.75q0-11,11.34-11h33.48q11.16,0,11.17,11v17.84H1074.9V306.88h-17.66v12.83l30.76,18q6.15,3.51,6.15,9.84Z" transform="translate(-4.75 0.5)" fill="#104a35"/><path d="M365.69,459l-4.48,43.07H340.29L352.68,459Zm29.18,0-4.31,43.07H369.65L381.86,459Z" transform="translate(-4.75 0.5)" fill="#104a35"/><path d="M481,570.6q0,12.14-7.21,19t-19.42,6.9H412.44V459h41.93q12.21,0,19.42,7T481,485.09Zm-20.66-3.42v-79q0-11.51-12-11.51H433V578.87h14.77Q460.34,578.87,460.34,567.18Z" transform="translate(-4.75 0.5)" fill="#104a35"/><path d="M558,585.55q0,11-11.16,11h-36q-11.34,0-11.34-11v-66.8q0-11,11.34-11h36q11.16,0,11.16,11Zm-19.69-5.72V524.55H519.23v55.28Z" transform="translate(-4.75 0.5)" fill="#104a35"/><path d="M635,618q0,11-11.34,11h-35q-11.34,0-11.34-11V603.74h19.42v10.63h18.2V596H594.28q-8.43,0-13.4-4.74t-5-13.1V523.85q0-7.65,4.31-12t11.87-4.4q3.76,0,22.85,3.6v-3.25h20Zm-20-38.15V525.25q-10.11-1.05-12.57-1-6.51,0-6.51,6.41v42.54q0,6.69,6.68,6.68Z" transform="translate(-4.75 0.5)" fill="#104a35"/><path d="M752,596.53h-57V459h56.51v18.2H715.48v40.16h30.93v17.84H715.48v43.16H752Z" transform="translate(-4.75 0.5)" fill="#104a35"/><path d="M825.78,596.53H806.53v-3.07l-13.71,2.1a101.72,101.72,0,0,1-13.63,1.32q-11,0-11-10.81v-32q0-11,11.34-11H806.7V522.7H787.46v12.66h-18.2V518.75q0-11,11.34-11h34q11.16,0,11.17,11Zm-19.08-16V556.72H787.46v24.52Z" transform="translate(-4.75 0.5)" fill="#104a35"/><path d="M882.11,596.53H859.79q-11.17,0-11.16-11V524.9h-9.5V507.76h9.5V483.68h20v24.08h12.92V524.9H868.66v54.49h13.45Z" transform="translate(-4.75 0.5)" fill="#104a35"/><path d="M1007.17,570.6q0,12.14-7.21,19t-19.42,6.9H938.62V459h41.92q12.21,0,19.42,7t7.21,19.12Zm-20.65-3.42v-79q0-11.51-12-11.51h-15.3V578.87H974Q986.52,578.87,986.52,567.18Z" transform="translate(-4.75 0.5)" fill="#104a35"/><path d="M1084.16,585.55q0,11-11.16,11h-36q-11.34,0-11.33-11v-66.8q0-11,11.33-11h36q11.16,0,11.16,11Zm-19.69-5.72V524.55H1045.4v55.28Z" transform="translate(-4.75 0.5)" fill="#104a35"/><path d="M1161.15,618q0,11-11.34,11h-35q-11.34,0-11.34-11V603.74h19.43v10.63h18.19V596h-20.65q-8.45,0-13.41-4.74t-5-13.1V523.85q0-7.65,4.3-12t11.87-4.4q3.78,0,22.85,3.6v-3.25h20Zm-20-38.15V525.25q-10.11-1.05-12.57-1-6.49,0-6.5,6.41v42.54q0,6.69,6.68,6.68Z" transform="translate(-4.75 0.5)" fill="#104a35"/><path d="M1202.89,459l-12,43.07h-13.18l4.57-43.07Zm29.36,0L1220,502.05h-13l4.57-43.07Z" transform="translate(-4.75 0.5)" fill="#104a35"/><path d="M188.51,800q0,12.57-12.48,12.57h-41.4q-12.39,0-12.39-12.57V767.18H142.8v28h25.14v-27l-41.22-39a14.55,14.55,0,0,1-4.48-11V687.64q0-12.66,12.39-12.66H176q12.48,0,12.48,12.48v30.77H167.94V692.3H142.8v24.87L184,756a14.63,14.63,0,0,1,4.48,11.16Z" transform="translate(-4.75 0.5)" fill="#104a35"/><path d="M247.52,812.53H225.2q-11.17,0-11.17-11V740.9h-9.49V723.76H214V699.68h20v24.08H247V740.9H234.07v54.49h13.45Z" transform="translate(-4.75 0.5)" fill="#104a35"/><path d="M320.07,760.85H300.12v-20.3l-15.91.35v71.63H264.08V723.76h20.13V727l12.39-2.28a74.06,74.06,0,0,1,12.48-1.32q11,0,11,10.81Z" transform="translate(-4.75 0.5)" fill="#104a35"/><path d="M394,812.53H374.78v-3.07l-13.71,2.1a101.72,101.72,0,0,1-13.63,1.32q-11,0-11-10.81v-32q0-11,11.33-11H375V738.7H355.7v12.66H337.51V734.75q0-11,11.34-11h34q11.16,0,11.16,11Zm-19.07-16V772.72H355.7v24.52Z" transform="translate(-4.75 0.5)" fill="#104a35"/><path d="M452.16,812.53H429.83q-11.16,0-11.16-11V740.9h-9.49V723.76h9.49V699.68h20v24.08h12.92V740.9H438.71v54.49h13.45Z" transform="translate(-4.75 0.5)" fill="#104a35"/><path d="M526.11,801.55q0,11-11.33,11H480.06q-11.34,0-11.34-11v-66.8q0-11,11.34-11h34.72q11.33,0,11.33,11v32.61l-5.53,5.53H488v24.88h18.9V783h19.24ZM506.87,759.8V738.53H488V759.8Z" transform="translate(-4.75 0.5)" fill="#104a35"/><path d="M605,834q0,11-11.34,11h-35q-11.34,0-11.34-11V819.74h19.43v10.63H585V812H564.3q-8.44,0-13.41-4.74t-5-13.1V739.85q0-7.65,4.3-12t11.87-4.4q3.78,0,22.85,3.6v-3.25h20Zm-20-38.15V741.25q-10.11-1.05-12.57-1-6.5,0-6.5,6.41v42.54q0,6.69,6.68,6.68Z" transform="translate(-4.75 0.5)" fill="#104a35"/><path d="M685.1,723.76l-22.24,87.63L654.33,845H633.77L643,811.83l-22.5-88.07h20.65l11.69,58.36,11.69-58.36Z" transform="translate(-4.75 0.5)" fill="#104a35"/><path d="M781.24,812.53H758.91q-11.16,0-11.16-11V740.9h-9.49V723.76h9.49V699.68h20v24.08h12.92V740.9H767.79v54.49h13.45Z" transform="translate(-4.75 0.5)" fill="#104a35"/><path d="M856.34,801.55q0,11-11.17,11h-36q-11.34,0-11.34-11v-66.8q0-11,11.34-11h36q11.16,0,11.17,11Zm-19.69-5.72V740.55H817.58v55.28Z" transform="translate(-4.75 0.5)" fill="#104a35"/><path d="M985.7,800q0,12.57-12.48,12.57h-41.4q-12.39,0-12.39-12.57V767.18H940v28h25.13v-27l-41.22-39a14.55,14.55,0,0,1-4.48-11V687.64q0-12.66,12.39-12.66h41.4q12.48,0,12.48,12.48v30.77H965.13V692.3H940v24.87L981.22,756a14.59,14.59,0,0,1,4.48,11.16Z" transform="translate(-4.75 0.5)" fill="#104a35"/><path d="M1065.46,812.53h-20v-3.07l-14,2.28a95.3,95.3,0,0,1-14.06,1.32q-11,0-11-11V723.76h19.95v72.07l19.08-.44V723.76h20Z" transform="translate(-4.75 0.5)" fill="#104a35"/><path d="M1142.84,801.55q0,11-11.16,11h-34.9q-11.34,0-11.33-11v-66.8q0-11,11.33-11h34.9q11.16,0,11.16,11v21.09h-19.6V740.55h-18v55.28h18v-17h19.6Z" transform="translate(-4.75 0.5)" fill="#104a35"/><path d="M1220,801.55q0,11-11.16,11H1174q-11.34,0-11.34-11v-66.8q0-11,11.34-11h34.89q11.16,0,11.16,11v21.09h-19.59V740.55h-18v55.28h18v-17H1220Z" transform="translate(-4.75 0.5)" fill="#104a35"/><path d="M1297.25,801.55q0,11-11.34,11H1251.2q-11.34,0-11.34-11v-66.8q0-11,11.34-11h34.71q11.34,0,11.34,11v32.61l-5.54,5.53h-32.6v24.88H1278V783h19.25ZM1278,759.8V738.53h-18.89V759.8Z" transform="translate(-4.75 0.5)" fill="#104a35"/><path d="M1373.05,801.55q0,11-11.16,11h-33.84q-11.16,0-11.16-11V782.47h19.25v14.94h17.66V783.35L1323,765.16q-6.06-3.6-6.06-9.67V734.75q0-11,11.34-11h33.48q11.16,0,11.17,11v17.84H1353.8V738.88h-17.66v12.83l30.76,18q6.15,3.51,6.15,9.84Z" transform="translate(-4.75 0.5)" fill="#104a35"/><path d="M1448.33,801.55q0,11-11.17,11h-33.83q-11.17,0-11.17-11V782.47h19.25v14.94h17.67V783.35l-30.85-18.19q-6.07-3.6-6.07-9.67V734.75q0-11,11.34-11H1437q11.16,0,11.16,11v17.84h-19.07V738.88h-17.67v12.83l30.76,18q6.15,3.51,6.16,9.84Z" transform="translate(-4.75 0.5)" fill="#104a35"/><path d="M1490.81,675l-2.9,105.47h-16.17L1468.84,675Zm-.87,137.55h-20.4V791.44h20.4Z" transform="translate(-4.75 0.5)" fill="#104a35"/><polyline points="0 1280.5 0 2560.5 1600 2560.5 1600 1280.5 0 1280.5" fill="#2fd699"/><polyline points="544 2176.5 1056 2177.08 1056.42 1805.3 544 1804.72 543.58 2176.5" fill="#fff"/><polygon points="528 1805.3 1068.8 1805.87 1068.82 1786.1 524.8 1786.1 528 1805.6 528 1805.3" fill="#53170a"/><polygon points="528 2195.7 1068.8 2196.27 1068.82 2176.5 524.8 2176.5 528 2196.74 528 2195.7" fill="#53170a"/><polygon points="528 2195.7 1068.8 2196.29 1068.83 2186.1 524.8 2186.1 528 2196.74 528 2195.7" fill="#36110b"/><polygon points="528 1805.3 1068.8 1805.88 1068.83 1795.7 524.8 1795.7 528 1805.91 528 1805.3" fill="#36110b"/><polygon points="768 2211.7 841.6 2211.7 841.6 2195.7 764.8 2195.7 768 2211.53 768 2211.7" fill="#1a0c0a"/><path d="M828,2279.16a19.55,19.55,0,1,1-19.53-19.56A19.56,19.56,0,0,1,828,2279.16m-23.23-68,0,40.51a27.62,27.62,0,0,0-24.2,27.36c-.1,14.79,11.71,27.59,26.5,28.06,15.52.5,28.26-12.15,28.28-27.84a27.61,27.61,0,0,0-24.14-27.57l0-40.52h-6.44" transform="translate(-4.75 0.5)" fill="#0a0808"/><path d="M807.47,1893.88a56,56,0,0,0-41.41,93.78l.65.78.46.44c.66.68,1.34,1.33,2,2,20.34,20.69,17.88,47.54,17.88,47.54h40.76s-2.46-26.81,17.83-47.49c.73-.68,1.46-1.36,2.15-2.08l.4-.39.64-.76a56,56,0,0,0-41.4-93.8" transform="translate(-4.75 0.5)" fill="#fec353"/><path d="M807.65,1898A53.19,53.19,0,0,0,768.32,1987l.62.74.43.42c.63.65,1.28,1.26,1.94,1.87,19.32,19.65,19.79,45.15,19.79,45.15h16.54c19.57-32.84-57.51-99.62,0-137.24" transform="translate(-4.75 0.5)" fill="#db982d"/><path d="M785.55,2066.07a10.73,10.73,0,0,0,10.73,10.73h20.3a10.57,10.57,0,0,0,10.57-10.57V2038.4h-41.6v27.67Z" transform="translate(-4.75 0.5)" fill="#a39c94"/><path d="M798.35,2080.25c0,1.63,5,2.95,11.09,2.95h.22c6.13,0,11.09-1.32,11.09-2.95v-3.45h-22.4v3.45Z" transform="translate(-4.75 0.5)" fill="#403838"/><polygon points="780.8 2047.74 821.78 2046.19 780.8 2044.64 780.8 2047.74 780.8 2047.74" fill="#6c6360"/><polygon points="822.4 2057.29 822.4 2054.19 781.42 2055.74 822.4 2057.29 822.4 2057.29" fill="#6c6360"/><polygon points="780.8 2067.21 821.78 2065.66 780.8 2064.11 780.8 2067.21 780.8 2067.21" fill="#6c6360"/><path d="M807.47,1997c-.81,0-1.62,0-2.42-.06-11.08-29.44-31.95-64.42-8.36-90.16A45.75,45.75,0,1,1,807.47,1997" transform="translate(-4.75 0.5)" fill="#fed076"/><path d="M805.05,1997a45.76,45.76,0,0,1-8.36-90.16c-23.59,25.74-2.72,60.72,8.36,90.16" transform="translate(-4.75 0.5)" fill="#e1ae53"/><polygon points="819.2 2038.9 816 2038.9 816 1949.3 819.2 1949.3 819.2 2039.07 819.2 2038.9" fill="#1f191a"/><polygon points="790.4 2038.9 790.4 2038.9 790.4 1949.3 790.4 1949.3 790.4 2039.07 790.4 2038.9" fill="#1f191a"/><polygon points="788.23 1949.3 787.2 1949.31 787.21 1950.28 795.77 1958.21 796.28 1958.4 796.8 1958.2 796.79 1957.23 788.23 1949.3 788.23 1949.3" fill="#53391a"/><path d="M801.73,1950.2a.68.68,0,1,0-1.2.66l4.4,7.94.6.35.33-.09a.69.69,0,0,0,.26-.93l-4.39-7.93Z" transform="translate(-4.75 0.5)" fill="#53391a"/><path d="M805.37,1950.2a.68.68,0,1,0-1.19.66l4.39,7.94.6.35.33-.09a.69.69,0,0,0,.27-.93l-4.4-7.93Z" transform="translate(-4.75 0.5)" fill="#53391a"/><path d="M809,1950.2a.68.68,0,1,0-1.2.66l4.39,7.94.6.35.33-.09a.69.69,0,0,0,.27-.93L809,1950.2Z" transform="translate(-4.75 0.5)" fill="#53391a"/><path d="M812.66,1950.2a.68.68,0,1,0-1.2.66l4.4,7.94.6.35.33-.09a.68.68,0,0,0,.26-.93l-4.39-7.93Z" transform="translate(-4.75 0.5)" fill="#53391a"/><path d="M801.07,1949.85a.69.69,0,0,0-.62.75l.75,7.93a.68.68,0,0,0,.68.62h.06a.67.67,0,0,0,.62-.74l-.75-7.93a.69.69,0,0,0-.74-.62Z" transform="translate(-4.75 0.5)" fill="#531a1c"/><path d="M804.71,1949.85a.68.68,0,0,0-.61.75l.74,7.93a.69.69,0,0,0,.68.62h.07a.67.67,0,0,0,.61-.74l-.74-7.93a.7.7,0,0,0-.75-.62Z" transform="translate(-4.75 0.5)" fill="#531a1c"/><path d="M808.35,1949.85a.68.68,0,0,0-.61.75l.75,7.93a.68.68,0,0,0,.68.62h.06a.68.68,0,0,0,.62-.74l-.75-7.93a.69.69,0,0,0-.75-.62Z" transform="translate(-4.75 0.5)" fill="#531a1c"/><path d="M812,1949.85a.69.69,0,0,0-.62.75l.75,7.93a.69.69,0,0,0,.68.62h.07a.67.67,0,0,0,.61-.74l-.75-7.93a.69.69,0,0,0-.74-.62Z" transform="translate(-4.75 0.5)" fill="#531a1c"/><path d="M820.73,1950.17l-4.86,7.94a.69.69,0,0,0,.23.94l.35.1.59-.33,4.86-7.93a.69.69,0,0,0-.23-.94.68.68,0,0,0-.94.22Z" transform="translate(-4.75 0.5)" fill="#531a1c"/><path d="M808,1856h-.06a3.12,3.12,0,0,0-3.17,3.06v22.68a3.12,3.12,0,0,0,3.17,3.06H808a3.12,3.12,0,0,0,3.17-3.06v-22.68A3.12,3.12,0,0,0,808,1856Z" transform="translate(-4.75 0.5)" fill="#fec353"/><path d="M876.09,1885.05a3.1,3.1,0,0,0-4.37,0l-16.15,16.15a3.09,3.09,0,0,0,0,4.36l0,0a3.09,3.09,0,0,0,4.36,0l16.15-16.16a3.09,3.09,0,0,0,0-4.36l0,0Z" transform="translate(-4.75 0.5)" fill="#fec353"/><path d="M900.89,1948.8H878.21a3.12,3.12,0,0,0-3.06,3.17v.06a3.12,3.12,0,0,0,3.06,3.17h22.68A3.12,3.12,0,0,0,904,1952V1952a3.12,3.12,0,0,0-3.06-3.17Z" transform="translate(-4.75 0.5)" fill="#fec353"/><path d="M861.23,2001.29a3.09,3.09,0,0,0-4.36,0l0,0a3.07,3.07,0,0,0,0,4.36L873,2021.85a3.09,3.09,0,0,0,4.36,0l0,0a3.07,3.07,0,0,0,0-4.36l-16.15-16.16Z" transform="translate(-4.75 0.5)" fill="#fec353"/><path d="M761.1,2002.55a3.07,3.07,0,0,0-4.36,0l-16.16,16.15a3.09,3.09,0,0,0,0,4.36l0,0a3.09,3.09,0,0,0,4.36,0L761.14,2007a3.09,3.09,0,0,0,0-4.36l0,0Z" transform="translate(-4.75 0.5)" fill="#fec353"/><path d="M737.69,1952H715a3.12,3.12,0,0,0-3.06,3.17v.06a3.12,3.12,0,0,0,3.06,3.17h22.68a3.12,3.12,0,0,0,3.06-3.17v-.06a3.12,3.12,0,0,0-3.06-3.17Z" transform="translate(-4.75 0.5)" fill="#fec353"/><path d="M743.73,1886.3a3.09,3.09,0,0,0-4.36,0l0,0a3.07,3.07,0,0,0,0,4.36l16.15,16.15a3.09,3.09,0,0,0,4.36,0l0,0a3.07,3.07,0,0,0,0-4.36l-16.15-16.15Z" transform="translate(-4.75 0.5)" fill="#fec353"/><path d="M833.83,1908.87c-3.28,2.52-2.85,8.57,1,13.5s9.55,6.89,12.82,4.36,2.84-8.57-1-13.5-9.54-6.89-12.81-4.36Z" transform="translate(-4.75 0.5)" fill="#fff"/><path d="M842.22,1933.52c18.17,28.15,1.49,50.45,1.49,50.45s22.09-23.34,8.55-52.53c-3,1.31-5.43,3.13-10,2.08Z" transform="translate(-4.75 0.5)" fill="#fff"/><path d="M788.3,2056.06c0,.26,8.89.75,19.87,1.1s19.89.41,19.9.15-8.89-.74-19.87-1.09-19.89-.42-19.9-.16Z" transform="translate(-4.75 0.5)" fill="#f5f5f3"/><path d="M807.55,2046.77c-11,.6-19.85,1.29-19.84,1.55s8.92,0,19.9-.61,19.85-1.28,19.83-1.54-8.92,0-19.89.6Z" transform="translate(-4.75 0.5)" fill="#f5f5f3"/><path d="M807.55,2066.24c-11,.58-19.85,1.26-19.84,1.52s8.92,0,19.9-.58,19.85-1.26,19.84-1.52-8.92,0-19.9.58Z" transform="translate(-4.75 0.5)" fill="#f5f5f3"/><path d="M598.92,2008.05a15.22,15.22,0,1,0,16.66,13.62,15.23,15.23,0,0,0-16.66-13.62Z" transform="translate(-4.75 0.5)" fill="#ed5a2b"/><path d="M602.49,2045.52a22.12,22.12,0,1,1,19.8-24.22,22.15,22.15,0,0,1-19.8,24.22Zm-5.25-52.27a30.42,30.42,0,1,0,33.3,27.23,30.45,30.45,0,0,0-33.3-27.23Z" transform="translate(-4.75 0.5)" fill="#fe9029"/><path d="M598.07,2001.5l-.83-8.25a30.4,30.4,0,0,0-14.67,55l4.57-6.93a22.11,22.11,0,0,1,10.93-39.8Z" transform="translate(-4.75 0.5)" fill="#c0252a"/><path d="M597.24,1993.25l.83,8.25a22.16,22.16,0,0,1,22,12.07l7.42-3.72a30.46,30.46,0,0,0-30.22-16.6Z" transform="translate(-4.75 0.5)" fill="#6fbe39"/><path d="M680.38,2012.64a15.22,15.22,0,1,0,21.08,4.33,15.24,15.24,0,0,0-21.08-4.33Z" transform="translate(-4.75 0.5)" fill="#b03c9b"/><path d="M700.93,2043.45a22.12,22.12,0,1,1,6.29-30.64,22.15,22.15,0,0,1-6.29,30.64ZM672,1999.59a30.42,30.42,0,1,0,42.14,8.65,30.44,30.44,0,0,0-42.14-8.65Z" transform="translate(-4.75 0.5)" fill="#fb252b"/><path d="M693,1994.87l-.84,8.26a22.11,22.11,0,0,1,8.81,40.32l4.56,6.93A30.4,30.4,0,0,0,693,1994.87Z" transform="translate(-4.75 0.5)" fill="#55b565"/><path d="M675.87,2043,671,2049.7a30.47,30.47,0,0,0,34.47.68l-4.56-6.93a22.15,22.15,0,0,1-25.06-.48Z" transform="translate(-4.75 0.5)" fill="#5462ab"/><path d="M593.39,2094.43a15.22,15.22,0,1,0,20.79,5.53,15.25,15.25,0,0,0-20.79-5.53Z" transform="translate(-4.75 0.5)" fill="#ed5a2b"/><path d="M611.76,2126.73a22.13,22.13,0,1,1,8-30.25,22.12,22.12,0,0,1-8,30.25Zm-26.36-45.47a30.43,30.43,0,1,0,41.56,11,30.49,30.49,0,0,0-41.56-11Z" transform="translate(-4.75 0.5)" fill="#fe9029"/><path d="M585.4,2081.26a30.38,30.38,0,0,0-14.55,20.4l8.2,1.31a22.09,22.09,0,0,1,40.73-6.49l7.18-4.17a30.42,30.42,0,0,0-41.56-11Z" transform="translate(-4.75 0.5)" fill="#7e2c92"/><path d="M619.78,2096.48a22.2,22.2,0,0,1-1.91,25l6.45,5.22a30.52,30.52,0,0,0,2.64-34.4l-7.18,4.17Z" transform="translate(-4.75 0.5)" fill="#5c93ae"/><path d="M942.37,2062.55a50.44,50.44,0,0,0-15.66,35.33l27.89.71a22.51,22.51,0,0,1,7-15.79,22.77,22.77,0,0,1,16.26-6.21l.72-28a50.43,50.43,0,0,0-36.23,14Z" transform="translate(-4.75 0.5)" fill="#6aba2e"/><path d="M960.81,2114.73a22.53,22.53,0,0,1-6.21-16.14l-27.89-.71a50.38,50.38,0,0,0,49.19,51.75l.71-27.89a22.51,22.51,0,0,1-15.8-7Z" transform="translate(-4.75 0.5)" fill="#509676"/><path d="M978.56,2048.56l-.7,28a22.19,22.19,0,0,1,21.9,23l28,.72a50.46,50.46,0,0,0-49.23-51.79Z" transform="translate(-4.75 0.5)" fill="#ff9312"/><path d="M992.74,2115.53a22.48,22.48,0,0,1-16.13,6.21l-.71,27.89a50.63,50.63,0,0,0,51.89-49.32l-28-.69a22.79,22.79,0,0,1-7,15.91Z" transform="translate(-4.75 0.5)" fill="#f02e25"/><polygon points="921.6 1971.7 921.43 2013.3 937.6 2013.37 937.6 1968.5 922.47 1971.7 921.6 1971.7" fill="#ed5a2b"/><polygon points="950.4 1946.1 950.13 2013.3 966.4 2013.37 966.4 1942.9 950.54 1946.1 950.4 1946.1" fill="#fe9029"/><polygon points="979.2 1962.1 978.99 2013.3 995.2 2013.37 995.2 1958.9 978.44 1962.1 979.2 1962.1" fill="#6fbe39"/><polygon points="1008 1914.1 1007.6 2013.3 1024 2013.37 1024 1910.9 1006.61 1914.1 1008 1914.1" fill="#c0252a"/><polygon points="704 1827.7 566.4 1827.7 566.4 1821.3 704 1821.3 704 1827.7 704 1827.7" fill="#918982"/><polygon points="1027.2 1843.7 889.6 1843.7 889.6 1824.5 1027.2 1824.5 1027.2 1843.7 1027.2 1843.7" fill="#918982"/><polygon points="704 1843.7 566.4 1843.7 566.4 1837.3 704 1837.3 704 1843.7 704 1843.7" fill="#918982"/><polygon points="704 1859.7 566.4 1859.7 566.4 1853.3 704 1853.3 704 1859.7 704 1859.7" fill="#918982"/><polygon points="704 1910.9 566.4 1910.9 566.4 1904.5 704 1904.5 704 1910.9 704 1910.9" fill="#918982"/><polygon points="704 1894.9 566.4 1894.9 566.4 1888.5 704 1888.5 704 1894.9 704 1894.9" fill="#918982"/><polygon points="652.8 1878.9 563.2 1878.9 563.2 1872.5 652.8 1872.5 652.8 1878.9 652.8 1878.9" fill="#918982"/><polygon points="1024 2022.9 1024 2019.7 911.39 2019.7 908.8 2019.7 908.8 2163.7 748.8 2163.7 748.8 2125.3 802.14 2128.5 803.2 2128.5 803.2 2086.9 806.4 2086.9 806.4 2122.1 748.6 2125.3 745.6 2125.3 745.6 2122.75 745.6 2125.33 745.6 2125.33 745.6 2163.7 563.2 2163.7 563.2 2166.9 746.02 2166.9 748.6 2166.9 1024 2166.9 1024 2163.7 912 2163.7 912 2022.9 1023.94 2022.9 1024 2022.9" fill="#191516"/><path d="M1534.36,1555.45a74.85,74.85,0,1,1-74.85-74.85,74.86,74.86,0,0,1,74.85,74.85Z" transform="translate(-4.75 0.5)" fill="#635a58"/><path d="M1512.44,1608.38a74.85,74.85,0,0,1-105.86-105.86l105.86,105.86Z" transform="translate(-4.75 0.5)" fill="#484040"/><path d="M1524.52,1555.73a65,65,0,1,1-65-65,65,65,0,0,1,65,65Z" transform="translate(-4.75 0.5)" fill="#070606"/><path d="M1520.66,1555.45a61.16,61.16,0,1,1-61.15-61.15,61.15,61.15,0,0,1,61.15,61.15Z" transform="translate(-4.75 0.5)" fill="#fff"/><polygon points="1456 1504.5 1452.8 1504.5 1452.8 1494.9 1456 1494.9 1456 1504.32 1456 1504.5" fill="#484040"/><polygon points="1490.97 1520.04 1490.28 1519.35 1496.34 1513.29 1497.03 1513.98 1490.97 1520.04 1490.97 1520.04" fill="#484040"/><polygon points="1490.68 1592.62 1491.37 1591.93 1497.09 1597.65 1496.39 1598.34 1490.68 1592.62 1490.68 1592.62" fill="#484040"/><polygon points="1417.74 1592 1418.43 1592.69 1412.72 1598.4 1412.03 1597.71 1417.74 1592 1417.74 1592" fill="#484040"/><polygon points="1418.38 1519.06 1417.69 1519.75 1411.98 1514.03 1412.67 1513.34 1418.38 1519.06 1418.38 1519.06" fill="#484040"/><polygon points="1435.57 1507.88 1434.67 1508.25 1431.63 1500.76 1432.53 1500.39 1435.57 1507.88 1435.57 1507.88" fill="#484040"/><polygon points="1407 1536.34 1406.63 1537.25 1398.94 1534.18 1399.31 1533.27 1407 1536.34 1407 1536.34" fill="#484040"/><polygon points="1407.18 1576.84 1407.59 1577.73 1400.43 1580.98 1400.02 1580.09 1407.18 1576.84 1407.18 1576.84" fill="#484040"/><polygon points="1433.45 1602.99 1434.35 1603.38 1431.14 1610.72 1430.25 1610.33 1433.45 1602.99 1433.45 1602.99" fill="#484040"/><polygon points="1475.04 1603.39 1475.93 1603 1479.11 1610.2 1478.22 1610.6 1475.04 1603.39 1475.04 1603.39" fill="#484040"/><polygon points="1502.09 1576.3 1502.47 1575.4 1509.74 1578.45 1509.36 1579.35 1502.09 1576.3 1502.09 1576.3" fill="#484040"/><polygon points="1501.86 1535.9 1501.48 1535.01 1509.09 1531.72 1509.48 1532.62 1501.86 1535.9 1501.86 1535.9" fill="#484040"/><polygon points="1476.07 1509.03 1475.18 1508.63 1478.51 1501.22 1479.4 1501.62 1476.07 1509.03 1476.07 1509.03" fill="#484040"/><polygon points="1504 1555.7 1504 1552.5 1513.6 1552.5 1513.6 1555.7 1505.91 1555.7 1504 1555.7" fill="#484040"/><polygon points="1452.8 1606.9 1456 1606.9 1456 1616.5 1452.8 1616.5 1452.8 1606.86 1452.8 1606.9" fill="#484040"/><polygon points="1404.8 1555.7 1404.8 1558.9 1395.2 1558.9 1395.2 1555.7 1403.07 1555.7 1404.8 1555.7" fill="#484040"/><polygon points="1408.4 1519.69 1408.94 1519.01 1455.28 1555.71 1454.74 1556.4 1408.4 1519.69 1408.4 1519.69" fill="#070606"/><path d="M1460.75,1552.22l-.12-30.44L1457.7,1552a3.85,3.85,0,1,0,3,.19Z" transform="translate(-4.75 0.5)" fill="#2d2627"/><path d="M1461.46,1555.8a1.93,1.93,0,1,1-1.8-2,1.92,1.92,0,0,1,1.8,2Z" transform="translate(-4.75 0.5)" fill="#504747"/><path d="M1462.56,1558.11l51,12.66-50.13-15.61a3.86,3.86,0,1,0-.84,2.95Z" transform="translate(-4.75 0.5)" fill="#1d1819"/><path d="M1459,1557.52a1.93,1.93,0,1,1,2.38-1.33,1.94,1.94,0,0,1-2.38,1.33Z" transform="translate(-4.75 0.5)" fill="#504747"/><path d="M1278.36,1555.45a74.85,74.85,0,1,1-74.85-74.85,74.86,74.86,0,0,1,74.85,74.85Z" transform="translate(-4.75 0.5)" fill="#635a58"/><path d="M1256.44,1608.38a74.85,74.85,0,0,1-105.86-105.86l105.86,105.86Z" transform="translate(-4.75 0.5)" fill="#484040"/><path d="M1268.52,1555.73a65,65,0,1,1-65-65,65,65,0,0,1,65,65Z" transform="translate(-4.75 0.5)" fill="#070606"/><path d="M1264.66,1555.45a61.16,61.16,0,1,1-61.15-61.15,61.15,61.15,0,0,1,61.15,61.15Z" transform="translate(-4.75 0.5)" fill="#fff"/><polygon points="1200 1504.5 1196.8 1504.5 1196.8 1494.9 1200 1494.9 1200 1504.32 1200 1504.5" fill="#484040"/><polygon points="1234.97 1520.04 1234.28 1519.35 1240.34 1513.29 1241.03 1513.98 1234.97 1520.04 1234.97 1520.04" fill="#484040"/><polygon points="1234.68 1592.62 1235.37 1591.93 1241.09 1597.65 1240.39 1598.34 1234.68 1592.62 1234.68 1592.62" fill="#484040"/><polygon points="1161.74 1592 1162.43 1592.69 1156.72 1598.4 1156.03 1597.71 1161.74 1592 1161.74 1592" fill="#484040"/><polygon points="1162.38 1519.06 1161.69 1519.75 1155.98 1514.03 1156.67 1513.34 1162.38 1519.06 1162.38 1519.06" fill="#484040"/><polygon points="1179.57 1507.88 1178.67 1508.25 1175.63 1500.76 1176.53 1500.39 1179.57 1507.88 1179.57 1507.88" fill="#484040"/><polygon points="1151 1536.34 1150.63 1537.25 1142.94 1534.18 1143.31 1533.27 1151 1536.34 1151 1536.34" fill="#484040"/><polygon points="1151.18 1576.84 1151.59 1577.73 1144.43 1580.98 1144.02 1580.09 1151.18 1576.84 1151.18 1576.84" fill="#484040"/><polygon points="1177.45 1602.99 1178.35 1603.38 1175.14 1610.72 1174.25 1610.33 1177.45 1602.99 1177.45 1602.99" fill="#484040"/><polygon points="1219.04 1603.39 1219.93 1603 1223.11 1610.2 1222.22 1610.6 1219.04 1603.39 1219.04 1603.39" fill="#484040"/><polygon points="1246.09 1576.3 1246.47 1575.4 1253.74 1578.45 1253.36 1579.35 1246.09 1576.3 1246.09 1576.3" fill="#484040"/><polygon points="1245.86 1535.9 1245.48 1535.01 1253.09 1531.72 1253.48 1532.62 1245.86 1535.9 1245.86 1535.9" fill="#484040"/><polygon points="1220.07 1509.03 1219.18 1508.63 1222.51 1501.22 1223.4 1501.62 1220.07 1509.03 1220.07 1509.03" fill="#484040"/><polygon points="1248 1555.7 1248 1552.5 1257.6 1552.5 1257.6 1555.7 1249.91 1555.7 1248 1555.7" fill="#484040"/><polygon points="1196.8 1606.9 1200 1606.9 1200 1616.5 1196.8 1616.5 1196.8 1606.86 1196.8 1606.9" fill="#484040"/><polygon points="1148.8 1555.7 1148.8 1558.9 1139.2 1558.9 1139.2 1555.7 1147.07 1555.7 1148.8 1555.7" fill="#484040"/><polygon points="1160.4 1600.68 1159.74 1600.11 1198.74 1555.69 1199.4 1556.27 1160.4 1600.68 1160.4 1600.68" fill="#070606"/><path d="M1202.34,1552.12l-22.88-20.07,20.72,22.23a3.86,3.86,0,1,0,6.31-1.29,3.88,3.88,0,0,0-4.15-.87Z" transform="translate(-4.75 0.5)" fill="#2d2627"/><path d="M1205.14,1554.37a1.93,1.93,0,1,1-2.73,0,1.93,1.93,0,0,1,2.73,0Z" transform="translate(-4.75 0.5)" fill="#504747"/><path d="M1207.59,1555.07l43.25-29.78-44.9,27.2a3.86,3.86,0,1,0,1.65,2.58Z" transform="translate(-4.75 0.5)" fill="#1d1819"/><path d="M1204.81,1557.33a1.93,1.93,0,1,1-2.08-3.25,1.91,1.91,0,0,1,2.66.58,1.94,1.94,0,0,1-.58,2.67Z" transform="translate(-4.75 0.5)" fill="#504747"/><path d="M488.49,1555.45a74.86,74.86,0,1,1-74.86-74.85,74.87,74.87,0,0,1,74.86,74.85Z" transform="translate(-4.75 0.5)" fill="#635a58"/><path d="M466.56,1608.38A74.85,74.85,0,0,1,360.7,1502.52l105.86,105.86Z" transform="translate(-4.75 0.5)" fill="#484040"/><path d="M478.64,1555.73a65,65,0,1,1-65-65,65,65,0,0,1,65,65Z" transform="translate(-4.75 0.5)" fill="#070606"/><path d="M474.79,1555.45a61.16,61.16,0,1,1-61.16-61.15,61.16,61.16,0,0,1,61.16,61.15Z" transform="translate(-4.75 0.5)" fill="#fff"/><polygon points="409.6 1504.5 406.4 1504.5 406.4 1494.9 409.6 1494.9 409.6 1504.32 409.6 1504.5" fill="#484040"/><polygon points="445.09 1520.04 444.4 1519.35 450.46 1513.29 451.16 1513.98 445.09 1520.04 445.09 1520.04" fill="#484040"/><polygon points="444.81 1592.62 445.49 1591.93 451.21 1597.65 450.52 1598.34 444.81 1592.62 444.81 1592.62" fill="#484040"/><polygon points="371.86 1592 372.55 1592.69 366.85 1598.4 366.15 1597.71 371.86 1592 371.86 1592" fill="#484040"/><polygon points="372.51 1519.06 371.82 1519.75 366.1 1514.03 366.79 1513.34 372.51 1519.06 372.51 1519.06" fill="#484040"/><polygon points="389.7 1507.88 388.79 1508.25 385.75 1500.76 386.66 1500.39 389.7 1507.88 389.7 1507.88" fill="#484040"/><polygon points="361.12 1536.34 360.76 1537.25 353.07 1534.18 353.44 1533.27 361.12 1536.34 361.12 1536.34" fill="#484040"/><polygon points="361.31 1576.84 361.71 1577.73 354.55 1580.98 354.15 1580.09 361.31 1576.84 361.31 1576.84" fill="#484040"/><polygon points="387.58 1602.99 388.48 1603.38 385.27 1610.72 384.38 1610.33 387.58 1602.99 387.58 1602.99" fill="#484040"/><polygon points="429.16 1603.39 430.05 1603 433.23 1610.2 432.34 1610.6 429.16 1603.39 429.16 1603.39" fill="#484040"/><polygon points="456.22 1576.3 456.6 1575.4 463.86 1578.45 463.48 1579.35 456.22 1576.3 456.22 1576.3" fill="#484040"/><polygon points="455.99 1535.9 455.6 1535.01 463.22 1531.72 463.6 1532.62 455.99 1535.9 455.99 1535.9" fill="#484040"/><polygon points="430.2 1509.03 429.3 1508.63 432.64 1501.22 433.53 1501.62 430.2 1509.03 430.2 1509.03" fill="#484040"/><polygon points="460.8 1555.7 460.8 1552.5 470.4 1552.5 470.4 1555.7 460.04 1555.7 460.8 1555.7" fill="#484040"/><polygon points="406.4 1606.9 409.6 1606.9 409.6 1616.5 406.4 1616.5 406.4 1606.86 406.4 1606.9" fill="#484040"/><polygon points="358.4 1555.7 358.4 1558.9 348.8 1558.9 348.8 1555.7 357.2 1555.7 358.4 1555.7" fill="#484040"/><polygon points="441.72 1605.34 440.99 1605.82 408.83 1556.22 409.56 1555.74 441.72 1605.34 441.72 1605.34" fill="#070606"/><path d="M416.81,1558.15l29.81,6.12-29-9.07a3.85,3.85,0,1,0-.81,3Z" transform="translate(-4.75 0.5)" fill="#2d2627"/><path d="M413.27,1557.58a1.93,1.93,0,1,1,2.37-1.34,1.91,1.91,0,0,1-2.37,1.34Z" transform="translate(-4.75 0.5)" fill="#504747"/><path d="M416.39,1552.26l7.55-52-10.56,51.43a3.86,3.86,0,1,0,3,.54Z" transform="translate(-4.75 0.5)" fill="#1d1819"/><path d="M416.16,1555.83a1.93,1.93,0,1,1-1.56-2.24,1.93,1.93,0,0,1,1.56,2.24Z" transform="translate(-4.75 0.5)" fill="#504747"/><path d="M232.49,1555.45a74.86,74.86,0,1,1-74.86-74.85,74.87,74.87,0,0,1,74.86,74.85Z" transform="translate(-4.75 0.5)" fill="#635a58"/><path d="M210.56,1608.38A74.85,74.85,0,0,1,104.7,1502.52l105.86,105.86Z" transform="translate(-4.75 0.5)" fill="#484040"/><path d="M222.64,1555.73a65,65,0,1,1-65-65,65,65,0,0,1,65,65Z" transform="translate(-4.75 0.5)" fill="#070606"/><path d="M218.79,1555.45a61.16,61.16,0,1,1-61.16-61.15,61.16,61.16,0,0,1,61.16,61.15Z" transform="translate(-4.75 0.5)" fill="#fff"/><polygon points="153.6 1504.5 150.4 1504.5 150.4 1494.9 153.6 1494.9 153.6 1504.32 153.6 1504.5" fill="#484040"/><polygon points="189.09 1520.04 188.4 1519.35 194.47 1513.29 195.16 1513.98 189.09 1520.04 189.09 1520.04" fill="#484040"/><polygon points="188.8 1592.62 189.49 1591.93 195.21 1597.65 194.52 1598.34 188.8 1592.62 188.8 1592.62" fill="#484040"/><polygon points="115.86 1592 116.55 1592.69 110.85 1598.4 110.16 1597.71 115.86 1592 115.86 1592" fill="#484040"/><polygon points="116.51 1519.06 115.82 1519.75 110.1 1514.03 110.79 1513.34 116.51 1519.06 116.51 1519.06" fill="#484040"/><polygon points="133.7 1507.88 132.79 1508.25 129.75 1500.76 130.66 1500.39 133.7 1507.88 133.7 1507.88" fill="#484040"/><polygon points="105.12 1536.34 104.76 1537.25 97.07 1534.18 97.43 1533.27 105.12 1536.34 105.12 1536.34" fill="#484040"/><polygon points="105.31 1576.84 105.71 1577.73 98.55 1580.98 98.15 1580.09 105.31 1576.84 105.31 1576.84" fill="#484040"/><polygon points="131.58 1602.99 132.47 1603.38 129.27 1610.72 128.38 1610.33 131.58 1602.99 131.58 1602.99" fill="#484040"/><polygon points="173.16 1603.39 174.05 1603 177.23 1610.2 176.34 1610.6 173.16 1603.39 173.16 1603.39" fill="#484040"/><polygon points="200.22 1576.3 200.6 1575.4 207.86 1578.45 207.48 1579.35 200.22 1576.3 200.22 1576.3" fill="#484040"/><polygon points="199.99 1535.9 199.6 1535.01 207.22 1531.72 207.6 1532.62 199.99 1535.9 199.99 1535.9" fill="#484040"/><polygon points="174.2 1509.03 173.31 1508.63 176.64 1501.22 177.53 1501.62 174.2 1509.03 174.2 1509.03" fill="#484040"/><polygon points="204.8 1555.7 204.8 1552.5 214.4 1552.5 214.4 1555.7 204.04 1555.7 204.8 1555.7" fill="#484040"/><polygon points="150.4 1606.9 153.6 1606.9 153.6 1616.5 150.4 1616.5 150.4 1606.86 150.4 1606.9" fill="#484040"/><polygon points="102.4 1555.7 102.4 1558.9 92.8 1558.9 92.8 1555.7 101.2 1555.7 102.4 1555.7" fill="#484040"/><polygon points="187.62 1604.04 186.91 1604.54 152.84 1556.23 153.56 1555.73 187.62 1604.04 187.62 1604.04" fill="#070606"/><path d="M154.37,1554.35,124,1556.82l30.38.58a3.86,3.86,0,1,0,0-3.05Z" transform="translate(-4.75 0.5)" fill="#2d2627"/><path d="M157.92,1553.9a1.93,1.93,0,1,1-1.9,1.95,1.92,1.92,0,0,1,1.9-1.95Z" transform="translate(-4.75 0.5)" fill="#504747"/><path d="M158.35,1552l-17.91-49.37,15,50.32a3.85,3.85,0,1,0,2.91-1Z" transform="translate(-4.75 0.5)" fill="#1d1819"/><path d="M159.83,1555.25a1.93,1.93,0,1,1-2.43-1.24,1.93,1.93,0,0,1,2.43,1.24Z" transform="translate(-4.75 0.5)" fill="#504747"/><path d="M156,2116.35a26.48,26.48,0,1,1-26.48-26.47A26.48,26.48,0,0,1,156,2116.35Z" transform="translate(-4.75 0.5)" fill="#070606"/><path d="M146.42,2131.89A16.94,16.94,0,1,1,129.48,2115a16.93,16.93,0,0,1,16.94,16.93Z" transform="translate(-4.75 0.5)" fill="#fd1616"/><polyline points="108.8 2282.1 140.8 2282.1 140.8 2237.3 108.8 2237.3 108.8 2282.1" fill="#d08673"/><polyline points="108.8 2262.52 124.8 2282.35 140.8 2262.52 140.8 2260.28 124.8 2273.89 108.8 2260.28 108.8 2262.9" fill="#8b5c51"/><path d="M61.44,2323.2s3.18-49.78,11.89-52c2.41-1.69,37-10.05,38.13-10.23h0c1-.18,2-.77,2.65,0l15.94,17.46L146,2261c.7-.77,1.62-.18,2.65,0h0c1.09.18,35.71,8.54,38.12,10.23,8.72,2.21,11.9,52,11.9,52H62.35" transform="translate(-4.75 0.5)" fill="#48811d"/><path d="M169.68,2211.36c6.11,1.26,12.22-3.27,13.65-10.13s-2.38-13.44-8.5-14.7-11.27,23.55-5.15,24.83Z" transform="translate(-4.75 0.5)" fill="#fcad99"/><path d="M91,2211.36c-6.11,1.26-12.22-3.27-13.64-10.13s2.38-13.44,8.5-14.7,11.26,23.55,5.14,24.83Z" transform="translate(-4.75 0.5)" fill="#fcad99"/><path d="M130,2256.75c-60.42-25.09-42.58-86.95-42.58-86.95s2.09-28.5,41.49-28.5c34.34,0,42.8,29.2,42.8,29.2S188,2234,130,2256.75Z" transform="translate(-4.75 0.5)" fill="#fcad99"/><polygon points="166.43 2191.42 160.98 2193.63 160.04 2191.31 165.49 2189.1 166.43 2191.42 166.43 2191.42" fill="#a10f10"/><polygon points="83.47 2191.42 88.92 2193.63 90.28 2191.54 84.41 2189.1 83.47 2191.42 83.47 2191.42" fill="#a10f10"/><polygon points="131.2 2202.1 121.6 2202.1 121.6 2198.9 131.2 2198.9 131.2 2202.18 131.2 2202.1" fill="#a10f10"/><path d="M167,2194.49c1.22,5.42-5.14,11.46-14.21,13.51s-17.41-.68-18.63-6.09,5.14-11.46,14.21-13.5,17.41.68,18.63,6.08Z" transform="translate(-4.75 0.5)" fill="#ff0a04"/><path d="M164.17,2195.13c1,4.48-4.26,9.5-11.78,11.19s-14.43-.56-15.45-5.05,4.27-9.49,11.79-11.19,14.43.57,15.44,5.05Z" transform="translate(-4.75 0.5)" fill="#b5e0df"/><path d="M164.17,2195.13c.5,2.21-.52,4.54-2.59,6.55l-22.19-6.81a19.35,19.35,0,0,1,9.34-4.79c7.52-1.7,14.43.57,15.44,5.05Z" transform="translate(-4.75 0.5)" fill="#ddf2f5"/><path d="M93,2194.49c-1.22,5.42,5.15,11.46,14.22,13.51s17.41-.68,18.63-6.09-5.14-11.46-14.21-13.5-17.42.68-18.64,6.08Z" transform="translate(-4.75 0.5)" fill="#ff0a04"/><path d="M95.76,2195.13c-1,4.48,4.26,9.5,11.78,11.19s14.44-.56,15.45-5.05-4.26-9.49-11.78-11.19-14.44.57-15.45,5.05Z" transform="translate(-4.75 0.5)" fill="#b5e0df"/><path d="M120,2205.05a6.07,6.07,0,0,0,2.95-3.78c1-4.48-4.26-9.49-11.78-11.19a19.86,19.86,0,0,0-9.76.08L120,2205.05Z" transform="translate(-4.75 0.5)" fill="#ddf2f5"/><path d="M177.21,2187.34c-4.14-.92-8.58,7-8.58,7l-1.7-19.39s-27.78,22.83-36.32-3.37c-8,22.42-36.89,3.27-36.89,3.27s-3.6,22.22-3.46,21c-2.17-8.48-8.2-7.62-8.2-7.62s-12.43-67,47.9-58c59.28-9.45,47.36,55.48,47.25,57.19Z" transform="translate(-4.75 0.5)" fill="#070606"/><path d="M130.32,2239.45c-7,0-12.13-4.59-12.13-5.73s6.91-4.52,8.57-4.52,2.87,1.83,3.56,1.83,1.92-1.83,3.57-1.83,8.56,3.39,8.56,4.52-5.17,5.73-12.13,5.73Z" transform="translate(-4.75 0.5)" fill="#b82f94"/><path d="M116,2289.26a6.26,6.26,0,0,1-6.23-5.57l-1-19,1.66,16.73a6,6,0,0,0,9.29,4.42l9.84-6.61-10.19,9.06a6.21,6.21,0,0,1-3.38,1" transform="translate(-4.75 0.5)" fill="#212f0c"/><path d="M113.9,2259.73l16.19,19.12-10.34,7a6,6,0,0,1-9.29-4.42l-1.92-19.33,5.36-2.32" transform="translate(-4.75 0.5)" fill="#e1dfd8"/><path d="M144,2289.26a6.21,6.21,0,0,1-3.38-1l-10.57-9.4,16.36-17.55,4.94.75-1.12,21.64a6.26,6.26,0,0,1-6.23,5.57" transform="translate(-4.75 0.5)" fill="#212f0c"/><path d="M146,2259.73l-15.94,19.12,10.34,7a6,6,0,0,0,9.29-4.42l1.67-19.33-5.36-2.32Z" transform="translate(-4.75 0.5)" fill="#e1dfd8"/><path d="M146.42,2223.84a2,2,0,1,1-2-2,2,2,0,0,1,2,2Z" transform="translate(-4.75 0.5)" fill="#44180b"/><polygon points="627.2 2275.7 595.2 2275.7 595.2 2230.9 627.2 2230.9 627.2 2275.7 627.2 2275.7" fill="#b9705e"/><path d="M631.44,2254.15,618.54,2270a2.88,2.88,0,0,1-4.33,0L600.8,2254.3c-.67-.74-1.55-.17-2.53,0h0a2.91,2.91,0,0,0-2.25,1.91l-18.46,53.51c-.65,1.88.75,13.47,2.74,13.47l74.43,0c2,0,3.41-11.64,2.72-13.52l-19.7-53.36a2.89,2.89,0,0,0-2.27-1.86l-1.35-.21c-1-.15-2-.82-2.66-.07Z" transform="translate(-4.75 0.5)" fill="#fff"/><path d="M572.9,2180.91c-6.6,12.46,8.18,55.89,18.42,55.89h49.24c10.17,0,27.89-46.45,18.82-55.62-11.31-7.67-39.59-17.29-39.59-17.29s-38.38,9.64-46.89,17Z" transform="translate(-4.75 0.5)" fill="#504747"/><path d="M596.75,2323.2H522.17s1.42-25.23,10.64-48.5c0-10.79,63.94-20.4,63.94-20.4v68.89Z" transform="translate(-4.75 0.5)" fill="#183b3c"/><path d="M635.15,2323.2l74.37,0s-1.39-25.91-10.41-48.63c0-10.8-64-20.4-64-20.4v69Z" transform="translate(-4.75 0.5)" fill="#183b3c"/><path d="M578.24,2207c-5.82,1.21-11.65-3.11-13-9.66s2.27-12.81,8.1-14,10.75,22.46,4.91,23.68Z" transform="translate(-4.75 0.5)" fill="#fca894"/><path d="M653.31,2207c5.83,1.21,11.66-3.11,13-9.66s-2.27-12.81-8.1-14-10.75,22.46-4.91,23.68Z" transform="translate(-4.75 0.5)" fill="#fca894"/><path d="M616.07,2250.3c48.34,0,40.6-82.93,40.6-82.93s-2-27.18-39.56-27.18c-32.75,0-40.82,27.85-40.82,27.85s-8.9,82.26,39.78,82.26Z" transform="translate(-4.75 0.5)" fill="#fca894"/><path d="M571.06,2184.11c3.94-.88,8.18,6.65,8.18,6.65l1.63-28.75s22.36,12.38,45.88,8.49c-4-7.43-2.34-13.05-2.34-13.05S638,2168,644.34,2168c1.62-3.18,6.34-6.07,6.34-6.07s3.44,31.45,3.31,30.24c2.07-8.09,7.82-7.27,7.82-7.27s12.33-57.7-45.42-57.7-45.43,55.29-45.33,56.92Z" transform="translate(-4.75 0.5)" fill="#504747"/><path d="M608.64,2265.6h15.24c.93,0,1.39,5.48.74,6.14l-7.61,5.79a1,1,0,0,1-1.51-.05l-7.65-5.78c-.59-.68-.12-6.1.79-6.1Z" transform="translate(-4.75 0.5)" fill="#171314"/><path d="M606.19,2323.2h20.43L617,2276.6a1,1,0,0,0-1.52.05l-9.29,46.55Z" transform="translate(-4.75 0.5)" fill="#171314"/><path d="M617.1,2265.16l12.23,9.43a.79.79,0,0,0,1.25-.41l5.37-18.46-.11-.67-3.84-5.68a.79.79,0,0,0-1.24-.1L617,2264a.79.79,0,0,0,.09,1.17Z" transform="translate(-4.75 0.5)" fill="#fff"/><path d="M615.47,2265.16l-12.23,9.43a.8.8,0,0,1-1.25-.41l-5.37-18.46.11-.67,3.84-5.68a.8.8,0,0,1,1.25-.1L615.57,2264a.79.79,0,0,1-.1,1.17Z" transform="translate(-4.75 0.5)" fill="#fff"/><path d="M635.25,2230.4h-3.59c0,.94-3.35,12.55-4.4,13.78-1.65,1.94-4.33,3.91-6,3.43s-2.74-3.34-3.53-3.72l-1.8-.85h0l-1.8.85c-.8.38-1.87,3.23-3.53,3.72s-4.34-1.49-6-3.43c-1.05-1.23-4.4-12.84-4.4-13.78h-3.6c0,.94-1,20.68,9.65,24.53.8-2.75,1.92-1,1.92-1s2.64,5.11,4.57,5.22v0H616v0c5.1-.11,7.74-5.22,7.74-5.22s1.12-1.7,1.92,1c10.65-3.85,9.64-23.59,9.64-23.59Z" transform="translate(-4.75 0.5)" fill="#171314"/><path d="M615.7,2225.55c.32,4.92-7.52,5.58-13.58,6.39a8.8,8.8,0,0,0-7.19,5s-4-9.21,1-12.26c6.2-3.81,19.44-4.37,19.8.89Z" transform="translate(-4.75 0.5)" fill="#3e3636"/><path d="M615.87,2225.55c-.33,4.92,7.51,5.58,13.57,6.39a8.83,8.83,0,0,1,7.2,5s4-9.21-1-12.26c-6.2-3.81-19.44-4.37-19.79.89Z" transform="translate(-4.75 0.5)" fill="#3e3636"/><polygon points="1065.6 2275.7 1033.6 2275.69 1033.62 2234.1 1062.4 2234.1 1065.6 2275.27 1065.6 2275.7" fill="#1f1110"/><path d="M1120,2323.2c0-.18-2.94-55.92-11.06-58-2.25-1.57-36.7-9.37-37.71-9.55h0c-1-.17-1.81-.73-2.47,0L1055.59,2271a2.22,2.22,0,0,1-3.51,0l-13.1-15.36c-.65-.73-1.51-.17-2.47,0h0c-1,.17-35.47,8-37.72,9.53-8.17,2.25-11.11,57.79-11.11,54.82h66.11l66.22,3.2Z" transform="translate(-4.75 0.5)" fill="#f91515"/><path d="M1054.91,2267.67l13.42,12.26a.75.75,0,0,0,1.23-.45l3.78-22.1-.11-.73-3.75-6.2a.74.74,0,0,0-1.22-.11l-13.44,16a.93.93,0,0,0,.09,1.29Z" transform="translate(-4.75 0.5)" fill="#850807"/><path d="M1053.32,2267.67l-13.42,12.26a.75.75,0,0,1-1.23-.45l-3.77-22.1.1-.73,3.75-6.2a.74.74,0,0,1,1.22-.11l13.44,16a.93.93,0,0,1-.09,1.29Z" transform="translate(-4.75 0.5)" fill="#850807"/><path d="M1017,2209c-5.69,1.18-11.39-3.06-12.71-9.45s2.22-12.52,7.92-13.7,10.5,22,4.79,23.15Z" transform="translate(-4.75 0.5)" fill="#43231b"/><path d="M1090.33,2209c5.69,1.18,11.39-3.05,12.72-9.44s-2.22-12.53-7.92-13.71-10.51,22-4.8,23.15Z" transform="translate(-4.75 0.5)" fill="#43231b"/><path d="M1053.91,2251.32c56.33-23.37,39.72-81.05,39.72-81.05s-1.93-26.57-38.66-26.58c-32,0-39.91,27.21-39.91,27.21s-15.2,59.2,38.85,80.42Z" transform="translate(-4.75 0.5)" fill="#43231b"/><path d="M1009.94,2186.6c3.86-.86,8,6.51,8,6.51l1.6-28.11s21,27.47,62.79,20.82c-7.76-18.06,5.45-20.88,5.45-20.88s3.35,30.74,3.22,29.56c2-7.91,7.65-7.1,7.65-7.1s12.06-56.4-44.38-56.43-44.43,54-44.33,55.63Z" transform="translate(-4.75 0.5)" fill="#070606"/><path d="M1046.64,2265.6h14.9c.9,0,1.36,5.35.72,6l-7.43,5.65a1,1,0,0,1-1.49,0l-7.47-5.66c-.58-.66-.11-6,.77-6Z" transform="translate(-4.75 0.5)" fill="#090708"/><path d="M1044.22,2323.2h20l-9.38-45.55a1,1,0,0,0-1.48,0l-9.11,45.5Z" transform="translate(-4.75 0.5)" fill="#090708"/><path d="M1054.91,2265.85l11.95,9.22a.78.78,0,0,0,1.23-.41l5.25-18-.11-.66-3.75-5.55a.78.78,0,0,0-1.22-.09l-13.44,14.37a.78.78,0,0,0,.09,1.16Z" transform="translate(-4.75 0.5)" fill="#fd1617"/><path d="M1053.31,2265.85l-12,9.21a.79.79,0,0,1-1.23-.41l-5.23-18,.1-.66,3.75-5.55a.78.78,0,0,1,1.23-.09l13.43,14.38a.79.79,0,0,1-.1,1.16Z" transform="translate(-4.75 0.5)" fill="#fd1617"/><path d="M1053.63,2235.2c6.49,0,11.31-4.29,11.31-5.34s-6.44-4.22-8-4.22-2.68,1.7-3.33,1.7-1.78-1.71-3.32-1.71-8,3.17-8,4.22,4.81,5.34,11.3,5.35Z" transform="translate(-4.75 0.5)" fill="#d53940"/><polygon points="1510.4 2272.5 1478.4 2272.58 1478.28 2227.7 1507.2 2227.7 1510.4 2273.54 1510.4 2272.5" fill="#b9705e"/><path d="M1512.48,2253.55l-12.94,16a2.92,2.92,0,0,1-4.37.05l-13.55-15.78c-.67-.75-1.55-.17-2.54,0h0a2.92,2.92,0,0,0-2.26,1.93l-20.67,60.45a5.3,5.3,0,0,0,5,7l74.93-.23c2,0,3.39-11.72,2.7-13.62l-20-53.66a2.93,2.93,0,0,0-2.29-1.87l-1.35-.2c-1-.15-2-.83-2.68-.07Z" transform="translate(-4.75 0.5)" fill="#fff"/><path d="M1453.35,2180.11c-6.61,12.56,8.38,56.25,18.69,56.22l49.58-.13c10.23,0,27.94-46.83,18.79-56-11.41-7.7-39.9-17.3-39.9-17.3s-38.61,9.8-47.16,17.25Z" transform="translate(-4.75 0.5)" fill="#532519"/><path d="M1480,2323.2h-72.82c0-.2-2.22-27,11.88-49.06,0-10.86,60-20.69,57.74-20.69l3.2,69.35Z" transform="translate(-4.75 0.5)" fill="#574e4d"/><path d="M1518.35,2323.2h69.16c0-.7,2-27.68-12.21-49.63,0-10.87-60.13-20.37-60.15-20.37l3.2,69.51Z" transform="translate(-4.75 0.5)" fill="#574e4d"/><path d="M1458.79,2205.46c-5.86,1.23-11.74-3.11-13.12-9.69s2.25-12.9,8.12-14.14,10.88,22.58,5,23.83Z" transform="translate(-4.75 0.5)" fill="#fca894"/><path d="M1534.36,2205.26c5.88,1.2,11.73-3.17,13.07-9.76s-2.32-12.89-8.19-14.1-10.75,22.64-4.88,23.86Z" transform="translate(-4.75 0.5)" fill="#fca894"/><path d="M1497,2248.94c48.66-.13,40.65-83.59,40.65-83.59s-2.07-27.36-39.9-27.26c-33,.08-41,28.15-41,28.15s-8.73,82.83,40.27,82.7Z" transform="translate(-4.75 0.5)" fill="#fca894"/><path d="M1451.5,2182.42c4-.89,8.26,6.68,8.26,6.68l1.55-28.95s15.13,11.8,63.92,5.85c-.3-10.86,6.37-6.13,6.37-6.13s3.54,31.65,3.41,30.44c2-8.16,7.85-7.34,7.85-7.34s12.26-58.13-45.88-58-45.58,55.78-45.48,57.42Z" transform="translate(-4.75 0.5)" fill="#532519"/><path d="M1489.54,2262.4l15.35,0c.93,0,1.42,5.52.76,6.18l-7.64,5.84a1,1,0,0,1-1.52,0l-7.72-5.8c-.6-.67-.13-6.14.77-6.14Z" transform="translate(-4.75 0.5)" fill="#171314"/><path d="M1487.24,2323.2l20.57,0-9.81-46.89a1.06,1.06,0,0,0-1.53,0l-9.23,46.89Z" transform="translate(-4.75 0.5)" fill="#171314"/><path d="M1498.07,2263.9l12.33,9.46a.82.82,0,0,0,1.27-.42l5.35-18.6-.12-.68L1513,2248a.8.8,0,0,0-1.25-.1l-13.8,14.85a.81.81,0,0,0,.1,1.19Z" transform="translate(-4.75 0.5)" fill="#fff"/><path d="M1496.42,2263.9l-12.28,9.52a.8.8,0,0,1-1.26-.41l-5.45-18.57.1-.67,3.85-5.73a.81.81,0,0,1,1.26-.1l13.88,14.77a.8.8,0,0,1-.1,1.19Z" transform="translate(-4.75 0.5)" fill="#fff"/><path d="M894.62,2194.89c-2.11,0-39.77,1.27-44.75,1.44-5-.17-42.64-1.44-44.75-1.44-10.37,39.92,17,58.25,17,58.25s-2.25-5.16-.5-9.17c.62,7,8.48,13.88,8.48,13.88s-2.69-8.69-1.27-9.43c3.42,11.11,21.09,15.73,21.09,15.73s17.67-4.62,21.09-15.73c1.42.74-1.27,9.43-1.27,9.43s7.86-6.9,8.48-13.88c1.75,4-.5,9.17-.5,9.17s27.32-18.33,17-58.25Z" transform="translate(-4.75 0.5)" fill="#211c1d"/><polyline points="828.8 2282.1 860.8 2282.1 860.8 2237.3 828.8 2237.3 828.8 2282.1" fill="#d08673"/><polyline points="828.8 2261.52 844.8 2281.35 860.8 2261.52 860.8 2259.28 844.8 2272.89 828.8 2259.28 828.8 2262.9" fill="#8b5c51"/><path d="M781.59,2323.2s3.18-49.74,11.89-51.95c2.41-1.69,37-10,38.1-10.23h0c1-.18,1.95-.77,2.65,0l15.93,17.44L866.12,2261c.7-.77,1.62-.18,2.65,0h0c1.09.19,35.69,8.54,38.1,10.23,8.71,2.21,11.89,51.95,11.89,51.95H782.35" transform="translate(-4.75 0.5)" fill="#ff4200"/><path d="M889.75,2210.41c6.11,1.26,12.22-3.27,13.64-10.12s-2.38-13.43-8.49-14.7-11.27,23.53-5.15,24.82Z" transform="translate(-4.75 0.5)" fill="#fcad99"/><path d="M811.1,2210.41c-6.11,1.26-12.21-3.27-13.63-10.12s2.38-13.43,8.49-14.7,11.26,23.53,5.14,24.82Z" transform="translate(-4.75 0.5)" fill="#fcad99"/><path d="M850.12,2255.76c-60.37-25.07-42.54-86.88-42.54-86.88s2.08-28.48,41.45-28.48c34.32,0,42.77,29.18,42.77,29.18s16.26,63.46-41.68,86.18Z" transform="translate(-4.75 0.5)" fill="#fcad99"/><path d="M897.28,2186.41c-4.14-.92-8.57,7-8.57,7s-1.22-12.12-1.71-19.38c-.48-9.63-10-11.21-10-.34-33.82,16-61.87-6.52-61.87-6.52s-4.91,29-4.77,27.7c-2.17-8.47-8.2-7.61-8.2-7.61s-10.41-64.2,47.87-58c56.83-7.22,47.32,55.44,47.22,57.15Z" transform="translate(-4.75 0.5)" fill="#211c1d"/><path d="M850.42,2238.48c-6.95,0-12.12-4.59-12.12-5.72s6.91-4.52,8.56-4.52,2.87,1.82,3.56,1.82,1.92-1.82,3.57-1.82,8.55,3.38,8.55,4.52-5.16,5.72-12.12,5.72Z" transform="translate(-4.75 0.5)" fill="#f31618"/><path d="M836.13,2288.25a6.24,6.24,0,0,1-6.22-5.57l-1-19,1.66,16.73a6,6,0,0,0,9.29,4.41l9.83-6.61-10.18,9.06a6.24,6.24,0,0,1-3.38,1" transform="translate(-4.75 0.5)" fill="#701802"/><path d="M834,2258.74l16.17,19.11-10.33,6.94a6,6,0,0,1-9.29-4.41l-1.91-19.32,5.36-2.32" transform="translate(-4.75 0.5)" fill="#e1dfd8"/><path d="M864.13,2288.25a6.21,6.21,0,0,1-3.38-1l-10.56-9.39,16.35-17.54,4.94.75-1.13,21.62a6.25,6.25,0,0,1-6.22,5.57" transform="translate(-4.75 0.5)" fill="#701802"/><path d="M866.12,2258.74l-15.93,19.11,10.33,6.94a6,6,0,0,0,9.29-4.41l1.67-19.32-5.36-2.32Z" transform="translate(-4.75 0.5)" fill="#e1dfd8"/><polygon points="892.8 2304.5 867.2 2304.5 867.2 2298.1 892.8 2298.1 892.8 2304.49 892.8 2304.5" fill="#792b16"/><polygon points="892.8 2320.5 867.2 2320.5 867.2 2304.5 892.8 2304.5 892.8 2320.5 892.8 2320.5" fill="#fff"/><polygon points="876.8 2314.1 870.4 2314.1 870.4 2307.7 876.8 2307.7 876.8 2312.3 876.8 2314.1" fill="#fd1616"/><polygon points="889.6 2317.3 870.4 2317.3 870.4 2314.1 889.6 2314.1 889.6 2317.3 889.6 2317.3" fill="#3c5e70"/><polygon points="883.2 2298.1 876.8 2298.1 876.8 2301.3 883.2 2301.3 883.2 2298.1 883.2 2298.1" fill="#a5968b"/><polyline points="364.8 2282.1 339.2 2282.1 339.2 2243.7 364.8 2243.7 364.8 2282.1" fill="#b9705e"/><path d="M369.43,2262.92l-11.27,13.82a2.52,2.52,0,0,1-3.78,0l-11.71-13.72c-.58-.65-1.35-.15-2.21,0h0a2.55,2.55,0,0,0-2,1.67L320.4,2317.1a4.6,4.6,0,0,0,4.35,6.1h65c1.76,0,3-10.18,2.37-11.83l-17.19-46.58a2.56,2.56,0,0,0-2-1.63l-1.18-.18c-.85-.14-1.75-.72-2.32-.06" transform="translate(-4.75 0.5)" fill="#fd1616"/><path d="M318.32,2200.8c-3.29,13.32,1.28,40.33,19.19,48.8h36.68c20-10.36,22.72-40.21,19.63-48.57-9.88-6.7-34.56-15.09-34.56-15.09s-33.51,8.41-40.94,14.86Z" transform="translate(-4.75 0.5)" fill="#532519"/><path d="M337.55,2323.2H269.61s-2-25.3,11.32-46c0-10.24,56.62-19.36,56.62-19.36v65.38" transform="translate(-4.75 0.5)" fill="#16393a"/><path d="M372.75,2323.2l68,0s2-25.43-11.38-46.16c0-10.25-56.64-19.36-56.64-19.36v65.54" transform="translate(-4.75 0.5)" fill="#16393a"/><path d="M320.09,2212.4c-5.53,1.14-11.06-3-12.35-9.17s2.15-12.16,7.69-13.31,10.21,21.32,4.66,22.48Z" transform="translate(-4.75 0.5)" fill="#fca894"/><path d="M391.34,2212.4c5.53,1.14,11.06-3,12.35-9.17s-2.15-12.16-7.69-13.31-10.2,21.32-4.66,22.48Z" transform="translate(-4.75 0.5)" fill="#fca894"/><path d="M356,2253.48c45.88,0,38.54-78.7,38.54-78.7S392.65,2149,357,2149c-31.08,0-38.74,26.43-38.74,26.43s-8.44,78.07,37.75,78.07Z" transform="translate(-4.75 0.5)" fill="#fca894"/><path d="M313.27,2190.66c3.75-.83,7.77,6.31,7.77,6.31l1.54-27.29s16.88,11.8,60.24,5.68c-1.25-9.54,6-5.76,6-5.76s3.26,29.85,3.14,28.7c1.95-7.68,7.41-6.9,7.41-6.9s19.74-58.22-46.4-58.22c-22.57,0-23.5,8-30.42,18.1-21.43,5-9.36,38.47-9.31,39.38Z" transform="translate(-4.75 0.5)" fill="#532519"/><path d="M346.61,2323.2H366L356.88,2279a1,1,0,0,0-1.44.05l-8.83,44.18Z" transform="translate(-4.75 0.5)" fill="#171314"/><path d="M350.35,2265.6h13.06c.87,0,1.32,5.21.7,5.82l-7.22,5.5a1,1,0,0,1-1.44,0l-7.26-5.49c-.56-.64-.11-5.79.75-5.79" transform="translate(-4.75 0.5)" fill="#171314"/><path d="M373.13,2263.08l-.2,0-1.18-.18a12.88,12.88,0,0,0-1.63-.37c-.26,0-.5.08-.57.3h0v-7.61l.08-.2a.76.76,0,0,1,1.19.1l2.92,2.57a4.92,4.92,0,0,0-1-.11v4.86" transform="translate(-4.75 0.5)" fill="#6e3705"/><path d="M364.38,2267.78c-.16-1.18-.47-2.18-.85-2.18H357l12.54-11.78v7.62l-5.17,6.34" transform="translate(-4.75 0.5)" fill="#4b2823"/><path d="M368.36,2279.17a.74.74,0,0,1-.46-.16l-5.44-5.26,1.27-1c.35-.35.36-2.14.15-3.65l5.17-6.34a.86.86,0,0,1,.69-.3,12.88,12.88,0,0,1,1.63.37l1.18.18.2,0v2l-3.66,13.57a.75.75,0,0,1-.73.55" transform="translate(-4.75 0.5)" fill="#710504"/><path d="M372.75,2265.6v-8.06l.61.11,1.12,1-1.73,6.42" transform="translate(-4.75 0.5)" fill="#0d1517"/><path d="M362.84,2272.39l-5.87-5.67a.77.77,0,0,1-.09-1.12h6.53c.38,0,.68,1,.85,2.18.21,1.5.2,3.3-.15,3.64l-1.27,1" transform="translate(-4.75 0.5)" fill="#0d0b0c"/><path d="M357,2267.59l11.61,8.95a.76.76,0,0,0,1.19-.39l5.09-17.52-.1-.64-3.65-5.39a.75.75,0,0,0-1.18-.09l-13.05,14a.77.77,0,0,0,.09,1.12Z" transform="translate(-4.75 0.5)" fill="#fd1616"/><path d="M340.75,2262.4v-4.71a11.72,11.72,0,0,0-2.25.09l3.08-2.7a.77.77,0,0,1,.63-.34c.16,0,.32.05,1.74.16v8c-1.5-.24-1.74-.33-2-.33a10.08,10.08,0,0,0-1.48.33h0a2.57,2.57,0,0,0-1.4.75" transform="translate(-4.75 0.5)" fill="#6e3705"/><path d="M349.36,2267.9l-5.41-6.33h0v-8l.1.09,12.75,12h-6.58c-.39,0-.7,1.08-.86,2.3" transform="translate(-4.75 0.5)" fill="#4b2823"/><path d="M342.18,2279.17a.75.75,0,0,1-.73-.55l-3.9-14.46v-.48a2.57,2.57,0,0,1,1.4-.75h0a9.92,9.92,0,0,1,1.49-.33.93.93,0,0,1,.72.33h0l5.41,6.33c-.2,1.46-.19,3.14.11,3.48l1.36,1-5.43,5.24a.74.74,0,0,1-.46.16" transform="translate(-4.75 0.5)" fill="#710504"/><path d="M337.55,2264.16l-1.49-5.53,1-.85.52-.09v7.91" transform="translate(-4.75 0.5)" fill="#0d1517"/><path d="M349.54,2272.41l-1.35-1c-.3-.35-.31-2-.11-3.49.16-1.22.47-2.3.86-2.3h6.58a.77.77,0,0,1-.09,1.12l-5.89,5.69" transform="translate(-4.75 0.5)" fill="#0d0b0c"/><path d="M355.42,2267.59l-11.6,8.95a.76.76,0,0,1-1.19-.39l-5.09-17.52.1-.64,3.64-5.39a.76.76,0,0,1,1.19-.09l13,14a.76.76,0,0,1-.1,1.12Z" transform="translate(-4.75 0.5)" fill="#fd1616"/><path d="M356.75,2231.24c-2.44,2.26-19.53,5.29-19.53,5.29L338,2232c1.48-2.88,5.81-4.84,10.7-4.84h8.07v4Z" transform="translate(-4.75 0.5)" fill="#532519"/><path d="M356.75,2231.24c2.44,2.26,19.53,5.29,19.53,5.29l-.76-4.49c-1.49-2.88-5.81-4.84-10.7-4.84h-8.07v4Z" transform="translate(-4.75 0.5)" fill="#532519"/><polygon points="355.2 2195.7 345.6 2195.7 345.6 2198.9 355.2 2198.9 355.2 2197.22 355.2 2195.7" fill="#141111"/><path d="M385.55,2208H368.22c-1.77,0-5.07-.91-5.07-2V2194c0-1.13,1.43-2,3.2-2h19.2c1.77,0,3.2.91,3.2,2V2206c0,1.13-1.43,2-3.2,2Z" transform="translate(-4.75 0.5)" fill="#b5e0df"/><path d="M385.43,2208.12,365.53,2192h19.9c1.84,0,3.32.92,3.32,2.05v12c0,1.13-1.48,2.06-3.32,2.06Z" transform="translate(-4.75 0.5)" fill="#ddf2f5"/><path d="M365.36,2192c-1.22,0-2.21.63-2.21,1.41v13c0,.93,3.06,1.56,4.28,1.56h19.13c1.21,0,2.2-.63,2.2-1.41v-13.18c0-.78-1-1.41-2.2-1.41Zm18.86,19.2H366.39c-2.5,0-6.44-1.38-6.44-3.07v-12.91c0-1.84,2-3.22,4.51-3.22h19.75c2.5,0,4.53,1.38,4.53,3.07v13.06c0,1.69-2,3.07-4.53,3.07Z" transform="translate(-4.75 0.5)" fill="#211c1d"/><path d="M328.05,2208h17.83c1.82,0,3.3-.91,3.3-2L351.1,2194c0-1.13-1.48-2-3.3-2H328.05c-1.83,0-3.3.91-3.3,2V2206c0,1.13,1.47,2,3.3,2Z" transform="translate(-4.75 0.5)" fill="#b5e0df"/><path d="M345.1,2208.12c1.83,0,5.25-.93,5.25-2.06v-12c0-1.13-1.48-2.05-3.32-2.05h-19.9l18,16.12Z" transform="translate(-4.75 0.5)" fill="#ddf2f5"/><path d="M327,2192c-1.21,0-2.2.63-2.2,1.41v13.18c0,.78,1,1.41,2.2,1.41h19.12c1.22,0,4.28-.63,4.28-1.41v-13.33c0-.63-1-1.26-2.23-1.26Zm20.15,19.2H329.27c-2.49,0-4.52-1.38-4.52-3.07v-13.06c0-1.69,2-3.07,4.52-3.07H349c2.5,0,4.53,1.38,4.53,3.07v13.21c0,1.54-3.94,2.92-6.44,2.92Z" transform="translate(-4.75 0.5)" fill="#211c1d"/><path d="M388.39,2194.47s3-.81,3.56-.42v1.31a24.76,24.76,0,0,0-3.49.89l-.07-1.78Z" transform="translate(-4.75 0.5)" fill="#141111"/><path d="M323,2194.47s-4.1-1.52-4.68-1.14v1.31a38.87,38.87,0,0,1,4.61,1.61l.07-1.78Z" transform="translate(-4.75 0.5)" fill="#141111"/><path d="M363.15,2224h-16v0c0-1.75,2.67-3.17,6-3.17h4.1c3.29,0,5.95,1.42,5.95,3.17v0Z" transform="translate(-4.75 0.5)" fill="#b06a59"/><polyline points="1276.8 2278.9 1251.2 2278.9 1251.2 2240.5 1276.8 2240.5 1276.8 2278.9" fill="#b9705e"/><path d="M1281.47,2262.24l-11.38,14a2.56,2.56,0,0,1-3.83,0l-11.84-13.88c-.59-.65-1.37-.15-2.23,0h0a2.54,2.54,0,0,0-2,1.68l-16.31,47.26a9,9,0,0,0,8.48,11.88h53.72a8.88,8.88,0,0,0,8.34-12L1287,2264.13a2.55,2.55,0,0,0-2-1.64l-1.19-.19c-.87-.13-1.78-.73-2.36-.06" transform="translate(-4.75 0.5)" fill="#f9ca27"/><path d="M1227.79,2199.1c-1.92,14.15,5.32,39.92,22.81,47.3h34.34c19.64-9.07,25.46-38.05,23.17-47-9.93-7.52-36.61-17.35-36.61-17.35s-36.39,9.85-43.71,17.08Z" transform="translate(-4.75 0.5)" fill="#ff4200"/><path d="M1249.55,2323.2h-68.71s-2-25.58,11.45-46.55c0-10.36,57.26-19.58,57.26-19.58v66.12" transform="translate(-4.75 0.5)" fill="#0c173a"/><path d="M1284.75,2323.2h68.79s2-25.72-11.51-46.68c0-10.37-57.28-19.59-57.28-19.59v66.28" transform="translate(-4.75 0.5)" fill="#0c173a"/><path d="M1231.58,2211.07c-5.58,1.15-11.18-3-12.48-9.28s2.17-12.29,7.77-13.46,10.32,21.57,4.71,22.74Z" transform="translate(-4.75 0.5)" fill="#fca894"/><path d="M1303.63,2211.07c5.6,1.15,11.19-3,12.49-9.28s-2.18-12.29-7.78-13.46-10.31,21.57-4.71,22.74Z" transform="translate(-4.75 0.5)" fill="#fca894"/><path d="M1267.89,2252.62c46.39,0,39-79.6,39-79.6s-1.9-26.09-38-26.09c-31.43,0-39.18,26.74-39.18,26.74s-8.54,78.95,38.18,78.95Z" transform="translate(-4.75 0.5)" fill="#fca894"/><path d="M1224.69,2189.09c3.79-.85,7.86,6.38,7.86,6.38l1.55-27.6s.38,5.66,21.91,7.28l-2.25-5.51s16,7.77,28.41,6a6.81,6.81,0,0,1-1.46-6.67,22.41,22.41,0,0,0,12.18,5.46c1.9-5,8.23-6.67,8.23-6.67s3.3,30.19,3.17,29c2-7.77,7.5-7,7.5-7s.54-7,.63-24.6c.08-15-9-32-44.22-31-22.81.69-30.32,4.72-34.1,16.24-7.64,0-10.61,5.46-10.85,11.57a184.42,184.42,0,0,0,1.44,27Z" transform="translate(-4.75 0.5)" fill="#ff4200"/><path d="M1258.41,2323.2H1278l-9.24-44.72a1,1,0,0,0-1.45,0l-8.92,44.68Z" transform="translate(-4.75 0.5)" fill="#171314"/><path d="M1262.35,2265.6h13c.88,0,1.34,5.26.71,5.89l-7.3,5.56a1,1,0,0,1-1.46-.05l-7.34-5.55c-.56-.64-.11-5.85.76-5.85" transform="translate(-4.75 0.5)" fill="#171314"/><path d="M1280.31,2278.59a.74.74,0,0,1-.46-.16l-5.51-5.32,1.09-.82,4.72,3.64a.76.76,0,0,0,.47.16.75.75,0,0,0,.73-.56l3.4-11.69v.47l-3.7,13.73a.76.76,0,0,1-.74.55" transform="translate(-4.75 0.5)" fill="#6a4a09"/><polyline points="1280 2266.1 1280 2264.34 1281.75 2258.31 1280 2264.81" fill="#0b0d17"/><path d="M1274.81,2273.11l-5.93-5.74a.76.76,0,0,1-.26-.85.76.76,0,0,0,.26.36l7,5.41-1.08.82" transform="translate(-4.75 0.5)" fill="#0d0b0c"/><path d="M1268.88,2266.88l11.74,9a.76.76,0,0,0,1.2-.4l5.15-17.72-.1-.64-3.69-5.45a.76.76,0,0,0-1.19-.09l-13.2,14.12a.76.76,0,0,0,.09,1.13" transform="translate(-4.75 0.5)" fill="#f9ca27"/><path d="M1249.55,2262.4v-5.53c1.19,0,1,0,.66.09l3.11-2.73a.74.74,0,0,1,.63-.34c.16,0,.33.05-1.2.15v8.13c1.45-.25,1.2-.33.94-.33a10,10,0,0,0-1.5.33h0a2.54,2.54,0,0,0-1.42.76" transform="translate(-4.75 0.5)" fill="#6e3705"/><path d="M1261.42,2267.93l-5.47-6.4h0v-8.13h0l13,12.2h-6.65c-.4,0-.71,1.09-.87,2.33" transform="translate(-4.75 0.5)" fill="#4b2823"/><path d="M1254.23,2278.59a.76.76,0,0,1-.74-.55l-3.94-14.63v-.48a2.54,2.54,0,0,1,1.42-.76h0a10,10,0,0,1,1.5-.33.92.92,0,0,1,.73.33h0l5.47,6.4c-.2,1.48-.19,3.17.11,3.52l1.37,1-5.48,5.3a.78.78,0,0,1-.47.16" transform="translate(-4.75 0.5)" fill="#6a4a09"/><path d="M1249.55,2263.41l-1.51-5.6,1-.85.53-.09v5.53" transform="translate(-4.75 0.5)" fill="#0b0d17"/><path d="M1261.37,2272.49l-1.37-1c-.3-.35-.31-2-.12-3.52.17-1.24.48-2.33.88-2.33h6.65a.77.77,0,0,1-.09,1.13l-6,5.76" transform="translate(-4.75 0.5)" fill="#0d0b0c"/><path d="M1267.31,2266.88l-11.73,9a.77.77,0,0,1-1.21-.4l-5.14-17.72.1-.64,3.68-5.45a.77.77,0,0,1,1.2-.09l13.2,14.12a.76.76,0,0,1-.1,1.13Z" transform="translate(-4.75 0.5)" fill="#f9ca27"/><polygon points="1229.36 2151.01 1230.8 2157.32 1233.58 2155.82 1229.36 2151.01 1229.36 2151.01" fill="#a52b02"/><polygon points="0 2320.5 0 2557.3 1600 2557.3 1600 2320.5 0 2320.5 0 2320.5" fill="#622614"/><polygon points="800 2323.7 736 2323.7 736 2333.3 800 2333.3 800 2322.63 800 2323.7" fill="#191516"/><polygon points="800 2326.9 736 2326.9 736 2333.3 800 2333.3 800 2328.11 800 2326.9" fill="#0f0c0d"/><path d="M760,2323.2h-3.2v-49.63a13.17,13.17,0,0,1,3.87-9.33l18.5-18.5,2.26,2.26-18.5,18.5a10,10,0,0,0-2.93,7.07v49.63Z" transform="translate(-4.75 0.5)" fill="#070606"/><path d="M798.21,2230.18c3.34,3.67,1.75,10.55-3.55,15.36s-12.3,5.76-15.63,2.09-1.75-10.55,3.55-15.37,12.3-5.75,15.63-2.08Z" transform="translate(-4.75 0.5)" fill="#070606"/><polygon points="569.6 2323.7 505.6 2323.7 505.6 2333.3 569.6 2333.3 569.6 2322.63 569.6 2323.7" fill="#191516"/><polygon points="569.6 2326.9 505.6 2326.9 505.6 2333.3 569.6 2333.3 569.6 2328.11 569.6 2326.9" fill="#0f0c0d"/><path d="M529.55,2323.2h-3.2v-49.63a13.17,13.17,0,0,1,3.87-9.33l18.49-18.5L551,2248l-18.5,18.5a10,10,0,0,0-2.93,7.07v49.63Z" transform="translate(-4.75 0.5)" fill="#070606"/><path d="M567.81,2230.18c3.34,3.67,1.75,10.55-3.55,15.36s-12.3,5.76-15.63,2.09-1.75-10.55,3.55-15.37,12.3-5.75,15.63-2.08Z" transform="translate(-4.75 0.5)" fill="#070606"/><polygon points="310.4 2323.7 246.4 2323.7 246.4 2333.3 310.4 2333.3 310.4 2322.63 310.4 2323.7" fill="#191516"/><polygon points="310.4 2326.9 246.4 2326.9 246.4 2333.3 310.4 2333.3 310.4 2328.11 310.4 2326.9" fill="#0f0c0d"/><path d="M270.35,2323.2h-3.2v-49.63a13.17,13.17,0,0,1,3.87-9.33l18.5-18.5,2.26,2.26-18.5,18.5a10,10,0,0,0-2.93,7.07v49.63Z" transform="translate(-4.75 0.5)" fill="#070606"/><path d="M308.61,2230.18c3.34,3.67,1.75,10.55-3.55,15.36s-12.3,5.76-15.63,2.09-1.75-10.55,3.55-15.37,12.3-5.75,15.63-2.08Z" transform="translate(-4.75 0.5)" fill="#070606"/><polygon points="80 2323.7 16 2323.7 16 2333.3 80 2333.3 80 2322.63 80 2323.7" fill="#191516"/><polygon points="80 2326.9 16 2326.9 16 2333.3 80 2333.3 80 2328.11 80 2326.9" fill="#0f0c0d"/><path d="M40,2323.2h-3.2v-49.63a13.17,13.17,0,0,1,3.87-9.33l18.49-18.5,2.27,2.26-18.5,18.5a10,10,0,0,0-2.93,7.07v49.63Z" transform="translate(-4.75 0.5)" fill="#070606"/><path d="M78.21,2230.18c3.34,3.67,1.75,10.55-3.55,15.36s-12.3,5.76-15.63,2.09-1.75-10.55,3.55-15.37,12.3-5.75,15.63-2.08Z" transform="translate(-4.75 0.5)" fill="#070606"/><polygon points="1014.4 2323.7 950.4 2323.7 950.4 2333.3 1014.4 2333.3 1014.4 2322.63 1014.4 2323.7" fill="#191516"/><polygon points="1014.4 2326.9 950.4 2326.9 950.4 2333.3 1014.4 2333.3 1014.4 2328.11 1014.4 2326.9" fill="#0f0c0d"/><path d="M974.35,2323.2h-3.2v-49.63a13.17,13.17,0,0,1,3.87-9.33l18.5-18.5,2.26,2.26-18.5,18.5a10,10,0,0,0-2.93,7.07v49.63Z" transform="translate(-4.75 0.5)" fill="#070606"/><path d="M1012.61,2230.18c3.34,3.67,1.75,10.55-3.55,15.36s-12.3,5.76-15.63,2.09-1.75-10.55,3.55-15.37,12.3-5.75,15.63-2.08Z" transform="translate(-4.75 0.5)" fill="#070606"/><polygon points="1228.8 2323.7 1164.8 2323.7 1164.8 2333.3 1228.8 2333.3 1228.8 2322.63 1228.8 2323.7" fill="#191516"/><polygon points="1228.8 2326.9 1164.8 2326.9 1164.8 2333.3 1228.8 2333.3 1228.8 2328.11 1228.8 2326.9" fill="#0f0c0d"/><path d="M1188.75,2323.2h-3.2v-49.63a13.17,13.17,0,0,1,3.87-9.33l18.49-18.5,2.27,2.26-18.5,18.5a10,10,0,0,0-2.93,7.07v49.63Z" transform="translate(-4.75 0.5)" fill="#070606"/><path d="M1227,2230.18c3.34,3.67,1.75,10.55-3.55,15.36s-12.3,5.76-15.63,2.09-1.75-10.55,3.55-15.37,12.3-5.75,15.63-2.08Z" transform="translate(-4.75 0.5)" fill="#070606"/><polygon points="1452.8 2323.7 1388.8 2323.7 1388.8 2333.3 1452.8 2333.3 1452.8 2322.63 1452.8 2323.7" fill="#191516"/><polygon points="1452.8 2326.9 1388.8 2326.9 1388.8 2333.3 1452.8 2333.3 1452.8 2328.11 1452.8 2326.9" fill="#0f0c0d"/><path d="M1412.75,2323.2h-3.2v-49.63a13.17,13.17,0,0,1,3.87-9.33l18.5-18.5,2.26,2.26-18.5,18.5a10,10,0,0,0-2.93,7.07v49.63Z" transform="translate(-4.75 0.5)" fill="#070606"/><path d="M1451,2230.18c3.34,3.67,1.75,10.55-3.55,15.36s-12.3,5.76-15.63,2.09-1.75-10.55,3.55-15.37,12.3-5.75,15.63-2.08Z" transform="translate(-4.75 0.5)" fill="#070606"/><polygon points="0 2403.7 0 2557.3 1600 2557.3 1600 2403.7 0 2403.7 0 2403.7" fill="#78706c"/><polygon points="0 2445.3 0 2490.1 1600 2490.1 1600 2445.3 0 2445.3 0 2445.3" fill="#5f5655"/><polygon points="0 2381.3 0 2445.3 1600 2445.3 1600 2381.3 0 2381.3 0 2381.3" fill="#433b3b"/><path d="M444.27,1967.16c-13.81-1-104.77,34.17-104.77,34.17l-102.63,13s-6.91,12.86-8.57,27.62,6.43,140.49,8.57,152.88S241.61,2336,241.61,2336h61s-.46-113.38-3.79-133.86c-3-18.28,7.62-99.23,9.81-113.85l95-45.44L368.4,2131l61,17.46s10.8-53.56,22.05-88c7.87-24.05,23.62-45.69,23.81-64.3-4.28-20-17.14-28.09-31-29Z" transform="translate(-4.75 0.5)" fill="#261f20"/><path d="M322.06,2012.27c1.23,10.36,1.39,34.86,8.52,41.6,3.23,1.69,9.47,2.26,8.47-4.12-.8-21.6,35.21-61.39,35.21-61.39l-137.39,26s-6.91,12.86-8.57,27.62,6.43,140.49,8.57,152.88S241.61,2336,241.61,2336H259s-4.16-107.1-6.65-138.13c-2.41-14.81-12.94-70.71-9.22-99.2.61-4.68,29.19-.23,48.26-1.87,3.7-.32,5.15-79.6,8.27-81.33,1.32-.74,21.38-6.09,22.41-3.2Z" transform="translate(-4.75 0.5)" fill="#1d1819"/><path d="M308.6,2089.78l95-45.44-35.22,88.17,17.38,5s15.94-63.18,27.2-97.6c7.08-21.65-104.4,50-104.38,49.89Z" transform="translate(-4.75 0.5)" fill="#1d1819"/><polygon points="327.85 2062.26 302.32 2086.46 274.27 2071.43 303.09 2095.45 303.93 2089.81 308.46 2087.55 327.85 2062.26 327.85 2062.26" fill="#191516"/><path d="M477.61,1833.05c-10.72-1.79-23.58,7.5-26.43,13.21-2.22,4.43-3.39,17.28-3.8,22.85h0c-26,21.43-33.59,23.7-52.64,36.09-7.62-1.43-32.38-88.46-46.67-91.32-3.81,0-10.76,73.11-10.76,73.11s39.77,49.38,48.82,55.57,15.76,1.81,15.76,1.81,32.85-31.43,56.19-57.38l0-.4c6.39-.92,21.36-3.38,25.26-6.71,5-4.28,11.08-10,11.43-18.73s-6.43-26.32-17.14-28.1Z" transform="translate(-4.75 0.5)" fill="#fcaf7f"/><path d="M477.25,1876.17c-10.72-1.78-16.79-37.76-19.64-32.05-2.22,4.43,10.71,32.05,10.71,32.05-17.14,5.1-51.08,43.79-70.13,56.17-25.59,1.43-43.45-53.31-57.74-56.17-3.81,0-3.14,10.82-3.14,10.82s39.77,49.38,48.82,55.57,15.76,1.81,15.76,1.81,32.85-31.43,56.19-57.38l0-.4c6.39-.92,21.36-3.38,25.26-6.71,5-4.28,11.08-10,11.43-18.73s-6.78,16.81-17.5,15Z" transform="translate(-4.75 0.5)" fill="#e89c6b"/><polygon points="429.96 1878.78 441.76 1869.36 452.96 1893.41 442.14 1903.44 429.96 1878.78 429.96 1878.78" fill="#fff"/><path d="M346.73,1811c14.12,8.86,25.2,39.28,25.2,39.28s16.1,44.51,22.75,50.38c9.42-.73,42.48-25.84,42.48-25.84s13.33,25.3,14.95,29.63c-24.92,22.22-41.16,41.61-57.43,48.49-17.34-.27-61.22-64.63-61.22-64.63s10.28-76.3,13.27-77.31Z" transform="translate(-4.75 0.5)" fill="#2a2425"/><path d="M346.73,1811c6.12,2.26,2.22,83.72,2.22,83.72s37.19,43.87,43.83,49.74c9.42-.74,46.87-35.6,52.89-53.25,3,5.83,5.75,11.41,6.44,13.24-24.92,22.22-41.16,41.61-57.43,48.49-17.34-.27-61.22-64.63-61.22-64.63s10.28-76.3,13.27-77.31Z" transform="translate(-4.75 0.5)" fill="#1d1819"/><path d="M269.45,1762.49s-.91,34.92-6.63,38.63c-3.13,2-10,.12-18.4-1.8-6.86-1.58-14.7-3.15-22.22-2.54-16.66,1.37-48.71,46-108.35,64.37.91,7.68,38.49,18,38.49,18s64.56-33.2,70.86-26.84c-2.76,32.07,15.1,84.7,13.67,137.56,7.26-1.16,96.83-14.64,100.44-14.64-1.24-23.27-.79-63.23,3.14-77,.19-1.56,2.38-3.69,3.64-8.48,4.38-36.73,7.52-72,4-75.81-7.62-8.1-52-5.24-52-5.24l2-21.43-28.62-24.72" transform="translate(-4.75 0.5)" fill="#fcaf7f"/><path d="M269.45,1762.49s-.91,34.92-6.63,38.63c-3.13,2-10,.12-18.4-1.8-6.86-1.58-14.7-3.15-22.22-2.54-16.66,1.37-48.71,46-108.35,64.37.91,7.68,38.49,18,38.49,18s64.56-33.2,70.86-26.84c-2.76,32.07,15.1,84.7,13.67,137.56,2.34-.38,13.27-2,27.12-4.11-8.19-23.39-15.76-55.58-12.83-72.33.32-1.86,88.9-13.86,89.29-15.24.08-.68-18.38.89-39,2.47-26.28,2-56,4-55.34,1.34,1.14-9.55-3.53-21-9.56-33-1.11-2.21,40.79-4.09,49.12-13.08,4.53-15.56-13.33-22.46-21.19-23.66-21.25,1.67-23.44,15.36-40,15.48-7,3-54.06-6.66-53.82-9,.24-4,45.85-31.92,48.1-35.24,1.6-2.35,11.82-.05,22.77,2.24,10.47,2.2,21.61,4.39,26.52,2.53,6.19-7.15,8.81-24.41,8.81-24.41l20.39,12.15.81-8.7-28.62-24.72" transform="translate(-4.75 0.5)" fill="#e89c6b"/><polyline points="291.47 1808.97 285.91 1828.05 253 1805.3 238.37 1805.3 274.27 2012.39 327.85 2005.62 323.7 1840.89 307.99 1810.04 291.47 1808.97" fill="#fff"/><polygon points="265.49 1994.05 336 1985.11 336 2003.93 270.36 2013.14 265.49 1994.05 265.49 1994.05" fill="#532519"/><path d="M302.21,2005.67l-.5-12.94,15.43-2,.91,12.68-15.84,2.22Zm18.49-18.56-23,2.92.74,19.3,23.62-3.32-1.36-18.9Z" transform="translate(-4.75 0.5)" fill="#8e857e"/><polygon points="284.35 1835.72 291.47 1978.61 311.37 1993.78 322.75 1972.38 290.77 1835.27 284.35 1835.72 284.35 1835.72" fill="#fd1616"/><polyline points="278.26 1827.72 292.95 1826.1 292.18 1835.17 283.11 1835.81 278.26 1827.72" fill="#fd1616"/><path d="M221.58,1794.72s33.11,5.81,38.2,4.6c24.78,36.16,30.83,109.19,33.78,166.14,2.75,52.75-6.4,125-6.4,125l-76.55-6.29s14.39-47.13,16.54-96.3-13.29-123.53-13.29-123.53l7.72-69.61" transform="translate(-4.75 0.5)" fill="#2a2425"/><path d="M237,1984.61C238.53,2062,233,2086,233,2086l-22.4-1.84s14.39-47.13,16.54-96.3-13.29-123.53-13.29-123.53S233.25,1904,237,1984.61Z" transform="translate(-4.75 0.5)" fill="#1d1819"/><path d="M121.21,1843.51c55.4-22,93.6-48.53,100.37-48.79s12,20.17,11.38,35.75-8.13,30.68-8.13,30.68l-74.49,22.09s-30.86-38.84-29.13-39.73Z" transform="translate(-4.75 0.5)" fill="#2a2425"/><path d="M121.21,1843.51c24-12.68,64.87-6.46,71.64-6.73,52.8,1.25,32,24.37,32,24.37l-74.49,22.09s-30.86-38.84-29.13-39.73Z" transform="translate(-4.75 0.5)" fill="#1d1819"/><path d="M339,1767.69l-4.3-20.34c7.13-25.65,1.66-52.94-45.22-58.32-41.91-2.86-37.11,59.35-29.83,72s41.25,36.25,50.78,34.83c3.45-.52,12.38-12.93,17-30l11.54,1.84Z" transform="translate(-4.75 0.5)" fill="#fcaf7f"/><path d="M294.6,1724.08s12,4.12,31.09,3.13c-4.05-3.34-9.88-12.74-9.88-12.74s14.4,9.4,26.55,5.35c1.59-8.25-31-56-79.54-24-41.43.24,8.6,77.15-2.14,82.69a23.84,23.84,0,0,0,10.72,0s-.72-48.16,10-49.35c3.09.71,1.66,18.34,4.76,20s3.1,1.67,6.19,2.14c-8.33-13.33,2.25-27.17,2.25-27.17Z" transform="translate(-4.75 0.5)" fill="#532519"/><path d="M252.05,1707c3.39-6.08,12-3.22,12-3.22,42.86-22.68,77.41,11.46,78.34,16.07,1.59-8.25-31-56-79.54-24-41.43.24,8.6,77.15-2.14,82.69a23.84,23.84,0,0,0,10.72,0c-1.13-21.67-25-60.41-19.35-71.49Z" transform="translate(-4.75 0.5)" fill="#482016"/><path d="M277.05,1753.9c-7-1.1-11.94-7.11-10.95-13.42s7.49-10.53,14.53-9.43l-3.58,22.85Z" transform="translate(-4.75 0.5)" fill="#fcaf7f"/><path d="M276.23,1836.19q-.54-1.82-1.11-3.6l8.9-3.69.79,1.32-8.58,6m13.65-9.73.78-.32-.41.28-.37,0" transform="translate(-4.75 0.5)" fill="#afa9a0"/><polyline points="280.06 1830.72 279.27 1829.4 285.13 1826.96 285.5 1826.92 280.06 1830.72" fill="#b00700"/><path d="M270.41,1840.25l-1.62-5,6.33-2.63q.57,1.79,1.11,3.6l-5.82,4.06" transform="translate(-4.75 0.5)" fill="#1b1617"/><polyline points="261.8 1792.76 251.78 1798.46 263.83 1835.81 285.91 1826.64 261.8 1792.76" fill="#fff"/><path d="M113.76,1863.65c-1-12.39,18.08-24.42,40.94-23.47s50,13.23,78.12,12.27c6.19-.47,18.57-17.14,29.05-17.14,13.81.48,24.29,13.81,25.24,22.38S273.82,1881,265.72,1881s-18.36-7.89-18.36-7.89l-14.18-.09c-14.17-.1-66.06,16.49-87.49,13.63s-31-10.63-31.93-23Z" transform="translate(-4.75 0.5)" fill="#fcaf7f"/><path d="M113.76,1863.65c-1-12.39,16,18.09,38.82,19s52.62-18.19,80.72-19.14c6.19-.48,20.6,9.49,31.07,9.49,13.81.48,21.79-23.93,22.74-15.36S273.82,1881,265.72,1881s-18.36-7.89-18.36-7.89l-14.18-.09c-14.17-.1-66.06,16.49-87.49,13.63s-31-10.63-31.93-23Z" transform="translate(-4.75 0.5)" fill="#e89c6b"/><path d="M413.35,2145.39s12.15,23.14,39.3,41.24c9,8-1.17,24.07-7,21.44s-72.93-34.13-80.55-37.46c-4.77-18.1,16.12-34.42,16.12-34.42l32.11,9.2Z" transform="translate(-4.75 0.5)" fill="#161213"/><path d="M413.35,2145.39s-1.3,3.44-22.7-.16c-.11,9.65,5.8,31.61,55,62.84-5.82-2.64-72.93-34.13-80.55-37.46-4.77-18.1,16.12-34.42,16.12-34.42l32.11,9.2Z" transform="translate(-4.75 0.5)" fill="#0f0c0d"/><path d="M259,2336s-20.75,15.88-53,20.89c-11.53,3.47-9.07,22.33-2.68,22.39s80.52-.3,88.84-.12c11.93-14.41-2.11-43.16-2.11-43.16Z" transform="translate(-4.75 0.5)" fill="#161213"/><path d="M259,2336s-20.75,15.88-53,20.89c-11.53,3.47-9.07,22.33-2.68,22.39s1.08-.3,9.4-.12c-2.44-11.34,23.2-19.37,40.84-31.95a29.45,29.45,0,0,1,14.55-5.37c11.39-1,21.94-3.24,21.94-5.84Z" transform="translate(-4.75 0.5)" fill="#0f0c0d"/><polygon points="217.91 1850.1 230.4 1850.1 230.4 1878.9 215.29 1878.9 217.91 1850.1 217.91 1850.1" fill="#fff"/><path d="M110.79,1859.73c-.27-17.88,26.26-24.22,44.16-22.55s69.88,8.19,69.88,8.19l-2.43,39.55s-53.94,2.61-71.26,3.36c-3.78-.11-38.73,1.25-40.35-28.55Z" transform="translate(-4.75 0.5)" fill="#2a2425"/><path d="M110.79,1859.73c-.27-17.88,17.63,16.75,35.53,18.42s77-8.48,77-8.48l-.94,15.25s-53.94,2.61-71.26,3.36c-3.78-.11-38.73,1.25-40.35-28.55Z" transform="translate(-4.75 0.5)" fill="#1d1819"/><path d="M296.22,1806c37.51,56.74,25.21,244.13,36.37,245.21,16.38-43.48,41.67-61.4,41.67-61.4-11.5-6.23-18.92-4.76-24.66-25.82,0,0-5.86-24.2-7.19-45.2-1.43-22.61,17.69-100,4.32-107.86-4.22-5.37-38.32-1.79-50.51-4.93" transform="translate(-4.75 0.5)" fill="#2a2425"/><path d="M296.9,1807.1l-.68,0h0v-.12l.18-.6.49.77" transform="translate(-4.75 0.5)" fill="#ab5b06"/><polyline points="285.91 1826.64 291.48 1807.43 291.47 1807.56 285.91 1826.64" fill="#ac6c48"/><path d="M309.05,1836l-11.7-6.27.35-4.12-6.67.73-.37-.19,5.56-19.09h0l.68,0c4.85,7.65,8.84,17.51,12.15,28.89" transform="translate(-4.75 0.5)" fill="#afa9a0"/><polyline points="292.6 1830.22 286.28 1826.84 292.95 1826.1 292.6 1830.22" fill="#b00700"/><path d="M303.87,1807.12a46.54,46.54,0,0,1-7.4-1l1.58-5.44,5.82,6.46" transform="translate(-4.75 0.5)" fill="#ab5b06"/><path d="M310.54,1836.78l-1.49-.79c-3.31-11.38-7.3-21.24-12.15-28.89l-.49-.77.06-.23a46.54,46.54,0,0,0,7.4,1l.41.46,6.26,29.2" transform="translate(-4.75 0.5)" fill="#1b1617"/><polygon points="285.91 1826.64 304.87 1833.82 299.42 1807.54 292.39 1797.69 285.91 1826.64 285.91 1826.64" fill="#fff"/><path d="M287,1941.88a4,4,0,1,1-4-4,4,4,0,0,1,4,4Z" transform="translate(-4.75 0.5)" fill="#0d0b0b"/><path d="M287,1984.61a4,4,0,1,1-4-4,4,4,0,0,1,4,4Z" transform="translate(-4.75 0.5)" fill="#0d0b0b"/><path d="M1373.33,1814.33s19,24.25,17.28,46.07c3.57-5.12,6.49-5.7,9-8.28-.56-21.43-26.32-37.79-26.32-37.79Z" transform="translate(-4.75 0.5)" fill="#fd1616"/><path d="M1372.76,1812.58s32.44,11.48,43.9,33.06c.31-7,2.71-9.26,3.57-13.22-13.38-19.86-47.47-19.84-47.47-19.84Z" transform="translate(-4.75 0.5)" fill="#fd1616"/><path d="M1482.75,2329.6c16.43,22.15,47.39,22.62,55,31.67s0,19.53,0,19.53h-85.25c-4.77-23.34,3.81-30,4.52-51.2Z" transform="translate(-4.75 0.5)" fill="#fff"/><path d="M1463.15,2362a5.77,5.77,0,1,0,5.76-5.77,5.76,5.76,0,0,0-5.76,5.77Z" transform="translate(-4.75 0.5)" fill="#fd1616"/><path d="M1482.65,2329.6c16.44,22.15,47.4,22.62,55,31.67s0,19.53,0,19.53h-8.85c-4.76-23.34-55.11-30-54.39-51.2Z" transform="translate(-4.75 0.5)" fill="#bcb6ad"/><path d="M1164.37,2329.6c-16.43,22.15-47.39,22.62-55,31.67s0,19.53,0,19.53h85.25c4.76-23.34-3.81-30-4.52-51.2Z" transform="translate(-4.75 0.5)" fill="#fff"/><path d="M1179.13,2329.6c-1.34,24.52,11.9,30.68,4.27,39.73s-74.07,11.47-74.07,11.47h85.25c4.77-23.34-3.81-30-4.52-51.2Z" transform="translate(-4.75 0.5)" fill="#bcb6ad"/><path d="M1173.06,2362a5.77,5.77,0,1,0,5.76-5.77,5.76,5.76,0,0,0-5.76,5.77Z" transform="translate(-4.75 0.5)" fill="#fd1616"/><polygon points="1267.2 2086.9 1372.8 2086.9 1372.8 2067.7 1267.2 2067.7 1267.2 2086.9 1267.2 2086.9" fill="#f5cc1e"/><path d="M1275.15,2086.4h102.4v-19.2H1359s-4.38,8.43-21.69,12.53-62.18,6.67-62.18,6.67Z" transform="translate(-4.75 0.5)" fill="#d2a913"/><path d="M1377.66,2089.6,1497.6,2178a24.8,24.8,0,0,1,10.1,20.09c-.63,32.16-15.56,56.77-3.17,150.2-.63,1.9-47.08-.65-56.36,18.71,0,0-8.11-118.17,3.24-152.48-47.75-31.21-133.56-63.33-133.56-63.33s-127.25,62.52-125.64,69c9.28,26.22,13.12,129.48,6.27,146.83-4.44-19.36-40.37-20-54-21.78,10.18-28.36-4-117.72-9.2-147.76a16.12,16.12,0,0,1,6.58-15.89l129.87-92Z" transform="translate(-4.75 0.5)" fill="#161237"/><path d="M1377.66,2088.13l119.94,88.4a24.82,24.82,0,0,1,10.1,20.1c-.63,32.16-15.56,56.76-3.17,150.19-.27.8-4.51.83-14.84,2-8.16-74,21-141.58,9-160.78-8.8-10.8-105.64-71.6-105.42-81.2s-15.65-18.73-15.65-18.73Z" transform="translate(-4.75 0.5)" fill="#100e23"/><path d="M1377.66,2089.6l47.27,34.84s-37.86,28.82-52.6,29.1-42-38.87-54.48-39.2c-9.16-.87-45.92,44.4-57.92,42.8s-36.74-33.14-36.74-33.14l48.57-34.4Z" transform="translate(-4.75 0.5)" fill="#100e23"/><path d="M1451.41,2213.06c-42.55-31.93-133.56-63.34-133.56-63.34s-127.25,62.53-125.64,69c9.28,26.22,13.12,129.49,6.27,146.83-1.24-5.4-4.93-9.34-9.9-12.26-3.34-10.85,16.15-53.61-2.25-135.21,1.64-14.12,89.26-59,120.6-74.57a26.33,26.33,0,0,1,22.19-.64c33.8,14.54,122.29,70.21,122.29,70.21Z" transform="translate(-4.75 0.5)" fill="#100e23"/><path d="M1126.89,1919.46c4.2-1.29,18.09-.48,22.93,5.34,4.09,4.9,5.87,21.51,6.33,26.57l.13-.11s50.6,40.33,61.58,37.87c7.13-.69,17-21.56,20.88-43.4,1.81-25,9.9-43.81,17.44-44.23,4.27.59,15.58,81.67,15.58,81.67s-41.61,48.69-51.54,49.17-53.07-47.52-73.87-61.23a4.24,4.24,0,0,1-1-.54l0,0s-18.47-6.74-22.67-10.61-9.69-8.72-10-15.18,10-24.07,14.21-25.36Z" transform="translate(-4.75 0.5)" fill="#fcaf7f"/><path d="M1124.34,1952.92c4.2-1.29,15.18-35.54,20-29.72,4.09,4.91-24.87,24.26,4.55,41.55,3.27,3.07,60.91,55.25,71.89,52.78,7.13-.69,35.88-25.78,39.74-47.62,1.81-25-.31-44.59-4.36-68.41,4.27.59,15.58,81.67,15.58,81.67s-41.61,48.69-51.54,49.17-53.07-47.52-73.87-61.23a4.24,4.24,0,0,1-1-.54l0,0s-18.47-6.74-22.67-10.61-9.69-8.72-10-15.18,7.47,9.4,11.66,8.1Z" transform="translate(-4.75 0.5)" fill="#e89c6b"/><polygon points="1161.05 1957.41 1152.98 1951.36 1141.29 1977.17 1151.17 1987.06 1161.05 1957.41 1161.05 1957.41" fill="#fff"/><polygon points="1156.11 1972.23 1146.44 1965.8 1141.29 1977.17 1151.17 1987.06 1156.11 1972.23 1156.11 1972.23" fill="#bcb6ad"/><path d="M1256.18,1900.43c-20.32,5.79-18.44,32.94-20.19,44.38s-11.23,38.48-16.94,41.14-53.81-32.09-53.81-32.09L1152,1987.7s57.79,50.43,71.37,52.18,54.57-62,54.57-62-17.31-77.31-21.76-77.45Z" transform="translate(-4.75 0.5)" fill="#2e2669"/><path d="M1256.18,1900.43c1.75,18.83,1.75,73.41,0,84.83s-24.5,37.92-30.22,40.59-68.84-51.23-68.84-51.23L1152,1987.7s57.79,50.43,71.37,52.18,54.57-62,54.57-62-17.31-77.31-21.76-77.45Z" transform="translate(-4.75 0.5)" fill="#1d184a"/><path d="M1347.16,1854.57s-3.3,32.62,0,38.29,58.39,15.88,60.28,21.36-27.89,88.21-31.67,107.59,1.89,45.39,1.89,45.39h-105.9c2.28-34-2.86-77.07-2.86-77.07-2.15-17.42-12.75-36.4-12.72-89.7,5.17-5.32,48.67-1.54,55.29-8.16,2.36-4.73-1-22.69-1-22.69l36.64-15" transform="translate(-4.75 0.5)" fill="#fcaf7f"/><path d="M1347.16,1854.57s-3.3,32.62,0,38.29,58.39,15.88,60.28,21.36-27.89,88.21-31.67,107.59,1.89,45.39,1.89,45.39H1358.5a262.65,262.65,0,0,0,5.35-28.28c.25-1.92-92.14-.67-91.92-2.67,0-.18-2-20.24,16.66-20.7,9.41-.15,26.47,12.94,34.73,15.72,39.66,2.71,41.48-.53,41.55-1.31a157.78,157.78,0,0,0,.62-22.9c-.45-4.57-96.59-16.93-96.59-16.93-.62-5,15.64-1.64,37.11,1.75,21.32,3.36,47.79,6.72,68,1.83,3.64-.88,5-17.61,8.19-18.8,3.34-4.25,17.51-34.79,17.52-54.64,4.16-4.27-41.75-12.67-56.66-23.92-3.64-2.75-5.84-16.9-4.54-18.2.41-.83-5.08.95-11.15,2.73-7.11,2.08-15,4.16-15.14,2.07a128.7,128.7,0,0,0-1.68-13.37l36.64-15" transform="translate(-4.75 0.5)" fill="#e89c6b"/><polyline points="1303.18 1896.88 1315.95 1913.52 1344.73 1897.59 1351.32 1901.75 1322.41 1974.9 1307.21 1974.9 1295.52 1903.49 1303.18 1896.88" fill="#fff"/><polygon points="1314.74 1910.9 1292.64 2065.94 1308.22 2077.37 1324.96 2067.48 1318.1 1910.9 1314.74 1910.9 1314.74 1910.9" fill="#131010"/><polyline points="1324.74 1908.54 1315.94 1913.81 1308.92 1908.21 1310.04 1901.3 1325.86 1901.3 1324.74 1908.54" fill="#211c1d"/><path d="M1304.36,1896.09l7.44-9,.52.76a14,14,0,0,1-.85,5.54,8.53,8.53,0,0,1-3.34,1.8l-.2-.25-.59.5c-.9.26-1.9.5-3,.7" transform="translate(-4.75 0.5)" fill="#ab5b06"/><path d="M1314.48,1902.72l-6.35-8.27a8.66,8.66,0,0,0,3.34-1.81,13.93,13.93,0,0,0,.85-5.53l9.34,13.69h-6.87l-.31,1.92m-10.56-4.38-.19-1.48.63-.77c1.08-.2,2.08-.44,3-.7l-3.42,2.95" transform="translate(-4.75 0.5)" fill="#ac6c48"/><polyline points="1302.47 1923.56 1299.17 1898.84 1302.59 1895.89 1303.18 1895.38 1303.38 1895.64 1309.73 1903.92 1308.92 1908.91 1311.12 1910.66 1302.47 1923.56" fill="#afa9a0"/><polyline points="1311.12 1909.96 1308.92 1908.21 1309.73 1903.22 1310.04 1901.3 1316.91 1901.3 1311.12 1909.96" fill="#161213"/><path d="M1309.87,1894.43c-.1.94-12.77,49,11,75.74,2.14,3-3,132.76-3,132.76l-41.55,37.25a19.38,19.38,0,0,1-26.91,2.52L1226,2116.88s38.3-29.21,42.93-58.52-3.18-66-3.18-66-16.38-84.42-9.53-91.94c7-4.27,54.14-9.88,53.69-6Z" transform="translate(-4.75 0.5)" fill="#2e2669"/><path d="M1309.87,1894.43c-.1.94-12.77,49,11,75.74,2.14,3-3,132.76-3,132.76l-41.55,37.25a19.38,19.38,0,0,1-26.91,2.52s23.11,9.36,63.77-41.44c3.69-5.24-14.06-75.2,3.67-133.33-17.07-21.47-9.6-72.27-9.6-72.27s-21.44-1.28-51.08,4.77c7-4.27,54.14-9.88,53.69-6Z" transform="translate(-4.75 0.5)" fill="#1d184a"/><path d="M1349.38,1895.64a7,7,0,0,1-2-1.43l2,1.43h0" transform="translate(-4.75 0.5)" fill="#ab5b06"/><path d="M1329.84,1905.77l.77-5h-8.95l17.74-11.64c.86,3.33,2.13,6.42,3.63,7.56.44.33.9.66,1.39,1l-14.58,8.07" transform="translate(-4.75 0.5)" fill="#ac6c48"/><path d="M1344.42,1898.4c-.49-.33-1-.65-1.39-1-1.5-1.14-2.77-4.24-3.63-7.57l.92-.6,7,5a7,7,0,0,0,2,1.43l-5,2.76" transform="translate(-4.75 0.5)" fill="#975d3e"/><polyline points="1330.68 1924.8 1322.2 1910.76 1324.74 1909.24 1325.09 1906.97 1339.66 1898.9 1344.63 1896.14 1344.64 1896.14 1348.63 1898.95 1330.68 1924.8" fill="#afa9a0"/><polyline points="1322.2 1910.06 1316.91 1901.3 1325.86 1901.3 1325.09 1906.27 1324.74 1908.54 1322.2 1910.06" fill="#161213"/><path d="M1349.15,1895.51c-12.37,10.44,5,39.21-30.49,73.2-13.49,39.73-3.41,117.41-.78,134.22,8.47,7.67,20.33,22.19,33.49,32.54,10.79,8.5,22.66,15.08,34,7.36l38.18-25.92s-40.61-38.58-42.36-67.76c-2-13.85-1.53-27.79,2.24-39.9s13.17-22.45,20-42.33,4.77-47.86,4.13-53.07c-22.9-7.29-54.25-22.19-58.38-18.34Z" transform="translate(-4.75 0.5)" fill="#2e2669"/><path d="M1349.15,1895.51c-2.32,2-6.39,9.68-5.29,11-.15,1.91-.18,6-.18,6,2-2.78,4.58-7.16,8-10.16,6-5.8,35.21,7,42.59,13.61-1.6,23.81-13.9,29.48-19.13,48.73-.78,2.85.61,16.06,4.61,27.77-9.3,33.7-16.81,57.62-2.07,83.54,11.87,16.76,27.66,21.28,29.87,39,1.35,10.83-10.38,15.32-22.14,28l38.18-25.92s-40.61-38.58-42.36-67.76c-2-13.85-1.53-27.79,2.24-39.9s13.17-22.45,20-42.33,4.77-47.86,4.13-53.07c-22.9-7.29-54.25-22.19-58.38-18.34Z" transform="translate(-4.75 0.5)" fill="#1d184a"/><path d="M1324.9,2017.72a3.53,3.53,0,1,1-3.52-3.53,3.53,3.53,0,0,1,3.52,3.53Z" transform="translate(-4.75 0.5)" fill="#131010"/><path d="M1330.69,2079.44a3.53,3.53,0,1,1-3.53-3.53,3.54,3.54,0,0,1,3.53,3.53Z" transform="translate(-4.75 0.5)" fill="#131010"/><path d="M1278,1852.8l5.06-20.61c-3.54-20,1-40.49,28.48-49.59,5.81-1.79,44.7-5.36,49.17,39.78,3.74,37.79-40.26,54.63-53.53,58.9a5.72,5.72,0,0,1-6.55-2.32c-3.19-4.85-6.86-14.94-11.42-26.16Z" transform="translate(-4.75 0.5)" fill="#fcaf7f"/><path d="M1323.05,1818.89c-4-5.59-18.67-17.94-38.94-11-2.93-5.55-7.07-5.77-7.82-16.94s30.13-26.85,30.13-26.85-3.33,4-2.58,6.76c9.13-6,30.61-3.22,30.61-3.22s-4.08,3.22-3.22,4.83c9.23-3.54,28,2.9,28,2.9s-8.06,0-7.73,3.23c15.57,1.07,21.8,22.55,21.8,22.55s-3.44-2.36-6.34-1c-1.45.7,7,14.34,2.25,31.9s-22.55,39.14-20,41.56c-8.81.75-11-4.84-11-4.84s-4.2-47.94-6.94-47.7c-9.92,1.1-4.34,18.39-4.34,18.39l-6.77,1.39s-3-12,2.78-22Z" transform="translate(-4.75 0.5)" fill="#ff4200"/><path d="M1324.8,1774.67c-4-5.58-5.34-2.82-25.61,4.14-2.9-8.89-22.15,23.33-22.9,12.16s30.13-26.85,30.13-26.85-3.33,4-2.58,6.76c9.13-6,30.61-3.22,30.61-3.22s-4.08,3.22-3.22,4.83c9.23-3.54,28,2.9,28,2.9s-8.06,0-7.73,3.23c15.57,1.07,21.8,22.55,21.8,22.55s-3.44-2.36-6.34-1c-1.45.7,7,14.34,2.25,31.9s-22.55,39.14-20,41.56c-8.81.75-11-4.84-11-4.84s32.25-12,24-68.51c6.06-15.71-19-16.26-18.46-23.15.63-4.19-15.71,2.75-19-2.49Z" transform="translate(-4.75 0.5)" fill="#dd3201"/><path d="M1332.18,1842.21c6.3-.55,11-5.56,10.51-11.2s-6-9.78-12.27-9.23l1.76,20.43Z" transform="translate(-4.75 0.5)" fill="#fcaf7f"/><path d="M1288.54,2020.4c9-.47,31.39,15.46,31.39,15.46s76.78,6.65,82.45-4.7c-.91-12.72-22.83-56.5-22.83-56.5s20.33-67.88,27.89-59.37c16.08,12.56,10,25.88,17,49,12.3,40.72,25.85,91.79,18.92,96.92-10.88,8-119.62-5.68-119.62-5.68s-27.42,5.68-36.4,4.26-16.08-7.45-15.6-20.21,7.79-18.68,16.78-19.15Z" transform="translate(-4.75 0.5)" fill="#fcaf7f"/><path d="M1321.35,2048s106.26,10.43,111.93-.91c-.91-12.73-6.82-36.25-11.07-52-8.8-38.22-25.75-67.35-22.52-73.75,3-5.41,5.82-8.23,7.75-6,16.08,12.56,10,25.88,17,49,12.3,40.72,25.85,91.79,18.92,96.92-10.88,8-119.62-5.68-119.62-5.68s-27.42,5.68-36.4,4.26c-4.95-.78-9.33-3-12.18-6.9-2.32-3.21-3.64-7.58-3.42-13.31,15.6,20.21,49.59,8.47,49.59,8.47Z" transform="translate(-4.75 0.5)" fill="#e89c6b"/><polygon points="1329 2035.66 1316.49 2034.32 1315.82 2063.63 1327.1 2064.97 1329 2035.66 1329 2035.66" fill="#fff"/><polygon points="1328 2052.36 1316.99 2051.77 1316.72 2063.63 1328 2064.97 1328 2052.36 1328 2052.36" fill="#bcb6ad"/><path d="M1394.25,1915.87c-28.5,15.62-17.54,58.38-17.54,58.38s22.65,46.8,20,55.13-64.82,3.49-64.82,3.49l-2.14,35.4s118.06,7.64,126.13-3.12-32.27-113.49-32.27-113.49.8-48.13-29.32-35.79Z" transform="translate(-4.75 0.5)" fill="#2e2669"/><path d="M1394.25,1915.87c22.48,10.19,25.28,39.39,25.28,39.39s27.09,87.67,24.4,96-113.5,5.06-113.5,5.06l-.72,11.95s118.06,7.64,126.13-3.12-32.27-113.49-32.27-113.49.8-48.13-29.32-35.79Z" transform="translate(-4.75 0.5)" fill="#1d184a"/><polygon points="1341.65 1881.76 1316.91 1902 1330.68 1920.8 1350.64 1892.06 1341.65 1881.76 1341.65 1881.76" fill="#fff"/><polygon points="1316.91 1902 1302.94 1919.99 1300.63 1892.66 1307.45 1884.52 1316.91 1902 1316.91 1902" fill="#fff"/><path d="M1376.19,1813.11a4.74,4.74,0,1,1-4.74-4.74,4.74,4.74,0,0,1,4.74,4.74Z" transform="translate(-4.75 0.5)" fill="#c00700"/><polygon points="1360.06 1821.3 1276.8 1821.3 1276.8 1805.3 1358.84 1805.3 1360.06 1821.3 1360.06 1821.3" fill="#fd1616"/></svg>