<svg id="Layer_1" data-name="Layer 1" xmlns="http://www.w3.org/2000/svg" viewBox="0 0 1920 1080"><title>the_subtle_art</title><rect x="0.58" y="0.58" width="1918.85" height="1078.85" fill="#ff2f0d" stroke="#000" stroke-miterlimit="10" stroke-width="1.15"/><path d="M1250.83,558.87V761.7c0,93.43,0,102.78-49.22,150.65v37.38c0,24.52-27.88,52.55-65.62,52.55H856c-40.15,0-72.68-23.53-72.68-52.55V915.85c-27.58-12.83-113.57-58.38-113.57-153V727c0-47.22,22.09-75,70.92-91.39a13.56,13.56,0,0,1,1.48-.51l24.13-10.47V547.49c0-21.12,13-39.9,34.07-50.45s45.43-12.9,68.14-4.69c4.87,1.17,8.12,3.51,11.36,5.87V353.55c0-16.39,9.71-30.44,27.52-41s38.88-14.06,61.55-10.54c32.39,4.68,56.67,26.94,56.67,52.69v129.7c11.27-5.81,25.75-9.3,40.23-9.3,31.15,0,58.58,14.42,68,35.35a40.77,40.77,0,0,1,3.22,8.65c11.21-5.7,25.52-9.1,41.42-9.1,31.15,0,58.58,14.42,68,35.35a41.09,41.09,0,0,1,3.72,11A5.24,5.24,0,0,1,1250.83,558.87Z" transform="translate(0 0)" fill="#ffe100" stroke="#000" stroke-miterlimit="10" stroke-width="1.61"/><path d="M1250.14,556.34a41.09,41.09,0,0,0-3.72-11c-9.41-20.93-36.84-35.35-68-35.35-15.9,0-30.21,3.4-41.42,9.1a40.77,40.77,0,0,0-3.22-8.65c-9.4-20.93-36.83-35.35-68-35.35-14.48,0-29,3.49-40.23,9.3V354.72c0-25.75-24.28-48-56.67-52.69-22.67-3.52-43.72,0-61.55,10.54s-27.52,24.59-27.52,41V498.22c-3.24-2.36-6.49-4.7-11.36-5.87-22.71-8.21-47.05-5.86-68.14,4.69s-34.07,29.33-34.07,50.45v77.13l-24.13,10.47a13.56,13.56,0,0,0-1.48.51C691.83,652,669.74,679.77,669.74,727v35.88c0,94.6,86,140.15,113.57,153v33.88c0,29,32.53,52.55,72.68,52.55h280c37.74,0,65.62-28,65.62-52.55V912.35c49.22-47.87,49.22-57.22,49.22-150.65V558.87A5.24,5.24,0,0,0,1250.14,556.34Zm-224.56-28.18c0-17.72,20.71-31.37,45.92-29.2,20.41,1.73,35.47,14.65,35.47,29.5V657.32c0,14.84-15.06,27.76-35.47,29.5-25.21,2.16-45.92-11.48-45.92-29.19ZM798.45,547.24c0-13,8.14-24.72,21.16-31.78a39.81,39.81,0,0,1,19.53-4.71,40.29,40.29,0,0,1,13,2.36c16.27,5.88,27.67,20,27.67,32.95v11.79c-9.24,3.72-19.12,9.69-29.3,18.81-12.06,10.73-29.93,22.22-52.09,33.6Zm420.2,215.88c0,89.68,0,94-40.32,133.78h-24c-8.61,0-15.86,4.89-16.13,11.11-.34,7.27,6.17,12.15,16.07,12.15h17v29.66c0,16.06-18.17,29.19-40.37,29.19H855.86c-22.3,0-40.38-13.07-40.38-29.19v-24a227.54,227.54,0,0,0,51.92,6.37c13,0,27.58-1.17,38.94-4.68,24.34-5.85,42.19-19.88,53.54-37.42,3.24-5.85,0-12.87-8.12-15.21s-17.84,0-21.08,5.86c-8.12,11.69-19.48,19.87-35.7,24.55-27.69,7.76-61.23,1.85-85.38-5.76a21.74,21.74,0,0,0-2.24-1.26c-4.86-1.16-105.44-39.75-105.44-135.65V727.59c0-38.59,16.22-59.64,55.15-71.33a.94.94,0,0,1,.23-.63,15,15,0,0,0,1.4-.55c51.92-19.87,95.72-43.26,118.43-64.3,11.36-9.37,27.58-19.89,42.19-12.87,16.22,8.18,24.34,31.57,14.6,44.44C904.71,658.6,831.7,700.7,792.77,707.72c-8.12,1.16-13,8.18-11.36,14a20.57,20.57,0,0,0,16.22,8.18H801c21.28-4.4,50.43-16.63,78.84-32.73v12.89c0,6.21,6.76,11.45,15.37,11.66,10,.24,16.81-4.49,16.81-11.68V678c19.62-13.63,37-28.54,48.83-43.15,17.91-23.54,6.51-60-24.42-75.33A68.4,68.4,0,0,0,912,553V352.34c0-9.42,4.88-17.65,14.65-23.54s21.16-8.24,34.18-5.88c19.53,3.53,32.56,16.47,32.56,30.6V657.26c0,31.53,35.66,56.13,79.11,53.29,28.43-1.86,51.94-15.43,61.31-34.06,12.27,6.9,27.71,11,44.6,11a93.13,93.13,0,0,0,40.22-8.72Zm0-129.39c0,14.85-15.07,27.76-35.47,29.51-25.21,2.16-45.92-11.48-45.92-29.2V563.42c0-16.48,17.9-29.43,40.69-29.43,1.35,0,2.67.06,4,.14a52.19,52.19,0,0,1,20.23,5.54c.4.21.82.41,1.19.65l1.06.61c8.75,5.37,14.24,13.39,14.24,22.49Z" transform="translate(0 0)"/><path d="M1192.32,300.88c0,92.77-104,168-232.32,168s-232.32-75.21-232.32-168,104-168,232.32-168S1192.32,208.11,1192.32,300.88Z" transform="translate(0 0)" fill="#ffe100"/><path d="M959.82,477.6q-12.06,0-24.13-.87c-56-4-108.69-22.09-148.52-50.88-95.29-68.91-95.29-181,0-249.93s250.36-68.9,345.66,0c39.86,28.83,64.86,67,70.39,107.5,5.46,39.93-8.12,80.34-38.24,113.78-3.65,4.05-11.14,5.2-16.74,2.56s-7.19-8.06-3.54-12.11c56.39-62.6,44.2-146.44-29-199.36-85.87-62.08-225.57-62.08-311.43,0s-85.86,163.1,0,225.18c73.07,52.84,188.93,61.71,275.47,21.08,5.6-2.63,13.1-1.48,16.74,2.57s2,9.47-3.56,12.1C1053.44,467.77,1006.92,477.6,959.82,477.6Z" transform="translate(0 0)"/><path d="M1123.91,428.66a14.69,14.69,0,0,1-8.57-2.57c-4.72-3.43-4.7-9,0-12.37l.36-.26a15.55,15.55,0,0,1,17.11,0c4.71,3.43,4.7,9,0,12.37l-.35.26A14.74,14.74,0,0,1,1123.91,428.66Z" transform="translate(0 0)"/><path d="M904.08,277.35c-6.68,0-12.1-3.91-12.1-8.75,0-3-3.4-5.48-7.58-5.48s-7.58,2.46-7.58,5.48c0,4.84-5.42,8.75-12.1,8.75s-12.1-3.91-12.1-8.75c0-12.67,14.25-23,31.78-23s31.78,10.3,31.78,23C916.18,273.44,910.76,277.35,904.08,277.35Z" transform="translate(0 0)"/><path d="M1061.84,277.35c-6.69,0-12.1-3.91-12.1-8.75,0-3-3.4-5.48-7.58-5.48s-7.58,2.46-7.58,5.48c0,4.84-5.42,8.75-12.1,8.75s-12.1-3.91-12.1-8.75c0-12.67,14.25-23,31.78-23s31.78,10.3,31.78,23C1073.94,273.44,1068.52,277.35,1061.84,277.35Z" transform="translate(0 0)"/><path d="M963.28,389.56c-38.09,0-69.07-22.4-69.07-49.94,0-4.83,5.41-8.75,12.1-8.75s12.1,3.92,12.1,8.75c0,17.89,20.13,32.44,44.87,32.44s44.87-14.55,44.87-32.44c0-4.83,5.42-8.75,12.1-8.75s12.1,3.92,12.1,8.75C1032.35,367.16,1001.37,389.56,963.28,389.56Z" transform="translate(0 0)"/><path d="M1197.52,97.48V85.94c0-4.39,4.3-8.31,10.3-8.93,7.48-.78,13.9,3.4,13.9,8.65V97.75c0,5.26-6.42,9.43-13.9,8.65C1201.82,105.78,1197.52,101.86,1197.52,97.48Z" transform="translate(0 0)"/><path d="M1197.52,155.38V143.84c0-4.38,4.3-8.3,10.3-8.93,7.48-.77,13.9,3.4,13.9,8.66v12.08c0,5.26-6.42,9.44-13.9,8.66C1201.82,163.69,1197.52,159.77,1197.52,155.38Z" transform="translate(0 0)"/><path d="M1257.65,129.54h-16.33c-6.07,0-11.49-3.11-12.35-7.45-1.07-5.41,4.7-10,12-10h16.34c6.06,0,11.48,3.11,12.35,7.45C1270.7,124.9,1264.93,129.54,1257.65,129.54Z" transform="translate(0 0)"/><path d="M1177.57,129.54h-16.34c-6.06,0-11.48-3.11-12.34-7.45-1.08-5.41,4.69-10,12-10h16.33c6.07,0,11.49,3.11,12.35,7.45C1190.61,124.9,1184.84,129.54,1177.57,129.54Z" transform="translate(0 0)"/><path d="M699,457.92V446.38c0-4.38,4.3-8.3,10.3-8.92,7.48-.78,13.9,3.39,13.9,8.65v12.08c0,5.26-6.42,9.44-13.9,8.66C703.31,466.23,699,462.31,699,457.92Z" transform="translate(0 0)"/><path d="M699,515.83V504.29c0-4.39,4.3-8.31,10.3-8.93,7.48-.78,13.9,3.4,13.9,8.66V516.1c0,5.26-6.42,9.43-13.9,8.66C703.31,524.13,699,520.21,699,515.83Z" transform="translate(0 0)"/><path d="M759.14,490H742.81c-6.07,0-11.49-3.11-12.35-7.45-1.07-5.41,4.7-10,12-10h16.34c6.06,0,11.48,3.11,12.34,7.45C772.19,485.35,766.42,490,759.14,490Z" transform="translate(0 0)"/><path d="M679.06,490H662.72c-6.06,0-11.48-3.11-12.35-7.45-1.07-5.41,4.7-10,12-10h16.33c6.07,0,11.49,3.11,12.35,7.45C692.1,485.35,686.33,490,679.06,490Z" transform="translate(0 0)"/></svg>