<svg id="Layer_1" data-name="Layer 1" xmlns="http://www.w3.org/2000/svg" xmlns:xlink="http://www.w3.org/1999/xlink" viewBox="0 0 1600 2560"><defs><clipPath id="clip-path" transform="translate(0)"><rect y="1280" width="1600" height="1280" fill="none"/></clipPath><clipPath id="clip-path-7" transform="translate(0)"><rect x="1107.2" y="2150.4" width="249.6" height="115.2" fill="none"/></clipPath><clipPath id="clip-path-8" transform="translate(0)"><rect x="624" y="1932.8" width="67.2" height="30.72" fill="none"/></clipPath><clipPath id="clip-path-11" transform="translate(0)"><rect x="1200" y="1858.56" width="22.4" height="35.84" fill="none"/></clipPath></defs><title>the_new_market_conundrum</title><rect width="1600" height="2560" fill="#27debf"/><g clip-path="url(#clip-path)"><g clip-path="url(#clip-path)"><g clip-path="url(#clip-path)"><path d="M258.27,2323.23c297,152.48,778.61,152.48,1075.63,0s297-399.7,0-552.18-778.6-152.48-1075.63,0-297,399.69,0,552.17" transform="translate(0)" fill="#f5f5f5"/></g><g clip-path="url(#clip-path)"><path d="M1404,2170.56l-14.83-6.78s-7.11-31.34-1.79-58.28c7.48-37.88,39.72-50.94,51.42-47.18s14.46,15-6.68,36.87c-12.48,12.92-28.52,40.21-28.12,75.37" transform="translate(0)" fill="#37474f"/><path d="M1398.63,2155.51h.15c.58-.07,1-.5.9-1-6.12-35.46,11.7-74.31,31.73-90a.73.73,0,0,0,0-1.2,1.26,1.26,0,0,0-1.5,0c-20.39,15.94-38.56,55.43-32.34,91.41a1,1,0,0,0,1,.73" transform="translate(0)" fill="#fff"/><path d="M1445.13,2189.56c2.34,1.08,7.17-1.27,9-2.26a19.76,19.76,0,0,0,7.43-6.83,13.79,13.79,0,0,0,1.86-10.07,32.7,32.7,0,0,0-1.59-5.35l-1.86-5.19a10.74,10.74,0,0,1-1-5.24c.57-3.55,4.51-6,8.1-8.19,4-2.37,8.08-5.51,8.06-9.78,0-3.3-2.15-6.37-4.71-9s-5.59-4.88-7.9-7.61c-1.66-2-3-4.28-2.69-6.64a9.62,9.62,0,0,1,1.81-4.16c1.89-2.78,4.38-5.33,5.68-8.32s1.12-6.72-1.8-8.86c-2.4-1.75-6-2-9.2-1.83a24.88,24.88,0,0,0-8.55,2.41c-8.49,3.78-13.33,11.82-22.34,14.73-3.48,1.11-7.28,1.36-10.9,2.13s-7.32,2.24-9,4.92c-3.31,5.28,2.83,11.79.5,17.4-2,5-8.08,6.86-11.47,11.33a8.86,8.86,0,0,0-1.58,6.5,26.36,26.36,0,0,0,3.42,11c1.92,3.54,7.53,9.89,7.53,9.89s40.77,18.84,41.13,19" transform="translate(0)" fill="#455a64"/><path d="M1420.8,2178.56h.3a1,1,0,0,0,1-.88c-1.75-33.57,18-70.62,32.39-81.39a.73.73,0,0,0,.06-1.19,1.26,1.26,0,0,0-1.5,0c-14.66,11-34.84,48.65-33.07,82.69a1,1,0,0,0,1.06.81" transform="translate(0)" fill="#fff"/><path d="M1427.36,2139.65a1.15,1.15,0,0,0,.31,0c13.48-3.33,30.28-3.92,30.44-3.92a.87.87,0,1,0-.08-1.69c-.17,0-17.24.6-31,4a.83.83,0,0,0-.69,1.06,1.05,1.05,0,0,0,1,.59" transform="translate(0)" fill="#fff"/></g><polygon points="413.9 1800.93 342.92 1833.72 1182.87 2254.46 1324.83 2188.89 413.9 1800.93" fill="#27debf"/><polygon points="307.42 1784.52 295.6 1855.55 461.22 1779.05 307.42 1784.52" fill="#27debf"/><g clip-path="url(#clip-path)"><path d="M1230.18,2232.59l-106.47,49.19-112.39-51.91c-115-53.12-259.94-89.4-419.1-104.9a1805.11,1805.11,0,0,0-354.94,1l-19.51-38.67,72.62-9c129.47-16,267.24-17.75,398.42-5,162.91,15.87,311.26,53,429,107.37Z" transform="translate(0)" fill="#27debf"/><polygon points="197.55 2052.28 262.6 2164.42 131.36 2120.72 197.55 2052.28" fill="#27debf"/><path d="M1384,2161.57l-106.47,49.18-112.4-51.92C1047.39,2104.46,967,2035.94,932.65,1960.7c-27.65-60.58-23.94-124.21,10.77-184l19.45-33.53,92.11-6.84c-33.89,58.43-37.53,120.6-10.51,179.78,33.57,73.51,112.1,140.45,227.11,193.58Z" transform="translate(0)" fill="#27debf"/><polygon points="878.21 1741.09 1120.97 1771.14 1026.37 1710.52 878.21 1741.09" fill="#27debf"/><polygon points="1088.22 2265.39 1206.53 2320.03 1466.79 2199.82 1348.48 2145.17 1088.22 2265.39" fill="#27debf"/></g><g clip-path="url(#clip-path)"><g opacity="0.1"><g clip-path="url(#clip-path-7)"><path d="M1321.65,2166.25c48.7,22.5,48.7,59,0,81.46s-127.65,22.49-176.34,0-48.7-59,0-81.46,127.64-22.49,176.34,0" transform="translate(0)"/></g></g><g opacity="0.1"><g clip-path="url(#clip-path-8)"><path d="M681.2,1937.48c13.08,6,13.08,15.84,0,21.88s-34.3,6.05-47.38,0-13.08-15.84,0-21.88,34.29-6,47.38,0" transform="translate(0)"/></g></g></g><g clip-path="url(#clip-path)"><path d="M700.28,1713.23h0l-29.82-13.75c-7.11-3.3-17.23-2.55-30.3,3.48-28.62,13.22-43.18,38.15-43.18,61.72,0,12.49,4.11,21.7,12.23,25.65l29.8,13.83c7.17,3.45,17.46,2.77,30.83-3.41,28.61-13.22,42.68-38.45,42.68-62,0-12.55-4.12-21.69-12.24-25.5" transform="translate(0)" fill="#37474f"/><path d="M771.52,1392.89l-30.51-14c-21.57-9.88-53-7.51-92.61,10.81C576.68,1422.78,527.19,1486,512,1552.83l29.85,13.79,79.8-14.23c9.09-27.9,22.72-47.66,54-62.13a83.69,83.69,0,0,1,12.7-4.76,39.67,39.67,0,0,1,.88,8.62c0,21.55-18.18,46.11-90.9,103.94v91.58l29.85,13.78L713.6,1664v-50.63c42.43-36.3,90.91-90.47,90.91-156.73,0-31.18-11.48-53.63-33-63.75" transform="translate(0)" fill="#37474f"/><path d="M627.2,1612.8c73.62-58.54,92-83.4,92-105.21,0-19.09-10.73-33.22-44-17.87-31.7,14.64-45.51,34.65-54.71,62.89L539.77,1567c15.34-67.62,65.44-131.66,138.05-165.19,80.77-37.31,127.81-9.41,127.81,53.85,0,67.07-49.08,121.92-92,158.66v51.26l-86.4,39.91Z" transform="translate(0)" fill="#455a64"/><path d="M626.66,1778.39c0-23.57,14.56-48.5,43.18-61.72,28.12-13,42.68-1.5,42.68,22.06s-14.06,48.8-42.68,62-43.18,1.2-43.18-22.36" transform="translate(0)" fill="#455a64"/><path d="M718,1508.08c0,21.42-18.08,45.82-90.38,103.34L598,1597.71c72.3-57.51,90.34-81.92,90.34-103.34a40.42,40.42,0,0,0-.84-8.56c22.8-6.28,30.54,6.19,30.54,22.27" transform="translate(0)" fill="#263238"/></g><g clip-path="url(#clip-path)"><path d="M1282.26,1807.7c12.56-2.38,26.38,4.77,34.47,20.55s24.26,56,27.63,66.59c1.5,4.73-43.31,46.54-41.7,45.91.48-.19-14.61-20.39-14.61-20.39l21.75-26.78-13.62-29.07Z" transform="translate(0)" fill="#ffa8a7"/><path d="M1311.22,2181.82c1.71.52,2.14,3.11,2.39,8.27.2,3.91,1.25,10.72-4.47,12.08s-14.09.67-17.75-3c-4.58-4.59-7.67-8.63-14.19-14.23-5.66-4.86-11.78-9.4-14.07-16.22-2.06-6.16-.34-8.83,4.91-10.62,7.23-2.47,18.58,5.58,24.24,6.85,4.87,1.09,17.24,16.38,18.94,16.89" transform="translate(0)" fill="#263238"/><path d="M1312,2177v6.34s-8.23,5.06-20,.43c-.35-.61-2.08-12.83-2.08-12.83Z" transform="translate(0)" fill="#ffa8a7"/><path d="M1252.31,2215.48a90.6,90.6,0,0,1,3.49,10.33c1,3.83,2.37,10.23.69,13.11s-8.22,4.74-18.35,4.68c-6.57,0-16.8,3.53-23.81,6.65-7.23,3.23-15.08,3.24-22.74,2.53-9-.85-18.36-5-19.82-8s.42-4.43,21.67-11.67c.2-.07,22.42-8.1,32.7-17.18Z" transform="translate(0)" fill="#263238"/><path d="M1251.76,2208.63s0,4.71,0,7.39-3.93,6.69-14.2,6.4c-7.21-.21-12.24-1.76-12-6.51v-6.85Z" transform="translate(0)" fill="#ffa8a7"/><path d="M1319,2089.23c-3.62-20.7-9.67-32.58-9.67-32.58s4.47-28,7.06-55c4.65-48.24.92-64-10.94-85.66,0,0-101.21-8.21-104.3,25.44-3.85,41.91,1.25,122.89,2.64,137.69s3.12,21.48,9.66,52.41c5,23.54,12.67,77.49,12.67,77.49,13.43,5.81,26.16-.43,26.16-.43s8.28-67.37,7.41-84.45a120.67,120.67,0,0,0-8.09-37.29s6.27-68.29,8.1-79.16c0,0,3.16,21.66,4.55,36.47s6.89,28.94,12.24,56.44c4.64,23.85,13.27,77.17,13.27,77.17,13.43,5.81,22-.64,22-.64s10.86-67.24,7.23-87.94" transform="translate(0)" fill="#37474f"/><polygon points="1230.42 1796.8 1235.17 1828.09 1269.56 1825.6 1265.63 1790.88 1230.42 1796.8" fill="#ffa8a7"/><path d="M1307.29,1823.37c-3.78-8.23-16.63-17.39-29.85-15.43-3.45.52-6.48.92-9.71,1.44-.31,7.21-17.28,10.94-34.21,6.57q-7.62,1.74-14,3.56c-12.1,3.46-17,19.54-17.23,46.45s-3.85,94-3.85,94l14.15,3.56,6.61-19.63,2.66,23.52c15.32,3.08,31.4,2.86,48.87-.19,36.36-6.36,47.69-22.06,47.69-22.06s-4.48-24.35-25.94-50.86c18.23-38.78,20.39-58.71,14.78-70.93" transform="translate(0)" fill="#27debf"/><g opacity="0.2"><g clip-path="url(#clip-path-11)"><polygon points="1202.03 1879.37 1223.43 1859.89 1201.49 1894.92 1202.03 1879.37"/></g></g><path d="M1226.26,1817.6s-21,1.32-30,12.23-44.24,51.25-44.24,51.25-56.09-22.45-58.85-25.11-1.21-8-.44-11,2-9.54,2.83-11.39c1.45-3.23-4.52-2.36-8,.66s-5.08,8.91-6.83,9.92-15.1-11.26-21.58-17.18-9.51-10.07-13.85-7.63c-3.13,1.76-1.12,5.28,3.52,10.36s5.32,5.62,6,6.72c.56.91-1.16,1.63-1.84,2.12-1.25.9-3.49,2.37-3.64,3.78a9.79,9.79,0,0,1-.18,2.3c-.61,1.69-3.22,2.48-4,4.14-.53,1.2.06,2.54-.24,3.78-.19.81-.75,1.53-.93,2.34-.35,1.58.78,3.13,2.08,4.36,4.54,4.33,10.77,6,16.73,8.63,5,2.19,10.07,3.15,15.79,5.18s73.12,43.39,83.6,38.76,63.09-53.62,63.09-53.62c17.87-22.78,1-40.59,1-40.59" transform="translate(0)" fill="#ffa8a7"/><path d="M1211.1,1758.23s-13.43-12.12-3.64-24.43c11.55-14.5,33.8-17,60.17-11.31,13.07,2.8,31.34,13.91,33,34,1.26,15.47-52.67,26.88-51.43,37.48Z" transform="translate(0)" fill="#263238"/><path d="M1203.71,1762.93s-7.32,9.39-6.29,10.35,5.91,1.89,5.91,1.89Z" transform="translate(0)" fill="#f28f8f"/><path d="M1226,1733.2c-7.31,3.23-19.93,9.17-22.49,31.09-2.63,22.5,3.88,30.16,7.8,33,2.65,1.93,16,2.36,22.87.49,8.61-2.35,27.19-10.2,35.63-22,9.92-13.85,11.45-32-.77-38.91-17.21-9.65-36.85-6.46-43-3.73" transform="translate(0)" fill="#ffa8a7"/><path d="M1223.87,1734.19s-5.77,20.6,2.41,33.36c0,0,4.26-8.08,12.92-6s8.23,11.35,1.6,16.2a15.42,15.42,0,0,1-13.32,2.57,46.2,46.2,0,0,0,12.86,15.54s25.63,9.14,47.83-10.9c20.14-18.19,16.39-49.9-14.45-57.38s-49.85,6.58-49.85,6.58" transform="translate(0)" fill="#263238"/><path d="M1228.8,1780.33v28.41l41.84-4.58c18.2-2,31.76-14.43,31.76-29.12v-18.75l-33,16.93-15.62,11.06-15.82-1Z" transform="translate(0)" fill="#263238"/><path d="M1203.88,1725.41c-11.07,9.52-10.81,36.28,22.4,42.14l20-47.83c-12.79-6.26-32.5-2.79-42.39,5.69" transform="translate(0)" fill="#263238"/><path d="M1223.2,1775c-3.42-.91-5.27-3.86-4.14-6.6s4.82-4.22,8.24-3.31Z" transform="translate(0)" fill="#263238"/><path d="M1259.72,2007.73l1.92-16.36a90.73,90.73,0,0,0,30.87-9.35s-6.57,8.43-24.61,12.27l-1.88,20.82-1.12,34.12Z" transform="translate(0)" fill="#263238"/></g></g></g><path d="M224.38,269.07h-34V251.5h88.85v17.57h-34V369.21H224.38Z" transform="translate(0)"/><path d="M297.1,242.07h20.74V275L317,292c7.42-7,16.2-13.39,28.3-13.39,18.93,0,27.21,12.82,27.21,35.14v55.43H351.75V316.44c0-14.54-4.18-20-13.75-20-7.78,0-12.89,3.81-20.16,11v61.77H297.1Z" transform="translate(0)"/><path d="M391.71,325.08c0-28.73,19.94-46.44,40.75-46.44,23.9,0,36.5,17.28,36.5,42a53.55,53.55,0,0,1-.9,10.08H411.94c1.73,15.69,11.81,24.62,26.06,24.62,7.56,0,14-2.38,20.52-6.41l7.06,12.89a54.84,54.84,0,0,1-30.31,9.57C410.86,371.37,391.71,354.24,391.71,325.08Zm59.33-8.5c0-13.6-6.05-21.88-18.15-21.88-10.29,0-19.36,7.7-21.16,21.88Z" transform="translate(0)"/><path d="M526.6,251.5h21.46l36.57,66.16,12.17,25.13h.72c-1-12.17-2.67-27.07-2.67-40.17V251.5h19.87V369.21H593.27l-36.58-66.27-12.16-25h-.72c1,12.46,2.66,26.64,2.66,39.74v51.55H526.6Z" transform="translate(0)"/><path d="M637.05,325.08c0-28.73,19.94-46.44,40.75-46.44,23.9,0,36.5,17.28,36.5,42a53.55,53.55,0,0,1-.9,10.08H657.28c1.73,15.69,11.8,24.62,26.06,24.62,7.56,0,14-2.38,20.52-6.41l7.06,12.89a54.87,54.87,0,0,1-30.32,9.57C656.2,371.37,637.05,354.24,637.05,325.08Zm59.32-8.5c0-13.6-6-21.88-18.14-21.88-10.3,0-19.37,7.7-21.17,21.88Z" transform="translate(0)"/><path d="M725.28,280.8h20.81l10.72,45.86c1.73,8.57,3,16.85,4.61,25.49h.72c1.73-8.64,3.46-17.13,5.62-25.49l11.59-45.86h18.79L810,326.66c2.16,8.57,3.89,16.85,5.83,25.49h.72c1.73-8.64,3-16.92,4.75-25.49l10.59-45.86H851.2l-22.39,88.41H804.19L793.82,328c-1.87-8.28-3.45-16.42-5.33-25.67h-.72c-1.72,9.25-3.24,17.53-5.25,25.81l-10,41.11h-23.9Z" transform="translate(0)"/><path d="M906.57,251.5h23.62L951,309c2.6,7.49,5,15.41,7.56,23.12h.72c2.6-7.71,4.83-15.63,7.42-23.12l20.37-57.52h23.62V369.21H991.53V315.36c0-10.87,1.65-26.53,2.66-37.44h-.72L984,305.28,964.6,358.16H952.22l-19.44-52.88-9.36-27.36h-.72c1,10.91,2.66,26.57,2.66,37.44v53.85H906.57Z" transform="translate(0)"/><path d="M1034.12,345.46c0-18.94,15.69-28.8,52-32.69-.29-9.5-4.1-17.42-16-17.42-8.79,0-17.07,4-24.84,8.71l-7.63-13.83c9.71-6.12,22.24-11.59,36.28-11.59,22.1,0,33,13.61,33,38.23v52.34h-17l-1.58-9.79h-.58c-7.92,6.77-17,11.95-27.43,11.95C1044.77,371.37,1034.12,360.86,1034.12,345.46Zm52,.07V325.66c-24,3-32,9.28-32,18.21,0,7.81,5.33,11.23,12.75,11.23C1074.08,355.1,1079.55,351.58,1086.1,345.53Z" transform="translate(0)"/><path d="M1131.75,280.8h17l1.59,15.77h.57c6.3-11.52,15.66-17.93,25.13-17.93,4.5,0,7.34.58,10,1.8l-3.6,18a30.1,30.1,0,0,0-9.08-1.44c-7,0-15.55,4.83-20.87,18.29v53.92h-20.74Z" transform="translate(0)"/><path d="M1198.89,242.07h20.3v79.41h.58l32.76-40.68h22.67l-30.31,36,33.41,52.41h-22.54L1233,330.84l-13.82,15.91v22.46h-20.3Z" transform="translate(0)"/><path d="M1282.88,325.08c0-28.73,19.94-46.44,40.75-46.44,23.9,0,36.5,17.28,36.5,42a53.55,53.55,0,0,1-.9,10.08h-56.12c1.72,15.69,11.8,24.62,26.06,24.62,7.56,0,14-2.38,20.52-6.41l7,12.89a54.82,54.82,0,0,1-30.31,9.57C1302,371.37,1282.88,354.24,1282.88,325.08Zm59.32-8.5c0-13.6-6-21.88-18.14-21.88-10.3,0-19.37,7.7-21.17,21.88Z" transform="translate(0)"/><path d="M1381.26,339.41V297.29h-12.6V281.74l13.68-.94,2.45-24.12H1402V280.8h22.53v16.49H1402v42.08c0,10.4,4,15.52,12.52,15.52a27.67,27.67,0,0,0,9.22-2l3.53,15.26a57.21,57.21,0,0,1-18.07,3.24C1388.82,371.37,1381.26,358.49,1381.26,339.41Z" transform="translate(0)"/><path d="M354.27,526.75c0-38.52,24.12-61.41,53.92-61.41a46.81,46.81,0,0,1,33.91,14.9l-11.16,13.47c-6-6-13.1-10.23-22.32-10.23-19.15,0-32.9,16.2-32.9,42.62,0,26.86,12.67,43.13,32.4,43.13,10.44,0,18.5-4.82,25.13-12.09l11.16,13.1c-9.54,11.09-21.82,17.13-37.08,17.13C377.74,587.37,354.27,565.7,354.27,526.75Z" transform="translate(0)"/><path d="M456.5,541.08c0-29.45,20-46.44,42.05-46.44s42.05,17,42.05,46.44c0,29.3-20,46.29-42.05,46.29S456.5,570.38,456.5,541.08Zm62.79,0c0-17.71-7.78-29.52-20.74-29.52s-20.73,11.81-20.73,29.52,7.77,29.38,20.73,29.38S519.29,558.79,519.29,541.08Z" transform="translate(0)"/><path d="M561.16,496.8h17l1.58,11.95h.58c7.92-7.7,16.92-14.11,29-14.11,18.94,0,27.22,12.82,27.22,35.14v55.43H615.8V532.44c0-14.54-4.17-20-13.75-20-7.78,0-12.89,3.81-20.16,11v61.77H561.16Z" transform="translate(0)"/><path d="M661,552.24V496.8h20.73v52.78c0,14.54,4.18,20,13.75,20,7.78,0,12.89-3.6,19.59-12.24V496.8h20.73v88.41h-17l-1.58-13h-.58c-7.77,9.22-16.34,15.19-28.44,15.19C669.23,587.37,661,574.56,661,552.24Z" transform="translate(0)"/><path d="M762,496.8h17l1.58,11.95h.58c7.92-7.7,16.92-14.11,29-14.11,18.94,0,27.22,12.82,27.22,35.14v55.43H816.68V532.44c0-14.54-4.17-20-13.75-20-7.78,0-12.89,3.81-20.16,11v61.77H762Z" transform="translate(0)"/><path d="M857.44,541.08c0-28.8,18.07-46.44,37.43-46.44,10,0,16.35,3.75,23.19,9.72l-.79-14.25v-32H938V585.21H921l-1.59-9.57h-.57c-6.55,6.55-15.62,11.73-25.13,11.73C871.69,587.37,857.44,570.24,857.44,541.08Zm59.83,19.22V519.12c-6-5.4-12-7.34-18-7.34-11.23,0-20.52,10.65-20.52,29.08,0,19.23,7.34,29.38,20.08,29.38C905.67,570.24,911.43,567.21,917.27,560.3Z" transform="translate(0)"/><path d="M964.36,496.8h17l1.58,15.77h.58c6.3-11.52,15.66-17.93,25.12-17.93,4.5,0,7.35.58,10,1.8l-3.6,18A30,30,0,0,0,1006,513c-7.06,0-15.55,4.83-20.88,18.29v53.92H964.36Z" transform="translate(0)"/><path d="M1030.48,552.24V496.8h20.74v52.78c0,14.54,4.18,20,13.75,20,7.78,0,12.89-3.6,19.58-12.24V496.8h20.74v88.41h-17l-1.59-13h-.57c-7.78,9.22-16.35,15.19-28.44,15.19C1038.76,587.37,1030.48,574.56,1030.48,552.24Z" transform="translate(0)"/><path d="M1131.57,496.8h17l1.59,12.06h.57c7.49-7.81,16.06-14.22,27.15-14.22,13,0,20.34,5.91,24.4,15.84,8.46-9,17.21-15.84,28.44-15.84,18.65,0,27.29,12.82,27.29,35.14v55.43h-20.74V532.44c0-14.54-4.32-20-13.6-20-5.62,0-11.67,3.6-18.51,11v61.77h-20.73V532.44c0-14.54-4.32-20-13.61-20-5.47,0-11.66,3.6-18.5,11v61.77h-20.74Z" transform="translate(0)"/><path d="M179.94,751.18c0-31.68,8.78-57.6,23.76-82l13,5.62c-13.54,23.11-19.8,50-19.8,76.39s6.26,53.27,19.8,76.39l-13,5.61C188.72,808.77,179.94,782.85,179.94,751.18Z" transform="translate(0)"/><path d="M239.41,683.5h20.88v47.3h47.59V683.5h20.88V801.21H307.88V749H260.29v52.19H239.41Z" transform="translate(0)"/><path d="M358.75,683.5H396.4c24.19,0,42,7.42,42,29,0,11.09-6.05,21.89-16.35,25.49v.72c13,2.95,22.61,12,22.61,27.94,0,23.54-19.29,34.55-45.21,34.55H358.75Zm35.78,48.6c16.42,0,23.4-6.41,23.4-16.63,0-11.38-7.7-15.7-23-15.7H379.63V732.1Zm2.74,52.84c17.28,0,26.92-6.19,26.92-19.44,0-12.38-9.36-17.78-26.92-17.78H379.63v37.22Z" transform="translate(0)"/><path d="M466.21,683.5h39.67c24.47,0,43.34,8.64,43.34,34.92,0,25.3-18.87,36.79-43.34,36.79h-18.8v46H466.21Zm37.51,55c16.12,0,24.91-6.69,24.91-20.08s-8.79-18.22-24.91-18.22H487.08v38.3ZM502,749.63l15.12-12.46,36.76,64H530.35Z" transform="translate(0)"/><path d="M608.76,683.5h23.62L653.19,741c2.59,7.49,5,15.41,7.56,23.12h.72c2.59-7.71,4.82-15.63,7.41-23.12l20.38-57.52h23.61V801.21H693.72V747.36c0-10.87,1.66-26.53,2.66-37.44h-.72l-9.5,27.36-19.37,52.88H654.41L635,737.28l-9.36-27.36h-.72c1,10.91,2.66,26.57,2.66,37.44v53.85H608.76Z" transform="translate(0)"/><path d="M740.05,768.24V712.8h20.74v52.78c0,14.54,4.18,20,13.75,20,7.78,0,12.89-3.6,19.58-12.24V712.8h20.74v88.41h-17l-1.59-13h-.57c-7.78,9.22-16.34,15.19-28.44,15.19C748.33,803.37,740.05,790.56,740.05,768.24Z" transform="translate(0)"/><path d="M832.36,791.06,842,777.89c7.84,6.12,15.44,9.86,24.4,9.86,9.65,0,14.19-4.54,14.19-10.58,0-7.42-9.58-10.73-19-14.33-11.59-4.36-24.84-11-24.84-25.78,0-15.33,12.38-26.42,32.18-26.42,12.32,0,22.18,5,29.38,10.59L888.8,734c-6.19-4.54-12.42-7.7-19.36-7.7-8.89,0-13.11,4.24-13.11,9.79,0,7,8.93,9.64,18.51,13.17,11.95,4.47,25.34,10.23,25.34,26.71,0,15.19-12,27.43-34.34,27.43C853.74,803.37,841,798.19,832.36,791.06Z" transform="translate(0)"/><path d="M918.22,771.41V729.29h-12.6V713.74l13.68-.94,2.45-24.12H939V712.8h22.53v16.49H939v42.08c0,10.4,4,15.52,12.52,15.52a27.67,27.67,0,0,0,9.22-2l3.53,15.26a57.21,57.21,0,0,1-18.07,3.24C925.78,803.37,918.22,790.49,918.22,771.41Z" transform="translate(0)"/><path d="M1017.9,683.5h39.67c24.48,0,43.35,8.64,43.35,34.92,0,25.3-18.87,36.79-43.35,36.79h-18.79v46H1017.9Zm37.51,55c16.13,0,24.91-6.69,24.91-20.08s-8.78-18.22-24.91-18.22h-16.63v38.3Zm-1.76,11.13,15.12-12.46,36.75,64h-23.47Z" transform="translate(0)"/><path d="M1115,757.08c0-28.73,19.94-46.44,40.75-46.44,23.9,0,36.5,17.28,36.5,42a53.55,53.55,0,0,1-.9,10.08h-56.12c1.73,15.69,11.81,24.62,26.06,24.62,7.56,0,14-2.38,20.52-6.41l7.06,12.89a54.84,54.84,0,0,1-30.31,9.57C1134.18,803.37,1115,786.24,1115,757.08Zm59.33-8.5c0-13.6-6-21.88-18.15-21.88-10.29,0-19.36,7.7-21.16,21.88Z" transform="translate(0)"/><path d="M1205.21,777.46c0-18.94,15.7-28.8,52-32.69-.29-9.5-4.1-17.42-16-17.42-8.79,0-17.07,4-24.84,8.71l-7.63-13.83c9.72-6.12,22.24-11.59,36.28-11.59,22.11,0,33,13.61,33,38.23v52.34h-17l-1.59-9.79h-.57c-7.92,6.77-17,12-27.44,12C1215.87,803.37,1205.21,792.86,1205.21,777.46Zm52,.07V757.66c-24,3-32,9.28-32,18.21,0,7.81,5.33,11.23,12.75,11.23C1245.17,787.1,1250.64,783.58,1257.19,777.53Z" transform="translate(0)"/><path d="M1297.44,757.08c0-28.8,18.07-46.44,37.44-46.44,10,0,16.34,3.75,23.18,9.72l-.79-14.25v-32H1378V801.21h-17l-1.58-9.57h-.58c-6.55,6.55-15.62,11.73-25.12,11.73C1311.7,803.37,1297.44,786.24,1297.44,757.08Zm59.83,19.22V735.12c-6-5.4-12-7.34-18-7.34-11.23,0-20.52,10.65-20.52,29.08,0,19.23,7.35,29.38,20.09,29.38C1345.68,786.24,1351.44,783.21,1357.27,776.3Z" transform="translate(0)"/><path d="M1399,827.57c13.54-23.12,19.8-50,19.8-76.39s-6.26-53.28-19.8-76.39l13-5.62c15,24.41,23.76,50.33,23.76,82s-8.78,57.59-23.76,82Z" transform="translate(0)"/></svg>