<svg id="Layer_1" data-name="Layer 1" xmlns="http://www.w3.org/2000/svg" viewBox="0 0 1600 2560"><title>the_5_am</title><rect width="1600" height="2560" fill="#1a1a1a"/><path d="M1300.8,2444.31A491.48,491.48,0,0,1,1287.07,2560H312.28a491.48,491.48,0,0,1-13.73-115.69c0-273.69,224.36-495.56,501.12-495.56S1300.8,2170.62,1300.8,2444.31Z" fill="#ffc107"/><path d="M832.35,1847.43V1719.69c0-18-14.21-33.4-32.36-33.69a32.72,32.72,0,0,0-33.42,32.52V1848.6A32.73,32.73,0,0,0,800,1881.12C818.14,1880.84,832.35,1865.39,832.35,1847.43Z" fill="#ff8a05"/><path d="M1533.61,2411.76H1403.25c-18.15,0-33.78,14-34.06,32a32.69,32.69,0,0,0,32.88,33h130.36c18.16,0,33.79-14.05,34.07-32A32.7,32.7,0,0,0,1533.61,2411.76Z" fill="#ff8a05"/><path d="M60,2412.25v63.86c-15-3-26.91-15.69-27.15-31.31A32.64,32.64,0,0,1,60,2412.25Z" fill="#ff8a05"/><path d="M230.16,2443.76a32.7,32.7,0,0,1-32.88,33H97v-65h99.09C214.25,2411.76,229.87,2425.81,230.16,2443.76Z" fill="#ff8a05"/><path d="M470.07,1945.84a33.71,33.71,0,0,0,45.7,12.09A32.84,32.84,0,0,0,528,1912.8l-66.82-114.44a33.62,33.62,0,0,0-45.72-11.79,32.84,32.84,0,0,0-12.14,44.83Z" fill="#ff8a05"/><path d="M1321,2179.46a33.15,33.15,0,0,0,16.7-4.42L1453.38,2109a32.84,32.84,0,0,0,11.78-48.36c-8.43-11.92-24.28-16.84-38.2-12.12a32.57,32.57,0,0,0-7,3.33l-115.73,66.07A32.85,32.85,0,0,0,1292,2163a33.47,33.47,0,0,0,28.93,16.52v-.07Z" fill="#ff8a05"/><path d="M146.47,2109.51l115.73,66.07a33.11,33.11,0,1,0,33.34-57.22l-115.73-66.07a33.63,33.63,0,0,0-46.11,10.15A32.83,32.83,0,0,0,144,2108.05c.79.49,1.6,1,2.43,1.39Z" fill="#ff8a05"/><path d="M1083.65,1957.93a33.71,33.71,0,0,0,45.7-12.09l66.81-114.44a32.84,32.84,0,0,0-12.53-45.05,33.62,33.62,0,0,0-45.33,12l-66.82,114.44A32.83,32.83,0,0,0,1083.65,1957.93Z" fill="#ff8a05"/><text transform="translate(668.58 528.35)" font-size="500" fill="#ffc107" font-family="Calibri-Bold, Calibri" font-weight="700" letter-spacing="0.02em">5</text><text transform="translate(246.75 397.53)" font-size="200" fill="#ffc107" font-family="Calibri-Bold, Calibri" font-weight="700" letter-spacing="0.02em">The</text><text transform="translate(979.87 407.53)" font-size="200" fill="#ffc107" font-family="Calibri-Bold, Calibri" font-weight="700" letter-spacing="0.02em">AM</text><text transform="translate(510.39 838.85)" font-size="300" fill="#ffc107" font-family="Calibri-Bold, Calibri" font-weight="700" letter-spacing="0.02em">Club</text><text transform="translate(266.93 1255.13)" font-size="125" fill="#ff8a05" font-family="ProximaNovaSoft-Medium, Proxima Nova Soft" font-weight="500" letter-spacing="0.02em">Own your Morning<tspan x="53.2" y="150">Elevate your Life</tspan></text><path d="M97,2411.76v65H66.92a35.23,35.23,0,0,1-6.92-.69v-63.86a33.82,33.82,0,0,1,5.73-.49Z" fill="#e85e07"/><path d="M97,0V2411.76H65.73a33.82,33.82,0,0,0-5.73.49V0Z"/><path d="M66.92,2476.8H97V2560H60v-83.89A35.23,35.23,0,0,0,66.92,2476.8Z"/></svg>