<svg id="Layer_1" data-name="Layer 1" xmlns="http://www.w3.org/2000/svg" viewBox="0 0 1604.5 2560"><title>the_ai_economy</title><rect x="4.5" width="1600" height="2560" fill="#58b2f5"/><path d="M598.4,192.14H558.93v193.2h-36.4V192.14H483.05v-30.8H598.4Z" transform="translate(0.5)" fill="#fff"/><path d="M715.16,235.54v149.8H681.84V248.14l-5-4.2H654.4l-5,4.2v137.2H616v-224h33.32v63l9.24-7.56h34.16Z" transform="translate(0.5)" fill="#fff"/><path d="M835.56,236.94v72.52h-65.8V353.7l5,4.2h22.68l5-4.2V328.78h33V366.3l-22.68,19H759.4l-22.68-19V236.94l23.52-19.6H812Zm-38.64,7H775.36l-5.6,4.76v35.84h32.76V248.7Z" transform="translate(0.5)" fill="#fff"/><path d="M1003,335.22H949l-9,50.12H902.76l47.88-224h51l47.88,224h-37.24Zm-5.6-30.8L977.24,194.1h-2.52L954.56,304.42Z" transform="translate(0.5)" fill="#fff"/><path d="M1069.63,161.34H1106v224h-36.41Z" transform="translate(0.5)" fill="#fff"/><path d="M387.7,528.7v62.44h51.8v30.8H387.7v67.48h67.76v31.92H351.3v-224H455.46V528.7Z" transform="translate(0.5)" fill="#fff"/><path d="M576.14,572.94V611.3h-33V584.7l-5.6-4.76H515.94l-5.6,4.76v105l5,4.2h22.68l5-4.2V660.58h33V702.3l-22.68,19H500l-22.68-19V572.94l23.52-19.6h51.8Z" transform="translate(0.5)" fill="#fff"/><path d="M694.86,572.94V702.3l-22.68,19H618.7L596,702.3V572.94l23.52-19.6h51.8Zm-38.64,7H634.66l-5.6,4.76v105l5,4.2h22.68l5-4.2v-105Z" transform="translate(0.5)" fill="#fff"/><path d="M819.74,571.54v149.8H786.42V584.14l-5-4.2H759l-5,4.2v137.2H720.62V553.06H746.1l5.88,9,11.2-9.24h34.16Z" transform="translate(0.5)" fill="#fff"/><path d="M940.14,572.94V702.3l-22.68,19H864l-22.68-19V572.94l23.52-19.6h51.8Zm-38.64,7H879.94l-5.6,4.76v105l5,4.2h22.68l5-4.2v-105Z" transform="translate(0.5)" fill="#fff"/><path d="M1131.1,571V721.34h-33.32V584.14l-5-4.2h-22.4l-5,4.2v137.2H1032V584.14l-5.32-4.2h-22.4l-5,4.2v137.2H965.9V553.06h25.48l6.16,9.24,12.32-9.52h32.2l17.08,13.16,16.52-13.16h32.48Z" transform="translate(0.5)" fill="#fff"/><path d="M1260.46,553.34l-56.56,229.6h-32.2l17.64-60.48L1146.5,553.34h33.88l23.24,114.24,23-114.24Z" transform="translate(0.5)" fill="#fff"/><path d="M258.89,2092.52v32.75l2.87,4.81h4.1l3-4.92v-58.07a5.09,5.09,0,0,1,5-5,5,5,0,0,1,4.92,4.92v59.77a6.63,6.63,0,0,1-1.23,3.1L273,2137.4a4.59,4.59,0,0,1-4.28,2.52h-9.26q-4.4,0-5.62-4a5.28,5.28,0,0,1-5.39,4h-8.67a5.79,5.79,0,0,1-5.39-2.75l-4.22-7.09a6.74,6.74,0,0,1-1.17-3.34v-59.65a5.09,5.09,0,0,1,5-5,4.53,4.53,0,0,1,3.37,1.49,5,5,0,0,1,1.44,3.55v58.3l2.87,4.69h4.22l3.1-4.92v-32.64a4.93,4.93,0,1,1,9.85,0Z" transform="translate(0.5)"/><path d="M351.17,2101.13v20.8q0,6.63-6.24,12.25t-12.86,5.62H320.53q-6.73,0-12.89-5.71t-6.15-12.16v-20.8q0-6.43,6-12.16t13-5.71h11.54q6.63-.12,12.86,5.51T351.17,2101.13Zm-39.72.41v19.92a5.23,5.23,0,0,0,1.93,4.28l3.69,3.17a5.16,5.16,0,0,0,3.46,1.05H332a6.71,6.71,0,0,0,4.57-1.82l3-2.63a4.7,4.7,0,0,0,1.82-3.93v-19.92a5.16,5.16,0,0,0-1.82-4.34l-3.45-2.75a6.21,6.21,0,0,0-4.1-1.46h-10.2a7.58,7.58,0,0,0-5.16,1.58l-3.34,2.87A4.93,4.93,0,0,0,311.45,2101.54Z" transform="translate(0.5)"/><path d="M374.08,2135v-46.7a4.91,4.91,0,0,1,1.44-3.54,4.83,4.83,0,0,1,7,0,4.88,4.88,0,0,1,1.44,3.57v6.15l8-6.85c3.31-2.81,6.56-4.22,9.72-4.22h7.21a14.78,14.78,0,0,1,14.76,14.76v2.64a4.91,4.91,0,0,1-1.43,3.58,4.92,4.92,0,0,1-8.41-3.46v-2.76a4.9,4.9,0,0,0-4.92-4.92H402.5c-1.37,0-2.89.73-4.57,2.17l-14,12.13V2135a4.7,4.7,0,0,1-1.47,3.49,4.91,4.91,0,0,1-8.38-3.49Z" transform="translate(0.5)"/><path d="M446.56,2135v-67.91a4.88,4.88,0,0,1,1.44-3.57,4.87,4.87,0,0,1,7,0,4.88,4.88,0,0,1,1.44,3.57v40.2l26.48-22.5a5.67,5.67,0,0,1,3.69-1.41,4.63,4.63,0,0,1,3.52,1.5,5,5,0,0,1,1.41,3.55,4.34,4.34,0,0,1-1.51,3.46l-20.65,17.44,25.43,22.34a3.93,3.93,0,0,1,1.53,3.22,5.07,5.07,0,0,1-1.41,3.48,4.48,4.48,0,0,1-3.45,1.55,5.46,5.46,0,0,1-3.64-1.35l-26.23-22.79-5.17,4.35V2135a4.93,4.93,0,1,1-9.85,0Z" transform="translate(0.5)"/><path d="M558.65,2109.34v25.54a4.92,4.92,0,1,1-9.84,0v-20.62h-15a4.65,4.65,0,0,1-3.49-1.5,4.94,4.94,0,0,1-1.43-3.54,5,5,0,0,1,4.92-4.92h19.92a4.73,4.73,0,0,1,3.49,1.46A4.91,4.91,0,0,1,558.65,2109.34Z" transform="translate(0.5)"/><path d="M693.77,2092.52v32.75l2.87,4.81h4.1l3-4.92v-58.07a5.11,5.11,0,0,1,5-5,5,5,0,0,1,4.92,4.92v59.77a6.63,6.63,0,0,1-1.23,3.1l-4.57,7.56a4.58,4.58,0,0,1-4.27,2.52h-9.26q-4.4,0-5.63-4a5.27,5.27,0,0,1-5.39,4h-8.67a5.79,5.79,0,0,1-5.39-2.75l-4.22-7.09a6.74,6.74,0,0,1-1.17-3.34v-59.65a5.09,5.09,0,0,1,5-5,4.55,4.55,0,0,1,3.37,1.49,5,5,0,0,1,1.43,3.55v58.3l2.87,4.69h4.22l3.11-4.92v-32.64a4.92,4.92,0,1,1,9.84,0Z" transform="translate(0.5)"/><path d="M786.06,2101.89v11.9a5,5,0,0,1-4.93,4.92h-34.8v2.87a5.32,5.32,0,0,0,2.17,4.28l2.87,2.4a7.41,7.41,0,0,0,4.45,1.82h25.31a4.79,4.79,0,0,1,3.46,1.43,4.81,4.81,0,0,1,0,6.95,4.77,4.77,0,0,1-3.43,1.46h-26a15.23,15.23,0,0,1-5.42-1.08,14.17,14.17,0,0,1-4.19-2.26l-4.4-3.87a12.45,12.45,0,0,1-3.42-4.57,12.76,12.76,0,0,1-1.38-5.39V2100.2a13.73,13.73,0,0,1,1.49-5.22,13.56,13.56,0,0,1,3.78-5.1l4.1-3.22a13.9,13.9,0,0,1,9-3.28h13.83q5.21,0,9.84,4.33l3.69,3.52Q786.06,2094.8,786.06,2101.89Zm-39.61-.76v7.62h29.88v-6.86a5.26,5.26,0,0,0-1.7-4.21l-2.87-2.52a6.67,6.67,0,0,0-4-1.82H755.41a6.33,6.33,0,0,0-4.16,1.58l-2.87,2.4A4.57,4.57,0,0,0,746.45,2101.13Z" transform="translate(0.5)"/><path d="M823.64,2104.41h19.3a21.82,21.82,0,0,1,4.58.71l-.12-7a4.9,4.9,0,0,0-4.93-4.92H823.74a4.92,4.92,0,1,1,0-9.84h18.72a14.24,14.24,0,0,1,10.42,4.28,14.84,14.84,0,0,1,4.49,10.48L858.6,2135a4.7,4.7,0,0,1-1.47,3.49,4.81,4.81,0,0,1-3.46,1.43,4.94,4.94,0,0,1-3.57-1.43,4.7,4.7,0,0,1-1.47-3.49l-8.33,4.92H823.64A14.82,14.82,0,0,1,808.73,2125v-5.74a14.92,14.92,0,0,1,14.91-14.89Zm24.61,19.16-.29-4.16a5,5,0,0,0-1.47-3.51,4.7,4.7,0,0,0-3.46-1.41H823.62a4.92,4.92,0,0,0-4.93,4.92v5.51a5,5,0,0,0,4.93,4.92h13.9Z" transform="translate(0.5)"/><path d="M921.17,2139.92H891.41a4.68,4.68,0,0,1-3.49-1.49,4.94,4.94,0,0,1-1.43-3.55,5,5,0,0,1,4.92-4.92h9.84v-58.07h-10a4.92,4.92,0,1,1,0-9.84h15a5,5,0,0,1,4.92,4.92v63h10a5,5,0,0,1,4.93,4.92,5,5,0,0,1-1.44,3.55A4.68,4.68,0,0,1,921.17,2139.92Z" transform="translate(0.5)"/><path d="M988.5,2139.92h-9.85a14.4,14.4,0,0,1-10.48-4.33,14.13,14.13,0,0,1-4.4-10.43v-31.94h-5a4.79,4.79,0,0,1-3.48-1.4,4.94,4.94,0,0,1,3.48-8.44h5.16v-12.07a4.87,4.87,0,0,1,8.35-3.46,4.71,4.71,0,0,1,1.49,3.46v12.07h19.81a4.91,4.91,0,0,1,3.45,8.41,4.79,4.79,0,0,1-3.45,1.43H973.62v31.94a4.65,4.65,0,0,0,1.49,3.45,4.89,4.89,0,0,0,3.54,1.47h9.61q3.93,0,5.22-4.25t5-4.25A4.67,4.67,0,0,1,1002,2123a5,5,0,0,1,1.38,3.6q0,4.46-4.19,8.88A14.07,14.07,0,0,1,988.5,2139.92Z" transform="translate(0.5)"/><path d="M1026.29,2135v-68a4.58,4.58,0,0,1,1.44-3.4,5,5,0,0,1,7,0,4.74,4.74,0,0,1,1.43,3.49v24.84l7.91-5.15q5.4-3.41,9.61-3.4h6.1a14.17,14.17,0,0,1,10.37,4.31,14.82,14.82,0,0,1,4.51,10.45l1.23,36.86a4.53,4.53,0,0,1-1.4,3.49,4.88,4.88,0,0,1-3.52,1.43,4.59,4.59,0,0,1-3.46-1.49A5.09,5.09,0,0,1,1066,2135l-1.23-37a5,5,0,0,0-1.53-3.46,4.75,4.75,0,0,0-3.51-1.46h-5.51a7.56,7.56,0,0,0-4.1,1.46l-14,9.14V2135a4.92,4.92,0,1,1-9.84,0Z" transform="translate(0.5)"/><path d="M1186,2104.41h19.3a21.82,21.82,0,0,1,4.58.71l-.11-7a4.92,4.92,0,0,0-4.93-4.92h-18.74a4.92,4.92,0,1,1,0-9.84h18.72a14.24,14.24,0,0,1,10.42,4.28,14.84,14.84,0,0,1,4.49,10.48L1221,2135a4.7,4.7,0,0,1-1.47,3.49,4.79,4.79,0,0,1-3.45,1.43,5,5,0,0,1-3.58-1.43A4.73,4.73,0,0,1,1211,2135l-8.33,4.92H1186a14.82,14.82,0,0,1-14.91-14.88v-5.74a14.94,14.94,0,0,1,14.91-14.89Zm24.62,19.16-.3-4.16a5,5,0,0,0-1.46-3.51,4.71,4.71,0,0,0-3.46-1.41H1186a4.9,4.9,0,0,0-4.92,4.92v5.51a5,5,0,0,0,4.92,4.92h13.9Z" transform="translate(0.5)"/><path d="M1267.14,2094.8l-13.45,8.74V2135a4.92,4.92,0,0,1-9.84,0v-46.7a4.91,4.91,0,0,1,1.44-3.54,4.62,4.62,0,0,1,3.48-1.5,4.68,4.68,0,0,1,3.46,1.5,4.89,4.89,0,0,1,1.46,3.54v3.28l9-5.45a18.65,18.65,0,0,1,10.21-2.87h4.57a14.08,14.08,0,0,1,10.15,4.16,14.57,14.57,0,0,1,4.52,10.26l1.35,37.32a4.52,4.52,0,0,1-1.41,3.46,4.8,4.8,0,0,1-3.51,1.46,4.91,4.91,0,0,1-3.4-1.32,4.77,4.77,0,0,1-1.53-3.6l-1.46-36.74c-.12-3.44-1.92-5.15-5.4-5.15H1272A8.9,8.9,0,0,0,1267.14,2094.8Z" transform="translate(0.5)"/><path d="M1355.94,2090.23V2067a4.78,4.78,0,0,1,1.41-3.48,4.56,4.56,0,0,1,3.39-1.44,5,5,0,0,1,3.55,1.44,4.62,4.62,0,0,1,1.49,3.48v68a4.73,4.73,0,0,1-1.46,3.49,4.81,4.81,0,0,1-3.46,1.43,4.73,4.73,0,0,1-3.51-1.43,4.8,4.8,0,0,1-1.41-3.49v-2.17q-7.21,7.1-13.48,7.09h-8.38q-5,0-10.07-4.33l-4.11-3.46a13.07,13.07,0,0,1-2.66-4.51,16.05,16.05,0,0,1-1.26-5.92v-20a15.74,15.74,0,0,1,1.4-6.47,13.06,13.06,0,0,1,3.29-4.72l4-3.46a15.09,15.09,0,0,1,10.19-3.75H1342a15.76,15.76,0,0,1,10.55,4.1Zm-14.3,3h-6.85a5.74,5.74,0,0,0-3.93,1.58l-3.16,2.76a4.79,4.79,0,0,0-1.64,3.75v20.86a4.76,4.76,0,0,0,1.93,3.69l3.22,2.75a4.81,4.81,0,0,0,3.23,1.35h8a6.25,6.25,0,0,0,3.75-1.82l7.8-6.44a5.41,5.41,0,0,0,1.93-4.22v-10.66c0-2.39-.68-4.14-2-5.28l-8-6.85A5.94,5.94,0,0,0,1341.64,2093.22Z" transform="translate(0.5)"/><path d="M331.37,2236.52v32.75l2.87,4.81h4.1l3-4.92v-58.07a5.09,5.09,0,0,1,5-5,5,5,0,0,1,4.92,4.92v59.77a6.63,6.63,0,0,1-1.23,3.1l-4.57,7.56a4.59,4.59,0,0,1-4.28,2.52H332q-4.4,0-5.63-4a5.28,5.28,0,0,1-5.39,4h-8.67a5.79,5.79,0,0,1-5.39-2.75l-4.22-7.09a6.74,6.74,0,0,1-1.17-3.34v-59.65a5.09,5.09,0,0,1,5-5,4.53,4.53,0,0,1,3.36,1.49,5,5,0,0,1,1.44,3.55v58.3l2.87,4.69h4.22l3.11-4.92v-32.64a4.92,4.92,0,1,1,9.84,0Z" transform="translate(0.5)"/><path d="M423.65,2245.89v11.9a5,5,0,0,1-4.92,4.92h-34.8v2.87a5.32,5.32,0,0,0,2.17,4.28l2.87,2.4a7.39,7.39,0,0,0,4.45,1.82h25.31a4.81,4.81,0,0,1,3.46,1.43,4.83,4.83,0,0,1,0,6.95,4.79,4.79,0,0,1-3.43,1.46h-26a15.23,15.23,0,0,1-5.42-1.08,14,14,0,0,1-4.19-2.26l-4.4-3.87a12.47,12.47,0,0,1-3.43-4.57,12.89,12.89,0,0,1-1.37-5.39V2244.2a16.46,16.46,0,0,1,5.27-10.32l4.1-3.22a13.9,13.9,0,0,1,9-3.28h13.82q5.22,0,9.85,4.33l3.69,3.52Q423.66,2238.8,423.65,2245.89Zm-39.61-.76v7.62h29.89v-6.86a5.26,5.26,0,0,0-1.7-4.21l-2.87-2.52a6.69,6.69,0,0,0-4-1.82H393a6.33,6.33,0,0,0-4.16,1.58l-2.87,2.4A4.58,4.58,0,0,0,384,2245.13Z" transform="translate(0.5)"/><path d="M486.29,2283.92H456.53a4.68,4.68,0,0,1-3.49-1.49,5,5,0,0,1-1.44-3.55,5,5,0,0,1,4.93-4.92h9.84v-58.07h-10a4.92,4.92,0,1,1,0-9.84h15a5,5,0,0,1,4.92,4.92v63h10a5,5,0,0,1,4.92,4.92,5,5,0,0,1-1.43,3.55A4.68,4.68,0,0,1,486.29,2283.92Z" transform="translate(0.5)"/><path d="M541.49,2237.22V2279a4.7,4.7,0,0,1-1.47,3.49,4.81,4.81,0,0,1-3.46,1.43,4.94,4.94,0,0,1-3.57-1.43,4.69,4.69,0,0,1-1.46-3.49v-41.78h-5a4.73,4.73,0,0,1-3.49-1.46,4.78,4.78,0,0,1-1.44-3.46,5,5,0,0,1,1.32-3.43,4.58,4.58,0,0,1,3.61-1.49h5.15v-3.81a16.65,16.65,0,0,1,5.19-12.54,17.92,17.92,0,0,1,12.92-5h11.54a4.7,4.7,0,0,1,3.49,1.47,4.91,4.91,0,0,1,1.43,3.57,5,5,0,0,1-4.92,4.92H549.75a8.29,8.29,0,0,0-5.83,2.11,7,7,0,0,0-2.32,5.45v3.81h9.85a4.5,4.5,0,0,1,3.45,1.41,4.95,4.95,0,0,1-3.45,8.43Z" transform="translate(0.5)"/><path d="M606.19,2248.41H625.5a21.82,21.82,0,0,1,4.58.71l-.12-7a4.92,4.92,0,0,0-4.93-4.92H606.3a4.92,4.92,0,1,1,0-9.84H625a14.2,14.2,0,0,1,10.41,4.28,14.76,14.76,0,0,1,4.49,10.48l1.23,36.86a4.69,4.69,0,0,1-1.46,3.49,4.81,4.81,0,0,1-3.46,1.43,4.93,4.93,0,0,1-3.57-1.43,4.7,4.7,0,0,1-1.47-3.49l-8.33,4.92H606.2A14.8,14.8,0,0,1,591.29,2269v-5.74a14.92,14.92,0,0,1,14.9-14.89Zm24.62,19.16-.29-4.16a5,5,0,0,0-1.47-3.51,4.7,4.7,0,0,0-3.46-1.41H606.18a4.92,4.92,0,0,0-4.93,4.92v5.51a5,5,0,0,0,4.93,4.92h13.9Z" transform="translate(0.5)"/><path d="M664,2279v-46.7a4.9,4.9,0,0,1,1.43-3.54,4.83,4.83,0,0,1,7,0,4.88,4.88,0,0,1,1.44,3.57v6.15l8-6.85q5-4.21,9.72-4.22h7.21a14.8,14.8,0,0,1,14.77,14.76v2.64a4.92,4.92,0,0,1-1.44,3.58,4.92,4.92,0,0,1-8.41-3.46v-2.76a4.9,4.9,0,0,0-4.92-4.92h-6.39a7.43,7.43,0,0,0-4.57,2.17l-14,12.13V2279a4.7,4.7,0,0,1-1.47,3.49A4.9,4.9,0,0,1,664,2279Z" transform="translate(0.5)"/><path d="M786.06,2245.89v11.9a5,5,0,0,1-4.93,4.92h-34.8v2.87a5.32,5.32,0,0,0,2.17,4.28l2.87,2.4a7.41,7.41,0,0,0,4.45,1.82h25.31a4.79,4.79,0,0,1,3.46,1.43,4.81,4.81,0,0,1,0,6.95,4.77,4.77,0,0,1-3.43,1.46h-26a15.23,15.23,0,0,1-5.42-1.08,14.17,14.17,0,0,1-4.19-2.26l-4.4-3.87a12.45,12.45,0,0,1-3.42-4.57,12.76,12.76,0,0,1-1.38-5.39V2244.2a13.73,13.73,0,0,1,1.49-5.22,13.56,13.56,0,0,1,3.78-5.1l4.1-3.22a13.9,13.9,0,0,1,9-3.28h13.83q5.21,0,9.84,4.33l3.69,3.52Q786.06,2238.8,786.06,2245.89Zm-39.61-.76v7.62h29.88v-6.86a5.26,5.26,0,0,0-1.7-4.21l-2.87-2.52a6.67,6.67,0,0,0-4-1.82H755.41a6.33,6.33,0,0,0-4.16,1.58l-2.87,2.4A4.57,4.57,0,0,0,746.45,2245.13Z" transform="translate(0.5)"/><path d="M921.17,2283.8h-30a4.92,4.92,0,0,1,0-9.84h10.08v-36.74h-10a4.73,4.73,0,0,1-3.49-1.46,4.81,4.81,0,0,1-1.43-3.46,4.94,4.94,0,0,1,1.43-3.54,4.65,4.65,0,0,1,3.49-1.5h15a4.65,4.65,0,0,1,3.49,1.5,4.94,4.94,0,0,1,1.43,3.54V2274h9.85a4.93,4.93,0,0,1,3.54,1.44,4.63,4.63,0,0,1,1.5,3.48,4.7,4.7,0,0,1-1.47,3.49A4.77,4.77,0,0,1,921.17,2283.8Zm-20-82.09h5.16a4.9,4.9,0,0,1,4.92,4.93v4.22a5,5,0,0,1-1.43,3.54,4.64,4.64,0,0,1-3.49,1.49H901a4.67,4.67,0,0,1-3.55-1.52,4.59,4.59,0,0,1-1.37-3.4l.11-4.33a4.92,4.92,0,0,1,4.92-4.93Z" transform="translate(0.5)"/><path d="M977.22,2238.8l-13.45,8.74V2279a4.92,4.92,0,0,1-9.84,0v-46.7a4.94,4.94,0,0,1,1.43-3.54,4.78,4.78,0,0,1,6.95,0,4.89,4.89,0,0,1,1.46,3.54v3.28l9-5.45a18.69,18.69,0,0,1,10.21-2.87h4.58a14.1,14.1,0,0,1,10.15,4.16,14.57,14.57,0,0,1,4.52,10.26l1.35,37.32a4.56,4.56,0,0,1-1.41,3.46,4.83,4.83,0,0,1-3.52,1.46,4.91,4.91,0,0,1-3.39-1.32,4.77,4.77,0,0,1-1.53-3.6l-1.46-36.74c-.12-3.44-1.92-5.15-5.4-5.15H982A8.87,8.87,0,0,0,977.22,2238.8Z" transform="translate(0.5)"/><path d="M1133.46,2283.92h-9.84a14.4,14.4,0,0,1-10.49-4.33,14.13,14.13,0,0,1-4.4-10.43v-31.94h-5a4.81,4.81,0,0,1-3.48-1.4,4.94,4.94,0,0,1,3.48-8.44h5.16v-12.07a4.87,4.87,0,0,1,8.35-3.46,4.67,4.67,0,0,1,1.49,3.46v12.07h19.81a4.91,4.91,0,0,1,3.46,8.41,4.81,4.81,0,0,1-3.46,1.43h-19.92v31.94a4.65,4.65,0,0,0,1.49,3.45,4.9,4.9,0,0,0,3.55,1.47h9.6q3.93,0,5.22-4.25t5-4.25A4.67,4.67,0,0,1,1147,2267a5,5,0,0,1,1.38,3.6q0,4.46-4.19,8.88A14.07,14.07,0,0,1,1133.46,2283.92Z" transform="translate(0.5)"/><path d="M1171.25,2279v-68a4.58,4.58,0,0,1,1.44-3.4,5,5,0,0,1,7,0,4.75,4.75,0,0,1,1.44,3.49v24.84l7.91-5.15q5.38-3.41,9.61-3.4h6.09a14.17,14.17,0,0,1,10.37,4.31,14.82,14.82,0,0,1,4.51,10.45l1.23,36.86a4.53,4.53,0,0,1-1.4,3.49,4.88,4.88,0,0,1-3.52,1.43,4.59,4.59,0,0,1-3.46-1.49A5.14,5.14,0,0,1,1211,2279l-1.23-37a5,5,0,0,0-1.53-3.46,4.75,4.75,0,0,0-3.51-1.46h-5.51a7.56,7.56,0,0,0-4.1,1.46l-14,9.14V2279a4.93,4.93,0,1,1-9.85,0Z" transform="translate(0.5)"/><path d="M1293.42,2245.89v11.9a5,5,0,0,1-4.92,4.92h-34.81v2.87a5.35,5.35,0,0,0,2.17,4.28l2.87,2.4a7.41,7.41,0,0,0,4.46,1.82h25.31a4.81,4.81,0,0,1,3.46,1.43,4.83,4.83,0,0,1,0,6.95,4.79,4.79,0,0,1-3.43,1.46h-26a15.27,15.27,0,0,1-5.42-1.08,14.3,14.3,0,0,1-4.19-2.26l-4.39-3.87a12.47,12.47,0,0,1-3.43-4.57,12.76,12.76,0,0,1-1.38-5.39V2244.2a13.6,13.6,0,0,1,1.5-5.22,13.36,13.36,0,0,1,3.78-5.1l4.1-3.22a13.85,13.85,0,0,1,9-3.28h13.83q5.22,0,9.84,4.33l3.7,3.52Q1293.42,2238.8,1293.42,2245.89Zm-39.61-.76v7.62h29.88v-6.86a5.22,5.22,0,0,0-1.7-4.21l-2.87-2.52a6.64,6.64,0,0,0-4-1.82h-12.36a6.31,6.31,0,0,0-4.16,1.58l-2.88,2.4A4.59,4.59,0,0,0,1253.81,2245.13Z" transform="translate(0.5)"/><path d="M229.41,2421.06l19.82-67.35a4.81,4.81,0,0,1,5-3.66c2.45,0,4,1,4.62,3.1l19.63,68.39a5.1,5.1,0,0,1,.23,1.46,4.83,4.83,0,0,1-1.4,3.49,4.41,4.41,0,0,1-3.22,1.43,4.63,4.63,0,0,1-4.92-3.57L265.26,2411H242.72l-4.29,14.31a3,3,0,0,1-1.47,1.78,5.12,5.12,0,0,1-2.83.84,4.79,4.79,0,0,1-3.59-1.46,4.94,4.94,0,0,1-1.42-3.58A6.33,6.33,0,0,1,229.41,2421.06Zm24.73-48.22L245.7,2401h16.65Z" transform="translate(0.5)"/><path d="M332.54,2449H311.21a4.78,4.78,0,0,1-3.48-1.41,4.72,4.72,0,0,1-1.44-3.52,4.63,4.63,0,0,1,1.44-3.45,4.78,4.78,0,0,1,3.48-1.41h21.33a5.49,5.49,0,0,0,3.63-1.46l3.34-2.88a4,4,0,0,0,1.7-3.39v-15q-6.91,7-13.47,7h-7.56a15.76,15.76,0,0,1-10.55-4l-3.69-3.29a12.26,12.26,0,0,1-3.14-4.45,14.05,14.05,0,0,1-1.31-5.74v-16.29a16.78,16.78,0,0,1,1.31-6.56,12.08,12.08,0,0,1,3.14-4.63l4-3.46a15.09,15.09,0,0,1,10.2-3.75h7.09a15.75,15.75,0,0,1,10.54,4.1l3.4,2.87-.11-1.93a5,5,0,0,1,4.92-4.92,5,5,0,0,1,3.54,1.43,4.65,4.65,0,0,1,1.5,3.49v55.2a13.83,13.83,0,0,1-5,10.72l-4,3.46a13.42,13.42,0,0,1-4.3,2.34A15.62,15.62,0,0,1,332.54,2449Zm-5.62-67.91h-6.63a6.36,6.36,0,0,0-4.16,1.69l-3,2.52a4.94,4.94,0,0,0-1.76,4v16.4a5.06,5.06,0,0,0,1.93,3.75l3.23,2.88a4.91,4.91,0,0,0,3.22,1.29h8a6.28,6.28,0,0,0,3.86-1.76l7.8-6.62a5,5,0,0,0,1.81-3.87v-7.44a5.45,5.45,0,0,0-2-4.4l-8-6.85A5.9,5.9,0,0,0,326.92,2381.11Z" transform="translate(0.5)"/><path d="M423.65,2389.89v11.9a5,5,0,0,1-4.92,4.92h-34.8v2.87a5.32,5.32,0,0,0,2.17,4.28l2.87,2.4a7.39,7.39,0,0,0,4.45,1.82h25.31a4.81,4.81,0,0,1,3.46,1.43,4.83,4.83,0,0,1,0,6.95,4.79,4.79,0,0,1-3.43,1.46h-26a15.23,15.23,0,0,1-5.42-1.08,14,14,0,0,1-4.19-2.26l-4.4-3.87a12.47,12.47,0,0,1-3.43-4.57,12.89,12.89,0,0,1-1.37-5.39V2388.2a16.46,16.46,0,0,1,5.27-10.32l4.1-3.22a13.9,13.9,0,0,1,9-3.28h13.82q5.22,0,9.85,4.33l3.69,3.52Q423.66,2382.8,423.65,2389.89Zm-39.61-.76v7.62h29.89v-6.86a5.26,5.26,0,0,0-1.7-4.21l-2.87-2.52a6.69,6.69,0,0,0-4-1.82H393a6.33,6.33,0,0,0-4.16,1.58l-2.87,2.4A4.58,4.58,0,0,0,384,2389.13Z" transform="translate(0.5)"/><path d="M568.62,2389.13v20.8q0,6.63-6.24,12.25t-12.87,5.62H538q-6.74,0-12.89-5.71t-6.15-12.16v-20.8q0-6.43,6-12.16t13-5.71h11.54q6.63-.12,12.87,5.51T568.62,2389.13Zm-39.73.41v19.92a5.23,5.23,0,0,0,1.93,4.28l3.69,3.17A5.18,5.18,0,0,0,538,2418H549.4a6.69,6.69,0,0,0,4.57-1.82l3-2.63a4.69,4.69,0,0,0,1.81-3.93v-19.92a5.15,5.15,0,0,0-1.81-4.34l-3.46-2.75a6.19,6.19,0,0,0-4.1-1.46H539.2a7.6,7.6,0,0,0-5.16,1.58l-3.33,2.87A4.91,4.91,0,0,0,528.89,2389.54Z" transform="translate(0.5)"/><path d="M614,2381.22V2423a4.7,4.7,0,0,1-1.47,3.49,4.81,4.81,0,0,1-3.46,1.43,4.94,4.94,0,0,1-3.57-1.43A4.69,4.69,0,0,1,604,2423v-41.78h-5a4.73,4.73,0,0,1-3.49-1.46,4.78,4.78,0,0,1-1.44-3.46,5,5,0,0,1,1.32-3.43,4.58,4.58,0,0,1,3.61-1.49h5.15v-3.81a16.65,16.65,0,0,1,5.19-12.54,17.92,17.92,0,0,1,12.92-5h11.54a4.7,4.7,0,0,1,3.49,1.47,4.91,4.91,0,0,1,1.43,3.57,5,5,0,0,1-4.92,4.92H622.23a8.29,8.29,0,0,0-5.83,2.11,7,7,0,0,0-2.32,5.45v3.81h9.85a4.49,4.49,0,0,1,3.45,1.41,4.95,4.95,0,0,1-3.45,8.43Z" transform="translate(0.5)"/><path d="M771.06,2427.92h-9.85a14.42,14.42,0,0,1-10.49-4.33,14.12,14.12,0,0,1-4.39-10.43v-31.94h-5a4.83,4.83,0,0,1-3.49-1.4,4.94,4.94,0,0,1,3.49-8.44h5.16v-12.07a4.87,4.87,0,0,1,8.35-3.46,4.71,4.71,0,0,1,1.49,3.46v12.07H776.1a4.91,4.91,0,0,1,3.45,8.41,4.79,4.79,0,0,1-3.45,1.43H756.17v31.94a4.66,4.66,0,0,0,1.5,3.45,4.87,4.87,0,0,0,3.54,1.47h9.61q3.93,0,5.22-4.25t5-4.25a4.69,4.69,0,0,1,3.54,1.44,5,5,0,0,1,1.38,3.6q0,4.46-4.19,8.88A14.07,14.07,0,0,1,771.06,2427.92Z" transform="translate(0.5)"/><path d="M808.85,2423v-68a4.58,4.58,0,0,1,1.44-3.4,4.93,4.93,0,0,1,8.4,3.52v24.84l7.91-5.15q5.4-3.41,9.61-3.4h6.1a14.17,14.17,0,0,1,10.37,4.31,14.82,14.82,0,0,1,4.51,10.45l1.23,36.86a4.5,4.5,0,0,1-1.41,3.49,4.84,4.84,0,0,1-3.51,1.43,4.59,4.59,0,0,1-3.46-1.49,5,5,0,0,1-1.46-3.43l-1.23-37a5,5,0,0,0-1.53-3.46,4.77,4.77,0,0,0-3.51-1.46H836.8a7.56,7.56,0,0,0-4.1,1.46l-14,9.14V2423a4.92,4.92,0,1,1-9.84,0Z" transform="translate(0.5)"/><path d="M931,2389.89v11.9a5,5,0,0,1-4.92,4.92H891.29v2.87a5.32,5.32,0,0,0,2.17,4.28l2.87,2.4a7.41,7.41,0,0,0,4.45,1.82H926.1a4.79,4.79,0,0,1,3.45,1.43,4.81,4.81,0,0,1,0,6.95,4.77,4.77,0,0,1-3.42,1.46h-26a15.23,15.23,0,0,1-5.42-1.08,14.17,14.17,0,0,1-4.19-2.26l-4.4-3.87a12.45,12.45,0,0,1-3.42-4.57,12.76,12.76,0,0,1-1.38-5.39V2388.2a13.73,13.73,0,0,1,1.49-5.22,13.56,13.56,0,0,1,3.78-5.1l4.11-3.22a13.85,13.85,0,0,1,9-3.28H913.5c3.47,0,6.76,1.44,9.84,4.33l3.69,3.52Q931,2382.8,931,2389.89Zm-39.61-.76v7.62h29.88v-6.86a5.26,5.26,0,0,0-1.7-4.21l-2.87-2.52a6.64,6.64,0,0,0-4-1.82H900.37a6.33,6.33,0,0,0-4.16,1.58l-2.87,2.4A4.57,4.57,0,0,0,891.41,2389.13Z" transform="translate(0.5)"/><path d="M1026.53,2423v-72.95h34.8a14.16,14.16,0,0,1,10.4,4.4,14.36,14.36,0,0,1,4.37,10.48v5.63a14.4,14.4,0,0,1-4.34,10.52,14.17,14.17,0,0,1-10.43,4.36h-6.27l20.1,34.57a5.83,5.83,0,0,1,.94,3,4.55,4.55,0,0,1-1.53,3.43,5,5,0,0,1-3.47,1.43,4.83,4.83,0,0,1-4.46-2.62l-23-39.86h-7.11V2423a4.65,4.65,0,0,1-1.5,3.49,5,5,0,0,1-3.54,1.43,4.88,4.88,0,0,1-4.92-4.92Zm9.84-47.4h25a4.9,4.9,0,0,0,4.92-4.92v-5.75a4.9,4.9,0,0,0-4.92-4.92h-25Z" transform="translate(0.5)"/><path d="M1148.46,2389.13v20.8q0,6.63-6.24,12.25t-12.86,5.62h-11.55q-6.74,0-12.89-5.71t-6.15-12.16v-20.8q0-6.43,6-12.16t13-5.71h11.55q6.62-.12,12.86,5.51T1148.46,2389.13Zm-39.73.41v19.92a5.23,5.23,0,0,0,1.94,4.28l3.69,3.17a5.15,5.15,0,0,0,3.45,1.05h11.43a6.69,6.69,0,0,0,4.57-1.82l3-2.63a4.7,4.7,0,0,0,1.82-3.93v-19.92a5.16,5.16,0,0,0-1.82-4.34l-3.46-2.75a6.19,6.19,0,0,0-4.1-1.46H1119a7.57,7.57,0,0,0-5.15,1.58l-3.34,2.87A4.94,4.94,0,0,0,1108.73,2389.54Z" transform="translate(0.5)"/><path d="M1181.45,2355v23.15l4.33-3.46a13.2,13.2,0,0,1,8.5-3.4h9a13,13,0,0,1,8.85,3.4l4.69,4a12.55,12.55,0,0,1,3.19,4.87,16.72,16.72,0,0,1,1.26,6.21v19.92a15.56,15.56,0,0,1-1.17,5.68,11.7,11.7,0,0,1-2.7,4.4l-4.27,4a15,15,0,0,1-4.69,2.84,14,14,0,0,1-5.16,1.26h-8.43q-6.16,0-13.42-6.85V2423a4.93,4.93,0,1,1-9.85,0v-68a4.68,4.68,0,0,1,1.47-3.48,4.91,4.91,0,0,1,8.38,3.48Zm21.09,26.25h-6.8a5.54,5.54,0,0,0-3.75,1.12l-8.84,7.55a5.81,5.81,0,0,0-1.7,4.57v11.14a5.15,5.15,0,0,0,1.93,4.1l7.91,6.68a5.21,5.21,0,0,0,3.58,1.58h8a4.35,4.35,0,0,0,2.93-1.05l3.93-3.52a3.91,3.91,0,0,0,1.58-3.34v-20.74a4.57,4.57,0,0,0-1.58-3.75l-3.58-3A5.56,5.56,0,0,0,1202.54,2381.22Z" transform="translate(0.5)"/><path d="M1293.42,2389.13v20.8q0,6.63-6.24,12.25t-12.86,5.62h-11.54q-6.75,0-12.9-5.71t-6.15-12.16v-20.8q0-6.43,6-12.16t13-5.71h11.54q6.62-.12,12.86,5.51T1293.42,2389.13Zm-39.73.41v19.92a5.23,5.23,0,0,0,1.94,4.28l3.69,3.17a5.16,5.16,0,0,0,3.46,1.05h11.42a6.69,6.69,0,0,0,4.57-1.82l3-2.63a4.7,4.7,0,0,0,1.82-3.93v-19.92a5.16,5.16,0,0,0-1.82-4.34l-3.46-2.75a6.19,6.19,0,0,0-4.1-1.46H1264a7.58,7.58,0,0,0-5.16,1.58l-3.34,2.87A4.94,4.94,0,0,0,1253.69,2389.54Z" transform="translate(0.5)"/><path d="M1350.9,2427.92h-9.84a14.4,14.4,0,0,1-10.49-4.33,14.13,14.13,0,0,1-4.4-10.43v-31.94h-5a4.82,4.82,0,0,1-3.48-1.4,5,5,0,0,1,0-7,4.77,4.77,0,0,1,3.48-1.43h5.16v-12.07a4.87,4.87,0,0,1,8.35-3.46,4.67,4.67,0,0,1,1.49,3.46v12.07h19.81a4.91,4.91,0,0,1,3.46,8.41,4.81,4.81,0,0,1-3.46,1.43H1336v31.94a4.69,4.69,0,0,0,1.49,3.45,4.9,4.9,0,0,0,3.55,1.47h9.61q3.91,0,5.21-4.25t5-4.25a4.69,4.69,0,0,1,3.55,1.44,5,5,0,0,1,1.37,3.6q0,4.46-4.19,8.88A14.06,14.06,0,0,1,1350.9,2427.92Z" transform="translate(0.5)"/><polygon points="103 0 103 1715.91 65.5 1703.28 65.5 0 103 0" fill="#4f9edb"/><polygon points="103 1716.03 103 2559 65.5 2559 65.5 1678 103 1716.03" fill="#4f9edb"/><path d="M1477.34,1209.82a186.47,186.47,0,0,0-12.64-45.42l-.57-1.36-1.1-1a6.65,6.65,0,0,1-2.22-4.09v-2.14l-.7-1.4c-26.31-52.68-78.77-88.08-130.56-88.08-.65,0-1.31,0-1.72,0-32.66.48-70.25,14.33-105.85,39-32.66,22.65-59.79,51.68-74.45,79.63-36.31,69.29-22.83,159.65,31.36,210.19,29.09,27.12,71.07,42.69,115.15,42.69,34.89,0,69.31-9.9,96.91-27.88C1453.14,1369.54,1488.65,1287.19,1477.34,1209.82ZM1362.2,1328.1c-19.78,14.33-41.23,21.9-62,21.9a79.06,79.06,0,0,1-10.89-.74c-34.23-4.6-63.48-32.38-71.14-67.53-5.7-26.28.28-53.4,16.83-76.39a121.16,121.16,0,0,1,84-48.78,74.14,74.14,0,0,1,8-.44c23,0,44.48,10.64,60.61,30,19.65,23.55,26.86,55.07,18.82,82.26C1399.63,1291.08,1384,1312.3,1362.2,1328.1Z" transform="translate(0.5)" fill="#f0f2fa"/><path d="M1022.25,1335.16a175.48,175.48,0,0,1-103.6-33.28l-6.16-4.38,5.15-5.54c38.1-41,56-100.91,46.59-156.27l-1.7-10.1,173.89,45-1.79,7.28-.52,1c-19.74,37.61-26.33,82.35-18.56,126l.82,4.62-4.07,2.32A182.2,182.2,0,0,1,1022.25,1335.16Z" transform="translate(0.5)" fill="#f0f2fa"/><path d="M859.33,1638.53a59.87,59.87,0,0,1-38.09-14.4c-11.21-9.7-20-23.61-26-41.36l-4-11.88,12.09,3.34a100.37,100.37,0,0,0,26.72,3.61c24.09,0,47.22-8.1,65.15-22.82l10.34-8.5.51,13.37c1,25.92-4.26,58.19-22,71.07A41.75,41.75,0,0,1,859.33,1638.53Z" transform="translate(0.5)" fill="#f4d03f"/><path d="M829.93,1564.25a84,84,0,0,1-38.63-9.1l-3.12-1.64-.41-3.51c-2.82-25,2-44.44,13.86-56.17,8.34-8.24,19.5-12.61,32.29-12.61a63.57,63.57,0,0,1,13.83,1.59c23.64,5.35,45.17,23,52.38,43,.26.76.51,1.47.72,2.22l1.64,6-5.82,2.07a6.74,6.74,0,0,0-2.72,1.71C878.41,1554.33,854.48,1564.25,829.93,1564.25Z" transform="translate(0.5)" fill="#f0f2fa"/><path d="M756.93,1651a56.16,56.16,0,0,1-8.43-.65c-19.73-3.12-38.36-16.85-48.65-35.84a82.31,82.31,0,0,1-7.91-21.27l-3-13.13,12.22,5.65a80.08,80.08,0,0,0,33.33,7.22,77.94,77.94,0,0,0,38.25-9.83l7-3.94,2.57,7.58c4.64,13.71,10.8,25.53,18.32,35.14l3.13,4-3,4.07C791.13,1642.94,774.32,1651,756.93,1651Z" transform="translate(0.5)" fill="#f4d03f"/><path d="M734.56,1579.44a65.43,65.43,0,0,1-36.42-10.8,7.4,7.4,0,0,0-1.86-.83l-2.77-.93-1.19-2.68c-.13-.29-.25-.58-.39-.86l-.12-.15-.34-.61-.94-1.86.28-2.07c.29-2.09.61-4.19,1-6.32,4.46-21.61,15.55-38.52,30.42-46.43a42.16,42.16,0,0,1,19.72-4.41c13.59,0,26,4.94,31.71,12.61l1.69,2.28-.5,2.8c-2.22,12.79-1.83,27.3,1.16,43.13l1.4,7.48-7.6.38a6.22,6.22,0,0,0-3,.84A64.3,64.3,0,0,1,734.56,1579.44Z" transform="translate(0.5)" fill="#f0f2fa"/><path d="M686.63,1328.59a190.09,190.09,0,0,1-106.1-32.6l-7.41-5L687,1199.17l4,2.34c37.45,22.12,64.4,62.67,70.33,105.78l.7,5.06-4.71,2a180.84,180.84,0,0,1-70.7,14.27Z" transform="translate(0.5)" fill="#f0f2fa"/><path d="M647.23,1642.67c-19.84,0-38.25-7.64-50.49-21-10.13-11-16.1-26.16-16.8-42.63l-.5-12.14,10.49,6.12a98.5,98.5,0,0,0,78.72,8.86l7.52-2.33,1,7.8A96.83,96.83,0,0,0,688,1621l3.56,5.93-4.92,3.56C675.79,1638.34,661.81,1642.67,647.23,1642.67Z" transform="translate(0.5)" fill="#f4d03f"/><path d="M639.44,1572.76c-19,0-37.14-6-51.22-17a4,4,0,0,1-.48-.32l-4.22-3.13,2.08-4.82a60.86,60.86,0,0,1,10.88-17.16c12.09-13.29,31.09-21.23,50.8-21.23a67.48,67.48,0,0,1,36.09,10l4.93,3.12-2.46,5.3a101.86,101.86,0,0,0-7.22,22.1c-.69,3.32-1.25,6.93-1.7,11l-.43,3.83-3.53,1.53A84.78,84.78,0,0,1,639.44,1572.76Z" transform="translate(0.5)" fill="#f0f2fa"/><path d="M564.57,1552.75a43.6,43.6,0,0,1-38.26-23.54l-.19-.3-2.62-4.33,3.5-3.67a50.26,50.26,0,0,1,16.19-11.51,42.18,42.18,0,0,1,16.68-3.75,29.69,29.69,0,0,1,7,.79c7.43,1.77,13.63,6.9,15.86,13.14a5.73,5.73,0,0,1,.3.61l1.6,3.58-2.36,3.13A76.83,76.83,0,0,0,571,1548.26l-1.53,4.46Z" transform="translate(0.5)" fill="#f0f2fa"/><path d="M564.61,1612.67c-23.33-.57-45.59-17.46-51.77-39.26a50.48,50.48,0,0,1-1.07-22.36l2.23-13.24,9.17,9.79a57.91,57.91,0,0,0,37.24,18.08l6.36.49-.24,6.37a85.8,85.8,0,0,0,4.52,31.32l3.12,9Z" transform="translate(0.5)" fill="#f4d03f"/><path d="M1080.18,1489.88c-3.23-6.88-8-12.8-11.24-16.72l-8.37-10.23,6.2-4A250,250,0,0,1,1174,1420.21a6.81,6.81,0,0,0,3.25-1.38l3.87-2.9,4,2.8a167.08,167.08,0,0,0,25.14,14.82l9.21,4.39-7.74,6.64c-34.39,29.58-80,47.48-125.25,49.12l-4.38.15Z" transform="translate(0.5)" fill="#f4d03f"/><path d="M1022.13,1415.63l10.06-2.57a324.62,324.62,0,0,0,99-44l5.74-3.83,3.6,5.87a164.19,164.19,0,0,0,20.56,26.84l8.47,9-12.15,2.13a265.26,265.26,0,0,0-100.26,40.1l-5,3.34Z" transform="translate(0.5)" fill="#f4d03f"/><path d="M960.15,1339.47,979,1343.8a193.3,193.3,0,0,0,43.16,4.81,197.33,197.33,0,0,0,90.48-21.73l7-3.62,2.41,7.47c1.81,5.63,3.94,11.27,6.5,17.22l2.15,5-4.51,3.09a309.14,309.14,0,0,1-105,45.78,8.22,8.22,0,0,0-2.14,1l-4.94,3Z" transform="translate(0.5)" fill="#f4d03f"/><path d="M297.74,1462.76l78.85-399.27L480,1114.18l-112.8,369.65Z" transform="translate(0.5)" fill="#fff"/><path d="M918.62,1582.55l.39-7c1.07-19.19-1.38-39.22-6.58-53.57-8.78-24.38-33.67-45-61.94-51.45a74.3,74.3,0,0,0-16.65-1.93c-16.45,0-30.93,5.69-41.84,16.47a54.85,54.85,0,0,0-8.26,10.46l-3.55,5.79-5.7-3.7c-8.72-5.68-20.17-8.82-32.19-8.82-9.73,0-19.11,2.13-26.35,6a61.84,61.84,0,0,0-16.4,12.85l-3.77,4.09-4.69-3a80.47,80.47,0,0,0-43.54-12.27A85.87,85.87,0,0,0,601,1510.05l-5.41,3.53-3.67-5.31a36.9,36.9,0,0,0-21.61-14.49,43.2,43.2,0,0,0-10.16-1.19,54.9,54.9,0,0,0-22,4.9c-14.1,6.21-25.84,17.85-33,32.78l-2.18,4.53-4.94-.88a197.44,197.44,0,0,1-109.44-59.5l-2.6-2.8,98.51-322.74,5.94,1.25a189.58,189.58,0,0,0,38.92,4A192.25,192.25,0,0,0,617.41,1133c4-2,7.84-4.2,11.45-6.25,14.32-8,27.6-15.36,42.13-15.62h.84c20.4,0,38.8,14.4,55.64,30l5.64,5.22-174.48,140.6a6.73,6.73,0,0,0-2.5,5.21,6.65,6.65,0,0,0,2.41,5.2,201.13,201.13,0,0,0,128.31,46,196.14,196.14,0,0,0,35.58-3.25c49.87-9.27,95.69-38.39,125.7-79.91l5.68-7.86,5.25,8.15a198,198,0,0,0,73.65,67.45l2.55,1.35L936,1332a7,7,0,0,0,1.27,2.46l120.54,148.14c6.42,7.91,12.61,16.31,11.65,24.53-.88,7.21-7.17,13.4-13.2,18.51-40,34.21-77.39,57-129.51,57Z" transform="translate(0.5)" fill="#ffd2bb"/><path d="M178.17,1366.8c-22.24,0-43.59-19.19-45.66-41-1.66-17.51,7.36-33.58,24.13-43a51.92,51.92,0,0,1,25.44-6.84,44.2,44.2,0,0,1,26.61,8.59c11.31,8.46,17.9,24.24,16.42,39.28-2.24,22.77-23.25,42.47-45.89,43Z" transform="translate(0.5)" fill="#fff"/><path d="M365.91,1027.48c-20.19-8.73-78.34-26.17-120.32-38.55l-.61-.19c-12.54-3.68-20.83-6.14-24.09-7.24L102.5,941.63,65,929l-2.83-1c-4.56-1.55-10-3.86-15.68-6.31l-.43-.19c-11.73-5-29.46-12.62-40.95-12.62a20.44,20.44,0,0,0-5.61.73v451.48c6.28,4.31,13.72,8,21.73,11.72L65,1393.3l37.5,17.5L258,1483.41c8,3.79,11.48,4.27,13.59,4.27a9.05,9.05,0,0,0,3.78-.77c4.07-1.81,6.48-6.69,8.57-17.35l86.88-439.95ZM182,1262.3a57.54,57.54,0,0,1,34.72,11.25c15.21,11.33,23.76,31.5,21.76,51.4-2.94,29.74-29.4,54.48-59.3,55.18-.2,0-.85,0-1,0-29.34,0-56.44-24.41-59.19-53.29-2.14-22.62,9.72-44.1,31-56A65.46,65.46,0,0,1,182,1262.3ZM65,1386.58V936.45l37.5,12.63v455Z" transform="translate(0.5)" fill="#f4d03f"/><path d="M1599.5,1286.89v51.6l-168.42,56,13.56-17.34a219.82,219.82,0,0,0,36-68.3l1.56-4.81,5,.2c4.11.19,7.89.26,11.55.26A297.91,297.91,0,0,0,1599.5,1286.89Z" transform="translate(0.5)" fill="#f4d03f"/><path d="M1599.5,1195.49v76.76A282.88,282.88,0,0,1,1498.14,1291q-2.61,0-5.22-.06l-7.91-.14,1.53-7.77a225.52,225.52,0,0,0,4.15-46.88l0-3.6,3-2A207.38,207.38,0,0,1,1599.5,1195.49Z" transform="translate(0.5)" fill="#f4d03f"/><path d="M1599.5,1112.69V1182A218,218,0,0,0,1499,1211.67l-8.44,5-1.48-9.68a187.33,187.33,0,0,0-9.23-35.85l-2.86-7.82,8.25-1.06A224.44,224.44,0,0,0,1599.5,1112.69Z" transform="translate(0.5)" fill="#f4d03f"/><path d="M1599.5,1055.55v39.23a211.06,211.06,0,0,1-124.24,55l-4.38.38-2.05-3.9a195.54,195.54,0,0,0-31.12-43.67l-5.24-5.54,6.19-4.44c24.24-17.38,55.8-23,77.42-25.73,8.47-1.06,17.3-1.92,25.08-2.67C1560.38,1062.26,1580.22,1060.29,1599.5,1055.55Z" transform="translate(0.5)" fill="#f4d03f"/><path d="M1600.5,1034.51l-1,.27v6.88c-19.37,5.13-39.84,7.12-59.67,9-7.85.78-16.78,1.66-25.43,2.74-24.69,3.11-60.68,9.75-87.85,31.37l-4.1,3.27-4.13-3.23a156.79,156.79,0,0,0-29.18-18.09L1377,1061l214.71-109.9,1.74,8.6c2.07,10.28,4.1,20.72,6.06,31.24v37.71C1599.84,1030.6,1600.17,1032.55,1600.5,1034.51Z" transform="translate(0.5)" fill="#f4d03f"/><path d="M1300.19,1336.51a69,69,0,0,1-9.13-.61c-28.26-3.81-53.4-27.8-59.74-57-6.26-28.79,4.48-51.57,14.58-65.61,17-23.56,45.52-40.15,74.46-43.3a61.63,61.63,0,0,1,6.37-.34c19,0,37,8.93,50.45,25.14,16.78,20.09,23,46.82,16.24,69.75-5.89,19.9-19.79,38.6-39.16,52.66C1336.83,1329.82,1318.13,1336.51,1300.19,1336.51Z" transform="translate(0.5)" fill="#f4d03f"/><path d="M723.32,1209a160.91,160.91,0,0,0-17.83-14l-7.42-5L779,1124.73c13.82-11.11,29.48-23.69,47.46-27.09a61.35,61.35,0,0,1,11.32-1c12.52,0,25.2,3.27,37.47,6.42l71.86,18.61.94,3.83a6.45,6.45,0,0,1,.22,1.25,164.46,164.46,0,0,1,4.57,39.75l-.06,12.32L942.48,1172a158,158,0,0,0-86.63-26.1,149.07,149.07,0,0,0-24.16,2A155.91,155.91,0,0,0,733.1,1208l-4.37,5.86Z" transform="translate(0.5)" fill="#f4d03f"/><path d="M897.24,1284a178.57,178.57,0,0,1-36.72-50.24,6.62,6.62,0,0,0-5.83-3.8,6.84,6.84,0,0,0-6.13,3.46c-2.65,4.73-5.66,9.52-9.18,14.59l-4,5.76-5.54-4.29a70.47,70.47,0,0,0-43.09-14.57,67.29,67.29,0,0,0-28.84,6.41l-5.19,2.49-3.19-4.79c-2.22-3.32-4.75-6.77-8-10.85l-3-3.85,2.79-4c21.34-31,56.11-53.07,93-59.16a136.68,136.68,0,0,1,22.12-1.8,142,142,0,0,1,88.75,31,6.58,6.58,0,0,0,1.27.76l4.6,2.22-1,5c-6.32,32.67-21.32,62.24-43.41,85.53l-4.62,4.86Z" transform="translate(0.5)" fill="#f4d03f"/><path d="M773.21,1296.62a156.66,156.66,0,0,0-11.25-35l-2.8-6.16,6.22-2.68a53.16,53.16,0,0,1,21.33-4.33A57.08,57.08,0,0,1,821,1259.74l5.9,4.46-5.07,5.39A191.24,191.24,0,0,1,783.22,1301l-8.17,5Z" transform="translate(0.5)" fill="#f4d03f"/><path d="M1590.39,929.15l-229.87,117.64a13.46,13.46,0,0,0-3.2,2.36,146.51,146.51,0,0,0-31.27-2.9c-68.18,1-143,51.68-182.59,105.35l-262.55-68c-16.6-4.29-37.26-9.64-57.81-5.77-23,4.36-41.68,19.38-56.65,31.44L744,1127.4c-21.06-19.77-44.1-38.66-73.55-38.07-19.64.39-36.62,9.87-51.6,18.24-3.64,2-7.26,4.06-10.92,6a173,173,0,0,1-111.55,15.81l4.51-14.76a13.37,13.37,0,0,0-6.91-15.92l-107.18-52.6,3.17-16.12a13.15,13.15,0,0,0,.25-2.59c0-11.91-8.12-16.49-57.94-32.64C305,985.85,271.89,976.08,250,969.62c-11.75-3.48-21-6.21-24-7.2L102.5,920.82,67.28,909q-1.08-.36-2.28-.81c-3.52-1.32-7.77-3.14-12.22-5-16.44-7.05-36.33-15.59-53.28-14v27.16l.3-.11a13.19,13.19,0,0,1,4-.53c10.14,0,27.47,7.43,38.4,12.12,6,2.57,11.62,5,16.5,6.63L65,936.45l37.5,12.63,115,38.72c3.41,1.15,12,3.68,24.93,7.5,28.07,8.29,97.73,28.85,119.56,38.28l-85.81,434.7c-2,10-3.84,12.15-4.77,12.59s-3.93.25-11.86-3.45l-157-73.33L65,1386.58l-42.26-19.74c-8.84-4.13-16.93-8.13-23.24-12.95v31.41c4.16,2.18,8.21,4.07,11.92,5.81l53.58,25,37.5,17.51,145.7,68c5.06,2.37,13.14,6.14,22.14,6.14a29,29,0,0,0,12.15-2.58c9.75-4.46,14.55-13.11,17.17-20.84l68.08,20.67a13.54,13.54,0,0,0,3.89.58,13.38,13.38,0,0,0,12.13-7.8,218,218,0,0,0,107.52,54.66,70.27,70.27,0,0,0,2.19,26.42c8.9,31.33,40.18,53.95,72.43,53.95a67.43,67.43,0,0,0,9.41-.65,13.94,13.94,0,0,0,3.26-.94c1.1,1.37,2.17,2.77,3.36,4.06,16.61,18.07,41.05,27.45,65.39,27.45,18.41,0,36.75-5.41,51.64-16.41,12.89,12.62,29.1,21.13,46.42,23.84a74.22,74.22,0,0,0,11.68.91c22.41,0,44.11-9.89,57.83-26.54a78.5,78.5,0,0,0,44.13,14c13.38,0,26.33-3.71,36.81-11.31,13.43-9.74,21.9-26.45,26.42-45.28.33,0,.67.12,1,.13l3.7,0c61.84,0,105.29-29.76,143-62,7.42-6.34,16-14.9,19.1-26.4,52.75-2.38,104.83-24.35,143.22-60.61a13.29,13.29,0,0,0,2.33-3,201.28,201.28,0,0,0,57.6,8.39c37.67,0,75.71-10.36,108.17-31.51,2.91-1.9,5.75-3.9,8.53-5.93a14,14,0,0,0,3,.37,13.14,13.14,0,0,0,4.21-.67l183.27-61v-28.21l-149.65,49.77a227,227,0,0,0,37.1-70.35c3.94.15,7.88.26,11.84.26a305.19,305.19,0,0,0,100.71-17.27V1265.4a278.19,278.19,0,0,1-105.71,18.94,231.67,231.67,0,0,0,4.3-48.29,201,201,0,0,1,101.41-33.88v-26.85A224.68,224.68,0,0,0,1495.61,1206a195.68,195.68,0,0,0-9.53-37.14,230.78,230.78,0,0,0,113.42-47.58v-35.67a203,203,0,0,1-124.8,57.57,202.78,202.78,0,0,0-32.18-45.17c22.75-16.32,52.77-21.82,74.39-24.53,8.19-1,16.69-1.87,24.9-2.67,19-1.87,38.52-3.82,57.69-8.39v-27.59c-19.12,5.29-39.2,7.27-60.3,9.34-8.39.82-17.07,1.67-25.63,2.75-26,3.27-62.86,10.26-91.15,32.76a164.13,164.13,0,0,0-30.43-18.86L1586.92,961q6.81,33.69,12.58,67.63V928A13.34,13.34,0,0,0,1590.39,929.15Zm-526.85,576.34c-.59,4.89-6.13,10.19-10.91,14.26-39.27,33.57-76,55.88-126.61,55.56,1.16-20.68-1.54-41.29-6.95-56.35-9.53-26.46-36.41-48.87-66.86-55.78-24.9-5.64-48.5.31-64.73,16.33a62.8,62.8,0,0,0-9.29,11.75c-18.79-12.26-46.94-13-65.38-3.13a68.55,68.55,0,0,0-18.22,14.26c-29-18.59-68.84-17.46-97.46,1.3a43.55,43.55,0,0,0-25.59-17.22c-11.47-2.76-24.06-1.34-36.46,4.1-16.13,7.08-28.83,20.34-36.41,36.06A191,191,0,0,1,392.72,1469l95.81-313.92a200,200,0,0,0,131.71-17.78c3.89-2,7.77-4.18,11.66-6.36,13.44-7.5,26.12-14.58,39.07-14.84,18.48-.35,35.74,13.26,52,28.28L554.11,1280.45a13.38,13.38,0,0,0-.14,20.72c46.62,38.72,110,55.23,169.64,44.18,52-9.65,99.25-40,130.13-82.7A206.12,206.12,0,0,0,930,1332.51a13.09,13.09,0,0,0,2.51,4.87l120.81,148.5C1058.63,1492.4,1064.23,1499.83,1063.54,1505.49Zm-183.45,120.1c-16,11.61-40.29,5.84-54.51-6.46-10.37-9-18.39-21.91-24-38.49a107.5,107.5,0,0,0,28.49,3.83c25,0,50-8.44,69.35-24.33C900.41,1586.1,894.73,1615,880.09,1625.59Zm-130.56,18.18c-17.69-2.77-34.5-15.2-43.86-32.41a75.8,75.8,0,0,1-7.25-19.57,86.57,86.57,0,0,0,36.13,7.83,84.84,84.84,0,0,0,41.5-10.68c4.88,14.42,11.35,26.82,19.39,37.09C785.6,1639.25,767.05,1646.52,749.53,1643.77Zm-147.9-26.55c-9.46-10.28-14.44-24.24-15-38.43a104.93,104.93,0,0,0,84,9.49,103.81,103.81,0,0,0,11.53,35.86c.18.32.37.63.56,1C659,1642.32,621.49,1638.81,601.63,1617.22Zm287.48-84c-23.2,24.81-64.6,31.75-94.72,16.06-1.86-16.12-1.22-37.74,11.89-50.69,8.52-8.39,18.87-10.69,27.65-10.69a56.86,56.86,0,0,1,12.37,1.42c21.55,4.9,41.12,20.83,47.58,38.75.2.56.39,1.14.59,1.73A13.32,13.32,0,0,0,889.11,1533.19Zm-119.62,30.34a13.3,13.3,0,0,0-5.92,1.74c-18.54,10.8-43.93,9.93-61.68-2.12a13.18,13.18,0,0,0-3.52-1.63,13.67,13.67,0,0,0-.85-1.77l-.15-.19c.29-2,.57-3.94,1-5.91,4-19.63,13.9-34.89,27-41.88s35.79-3.42,43,6.27C765.61,1533.75,767,1550,769.49,1563.53Zm-204.76-17.84a37.07,37.07,0,0,1-32.63-20.12c-.09-.19-.21-.33-.3-.5a44,44,0,0,1,14.05-10c6.88-3,13.8-3.95,19.42-2.59,5.32,1.28,9.85,5,11.28,9.16.09.3.26.55.36.83A84.13,84.13,0,0,0,564.73,1545.69Zm107.4,2.55c-.8,3.87-1.38,7.75-1.8,11.62-25.16,10.91-56.63,7.46-78.22-9.51-.13-.1-.29-.15-.42-.26a55.66,55.66,0,0,1,9.71-15.32c19-20.92,54.59-25.12,78.43-10.07A107.57,107.57,0,0,0,672.13,1548.24Zm-153.81,3.9a64.29,64.29,0,0,0,41.56,20.16,93.24,93.24,0,0,0,4.89,33.74c-20.12-.49-40-15-45.55-34.43A44.72,44.72,0,0,1,518.32,1552.14Zm355.89-442.57L942,1127.12c0,.24,0,.5.1.76a156.76,156.76,0,0,1,4.45,38.57C913,1144.13,870.8,1134.74,831,1141.28c-40.57,6.68-78.21,29.87-102.83,62.77a164.63,164.63,0,0,0-18.57-14.56l73.64-59.34c13.3-10.71,28.37-22.87,44.81-26C842.72,1101.41,858.72,1105.56,874.21,1109.57Zm96.58,25,157.61,40.79a3.84,3.84,0,0,1-.18.35c-21.06,40.18-27,86.8-19.21,130.24-40.92,23.28-92.08,29-137.1,15.16a172.49,172.49,0,0,1-49.42-24.63C962.25,1253.69,980.5,1192.12,970.79,1134.57Zm51.36,220.7a204.56,204.56,0,0,0,93.53-22.49q2.94,9.09,6.72,17.81a302.86,302.86,0,0,1-102.67,44.78,13.2,13.2,0,0,0-4.1,1.75l-38.12-46.84A200.89,200.89,0,0,0,1022.15,1355.27Zm11.68,64.24a330.34,330.34,0,0,0,101-45,173.49,173.49,0,0,0,21.37,27.91,269.94,269.94,0,0,0-102.78,41.13ZM817,1265.05a184.05,184.05,0,0,1-37.27,30.3A164.91,164.91,0,0,0,768,1258.83C783.78,1252,803.33,1254.67,817,1265.05Zm-62-29.7c-2.59-3.89-5.38-7.63-8.29-11.3,20.39-29.57,53.15-50.52,88.61-56.35A135.86,135.86,0,0,1,941,1195.47a14.46,14.46,0,0,0,2.54,1.58,165.06,165.06,0,0,1-41.71,82.22,173.61,173.61,0,0,1-35.33-48.41,13.39,13.39,0,0,0-23.71-.7c-2.72,4.87-5.73,9.53-8.88,14.1C811.87,1227.11,780.5,1223.2,755.05,1235.35Zm-170.77,55.16,103.33-83.28c35.73,21.08,61.51,59.87,67.14,101a176.69,176.69,0,0,1-36,10.83C672.3,1327.63,623.19,1317,584.28,1290.51Zm486.11,173.93a243.34,243.34,0,0,1,104.36-37.65,13.27,13.27,0,0,0,6.46-2.64,176.14,176.14,0,0,0,26.16,15.41,199,199,0,0,1-121.16,47.5c-3.49-7.43-8.47-13.58-12.12-18.08Zm111.55-74.06c-52.07-48.59-65-135.52-30-202.23,28.11-53.62,106.69-114.08,174.54-115.13.53,0,1.08,0,1.62,0,46.19,0,97.69,30.55,124.59,84.4,0,.06,0,.12,0,.17a13.31,13.31,0,0,0,4.45,9.43,178,178,0,0,1,12.16,43.78c11,74.91-23.34,154.55-83.43,193.7C1323.51,1445.1,1234,1438.9,1181.94,1390.38Zm-876.51,67.78,76-384.92L472,1117.66,362.72,1475.55Z" transform="translate(0.5)" fill="#231f20"/><path d="M1392.64,1181.84c-19.44-23.29-46.59-34.92-74.46-31.88a127.74,127.74,0,0,0-88.6,51.5c-17.67,24.53-24,53.53-17.93,81.67,8.22,37.83,39.76,67.73,76.73,72.72a85.14,85.14,0,0,0,11.77.79c22,0,45.06-8,65.94-23.19,22.92-16.62,39.47-39.07,46.62-63.22C1421.38,1240.94,1413.69,1207.06,1392.64,1181.84ZM1372.08,1199c15.39,18.44,21.12,42.83,15,63.64-5.49,18.52-18.51,36-36.68,49.16-19,13.82-39.8,20-58.4,17.54-25.61-3.46-48.37-25.28-54.15-51.88-5.75-26.43,4.17-47.39,13.49-60.34,15.91-22.07,42.64-37.61,69.76-40.55C1339.91,1174.52,1358.49,1182.69,1372.08,1199Z" transform="translate(0.5)" fill="#231f20"/><path d="M220.71,1268.22c-20.79-15.5-49.81-16.75-73.94-3.18-23.56,13.24-36.7,37.17-34.3,62.45,3.07,32.45,33,59.3,65.79,59.3l1.43,0c32.83-.78,62.19-28.22,65.46-61.15C247.34,1303.45,237.74,1280.93,220.71,1268.22ZM139.12,1325c-1.41-14.8,6.36-28.48,20.77-36.59a45.35,45.35,0,0,1,22.17-5.95,37.59,37.59,0,0,1,22.65,7.26c9.52,7.1,15.06,20.48,13.8,33.28-1.95,19.61-20,36.58-39.45,37C160.05,1360.54,140.9,1343.75,139.12,1325Z" transform="translate(0.5)" fill="#231f20"/><polygon points="103 949.08 103 1404.09 65.5 1386.58 65.5 936.45 103 949.08" fill="#dbbb39"/><line x1="53" y1="917.67" x2="112" y2="938.67" fill="#231f20" stroke="#231f20" stroke-miterlimit="10" stroke-width="28"/><line x1="54.82" y1="1397.59" x2="112.18" y2="1422.74" fill="#231f20" stroke="#231f20" stroke-miterlimit="10" stroke-width="28"/></svg>