<svg id="Layer_1" data-name="Layer 1" xmlns="http://www.w3.org/2000/svg" viewBox="0 0 1601 2561"><title>the_subtle_art_</title><rect x="0.5" y="0.5" width="1600" height="2560" fill="#ff2f0d" stroke="#000" stroke-miterlimit="10"/><path d="M150.45,134.87H254.33v31.25H220.28V301.5H183.66V166.12H150.45Z" transform="translate(1 1)"/><path d="M264,134.87H298.4v56.4q9.28-15.63,30.28-15.62,12.57,0,19.83,5.85a25.56,25.56,0,0,1,9.22,14.84q1.95,9,1.95,26.06v79.1H325.26V222.3q0-12.11-2.26-16.07t-9.34-4q-7,0-11.11,3.79t-4.15,17.23V301.5H264Z" transform="translate(1 1)"/><path d="M478.09,245.59H413.51v6.81q0,16.54,4.5,22.14a14.43,14.43,0,0,0,11.8,5.6q15.69,0,17.64-21l30.64,1.95q-8.18,43-48.89,43-25.12,0-38.16-17T378,241.69q0-32.12,13.84-49T429,175.77q21,0,35.06,14.95T478.09,245.59Zm-32.47-19.9c.08-1.46.12-2.6.12-3.41q0-23.81-16.05-23.81-15.81,0-15.93,27.22Z" transform="translate(1 1)"/><path d="M649.84,171.13l-30.27,11.6q-6.48-20.64-23.68-20.63-8.05,0-12.76,4.57a14.5,14.5,0,0,0-4.7,10.68,13.44,13.44,0,0,0,5.56,11.3q5.55,4.2,23.25,11,16.11,6,25.33,11.84a44.26,44.26,0,0,1,14.89,15.93q5.68,10.08,5.68,23.38,0,23.32-16,38.27t-43,14.95q-45.3,0-57.87-45.77l32-9.16q5.85,25.15,26.73,25.15,9.52,0,15.44-4.95a16.08,16.08,0,0,0,5.92-13,16.27,16.27,0,0,0-4.15-10.92q-4.14-4.83-19-10.19-19.17-6.84-28.56-12.39A44.08,44.08,0,0,1,549,207a45.26,45.26,0,0,1-6.1-23.5q0-22.46,14.46-36.81t38.27-14.34Q639.1,132.31,649.84,171.13Z" transform="translate(1 1)"/><path d="M671,178.21h34.42v79.2q0,12,2.2,16t9.52,4q6.72,0,10.2-3.3a14.59,14.59,0,0,0,4.21-9.1q.74-5.81.73-23.9V178.21h34.42V301.5H734.32V284.65q-7.34,12.59-14.59,16a40.06,40.06,0,0,1-17.15,3.41q-13.3,0-20.39-5.49A24.64,24.64,0,0,1,673,284.65Q671,276.24,671,258.41Z" transform="translate(1 1)"/><path d="M791.93,134.87h33.82v54.94q10-13.31,25.58-13.31,17.05,0,28.39,15.38t11.33,47.24q0,30.64-11.09,47.79t-32.41,17.15q-21,0-28.76-18.67a81.31,81.31,0,0,0-6.47,16.11H791.93Zm33.82,115.41q0,16.93,3.16,23.4t11.18,6.46q8.88,0,12.16-9.2t3.28-31q0-21.09-3.16-30.84t-11.67-9.75q-15,0-15,22.55Z" transform="translate(1 1)"/><path d="M916.32,140.37l33.45-1.1v38.94h22.7v27.1h-22.7V250.6q0,12.57.55,16.29a9.6,9.6,0,0,0,3.66,6.23q3.12,2.5,10.44,2.5c2.6,0,5.86-.08,9.76-.24V301.5a96.8,96.8,0,0,1-21,2.56q-15.63,0-23.93-6a26.27,26.27,0,0,1-10.62-15q-2.32-9-2.32-28.69V205.31H902.65v-27.1h13.67Z" transform="translate(1 1)"/><path d="M987.73,134.87h34.43V301.5H987.73Z" transform="translate(1 1)"/><path d="M1142.27,245.59H1077.7v6.81q0,16.54,4.5,22.14a14.41,14.41,0,0,0,11.8,5.6q15.69,0,17.63-21l30.64,1.95q-8.16,43-48.89,43-25.11,0-38.16-17t-13-45.41q0-32.12,13.83-49t37.13-16.9q21,0,35,14.95T1142.27,245.59Zm-32.47-19.9c.08-1.46.13-2.6.13-3.41q0-23.81-16.06-23.81-15.81,0-15.93,27.22Z" transform="translate(1 1)"/><path d="M198.55,434.87h36.86L283,601.5H245.57l-8.31-34.42H190.32l-8.17,34.42H148.5Zm31.82,103.64-16.84-68.26-16.16,68.26Z" transform="translate(1 1)"/><path d="M293.89,478.21h30.27V508q8.18-31.37,29.17-31.37a33.16,33.16,0,0,1,5.86.61V510.8a50,50,0,0,0-5.73-.49q-25.15,0-25.15,38.09v53.1H293.89Z" transform="translate(1 1)"/><path d="M381.41,440.37l33.45-1.1v38.94h22.7v27.1h-22.7V550.6q0,12.57.55,16.29a9.52,9.52,0,0,0,3.66,6.23q3.1,2.5,10.44,2.5,3.9,0,9.76-.24V601.5a96.88,96.88,0,0,1-21,2.56q-15.61,0-23.92-6a26.18,26.18,0,0,1-10.62-15q-2.33-9-2.32-28.69V505.31H367.74v-27.1h13.67Z" transform="translate(1 1)"/><path d="M594.42,539.85q0,64.21-50,64.21t-50.11-64.21q0-64.08,50.11-64.08T594.42,539.85Zm-35.52.07q0-23.59-3.22-31.91t-11.25-8.32q-7.77,0-11.18,7.89t-3.4,32.34q0,22.62,2.91,31.42t11.67,8.8q8.39,0,11.43-8.74T558.9,539.92Z" transform="translate(1 1)"/><path d="M653.38,478.21h21.73v27.1H653.38V601.5h-33V505.31h-14v-27.1h14q.12-18.19,2.81-27.22t11.6-15.87q8.91-6.84,24.29-6.84a119.54,119.54,0,0,1,17.33,1.22v26.86a65.08,65.08,0,0,0-7.69-.49q-9.88,0-12.63,4.21T653.38,478.21Z" transform="translate(1 1)"/><path d="M167.79,734.87h40.65l42.84,103.52V734.87H279.6V901.5H246.89L196.11,780.89V901.5H167.79Z" transform="translate(1 1)"/><path d="M424.62,818.13q0,85.93-60.42,85.93-30,0-45.29-21.91t-15.26-64q0-85.82,60.43-85.82,29.54,0,45,21.48T424.62,818.13Zm-38.57,0q0-33.69-5.25-44.86T364.08,762.1q-11.35,0-16.61,11.23t-5.24,44.8q0,33,5.18,44.55t16.67,11.6q11.34,0,16.66-11.11T386.05,818.13Z" transform="translate(1 1)"/><path d="M433.66,734.87H537.54v31.25H503.48V901.5H466.86V766.12h-33.2Z" transform="translate(1 1)"/><path d="M227.6,1112.63h57.86v88.87H270l-4.76-19q-13.42,21.6-40.28,21.6-28.46,0-45.11-22.4t-16.66-60.24q0-41.13,16.42-65.12t48.52-24q51.15,0,57.37,57.13l-33,5.37q-3.42-32.71-23.68-32.71-12.33,0-19.71,12.08T201.72,1120q0,29.91,7.2,42.11T230,1174.28q22.35,0,22.46-33.08H227.6Z" transform="translate(1 1)"/><path d="M345.52,1068.08H310.61V1034h34.91Zm-34.67,10.13h34.43V1201.5H310.85Z" transform="translate(1 1)"/><path d="M355.16,1078.21h33.11l17,72.69,17.15-72.69H451L417.18,1201.5H390Z" transform="translate(1 1)"/><path d="M494.57,1068.08H459.66V1034h34.91Zm-34.67,10.13h34.42V1201.5H459.9Z" transform="translate(1 1)"/><path d="M519.59,1078.21h32.6v16.84q8.53-19.27,30.88-19.28,12.09,0,20,5.43a23.9,23.9,0,0,1,10.07,13.85q2.19,8.43,2.2,25.64v80.81H580.87v-80.81q0-12.45-3.17-15.38a12.14,12.14,0,0,0-8.55-2.93q-9.27,0-12.2,5.68T554,1129.23v72.27H519.59Z" transform="translate(1 1)"/><path d="M743.71,1058v22.46a30.7,30.7,0,0,0-7.44-1q-10.74,0-13.06,11.11,9.15,9.64,9.15,24.66,0,16.72-12.45,26.79t-32.23,10.07a67.12,67.12,0,0,1-16-2.07q-8.06,4.4-8.05,10.13a5.9,5.9,0,0,0,4.51,6.1q4.51,1.47,24.66,2.57,18.56,1.1,27.77,3.66A28.91,28.91,0,0,1,736,1183q6.16,7.93,6.17,20.87,0,41.27-60.18,41.26-50.55,0-50.54-29.42,0-16.23,20.14-23-16.11-7.56-16.11-21.36,0-15.87,21.24-27.1-18.31-9-18.31-30.76,0-18.43,12.63-28.08t33.75-9.64a65.32,65.32,0,0,1,26.37,5.37q1.35-13.19,6.59-18.8t16.48-5.62A33.52,33.52,0,0,1,743.71,1058Zm-73.12,138.18q-10.86,5-10.86,14.89,0,12.45,28.32,12.45,24.29,0,24.29-12.94a11.31,11.31,0,0,0-2.62-7.75A11.63,11.63,0,0,0,703,1199q-4.08-.8-17.15-1.41Q678.17,1197.11,670.59,1196.13Zm26.25-82q0-19.9-10.87-19.9-6.59,0-9.33,4.82T673.89,1115q0,18.67,11.84,18.68,6,0,8.55-4.4T696.84,1114.1Z" transform="translate(1 1)"/><path d="M833.44,1117.39l-32.6-3.17q2.32-18.56,15.81-28.56t34-10q17.33,0,27.83,6.65t13.24,15.44q2.74,8.79,2.75,27.22v49.2q0,23,2.08,27.34h-32q-1.73-5-1.72-18.92-11.33,21.48-33.75,21.48-14.37,0-23.39-8.6t-9-25.09q0-20.62,13.65-31.92T860.05,1125v-4.64q0-12.33-2.49-17.09t-9.66-4.76Q834.78,1098.47,833.44,1117.39Zm26.61,25.27q-15,1.71-21.43,6.63t-6.41,16.62q0,15.57,11.48,15.57,6.22,0,11.29-7t5.07-25.73Z" transform="translate(1 1)"/><path d="M169.13,1334.87H268v28.57H205.75V1407h48v28.56h-48v65.92H169.13Z" transform="translate(1 1)"/><path d="M317.44,1334.87h20.88l-2.93,30.64,25.27-17.09,10.13,18.68-27.22,12.09,27.22,12-10.13,18.68-25.27-17.09,2.93,30.64H317.44l3.06-30.64-25.27,17.09-10.13-18.68,27.22-12L285.1,1367.1l10.13-18.68,25.27,17.09Z" transform="translate(1 1)"/><path d="M496.64,1423.62l-32,1.22q-.74-11.35-3.66-17.15t-9.89-5.8q-17.33,0-17.33,36.38,0,21.12,4.21,29.54t12.51,8.42q12.94,0,14.16-22.83l32,2.08q-4.26,48.58-48.27,48.58-23.78,0-36.4-16t-12.62-47.79q0-31.5,13.23-48t37.13-16.48Q492.87,1375.77,496.64,1423.62Z" transform="translate(1 1)"/><path d="M515.32,1334.87h34.42v90.89l34.64-47.55h31.28l-31.16,41.38,34.21,81.91H581.54l-19.25-57.16-12.55,17.24v39.92H515.32Z" transform="translate(1 1)"/><path d="M1523.9,916.64v223.72c0,103.07,0,113.38-39.25,166.19v41.22c0,27.06-22.23,58-52.34,58H1209a58,58,0,0,1-58-58v-37.36c-22-14.16-90.58-64.4-90.58-168.75v-39.58c0-52.08,17.62-82.77,56.57-100.81a8.49,8.49,0,0,1,1.18-.56l19.24-11.55V904.07c0-23.29,10.36-44,27.18-55.64s36.23-14.24,54.35-5.18c3.87,1.3,6.47,3.88,9,6.48V690.14c0-18.07,7.75-33.57,22-45.2s31-15.5,49.1-11.62c25.83,5.16,45.2,29.71,45.2,58.12V834.51a56.12,56.12,0,0,1,32.08-10.27,56.93,56.93,0,0,1,54.22,39,58.74,58.74,0,0,1,2.57,9.54,57.85,57.85,0,0,1,87.26,29,58.58,58.58,0,0,1,3,12.11A7.49,7.49,0,0,1,1523.9,916.64Z" transform="translate(1 1)" fill="#ffe100" stroke="#000" stroke-miterlimit="10" stroke-width="1.51"/><path d="M1523.36,913.84a58.58,58.58,0,0,0-3-12.11,57.85,57.85,0,0,0-87.26-29,58.74,58.74,0,0,0-2.57-9.54,56.93,56.93,0,0,0-54.22-39,56.12,56.12,0,0,0-32.08,10.27V691.44c0-28.41-19.37-53-45.2-58.12-18.09-3.88-34.88,0-49.1,11.62s-22,27.13-22,45.2V849.73c-2.58-2.6-5.18-5.18-9-6.48-18.12-9.06-37.53-6.46-54.35,5.18s-27.18,32.35-27.18,55.64v85.09l-19.24,11.55a8.49,8.49,0,0,0-1.18.56c-39,18-56.57,48.73-56.57,100.81v39.58c0,104.35,68.59,154.59,90.58,168.75v37.36a58,58,0,0,0,58,58h223.32c30.11,0,52.34-30.92,52.34-58v-41.22c39.25-52.81,39.25-63.12,39.25-166.19V916.64A7.49,7.49,0,0,0,1523.36,913.84Zm-179.1-31.08c0-19.55,16.51-34.6,36.62-32.22,16.27,1.92,28.29,16.17,28.29,32.55v142.13c0,16.38-12,30.63-28.29,32.55-20.11,2.39-36.62-12.66-36.62-32.2Zm-181.16,21c0-14.28,6.49-27.26,16.88-35a24.9,24.9,0,0,1,15.58-5.19,24.4,24.4,0,0,1,10.38,2.59c13,6.49,22.07,22.07,22.07,36.35v13c-7.36,4.11-15.24,10.69-23.37,20.76-9.61,11.84-23.86,24.5-41.54,37.06Zm335.14,238.13c0,98.93,0,103.72-32.16,147.57H1447a12.81,12.81,0,0,0-12.87,12.26c-.27,8,4.93,13.41,12.82,13.41h13.59v32.71a32.29,32.29,0,0,1-32.2,32.2H1208.89a32.2,32.2,0,0,1-32.2-32.2v-26.42a134.27,134.27,0,0,0,41.4,7c10.36,0,22-1.28,31.06-5.16,19.41-6.45,33.65-21.92,42.71-41.28,2.58-6.44,0-14.19-6.48-16.77s-14.24,0-16.82,6.46c-6.47,12.9-15.53,21.92-28.47,27.09-22.09,8.56-48.84,2-68.1-6.36a17.32,17.32,0,0,0-1.78-1.39c-3.88-1.28-84.1-43.85-84.1-149.63v-38.7c0-42.57,12.93-65.79,44-78.68a1.21,1.21,0,0,1,.18-.69,11.14,11.14,0,0,0,1.12-.61c41.41-21.92,76.34-47.72,94.45-70.93,9.06-10.33,22-21.94,33.65-14.2,12.94,9,19.42,34.83,11.64,49-23.29,40-81.52,86.43-112.57,94.17-6.48,1.29-10.36,9-9.06,15.48,2.6,5.16,7.76,9,12.94,9h2.69c17-4.87,40.21-18.35,62.87-36.12v14.23a12.82,12.82,0,0,0,12.26,12.86c8,.27,13.41-5,13.41-12.88V1048c15.65-15,29.54-31.47,39-47.59,14.28-26,5.19-66.22-19.48-83.1a43.67,43.67,0,0,0-19.47-7.11V688.81c0-10.38,3.89-19.47,11.68-26s16.88-9.09,27.27-6.49c15.58,3.89,26,18.17,26,33.75v335.05c0,34.79,28.44,61.91,63.1,58.79a57.45,57.45,0,0,0,48.9-37.58,58.26,58.26,0,0,0,67.65,2.53Zm0-142.72c0,16.38-12,30.62-28.29,32.55-20.11,2.39-36.63-12.67-36.63-32.22V921.65a32.15,32.15,0,0,1,32.46-32.46c1.07,0,2.13.06,3.17.15a33.32,33.32,0,0,1,16.14,6.11c.32.23.65.46,1,.71l.85.68a32.31,32.31,0,0,1,11.35,24.81Z" transform="translate(1 1)"/><path d="M1477.24,632.05c0,102.33-83,185.29-185.29,185.29s-185.29-83-185.29-185.29,83-185.29,185.29-185.29S1477.24,529.72,1477.24,632.05Z" transform="translate(1 1)" fill="#ffe100"/><path d="M1291.8,827q-9.61,0-19.24-1A195.35,195.35,0,0,1,1154.1,769.9c-76-76-76-199.68,0-275.69s199.68-76,275.69,0a195,195,0,0,1,25.64,244.09,9.65,9.65,0,0,1-16.17-10.53c45-69.06,35.25-161.54-23.11-219.91-68.49-68.48-179.91-68.48-248.4,0s-68.48,179.91,0,248.39c58.29,58.29,150.69,68.06,219.72,23.25A9.65,9.65,0,0,1,1398,795.68,195.42,195.42,0,0,1,1291.8,827Z" transform="translate(1 1)"/><path d="M1422.68,773a9.65,9.65,0,0,1-6.81-16.49l.29-.29a9.65,9.65,0,1,1,13.61,13.68l-.28.29A9.66,9.66,0,0,1,1422.68,773Z" transform="translate(1 1)"/><path d="M1247.34,606.1a9.66,9.66,0,0,1-9.65-9.65,6,6,0,1,0-12.09,0,9.65,9.65,0,1,1-19.3,0,25.35,25.35,0,1,1,50.7,0A9.65,9.65,0,0,1,1247.34,606.1Z" transform="translate(1 1)"/><path d="M1373.17,606.1a9.65,9.65,0,0,1-9.65-9.65,6,6,0,1,0-12.09,0,9.65,9.65,0,0,1-19.3,0,25.35,25.35,0,1,1,50.69,0A9.65,9.65,0,0,1,1373.17,606.1Z" transform="translate(1 1)"/><path d="M1294.56,729.87a55.15,55.15,0,0,1-55.09-55.09,9.65,9.65,0,0,1,19.3,0,35.79,35.79,0,1,0,71.58,0,9.65,9.65,0,0,1,19.3,0A55.15,55.15,0,0,1,1294.56,729.87Z" transform="translate(1 1)"/><path d="M1481.38,407.68V395a9.85,9.85,0,0,1,8.23-9.85,9.66,9.66,0,0,1,11.08,9.55V408a9.66,9.66,0,0,1-11.08,9.55A9.85,9.85,0,0,1,1481.38,407.68Z" transform="translate(1 1)"/><path d="M1481.38,471.55V458.82a9.84,9.84,0,0,1,8.23-9.84,9.65,9.65,0,0,1,11.08,9.54v13.33a9.66,9.66,0,0,1-11.08,9.55A9.85,9.85,0,0,1,1481.38,471.55Z" transform="translate(1 1)"/><path d="M1529.35,443.05h-13a9.86,9.86,0,0,1-9.85-8.22,9.66,9.66,0,0,1,9.55-11.08h13a9.85,9.85,0,0,1,9.85,8.22A9.66,9.66,0,0,1,1529.35,443.05Z" transform="translate(1 1)"/><path d="M1465.48,443.05h-13a9.86,9.86,0,0,1-9.85-8.22,9.65,9.65,0,0,1,9.55-11.08h13A9.84,9.84,0,0,1,1475,432,9.65,9.65,0,0,1,1465.48,443.05Z" transform="translate(1 1)"/><path d="M1083.79,805.28V792.55a9.85,9.85,0,0,1,8.22-9.85,9.66,9.66,0,0,1,11.08,9.55v13.33a9.66,9.66,0,0,1-11.08,9.55A9.85,9.85,0,0,1,1083.79,805.28Z" transform="translate(1 1)"/><path d="M1083.79,869.15V856.42a9.84,9.84,0,0,1,8.22-9.84,9.65,9.65,0,0,1,11.08,9.54v13.33A9.66,9.66,0,0,1,1092,879,9.85,9.85,0,0,1,1083.79,869.15Z" transform="translate(1 1)"/><path d="M1131.75,840.65h-13a9.85,9.85,0,0,1-9.85-8.23,9.66,9.66,0,0,1,9.55-11.08h13a9.85,9.85,0,0,1,9.85,8.23A9.66,9.66,0,0,1,1131.75,840.65Z" transform="translate(1 1)"/><path d="M1067.88,840.65h-13a9.85,9.85,0,0,1-9.85-8.23,9.66,9.66,0,0,1,9.55-11.08h13a9.84,9.84,0,0,1,9.84,8.23A9.65,9.65,0,0,1,1067.88,840.65Z" transform="translate(1 1)"/><path d="M289.56,1864.89h3.05q7.36,15.1,20.31,51.62,8.35,23.4,11.46,28.7t10,5.9c1.45.14,2.18.62,2.18,1.45,0,.62-.38.93-1.12.93l-.93-.07q-6.06-.53-15.42-.53-14.37,0-18.46.46c-1.36,0-2-.39-2-1.18,0-.57.5-.92,1.51-1.06,3.74-.35,6.32-1,7.75-1.91a4.79,4.79,0,0,0,2.14-4.35q0-2.83-4-14.17l-3.89-11.34q-3.42,0-30.65.4-6.87,18.26-6.87,23a6.46,6.46,0,0,0,3.4,6,15.22,15.22,0,0,0,6.69,2.16c1.63.12,2.44.62,2.44,1.47,0,.35-.26.67-.79,1q-10.55-.45-12.72-.46-11.08,0-14.9.27c-1.41,0-2.11-.4-2.11-1.19s.61-1.14,1.84-1.32q7.59-1,11.61-10.28T272.54,1907Q280.33,1885,289.56,1864.89Zm-2.63,14.37q-6.14,12.52-14.32,36.39c4.52-.22,7.78-.33,9.75-.33l18.53.33q-2.44-6.86-6.85-18.19Q288.64,1883.95,286.93,1879.26Z" transform="translate(1 1)" fill="#fff"/><path d="M379.78,1926.3a31.48,31.48,0,0,1,7.74-21.12q7.75-9,18.89-9a28.68,28.68,0,0,1,13.77,3.53q6.6,3.52,6.6,8.79a5.53,5.53,0,0,1-1.26,3.6,3.66,3.66,0,0,1-2.9,1.55q-3.69,0-5.67-5.94-3-9.09-10.61-9.09a12.58,12.58,0,0,0-11.44,6.5q-3.91,6.5-3.92,17.06,0,12.4,5.47,20.26t13.19,7.86a15.2,15.2,0,0,0,9.82-4,14.74,14.74,0,0,0,5.47-9.49c.22-1.27.7-1.91,1.45-1.91a1,1,0,0,1,1.19,1.18q0,6.47-6,12.13t-16,5.67a23.71,23.71,0,0,1-18.39-8.31A28,28,0,0,1,379.78,1926.3Z" transform="translate(1 1)" fill="#fff"/><path d="M437.55,1925.37a28.77,28.77,0,0,1,8.37-20.41,27.25,27.25,0,0,1,20.57-8.82,27.56,27.56,0,0,1,19.74,7.9,26.17,26.17,0,0,1,8.28,19.75,29.45,29.45,0,0,1-8.71,21q-8.7,9-20.3,9.05a26.72,26.72,0,0,1-19.71-8.33A27.64,27.64,0,0,1,437.55,1925.37Zm10.68-.39q0,11.32,5.24,18.83t12.95,7.5q7.06,0,12.43-7t5.37-18.7a33.77,33.77,0,0,0-5.17-18.53q-5.18-8.13-13.42-8.13-7.63,0-12.52,7.4T448.23,1925Z" transform="translate(1 1)" fill="#fff"/><path d="M520.9,1897.52q.33,4.29.6,24.79.12,12.78.66,17a11.55,11.55,0,0,0,3.33,7,8.9,8.9,0,0,0,6.42,2.77q4.76,0,9.53-4.42a18.5,18.5,0,0,0,5.9-9.46q1.11-5,1.12-23.17,0-8.43-1.06-10.22t-5.14-2c-1,0-1.51-.42-1.51-1.12a1,1,0,0,1,.46-1,10.21,10.21,0,0,1,3-.23h13.19q.58,7.18.59,16.09l-.53,24.78q0,7.65,1.29,9.63a5.14,5.14,0,0,0,4,2.24c1.14.17,1.72.61,1.72,1.32s-1.12,1.18-3.37,1.18H550.7c-1.8,0-2.7-.59-2.7-1.78,0-.35,0-.74.06-1.18.13-1.32.2-2.66.2-4,0-1.14-.07-2.81-.2-5a38.5,38.5,0,0,1-10.41,9.69,21.62,21.62,0,0,1-11.27,3.23,14.08,14.08,0,0,1-8.41-2.43,11.5,11.5,0,0,1-4.48-5.9q-1.1-3.46-1.48-17.24t-.4-21.62c0-2.86-.15-4.64-.46-5.34s-1.28-1.1-2.9-1.19-2.64-.57-2.64-1.32,1.06-1.12,3.17-1.12Z" transform="translate(1 1)" fill="#fff"/><path d="M591.73,1896.47q1.59,3.88,1.91,13.11a31.09,31.09,0,0,1,9.07-9.68,19.45,19.45,0,0,1,10.84-3.23,23.25,23.25,0,0,1,8.67,1.67,12.62,12.62,0,0,1,6.46,5.8q2.28,4.11,2.27,14l-.39,22.19q0,6.12,1,7.67t4.38,2.46c1.54.44,2.31.93,2.31,1.46s-.37,1-1.12,1a7,7,0,0,1-.92-.06,49.85,49.85,0,0,0-9-.6q-5.34,0-11.47.47c-1.62,0-2.44-.38-2.44-1.12,0-.53.44-.88,1.32-1.06a13.78,13.78,0,0,0,4.75-1.64,4.65,4.65,0,0,0,1.58-2.28q.46-1.41.76-9.51t.29-13.17q0-13.87-3.49-18.49a10.55,10.55,0,0,0-8.7-4.61q-7.71,0-12.82,8.34t-5.11,27.78q0,8.83,1.15,11.24c.77,1.61,2.69,2.58,5.77,2.93,1,.09,1.45.51,1.45,1.26s-.48.92-1.45.92l-3.41-.26q-1.85-.13-12.17-.14L578,1953c-1.93,0-2.89-.36-2.89-1.06s1-1.32,3.14-1.71,3.36-1.09,4.06-2.08,1.16-4.28,1.41-9.87.36-12.56.36-20.92q0-11.69-1.59-14.52a6.65,6.65,0,0,0-4.41-3.5c-1.72-.4-2.57-.95-2.57-1.65s.66-1.12,2-1.12l5.34.07Q583.68,1896.67,591.73,1896.47Z" transform="translate(1 1)" fill="#fff"/><path d="M669,1902.33q-.93,14.6-.92,28.65,0,10.83,2.58,14.13a8.85,8.85,0,0,0,7.41,3.3,15.28,15.28,0,0,0,7.75-2.57,6.44,6.44,0,0,1,1.85-.92c.57,0,.86.31.86.92q0,1.59-4.7,5a19,19,0,0,1-11.5,3.43q-6.74,0-10.11-4.69t-3.37-14q0-9.7,1.18-33.27c-.3-.08-2.39-.24-6.26-.46l-3.95-.26c-1,0-1.45-.37-1.45-1s.54-1,1.64-1.38c1.79-.66,4.82-2.58,9.06-5.78s6.72-7.71,7.42-13.54c.18-1.54.68-2.3,1.49-2.3s1.22.61,1.22,1.84c0,.39,0,.81-.07,1.24q-.2,2.57-.2,5.92l.07,10.24,14.44-.19c2.46,0,3.73.28,3.82.85,0,2-.38,3.3-1,3.83Q682.86,1901.35,669,1902.33Z" transform="translate(1 1)" fill="#fff"/><path d="M707,1922.11c-.18,2.24-.26,4-.26,5.34a23.51,23.51,0,0,0,5.51,15.82,17.25,17.25,0,0,0,13.64,6.46q7.94,0,14.74-6.33c1.32-1.19,2.15-1.78,2.51-1.78.7,0,1.08.57,1.12,1.71q-2.5,4.62-8.57,7.78a28.8,28.8,0,0,1-13.52,3.17,24.75,24.75,0,0,1-18.53-7.88q-7.59-7.87-7.58-19.94,0-12.92,8.34-21.55t17.83-8.64q8.89,0,16.08,6.76t7.19,15.85a3.87,3.87,0,0,1-.43,2c-.29.44-2,.66-5.05.66Zm0-3.43q8.6.4,16.65.4l3.5-.2a11.57,11.57,0,0,0,6.08-1.55q2.12-1.41,2.11-5a13.77,13.77,0,0,0-3.79-9.65,11.81,11.81,0,0,0-9-4.12q-4.75,0-9.48,4.71T707,1918.68Z" transform="translate(1 1)" fill="#fff"/><path d="M773.69,1911.25a36.88,36.88,0,0,1,8.87-11.09,15.86,15.86,0,0,1,9.92-3.69,8.62,8.62,0,0,1,6.26,2.6,8.09,8.09,0,0,1,2.64,5.9c0,4.18-1.78,6.26-5.34,6.26q-2.5,0-4.22-3.49c-1.4-2.94-3.27-4.42-5.6-4.42s-4.46,1.24-6.79,3.7a18.84,18.84,0,0,0-4.68,8.09q-1.18,4.38-1.19,18.38,0,12.81,1.06,14.69t5.4,2.41c.79.08,1.19.39,1.19.92,0,.92-1,1.38-3.1,1.38h-21c-1.49,0-2.24-.37-2.24-1.12s1-1.1,3-1.18q4.16-.27,5.14-2.58t1-17q0-21.59-.89-25.94t-6.63-4.62c-1.58-.09-2.37-.5-2.37-1.25a1,1,0,0,1,.5-.89c.32-.2,2.34-.4,6-.63l12.13-.65Q773.16,1900.55,773.69,1911.25Z" transform="translate(1 1)" fill="#fff"/><path d="M811,1920.86h36.45c1.1,0,1.73.1,1.88.3a6,6,0,0,1,.23,2.35v3.72q0,1.93-.33,2.19a6.82,6.82,0,0,1-2.7.27H811q-2.64,0-3-.33t-.36-2.13v-3.72c0-1.37.12-2.15.36-2.35A7.54,7.54,0,0,1,811,1920.86Z" transform="translate(1 1)" fill="#fff"/><path d="M876.19,1896.27l-.06,14.83.13,13.84v10.42l-.07,7.91q0,4.74,1.55,6a7.69,7.69,0,0,0,4.65,1.42c2.42.13,3.63.64,3.63,1.51,0,.71-.47,1.06-1.39,1.06a10.29,10.29,0,0,1-1.18-.07,90.91,90.91,0,0,0-11.41-.79,85.52,85.52,0,0,0-11.67.53,6.54,6.54,0,0,1-1.31.13c-1.06,0-1.59-.39-1.59-1.18s1.23-1.35,3.67-1.65,4-.85,4.68-1.62,1-3,1-6.56l.46-27.29q0-10.93-1.64-13t-6.4-2.14c-1,0-1.58-.35-1.58-1.06a1,1,0,0,1,.53-.92c.35-.22,3-.5,7.84-.86S874.3,1896.31,876.19,1896.27ZM868.88,1864a6.39,6.39,0,0,1,4.48,1.84,5.44,5.44,0,0,1,2,4,6.47,6.47,0,0,1-1.62,4.42,5.61,5.61,0,0,1-4.45,1.85,6.88,6.88,0,0,1-4.48-1.62,5.36,5.36,0,0,1-2-4.38,6,6,0,0,1,1.68-4.42A5.89,5.89,0,0,1,868.88,1864Z" transform="translate(1 1)" fill="#fff"/><path d="M910.63,1896.47q1.59,3.88,1.92,13.11a31,31,0,0,1,9.06-9.68,19.47,19.47,0,0,1,10.84-3.23,23.25,23.25,0,0,1,8.67,1.67,12.58,12.58,0,0,1,6.46,5.8q2.28,4.11,2.28,14l-.4,22.19q0,6.12,1,7.67c.68,1,2.15,1.85,4.39,2.46,1.53.44,2.3.93,2.3,1.46s-.37,1-1.12,1a7.11,7.11,0,0,1-.92-.06,49.73,49.73,0,0,0-9-.6c-3.56,0-7.39.16-11.47.47-1.63,0-2.44-.38-2.44-1.12,0-.53.44-.88,1.31-1.06a13.78,13.78,0,0,0,4.75-1.64,4.59,4.59,0,0,0,1.58-2.28q.47-1.41.76-9.51t.3-13.17q0-13.87-3.5-18.49a10.55,10.55,0,0,0-8.7-4.61q-7.71,0-12.82,8.34t-5.11,27.78q0,8.83,1.16,11.24c.76,1.61,2.69,2.58,5.76,2.93,1,.09,1.46.51,1.46,1.26s-.49.92-1.45.92l-3.42-.26q-1.85-.13-12.16-.14l-5.26.14c-1.93,0-2.9-.36-2.9-1.06s1.05-1.32,3.15-1.71,3.35-1.09,4.05-2.08,1.17-4.28,1.41-9.87.36-12.56.36-20.92q0-11.69-1.58-14.52a6.69,6.69,0,0,0-4.42-3.5c-1.71-.4-2.57-.95-2.57-1.65s.66-1.12,2-1.12l5.34.07Q902.59,1896.67,910.63,1896.47Z" transform="translate(1 1)" fill="#fff"/><path d="M987.92,1902.33q-.92,14.6-.92,28.65,0,10.83,2.58,14.13a8.86,8.86,0,0,0,7.42,3.3,15.25,15.25,0,0,0,7.74-2.57,6.57,6.57,0,0,1,1.85-.92c.57,0,.86.31.86.92q0,1.59-4.69,5a19,19,0,0,1-11.51,3.43q-6.74,0-10.11-4.69t-3.37-14q0-9.7,1.19-33.27c-.31-.08-2.4-.24-6.26-.46l-4-.26c-1,0-1.45-.37-1.45-1s.55-1,1.64-1.38q2.7-1,9.07-5.78t7.42-13.54c.18-1.54.67-2.3,1.48-2.3s1.22.61,1.22,1.84a10.79,10.79,0,0,1-.07,1.24q-.19,2.57-.19,5.92l.06,10.24,14.44-.19c2.46,0,3.73.28,3.82.85,0,2-.37,3.3-1,3.83Q1001.77,1901.35,987.92,1902.33Z" transform="translate(1 1)" fill="#fff"/><path d="M1030.87,1897.52q.33,4.29.59,24.79.13,12.78.66,17a11.55,11.55,0,0,0,3.33,7,8.92,8.92,0,0,0,6.43,2.77q4.74,0,9.52-4.42a18.43,18.43,0,0,0,5.9-9.46q1.13-5,1.12-23.17,0-8.43-1.05-10.22c-.71-1.18-2.42-1.86-5.15-2-1,0-1.51-.42-1.51-1.12a1,1,0,0,1,.46-1,10.35,10.35,0,0,1,3-.23h13.18q.6,7.18.59,16.09l-.52,24.78c0,5.1.42,8.31,1.28,9.63a5.15,5.15,0,0,0,4.06,2.24q1.71.26,1.71,1.32c0,.79-1.12,1.18-3.36,1.18h-10.42c-1.8,0-2.7-.59-2.7-1.78a10.42,10.42,0,0,1,.07-1.18c.13-1.32.19-2.66.19-4,0-1.14-.06-2.81-.19-5a38.53,38.53,0,0,1-10.42,9.69,21.59,21.59,0,0,1-11.27,3.23,14.1,14.1,0,0,1-8.41-2.43,11.55,11.55,0,0,1-4.48-5.9q-1.08-3.46-1.48-17.24t-.4-21.62c0-2.86-.15-4.64-.46-5.34s-1.27-1.1-2.9-1.19-2.64-.57-2.64-1.32,1.06-1.12,3.17-1.12Z" transform="translate(1 1)" fill="#fff"/><path d="M1103.74,1896.27l-.07,14.83.13,13.84v10.42l-.06,7.91c0,3.16.51,5.17,1.55,6a7.66,7.66,0,0,0,4.64,1.42c2.42.13,3.63.64,3.63,1.51,0,.71-.46,1.06-1.38,1.06a10.46,10.46,0,0,1-1.19-.07,90.91,90.91,0,0,0-11.41-.79,85.24,85.24,0,0,0-11.66.53,6.56,6.56,0,0,1-1.32.13c-1.06,0-1.58-.39-1.58-1.18s1.22-1.35,3.66-1.65,4-.85,4.68-1.62,1-3,1-6.56l.46-27.29q0-10.93-1.65-13t-6.39-2.14c-1.06,0-1.58-.35-1.58-1.06a1,1,0,0,1,.52-.92c.35-.22,3-.5,7.85-.86S1101.85,1896.31,1103.74,1896.27Zm-7.32-32.23a6.39,6.39,0,0,1,4.48,1.84,5.44,5.44,0,0,1,2,4,6.51,6.51,0,0,1-1.61,4.42,5.61,5.61,0,0,1-4.45,1.85,6.91,6.91,0,0,1-4.49-1.62,5.38,5.38,0,0,1-2-4.38,6,6,0,0,1,1.68-4.42A5.87,5.87,0,0,1,1096.42,1864Z" transform="translate(1 1)" fill="#fff"/><path d="M1142.4,1902.33q-.93,14.6-.93,28.65,0,10.83,2.59,14.13a8.85,8.85,0,0,0,7.41,3.3,15.28,15.28,0,0,0,7.75-2.57,6.44,6.44,0,0,1,1.85-.92c.57,0,.85.31.85.92q0,1.59-4.69,5a19,19,0,0,1-11.5,3.43c-4.49,0-7.87-1.56-10.11-4.69s-3.37-7.79-3.37-14q0-9.7,1.18-33.27c-.31-.08-2.39-.24-6.26-.46l-4-.26c-1,0-1.45-.37-1.45-1s.55-1,1.65-1.38q2.68-1,9.06-5.78t7.42-13.54c.18-1.54.68-2.3,1.49-2.3s1.21.61,1.21,1.84c0,.39,0,.81-.06,1.24q-.19,2.57-.2,5.92l.07,10.24,14.43-.19c2.46,0,3.74.28,3.83.85-.05,2-.38,3.3-1,3.83Q1156.24,1901.35,1142.4,1902.33Z" transform="translate(1 1)" fill="#fff"/><path d="M1188,1896.27l-.07,14.83.13,13.84v10.42l-.06,7.91c0,3.16.51,5.17,1.55,6a7.66,7.66,0,0,0,4.64,1.42c2.42.13,3.63.64,3.63,1.51,0,.71-.46,1.06-1.38,1.06a10.46,10.46,0,0,1-1.19-.07,90.88,90.88,0,0,0-11.4-.79,85.31,85.31,0,0,0-11.67.53,6.56,6.56,0,0,1-1.32.13c-1,0-1.58-.39-1.58-1.18s1.22-1.35,3.66-1.65,4-.85,4.68-1.62,1-3,1-6.56l.46-27.29q0-10.93-1.65-13t-6.39-2.14c-1.06,0-1.58-.35-1.58-1.06a1,1,0,0,1,.52-.92c.35-.22,3-.5,7.85-.86S1186.09,1896.31,1188,1896.27Zm-7.32-32.23a6.37,6.37,0,0,1,4.48,1.84,5.44,5.44,0,0,1,2,4,6.51,6.51,0,0,1-1.61,4.42,5.61,5.61,0,0,1-4.45,1.85,6.86,6.86,0,0,1-4.48-1.62,5.36,5.36,0,0,1-2-4.38,6,6,0,0,1,1.68-4.42A5.87,5.87,0,0,1,1180.66,1864Z" transform="translate(1 1)" fill="#fff"/><path d="M1238.8,1941.29Q1253,1910,1253,1903q0-3-3.69-3.29c-1.45-.09-2.17-.49-2.17-1.19q0-1.32,1.65-1.32l9.88.14,5.94-.07c1.4,0,2.11.44,2.11,1.32,0,.66-.51,1-1.52,1.12q-5.4.58-7.84,4.58t-6.59,14.6q-7,17.92-10.13,24.59a76.14,76.14,0,0,0-3.62,8.17c-.53,1.49-1.17,2.24-1.91,2.24-.53,0-1.19-.92-2-2.77l-7.86-17-8.18-18.26a103.54,103.54,0,0,0-5.94-12,13.16,13.16,0,0,0-2.64-3.23,9.29,9.29,0,0,0-3.23-1c-1-.17-1.52-.59-1.52-1.25q0-1.32,1.92-1.32l11.47.13q8.1,0,9.09-.06c1.54,0,2.31.41,2.31,1.25q0,1-2.37,1.38-3.36.6-3.36,3.43Q1222.82,1908.33,1238.8,1941.29Z" transform="translate(1 1)" fill="#fff"/><path d="M1282.64,1922.11q-.27,3.36-.27,5.34a23.52,23.52,0,0,0,5.52,15.82,17.22,17.22,0,0,0,13.64,6.46q7.92,0,14.73-6.33c1.32-1.19,2.16-1.78,2.51-1.78.71,0,1.08.57,1.12,1.71q-2.51,4.62-8.57,7.78a28.77,28.77,0,0,1-13.52,3.17,24.76,24.76,0,0,1-18.53-7.88q-7.57-7.87-7.58-19.94,0-12.92,8.34-21.55t17.83-8.64q8.9,0,16.09,6.76t7.18,15.85a3.78,3.78,0,0,1-.43,2c-.29.44-2,.66-5,.66Zm0-3.43q8.58.4,16.65.4l3.5-.2a11.53,11.53,0,0,0,6.07-1.55q2.12-1.41,2.12-5a13.78,13.78,0,0,0-3.8-9.65,11.79,11.79,0,0,0-9-4.12q-4.76,0-9.48,4.71T1282.64,1918.68Z" transform="translate(1 1)" fill="#fff"/><path d="M312.46,2106.46a21.39,21.39,0,0,1-7.71,7,21.6,21.6,0,0,1-10.15,2.34q-6.66,0-10.45-3.56a12.26,12.26,0,0,1-3.79-9.37,15.45,15.45,0,0,1,2.27-8.11,14.77,14.77,0,0,1,5.21-5.41,69.1,69.1,0,0,1,10.32-4.15q10.54-3.49,12.65-5.8a8.54,8.54,0,0,0,2.11-6q0-5.89-2.77-9.16a9.68,9.68,0,0,0-7.84-3.28q-4.15,0-6.26,1.86t-3.23,7.48q-1.19,6.09-5.21,6.09a5.5,5.5,0,0,1-4.94-5.74q0-4.93,5.47-8.6t15-3.66q7.57,0,12.09,2.15t5.67,4.91q1.15,2.77,1.15,10.7l-.39,17.42q0,10.1,1.22,14.35c.81,2.84,2.32,4.26,4.51,4.26a11.14,11.14,0,0,0,1.85-.2l1.12-.13c1,0,1.52.37,1.52,1.1q0,2.53-13,2.53c-2.5,0-4.19-.59-5-1.75S312.55,2110.15,312.46,2106.46Zm0-25.71q-2,2.57-9,6.26t-10,6.79a11.28,11.28,0,0,0-3,7.91,10.48,10.48,0,0,0,2.47,7.05,7.75,7.75,0,0,0,6.16,2.9,12.36,12.36,0,0,0,7.19-2.34,14.22,14.22,0,0,0,5-6q1.6-3.63,1.61-10.75Q312.92,2087.27,312.46,2080.75Z" transform="translate(1 1)" fill="#fff"/><path d="M355.8,2058.53a44.91,44.91,0,0,1,.33,5.14c0,1.32-.11,3.24-.33,5.74q6.52-6.19,10-8a16.36,16.36,0,0,1,7.74-1.81q10.16,0,17.31,8.34a29.2,29.2,0,0,1,7.15,19.61q0,12.2-8.18,19.94a26.84,26.84,0,0,1-19.05,7.74,29.13,29.13,0,0,1-15-4.41,130.49,130.49,0,0,0-1.12,17.86,65.27,65.27,0,0,0,.46,8.9l.2,2.57c.83,2.77,3.05,4.5,6.66,5.21,1.23.26,1.89.77,2,1.51l-.19.66-.47.27q-8.12-.47-12.75-.46-11.69,0-14.07.19c-1,0-1.52-.37-1.52-1.12s.44-1.1,1.32-1.18c4.09-.44,6.64-1.37,7.68-2.77s1.69-7.64,2-18.69.43-18,.43-20.73l-.19-17.93.06-10.68c0-5.54-.37-9.07-1.12-10.61s-2.66-2.42-5.73-2.64c-1-.09-1.52-.46-1.52-1.12a1,1,0,0,1,.56-.92c.38-.22,2.37-.35,6-.4Zm-.53,29.34q0,12.06.6,15.42t4.25,6.26q3.66,2.91,9.59,2.9a15.1,15.1,0,0,0,12.92-6.88q4.88-6.9,4.88-16.85,0-11.32-5-18.16t-12.16-6.82a12.79,12.79,0,0,0-11,5.8Q355.27,2075.34,355.27,2087.87Z" transform="translate(1 1)" fill="#fff"/><path d="M424.65,2058.53a44.91,44.91,0,0,1,.33,5.14c0,1.32-.11,3.24-.33,5.74q6.53-6.19,10-8a16.36,16.36,0,0,1,7.74-1.81q10.15,0,17.31,8.34a29.2,29.2,0,0,1,7.15,19.61q0,12.2-8.18,19.94a26.84,26.84,0,0,1-19.05,7.74,29.13,29.13,0,0,1-15-4.41,130.49,130.49,0,0,0-1.12,17.86,65.27,65.27,0,0,0,.46,8.9l.2,2.57c.83,2.77,3.05,4.5,6.66,5.21,1.23.26,1.89.77,2,1.51l-.19.66-.47.27q-8.12-.47-12.75-.46-11.69,0-14.07.19c-1,0-1.52-.37-1.52-1.12s.44-1.1,1.32-1.18c4.09-.44,6.64-1.37,7.68-2.77s1.69-7.64,2-18.69.43-18,.43-20.73L415,2085.1l.06-10.68c0-5.54-.37-9.07-1.12-10.61s-2.66-2.42-5.73-2.64c-1-.09-1.52-.46-1.52-1.12a1,1,0,0,1,.56-.92c.38-.22,2.37-.35,6-.4Zm-.53,29.34q0,12.06.6,15.42t4.25,6.26q3.66,2.91,9.59,2.9a15.1,15.1,0,0,0,12.92-6.88q4.88-6.9,4.88-16.85,0-11.32-5-18.16t-12.16-6.82a12.79,12.79,0,0,0-11,5.8Q424.12,2075.34,424.12,2087.87Z" transform="translate(1 1)" fill="#fff"/><path d="M495.35,2073.25a36.71,36.71,0,0,1,8.86-11.09,15.86,15.86,0,0,1,9.92-3.69,8.61,8.61,0,0,1,6.26,2.6A8.09,8.09,0,0,1,523,2067c0,4.18-1.78,6.26-5.34,6.26q-2.51,0-4.22-3.49c-1.4-2.94-3.27-4.42-5.6-4.42s-4.46,1.24-6.79,3.7a18.84,18.84,0,0,0-4.68,8.09q-1.18,4.38-1.19,18.38,0,12.81,1.06,14.69t5.4,2.41c.79.08,1.19.39,1.19.92,0,.92-1,1.38-3.1,1.38h-21c-1.49,0-2.24-.37-2.24-1.12s1-1.1,3-1.18q4.16-.27,5.14-2.58t1-17q0-21.58-.89-25.94t-6.63-4.62c-1.58-.09-2.37-.5-2.37-1.25a1,1,0,0,1,.5-.89c.33-.2,2.34-.4,6-.63l12.13-.65Q494.81,2062.55,495.35,2073.25Z" transform="translate(1 1)" fill="#fff"/><path d="M531.57,2087.37a28.77,28.77,0,0,1,8.37-20.41,27.23,27.23,0,0,1,20.56-8.82,27.6,27.6,0,0,1,19.75,7.9,26.2,26.2,0,0,1,8.27,19.75,29.44,29.44,0,0,1-8.7,21q-8.7,9-20.3,9.05a26.72,26.72,0,0,1-19.71-8.33A27.6,27.6,0,0,1,531.57,2087.37Zm10.67-.39q0,11.33,5.25,18.83t13,7.5q7,0,12.42-7t5.38-18.7a33.78,33.78,0,0,0-5.18-18.53q-5.17-8.13-13.41-8.13-7.65,0-12.53,7.4T542.24,2087Z" transform="translate(1 1)" fill="#fff"/><path d="M632.85,2106.46a20.58,20.58,0,0,1-17.87,9.36q-6.66,0-10.44-3.56a12.26,12.26,0,0,1-3.79-9.37,15.36,15.36,0,0,1,2.27-8.11,14.77,14.77,0,0,1,5.21-5.41,69.33,69.33,0,0,1,10.31-4.15q10.55-3.49,12.66-5.8a8.54,8.54,0,0,0,2.11-6q0-5.89-2.77-9.16a9.69,9.69,0,0,0-7.84-3.28q-4.16,0-6.27,1.86t-3.23,7.48q-1.19,6.09-5.2,6.09a5.51,5.51,0,0,1-5-5.74q0-4.93,5.47-8.6t15-3.66q7.59,0,12.1,2.15t5.67,4.91q1.15,2.77,1.15,10.7l-.39,17.42q0,10.1,1.22,14.35t4.51,4.26a11.14,11.14,0,0,0,1.85-.2l1.12-.13c1,0,1.51.37,1.51,1.1q0,2.53-13,2.53c-2.51,0-4.19-.59-5-1.75S632.94,2110.15,632.85,2106.46Zm0-25.71q-2,2.57-9,6.26t-10,6.79a11.28,11.28,0,0,0-3,7.91,10.48,10.48,0,0,0,2.47,7.05,7.75,7.75,0,0,0,6.16,2.9,12.36,12.36,0,0,0,7.19-2.34,14.12,14.12,0,0,0,5-6q1.62-3.63,1.62-10.75Q633.31,2087.27,632.85,2080.75Z" transform="translate(1 1)" fill="#fff"/><path d="M659.25,2088.3a31.48,31.48,0,0,1,7.74-21.12q7.75-9,18.89-9a28.68,28.68,0,0,1,13.77,3.53q6.6,3.52,6.6,8.79a5.53,5.53,0,0,1-1.26,3.6,3.66,3.66,0,0,1-2.9,1.55q-3.69,0-5.67-5.94-3-9.09-10.61-9.09a12.58,12.58,0,0,0-11.44,6.5q-3.92,6.49-3.92,17.06,0,12.41,5.47,20.26t13.19,7.86a15.2,15.2,0,0,0,9.82-4,14.74,14.74,0,0,0,5.47-9.49c.22-1.27.7-1.91,1.45-1.91a1,1,0,0,1,1.19,1.18q0,6.47-6,12.13t-16,5.67a23.71,23.71,0,0,1-18.39-8.31A28,28,0,0,1,659.25,2088.3Z" transform="translate(1 1)" fill="#fff"/><path d="M734.36,2068.13q8-9.86,18.92-9.86,8.7,0,13.35,4.94t4.64,17.6l-.39,17.47c0,5.58.06,9,.2,10.15a4.51,4.51,0,0,0,1.87,3.1,5.84,5.84,0,0,0,3.33,1.39c1.19,0,1.78.26,1.78.79,0,.79-1,1.18-2.9,1.18H755.65c-.75-.17-1.12-.55-1.12-1.12s.5-1,1.52-1.12q4.68-.58,5.53-3.66t.86-19.48q0-17.66-3.53-22.77a10.83,10.83,0,0,0-9.32-5.11,13.72,13.72,0,0,0-10,4.32q-4.32,4.32-5.11,12.69t-.79,20.43c0,5.45.28,9,.86,10.68s2.19,2.77,4.87,3.3c1.1.17,1.65.57,1.65,1.18s-.52,1.06-1.58,1.06l-13.31-.26q-4.29,0-7.45.19-2,0-2-1c0-.62.53-1,1.58-1.12q3.17-.4,4.29-1.78t1.91-10.64q.78-9.26.79-23.68,0-25.75-.23-33.75t-2.34-11.6q-2.12-3.58-5.14-4.18c-1.24-.26-1.85-.7-1.85-1.32,0-.35.14-.56.43-.62a41,41,0,0,1,4.25-.1q6.46,0,13.91-.46l-.2,32.77Q734.16,2063.95,734.36,2068.13Z" transform="translate(1 1)" fill="#fff"/><path d="M844.5,2064.33q-.91,14.6-.92,28.65,0,10.83,2.58,14.13a8.87,8.87,0,0,0,7.42,3.3,15.22,15.22,0,0,0,7.74-2.57,6.57,6.57,0,0,1,1.86-.92c.57,0,.85.31.85.92q0,1.59-4.69,5a19,19,0,0,1-11.5,3.43q-6.75,0-10.12-4.69t-3.37-14q0-9.7,1.19-33.27c-.31-.08-2.4-.24-6.26-.46l-4-.26c-1,0-1.45-.37-1.45-1s.55-1,1.64-1.38q2.7-1,9.07-5.78t7.42-13.54c.18-1.54.67-2.3,1.49-2.3s1.21.61,1.21,1.84c0,.39,0,.81-.06,1.24-.14,1.71-.2,3.68-.2,5.92l.06,10.24,14.44-.19c2.46,0,3.74.28,3.82.85,0,2-.37,3.3-1,3.83Q858.35,2063.35,844.5,2064.33Z" transform="translate(1 1)" fill="#fff"/><path d="M871.56,2087.37a28.77,28.77,0,0,1,8.37-20.41,27.27,27.27,0,0,1,20.57-8.82,27.56,27.56,0,0,1,19.74,7.9,26.17,26.17,0,0,1,8.28,19.75,29.41,29.41,0,0,1-8.71,21q-8.7,9-20.3,9.05a26.73,26.73,0,0,1-19.71-8.33A27.64,27.64,0,0,1,871.56,2087.37Zm10.68-.39q0,11.33,5.24,18.83t13,7.5q7,0,12.42-7t5.37-18.7a33.77,33.77,0,0,0-5.17-18.53q-5.17-8.13-13.42-8.13-7.64,0-12.52,7.4T882.24,2087Z" transform="translate(1 1)" fill="#fff"/><path d="M993.18,2024.59q.2,8.29.33,16.59l-.13,41,.26,19.89q0,5.67,1.61,8.17t7,3c1.41.13,2.11.55,2.11,1.25s-.57,1.12-1.71,1.12a10.13,10.13,0,0,1-1.13-.07q-6.78-.66-16.21-.66a58.15,58.15,0,0,0-9.23.59,12.73,12.73,0,0,1-1.32.07c-1.32,0-2-.4-2-1.22s.6-1.17,1.78-1.22q6-.06,7.88-3.46t1.88-11.37l-.2-37.57q-.06-18.14-.49-21.66a9.92,9.92,0,0,0-2.74-5.89,11.11,11.11,0,0,0-6.46-3c-1.71-.26-2.57-.72-2.57-1.38s.7-1.16,2.11-1.25q12.06-.79,18.13-2.9Z" transform="translate(1 1)" fill="#fff"/><path d="M1032,2058.27l-.06,14.83.13,13.84v10.42l-.07,7.91q0,4.74,1.55,6a7.67,7.67,0,0,0,4.65,1.42c2.41.13,3.62.64,3.62,1.51,0,.71-.46,1.06-1.38,1.06a10.59,10.59,0,0,1-1.19-.07,90.88,90.88,0,0,0-11.4-.79,85.31,85.31,0,0,0-11.67.53,6.56,6.56,0,0,1-1.32.13c-1.05,0-1.58-.39-1.58-1.18s1.22-1.35,3.67-1.65,4-.85,4.68-1.62,1-2.95,1-6.56l.46-27.29q0-10.93-1.65-12.95c-1.09-1.34-3.23-2.05-6.39-2.14-1,0-1.58-.35-1.58-1.06a1,1,0,0,1,.53-.92c.35-.22,3-.5,7.84-.86S1030.08,2058.31,1032,2058.27Zm-7.32-32.23a6.41,6.41,0,0,1,4.49,1.84,5.47,5.47,0,0,1,2,4,6.46,6.46,0,0,1-1.61,4.42,5.61,5.61,0,0,1-4.45,1.85,6.88,6.88,0,0,1-4.48-1.62,5.36,5.36,0,0,1-2-4.38,6,6,0,0,1,1.68-4.42A5.87,5.87,0,0,1,1024.65,2026Z" transform="translate(1 1)" fill="#fff"/><path d="M1082.79,2103.29Q1097,2072,1097,2065q0-3-3.69-3.29c-1.45-.09-2.18-.49-2.18-1.19q0-1.32,1.65-1.32l9.89.14,5.93-.07c1.4,0,2.11.44,2.11,1.32,0,.66-.51,1-1.52,1.12q-5.4.59-7.84,4.58t-6.59,14.6q-7,17.92-10.13,24.59a76.14,76.14,0,0,0-3.62,8.17c-.53,1.49-1.17,2.24-1.91,2.24-.53,0-1.19-.92-2-2.77l-7.86-17-8.18-18.26a100.25,100.25,0,0,0-5.94-12,13.16,13.16,0,0,0-2.64-3.23,9.29,9.29,0,0,0-3.23-1c-1-.17-1.51-.59-1.51-1.25,0-.88.63-1.32,1.91-1.32l11.47.13c5.4,0,8.44,0,9.1-.06,1.53,0,2.3.41,2.3,1.25q0,1-2.37,1.38-3.36.6-3.36,3.43Q1066.81,2070.34,1082.79,2103.29Z" transform="translate(1 1)" fill="#fff"/><path d="M1137.3,2058.27l-.06,14.83.13,13.84v10.42l-.07,7.91q0,4.74,1.55,6a7.69,7.69,0,0,0,4.65,1.42c2.42.13,3.63.64,3.63,1.51,0,.71-.46,1.06-1.39,1.06a10.29,10.29,0,0,1-1.18-.07,90.91,90.91,0,0,0-11.41-.79,85.52,85.52,0,0,0-11.67.53,6.54,6.54,0,0,1-1.31.13c-1.06,0-1.59-.39-1.59-1.18s1.23-1.35,3.67-1.65,4-.85,4.68-1.62,1-2.95,1-6.56l.47-27.29q0-10.93-1.65-12.95t-6.4-2.14c-1,0-1.58-.35-1.58-1.06a1,1,0,0,1,.53-.92c.35-.22,3-.5,7.84-.86S1135.42,2058.31,1137.3,2058.27ZM1130,2026a6.39,6.39,0,0,1,4.48,1.84,5.44,5.44,0,0,1,2,4,6.47,6.47,0,0,1-1.62,4.42,5.6,5.6,0,0,1-4.45,1.85,6.88,6.88,0,0,1-4.48-1.62,5.36,5.36,0,0,1-2-4.38,6,6,0,0,1,1.68-4.42A5.89,5.89,0,0,1,1130,2026Z" transform="translate(1 1)" fill="#fff"/><path d="M1171.75,2058.47q1.57,3.89,1.91,13.11a31,31,0,0,1,9.06-9.68,19.47,19.47,0,0,1,10.84-3.23,23.25,23.25,0,0,1,8.67,1.67,12.58,12.58,0,0,1,6.46,5.8q2.28,4.11,2.28,14l-.4,22.19q0,6.12,1,7.67c.68,1,2.15,1.85,4.39,2.46,1.53.44,2.3.93,2.3,1.46s-.37,1-1.12,1a7.22,7.22,0,0,1-.92-.06,49.73,49.73,0,0,0-9-.6c-3.56,0-7.39.16-11.47.47-1.63,0-2.44-.38-2.44-1.12,0-.53.44-.88,1.31-1.06a13.78,13.78,0,0,0,4.75-1.64,4.53,4.53,0,0,0,1.58-2.28q.46-1.41.76-9.51t.3-13.17q0-13.87-3.5-18.49a10.55,10.55,0,0,0-8.7-4.61q-7.71,0-12.82,8.34t-5.11,27.78q0,8.83,1.16,11.24c.77,1.61,2.69,2.58,5.76,2.93,1,.09,1.46.51,1.46,1.26s-.49.92-1.45.92l-3.42-.26q-1.85-.14-12.16-.14l-5.26.14c-1.93,0-2.9-.36-2.9-1.06s1-1.32,3.15-1.71,3.35-1.09,4-2.08,1.17-4.28,1.41-9.87.36-12.56.36-20.92q0-11.68-1.58-14.52a6.69,6.69,0,0,0-4.42-3.5c-1.71-.4-2.57-.95-2.57-1.65s.66-1.12,2-1.12l5.34.07C1163.42,2058.67,1166.38,2058.6,1171.75,2058.47Z" transform="translate(1 1)" fill="#fff"/><path d="M1276.19,2067.63a19.26,19.26,0,0,1,3,10.42,20.48,20.48,0,0,1-5.61,14.5q-5.67,6-16.21,6.79a64.67,64.67,0,0,0-9.26,1.15,10.34,10.34,0,0,0-4.52,2.51,5.23,5.23,0,0,0-2,3.72q0,2.78,3.16,4.09t13.12,1.64q14.7.54,19.64,1.29a14.12,14.12,0,0,1,12,14.53q0,10-8.83,16.29t-26.11,6.26q-12.78,0-19.21-3.29t-6.43-9.8q0-10.26,19.51-16.71-8.23-1.32-11.6-3.6a7.29,7.29,0,0,1-3.36-6.38,9.77,9.77,0,0,1,3.53-7.44q3.52-3.2,10.58-5.38a20.21,20.21,0,0,1-10.19-6.5,16.53,16.53,0,0,1-3.85-10.91,21.46,21.46,0,0,1,6.85-15.78q6.86-6.77,17.4-6.76,10.29,0,16.75,7.05,6.78-7.71,12.72-7.71a8.5,8.5,0,0,1,6.43,2.37,7.43,7.43,0,0,1,2.27,5.21,3.82,3.82,0,0,1-1.32,3,4.56,4.56,0,0,1-3.16,1.18c-2.24,0-4-1.31-5.34-4-.79-1.58-1.74-2.37-2.84-2.37C1281.44,2063,1279.09,2064.55,1276.19,2067.63Zm-14.7,53.59a35.43,35.43,0,0,0-12.72,2.24q-5.87,2.25-8.67,5.37a10.85,10.85,0,0,0-2.8,7.49q0,5.79,5.6,8.86t14,3.07q12.8,0,19-5.18t6.19-11.3q0-5.28-5.14-7.91T1261.49,2121.22ZM1244,2078.74q0,9.74,4.25,13.85t9,4.11q4.41,0,7.94-4.21t3.53-12.9q0-8.94-3.5-13.85t-8.57-4.9a10.9,10.9,0,0,0-9.13,4.74Q1244,2070.32,1244,2078.74Z" transform="translate(1 1)" fill="#fff"/><path d="M550.55,2268.46a21.39,21.39,0,0,1-7.71,7,21.6,21.6,0,0,1-10.15,2.34q-6.66,0-10.45-3.56a12.26,12.26,0,0,1-3.79-9.37,15.45,15.45,0,0,1,2.27-8.11,14.77,14.77,0,0,1,5.21-5.41,69.1,69.1,0,0,1,10.32-4.15q10.54-3.49,12.65-5.8a8.54,8.54,0,0,0,2.11-6q0-5.89-2.77-9.16a9.68,9.68,0,0,0-7.84-3.28q-4.15,0-6.26,1.86t-3.23,7.48q-1.18,6.09-5.21,6.09a5.5,5.5,0,0,1-4.94-5.74q0-4.93,5.47-8.6t15-3.66q7.57,0,12.09,2.15t5.67,4.91q1.15,2.77,1.15,10.7l-.39,17.42q0,10.1,1.22,14.35c.81,2.84,2.32,4.26,4.51,4.26a11.14,11.14,0,0,0,1.85-.2l1.12-.13c1,0,1.52.37,1.52,1.1q0,2.53-13,2.53c-2.5,0-4.19-.59-5-1.75S550.64,2272.15,550.55,2268.46Zm0-25.71q-2,2.57-9,6.26t-10,6.79a11.28,11.28,0,0,0-3,7.91,10.48,10.48,0,0,0,2.47,7.05,7.75,7.75,0,0,0,6.16,2.9,12.36,12.36,0,0,0,7.19-2.34,14.22,14.22,0,0,0,5-6q1.61-3.63,1.61-10.75Q551,2249.27,550.55,2242.75Z" transform="translate(1 1)" fill="#fff"/><path d="M660.1,2229.63a19.26,19.26,0,0,1,3,10.42,20.51,20.51,0,0,1-5.6,14.5q-5.67,6-16.22,6.79a64.89,64.89,0,0,0-9.26,1.15,10.4,10.4,0,0,0-4.52,2.51,5.23,5.23,0,0,0-2,3.72c0,1.85,1.06,3.21,3.16,4.09s6.44,1.43,13.12,1.64q14.7.54,19.65,1.29a14.1,14.1,0,0,1,12,14.53q0,10-8.83,16.29t-26.1,6.26q-12.79,0-19.22-3.29t-6.43-9.8q0-10.26,19.52-16.71c-5.5-.88-9.36-2.08-11.61-3.6a7.29,7.29,0,0,1-3.36-6.38,9.8,9.8,0,0,1,3.53-7.44q3.52-3.2,10.58-5.38a20.26,20.26,0,0,1-10.19-6.5,16.53,16.53,0,0,1-3.85-10.91,21.46,21.46,0,0,1,6.85-15.78q6.85-6.77,17.41-6.76,10.27,0,16.74,7.05,6.79-7.71,12.72-7.71a8.5,8.5,0,0,1,6.43,2.37,7.39,7.39,0,0,1,2.27,5.21,3.82,3.82,0,0,1-1.32,3,4.54,4.54,0,0,1-3.16,1.18c-2.24,0-4-1.31-5.34-4-.79-1.58-1.74-2.37-2.83-2.37C665.35,2225,663,2226.55,660.1,2229.63Zm-14.7,53.59a35.43,35.43,0,0,0-12.72,2.24q-5.86,2.25-8.67,5.37a10.9,10.9,0,0,0-2.8,7.49q0,5.79,5.6,8.86t14.05,3.07q12.78,0,19-5.18t6.2-11.3q0-5.28-5.15-7.91T645.4,2283.22Zm-17.53-42.48q0,9.74,4.25,13.85t9,4.11q4.41,0,7.94-4.21t3.53-12.9q0-8.94-3.49-13.85t-8.57-4.9a10.88,10.88,0,0,0-9.13,4.74Q627.86,2232.32,627.87,2240.74Z" transform="translate(1 1)" fill="#fff"/><path d="M685.38,2249.37a28.77,28.77,0,0,1,8.37-20.41,27.25,27.25,0,0,1,20.57-8.82,27.56,27.56,0,0,1,19.74,7.9,26.16,26.16,0,0,1,8.27,19.75,29.44,29.44,0,0,1-8.7,21q-8.7,9-20.3,9.05a26.72,26.72,0,0,1-19.71-8.33A27.64,27.64,0,0,1,685.38,2249.37Zm10.68-.39q0,11.33,5.24,18.83t13,7.5q7.07,0,12.43-7t5.37-18.7a33.77,33.77,0,0,0-5.17-18.53q-5.18-8.13-13.42-8.13-7.65,0-12.52,7.4T696.06,2249Z" transform="translate(1 1)" fill="#fff"/><path d="M752.85,2249.37a28.77,28.77,0,0,1,8.37-20.41,27.24,27.24,0,0,1,20.57-8.82,27.59,27.59,0,0,1,19.74,7.9,26.2,26.2,0,0,1,8.27,19.75,29.44,29.44,0,0,1-8.7,21q-8.7,9-20.3,9.05a26.72,26.72,0,0,1-19.71-8.33A27.6,27.6,0,0,1,752.85,2249.37Zm10.68-.39q0,11.33,5.24,18.83t13,7.5q7,0,12.42-7t5.38-18.7a33.78,33.78,0,0,0-5.18-18.53q-5.18-8.13-13.41-8.13-7.65,0-12.53,7.4T763.53,2249Z" transform="translate(1 1)" fill="#fff"/><path d="M872.39,2186.65q.06,14.11.06,38.1l-.52,41.86c0,4.61,2.13,7.3,6.39,8,1.41.27,2.11.73,2.11,1.39a.94.94,0,0,1-.76,1c-.5.13-3.42.19-8.73.19l-8.11-.13c-.13-2.68-.2-4.61-.2-5.8q0-2.23.2-6.39a28.77,28.77,0,0,1-8.11,9.88,16.76,16.76,0,0,1-10.08,3.3q-7.85,0-15.92-7.38t-8.08-19.91a31.84,31.84,0,0,1,7.55-21.16q7.54-9,18.56-9a18.65,18.65,0,0,1,9.55,2.34,17.24,17.24,0,0,1,6.53,7.08c.26-5.17.4-10.05.4-14.61q0-21-1.06-23.3t-4.94-2.76c-1.63-.22-2.44-.65-2.44-1.29s1-1.15,3.1-1.15Zm-9.3,59.06q0-11.21-3.79-16.77c-2.52-3.71-6.34-5.57-11.43-5.57q-8,0-12,6.49t-4,19.48q0,13.11,4.78,18.79T847,2273.8q5.6,0,10.84-6T863.09,2245.71Z" transform="translate(1 1)" fill="#fff"/><path d="M944.7,2186.59q.19,8.29.33,16.59l-.13,41,.26,19.89q0,5.67,1.61,8.17t7,3c1.4.13,2.11.55,2.11,1.25s-.57,1.12-1.72,1.12a10.11,10.11,0,0,1-1.12-.07q-6.78-.66-16.21-.66a58.06,58.06,0,0,0-9.23.59,12.73,12.73,0,0,1-1.32.07c-1.32,0-2-.4-2-1.22s.6-1.17,1.78-1.22q6-.06,7.88-3.46t1.88-11.37l-.2-37.57q-.06-18.14-.49-21.66a9.92,9.92,0,0,0-2.74-5.89,11.11,11.11,0,0,0-6.46-3c-1.71-.26-2.57-.72-2.57-1.38s.7-1.16,2.11-1.25q12.06-.79,18.13-2.9Z" transform="translate(1 1)" fill="#fff"/><path d="M983.49,2220.27l-.07,14.83.13,13.84v10.42l-.06,7.91c0,3.16.51,5.17,1.55,6a7.67,7.67,0,0,0,4.65,1.42c2.41.13,3.62.64,3.62,1.51,0,.71-.46,1.06-1.38,1.06a10.46,10.46,0,0,1-1.19-.07,90.88,90.88,0,0,0-11.4-.79,85.31,85.31,0,0,0-11.67.53,6.56,6.56,0,0,1-1.32.13c-1.06,0-1.58-.39-1.58-1.18s1.22-1.35,3.66-1.65,4-.85,4.68-1.62,1-2.95,1-6.56l.46-27.29q0-10.93-1.65-12.95t-6.39-2.14c-1.06,0-1.58-.35-1.58-1.06a1,1,0,0,1,.52-.92c.35-.22,3-.5,7.85-.86S981.6,2220.31,983.49,2220.27ZM976.17,2188a6.37,6.37,0,0,1,4.48,1.84,5.44,5.44,0,0,1,2,4,6.51,6.51,0,0,1-1.61,4.42,5.61,5.61,0,0,1-4.45,1.85,6.91,6.91,0,0,1-4.49-1.62,5.38,5.38,0,0,1-2-4.38,6,6,0,0,1,1.68-4.42A5.87,5.87,0,0,1,976.17,2188Z" transform="translate(1 1)" fill="#fff"/><path d="M1018.92,2227.13q-.27,2.57-.26,16.47,0,17.94.13,22a11,11,0,0,0,2.21,6.69c1.38,1.74,3.7,2.8,7,3.2,1.23.13,1.84.57,1.84,1.32s-.48.92-1.44.92l-11.08-.66a125.64,125.64,0,0,0-14.44.53h-.72c-1,0-1.45-.32-1.45-1s.77-1.27,2.31-1.48a8.92,8.92,0,0,0,4.28-1.39,4.79,4.79,0,0,0,1.68-2.8q.44-1.81.83-12.71t.39-21.65q0-4.29-.06-9.5c-3.3-.22-5.8-.36-7.52-.4s-2.57-.53-2.57-1.45c0-1.58.4-2.61,1.19-3.1s3.75-.79,8.9-.92q0-11.57,1.78-18.43a20.58,20.58,0,0,1,7.64-11.39q5.87-4.53,14.7-4.52,8.25,0,11.87,2.9a8.86,8.86,0,0,1,3.62,7.18q0,4.62-4.35,4.62a3.52,3.52,0,0,1-2.64-1.12,27.64,27.64,0,0,1-3.16-5.28q-3-5.92-8.5-5.93-7.85,0-10.12,7.79a57.63,57.63,0,0,0-2.27,16.25c0,2.51.08,5.16.26,7.93,1.36,0,2.46-.07,3.29-.07a49.66,49.66,0,0,1,7.62.43c1.65.29,2.47.85,2.47,1.68a4.14,4.14,0,0,1-.79,2.31c-.53.79-1.63,1.26-3.3,1.42s-3.47.23-5.4.23C1021.8,2227.26,1020.5,2227.21,1018.92,2227.13Z" transform="translate(1 1)" fill="#fff"/><path d="M1051.71,2246.11c-.17,2.24-.26,4-.26,5.34a23.56,23.56,0,0,0,5.51,15.82,17.25,17.25,0,0,0,13.65,6.46q7.92,0,14.73-6.33c1.32-1.19,2.16-1.78,2.51-1.78.7,0,1.08.57,1.12,1.71q-2.51,4.62-8.57,7.78a28.8,28.8,0,0,1-13.52,3.17,24.75,24.75,0,0,1-18.53-7.88q-7.57-7.87-7.58-19.94,0-12.91,8.34-21.55t17.83-8.64q8.89,0,16.08,6.76t7.19,15.85a3.87,3.87,0,0,1-.43,2c-.29.44-2,.66-5,.66Zm0-3.43q8.6.41,16.65.4l3.5-.2a11.57,11.57,0,0,0,6.08-1.55q2.11-1.41,2.12-5a13.78,13.78,0,0,0-3.8-9.65,11.81,11.81,0,0,0-9-4.12q-4.75,0-9.48,4.71T1051.71,2242.68Z" transform="translate(1 1)" fill="#fff"/><path d="M97,0V2559.48H65.73A31.89,31.89,0,0,0,60,2560V0Z" transform="translate(1 1)" fill="#bf220a"/></svg>