<?xml version="1.0" encoding="UTF-8" standalone="no"?><!DOCTYPE svg PUBLIC "-//W3C//DTD SVG 1.1//EN" "http://www.w3.org/Graphics/SVG/1.1/DTD/svg11.dtd"><svg width="100%" height="100%" viewBox="0 0 800 1280" version="1.1" xmlns="http://www.w3.org/2000/svg" xmlns:xlink="http://www.w3.org/1999/xlink" xml:space="preserve" xmlns:serif="http://www.serif.com/" style="fill-rule:evenodd;clip-rule:evenodd;stroke-linejoin:round;stroke-miterlimit:1.41421;"><rect x="0" y="0" width="800" height="1280" style="fill:#1a9c77;"/><g transform="matrix(0.5,0,0,0.5,-103.286,109.756)"><text x="408.291px" y="401.778px" style="font-family:'CambriaMath', 'Cambria Math', serif;font-size:280px;">The Monk</text><text x="436.866px" y="730.039px" style="font-family:'CambriaMath', 'Cambria Math', serif;font-size:280px;">Who Sold</text><text x="384.024px" y="1058.3px" style="font-family:'CambriaMath', 'Cambria Math', serif;font-size:280px;">his F<tspan x="937.598px 1074.18px 1189.98px 1301px 1437.71px " y="1058.3px 1058.3px 1058.3px 1058.3px 1058.3px ">errar</tspan>i</text></g><g><path d="M649.007,1145.84c-17.321,-12.139 -53.674,-29.41 -120.252,-29.41l-10.264,0l-131.261,-61.257c-14.95,-6.977 -31.251,-10.593 -47.747,-10.593l-114.17,0c-9.728,0 -19.356,1.975 -28.305,5.807l-118.526,50.797c-7.663,3.287 -15.916,4.977 -24.259,4.977l-7.887,0c-11.334,0 -20.527,9.193 -20.527,20.532l0,64.978c0,9.924 7.097,18.427 16.855,20.202l96.054,17.461l0,10.264l502.946,0c11.334,0 20.527,-9.188 20.527,-20.527l0,-47.942c0,-10.094 -4.916,-19.497 -13.184,-25.289Z" style="fill:#ed4c67;fill-rule:nonzero;"/><path d="M212.189,1073.46l-30.111,13.694c-6.857,3.117 -8.123,9.584 -7.127,14.185c0.99,4.597 4.831,9.959 12.349,9.959l118.106,0l0,-41.054l-78.352,0c-5.162,0 -10.164,1.08 -14.865,3.216Z" style="fill:#ea2027;fill-rule:nonzero;"/><path d="M652.518,1198.55c-8.043,0 -15.025,-4.851 -18.677,-12.024c-11.864,-23.318 -36.067,-39.299 -64.027,-39.299c-27.96,0 -52.168,15.981 -64.032,39.299c-3.652,7.173 -10.629,12.024 -18.677,12.024l-204.692,0l0,-41.059l-98.209,0c-4.932,0 -9.903,-0.825 -14.335,-2.991c-9.423,-4.607 -19.957,-7.273 -31.156,-7.273c-11.214,0 -21.768,2.651 -31.196,7.268c-4.436,2.171 -9.418,2.996 -14.365,2.996l-67.343,0l0,34.187c0,1.205 0.11,2.386 0.315,3.531c0.195,1.141 0.5,2.246 0.88,3.316c0,0.005 0,0.015 0.005,0.025c2.406,6.763 8.258,11.98 15.655,13.33l96.049,17.461l20.532,10.264l482.419,0c11.334,0 20.527,-9.188 20.527,-20.527l0,-20.528l-9.673,0Z" style="fill:#ea2027;fill-rule:nonzero;"/><path d="M282.413,1157.49l-41.054,0l24.634,32.847c3.876,5.171 9.963,8.212 16.42,8.212l41.06,0l-24.634,-32.846c-3.881,-5.172 -9.963,-8.213 -16.426,-8.213Z" style="fill:#6f6571;fill-rule:nonzero;"/><path d="M621.137,1219.07c0,28.345 -22.978,51.323 -51.323,51.323c-28.345,0 -51.323,-22.978 -51.323,-51.323c0,-28.345 22.978,-51.323 51.323,-51.323c28.345,0 51.323,22.978 51.323,51.323Z" style="fill:#5d5360;fill-rule:nonzero;"/><path d="M190.036,1219.07c0,28.345 -22.978,51.323 -51.323,51.323c-28.345,0 -51.318,-22.978 -51.318,-51.323c0,-28.345 22.973,-51.323 51.318,-51.323c28.345,0 51.323,22.978 51.323,51.323Z" style="fill:#5d5360;fill-rule:nonzero;"/><path d="M273.195,1105.68c5.852,6.822 14.39,10.754 23.383,10.754l221.913,0l-131.266,-61.257c-11.029,-5.152 -22.798,-8.438 -34.832,-9.823l-130.901,0l51.703,60.326Z" style="fill:#a4ccff;fill-rule:nonzero;"/><path d="M387.225,1055.18c-11.029,-5.152 -22.798,-8.438 -34.832,-9.823l-130.901,0l25.729,30.02l183.289,0l-43.285,-20.197Z" style="fill:#c3ddff;fill-rule:nonzero;"/><path d="M654.564,1138.01c-36.743,-25.774 -88.696,-31.181 -125.809,-31.181l-8.133,0l-129.335,-60.356c-16.111,-7.522 -34.027,-11.494 -51.804,-11.494l-114.17,0c-11.093,0 -21.887,2.216 -32.086,6.582l-118.526,50.798c-6.508,2.791 -13.395,4.207 -20.478,4.207l-7.887,0c-16.611,-0.005 -30.131,13.514 -30.131,30.13l0,65.193c0,14.39 10.254,26.83 24.379,29.575l38.003,7.393c4.697,28.96 29.865,51.143 60.126,51.143c22.638,0 42.415,-12.419 52.919,-30.796l325.264,0c10.503,18.377 30.28,30.796 52.918,30.796c22.633,0 42.415,-12.419 52.919,-30.796l18.931,0c16.611,0 30.131,-13.515 30.131,-30.13l0,-47.942c0,-13.17 -6.442,-25.554 -17.231,-33.122Zm-271.4,-74.131l92.042,42.95l-137.053,0l-45.126,-52.643l46.451,0c14.996,0 30.101,3.351 43.686,9.693Zm-115.431,-9.693l45.126,52.643l-16.281,0c-6.192,0 -12.059,-2.696 -16.09,-7.402l-38.779,-45.241l26.024,0Zm-69.094,175.811c0.645,-3.546 1,-7.192 1,-10.923c0,-4.092 -0.41,-8.188 -1.22,-12.175c-1.055,-5.196 -6.122,-8.553 -11.319,-7.502c-5.202,1.055 -8.558,6.127 -7.503,11.324c0.556,2.726 0.836,5.537 0.836,8.353c0,23.003 -18.717,41.714 -41.72,41.714c-23.003,0 -41.715,-18.711 -41.715,-41.714c0,-23.003 18.712,-41.72 41.715,-41.72c5.827,0 11.454,1.175 16.736,3.491c4.852,2.126 10.519,-0.085 12.649,-4.941c2.131,-4.857 -0.08,-10.519 -4.936,-12.65c-7.728,-3.386 -15.956,-5.107 -24.449,-5.107c-30.261,0 -55.429,22.183 -60.126,51.143l-34.337,-6.677c-5.122,-0.995 -8.843,-5.507 -8.843,-10.724l0,-35.062l10.929,0c5.302,0 9.603,-4.302 9.603,-9.604c0,-5.301 -4.301,-9.603 -9.603,-9.603l-10.924,0l0,-10.924c0,-6.027 4.902,-10.924 10.924,-10.924l7.887,0c9.699,0 19.132,-1.94 28.045,-5.757l118.522,-50.797c5.197,-2.226 10.594,-3.702 16.12,-4.452l48.998,57.16c7.682,8.968 18.861,14.11 30.67,14.11l232.177,0c25.664,0 71.455,3.006 105.382,21.848l-2.736,0c-5.307,0 -9.604,4.301 -9.604,9.603c0,5.307 4.297,9.603 9.604,9.603l20.792,0c0.255,1.321 0.395,2.671 0.395,4.042l0,17.811l-29.855,0c-10.504,-18.376 -30.281,-30.791 -52.919,-30.791c-22.638,0 -42.415,12.415 -52.918,30.791l-18.927,0c-5.307,0 -9.603,4.297 -9.603,9.603c0,5.302 4.296,9.604 9.603,9.604l11.919,0c-0.645,3.546 -1,7.192 -1,10.924c0,3.731 0.355,7.377 1,10.923l-311.249,0Zm371.175,30.791c-23.003,0 -41.72,-18.711 -41.72,-41.714c0,-23.003 18.717,-41.72 41.72,-41.72c23.003,0 41.72,18.717 41.72,41.72c0,23.003 -18.717,41.714 -41.72,41.714Zm71.85,-30.791l-11.924,0c0.645,-3.546 1,-7.192 1,-10.923c0,-3.732 -0.355,-7.378 -1,-10.924l22.848,0l0,10.924c0,6.022 -4.902,10.923 -10.924,10.923Z" style="fill-rule:nonzero;"/><path d="M456.91,1188.94l-128.636,0l-21.752,-29.005c-5.662,-7.548 -14.675,-12.054 -24.109,-12.054l-41.054,0c-3.641,0 -6.962,2.055 -8.588,5.312c-1.631,3.251 -1.28,7.147 0.905,10.053l24.634,32.847c5.657,7.547 14.67,12.054 24.103,12.054l174.497,0c5.301,0 9.603,-4.302 9.603,-9.604c0,-5.306 -4.302,-9.603 -9.603,-9.603Zm-174.497,0c-3.421,0 -6.687,-1.635 -8.738,-4.371l-13.109,-17.482l21.847,0c3.422,0 6.688,1.636 8.743,4.372l13.11,17.481l-21.853,0Z" style="fill-rule:nonzero;"/><path d="M138.713,1199.21c-10.954,0 -19.867,8.913 -19.867,19.867c0,10.953 8.913,19.867 19.867,19.867c10.959,0 19.867,-8.914 19.867,-19.867c0,-10.954 -8.908,-19.867 -19.867,-19.867Z" style="fill-rule:nonzero;"/><path d="M569.814,1199.21c-10.954,0 -19.867,8.913 -19.867,19.867c0,10.953 8.913,19.867 19.867,19.867c10.954,0 19.867,-8.914 19.867,-19.867c0,-10.954 -8.913,-19.867 -19.867,-19.867Z" style="fill-rule:nonzero;"/></g><g><rect x="614.851" y="963.495" width="41.283" height="41.283" style="fill:#d6a15b;fill-rule:nonzero;"/><path d="M690.536,870.526c0,-13.246 -10.754,-24 -24,-24l-62.088,0c-13.246,0 -24,10.754 -24,24l0,68.969c0,13.246 10.754,24 24,24l62.088,0c13.246,0 24,-10.754 24,-24l0,-68.969Z" style="fill:#edba70;"/><path d="M759.342,1048.81l0,231.186l-247.699,0l0,-231.186c0,-0.016 0,-0.032 0,-0.048c0,-24.131 19.856,-43.987 43.987,-43.987c0.016,0 0.032,0 0.048,0l158.94,0c24.296,-0.055 44.402,19.741 44.724,44.035Z" style="fill:#f7941e;fill-rule:nonzero;"/><path d="M649.253,1128.63l0,54.976c0,0.007 0,0.013 0,0.02c0,52.87 -43.505,96.376 -96.375,96.376c-0.007,0 -0.014,0 -0.021,0l-41.214,0l0,-151.372l137.61,0Z" style="fill:#dd7e17;fill-rule:nonzero;"/><path d="M484.12,1149.27l-34.402,0l0,34.403c0,11.323 9.318,20.641 20.641,20.641l27.522,0" style="fill:#edba70;fill-rule:nonzero;"/><rect x="504.762" y="1094.23" width="110.089" height="34.403" style="fill:#fdca2f;fill-rule:nonzero;"/><path d="M635.492,1128.63l0,34.403c0,0.014 0,0.027 0,0.041c0,41.498 -34.147,75.645 -75.644,75.645c-0.014,0 -0.028,0 -0.042,0c-2.736,0.013 -5.471,-0.148 -8.188,-0.482c-38.233,-4.088 -67.551,-36.753 -67.498,-75.204l0,-34.403l151.372,0Z" style="fill:#5e3011;fill-rule:nonzero;"/><path d="M676.775,1004.78l0,137.61l41.284,-13.761l0,-123.849l-41.284,0Z" style="fill:#ce730f;fill-rule:nonzero;"/><path d="M690.536,887.81l0,34.402c0,22.647 -18.635,41.283 -41.283,41.283l-8.944,0l0,-116.969l8.944,0c22.648,0 41.283,18.636 41.283,41.284Z" style="fill:#c9934c;fill-rule:nonzero;"/><path d="M551.618,1238.24c-38.233,-4.088 -67.551,-36.753 -67.498,-75.204l0,-34.403l48.164,0l0,63.095c-0.03,10.329 2.4,20.519 7.087,29.724c3.144,6.223 7.281,11.894 12.247,16.788Z" style="fill:#844215;fill-rule:nonzero;"/><path d="M555.678,997.898c-27.932,0 -50.916,22.984 -50.916,50.916l0,38.531c-3.775,0 -6.881,3.106 -6.881,6.881l0,27.522l-13.761,0c-3.774,0 -6.88,3.106 -6.88,6.88l0,13.761l-27.522,0c-3.775,0 -6.881,3.106 -6.881,6.881l0,34.403c0,15.098 12.424,27.522 27.522,27.522l22.52,0c3.503,4.849 7.52,9.306 11.979,13.293c0,0.165 -0.096,0.303 -0.096,0.468l0,48.163c0,3.775 3.106,6.881 6.881,6.881c3.774,0 6.88,-3.106 6.88,-6.881l0,-38.696c33.886,19.755 77.43,12.596 103.208,-16.967c6.007,-0.654 15.791,-1.92 27.749,-4.218c6.843,5.033 14.045,9.556 21.55,13.534c-10.041,7.355 -20.655,13.894 -31.74,19.555c-2.327,1.164 -3.803,3.552 -3.803,6.154c0,3.776 3.107,6.882 6.882,6.882c1.069,0 2.123,-0.249 3.079,-0.727c13.944,-7.026 27.106,-15.507 39.268,-25.3c19.051,8.415 39.619,12.863 60.445,13.073c2.404,0 4.837,-0.066 7.3,-0.199l0,26.909c0,3.775 3.106,6.881 6.881,6.881c3.774,0 6.88,-3.106 6.88,-6.881l0,-178.893c0,-3.775 -3.106,-6.881 -6.88,-6.881c-3.775,0 -6.881,3.106 -6.881,6.881l0,58.966c-33.714,32.008 -90.878,44.476 -119.948,48.913c6.484,-12.001 9.873,-25.433 9.86,-39.074l0,-34.403c0,-3.774 -3.106,-6.88 -6.881,-6.88l-13.761,0l0,-27.522c0,-3.775 -3.106,-6.881 -6.88,-6.881l-48.164,0l0,-19.954c19.609,1.26 70.697,0.248 103.208,-39.391l0,42.591c-8.812,7.407 -18.87,13.192 -29.703,17.084c-2.839,0.912 -4.776,3.57 -4.776,6.551c0,3.775 3.106,6.881 6.88,6.881c0.026,0 0.051,-0.001 0.077,-0.001c0.739,-0.003 1.473,-0.124 2.174,-0.358c8.94,-3.18 17.453,-7.451 25.348,-12.715l0,54.356c0,0.001 0,0.001 0,0.002c0,3.775 3.106,6.88 6.88,6.88c0.739,0 1.474,-0.119 2.175,-0.352l41.283,-13.761c2.804,-0.934 4.707,-3.575 4.706,-6.53l0,-115.531c16.101,4.368 27.402,19.035 27.522,35.717l0,17.889c0,3.775 3.106,6.881 6.881,6.881c3.774,0 6.88,-3.106 6.88,-6.881l0,-17.889c-0.202,-26.377 -20.746,-48.504 -47.035,-50.661c-0.368,-0.119 -0.745,-0.204 -1.128,-0.255l-55.045,0l0,-29.552c20.333,-6.085 34.371,-24.91 34.403,-46.134l0,-34.402c-0.03,-26.411 -21.753,-48.134 -48.164,-48.164l-27.522,0c-26.41,0.03 -48.133,21.753 -48.164,48.164l0,34.402c0.033,21.224 14.07,40.049 34.403,46.134l0,29.552l-52.292,0Zm196.783,234.379c-22.456,0.98 -44.82,-3.485 -65.179,-13.011c-0.598,-0.392 -1.256,-0.685 -1.947,-0.867c-5.905,-2.76 -11.649,-5.855 -17.202,-9.269c30.386,-6.76 59.079,-19.637 84.328,-37.842l0,60.989Zm-282.102,-34.843c-7.549,0 -13.761,-6.212 -13.761,-13.761l0,-27.523l20.642,0l0,6.881c0.01,11.883 2.604,23.622 7.603,34.403l-14.484,0Zm137.611,-75.686l-55.044,0c-3.775,0 -6.881,3.106 -6.881,6.88c0,3.775 3.106,6.881 6.881,6.881l75.686,0l0,27.522c-0.004,14.904 -4.881,29.406 -13.885,41.283l-0.372,0l0,0.42c-12.991,17.022 -33.218,27.031 -54.631,27.031c-37.7,0 -68.723,-31.023 -68.723,-68.723c0,-0.004 0,-0.007 0,-0.011l0,-27.522l34.403,0c3.774,0 6.88,-3.106 6.88,-6.881c0,-3.774 -3.106,-6.88 -6.88,-6.88l-13.761,0l0,-20.642l96.327,0l0,20.642Zm-47.042,-68.716c-0.371,-0.061 -0.746,-0.092 -1.122,-0.092c-3.774,0 -6.88,3.106 -6.88,6.88c0,0.001 0,0.002 0,0.003l0,27.522l-34.403,0l0,-38.531c0,-20.383 16.772,-37.155 37.155,-37.155l109.194,0c-34.127,52.086 -100.937,41.861 -103.944,41.373Zm150.25,-41.373l0,112.008l-27.522,9.172l0,-121.18l27.522,0Zm-123.85,-89.447l0,-34.402c0.023,-18.865 15.539,-34.381 34.403,-34.403l27.522,0c18.864,0.022 34.38,15.538 34.403,34.403l0,34.402c-0.023,18.864 -15.539,34.38 -34.403,34.403l-27.522,0c-18.864,-0.023 -34.38,-15.539 -34.403,-34.403Zm34.403,48.164l27.522,0l0,27.522l-27.522,0l0,-27.522Z" style="fill-rule:nonzero;"/><path d="M559.806,1176.79l6.881,0c3.774,0 6.88,-3.106 6.88,-6.881c0,-3.774 -3.106,-6.88 -6.88,-6.88l-6.881,0c-3.774,0 -6.88,3.106 -6.88,6.88c0,3.775 3.106,6.881 6.88,6.881Z" style="fill-rule:nonzero;"/><path d="M587.328,1176.79l6.881,0c3.775,0 6.881,-3.106 6.881,-6.881c0,-3.774 -3.106,-6.88 -6.881,-6.88l-6.881,0c-3.774,0 -6.88,3.106 -6.88,6.88c0,3.775 3.106,6.881 6.88,6.881Z" style="fill-rule:nonzero;"/></g></svg>