<?xml version="1.0" encoding="UTF-8" standalone="no"?><!DOCTYPE svg PUBLIC "-//W3C//DTD SVG 1.1//EN" "http://www.w3.org/Graphics/SVG/1.1/DTD/svg11.dtd"><svg width="100%" height="100%" viewBox="0 0 800 1280" version="1.1" xmlns="http://www.w3.org/2000/svg" xmlns:xlink="http://www.w3.org/1999/xlink" xml:space="preserve" xmlns:serif="http://www.serif.com/" style="fill-rule:evenodd;clip-rule:evenodd;stroke-linejoin:round;stroke-miterlimit:1.41421;"><rect x="0" y="0" width="800" height="1280" style="fill:#15ebc6;"/><rect x="32.5" y="0" width="18.75" height="1280" style="fill:#0a6b5b;"/><g><path d="M700.597,1145.84c-17.321,-12.139 -53.674,-29.41 -120.252,-29.41l-10.264,0l-131.261,-61.257c-14.95,-6.977 -31.25,-10.593 -47.746,-10.593l-114.17,0c-9.729,0 -19.357,1.975 -28.305,5.807l-118.527,50.797c-7.662,3.287 -15.915,4.977 -24.258,4.977l-7.888,0c-11.334,0 -20.527,9.193 -20.527,20.532l0,64.978c0,9.924 7.097,18.427 16.856,20.202l96.053,17.461l0,10.264l502.947,0c11.334,0 20.527,-9.188 20.527,-20.527l0,-47.942c0,-10.094 -4.917,-19.497 -13.185,-25.289Z" style="fill:#ed4c67;fill-rule:nonzero;"/><path d="M263.779,1073.46l-30.11,13.694c-6.858,3.117 -8.123,9.584 -7.128,14.185c0.99,4.597 4.832,9.959 12.349,9.959l118.107,0l0,-41.054l-78.353,0c-5.161,0 -10.163,1.08 -14.865,3.216Z" style="fill:#ea2027;fill-rule:nonzero;"/><path d="M704.108,1198.55c-8.042,0 -15.025,-4.851 -18.676,-12.024c-11.864,-23.318 -36.068,-39.299 -64.028,-39.299c-27.959,0 -52.168,15.981 -64.032,39.299c-3.651,7.173 -10.629,12.024 -18.677,12.024l-204.691,0l0,-41.059l-98.21,0c-4.931,0 -9.903,-0.825 -14.335,-2.991c-9.423,-4.607 -19.957,-7.273 -31.156,-7.273c-11.214,0 -21.767,2.651 -31.195,7.268c-4.437,2.171 -9.419,2.996 -14.366,2.996l-67.343,0l0,34.187c0,1.205 0.11,2.386 0.315,3.531c0.195,1.141 0.5,2.246 0.88,3.316c0,0.005 0,0.015 0.005,0.025c2.406,6.763 8.258,11.98 15.656,13.33l96.048,17.461l20.533,10.264l482.419,0c11.334,0 20.527,-9.188 20.527,-20.527l0,-20.528l-9.674,0Z" style="fill:#ea2027;fill-rule:nonzero;"/><path d="M334.004,1157.49l-41.055,0l24.634,32.847c3.876,5.171 9.963,8.212 16.421,8.212l41.059,0l-24.633,-32.846c-3.882,-5.172 -9.964,-8.213 -16.426,-8.213Z" style="fill:#6f6571;fill-rule:nonzero;"/><path d="M672.727,1219.07c0,28.345 -22.978,51.323 -51.323,51.323c-28.345,0 -51.323,-22.978 -51.323,-51.323c0,-28.345 22.978,-51.323 51.323,-51.323c28.345,0 51.323,22.978 51.323,51.323Z" style="fill:#5d5360;fill-rule:nonzero;"/><path d="M241.626,1219.07c0,28.345 -22.978,51.323 -51.323,51.323c-28.345,0 -51.318,-22.978 -51.318,-51.323c0,-28.345 22.973,-51.323 51.318,-51.323c28.345,0 51.323,22.978 51.323,51.323Z" style="fill:#5d5360;fill-rule:nonzero;"/><path d="M706.154,1138.01c-36.743,-25.774 -88.696,-31.181 -125.809,-31.181l-8.133,0l-129.335,-60.356c-16.111,-7.522 -34.027,-11.494 -51.803,-11.494l-114.17,0c-11.094,0 -21.888,2.216 -32.086,6.582l-118.527,50.798c-6.507,2.791 -13.395,4.207 -20.477,4.207l-7.888,0c-16.611,-0.005 -30.13,13.514 -30.13,30.13l0,65.193c0,14.39 10.253,26.83 24.378,29.575l38.003,7.393c4.697,28.96 29.866,51.143 60.126,51.143c22.638,0 42.415,-12.419 52.919,-30.796l325.264,0c10.504,18.377 30.28,30.796 52.918,30.796c22.633,0 42.415,-12.419 52.919,-30.796l18.932,0c16.61,0 30.13,-13.515 30.13,-30.13l0,-47.942c0,-13.17 -6.442,-25.554 -17.231,-33.122Zm-271.4,-74.131l92.042,42.95l-137.053,0l-45.126,-52.643l46.452,0c14.995,0 30.1,3.351 43.685,9.693Zm-115.43,-9.693l45.125,52.643l-16.28,0c-6.192,0 -12.06,-2.696 -16.091,-7.402l-38.779,-45.241l26.025,0Zm-69.095,175.811c0.646,-3.546 1.001,-7.192 1.001,-10.923c0,-4.092 -0.41,-8.188 -1.221,-12.175c-1.055,-5.196 -6.122,-8.553 -11.319,-7.502c-5.201,1.055 -8.558,6.127 -7.502,11.324c0.555,2.726 0.835,5.537 0.835,8.353c0,23.003 -18.717,41.714 -41.72,41.714c-23.003,0 -41.714,-18.711 -41.714,-41.714c0,-23.003 18.711,-41.72 41.714,-41.72c5.827,0 11.454,1.175 16.736,3.491c4.852,2.126 10.519,-0.085 12.65,-4.941c2.13,-4.857 -0.08,-10.519 -4.937,-12.65c-7.728,-3.386 -15.956,-5.107 -24.449,-5.107c-30.26,0 -55.429,22.183 -60.126,51.143l-34.337,-6.677c-5.121,-0.995 -8.843,-5.507 -8.843,-10.724l0,-35.062l10.929,0c5.302,0 9.603,-4.302 9.603,-9.604c0,-5.301 -4.301,-9.603 -9.603,-9.603l-10.924,0l0,-10.924c0,-6.027 4.902,-10.924 10.924,-10.924l7.888,0c9.698,0 19.132,-1.94 28.045,-5.757l118.521,-50.797c5.197,-2.226 10.594,-3.702 16.121,-4.452l48.997,57.16c7.683,8.968 18.862,14.11 30.671,14.11l232.176,0c25.664,0 71.455,3.006 105.382,21.848l-2.736,0c-5.307,0 -9.603,4.301 -9.603,9.603c0,5.307 4.296,9.603 9.603,9.603l20.792,0c0.255,1.321 0.395,2.671 0.395,4.042l0,17.811l-29.855,0c-10.504,-18.376 -30.281,-30.791 -52.919,-30.791c-22.638,0 -42.414,12.415 -52.918,30.791l-18.927,0c-5.307,0 -9.603,4.297 -9.603,9.603c0,5.302 4.296,9.604 9.603,9.604l11.919,0c-0.645,3.546 -1,7.192 -1,10.924c0,3.731 0.355,7.377 1,10.923l-311.249,0Zm371.175,30.791c-23.003,0 -41.719,-18.711 -41.719,-41.714c0,-23.003 18.716,-41.72 41.719,-41.72c23.003,0 41.72,18.717 41.72,41.72c0,23.003 -18.717,41.714 -41.72,41.714Zm71.851,-30.791l-11.925,0c0.646,-3.546 1.001,-7.192 1.001,-10.923c0,-3.732 -0.355,-7.378 -1.001,-10.924l22.848,0l0,10.924c0,6.022 -4.901,10.923 -10.923,10.923Z" style="fill-rule:nonzero;"/><path d="M508.5,1188.94l-128.635,0l-21.753,-29.005c-5.662,-7.548 -14.675,-12.054 -24.108,-12.054l-41.055,0c-3.641,0 -6.962,2.055 -8.588,5.312c-1.63,3.251 -1.28,7.147 0.906,10.053l24.633,32.847c5.657,7.547 14.67,12.054 24.104,12.054l174.496,0c5.302,0 9.603,-4.302 9.603,-9.604c0,-5.306 -4.301,-9.603 -9.603,-9.603Zm-174.496,0c-3.421,0 -6.688,-1.635 -8.738,-4.371l-13.11,-17.482l21.848,0c3.421,0 6.687,1.636 8.743,4.372l13.109,17.481l-21.852,0Z" style="fill-rule:nonzero;"/></g><g><rect x="548.373" y="963.495" width="35.609" height="41.283" style="fill:#d6a15b;fill-rule:nonzero;"/><path d="M613.657,870.526c0,-13.246 -10.754,-24 -24,-24l-46.959,0c-13.246,0 -24,10.754 -24,24l0,68.969c0,13.246 10.754,24 24,24l46.959,0c13.246,0 24,-10.754 24,-24l0,-68.969Z" style="fill:#edba70;"/><path d="M673.006,1048.81l0,231.186l-213.657,0l0,-231.186c0,-0.016 0,-0.032 0,-0.048c0,-24.131 17.128,-43.987 37.942,-43.987c0.014,0 0.028,0 0.041,0l137.097,0c20.957,-0.055 38.299,19.741 38.577,44.035Z" style="fill:#f7941e;fill-rule:nonzero;"/><path d="M578.047,1128.63l0,54.976c0,0.007 0,0.013 0,0.02c0,52.87 -37.526,96.376 -83.13,96.376c-0.006,0 -0.012,0 -0.018,0l-35.55,0l0,-151.372l118.698,0Z" style="fill:#dd7e17;fill-rule:nonzero;"/><path d="M435.609,1149.27l-29.674,0l0,34.403c0,11.323 8.037,20.641 17.805,20.641l23.739,0" style="fill:#edba70;fill-rule:nonzero;"/><rect x="453.414" y="1094.23" width="94.959" height="34.403" style="fill:#fdca2f;fill-rule:nonzero;"/><path d="M566.177,1128.63l0,34.403c0,0.014 0,0.027 0,0.041c0,41.498 -29.454,75.645 -65.248,75.645c-0.012,0 -0.024,0 -0.036,0c-2.36,0.013 -4.719,-0.148 -7.062,-0.482c-32.979,-4.088 -58.268,-36.753 -58.222,-75.204l0,-34.403l130.568,0Z" style="fill:#5e3011;fill-rule:nonzero;"/><path d="M601.787,1004.78l0,137.61l35.609,-13.761l0,-123.849l-35.609,0Z" style="fill:#ce730f;fill-rule:nonzero;"/><path d="M613.657,887.81l0,34.402c0,22.647 -16.075,41.283 -35.61,41.283l-7.715,0l0,-116.969l7.715,0c19.535,0 35.61,18.636 35.61,41.284Z" style="fill:#c9934c;fill-rule:nonzero;"/><path d="M493.831,1238.24c-32.979,-4.088 -58.268,-36.753 -58.222,-75.204l0,-34.403l41.545,0l0,63.095c-0.026,10.329 2.069,20.519 6.113,29.724c2.712,6.223 6.28,11.894 10.564,16.788Z" style="fill:#844215;fill-rule:nonzero;"/><path d="M497.332,997.898c-24.092,0 -43.918,22.984 -43.918,50.916l0,38.531c-3.256,0 -5.935,3.106 -5.935,6.881l0,27.522l-11.87,0c-3.255,0 -5.934,3.106 -5.934,6.88l0,13.761l-23.74,0c-3.256,0 -5.935,3.106 -5.935,6.881l0,34.403c0,15.098 10.716,27.522 23.74,27.522l19.425,0c3.021,4.849 6.485,9.306 10.332,13.293c0,0.165 -0.083,0.303 -0.083,0.468l0,48.163c0,3.775 2.679,6.881 5.935,6.881c3.256,0 5.935,-3.106 5.935,-6.881l0,-38.696c29.229,19.755 66.788,12.596 89.024,-16.967c5.181,-0.654 13.62,-1.92 23.935,-4.218c5.902,5.033 12.115,9.556 18.588,13.534c-8.661,7.355 -17.816,13.894 -27.378,19.555c-2.007,1.164 -3.28,3.552 -3.28,6.154c0,3.776 2.68,6.882 5.936,6.882c0.922,0 1.832,-0.249 2.656,-0.727c12.028,-7.026 23.381,-15.507 33.871,-25.3c16.433,8.415 34.174,12.863 52.138,13.073c2.073,0 4.172,-0.066 6.297,-0.199l0,26.909c0,3.775 2.679,6.881 5.935,6.881c3.256,0 5.935,-3.106 5.935,-6.881l0,-178.893c0,-3.775 -2.679,-6.881 -5.935,-6.881c-3.256,0 -5.935,3.106 -5.935,6.881l0,58.966c-29.081,32.008 -78.388,44.476 -103.463,48.913c5.592,-12.001 8.516,-25.433 8.504,-39.074l0,-34.403c0,-3.774 -2.679,-6.88 -5.935,-6.88l-11.869,0l0,-27.522c0,-3.775 -2.68,-6.881 -5.935,-6.881l-41.545,0l0,-19.954c16.915,1.26 60.982,0.248 89.024,-39.391l0,42.591c-7.601,7.407 -16.276,13.192 -25.621,17.084c-2.448,0.912 -4.119,3.57 -4.119,6.551c0,3.775 2.679,6.881 5.934,6.881c0.022,0 0.044,-0.001 0.066,-0.001c0.638,-0.003 1.271,-0.124 1.876,-0.358c7.711,-3.18 15.054,-7.451 21.864,-12.715l0,54.356c0,0.001 0,0.001 0,0.002c0,3.775 2.679,6.88 5.935,6.88c0.637,0 1.271,-0.119 1.875,-0.352l35.61,-13.761c2.418,-0.934 4.06,-3.575 4.059,-6.53l0,-115.531c13.888,4.368 23.636,19.035 23.74,35.717l0,17.889c0,3.775 2.679,6.881 5.935,6.881c3.256,0 5.935,-3.106 5.935,-6.881l0,-17.889c-0.175,-26.377 -17.895,-48.504 -40.571,-50.661c-0.318,-0.119 -0.643,-0.204 -0.974,-0.255l-47.479,0l0,-29.552c17.538,-6.085 29.647,-24.91 29.675,-46.134l0,-34.402c-0.026,-26.411 -18.764,-48.134 -41.545,-48.164l-23.739,0c-22.781,0.03 -41.519,21.753 -41.545,48.164l0,34.402c0.028,21.224 12.136,40.049 29.675,46.134l0,29.552l-45.106,0Zm169.739,234.379c-19.37,0.98 -38.661,-3.485 -56.222,-13.011c-0.516,-0.392 -1.083,-0.685 -1.679,-0.867c-5.094,-2.76 -10.048,-5.855 -14.837,-9.269c26.209,-6.76 50.959,-19.637 72.738,-37.842l0,60.989Zm-243.331,-34.843c-6.512,0 -11.87,-6.212 -11.87,-13.761l0,-27.523l17.805,0l0,6.881c0.008,11.883 2.246,23.622 6.558,34.403l-12.493,0Zm118.698,-75.686l-47.479,0c-3.256,0 -5.935,3.106 -5.935,6.88c0,3.775 2.679,6.881 5.935,6.881l65.284,0l0,27.522c-0.003,14.904 -4.21,29.406 -11.977,41.283l-0.321,0l0,0.42c-11.205,17.022 -28.652,27.031 -47.123,27.031c-32.519,0 -59.278,-31.023 -59.278,-68.723c0,-0.004 0,-0.007 0,-0.011l0,-27.522l29.675,0c3.256,0 5.935,-3.106 5.935,-6.881c0,-3.774 -2.679,-6.88 -5.935,-6.88l-11.87,0l0,-20.642l83.089,0l0,20.642Zm-40.577,-68.716c-0.32,-0.061 -0.643,-0.092 -0.968,-0.092c-3.255,0 -5.934,3.106 -5.934,6.88c0,0.001 0,0.002 0,0.003l0,27.522l-29.675,0l0,-38.531c0,-20.383 14.467,-37.155 32.048,-37.155l94.187,0c-29.437,52.086 -87.065,41.861 -89.658,41.373Zm129.6,-41.373l0,112.008l-23.739,9.172l0,-121.18l23.739,0Zm-106.828,-89.447l0,-34.402c0.02,-18.865 13.403,-34.381 29.675,-34.403l23.739,0c16.272,0.022 29.655,15.538 29.675,34.403l0,34.402c-0.02,18.864 -13.403,34.38 -29.675,34.403l-23.739,0c-16.272,-0.023 -29.655,-15.539 -29.675,-34.403Zm29.675,48.164l23.739,0l0,27.522l-23.739,0l0,-27.522Z" style="fill-rule:nonzero;"/><path d="M500.893,1176.79l5.935,0c3.256,0 5.935,-3.106 5.935,-6.881c0,-3.774 -2.679,-6.88 -5.935,-6.88l-5.935,0c-3.255,0 -5.934,3.106 -5.934,6.88c0,3.775 2.679,6.881 5.934,6.881Z" style="fill-rule:nonzero;"/><path d="M524.633,1176.79l5.935,0c3.256,0 5.935,-3.106 5.935,-6.881c0,-3.774 -2.679,-6.88 -5.935,-6.88l-5.935,0c-3.256,0 -5.935,3.106 -5.935,6.88c0,3.775 2.679,6.881 5.935,6.881Z" style="fill-rule:nonzero;"/></g><g><path d="M170.716,167.812l-27.246,0l0,70.372l-22.5,0l0,-70.372l-27.246,0l0,-16.875l76.992,0l0,16.875Z" style="fill-rule:nonzero;"/><path d="M249.173,238.184l-21.152,0l0,-32.637c0,-2.656 -0.137,-5.303 -0.411,-7.94c-0.273,-2.636 -0.742,-4.58 -1.406,-5.83c-0.781,-1.445 -1.924,-2.5 -3.428,-3.164c-1.503,-0.664 -3.603,-0.996 -6.298,-0.996c-1.914,0 -3.858,0.313 -5.83,0.938c-1.973,0.625 -4.112,1.621 -6.416,2.988l0,46.641l-21.153,0l0,-91.172l21.153,0l0,32.636c3.745,-2.929 7.343,-5.175 10.796,-6.738c3.452,-1.562 7.285,-2.344 11.498,-2.344c7.101,0 12.65,2.071 16.649,6.211c3.999,4.141 5.998,10.332 5.998,18.575l0,42.832Z" style="fill-rule:nonzero;"/><path d="M333.372,209.18l-48.281,0c0.312,5.156 2.275,9.101 5.889,11.836c3.613,2.734 8.935,4.101 15.966,4.101c4.454,0 8.77,-0.801 12.95,-2.402c4.179,-1.602 7.48,-3.32 9.902,-5.156l2.344,0l0,16.933c-4.766,1.914 -9.258,3.301 -13.477,4.16c-4.219,0.86 -8.887,1.289 -14.004,1.289c-13.203,0 -23.32,-2.968 -30.351,-8.906c-7.032,-5.937 -10.547,-14.394 -10.547,-25.371c0,-10.859 3.33,-19.463 9.99,-25.81c6.66,-6.348 15.791,-9.522 27.393,-9.522c10.703,0 18.75,2.705 24.14,8.115c5.391,5.41 8.086,13.194 8.086,23.35l0,7.383Zm-20.976,-12.364c-0.118,-4.414 -1.211,-7.734 -3.282,-9.961c-2.07,-2.226 -5.293,-3.339 -9.668,-3.339c-4.062,0 -7.402,1.054 -10.019,3.164c-2.617,2.109 -4.082,5.488 -4.395,10.136l27.364,0Z" style="fill-rule:nonzero;"/><path d="M481.907,238.184l-22.382,0l0,-58.418l-16.172,37.91l-15.528,0l-16.172,-37.91l0,58.418l-21.211,0l0,-87.247l26.133,0l19.629,43.77l19.571,-43.77l26.132,0l0,87.247Z" style="fill-rule:nonzero;"/><path d="M552.923,238.184l-55.371,0l0,-16.993l55.371,0l0,16.993Zm-27.715,-89.707c8.359,0 15.488,2.968 21.387,8.906c5.937,5.937 8.906,13.066 8.906,21.387l0,3.046c0,8.36 -2.969,15.508 -8.906,21.446c-5.899,5.898 -13.028,8.847 -21.387,8.847c-8.32,0 -15.449,-2.949 -21.387,-8.847c-5.937,-5.938 -8.906,-13.086 -8.906,-21.446l0,-3.046c0,-8.321 2.969,-15.45 8.906,-21.387c5.938,-5.938 13.067,-8.906 21.387,-8.906Zm0,17.05c-3.672,0 -6.797,1.289 -9.375,3.868c-2.617,2.617 -3.926,5.742 -3.926,9.375l0,3.046c0,3.672 1.309,6.817 3.926,9.434c2.578,2.578 5.703,3.867 9.375,3.867c3.672,0 6.797,-1.289 9.375,-3.867c2.617,-2.617 3.926,-5.762 3.926,-9.434l0,-3.046c0,-3.633 -1.309,-6.758 -3.926,-9.375c-2.578,-2.579 -5.703,-3.868 -9.375,-3.868Z" style="fill-rule:nonzero;"/><path d="M635.54,238.184l-21.152,0l0,-32.637c0,-2.656 -0.137,-5.303 -0.41,-7.94c-0.274,-2.636 -0.743,-4.58 -1.407,-5.83c-0.781,-1.445 -1.923,-2.5 -3.427,-3.164c-1.504,-0.664 -3.604,-0.996 -6.299,-0.996c-1.914,0 -3.858,0.313 -5.83,0.938c-1.973,0.625 -4.112,1.621 -6.416,2.988l0,46.641l-21.153,0l0,-65.801l21.153,0l0,7.265c3.745,-2.929 7.344,-5.175 10.796,-6.738c3.453,-1.562 7.285,-2.344 11.499,-2.344c7.1,0 12.649,2.071 16.648,6.211c3.999,4.141 5.998,10.332 5.998,18.575l0,42.832Z" style="fill-rule:nonzero;"/><path d="M724.778,238.184l-24.551,0l-18.445,-28.613l-5.695,7.013l0,21.6l-21.152,0l0,-91.172l21.152,0l0,54.382l22.658,-29.011l24.334,0l-23.641,28.359l25.34,37.442Z" style="fill-rule:nonzero;"/><path d="M213.812,372.383l-20.391,65.801l-22.391,0l-13.41,-44.356l-13.244,44.356l-22.615,0l-20.215,-65.801l22.127,0l11.296,45.351l14.038,-45.351l18.691,0l13.349,45.351l11.111,-45.351l21.654,0Z" style="fill-rule:nonzero;"/><path d="M292.503,438.184l-21.152,0l0,-32.637c0,-2.656 -0.137,-5.303 -0.41,-7.94c-0.274,-2.636 -0.743,-4.58 -1.407,-5.83c-0.781,-1.445 -1.924,-2.5 -3.427,-3.164c-1.504,-0.664 -3.604,-0.996 -6.299,-0.996c-1.914,0 -3.858,0.313 -5.83,0.938c-1.973,0.625 -4.112,1.621 -6.416,2.988l0,46.641l-21.153,0l0,-91.172l21.153,0l0,32.636c3.745,-2.929 7.344,-5.175 10.796,-6.738c3.452,-1.562 7.285,-2.344 11.499,-2.344c7.1,0 12.649,2.071 16.648,6.211c3.999,4.141 5.998,10.332 5.998,18.575l0,42.832Z" style="fill-rule:nonzero;"/><path d="M379.163,405.312c0,10.821 -3.154,19.346 -9.463,25.577c-6.308,6.23 -15.166,9.345 -26.572,9.345c-11.406,0 -20.264,-3.115 -26.572,-9.345c-6.309,-6.231 -9.463,-14.756 -9.463,-25.577c0,-10.898 3.174,-19.453 9.521,-25.664c6.348,-6.211 15.186,-9.316 26.514,-9.316c11.484,0 20.361,3.125 26.631,9.375c6.269,6.25 9.404,14.785 9.404,25.605Zm-25.957,15.997c1.367,-1.68 2.393,-3.702 3.076,-6.065c0.684,-2.363 1.026,-5.635 1.026,-9.814c0,-3.868 -0.352,-7.11 -1.055,-9.727c-0.703,-2.617 -1.68,-4.707 -2.93,-6.269c-1.25,-1.602 -2.754,-2.735 -4.511,-3.399c-1.758,-0.664 -3.653,-0.996 -5.684,-0.996c-2.031,0 -3.838,0.273 -5.42,0.82c-1.582,0.547 -3.096,1.641 -4.541,3.282c-1.289,1.523 -2.314,3.613 -3.076,6.269c-0.762,2.656 -1.143,5.996 -1.143,10.02c0,3.593 0.332,6.709 0.996,9.345c0.665,2.637 1.641,4.756 2.93,6.358c1.25,1.523 2.744,2.637 4.483,3.34c1.738,0.703 3.72,1.054 5.947,1.054c1.914,0 3.74,-0.322 5.478,-0.966c1.739,-0.645 3.213,-1.729 4.424,-3.252Z" style="fill-rule:nonzero;"/><path d="M506.312,410.762c0,8.593 -3.643,15.576 -10.928,20.947c-7.285,5.371 -17.178,8.057 -29.678,8.057c-7.226,0 -13.525,-0.635 -18.896,-1.905c-5.371,-1.269 -10.401,-2.881 -15.088,-4.834l0,-20.918l2.461,0c4.648,3.711 9.853,6.563 15.615,8.555c5.762,1.992 11.299,2.988 16.611,2.988c1.367,0 3.164,-0.117 5.391,-0.351c2.226,-0.235 4.043,-0.625 5.449,-1.172c1.719,-0.703 3.135,-1.582 4.248,-2.637c1.113,-1.055 1.67,-2.617 1.67,-4.687c0,-1.914 -0.81,-3.565 -2.432,-4.951c-1.621,-1.387 -3.994,-2.452 -7.119,-3.194c-3.281,-0.781 -6.748,-1.514 -10.4,-2.197c-3.652,-0.684 -7.08,-1.553 -10.283,-2.608c-7.344,-2.382 -12.627,-5.615 -15.85,-9.697c-3.223,-4.082 -4.834,-9.15 -4.834,-15.205c0,-8.125 3.643,-14.756 10.928,-19.892c7.285,-5.137 16.65,-7.706 28.096,-7.706c5.742,0 11.416,0.557 17.021,1.67c5.606,1.114 10.459,2.51 14.561,4.19l0,20.097l-2.403,0c-3.515,-2.812 -7.822,-5.166 -12.92,-7.06c-5.097,-1.895 -10.302,-2.842 -15.615,-2.842c-1.875,0 -3.74,0.127 -5.596,0.381c-1.855,0.254 -3.642,0.732 -5.361,1.436c-1.523,0.586 -2.832,1.474 -3.926,2.666c-1.093,1.191 -1.64,2.548 -1.64,4.072c0,2.305 0.879,4.072 2.636,5.303c1.758,1.23 5.079,2.353 9.961,3.369c3.203,0.664 6.28,1.308 9.229,1.933c2.949,0.625 6.123,1.485 9.521,2.578c6.68,2.188 11.612,5.166 14.795,8.936c3.184,3.77 4.776,8.662 4.776,14.678Z" style="fill-rule:nonzero;"/><path d="M587.816,405.312c0,10.821 -3.155,19.346 -9.463,25.577c-6.309,6.23 -15.166,9.345 -26.573,9.345c-11.406,0 -20.263,-3.115 -26.572,-9.345c-6.308,-6.231 -9.463,-14.756 -9.463,-25.577c0,-10.898 3.174,-19.453 9.522,-25.664c6.347,-6.211 15.185,-9.316 26.513,-9.316c11.485,0 20.362,3.125 26.631,9.375c6.27,6.25 9.405,14.785 9.405,25.605Zm-25.957,15.997c1.367,-1.68 2.392,-3.702 3.076,-6.065c0.683,-2.363 1.025,-5.635 1.025,-9.814c0,-3.868 -0.351,-7.11 -1.055,-9.727c-0.703,-2.617 -1.679,-4.707 -2.929,-6.269c-1.25,-1.602 -2.754,-2.735 -4.512,-3.399c-1.758,-0.664 -3.652,-0.996 -5.684,-0.996c-2.031,0 -3.838,0.273 -5.42,0.82c-1.582,0.547 -3.095,1.641 -4.541,3.282c-1.289,1.523 -2.314,3.613 -3.076,6.269c-0.761,2.656 -1.142,5.996 -1.142,10.02c0,3.593 0.332,6.709 0.996,9.345c0.664,2.637 1.64,4.756 2.929,6.358c1.25,1.523 2.745,2.637 4.483,3.34c1.738,0.703 3.721,1.054 5.947,1.054c1.914,0 3.74,-0.322 5.479,-0.966c1.738,-0.645 3.213,-1.729 4.424,-3.252Z" style="fill-rule:nonzero;"/><rect x="602.933" y="347.012" width="21.152" height="91.172" style="fill-rule:nonzero;"/><path d="M707.933,438.184l-21.153,0l0,-6.856c-3.628,2.969 -7.022,5.156 -10.183,6.563c-3.16,1.406 -6.808,2.109 -10.943,2.109c-7.998,0 -14.396,-3.086 -19.195,-9.258c-4.799,-6.172 -7.198,-14.492 -7.198,-24.961c0,-5.586 0.809,-10.537 2.428,-14.853c1.619,-4.317 3.833,-8.018 6.643,-11.104c2.652,-2.929 5.871,-5.205 9.656,-6.826c3.784,-1.621 7.568,-2.432 11.353,-2.432c3.941,0 7.169,0.42 9.685,1.26c2.517,0.84 5.101,1.904 7.754,3.194l0,-28.008l21.153,0l0,91.172Zm-21.153,-18.112l0,-32.335c-1.48,-0.626 -3.039,-1.076 -4.676,-1.35c-1.637,-0.274 -3.138,-0.41 -4.502,-0.41c-5.534,0 -9.685,1.731 -12.452,5.193c-2.767,3.462 -4.151,8.265 -4.151,14.407c0,6.455 1.111,11.14 3.332,14.055c2.222,2.915 5.788,4.372 10.699,4.372c1.909,0 3.936,-0.362 6.08,-1.086c2.143,-0.724 4.033,-1.673 5.67,-2.846Z" style="fill-rule:nonzero;"/><path d="M136.175,638.184l-21.152,0l0,-32.637c0,-2.656 -0.137,-5.303 -0.411,-7.94c-0.273,-2.636 -0.742,-4.58 -1.406,-5.83c-0.781,-1.445 -1.924,-2.5 -3.428,-3.164c-1.503,-0.664 -3.603,-0.996 -6.298,-0.996c-1.914,0 -3.858,0.313 -5.83,0.938c-1.973,0.625 -4.112,1.621 -6.416,2.988l0,46.641l-21.153,0l0,-91.172l21.153,0l0,32.636c3.745,-2.929 7.343,-5.175 10.796,-6.738c3.452,-1.562 7.285,-2.344 11.498,-2.344c7.101,0 12.65,2.071 16.649,6.211c3.999,4.141 5.998,10.332 5.998,18.575l0,42.832Z" style="fill-rule:nonzero;"/><path d="M176.722,638.184l-21.153,0l0,-65.801l21.153,0l0,65.801Zm0.586,-75.176l-22.324,0l0,-15.996l22.324,0l0,15.996Z" style="fill-rule:nonzero;"/><path d="M253.773,617.324c0,6.797 -3.047,12.276 -9.141,16.436c-6.094,4.16 -14.434,6.24 -25.02,6.24c-5.859,0 -11.171,-0.547 -15.937,-1.641c-4.766,-1.093 -8.594,-2.304 -11.484,-3.632l0,-17.344l1.933,0c1.055,0.742 2.276,1.553 3.662,2.431c1.387,0.879 3.35,1.827 5.889,2.842c2.187,0.899 4.668,1.67 7.441,2.315c2.774,0.644 5.743,0.966 8.907,0.966c4.14,0 7.207,-0.458 9.199,-1.376c1.992,-0.918 2.988,-2.276 2.988,-4.073c0,-1.601 -0.586,-2.763 -1.758,-3.486c-1.172,-0.723 -3.398,-1.416 -6.679,-2.08c-1.563,-0.352 -3.682,-0.733 -6.358,-1.143c-2.676,-0.41 -5.107,-0.908 -7.295,-1.494c-5.976,-1.562 -10.41,-3.994 -13.301,-7.295c-2.89,-3.301 -4.335,-7.412 -4.335,-12.334c0,-6.328 2.998,-11.592 8.994,-15.791c5.996,-4.199 14.189,-6.299 24.58,-6.299c4.922,0 9.638,0.498 14.15,1.495c4.512,0.996 8.037,2.06 10.576,3.193l0,16.641l-1.816,0c-3.125,-2.149 -6.69,-3.897 -10.693,-5.245c-4.004,-1.347 -8.057,-2.021 -12.159,-2.021c-3.398,0 -6.259,0.469 -8.584,1.406c-2.324,0.938 -3.486,2.266 -3.486,3.985c0,1.562 0.527,2.753 1.582,3.574c1.055,0.82 3.535,1.64 7.441,2.461c2.149,0.429 4.463,0.849 6.944,1.259c2.48,0.411 4.971,0.928 7.471,1.553c5.546,1.445 9.648,3.721 12.304,6.826c2.656,3.106 3.985,6.983 3.985,11.631Z" style="fill-rule:nonzero;"/><path d="M372.484,567.813l-40.137,0l0,16.23l37.207,0l0,16.875l-37.207,0l0,37.266l-22.383,0l0,-87.246l62.52,0l0,16.875Z" style="fill-rule:nonzero;"/><path d="M451.644,609.18l-48.282,0c0.313,5.156 2.276,9.101 5.889,11.836c3.613,2.734 8.936,4.101 15.967,4.101c4.453,0 8.769,-0.801 12.949,-2.402c4.18,-1.602 7.481,-3.32 9.902,-5.156l2.344,0l0,16.933c-4.765,1.914 -9.258,3.301 -13.476,4.16c-4.219,0.86 -8.887,1.289 -14.004,1.289c-13.203,0 -23.321,-2.968 -30.352,-8.906c-7.031,-5.937 -10.547,-14.394 -10.547,-25.371c0,-10.859 3.33,-19.463 9.991,-25.81c6.66,-6.348 15.791,-9.522 27.392,-9.522c10.703,0 18.75,2.705 24.141,8.115c5.39,5.41 8.086,13.194 8.086,23.35l0,7.383Zm-20.977,-12.364c-0.117,-4.414 -1.211,-7.734 -3.281,-9.961c-2.07,-2.226 -5.293,-3.339 -9.668,-3.339c-4.063,0 -7.402,1.054 -10.02,3.164c-2.617,2.109 -4.082,5.488 -4.394,10.136l27.363,0Z" style="fill-rule:nonzero;"/><path d="M514.222,592.48l-1.871,0c-0.896,-0.312 -2.338,-0.546 -4.326,-0.703c-1.988,-0.156 -3.645,-0.234 -4.97,-0.234c-3.001,0 -5.651,0.195 -7.951,0.586c-2.3,0.391 -4.775,1.055 -7.425,1.992l0,44.063l-21.153,0l0,-65.801l21.153,0l0,9.668c4.638,-3.985 8.672,-6.631 12.102,-7.94c3.43,-1.308 6.587,-1.963 9.471,-1.963c0.741,0 1.579,0.02 2.514,0.059c0.936,0.039 1.754,0.098 2.456,0.176l0,20.097Z" style="fill-rule:nonzero;"/><path d="M573.87,592.48l-1.87,0c-0.897,-0.312 -2.339,-0.546 -4.327,-0.703c-1.988,-0.156 -3.644,-0.234 -4.969,-0.234c-3.002,0 -5.652,0.195 -7.952,0.586c-2.3,0.391 -4.775,1.055 -7.425,1.992l0,44.063l-21.152,0l0,-65.801l21.152,0l0,9.668c4.638,-3.985 8.672,-6.631 12.102,-7.94c3.43,-1.308 6.587,-1.963 9.472,-1.963c0.74,0 1.578,0.02 2.514,0.059c0.935,0.039 1.754,0.098 2.455,0.176l0,20.097Z" style="fill-rule:nonzero;"/><path d="M625.667,620.972l0,-13.667c-2.851,0.233 -5.937,0.555 -9.258,0.963c-3.32,0.409 -5.84,0.886 -7.558,1.432c-2.11,0.661 -3.721,1.625 -4.834,2.89c-1.114,1.266 -1.67,2.931 -1.67,4.994c0,1.363 0.117,2.473 0.351,3.33c0.235,0.856 0.821,1.674 1.758,2.453c0.899,0.779 1.973,1.353 3.223,1.723c1.25,0.37 3.203,0.555 5.859,0.555c2.11,0 4.248,-0.429 6.416,-1.285c2.168,-0.857 4.072,-1.986 5.713,-3.388Zm0,10.239c-1.133,0.859 -2.539,1.894 -4.219,3.105c-1.679,1.211 -3.261,2.168 -4.746,2.872c-2.07,0.937 -4.218,1.63 -6.445,2.08c-2.227,0.449 -4.668,0.673 -7.324,0.673c-6.25,0 -11.485,-1.933 -15.703,-5.8c-4.219,-3.868 -6.329,-8.809 -6.329,-14.825c0,-4.804 1.075,-8.73 3.223,-11.777c2.149,-3.047 5.195,-5.449 9.141,-7.207c3.906,-1.758 8.75,-3.008 14.531,-3.75c5.781,-0.742 11.777,-1.289 17.988,-1.641l0,-0.351c0,-3.633 -1.484,-6.143 -4.453,-7.529c-2.969,-1.387 -7.344,-2.081 -13.125,-2.081c-3.476,0 -7.187,0.616 -11.133,1.846c-3.945,1.231 -6.777,2.178 -8.496,2.842l-1.933,0l0,-15.879c2.226,-0.586 5.849,-1.279 10.869,-2.08c5.019,-0.801 10.049,-1.201 15.088,-1.201c11.992,0 20.654,1.846 25.986,5.537c5.332,3.691 7.998,9.482 7.998,17.373l0,44.766l-20.918,0l0,-6.973Z" style="fill-rule:nonzero;"/><path d="M713.675,592.48l-1.871,0c-0.896,-0.312 -2.338,-0.546 -4.326,-0.703c-1.988,-0.156 -3.645,-0.234 -4.97,-0.234c-3.001,0 -5.651,0.195 -7.951,0.586c-2.3,0.391 -4.775,1.055 -7.425,1.992l0,44.063l-21.152,0l0,-65.801l21.152,0l0,9.668c4.638,-3.985 8.672,-6.631 12.102,-7.94c3.43,-1.308 6.587,-1.963 9.471,-1.963c0.741,0 1.579,0.02 2.514,0.059c0.936,0.039 1.755,0.098 2.456,0.176l0,20.097Z" style="fill-rule:nonzero;"/><path d="M746.78,638.184l-21.152,0l0,-65.801l21.152,0l0,65.801Zm0.586,-75.176l-22.324,0l0,-15.996l22.324,0l0,15.996Z" style="fill-rule:nonzero;"/></g></svg>