<svg id="Layer_1" data-name="Layer 1" xmlns="http://www.w3.org/2000/svg" viewBox="0 0 1600 2560"><title>ways_to_find_idea</title><rect width="1600" height="2560" fill="#ffaf11"/><path d="M643.76,1846v92.3H956.24V1846a329.71,329.71,0,0,0,170.32-284.69c2.44-179.49-140.49-329.65-318.72-333.86-184-4.34-334.43,144.72-334.43,329.26A329.72,329.72,0,0,0,643.76,1846Z" fill="#ffaf11"/><path d="M643.76,1847.37H632.47v91.12a11.29,11.29,0,0,0,3.3,7.94,11.41,11.41,0,0,0,8,3.29h312.5a11.25,11.25,0,0,0,11.28-11.23v-91.12H956.24l5.41,9.84a339,339,0,0,0,127.68-121.11,332.42,332.42,0,0,0,48.83-173.84c0-92.7-37.9-176.72-99.12-237.45a340.28,340.28,0,0,0-478.56,0c-61.23,60.73-99.13,144.75-99.13,237.45a332.42,332.42,0,0,0,48.83,173.84,338.89,338.89,0,0,0,127.68,121.11l5.41-9.84h0l5.41-9.84a316.35,316.35,0,0,1-119.18-113A309.92,309.92,0,0,1,484,1562.26c0-86.58,35.33-164.85,92.5-221.59a317.53,317.53,0,0,1,446.62,0c57.17,56.74,92.49,135,92.5,221.59A310.12,310.12,0,0,1,1070,1724.48a316.42,316.42,0,0,1-119,113,11.49,11.49,0,0,0-6,10.08v90.82h11.3V1927H643.76v11.37h11.3v-91a11.17,11.17,0,0,0-5.89-9.84l-5.41,9.84Z" fill="#110f2e"/><path d="M883.61,1942.13l75.8-298.64a11.45,11.45,0,0,0-2.92-10.82,11.29,11.29,0,0,0-10.72-3,40.74,40.74,0,0,1-9.9,1.29,28.53,28.53,0,0,1-14.33-3.63c-6.06-3.4-11.06-9.25-14.54-16.44a53.42,53.42,0,0,1-5.26-22.67,37.45,37.45,0,0,1,.92-8.5,15.78,15.78,0,0,1,3.52-7.36,5.29,5.29,0,0,1,1.7-1.19,5.81,5.81,0,0,1,2.35-.42,11.14,11.14,0,0,1,1.44.1h0a11.57,11.57,0,0,1,3.3.88c1,.5,1,.67,1.2,1a5.12,5.12,0,0,1,.46,2.54,20.46,20.46,0,0,1-1.14,6.15,57.87,57.87,0,0,1-8.68,16,107.41,107.41,0,0,1-27,25.24c-11.14,7.36-24,12.92-37.38,15.08a30.88,30.88,0,0,1-4.93.39c-6.91,0-13.63-2.33-20.28-6.84-9.94-6.7-19.2-18.47-25.63-31.78s-10.12-28-10.08-39.72a45,45,0,0,1,1.31-11.29,24.2,24.2,0,0,1,2.42-6.05,13.69,13.69,0,0,1,5.19-5.27,18.53,18.53,0,0,1,9.23-2,34,34,0,0,1,10.1,1.31,14.74,14.74,0,0,1,4.13,2,8.6,8.6,0,0,1,3,3.65,15.71,15.71,0,0,1,1.16,6.41c0,5.92-2.39,14.69-7.35,24-7.38,14-20.12,29.06-35.21,40.2a102,102,0,0,1-23.87,13.39,68.77,68.77,0,0,1-24.77,4.93,42.44,42.44,0,0,1-20.64-5c-8.55-4.63-15.13-12.29-19.58-21.1a59.87,59.87,0,0,1-6.57-26,24.07,24.07,0,0,1,1.59-9.63,5.53,5.53,0,0,1,.49-.88l.18-.23h0l-1.07-1.19.33,1.53.74-.34-1.07-1.19.33,1.53a9.54,9.54,0,0,1,1.87-.23,2.14,2.14,0,0,1,1,.17l.3.27A6.8,6.8,0,0,1,686,1571a21.85,21.85,0,0,1,.69,5.78,45.36,45.36,0,0,1-2.26,13.33,63.31,63.31,0,0,1-12.27,22,53.47,53.47,0,0,1-22,15.53,11.36,11.36,0,0,0-7.07,13.45l75.13,301a11.3,11.3,0,1,0,21.91-5.54l-75.14-301-10.95,2.77L658,1649a74.17,74.17,0,0,0,22.51-13.24A84.51,84.51,0,0,0,702,1607.3c4.77-10.28,7.3-20.75,7.33-30.51a44.9,44.9,0,0,0-1.23-10.78,28.72,28.72,0,0,0-8.05-14.37,23.28,23.28,0,0,0-7.58-4.71,25.17,25.17,0,0,0-8.93-1.59,30.7,30.7,0,0,0-6.66.75,20.86,20.86,0,0,0-9.76,5.14,28.34,28.34,0,0,0-7.58,12.77,51.08,51.08,0,0,0-2,14.72,79.58,79.58,0,0,0,4,24.1c4,12.31,11,24.77,21.9,34.48a63.45,63.45,0,0,0,19.13,11.83,66.48,66.48,0,0,0,24.37,4.47c15.17,0,29.78-4.28,43.07-11,19.95-10.1,37.16-25.66,49.76-42.42a123.72,123.72,0,0,0,15.08-25.83c3.63-8.71,5.85-17.4,5.88-26a39.21,39.21,0,0,0-2.45-14,31.68,31.68,0,0,0-5.63-9.47,33.79,33.79,0,0,0-14.16-9.57,54.05,54.05,0,0,0-18.73-3,41.71,41.71,0,0,0-18.21,3.88A35.34,35.34,0,0,0,770.9,1524a42.12,42.12,0,0,0-9.27,16.57,65.71,65.71,0,0,0-2.65,19.16A108.32,108.32,0,0,0,764.7,1593c5.5,16.7,14.53,33,26.68,45.76a77.63,77.63,0,0,0,20.72,15.75,55.87,55.87,0,0,0,25.46,6.32,53.5,53.5,0,0,0,8.5-.68,115.57,115.57,0,0,0,36.25-12.57A132.2,132.2,0,0,0,922.57,1614a92.1,92.1,0,0,0,11.94-19.19c2.88-6.47,4.72-12.95,4.74-19.64a29.52,29.52,0,0,0-1.45-9.36,24.63,24.63,0,0,0-8.74-12.06,30.81,30.81,0,0,0-14.3-5.49h0a33.51,33.51,0,0,0-4.56-.32,27.92,27.92,0,0,0-14.41,3.87,29.32,29.32,0,0,0-8,7.09,39.18,39.18,0,0,0-6.71,13.78,58.77,58.77,0,0,0-2,15.48,75.72,75.72,0,0,0,3.35,21.91c3.35,10.89,9.17,21.51,18.07,29.78a51.11,51.11,0,0,0,35.3,13.8,63,63,0,0,0,15.31-2l-2.71-11-10.94-2.82-75.8,298.64a11.3,11.3,0,1,0,21.88,5.63Z" fill="#110f2e"/><path d="M532.93,1462.48s53-171.89,212.8-200.74c57.59-10.4,66.11,84.25-30,94.64s-153.91,64.49-182.84,106.1Z" fill="#fff"/><line x1="801.88" y1="1085.46" x2="801.88" y2="1165.06" fill="#ffaf11"/><path d="M790.59,1085.46v79.43c0,5,2.95,9.66,7.64,11.14a11.35,11.35,0,0,0,14.95-10.79v-77.86c0-5.58-3.75-10.75-9.2-11.73a11.32,11.32,0,0,0-13.39,11.18" fill="#110f2e"/><line x1="1268.71" y1="1555.49" x2="1189.65" y2="1555.49" fill="#ffaf11"/><path d="M1268.71,1544.12h-78.8c-5.55,0-10.68,3.76-11.66,9.26a11.36,11.36,0,0,0,11.1,13.49h77.54a11.38,11.38,0,1,0,.33-22.75" fill="#110f2e"/><line x1="414.12" y1="1555.49" x2="335.06" y2="1555.49" fill="#ffaf11"/><path d="M414.12,1544.12H336.29c-5.54,0-10.68,3.76-11.66,9.26a11.36,11.36,0,0,0,11.11,13.49H413c5.54,0,10.68-3.77,11.66-9.26a11.36,11.36,0,0,0-11.11-13.49" fill="#110f2e"/><line x1="1130.81" y1="1224.18" x2="1075.74" y2="1279.63" fill="#ffaf11"/><path d="M1122.82,1216.14l-55.06,55.45a11.43,11.43,0,0,0,0,16.08,11.24,11.24,0,0,0,16,0l55.06-55.45a11.41,11.41,0,0,0,0-16.08,11.24,11.24,0,0,0-16,0" fill="#110f2e"/><line x1="527.21" y1="1831.93" x2="472.14" y2="1887.38" fill="#ffaf11"/><path d="M519.22,1823.89l-55.06,55.45a11.43,11.43,0,0,0,0,16.08,11.24,11.24,0,0,0,16,0L535.19,1840a11.43,11.43,0,0,0,0-16.08,11.24,11.24,0,0,0-16,0" fill="#110f2e"/><line x1="1130.81" y1="1887.38" x2="1075.74" y2="1831.93" fill="#ffaf11"/><path d="M1138.79,1879.34l-55.06-55.45a11.24,11.24,0,0,0-16,0,11.43,11.43,0,0,0,0,16.08l55.06,55.45a11.24,11.24,0,0,0,16,0,11.41,11.41,0,0,0,0-16.08" fill="#110f2e"/><line x1="527.21" y1="1279.63" x2="472.14" y2="1224.18" fill="#ffaf11"/><path d="M535.19,1271.59l-55.06-55.45a11.24,11.24,0,0,0-16,0,11.43,11.43,0,0,0,0,16.08l55.06,55.45a11.24,11.24,0,0,0,16,0,11.43,11.43,0,0,0,0-16.08" fill="#110f2e"/><line x1="962.01" y1="1115.56" x2="935.17" y2="1189.17" fill="#ffaf11"/><path d="M951.41,1111.64l-26.84,73.61a11.39,11.39,0,0,0,6.71,14.59,11.26,11.26,0,0,0,14.49-6.76l26.84-73.6a11.39,11.39,0,0,0-6.71-14.59,11.27,11.27,0,0,0-14.49,6.75" fill="#110f2e"/><line x1="1238.68" y1="1717.41" x2="1165.58" y2="1690.39" fill="#ffaf11"/><path d="M1242.57,1706.73l-73.09-27a11.27,11.27,0,0,0-14.5,6.76,11.4,11.4,0,0,0,6.71,14.59l73.1,27a11.27,11.27,0,0,0,14.49-6.76,11.39,11.39,0,0,0-6.71-14.59" fill="#110f2e"/><line x1="437.37" y1="1421.18" x2="364.27" y2="1394.14" fill="#ffaf11"/><path d="M441.27,1410.51l-73.11-27a11.26,11.26,0,0,0-14.49,6.75,11.4,11.4,0,0,0,6.7,14.6l73.11,27A11.26,11.26,0,0,0,448,1425.1a11.39,11.39,0,0,0-6.7-14.59" fill="#110f2e"/><line x1="1224.14" y1="1358.8" x2="1153.48" y2="1391.73" fill="#ffaf11"/><path d="M1219.4,1348.48l-70.67,32.92a11.41,11.41,0,0,0-5.51,15.1,11.27,11.27,0,0,0,15,5.54l70.67-32.92a11.41,11.41,0,0,0,5.5-15.1,11.25,11.25,0,0,0-15-5.54" fill="#110f2e"/><line x1="449.48" y1="1719.84" x2="378.81" y2="1752.76" fill="#ffaf11"/><path d="M444.74,1709.52l-70.67,32.92a11.41,11.41,0,0,0-5.51,15.1,11.25,11.25,0,0,0,15,5.54l70.67-32.92a11.4,11.4,0,0,0,5.51-15.1,11.25,11.25,0,0,0-15-5.54" fill="#110f2e"/><line x1="638.54" y1="1201.36" x2="605.84" y2="1130.2" fill="#ffaf11"/><path d="M648.79,1196.58l-32.7-71.15a11.27,11.27,0,0,0-15-5.55,11.4,11.4,0,0,0-5.51,15.1l32.71,71.16a11.26,11.26,0,0,0,15,5.54,11.41,11.41,0,0,0,5.5-15.1" fill="#110f2e"/><polygon points="956.24 2093.76 643.76 2093.76 643.76 1938.34 956.24 1938.34 956.24 2093.76 956.24 2093.76" fill="#fd1a16"/><path d="M956.24,2090v-7.58H655.06V1949.72H944.94v144h11.3v0h11.29V1938.47a11.66,11.66,0,0,0-3.32-8.13,11.33,11.33,0,0,0-8-3.37H643.8a11.33,11.33,0,0,0-8,3.37,11.66,11.66,0,0,0-3.32,8.13V2090a11.35,11.35,0,0,0,11.33,11.37H956.24A11.35,11.35,0,0,0,967.57,2090Z" fill="#110f2e"/><polygon points="957.2 2089.97 645.76 2089.97 801.48 2423.14 957.2 2089.97 957.2 2089.97" fill="#fff"/><path d="M956.24,2090V2078.6H644.79a11.29,11.29,0,0,0-9.53,5.28,11.42,11.42,0,0,0-.68,10.93L790.3,2428a11.27,11.27,0,0,0,20.44,0l155.71-333.18a11.48,11.48,0,0,0-.68-10.93,11.29,11.29,0,0,0-9.53-5.28V2090L946,2085.13l-145.49,311.3L662.59,2101.34H956.24V2090L946,2085.13l10.23,4.84Z" fill="#110f2e"/><polygon points="726.92 2264.33 801.48 2423.85 876.04 2264.33 726.92 2264.33 726.92 2264.33" fill="#110f2e"/><path d="M726.59,2264.33l-10.22,4.85,74.56,159.51a11.26,11.26,0,0,0,20.44,0l74.55-159.51a11.5,11.5,0,0,0-.68-10.94,11.34,11.34,0,0,0-9.54-5.28H726.59a11.33,11.33,0,0,0-9.54,5.28,11.5,11.5,0,0,0-.68,10.94l10.22-4.85v11.38H857.9l-56.76,121.43-64.33-137.65-10.22,4.84v0Z" fill="#110f2e"/><path d="M737.88,1938.34v151.14c0,5,3,9.66,7.66,11.14a11.34,11.34,0,0,0,14.93-10.8V1940.23c0-5.58-3.74-10.75-9.19-11.74a11.33,11.33,0,0,0-13.4,11.19" fill="#110f2e"/><path d="M843.29,1938.34v151.14c0,5,3,9.66,7.66,11.14a11.34,11.34,0,0,0,14.93-10.8V1940.23c0-5.58-3.73-10.75-9.19-11.74a11.33,11.33,0,0,0-13.4,11.19" fill="#110f2e"/><path d="M278.47,377.06l21-111.29h32.12l-34.7,156.41H264.5L239,317.55,213.58,422.18H181.14L146.45,265.77h32.11l21.17,111.07,25.78-111.07h27.28Z"/><path d="M410.81,422.18a34.51,34.51,0,0,1-3.11-10.42q-11.28,12.57-29.33,12.56-17.08,0-28.31-9.88a31.78,31.78,0,0,1-11.22-24.92q0-18.48,13.69-28.36t39.59-10h14.29v-6.66q0-8.06-4.14-12.89t-13-4.83q-7.85,0-12.3,3.76a12.76,12.76,0,0,0-4.46,10.31h-31a31.14,31.14,0,0,1,6.23-18.69q6.23-8.6,17.61-13.48a64.2,64.2,0,0,1,25.57-4.89q21.48,0,34.11,10.79t12.62,30.35v50.38q.1,16.55,4.62,25v1.83Zm-25.67-21.6a26.71,26.71,0,0,0,12.67-3.06,20.18,20.18,0,0,0,8.6-8.21v-20H394.8q-23.31,0-24.81,16.12l-.11,1.82a12.42,12.42,0,0,0,4.08,9.56Q378.06,400.59,385.14,400.58Z"/><path d="M503.19,378.24,524.68,306H558L511.25,440.22l-2.58,6.13q-10.43,22.77-34.37,22.77a48.85,48.85,0,0,1-13.75-2V443.55l4.72.11q8.81,0,13.16-2.68t6.82-8.92l3.66-9.56L448.19,306H481.6Z"/><path d="M633.17,390.06q0-5.7-5.64-9t-18.1-5.86Q568,366.53,568,340q0-15.47,12.84-25.84t33.57-10.36q22.13,0,35.39,10.42T663,341.29H632a15,15,0,0,0-4.29-11q-4.31-4.35-13.43-4.35-7.85,0-12.14,3.54a11.17,11.17,0,0,0-4.3,9q0,5.16,4.89,8.33t16.49,5.48a134.06,134.06,0,0,1,19.55,5.21q24.6,9,24.6,31.26,0,15.9-13.64,25.73t-35.24,9.82q-14.61,0-25.94-5.21a43.49,43.49,0,0,1-17.78-14.28,33.18,33.18,0,0,1-6.44-19.61h29.43q.43,8.28,6.12,12.68t15.26,4.4q8.91,0,13.48-3.38A10.54,10.54,0,0,0,633.17,390.06Z"/><path d="M775.29,277.37V306h19.88v22.77H775.29v58c0,4.29.83,7.37,2.47,9.24s4.8,2.79,9.46,2.79a49.68,49.68,0,0,0,9.13-.75v23.52a64,64,0,0,1-18.8,2.79q-32.65,0-33.3-33V328.72h-17V306h17V277.37Z"/><path d="M804.4,363q0-17.3,6.66-30.83a48.75,48.75,0,0,1,19.18-21q12.51-7.41,29.06-7.41,23.52,0,38.4,14.39t16.6,39.1l.21,7.95q0,26.75-14.93,42.92t-40.07,16.16q-25.14,0-40.12-16.11t-15-43.83Zm31.05,2.2q0,16.57,6.23,25.34t17.83,8.77q11.28,0,17.62-8.67t6.34-27.7q0-16.24-6.34-25.17t-17.83-8.93q-11.38,0-17.62,8.87T835.45,365.19Z"/><path d="M1084.56,358.26h-61.87v63.92H990.46V265.77h101.83v26.1h-69.6v40.39h61.87Z"/><path d="M1108.73,275.87a15.31,15.31,0,0,1,4.67-11.5q4.68-4.5,12.73-4.51t12.68,4.51a16.39,16.39,0,0,1-.06,23.1Q1134,292,1126.13,292t-12.62-4.51A15.24,15.24,0,0,1,1108.73,275.87Zm33,146.31h-31.15V306h31.15Z"/><path d="M1195.85,306l1,13.42q12.45-15.57,33.4-15.57,18.48,0,27.5,10.85t9.24,32.44v75.09h-31V347.84q0-9.88-4.3-14.34T1217.33,329q-13.1,0-19.65,11.17v82h-31V306Z"/><path d="M1285.65,363.2q0-27.18,12.2-43.29t33.35-16.11a35.6,35.6,0,0,1,28,12.67V257.18h31.15v165h-28l-1.5-12.36q-11.6,14.51-29.86,14.5-20.52,0-32.93-16.16T1285.65,363.2Zm31,2.31q0,16.37,5.69,25.07t16.55,8.72q14.38,0,20.3-12.16V341.2q-5.81-12.15-20.09-12.16Q1316.7,329,1316.7,365.51Z"/><path d="M426.76,772.18H394.54L331.8,669.27V772.18H299.58V615.77H331.8L394.64,718.9V615.77h32.12Z"/><path d="M506.36,774.32q-25.56,0-41.62-15.68t-16.06-41.79v-3q0-17.52,6.76-31.32a49.77,49.77,0,0,1,19.18-21.27,53.88,53.88,0,0,1,28.3-7.46q23.85,0,37.55,15t13.7,42.64v12.68h-74q1.5,11.39,9.08,18.26t19.17,6.88q17.94,0,28-13l15.25,17.08a46.54,46.54,0,0,1-18.9,15.41A62,62,0,0,1,506.36,774.32Zm-3.54-95.49q-9.24,0-15,6.26T480.47,703h43.19v-2.49q-.23-10.35-5.59-16T502.82,678.83Z"/><path d="M672.87,730l15.25-74h30L688.44,772.18h-26l-22-73.16-22,73.16H592.51L562.87,656h30L608,729.85,629.25,656H651.7Z"/><path d="M824.55,772.18H792.32V615.77h32.23Z"/><path d="M847.53,713.2q0-27.18,12.2-43.29t33.35-16.11a35.6,35.6,0,0,1,28,12.67V607.18h31.15v165h-28l-1.5-12.36q-11.6,14.5-29.86,14.5-20.52,0-32.93-16.16T847.53,713.2Zm31.05,2.31q0,16.37,5.69,25.07t16.55,8.72q14.38,0,20.3-12.16V691.2Q915.32,679.05,901,679,878.58,679,878.58,715.51Z"/><path d="M1029.83,774.32q-25.57,0-41.63-15.68t-16.06-41.79v-3q0-17.52,6.77-31.32a49.65,49.65,0,0,1,19.18-21.27,53.86,53.86,0,0,1,28.3-7.46q23.85,0,37.55,15t13.69,42.64v12.68h-74q1.5,11.39,9.08,18.26t19.17,6.88q17.94,0,28-13l15.25,17.08a46.64,46.64,0,0,1-18.91,15.41A61.94,61.94,0,0,1,1029.83,774.32Zm-3.55-95.49q-9.24,0-15,6.26T1003.94,703h43.18v-2.49q-.21-10.35-5.58-16T1026.28,678.83Z"/><path d="M1162.6,772.18a34.51,34.51,0,0,1-3.11-10.42q-11.28,12.57-29.33,12.56-17.09,0-28.3-9.88a31.76,31.76,0,0,1-11.23-24.92q0-18.48,13.7-28.36t39.58-10h14.29v-6.66q0-8.06-4.14-12.89t-13-4.83q-7.85,0-12.3,3.76a12.76,12.76,0,0,0-4.46,10.31h-31a31.14,31.14,0,0,1,6.23-18.69q6.22-8.59,17.62-13.48a64.15,64.15,0,0,1,25.56-4.89q21.48,0,34.11,10.79t12.62,30.35v50.38q.11,16.54,4.62,25v1.83Zm-25.67-21.6a26.71,26.71,0,0,0,12.67-3.06,20.18,20.18,0,0,0,8.6-8.21v-20h-11.6q-23.31,0-24.82,16.12l-.11,1.82a12.39,12.39,0,0,0,4.09,9.56Q1129.84,750.59,1136.93,750.58Z"/><path d="M1276.15,740.06q0-5.7-5.64-9t-18.1-5.86q-41.48-8.7-41.47-35.23,0-15.46,12.84-25.84t33.57-10.36q22.13,0,35.39,10.42T1306,691.29h-31a15,15,0,0,0-4.3-11q-4.31-4.35-13.43-4.35-7.85,0-12.14,3.54a11.19,11.19,0,0,0-4.29,9q0,5.16,4.88,8.33t16.49,5.48a133.71,133.71,0,0,1,19.55,5.21q24.6,9,24.6,31.26,0,15.9-13.64,25.73t-35.23,9.82q-14.61,0-26-5.21a43.46,43.46,0,0,1-17.77-14.28,33.19,33.19,0,0,1-6.45-19.61h29.43q.43,8.28,6.13,12.68t15.25,4.4q8.91,0,13.48-3.38A10.52,10.52,0,0,0,1276.15,740.06Z"/></svg>