<svg id="Layer_1" data-name="Layer 1" xmlns="http://www.w3.org/2000/svg" viewBox="0 0 1601 2561"><title>we_are_all_marketers</title><rect x="0.5" y="0.5" width="1600" height="2560" fill="#27ae60" stroke="#000" stroke-miterlimit="10"/><path d="M1188.23,1251.09c21.62,37.45-4.31,84.47-47.52,86.14A1128.53,1128.53,0,0,0,670.34,1460.4l-50.16,28.94c0,.23-.69-1.18,121.42,211.18A40.64,40.64,0,0,1,726.74,1756l-39.56,22.83A40.59,40.59,0,0,1,631.73,1764l-121.8-211-19.77,11.43a81.22,81.22,0,0,1-110.93-29.73l-91.34-158.2a81.22,81.22,0,0,1,29.73-110.93l180.18-104A1128.8,1128.8,0,0,0,839.66,815.78c23.06-36.59,76.73-35.53,98.35,1.92l78.15,135.39a93.89,93.89,0,1,1,93.89,162.62Z" transform="translate(0.5 0.5)" fill="#d6f4fc"/><path d="M1144.43,987.46a93.9,93.9,0,0,1-34.38,128.25l-93.89-162.62A93.91,93.91,0,0,1,1144.43,987.46Z" transform="translate(0.5 0.5)" fill="#4d4e59"/><path d="M938,817.7a56.9,56.9,0,0,1-1.84,59.87A1322.68,1322.68,0,0,1,553,1255.85L341.9,1377.74a94.69,94.69,0,0,0-34,33.4l-20-34.64a81.22,81.22,0,0,1,29.73-110.93l180.18-104A1128.8,1128.8,0,0,0,839.66,815.78c23.06-36.59,76.73-35.52,98.35,1.92Z" transform="translate(0.5 0.5)" fill="#e8f8fc"/><path d="M497.8,1161.54,670.34,1460.4c-34.57,19.95-145.65,84.07-180.18,104a81.22,81.22,0,0,1-110.93-29.73l-91.34-158.2a81.22,81.22,0,0,1,29.73-110.93Z" transform="translate(0.5 0.5)" fill="#ad3792"/><path d="M552.44,1256.19C323.18,1388.55,338.37,1379.34,331,1385.09a29.16,29.16,0,0,1-43.08-8.59,81.22,81.22,0,0,1,29.73-110.93l180.18-104Z" transform="translate(0.5 0.5)" fill="#fa50d2"/><path d="M653,1546.47c-64.15,37.14-16.95,9.81-110.14,63.59l-33-57.06,110.25-63.63Z" transform="translate(0.5 0.5)" fill="#bdeffc"/><path d="M1138.81,1089.92a92.73,92.73,0,0,1-28.76,25.79l-93.89-162.62a93.15,93.15,0,0,1,36.72-12Z" transform="translate(0.5 0.5)" fill="#42434d"/><path d="M556.06,218,511.8,354.45H470.46l-26.13-83.07L417,354.45H375.69L331.42,218H371.2l27.5,87.16L427.56,218h35.49l27.49,87.94L519.21,218Z" transform="translate(0.5 0.5)" fill="#e8f8fc"/><path d="M667.8,311H591A21.54,21.54,0,0,0,600,323.54q6.74,4.38,16.87,4.39a36.48,36.48,0,0,0,13.16-2.15,38.93,38.93,0,0,0,11.22-7L660.78,339q-15.42,17.16-45,17.16-18.53,0-32.56-7A53.35,53.35,0,0,1,582,254a66.55,66.55,0,0,1,58.5-.49,49.72,49.72,0,0,1,20.37,18.92q7.51,12.39,7.51,29.35Q668.38,302.19,667.8,311ZM597.69,278.2a22,22,0,0,0-7.31,13.26h43.29a22,22,0,0,0-7.31-13.26,23.53,23.53,0,0,0-28.67,0Z" transform="translate(0.5 0.5)" fill="#e8f8fc"/><path d="M717.71,214.05q6.24,6,6.24,15.79a35.41,35.41,0,0,1-1.17,9,102.93,102.93,0,0,1-5.07,13.46l-12.48,28.47H682L691.19,249a19,19,0,0,1-8.48-7.51,21.83,21.83,0,0,1-3-11.6q0-9.75,6.24-15.79t16-6.05Q711.47,208,717.71,214.05Z" transform="translate(0.5 0.5)" fill="#e8f8fc"/><path d="M791.32,250.61A56,56,0,0,1,812.09,247v33.35a75.85,75.85,0,0,0-8.38-.59q-11.9,0-18.63,6.44t-6.72,19.69v48.56H741.31V248.76H776.6v12.67A34.54,34.54,0,0,1,791.32,250.61Z" transform="translate(0.5 0.5)" fill="#e8f8fc"/><path d="M933.77,311H856.94A21.51,21.51,0,0,0,866,323.54q6.74,4.38,16.87,4.39A36.51,36.51,0,0,0,896,325.78a38.76,38.76,0,0,0,11.21-7L926.75,339q-15.4,17.16-45,17.16-18.53,0-32.57-7A53.36,53.36,0,0,1,848,254a66.55,66.55,0,0,1,58.5-.49,49.81,49.81,0,0,1,20.38,18.92q7.5,12.39,7.51,29.35Q934.36,302.19,933.77,311Zm-70.1-32.76a22,22,0,0,0-7.31,13.26h43.29a22,22,0,0,0-7.32-13.26,23.52,23.52,0,0,0-28.66,0Z" transform="translate(0.5 0.5)" fill="#e8f8fc"/><path d="M1101.47,327.93h-57.72L1033,354.45H993.63L1053.89,218h38l60.45,136.5h-40.17Zm-11.31-28.47-17.55-43.68-17.55,43.68Z" transform="translate(0.5 0.5)" fill="#e8f8fc"/><path d="M1161.53,209.76h37V354.45h-37Z" transform="translate(0.5 0.5)" fill="#e8f8fc"/><path d="M1222.56,209.76h37V354.45h-37Z" transform="translate(0.5 0.5)" fill="#e8f8fc"/><path d="M293.59,588.45l-.39-72.35L258.1,575H240.94L206,518.05v70.4H170.35V452h31.78l48,78.78L296.91,452h31.78l.39,136.5Z" transform="translate(0.5 0.5)" fill="#e8f8fc"/><path d="M447.83,561.93H390.11l-10.72,26.52H340L400.25,452h38l60.45,136.5H458.56Zm-11.31-28.47L419,489.78l-17.55,43.68Z" transform="translate(0.5 0.5)" fill="#e8f8fc"/><path d="M569.32,552.18H548.26v36.27H509.65V452h62.4q18.53,0,32.17,6.14a47.65,47.65,0,0,1,21.06,17.55q7.41,11.4,7.41,26.81,0,14.82-6.92,25.84A46.82,46.82,0,0,1,606,545.55l29.44,42.9H594.08Zm18.33-64.55q-6-5.26-17.94-5.26H548.26v40h21.45q11.89,0,17.94-5.17t6-14.72Q593.69,492.9,587.65,487.63Z" transform="translate(0.5 0.5)" fill="#e8f8fc"/><path d="M706.6,538.92l-14.43,15.4v34.13H654V452h38.22v56.74L745,452h42.51L731.75,512.4l58.7,76.05H745.6Z" transform="translate(0.5 0.5)" fill="#e8f8fc"/><path d="M910.18,558.61v29.84H800.59V452h107v29.83H838.81v23h60.64v28.86H838.81v25Z" transform="translate(0.5 0.5)" fill="#e8f8fc"/><path d="M960.68,482.56H918.75V452H1041v30.61H999.29V588.45H960.68Z" transform="translate(0.5 0.5)" fill="#e8f8fc"/><path d="M1165,558.61v29.84H1055.45V452h107v29.83h-68.83v23h60.64v28.86h-60.64v25Z" transform="translate(0.5 0.5)" fill="#e8f8fc"/><path d="M1246.16,552.18H1225.1v36.27h-38.61V452h62.4q18.52,0,32.17,6.14a47.65,47.65,0,0,1,21.06,17.55q7.41,11.4,7.41,26.81,0,14.82-6.92,25.84a46.76,46.76,0,0,1-19.79,17.26l29.44,42.9h-41.34Zm18.33-64.55q-6-5.26-17.94-5.26H1225.1v40h21.45q11.9,0,17.94-5.17t6-14.72Q1270.53,492.9,1264.49,487.63Z" transform="translate(0.5 0.5)" fill="#e8f8fc"/><path d="M1346.58,587.08q-15.6-4.1-25.35-10.92l12.68-28.47a82,82,0,0,0,21.25,9.75,80.92,80.92,0,0,0,23.79,3.71q22.23,0,22.23-11.12,0-5.85-6.34-8.68t-20.37-5.94a195.23,195.23,0,0,1-25.74-7.12A43.33,43.33,0,0,1,1331,516.1q-7.41-8.39-7.41-22.62A39.09,39.09,0,0,1,1330.4,471q6.82-10,20.37-15.89t33.25-5.85a117.57,117.57,0,0,1,26.52,3,81.36,81.36,0,0,1,23,8.87l-11.89,28.67q-19.5-10.53-37.83-10.53-11.52,0-16.77,3.41t-5.27,8.87q0,5.46,6.24,8.19t20.09,5.66a188.64,188.64,0,0,1,25.83,7.11,44.74,44.74,0,0,1,17.75,12.09q7.5,8.29,7.51,22.53a38.4,38.4,0,0,1-6.83,22.23q-6.83,9.95-20.47,15.89t-33.15,5.95A126.24,126.24,0,0,1,1346.58,587.08Z" transform="translate(0.5 0.5)" fill="#e8f8fc"/><path d="M356.46,2094.51H338.15V2082h33.27v41.2c-1.23.45-2.78.92-4.67,1.4s-4,.93-6.35,1.32-4.75.7-7.23.94a73.87,73.87,0,0,1-7.39.37,56.71,56.71,0,0,1-19.2-3,37.23,37.23,0,0,1-13.67-8.33,34.21,34.21,0,0,1-8.18-12.79,47.36,47.36,0,0,1-2.71-16.39,50.28,50.28,0,0,1,1.43-12.11,42.62,42.62,0,0,1,4.21-10.69,41.49,41.49,0,0,1,6.75-8.88,40,40,0,0,1,9.06-6.77,45.46,45.46,0,0,1,11.17-4.3,54.21,54.21,0,0,1,13-1.5,74.43,74.43,0,0,1,11.72.89,51.43,51.43,0,0,1,9.1,2.16v12.7a66.65,66.65,0,0,0-9.62-2.32,60.42,60.42,0,0,0-9.79-.79,38.23,38.23,0,0,0-12.45,2,28.27,28.27,0,0,0-10.05,5.86,27.53,27.53,0,0,0-6.68,9.55,33,33,0,0,0-2.44,13.12q.06,14.48,7.57,21.7t21.3,7.23q2.57,0,5.31-.27a48.14,48.14,0,0,0,4.82-.7Z" transform="translate(0.5 0.5)" fill="#e8f8fc"/><path d="M445.54,2096.16a37.22,37.22,0,0,1-2.07,12.7,27.84,27.84,0,0,1-6,9.82,26.22,26.22,0,0,1-9.36,6.32,32.34,32.34,0,0,1-12.27,2.23A33,33,0,0,1,403.4,2125a25.83,25.83,0,0,1-9.37-6.32,27.55,27.55,0,0,1-5.89-9.82,37.47,37.47,0,0,1-2.05-12.7,36.88,36.88,0,0,1,2.08-12.69,27.71,27.71,0,0,1,5.95-9.83,26.39,26.39,0,0,1,9.37-6.32,32.46,32.46,0,0,1,12.27-2.23,33.28,33.28,0,0,1,12.48,2.23,26.13,26.13,0,0,1,9.37,6.32,27.88,27.88,0,0,1,5.89,9.83A37.62,37.62,0,0,1,445.54,2096.16Zm-15,0a28.57,28.57,0,0,0-1.1-8.3,18,18,0,0,0-3.05-6,12.42,12.42,0,0,0-4.7-3.66,14.48,14.48,0,0,0-6-1.23,14.09,14.09,0,0,0-5.89,1.23,12.4,12.4,0,0,0-4.67,3.66,17.77,17.77,0,0,0-3.05,6,31.86,31.86,0,0,0,0,16.6,17,17,0,0,0,3.08,6,13.22,13.22,0,0,0,4.7,3.67,14.09,14.09,0,0,0,5.95,1.25,13.93,13.93,0,0,0,5.92-1.25,13.1,13.1,0,0,0,4.64-3.67,17.52,17.52,0,0,0,3.05-6A28.57,28.57,0,0,0,430.59,2096.16Z" transform="translate(0.5 0.5)" fill="#e8f8fc"/><path d="M459,2088.59h26.91v13.13H459Z" transform="translate(0.5 0.5)" fill="#e8f8fc"/><path d="M529.1,2125.7h-15v-69.15H487.77V2044H555.4v12.51H529.1Z" transform="translate(0.5 0.5)" fill="#e8f8fc"/><path d="M614.88,2096.16a37,37,0,0,1-2.08,12.7,27.67,27.67,0,0,1-5.95,9.82,26.18,26.18,0,0,1-9.37,6.32,32.26,32.26,0,0,1-12.26,2.23,33.1,33.1,0,0,1-12.49-2.23,25.88,25.88,0,0,1-9.36-6.32,27.55,27.55,0,0,1-5.89-9.82,37.47,37.47,0,0,1-2.05-12.7,36.88,36.88,0,0,1,2.08-12.69,27.71,27.71,0,0,1,6-9.83,26.3,26.3,0,0,1,9.37-6.32,32.45,32.45,0,0,1,12.26-2.23,33.29,33.29,0,0,1,12.49,2.23,26,26,0,0,1,9.36,6.32,27.59,27.59,0,0,1,5.89,9.83A37.37,37.37,0,0,1,614.88,2096.16Zm-15,0a28.57,28.57,0,0,0-1.1-8.3,18.14,18.14,0,0,0-3.05-6,12.42,12.42,0,0,0-4.7-3.66,14.52,14.52,0,0,0-6-1.23,14.13,14.13,0,0,0-5.89,1.23,12.37,12.37,0,0,0-4.66,3.66,18,18,0,0,0-3.06,6,31.86,31.86,0,0,0,0,16.6,17.22,17.22,0,0,0,3.09,6,13.13,13.13,0,0,0,4.7,3.67,14.09,14.09,0,0,0,6,1.25,13.93,13.93,0,0,0,5.92-1.25,13.1,13.1,0,0,0,4.64-3.67,17.69,17.69,0,0,0,3.05-6A28.57,28.57,0,0,0,599.93,2096.16Z" transform="translate(0.5 0.5)" fill="#e8f8fc"/><path d="M680.37,2094.09c-1.35,0-2.67,0-4-.07s-2.52-.12-3.66-.24v31.92h-15V2044h23.56a89.18,89.18,0,0,1,10.35.52,46.45,46.45,0,0,1,7.9,1.55q8.37,2.57,12.88,8.18t4.52,14.28a23,23,0,0,1-2.44,10.65,22.2,22.2,0,0,1-7.14,8,35.41,35.41,0,0,1-11.48,5.07A61.74,61.74,0,0,1,680.37,2094.09Zm-7.63-12.88c.85.12,1.94.21,3.26.27s2.7.09,4.12.09a44.65,44.65,0,0,0,10.14-1,19.46,19.46,0,0,0,6.59-2.72,10.09,10.09,0,0,0,3.6-4.21,13.2,13.2,0,0,0,1.1-5.4,11.47,11.47,0,0,0-1.65-6.23,10.73,10.73,0,0,0-5.74-4.09,24.71,24.71,0,0,0-5.28-1.07,75.71,75.71,0,0,0-7.72-.33h-8.42Z" transform="translate(0.5 0.5)" fill="#e8f8fc"/><path d="M767.43,2078h-1.22a31.84,31.84,0,0,0-11.69,2,16.23,16.23,0,0,0-7.78,6.07v39.61H732.28v-59.14h12l1.34,8.24h.25a18.8,18.8,0,0,1,7-7.11,21.16,21.16,0,0,1,10.77-2.6,25.59,25.59,0,0,1,3.78.25Z" transform="translate(0.5 0.5)" fill="#e8f8fc"/><path d="M777.23,2037.32h15.2V2053h-15.2Zm.36,29.24h14.47v59.14H777.59Z" transform="translate(0.5 0.5)" fill="#e8f8fc"/><path d="M822.85,2074.8h.24a22.13,22.13,0,0,1,3.24-3.6,22.44,22.44,0,0,1,4.46-3.12,26.22,26.22,0,0,1,5.52-2.16,24.33,24.33,0,0,1,6.44-.83,26.34,26.34,0,0,1,6.25.74,18.72,18.72,0,0,1,5.53,2.29,16.8,16.8,0,0,1,4.42,4,18.92,18.92,0,0,1,3,5.89,19.15,19.15,0,0,1,.83,4.12q.21,2.23.21,5.16v38.39H848.55v-36.13a36.85,36.85,0,0,0-.19-4.09,11.67,11.67,0,0,0-.67-3,7.51,7.51,0,0,0-3.32-4,11.18,11.18,0,0,0-5.41-1.22,17.54,17.54,0,0,0-8.08,2A20.91,20.91,0,0,0,824,2085v40.71H809.54v-59.14h12Z" transform="translate(0.5 0.5)" fill="#e8f8fc"/><path d="M922.73,2124.42a36.92,36.92,0,0,1-6.71,2,41,41,0,0,1-8.36.83,37.94,37.94,0,0,1-12-1.83,26.88,26.88,0,0,1-9.71-5.56,25.69,25.69,0,0,1-6.53-9.43,34.38,34.38,0,0,1-2.38-13.33,35.37,35.37,0,0,1,2.75-14.65,27.62,27.62,0,0,1,16.93-15.54,34.61,34.61,0,0,1,10.78-1.8,40.39,40.39,0,0,1,7.63.71,34.89,34.89,0,0,1,6.65,1.92v11.78a33.78,33.78,0,0,0-5.71-1.86,28.52,28.52,0,0,0-6.5-.71A20.73,20.73,0,0,0,903,2078a15.08,15.08,0,0,0-5.62,3.39,16,16,0,0,0-3.87,6.13,26.12,26.12,0,0,0-1.44,9.19,24.22,24.22,0,0,0,1.1,7.36,16.59,16.59,0,0,0,3.21,5.89,15.4,15.4,0,0,0,5.37,3.93,18.33,18.33,0,0,0,7.72,1.5,30.23,30.23,0,0,0,7.2-.8,43.55,43.55,0,0,0,6.1-2Z" transform="translate(0.5 0.5)" fill="#e8f8fc"/><path d="M936.5,2037.32h15.19V2053H936.5Zm.36,29.24h14.47v59.14H936.86Z" transform="translate(0.5 0.5)" fill="#e8f8fc"/><path d="M998.41,2127.23a20.82,20.82,0,0,1-8.63-1.74,21.45,21.45,0,0,1-6.44-4.3h-.25c0,.81.09,2,.13,3.44s.06,3.11.06,4.86v24.59H968.81v-87.52h12.7l.61,6.65h.24a21.28,21.28,0,0,1,6.9-5.83,20.2,20.2,0,0,1,9.77-2.29,26.44,26.44,0,0,1,9.49,1.8,23.1,23.1,0,0,1,8.27,5.53,27.19,27.19,0,0,1,5.76,9.4,37.67,37.67,0,0,1,2.17,13.49,39.48,39.48,0,0,1-2.32,14.25,29.56,29.56,0,0,1-6.1,10,24.39,24.39,0,0,1-17.89,7.72Zm-1.89-50.54a15.8,15.8,0,0,0-7.2,1.86,20.49,20.49,0,0,0-6,4.86v26.36a18.39,18.39,0,0,0,2.19,2.08,19.26,19.26,0,0,0,2.87,1.89,17.25,17.25,0,0,0,3.51,1.4,14.36,14.36,0,0,0,4,.55,11.92,11.92,0,0,0,10.35-5.49,20.17,20.17,0,0,0,2.65-6.26,36.64,36.64,0,0,0,0-16.45,17.85,17.85,0,0,0-2.68-6,11.74,11.74,0,0,0-4.18-3.6A12,12,0,0,0,996.52,2076.69Z" transform="translate(0.5 0.5)" fill="#e8f8fc"/><path d="M1039.4,2125.7v-88.38h14.46v88.38Z" transform="translate(0.5 0.5)" fill="#e8f8fc"/><path d="M1102.05,2115.57a47.84,47.84,0,0,0,8.79-.85,68.18,68.18,0,0,0,9.28-2.45v11.54a43.53,43.53,0,0,1-8.61,2.32,64.67,64.67,0,0,1-12,1.1,43.1,43.1,0,0,1-11.94-1.62,25.93,25.93,0,0,1-9.85-5.22,25.09,25.09,0,0,1-6.69-9.34,35.21,35.21,0,0,1-2.47-13.91,39.17,39.17,0,0,1,2.32-14.1,28.61,28.61,0,0,1,6.23-10,25.44,25.44,0,0,1,8.94-6,28.15,28.15,0,0,1,10.4-2,30.21,30.21,0,0,1,10.35,1.71,20.84,20.84,0,0,1,8.18,5.37,25.17,25.17,0,0,1,5.37,9.43,43.4,43.4,0,0,1,1.92,13.65c0,2-.1,3.76-.18,5.18h-38.76a17.94,17.94,0,0,0,1.83,7,13.41,13.41,0,0,0,4,4.7,16.5,16.5,0,0,0,5.77,2.63A29.39,29.39,0,0,0,1102.05,2115.57Zm-5.8-39.18a11,11,0,0,0-8.57,3.75,13.33,13.33,0,0,0-2.48,4.06,19.86,19.86,0,0,0-1.22,4.94h23.26a17.25,17.25,0,0,0-.7-4.94,12.1,12.1,0,0,0-2.08-4.06,9.79,9.79,0,0,0-3.42-2.75A10.73,10.73,0,0,0,1096.25,2076.39Z" transform="translate(0.5 0.5)" fill="#e8f8fc"/><path d="M1163.11,2108.55a4.55,4.55,0,0,0-1.06-3.11,8.59,8.59,0,0,0-2.84-2.05,24.86,24.86,0,0,0-4.06-1.43c-1.53-.41-3.12-.81-4.79-1.22a59.83,59.83,0,0,1-6.11-2,18.2,18.2,0,0,1-5.15-3,13,13,0,0,1-3.54-4.6,15.78,15.78,0,0,1-1.32-6.81,19.34,19.34,0,0,1,1.77-8.57,17,17,0,0,1,4.8-6,20.59,20.59,0,0,1,7-3.54,30.39,30.39,0,0,1,8.46-1.16,55.7,55.7,0,0,1,10.19.89,53.73,53.73,0,0,1,8.61,2.29v11.78c-1.35-.45-2.76-.87-4.24-1.25s-3-.73-4.52-1-3-.52-4.55-.7a34.08,34.08,0,0,0-4.27-.28,16.72,16.72,0,0,0-4.33.49,8.5,8.5,0,0,0-2.87,1.31,4.9,4.9,0,0,0-1.59,1.9,5.2,5.2,0,0,0-.49,2.22,5,5,0,0,0,1.07,3.3,7.51,7.51,0,0,0,3,2.07,27.58,27.58,0,0,0,4,1.32l4,1q3,.73,6.1,1.77a19.47,19.47,0,0,1,5.49,2.9,14.32,14.32,0,0,1,4,4.83,16.06,16.06,0,0,1,1.56,7.53,18.91,18.91,0,0,1-1.9,8.73,17.26,17.26,0,0,1-5.28,6.2,23.41,23.41,0,0,1-8.11,3.66,42.89,42.89,0,0,1-10.41,1.19,52.42,52.42,0,0,1-10.1-.89,34.17,34.17,0,0,1-7.42-2.22v-11.66a46.81,46.81,0,0,0,8.79,2.41,47.69,47.69,0,0,0,7.51.64,29,29,0,0,0,5-.4,13.84,13.84,0,0,0,4-1.25,7.4,7.4,0,0,0,2.66-2.17A5.1,5.1,0,0,0,1163.11,2108.55Z" transform="translate(0.5 0.5)" fill="#e8f8fc"/><path d="M1244.84,2125.7h-15v-69.15h-26.36V2044h67.62v12.51h-26.3Z" transform="translate(0.5 0.5)" fill="#e8f8fc"/><path d="M1330.62,2096.16a37.22,37.22,0,0,1-2.07,12.7,28,28,0,0,1-6,9.82,26.35,26.35,0,0,1-9.37,6.32,32.31,32.31,0,0,1-12.27,2.23,33,33,0,0,1-12.48-2.23,25.83,25.83,0,0,1-9.37-6.32,27.55,27.55,0,0,1-5.89-9.82,40.05,40.05,0,0,1,0-25.39,27.86,27.86,0,0,1,6-9.83,26.39,26.39,0,0,1,9.37-6.32,32.46,32.46,0,0,1,12.27-2.23,33.2,33.2,0,0,1,12.48,2.23,26.13,26.13,0,0,1,9.37,6.32,27.88,27.88,0,0,1,5.89,9.83A37.62,37.62,0,0,1,1330.62,2096.16Zm-14.95,0a28.57,28.57,0,0,0-1.1-8.3,18,18,0,0,0-3-6,12.34,12.34,0,0,0-4.7-3.66,14.48,14.48,0,0,0-6-1.23,14.09,14.09,0,0,0-5.89,1.23,12.4,12.4,0,0,0-4.67,3.66,18,18,0,0,0-3,6,31.86,31.86,0,0,0,0,16.6,17.21,17.21,0,0,0,3.08,6,13.22,13.22,0,0,0,4.7,3.67,14.09,14.09,0,0,0,6,1.25,13.89,13.89,0,0,0,5.92-1.25,13,13,0,0,0,4.64-3.67,17.52,17.52,0,0,0,3-6A28.57,28.57,0,0,0,1315.67,2096.16Z" transform="translate(0.5 0.5)" fill="#e8f8fc"/><path d="M391.1,2227.67h37.84V2194h14.95v81.66H428.94v-35.52H391.1v35.52h-15V2194h15Z" transform="translate(0.5 0.5)" fill="#e8f8fc"/><path d="M493.3,2265.57a47.84,47.84,0,0,0,8.79-.85,67.67,67.67,0,0,0,9.27-2.45v11.54a43.39,43.39,0,0,1-8.6,2.32,64.7,64.7,0,0,1-12,1.1,43.08,43.08,0,0,1-11.93-1.62,25.93,25.93,0,0,1-9.85-5.22,25.09,25.09,0,0,1-6.69-9.34,35,35,0,0,1-2.47-13.91,39.17,39.17,0,0,1,2.32-14.1,28.74,28.74,0,0,1,6.22-10,25.57,25.57,0,0,1,8.95-6,28.15,28.15,0,0,1,10.4-2A30.21,30.21,0,0,1,498,2216.8a20.84,20.84,0,0,1,8.18,5.37,25.17,25.17,0,0,1,5.37,9.43,43.4,43.4,0,0,1,1.92,13.65c0,2-.1,3.76-.18,5.18H474.56a17.6,17.6,0,0,0,1.83,7,13.41,13.41,0,0,0,4,4.7,16.5,16.5,0,0,0,5.77,2.63A29.27,29.27,0,0,0,493.3,2265.57Zm-5.8-39.18a11.32,11.32,0,0,0-4.88,1,11.44,11.44,0,0,0-3.7,2.75,13.51,13.51,0,0,0-2.47,4.06,19.86,19.86,0,0,0-1.22,4.94h23.26a16.9,16.9,0,0,0-.71-4.94,11.9,11.9,0,0,0-2.07-4.06,9.89,9.89,0,0,0-3.42-2.75A10.73,10.73,0,0,0,487.5,2226.39Z" transform="translate(0.5 0.5)" fill="#e8f8fc"/><path d="M528.79,2275.7v-88.38h14.46v88.38Z" transform="translate(0.5 0.5)" fill="#e8f8fc"/><path d="M590.59,2277.23a20.84,20.84,0,0,1-8.64-1.74,21.58,21.58,0,0,1-6.44-4.3h-.24c0,.81.08,2,.12,3.44s.06,3.11.06,4.86v24.59H561v-87.52h12.7l.61,6.65h.24a21.28,21.28,0,0,1,6.9-5.83,20.2,20.2,0,0,1,9.77-2.29,26.44,26.44,0,0,1,9.49,1.8,23,23,0,0,1,8.27,5.53,27.36,27.36,0,0,1,5.77,9.4,37.9,37.9,0,0,1,2.16,13.49,39.48,39.48,0,0,1-2.32,14.25,29.41,29.41,0,0,1-6.1,10,24.57,24.57,0,0,1-8.39,5.83A24.83,24.83,0,0,1,590.59,2277.23Zm-1.9-50.54a15.8,15.8,0,0,0-7.2,1.86,20.49,20.49,0,0,0-6,4.86v26.36a17.79,17.79,0,0,0,2.2,2.08,18.28,18.28,0,0,0,2.87,1.89,16.93,16.93,0,0,0,3.5,1.4,14.42,14.42,0,0,0,4,.55,11.92,11.92,0,0,0,10.35-5.49,20.17,20.17,0,0,0,2.65-6.26,36.64,36.64,0,0,0,0-16.45,17.66,17.66,0,0,0-2.68-6,11.74,11.74,0,0,0-4.18-3.6A12,12,0,0,0,588.69,2226.69Z" transform="translate(0.5 0.5)" fill="#e8f8fc"/><path d="M676,2229.19,697.76,2194h16.6l-30.94,48.76v32.9h-15v-32.9L637.52,2194h16.6l21.73,35.15Z" transform="translate(0.5 0.5)" fill="#e8f8fc"/><path d="M771.4,2246.16a37,37,0,0,1-2.08,12.7,27.67,27.67,0,0,1-6,9.82A26.18,26.18,0,0,1,754,2275a32.26,32.26,0,0,1-12.26,2.23,33.1,33.1,0,0,1-12.49-2.23,25.88,25.88,0,0,1-9.36-6.32,27.55,27.55,0,0,1-5.89-9.82,37.47,37.47,0,0,1-2-12.7,36.88,36.88,0,0,1,2.08-12.69,27.71,27.71,0,0,1,6-9.83,26.3,26.3,0,0,1,9.37-6.32,32.45,32.45,0,0,1,12.26-2.23,33.29,33.29,0,0,1,12.49,2.23,26,26,0,0,1,9.36,6.32,27.59,27.59,0,0,1,5.89,9.83A37.37,37.37,0,0,1,771.4,2246.16Zm-14.95,0a28.57,28.57,0,0,0-1.1-8.3,18,18,0,0,0-3.06-6,12.31,12.31,0,0,0-4.69-3.66,14.52,14.52,0,0,0-6-1.23,14.13,14.13,0,0,0-5.89,1.23,12.48,12.48,0,0,0-4.67,3.66,18.14,18.14,0,0,0-3,6,31.86,31.86,0,0,0,0,16.6,17.22,17.22,0,0,0,3.09,6,13.18,13.18,0,0,0,4.69,3.67,14.17,14.17,0,0,0,6,1.25,13.93,13.93,0,0,0,5.92-1.25,13,13,0,0,0,4.63-3.67,17.53,17.53,0,0,0,3.06-6A28.57,28.57,0,0,0,756.45,2246.16Z" transform="translate(0.5 0.5)" fill="#e8f8fc"/><path d="M811.59,2277.23q-8.91,0-14.77-3a21.12,21.12,0,0,1-8.85-8.15,21.89,21.89,0,0,1-2.35-6,32.49,32.49,0,0,1-.76-7.33v-36.13h14.46v34.61a26.5,26.5,0,0,0,.43,5.15,13.18,13.18,0,0,0,1.28,3.76,9.33,9.33,0,0,0,4.15,4,14.54,14.54,0,0,0,6.41,1.31,14.11,14.11,0,0,0,6.68-1.47,9.33,9.33,0,0,0,4.18-4.45,18.5,18.5,0,0,0,1.41-8v-34.91h14.46v36.13a26.71,26.71,0,0,1-2.5,12.15,20.39,20.39,0,0,1-3.63,5.09,21.39,21.39,0,0,1-5.25,3.91,27.47,27.47,0,0,1-6.84,2.5A37.69,37.69,0,0,1,811.59,2277.23Z" transform="translate(0.5 0.5)" fill="#e8f8fc"/><path d="M925.66,2253.79q2.69-9.64,6.65-20.69l14.1-39.06h21v81.66H952.46v-41.38q0-9.09.73-21.12h-.55c-.69,2.32-1.51,4.93-2.44,7.81s-1.91,5.74-2.93,8.55l-16.91,46.14h-9.64l-16.91-46.14c-1-2.81-2-5.66-2.93-8.55s-1.75-5.49-2.44-7.81h-.55q.74,11.3.73,21.06v41.44h-15V2194h20.87l14.1,38.88q3.54,9.7,6.65,20.87Z" transform="translate(0.5 0.5)" fill="#e8f8fc"/><path d="M1021.15,2269.42h-.24A28,28,0,0,1,1018,2272a26.63,26.63,0,0,1-3.91,2.53,22.12,22.12,0,0,1-10.68,2.66,23.25,23.25,0,0,1-7.87-1.31,17.79,17.79,0,0,1-6.29-3.79,17.61,17.61,0,0,1-4.12-6,19.75,19.75,0,0,1-1.5-7.84,20.25,20.25,0,0,1,1.74-8.55,18.22,18.22,0,0,1,4.86-6.41,21.26,21.26,0,0,1,7.44-4,31.45,31.45,0,0,1,9.58-1.38,48.19,48.19,0,0,1,7.08.49,49.93,49.93,0,0,1,5.68,1.16v-2.38a11.54,11.54,0,0,0-.7-4,9,9,0,0,0-2.26-3.42,11.22,11.22,0,0,0-4.06-2.38,18.42,18.42,0,0,0-6.1-.88,39.87,39.87,0,0,0-8.79,1,67.48,67.48,0,0,0-9.52,2.93v-11.3a47.46,47.46,0,0,1,9.46-3,54.59,54.59,0,0,1,10.5-1.1,36.44,36.44,0,0,1,11.32,1.59A23.92,23.92,0,0,1,1028,2221a17.75,17.75,0,0,1,4.88,6.57,20.71,20.71,0,0,1,1.62,8.24v22.27q0,5.87.12,10.07t.24,7.51h-13.06ZM1020,2250.5c-1.38-.33-3-.62-4.76-.89a37.73,37.73,0,0,0-5.43-.4,14.75,14.75,0,0,0-8.4,2.11,7.27,7.27,0,0,0-3.08,6.44,8.17,8.17,0,0,0,.71,3.51,6.85,6.85,0,0,0,1.89,2.47,7.9,7.9,0,0,0,2.77,1.46,11.24,11.24,0,0,0,3.36.49,14.35,14.35,0,0,0,4.15-.58,18.69,18.69,0,0,0,3.6-1.46,16.81,16.81,0,0,0,3-2,20.09,20.09,0,0,0,2.23-2.13Z" transform="translate(0.5 0.5)" fill="#e8f8fc"/><path d="M1087.1,2228h-1.22a31.77,31.77,0,0,0-11.69,2,16.19,16.19,0,0,0-7.78,6.07v39.61h-14.47v-59.14h12l1.35,8.24h.24a18.8,18.8,0,0,1,7-7.11,21.16,21.16,0,0,1,10.77-2.6,25.64,25.64,0,0,1,3.79.25Z" transform="translate(0.5 0.5)" fill="#e8f8fc"/><path d="M1097.5,2187.32H1112v53.23h.3l22.52-24h17.89l-25.94,27.77,26.12,31.37h-17.52l-23.13-27.53H1112v27.53H1097.5Z" transform="translate(0.5 0.5)" fill="#e8f8fc"/><path d="M1190.67,2265.57a47.84,47.84,0,0,0,8.79-.85,68.18,68.18,0,0,0,9.28-2.45v11.54a43.33,43.33,0,0,1-8.61,2.32,64.59,64.59,0,0,1-12,1.1,43,43,0,0,1-11.93-1.62,26,26,0,0,1-9.86-5.22,25.09,25.09,0,0,1-6.69-9.34,35.21,35.21,0,0,1-2.47-13.91,39.39,39.39,0,0,1,2.32-14.1,28.61,28.61,0,0,1,6.23-10,25.44,25.44,0,0,1,8.94-6,28.2,28.2,0,0,1,10.41-2,30.19,30.19,0,0,1,10.34,1.71,20.84,20.84,0,0,1,8.18,5.37,25.17,25.17,0,0,1,5.37,9.43,43.4,43.4,0,0,1,1.92,13.65c0,2-.1,3.76-.18,5.18h-38.76a17.94,17.94,0,0,0,1.83,7,13.41,13.41,0,0,0,4,4.7,16.5,16.5,0,0,0,5.77,2.63A29.39,29.39,0,0,0,1190.67,2265.57Zm-5.8-39.18a11,11,0,0,0-8.57,3.75,13.31,13.31,0,0,0-2.47,4.06,19,19,0,0,0-1.22,4.94h23.25a16.9,16.9,0,0,0-.7-4.94,12.1,12.1,0,0,0-2.08-4.06,9.7,9.7,0,0,0-3.42-2.75A10.73,10.73,0,0,0,1184.87,2226.39Z" transform="translate(0.5 0.5)" fill="#e8f8fc"/><path d="M1261.68,2275.64a35.54,35.54,0,0,1-5.82,1.16,51.75,51.75,0,0,1-6.32.43q-7.45,0-12.18-2.41a13.83,13.83,0,0,1-6.68-6.93,22.48,22.48,0,0,1-1.4-8.79v-30.64h-11v-11.9h11V2200h14.46v16.54h17.09v11.9h-17.09v28.75a9.68,9.68,0,0,0,1,5.06c1.22,1.88,3.64,2.81,7.26,2.81a32,32,0,0,0,5-.39,45.89,45.89,0,0,0,4.66-1Z" transform="translate(0.5 0.5)" fill="#e8f8fc"/><path d="M430.36,2425.7v-88.38h14.46v88.38Z" transform="translate(0.5 0.5)" fill="#e8f8fc"/><path d="M462.55,2337.32h15.2V2353h-15.2Zm.37,29.24h14.46v59.14H462.92Z" transform="translate(0.5 0.5)" fill="#e8f8fc"/><path d="M495.48,2337.32h14.46v53.23h.31l22.52-24h17.88l-25.94,27.77,26.13,31.37H533.32l-23.13-27.53h-.25v27.53H495.48Z" transform="translate(0.5 0.5)" fill="#e8f8fc"/><path d="M588.65,2415.57a47.92,47.92,0,0,0,8.79-.85,67.67,67.67,0,0,0,9.27-2.45v11.54a43.39,43.39,0,0,1-8.6,2.32,64.78,64.78,0,0,1-12,1.1,43.08,43.08,0,0,1-11.93-1.62,26,26,0,0,1-9.86-5.22,25.18,25.18,0,0,1-6.68-9.34,35,35,0,0,1-2.47-13.91,39.17,39.17,0,0,1,2.32-14.1,28.6,28.6,0,0,1,6.22-10,25.57,25.57,0,0,1,9-6,28.15,28.15,0,0,1,10.4-2,30.25,30.25,0,0,1,10.35,1.71,20.84,20.84,0,0,1,8.18,5.37,25.31,25.31,0,0,1,5.37,9.43,43.4,43.4,0,0,1,1.92,13.65c0,2-.1,3.76-.18,5.18H569.91a17.6,17.6,0,0,0,1.83,7,13.41,13.41,0,0,0,4,4.7,16.5,16.5,0,0,0,5.77,2.63A29.27,29.27,0,0,0,588.65,2415.57Zm-5.8-39.18a11.32,11.32,0,0,0-4.88,1,11.44,11.44,0,0,0-3.7,2.75,13.51,13.51,0,0,0-2.47,4.06,19.43,19.43,0,0,0-1.22,4.94h23.26a16.9,16.9,0,0,0-.71-4.94,12.08,12.08,0,0,0-2.07-4.06,9.89,9.89,0,0,0-3.42-2.75A10.73,10.73,0,0,0,582.85,2376.39Z" transform="translate(0.5 0.5)" fill="#e8f8fc"/><path d="M685.32,2419.42h-.24a27,27,0,0,1-2.93,2.62,26.63,26.63,0,0,1-3.91,2.53,22.12,22.12,0,0,1-10.68,2.66,23.29,23.29,0,0,1-7.87-1.31,17.88,17.88,0,0,1-6.29-3.79,17.61,17.61,0,0,1-4.12-6,19.92,19.92,0,0,1-1.49-7.84,20.25,20.25,0,0,1,1.74-8.55,18.2,18.2,0,0,1,4.85-6.41,21.4,21.4,0,0,1,7.45-4,31.4,31.4,0,0,1,9.58-1.38,48.39,48.39,0,0,1,7.08.49,49.93,49.93,0,0,1,5.68,1.16v-2.38a11.55,11.55,0,0,0-.71-4,8.89,8.89,0,0,0-2.26-3.42,11.17,11.17,0,0,0-4.05-2.38,18.48,18.48,0,0,0-6.11-.88,39.87,39.87,0,0,0-8.79,1,67.88,67.88,0,0,0-9.52,2.93v-11.3a47.66,47.66,0,0,1,9.46-3,54.76,54.76,0,0,1,10.5-1.1,36.39,36.39,0,0,1,11.32,1.59,23.82,23.82,0,0,1,8.12,4.36,17.65,17.65,0,0,1,4.88,6.57,20.71,20.71,0,0,1,1.62,8.24v22.27q0,5.87.12,10.07t.25,7.51H685.94Zm-1.15-18.92c-1.39-.33-3-.62-4.77-.89a37.73,37.73,0,0,0-5.43-.4c-3.54,0-6.34.71-8.39,2.11a7.25,7.25,0,0,0-3.08,6.44,8.17,8.17,0,0,0,.7,3.51,7.08,7.08,0,0,0,1.89,2.47,8,8,0,0,0,2.78,1.46,11.19,11.19,0,0,0,3.36.49,14.45,14.45,0,0,0,4.15-.58,18.69,18.69,0,0,0,3.6-1.46,17.19,17.19,0,0,0,3-2,22,22,0,0,0,2.23-2.13Z" transform="translate(0.5 0.5)" fill="#e8f8fc"/><path d="M787,2403.79q2.68-9.64,6.65-20.69L807.7,2344h21v81.66h-15v-41.38q0-9.09.73-21.12h-.55c-.69,2.32-1.5,4.93-2.44,7.81s-1.91,5.74-2.93,8.55l-16.9,46.14H782l-16.9-46.14q-1.53-4.21-2.93-8.55c-.94-2.88-1.75-5.49-2.45-7.81h-.55q.74,11.3.74,21.06v41.44H745V2344h20.88l14.1,38.88q3.54,9.7,6.65,20.87Z" transform="translate(0.5 0.5)" fill="#e8f8fc"/><path d="M882.43,2419.42h-.24a27,27,0,0,1-2.93,2.62,26.63,26.63,0,0,1-3.91,2.53,22.12,22.12,0,0,1-10.68,2.66,23.29,23.29,0,0,1-7.87-1.31,17.88,17.88,0,0,1-6.29-3.79,17.61,17.61,0,0,1-4.12-6,19.92,19.92,0,0,1-1.49-7.84,20.25,20.25,0,0,1,1.74-8.55,18.2,18.2,0,0,1,4.85-6.41,21.31,21.31,0,0,1,7.45-4,31.4,31.4,0,0,1,9.58-1.38,48.39,48.39,0,0,1,7.08.49,49.73,49.73,0,0,1,5.67,1.16v-2.38a11.54,11.54,0,0,0-.7-4,9,9,0,0,0-2.26-3.42,11.17,11.17,0,0,0-4-2.38,18.48,18.48,0,0,0-6.11-.88,39.87,39.87,0,0,0-8.79,1,67.88,67.88,0,0,0-9.52,2.93v-11.3a47.46,47.46,0,0,1,9.46-3,54.76,54.76,0,0,1,10.5-1.1,36.39,36.39,0,0,1,11.32,1.59,23.82,23.82,0,0,1,8.12,4.36,17.65,17.65,0,0,1,4.88,6.57,20.71,20.71,0,0,1,1.62,8.24v22.27q0,5.87.12,10.07t.25,7.51H883Zm-1.16-18.92c-1.38-.33-3-.62-4.76-.89a37.73,37.73,0,0,0-5.43-.4c-3.54,0-6.34.71-8.39,2.11a7.25,7.25,0,0,0-3.08,6.44,8.17,8.17,0,0,0,.7,3.51,7.08,7.08,0,0,0,1.89,2.47,7.94,7.94,0,0,0,2.78,1.46,11.17,11.17,0,0,0,3.35.49,14.47,14.47,0,0,0,4.16-.58,18.69,18.69,0,0,0,3.6-1.46,17.19,17.19,0,0,0,3-2,20.85,20.85,0,0,0,2.22-2.13Z" transform="translate(0.5 0.5)" fill="#e8f8fc"/><path d="M948.38,2378h-1.22a31.81,31.81,0,0,0-11.69,2,16.23,16.23,0,0,0-7.78,6.07v39.61H913.22v-59.14h12l1.34,8.24h.25a18.7,18.7,0,0,1,7-7.11,21.19,21.19,0,0,1,10.78-2.6,25.59,25.59,0,0,1,3.78.25Z" transform="translate(0.5 0.5)" fill="#e8f8fc"/><path d="M958.79,2337.32h14.46v53.23h.31l22.52-24H1014L988,2394.33l26.13,31.37H996.63l-23.13-27.53h-.25v27.53H958.79Z" transform="translate(0.5 0.5)" fill="#e8f8fc"/><path d="M1052,2415.57a47.81,47.81,0,0,0,8.78-.85,67.43,67.43,0,0,0,9.28-2.45v11.54a43.39,43.39,0,0,1-8.6,2.32,64.78,64.78,0,0,1-12,1.1,43,43,0,0,1-11.93-1.62,26,26,0,0,1-9.86-5.22,25.06,25.06,0,0,1-6.68-9.34,35,35,0,0,1-2.47-13.91,39.17,39.17,0,0,1,2.32-14.1,28.6,28.6,0,0,1,6.22-10,25.62,25.62,0,0,1,8.94-6,28.24,28.24,0,0,1,10.41-2,30.29,30.29,0,0,1,10.35,1.71,20.73,20.73,0,0,1,8.17,5.37,25.32,25.32,0,0,1,5.38,9.43,43.4,43.4,0,0,1,1.92,13.65c0,2-.1,3.76-.19,5.18h-38.75a17.6,17.6,0,0,0,1.83,7,13.41,13.41,0,0,0,4,4.7,16.45,16.45,0,0,0,5.76,2.63A29.41,29.41,0,0,0,1052,2415.57Zm-5.8-39.18a11,11,0,0,0-8.58,3.75,13.31,13.31,0,0,0-2.47,4.06,19.43,19.43,0,0,0-1.22,4.94h23.25a16.9,16.9,0,0,0-.7-4.94,12.26,12.26,0,0,0-2.07-4.06,9.89,9.89,0,0,0-3.42-2.75A10.76,10.76,0,0,0,1046.16,2376.39Z" transform="translate(0.5 0.5)" fill="#e8f8fc"/><path d="M1123,2425.64a35.68,35.68,0,0,1-5.83,1.16,51.62,51.62,0,0,1-6.32.43q-7.44,0-12.17-2.41a13.81,13.81,0,0,1-6.69-6.93,22.67,22.67,0,0,1-1.4-8.79v-30.64h-11v-11.9h11V2350H1105v16.54h17.09v11.9H1105v28.75a9.68,9.68,0,0,0,1,5.06c1.22,1.88,3.64,2.81,7.27,2.81a31.91,31.91,0,0,0,5-.39,46.09,46.09,0,0,0,4.67-1Z" transform="translate(0.5 0.5)" fill="#e8f8fc"/><path d="M1166,2415.57a48,48,0,0,0,8.79-.85,67.67,67.67,0,0,0,9.27-2.45v11.54a43.39,43.39,0,0,1-8.6,2.32,64.78,64.78,0,0,1-12,1.1,43,43,0,0,1-11.93-1.62,26,26,0,0,1-9.86-5.22,25.18,25.18,0,0,1-6.68-9.34,35,35,0,0,1-2.47-13.91,39.17,39.17,0,0,1,2.32-14.1,28.6,28.6,0,0,1,6.22-10,25.57,25.57,0,0,1,9-6,28.15,28.15,0,0,1,10.4-2,30.29,30.29,0,0,1,10.35,1.71,20.84,20.84,0,0,1,8.18,5.37,25.45,25.45,0,0,1,5.37,9.43,43.4,43.4,0,0,1,1.92,13.65c0,2-.1,3.76-.18,5.18h-38.76a17.6,17.6,0,0,0,1.83,7,13.41,13.41,0,0,0,4,4.7,16.5,16.5,0,0,0,5.77,2.63A29.27,29.27,0,0,0,1166,2415.57Zm-5.8-39.18a11.32,11.32,0,0,0-4.88,1,11.44,11.44,0,0,0-3.7,2.75,13.31,13.31,0,0,0-2.47,4.06,19.43,19.43,0,0,0-1.22,4.94h23.25a16.9,16.9,0,0,0-.7-4.94,12.26,12.26,0,0,0-2.07-4.06,9.89,9.89,0,0,0-3.42-2.75A10.73,10.73,0,0,0,1160.17,2376.39Z" transform="translate(0.5 0.5)" fill="#e8f8fc"/><path d="M1236,2378h-1.22a31.84,31.84,0,0,0-11.69,2,16.23,16.23,0,0,0-7.78,6.07v39.61h-14.46v-59.14h12l1.34,8.24h.25a18.8,18.8,0,0,1,7-7.11,21.16,21.16,0,0,1,10.77-2.6,25.5,25.5,0,0,1,3.78.25Z" transform="translate(0.5 0.5)" fill="#e8f8fc"/><path d="M97,0V2559.48H65.73A31.89,31.89,0,0,0,60,2560V0Z" transform="translate(0.5 0.5)" fill="#219451"/></svg>