<svg id="Layer_1" data-name="Layer 1" xmlns="http://www.w3.org/2000/svg" xmlns:xlink="http://www.w3.org/1999/xlink" viewBox="0 0 1903.43 2712.74"><defs><clipPath id="clip-path" transform="translate(297.59 1)"><path d="M1,2529.41s8.4-10.79,8.4-13.19v-27.59s5.39-10.2,21-9,86.37-82.77,86.37-82.77,28.79-26.39,40.78-26.39,30-42,30-42l1.2-3.6h-6s20.39-36,21.59-40.79a29.88,29.88,0,0,1,3.6-8.39l1.2-46.79s3.6-20.39,9.6-25.19l-8.4-8.39s32.39-44.39,44.38-58.78,24-63.58,24-63.58-1.2-46.78,12-68.37S319.48,1983,319.48,1983s15.59-1.2,21.59,1.2,6-15.6,6-15.6-25.19,2.4-24-12,13.19-15.6,13.19-15.6-18-36,9.6-54,49.18,8.4,49.18,8.4,13.2,24,10.8,50.38v28.79H380.66s-1.2,20.39-4.8,22.79-9.6,1.2-9.6,1.2,22.79,20.39,32.39,22.79,34.79,9.6,42,9.6,105.56-4.8,105.56-4.8,3.59-26.39,18-30h7.2s-2.4-20.39,0-25.19-12-92.36-3.6-100.76,37.18-54,94.76-50.38c0,0,15.6-14.4,25.19-21.59,0,0,80.37-7.2,100.76-1.2s138,2.4,146.35,1.2,140.35,2.39,173.93,12h86.37l4.8-55.18,135.55-8.39v-27.59L1600,1707V2303.3l-238.11-21.6s-14.4-55.17-13.2-72c0,0-148.74-18-155.94-24v-4.8s-16.79,2.4-34.78,26.39-73.18,68.38-96,68.38c0,0-82.77,12-97.16,9.59s-67.18,16.8-80.37,32.39-60,51.58-66,54-61.17,1.2-61.17,1.2-76.77,2.4-100.77-19.19-8.39-55.18-8.39-55.18-87.57-21.59-91.17-30-13.19-52.78-6-70.77,16.8-61.18,16.8-61.18v-90s-19.2,2.4-21.59,1.2l-2.4,10.8S462.23,2067,449,2067s-50.38-6-50.38-6-16.79,37.18-21.59,40.78-20.39,44.39-20.39,52.78,3.6,63.58,3.6,63.58h-15.6l46.78,62.37s-1.2,7.2-2.4,7.2,48,45.59,48,49.18-8.4,63.58-19.2,82.77-18,60-16.79,67.18,1.2,37.18,16.79,45.58,32.39,16.79,33.59,19.19,2.4,6,0,7.2-45.58,1.2-45.58,1.2-21.59-25.19-24-25.19h-7.2v24h-4.8l-1.2-19.19s-9.59-13.2-2.4-25.19c0,0,9.6-30,9.6-49.18s4.8-69.58,4.8-69.58,7.19-24,10.79-27.59v-8.39s-46.78-32.39-56.38-33.59-66,10.79-85.16,10.79c0,0-22.79,34.79-33.59,37.19s-14.4,22.79-34.79,26.39c0,0-30,20.39-54,42,0,0-32.39,21.6-40.78,31.19,0,0-20.39,14.4-24,25.19,0,0-4.8-1.2-6,9.6s0,30,0,30,20.39,12,21.59,15.59S40,2555.2,40,2555.2s-15.6-12-15.6-19.19a130.4,130.4,0,0,0-1.2-15.6l-2.4-3.59h-6S10,2531.21,6.4,2531.21A7.88,7.88,0,0,1,1,2529.41Z" fill="none"/></clipPath></defs><title>women&amp;apos;s_back</title><rect x="298.09" y="0.5" width="1600" height="2560" fill="#178fa6" stroke="#000" stroke-miterlimit="10"/><g clip-path="url(#clip-path)"><image width="978" height="694" transform="translate(0 1362.05) scale(1.95)" xlink:href="women's_back1.png"/></g><text transform="translate(717.68 360.05)" font-size="225" font-family="Rockwell-Bold, Rockwell" font-weight="700"><tspan letter-spacing="0.02em">W</tspan><tspan x="228.41" y="0">hat</tspan><tspan x="577.66" y="0" letter-spacing="-0.08em">’</tspan><tspan x="639.29" y="0">s </tspan><tspan x="-63.56" y="270">Holding </tspan><tspan x="-122" y="540" letter-spacing="-0.1em">W</tspan><tspan x="78.28" y="540">omen</tspan><tspan x="699.66" y="540" letter-spacing="-0.08em">’</tspan><tspan x="761.3" y="540">s </tspan><tspan x="98.55" y="810">Ba</tspan><tspan x="386.83" y="810" letter-spacing="-0.02em">c</tspan><tspan x="510.09" y="810">k</tspan></text></svg>