<svg id="Layer_1" data-name="Layer 1" xmlns="http://www.w3.org/2000/svg" xmlns:xlink="http://www.w3.org/1999/xlink" viewBox="0 0 1600 2560"><defs><linearGradient id="linear-gradient" y1="1280" x2="1600" y2="1280" gradientUnits="userSpaceOnUse"><stop offset="0" stop-color="#0e2a55"/><stop offset="0.39" stop-color="#0d274f"/><stop offset="0.9" stop-color="#0a1f3f"/><stop offset="1" stop-color="#091d3b"/></linearGradient></defs><title>zero_to_one</title><rect width="1600" height="2560" fill="url(#linear-gradient)"/><path d="M522.78,2040v-70.31a22.06,22.06,0,0,0-22-22H415.32a22,22,0,0,0-22,22V2040L466,2083.82Z" fill="#ec5469" fill-rule="evenodd"/><path d="M1226,1749.74l64.74,45.82,64.74-45.82v-69.48a22.91,22.91,0,0,0-22.84-22.85h-83.8a22.91,22.91,0,0,0-22.84,22.85Z" fill="#6fd7a3" fill-rule="evenodd"/><path d="M900.06,1461.76l64.74,50,64.74-50v-69.48a22.85,22.85,0,0,0-22.85-22.85H922.87a22.9,22.9,0,0,0-22.81,22.85Z" fill="#ffc243" fill-rule="evenodd"/><path d="M777.27,1461.76V1392.4a23,23,0,0,0-22.94-23h-83.5a23.11,23.11,0,0,0-23,23v69.29l64.74,39.9Z" fill="#ffc243" fill-rule="evenodd"/><path d="M522.78,1461.76v-70.18a22.21,22.21,0,0,0-22.12-22.15H415.41a22.2,22.2,0,0,0-22.11,22.15v70.18L458,1526.22Z" fill="#ffc243" fill-rule="evenodd"/><path d="M319.63,1496.58V1717.7a33.58,33.58,0,0,0,33.47,33.48h716.63a33.58,33.58,0,0,0,33.48-33.48v-221a33.58,33.58,0,0,0-33.48-33.48H353.13a33.54,33.54,0,0,0-33.5,33.39Z" fill="#ffc243" fill-rule="evenodd"/><path d="M645.56,1784.65v221A33.58,33.58,0,0,0,679,2039.16h716.63a33.58,33.58,0,0,0,33.47-33.48v-221a33.57,33.57,0,0,0-33.48-33.47H679A33.57,33.57,0,0,0,645.56,1784.65Z" fill="#6fd7a3" fill-rule="evenodd"/><path d="M1069.7,2039.16H353.13a33.53,33.53,0,0,0-33.5,33.38V2293.7a33.55,33.55,0,0,0,33.5,33.44H1069.7a33.56,33.56,0,0,0,33.51-33.44V2072.54A33.54,33.54,0,0,0,1069.7,2039.16Z" fill="#ec5469" fill-rule="evenodd"/><path d="M942.69,1751.18h127a33.58,33.58,0,0,0,33.48-33.48v-221a33.58,33.58,0,0,0-33.48-33.48h-127A33.42,33.42,0,0,1,976,1496.58v221.21A33.43,33.43,0,0,1,942.69,1751.18Z" fill="#fea610" fill-rule="evenodd"/><path d="M1301.89,1784.56v221.22a33.42,33.42,0,0,1-33.27,33.38h127.05a33.58,33.58,0,0,0,33.47-33.48v-221a33.57,33.57,0,0,0-33.48-33.47h-127A33.42,33.42,0,0,1,1301.89,1784.56Z" fill="#3ec3a4" fill-rule="evenodd"/><path d="M1103.21,2072.64a33.58,33.58,0,0,0-33.48-33.48h-127A33.42,33.42,0,0,1,976,2072.54V2293.7a33.43,33.43,0,0,1-33.27,33.44h127.24a33.44,33.44,0,0,0,33.28-33.44Z" fill="#e5374e" fill-rule="evenodd"/><path d="M478.13,1391.39V1461H525v-69.57c0-12.11-10.22-22-22.63-22H455.5C468,1369.43,478.13,1379.28,478.13,1391.39Z" fill="#fea610" fill-rule="evenodd"/><path d="M730.39,1392.2V1461h46.88V1392.2c0-12.54-10.6-22.77-23.47-22.77H706.92C719.85,1369.43,730.39,1379.66,730.39,1392.2Z" fill="#fea610" fill-rule="evenodd"/><path d="M982.66,1392.08V1461h46.88v-68.68a22.85,22.85,0,0,0-22.85-22.85H959.28C972.1,1369.43,982.66,1379.59,982.66,1392.08Z" fill="#fea610" fill-rule="evenodd"/><path d="M1310.82,1682.29v68.89h46.88v-68.69a22.91,22.91,0,0,0-22.84-22.84h-47.38C1300.35,1659.65,1310.82,1669.87,1310.82,1682.29Z" fill="#3ec3a4" fill-rule="evenodd"/><path d="M525,2039.16v-69.7c0-12-10.15-21.83-22.51-21.83H455.62c12.42,0,22.51,9.78,22.51,21.83v69.7Z" fill="#e5374e" fill-rule="evenodd"/><path d="M308.75,482.32H181.85V461.88L262.6,353.67H187.68V324.78H308.53v19.88l-79,108.88h79.21Z" fill="#ffc243"/><path d="M429.6,436H356.21q1.76,24.5,30.87,24.5,18.57,0,32.63-8.79v25.05q-15.6,8.34-40.54,8.35-27.26,0-42.3-15.11t-15.05-42.13q0-28,16.26-44.39t40-16.37q24.62,0,38.07,14.61t13.46,39.67Zm-32.19-21.32q0-24.17-19.56-24.17-8.36,0-14.45,6.93A31.43,31.43,0,0,0,356,414.64Z" fill="#ffc243"/><path d="M523.64,401.13A30.15,30.15,0,0,0,509,397.72q-11.32,0-17.69,8.3T485,428.6v53.72H450.25V369.82H485v20.87h.44q8.23-22.85,29.66-22.85a22.34,22.34,0,0,1,8.57,1.32Z" fill="#ffc243"/><path d="M593.4,485.07q-28.12,0-44.22-15.77t-16.09-42.79q0-27.9,16.7-43.67t45.15-15.77q28,0,43.95,15.77t15.93,41.69q0,28-16.43,44.28T593.4,485.07Zm.88-91.41q-12.3,0-19.11,8.46t-6.82,23.95q0,32.42,26.15,32.41,24.94,0,24.94-33.29Q619.44,393.66,594.28,393.66Z" fill="#ffc243"/><path d="M853.45,353.67H808.51V482.32H772.92V353.67H728.2V324.78H853.45Z" fill="#6fd7a3"/><path d="M924.86,485.07q-28.12,0-44.22-15.77t-16.1-42.79q0-27.9,16.7-43.67t45.16-15.77q28,0,43.94,15.77t15.93,41.69q0,28-16.42,44.28T924.86,485.07Zm.88-91.41q-12.3,0-19.12,8.46t-6.81,23.95q0,32.42,26.15,32.41,24.93,0,24.94-33.29Q950.9,393.66,925.74,393.66Z" fill="#6fd7a3"/><path d="M1140.85,485.07q-33.84,0-55.15-22t-21.31-57.41q0-37.35,21.64-60.42t57.35-23.07q33.72,0,54.55,22.08t20.81,58.23q0,37.14-21.58,59.87T1140.85,485.07Zm1.54-132.39q-18.67,0-29.66,14t-11,37.08q0,23.4,11,37t28.78,13.62q18.35,0,29.11-13.23t10.77-36.75q0-24.51-10.44-38.13T1142.39,352.68Z" fill="#ec5469"/><path d="M1350.14,482.32h-34.61V419.81q0-26.15-18.67-26.15a18.53,18.53,0,0,0-14.83,6.92q-5.83,6.93-5.83,17.58v64.16h-34.71V369.82h34.71v17.8h.44q12.42-20.55,36.15-20.55,37.35,0,37.35,46.37Z" fill="#ec5469"/><path d="M1478.68,436h-73.39q1.76,24.5,30.87,24.5,18.57,0,32.63-8.79v25.05q-15.6,8.34-40.54,8.35Q1401,485.07,1386,470t-15.06-42.13q0-28,16.26-44.39t40-16.37q24.61,0,38.07,14.61t13.46,39.67Zm-32.19-21.32q0-24.17-19.56-24.17-8.34,0-14.44,6.93a31.36,31.36,0,0,0-7.42,17.24Z" fill="#ec5469"/><path d="M391.21,874.19H375.29l-28.85-44a62.07,62.07,0,0,1-3.52-5.81h-.2c.27,2.47.4,6.25.4,11.32v38.48h-14.9v-70h17L373,846.8q1.9,2.88,3.51,5.71h.2a75,75,0,0,1-.39-9.62V804.17h14.89Z" fill="#f2f2f2"/><path d="M429.54,875.41q-12.5,0-19.65-7t-7.16-19q0-12.4,7.43-19.41t20.06-7q12.46,0,19.54,7t7.08,18.53q0,12.45-7.3,19.68T429.54,875.41Zm.39-40.62a10.27,10.27,0,0,0-8.49,3.76q-3,3.75-3,10.64,0,14.4,11.62,14.41,11.09,0,11.08-14.8Q441.11,834.79,429.93,834.79Z" fill="#f2f2f2"/><path d="M497.07,873.61q-3.42,1.8-10.3,1.8-16.31,0-16.31-16.94v-22.9h-8.11V824.19h8.11V813.4L485.84,809v15.18h11.23v11.38H485.84v20.21q0,7.82,6.2,7.82a10.52,10.52,0,0,0,5-1.42Z" fill="#f2f2f2"/><path d="M550.68,853.59H518.07q.78,10.89,13.72,10.88a26.82,26.82,0,0,0,14.5-3.9V871.7q-6.93,3.72-18,3.71-12.1,0-18.8-6.71T502.78,850q0-12.45,7.23-19.72A24.08,24.08,0,0,1,527.78,823q11,0,16.92,6.49t6,17.63Zm-14.3-9.48q0-10.74-8.69-10.74a8.32,8.32,0,0,0-6.43,3.08,14,14,0,0,0-3.29,7.66Z" fill="#f2f2f2"/><path d="M556.59,872.87v-12.5a33,33,0,0,0,7.59,3.42,25.18,25.18,0,0,0,7.16,1.12,15.35,15.35,0,0,0,6.47-1.12,3.63,3.63,0,0,0,2.37-3.42,3.16,3.16,0,0,0-1.08-2.44,9.87,9.87,0,0,0-2.76-1.71,30.87,30.87,0,0,0-3.68-1.32c-1.34-.39-2.62-.83-3.86-1.31a37,37,0,0,1-5.25-2.42,15.25,15.25,0,0,1-3.81-3,11.77,11.77,0,0,1-2.34-4,15.71,15.71,0,0,1-.81-5.32,13.72,13.72,0,0,1,1.83-7.23,14.83,14.83,0,0,1,4.89-4.95,22.35,22.35,0,0,1,7-2.84,36.49,36.49,0,0,1,8.18-.9,45.69,45.69,0,0,1,6.74.51,51.84,51.84,0,0,1,6.73,1.49v11.92a24.28,24.28,0,0,0-6.27-2.57,26.45,26.45,0,0,0-6.57-.85,14.36,14.36,0,0,0-2.85.27,9.42,9.42,0,0,0-2.37.78,4.25,4.25,0,0,0-1.61,1.32,3,3,0,0,0-.59,1.83,3.36,3.36,0,0,0,.88,2.34,7.75,7.75,0,0,0,2.29,1.69A24.3,24.3,0,0,0,578,843q1.74.56,3.45,1.14a44.71,44.71,0,0,1,5.56,2.35,17.44,17.44,0,0,1,4.27,3,11.75,11.75,0,0,1,2.74,4,16,16,0,0,1-1,13.06,15.41,15.41,0,0,1-5.12,5.13,23.21,23.21,0,0,1-7.38,2.88,41,41,0,0,1-8.66.9A44.52,44.52,0,0,1,556.59,872.87Z" fill="#f2f2f2"/><path d="M655.27,875.41q-12.49,0-19.65-7t-7.15-19q0-12.4,7.42-19.41T656,823q12.45,0,19.53,7t7.08,18.53q0,12.45-7.3,19.68T655.27,875.41Zm.39-40.62a10.28,10.28,0,0,0-8.49,3.76q-3,3.75-3,10.64,0,14.4,11.62,14.41,11.09,0,11.09-14.8Q666.85,834.79,655.66,834.79Z" fill="#f2f2f2"/><path d="M740.87,874.19H725.49V846.41q0-11.62-8.3-11.62a8.22,8.22,0,0,0-6.59,3.07,11.71,11.71,0,0,0-2.59,7.82v28.51H692.58v-50H708v7.91h.19q5.52-9.14,16.07-9.13,16.59,0,16.6,20.61Z" fill="#f2f2f2"/><path d="M779,871.51V855.88A29.92,29.92,0,0,0,798.24,863a22.16,22.16,0,0,0,5.2-.54,12.07,12.07,0,0,0,3.71-1.49,6.44,6.44,0,0,0,2.23-2.24,5.69,5.69,0,0,0,.73-2.81,6.05,6.05,0,0,0-1.17-3.66,12.66,12.66,0,0,0-3.2-3,34.18,34.18,0,0,0-4.81-2.64c-1.86-.84-3.86-1.71-6-2.59q-8.2-3.4-12.23-8.35a18.17,18.17,0,0,1-4-11.91,18.94,18.94,0,0,1,2.2-9.4,18.62,18.62,0,0,1,6-6.47,26.72,26.72,0,0,1,8.77-3.73,44.85,44.85,0,0,1,10.54-1.2,63.23,63.23,0,0,1,9.69.66,37.45,37.45,0,0,1,7.79,2v14.6a23.25,23.25,0,0,0-3.83-2.15,30.61,30.61,0,0,0-4.27-1.54,31.42,31.42,0,0,0-4.37-.9,30.31,30.31,0,0,0-4.13-.3,21,21,0,0,0-4.88.52,12.38,12.38,0,0,0-3.71,1.44,7.08,7.08,0,0,0-2.35,2.22,5.28,5.28,0,0,0-.83,2.9,5.55,5.55,0,0,0,.93,3.15,10.64,10.64,0,0,0,2.64,2.64,28.11,28.11,0,0,0,4.15,2.44q2.44,1.2,5.52,2.47a60.9,60.9,0,0,1,7.54,3.73,27,27,0,0,1,5.74,4.47,17.57,17.57,0,0,1,3.66,5.69,22.71,22.71,0,0,1-1,17.28,18,18,0,0,1-6,6.45,26.35,26.35,0,0,1-8.87,3.54,51.51,51.51,0,0,1-10.66,1.07,59.47,59.47,0,0,1-11-1A33.38,33.38,0,0,1,779,871.51Z" fill="#f2f2f2"/><path d="M866.94,873.61q-3.41,1.8-10.3,1.8-16.3,0-16.31-16.94v-22.9h-8.1V824.19h8.1V813.4L855.71,809v15.18h11.23v11.38H855.71v20.21q0,7.82,6.2,7.82a10.49,10.49,0,0,0,5-1.42Z" fill="#f2f2f2"/><path d="M917.24,874.19h-14.6V867h-.2a16.29,16.29,0,0,1-14.89,8.4q-7.27,0-11.45-4.12t-4.18-11q0-14.55,17.24-16.8l13.57-1.81q0-8.2-8.88-8.2a30.3,30.3,0,0,0-17,5.32V827.17a38,38,0,0,1,8.81-2.93A46.13,46.13,0,0,1,895.85,823q21.39,0,21.39,21.34Zm-14.51-20.31v-3.37l-9.08,1.17q-7.51,1-7.52,6.79a5.6,5.6,0,0,0,1.83,4.32,7.06,7.06,0,0,0,5,1.68,9.13,9.13,0,0,0,7.08-3A10.85,10.85,0,0,0,902.73,853.88Z" fill="#f2f2f2"/><path d="M962.06,838.11a13.36,13.36,0,0,0-6.49-1.52,9.33,9.33,0,0,0-7.86,3.69q-2.84,3.69-2.84,10v23.88H929.44v-50h15.43v9.28h.2q3.66-10.15,13.18-10.16a9.93,9.93,0,0,1,3.81.59Z" fill="#f2f2f2"/><path d="M999.46,873.61q-3.42,1.8-10.3,1.8-16.3,0-16.31-16.94v-22.9h-8.1V824.19h8.1V813.4L988.23,809v15.18h11.23v11.38H988.23v20.21q0,7.82,6.2,7.82a10.49,10.49,0,0,0,5-1.42Z" fill="#f2f2f2"/><path d="M1055.67,874.19h-15.39v-7.62H1040q-5.71,8.85-15.28,8.84-17.38,0-17.39-21V824.19h15.38V853q0,10.59,8.4,10.6a8.3,8.3,0,0,0,6.64-2.91,11.72,11.72,0,0,0,2.49-7.89V824.19h15.39Z" fill="#f2f2f2"/><path d="M1084.28,868.38h-.2v28.81h-15.43v-73h15.43v7.52h.2a18.13,18.13,0,0,1,16.06-8.74q9.72,0,15,6.67t5.3,18.14q0,12.5-6.18,20.06a20.14,20.14,0,0,1-16.43,7.57Q1089,875.41,1084.28,868.38Zm-.44-20.51v4a12.72,12.72,0,0,0,2.73,8.44,8.9,8.9,0,0,0,7.18,3.28,9.46,9.46,0,0,0,8.18-4.08q2.91-4.08,2.9-11.55,0-13.19-10.25-13.18a9.6,9.6,0,0,0-7.74,3.59Q1083.84,842,1083.84,847.87Z" fill="#f2f2f2"/><path d="M1145.26,861.89l-7.17,24.7h-12l5-24.7Z" fill="#f2f2f2"/><path d="M1209.18,875.41q-12.5,0-19.65-7t-7.16-19q0-12.4,7.43-19.41t20.06-7q12.47,0,19.54,7t7.08,18.53q0,12.45-7.3,19.68T1209.18,875.41Zm.39-40.62a10.25,10.25,0,0,0-8.49,3.76q-3,3.75-3,10.64,0,14.4,11.62,14.41,11.08,0,11.08-14.8Q1220.75,834.79,1209.57,834.79Z" fill="#f2f2f2"/><path d="M1279.1,838.11a13.36,13.36,0,0,0-6.49-1.52,9.33,9.33,0,0,0-7.86,3.69q-2.84,3.69-2.83,10v23.88h-15.43v-50h15.43v9.28h.19q3.66-10.15,13.18-10.16a9.93,9.93,0,0,1,3.81.59Z" fill="#f2f2f2"/><path d="M303.47,994.19H287.65V965.68h-29v28.51H242.87v-70h15.77V952.1h29V924.17h15.82Z" fill="#f2f2f2"/><path d="M341.8,995.41q-12.51,0-19.66-7t-7.15-19q0-12.4,7.42-19.41t20.07-7q12.45,0,19.53,7t7.08,18.53q0,12.45-7.3,19.68T341.8,995.41Zm.39-40.62a10.29,10.29,0,0,0-8.5,3.76q-3,3.75-3,10.64,0,14.4,11.63,14.41,11.07,0,11.08-14.8Q353.37,954.79,342.19,954.79Z" fill="#f2f2f2"/><path d="M451.51,944.19l-14.4,50H420.9l-7.37-29.3a29.33,29.33,0,0,1-.83-6.39h-.3a39,39,0,0,1-1,6.2l-7.91,29.49h-16l-14.11-50h15.72L396,976.81a42.78,42.78,0,0,1,.73,5.57H397a31,31,0,0,1,.88-5.77l8.59-32.42h14.7l7.72,32.62a53.38,53.38,0,0,1,.68,5.66h.34a55,55,0,0,1,.78-5.66l6.5-32.62Z" fill="#f2f2f2"/><path d="M516.65,993.61q-3.42,1.8-10.3,1.8-16.31,0-16.31-16.94v-22.9h-8.11V944.19H490V933.4L505.42,929v15.18h11.23v11.38H505.42v20.21q0,7.82,6.2,7.82a10.52,10.52,0,0,0,5-1.42Z" fill="#f2f2f2"/><path d="M549.17,995.41q-12.49,0-19.65-7t-7.16-19q0-12.4,7.43-19.41t20.06-7q12.45,0,19.53,7t7.08,18.53q0,12.45-7.29,19.68T549.17,995.41Zm.39-40.62a10.3,10.3,0,0,0-8.5,3.76q-3,3.75-3,10.64,0,14.4,11.62,14.41,11.08,0,11.08-14.8Q560.74,954.79,549.56,954.79Z" fill="#f2f2f2"/><path d="M615.58,994.19v-70h25.48q11.73,0,18,4.3a13.81,13.81,0,0,1,6.3,12.11,14.36,14.36,0,0,1-3.83,9.91,20.21,20.21,0,0,1-9.79,5.91v.19a19.42,19.42,0,0,1,11.94,5.52,15.46,15.46,0,0,1,4.46,11.18q0,9.63-6.88,15.26t-18.8,5.64Zm15.77-58.4v16.6h6.93c3.26,0,5.82-.78,7.69-2.36a8.09,8.09,0,0,0,2.81-6.52q0-7.72-11.52-7.72Zm0,28.32v18.46h8.54c3.65,0,6.5-.85,8.57-2.54a8.46,8.46,0,0,0,3.1-6.93,7.91,7.91,0,0,0-3-6.59q-3-2.4-8.52-2.4Z" fill="#f2f2f2"/><path d="M725.68,994.19H710.3v-7.62h-.24q-5.71,8.85-15.28,8.84-17.38,0-17.39-21V944.19h15.38V973q0,10.59,8.4,10.6a8.3,8.3,0,0,0,6.64-2.91,11.72,11.72,0,0,0,2.49-7.89V944.19h15.38Z" fill="#f2f2f2"/><path d="M746.48,936.28a9,9,0,0,1-6.39-2.32,7.46,7.46,0,0,1-2.49-5.69,7.19,7.19,0,0,1,2.49-5.66,10.44,10.44,0,0,1,12.82,0,7.23,7.23,0,0,1,2.46,5.66,7.46,7.46,0,0,1-2.46,5.77A9.22,9.22,0,0,1,746.48,936.28Zm7.62,57.91H738.67v-50H754.1Z" fill="#f2f2f2"/><path d="M782.52,994.19H767.09v-74h15.43Z" fill="#f2f2f2"/><path d="M844.43,994.19H829v-6.88h-.19q-5.28,8.1-15.48,8.1-9.37,0-15.09-6.61t-5.71-18.49q0-12.39,6.3-19.87a20.54,20.54,0,0,1,16.5-7.47q9.67,0,13.48,6.93H829V920.17h15.43ZM829.3,969.88v-3.76a11.83,11.83,0,0,0-2.84-8.11,10,10,0,0,0-15.38.81q-2.88,4-2.88,11.06,0,6.58,2.79,10.15a9.87,9.87,0,0,0,15.35-.19Q829.29,976.08,829.3,969.88Z" fill="#f2f2f2"/><path d="M915.23,993.61q-3.4,1.8-10.3,1.8-16.3,0-16.31-16.94v-22.9h-8.1V944.19h8.1V933.4L904,929v15.18h11.23v11.38H904v20.21q0,7.82,6.21,7.82a10.48,10.48,0,0,0,5-1.42Z" fill="#f2f2f2"/><path d="M971.92,994.19H956.54V965.77q0-11-8-11a8.21,8.21,0,0,0-6.65,3.07,11.89,11.89,0,0,0-2.53,7.82v28.51H923.93v-74h15.43v31.44h.19q5.67-8.64,15.38-8.64,17,0,17,20.51Z" fill="#f2f2f2"/><path d="M1029.05,973.59H996.44q.78,10.89,13.72,10.88a26.82,26.82,0,0,0,14.5-3.9V991.7q-6.93,3.72-18,3.71-12.1,0-18.8-6.71T981.15,970q0-12.45,7.23-19.72a24.08,24.08,0,0,1,17.77-7.28q10.94,0,16.92,6.49t6,17.63Zm-14.3-9.48q0-10.74-8.7-10.74a8.31,8.31,0,0,0-6.42,3.08,14,14,0,0,0-3.29,7.66Z" fill="#f2f2f2"/><path d="M1107.81,937h-24.7V954.2h22.7V967h-22.7v27.2h-15.78v-70h40.48Z" fill="#f2f2f2"/><path d="M1165.33,994.19H1150v-7.62h-.24q-5.71,8.85-15.29,8.84-17.37,0-17.38-21V944.19h15.38V973q0,10.59,8.4,10.6a8.3,8.3,0,0,0,6.64-2.91,11.72,11.72,0,0,0,2.49-7.89V944.19h15.38Z" fill="#f2f2f2"/><path d="M1208.55,993.61q-3.42,1.8-10.31,1.8-16.31,0-16.31-16.94v-22.9h-8.1V944.19h8.1V933.4l15.39-4.39v15.18h11.23v11.38h-11.23v20.21q0,7.82,6.2,7.82a10.55,10.55,0,0,0,5-1.42Z" fill="#f2f2f2"/><path d="M1264.75,994.19h-15.38v-7.62h-.25q-5.71,8.85-15.28,8.84-17.38,0-17.38-21V944.19h15.38V973q0,10.59,8.4,10.6a8.31,8.31,0,0,0,6.64-2.91,11.72,11.72,0,0,0,2.49-7.89V944.19h15.38Z" fill="#f2f2f2"/><path d="M1310.35,958.11a13.36,13.36,0,0,0-6.49-1.52,9.33,9.33,0,0,0-7.86,3.69q-2.84,3.69-2.83,10v23.88h-15.43v-50h15.43v9.28h.19q3.66-10.15,13.18-10.16a9.93,9.93,0,0,1,3.81.59Z" fill="#f2f2f2"/><path d="M1362.45,973.59h-32.62q.8,10.89,13.73,10.88a26.82,26.82,0,0,0,14.5-3.9V991.7q-6.94,3.72-18,3.71-12.11,0-18.8-6.71T1314.55,970q0-12.45,7.23-19.72a24.08,24.08,0,0,1,17.77-7.28q10.93,0,16.92,6.49t6,17.63Zm-14.3-9.48q0-10.74-8.7-10.74a8.31,8.31,0,0,0-6.42,3.08,14,14,0,0,0-3.29,7.66Z" fill="#f2f2f2"/><rect x="65" width="37.5" height="2559" fill="#091d3b"/></svg>